<?xml version="1.0" encoding="UTF-8" standalone="no"?>
<!-- Created with Inkscape (http://www.inkscape.org/) -->
<svg
   xmlns:svg="http://www.w3.org/2000/svg"
   xmlns="http://www.w3.org/2000/svg"
   version="1.0"
   width="85"
   height="122"
   viewBox="-0.354 0.026 85 122"
   id="svg2"
   xml:space="preserve"
   style="overflow:visible"><defs
   id="defs342" />
	<g
   id="Layer_1_2_">
		<path
   d="M 29.443,121.73 L 56.339,115.392 L 84.673,99.795 L 84.713,96.512 L 47.004,75.822 L 47.071,109.713 L 29.443,121.73 z"
   id="path5"
   style="opacity:0.2" />
		<path
   d="M 19.292,15.972 L 0,25.963 L 0,64.935 C 0,64.935 2.808,66.208 3.058,66.323 C 3.058,70.871 3.058,107.902 3.058,107.902 L 29.444,121.73 L 48.09,109.131 C 48.09,109.131 47.998,73.047 47.989,69.541 C 49.376,68.436 52.672,65.812 52.672,65.812 L 52.672,29.825 L 21.044,15.065 L 19.292,15.972 z"
   id="path7" />
		<g
   id="g9">
			<path
   d="M 48.662,32.378 L 21.137,19.533 L 4.01,28.403 L 4.01,62.351 L 7.068,63.739 L 7.068,105.476 L 29.184,117.067 L 44.075,107.005 L 43.974,67.612 L 48.662,63.881 L 48.662,32.378 z"
   id="path11" />
		</g>
		<g
   id="g13">
			<linearGradient
   x1="18.6401"
   y1="85.083504"
   x2="-2.1110001"
   y2="78.788597"
   id="XMLID_1_"
   gradientUnits="userSpaceOnUse">
				<stop
   id="stop16"
   style="stop-color:#ffcc00;stop-opacity:1"
   offset="0" />
				<stop
   id="stop18"
   style="stop-color:#ffbc00;stop-opacity:1"
   offset="0.8114" />
				<stop
   id="stop20"
   style="stop-color:#ffb800;stop-opacity:1"
   offset="1" />
				<midPointStop
   id="midPointStop22"
   style="stop-color:#FFCC00"
   offset="0" />
				<midPointStop
   id="midPointStop24"
   style="stop-color:#FFCC00"
   offset="0.5587" />
				<midPointStop
   id="midPointStop26"
   style="stop-color:#FFB800"
   offset="1" />
			</linearGradient>
			<path
   d="M 7.067,61.434 L 7.067,105.476 L 29.183,117.067 L 44.074,107.005 L 43.965,63.98 L 32.098,72.724 L 7.067,61.434 z"
   id="path28"
   style="fill:url(#XMLID_1_)" />
		</g>
		<g
   id="g30">
			<path
   d="M 29.162,71.097 L 44.06,61.004 L 44.06,107.013 L 29.372,117.034 L 29.162,71.097 z"
   id="path32"
   style="fill:#ff6600" />
		</g>
		<g
   id="g34">
			<linearGradient
   x1="38.688999"
   y1="78.735802"
   x2="36.887901"
   y2="73.031898"
   id="XMLID_2_"
   gradientUnits="userSpaceOnUse">
				<stop
   id="stop37"
   style="stop-color:#ff6600;stop-opacity:1"
   offset="0" />
				<stop
   id="stop39"
   style="stop-color:#ef5700;stop-opacity:1"
   offset="0.37650001" />
				<stop
   id="stop41"
   style="stop-color:#cd3500;stop-opacity:1"
   offset="1" />
				<midPointStop
   id="midPointStop43"
   style="stop-color:#FF6600"
   offset="0" />
				<midPointStop
   id="midPointStop45"
   style="stop-color:#FF6600"
   offset="0.5587" />
				<midPointStop
   id="midPointStop47"
   style="stop-color:#CD3500"
   offset="1" />
			</linearGradient>
			<path
   d="M 29.161,70.849 L 44.058,60.757 L 44.058,76.379 L 29.281,83.926 L 29.161,70.849 z"
   id="path49"
   style="fill:url(#XMLID_2_)" />
		</g>
		<g
   id="g51">
			<linearGradient
   x1="29.771999"
   y1="48.388699"
   x2="9.0223999"
   y2="42.0942"
   id="XMLID_3_"
   gradientUnits="userSpaceOnUse">
				<stop
   id="stop54"
   style="stop-color:#ffcc00;stop-opacity:1"
   offset="0" />
				<stop
   id="stop56"
   style="stop-color:#ffbc00;stop-opacity:1"
   offset="0.8114" />
				<stop
   id="stop58"
   style="stop-color:#ffb800;stop-opacity:1"
   offset="1" />
				<midPointStop
   id="midPointStop60"
   style="stop-color:#FFCC00"
   offset="0" />
				<midPointStop
   id="midPointStop62"
   style="stop-color:#FFCC00"
   offset="0.5587" />
				<midPointStop
   id="midPointStop64"
   style="stop-color:#FFB800"
   offset="1" />
			</linearGradient>
			<path
   d="M 4.01,28.403 L 4.01,62.351 L 33.676,75.809 L 48.662,63.88 L 48.662,32.378 L 21.137,19.533 L 4.01,28.403 z"
   id="path66"
   style="fill:url(#XMLID_3_)" />
		</g>
		<g
   id="g68">
			<path
   d="M 33.556,42.537 L 48.674,32.348 L 48.736,63.942 L 33.676,75.846 L 33.556,42.537 z"
   id="path70"
   style="fill:#ff6600" />
		</g>
		<path
   d="M 16.901,73.973 C 15.869,73.436 14.896,74.181 14.896,74.181 L 14.969,109.573 L 18.906,111.755 L 18.906,76.263 C 18.906,76.263 17.871,74.477 16.901,73.973 z"
   id="path72"
   style="fill:#ff6600" />
		<path
   d="M 16.751,74.787 C 15.888,74.618 15.728,75.108 15.728,75.108 L 15.539,109.845 L 18.288,111.172 L 18.246,76.263 C 18.245,76.263 17.558,74.945 16.751,74.787 z"
   id="path74"
   style="fill:#cd3500" />
		<g
   id="g76">
			<linearGradient
   x1="29.6777"
   y1="29.9014"
   x2="9.7792997"
   y2="39.701801"
   id="XMLID_4_"
   gradientUnits="userSpaceOnUse">
				<stop
   id="stop79"
   style="stop-color:#ffcc00;stop-opacity:1"
   offset="0" />
				<stop
   id="stop81"
   style="stop-color:#ffcf10;stop-opacity:1"
   offset="0.0962" />
				<stop
   id="stop83"
   style="stop-color:#ffd739;stop-opacity:1"
   offset="0.2834" />
				<stop
   id="stop85"
   style="stop-color:#ffe57b;stop-opacity:1"
   offset="0.5431" />
				<stop
   id="stop87"
   style="stop-color:#fff7d6;stop-opacity:1"
   offset="0.86210001" />
				<stop
   id="stop89"
   style="stop-color:#ffffff;stop-opacity:1"
   offset="1" />
				<midPointStop
   id="midPointStop91"
   style="stop-color:#FFCC00"
   offset="0" />
				<midPointStop
   id="midPointStop93"
   style="stop-color:#FFCC00"
   offset="0.5587" />
				<midPointStop
   id="midPointStop95"
   style="stop-color:#FFFFFF"
   offset="1" />
			</linearGradient>
			<path
   d="M 3.996,28.429 L 33.537,42.574 L 48.674,32.347 L 21.137,19.533 L 3.996,28.429 z"
   id="path97"
   style="fill:url(#XMLID_4_)" />
		</g>
		<path
   d="M 3.996,28.429 L 4.05,30.219 L 33.549,44.718 L 33.537,42.573 L 35.505,41.251 L 5.7,27.491 L 3.996,28.429 z"
   id="path99"
   style="fill:#ffffff" />
		<g
   id="g101"
   style="opacity:0.8">
			<path
   d="M 13.892,26.451 C 13.892,23.415 16.469,20.691 21.203,19.484 C 21.26,19.489 43.427,29.687 43.434,29.639 C 41.634,32.687 36.55,34.228 27.788,34.025 C 20.116,33.847 13.892,30.633 13.892,26.451 z"
   id="path103"
   style="fill:#ff6600" />
		</g>
		<g
   id="g105">
			<path
   d="M 10.726,15.569 C 10.726,7.798 17.025,1.5 24.794,1.5 C 32.565,1.5 38.863,7.799 38.863,15.569 C 38.863,23.339 32.564,29.637 24.794,29.637 C 17.025,29.638 10.726,23.339 10.726,15.569 z"
   id="path107"
   style="fill:#808080" />
			<path
   d="M 38.746,15.537 C 38.746,23.256 32.487,29.514 24.767,29.514 C 17.047,29.514 10.79,23.255 10.79,15.537 C 10.79,7.817 17.048,1.558 24.768,1.558 C 32.488,1.558 38.746,7.816 38.746,15.537 z"
   id="path109"
   style="fill:#808080" />
			<path
   d="M 38.626,15.504 C 38.626,23.173 32.409,29.39 24.739,29.39 C 17.07,29.39 10.852,23.173 10.852,15.504 C 10.852,7.834 17.07,1.617 24.739,1.617 C 32.41,1.617 38.626,7.834 38.626,15.504 z"
   id="path111"
   style="fill:#818181" />
			<path
   d="M 38.508,15.471 C 38.508,23.09 32.331,29.266 24.712,29.266 C 17.093,29.266 10.917,23.09 10.917,15.471 C 10.917,7.851 17.093,1.675 24.712,1.675 C 32.331,1.675 38.508,7.852 38.508,15.471 z"
   id="path113"
   style="fill:#828282" />
			<path
   d="M 38.389,15.438 C 38.389,23.006 32.254,29.142 24.684,29.142 C 17.117,29.142 10.98,23.006 10.98,15.438 C 10.98,7.869 17.117,1.733 24.684,1.733 C 32.254,1.733 38.389,7.869 38.389,15.438 z"
   id="path115"
   style="fill:#848484" />
			<path
   d="M 38.271,15.405 C 38.271,22.923 32.176,29.018 24.657,29.018 C 17.139,29.018 11.045,22.923 11.045,15.405 C 11.045,7.886 17.14,1.791 24.657,1.791 C 32.176,1.791 38.271,7.886 38.271,15.405 z"
   id="path117"
   style="fill:#848484" />
			<path
   d="M 38.152,15.373 C 38.152,22.84 32.098,28.894 24.63,28.894 C 17.162,28.894 11.109,22.84 11.109,15.373 C 11.109,7.904 17.163,1.85 24.63,1.85 C 32.098,1.849 38.152,7.903 38.152,15.373 z"
   id="path119"
   style="fill:#858585" />
			<path
   d="M 38.034,15.339 C 38.034,22.756 32.02,28.77 24.602,28.77 C 17.184,28.77 11.17,22.757 11.17,15.339 C 11.17,7.921 17.184,1.907 24.602,1.907 C 32.02,1.907 38.034,7.921 38.034,15.339 z"
   id="path121"
   style="fill:#868686" />
			<path
   d="M 37.916,15.307 C 37.916,22.674 31.943,28.647 24.575,28.647 C 17.208,28.647 11.235,22.674 11.235,15.307 C 11.235,7.939 17.208,1.966 24.575,1.966 C 31.943,1.966 37.916,7.939 37.916,15.307 z"
   id="path123"
   style="fill:#878787" />
			<path
   d="M 37.797,15.274 C 37.797,22.591 31.864,28.523 24.547,28.523 C 17.23,28.523 11.298,22.591 11.298,15.274 C 11.298,7.956 17.23,2.024 24.547,2.024 C 31.864,2.024 37.797,7.956 37.797,15.274 z"
   id="path125"
   style="fill:#888888" />
			<path
   d="M 37.678,15.241 C 37.678,22.508 31.787,28.399 24.52,28.399 C 17.253,28.399 11.362,22.508 11.362,15.241 C 11.362,7.974 17.253,2.083 24.52,2.083 C 31.788,2.083 37.678,7.974 37.678,15.241 z"
   id="path127"
   style="fill:#898989" />
			<path
   d="M 37.56,15.208 C 37.56,22.424 31.709,28.275 24.493,28.275 C 17.277,28.275 11.426,22.424 11.426,15.208 C 11.426,7.991 17.277,2.141 24.493,2.141 C 31.709,2.141 37.56,7.991 37.56,15.208 z"
   id="path129"
   style="fill:#8a8a8a" />
			<path
   d="M 37.441,15.175 C 37.441,22.342 31.631,28.151 24.464,28.151 C 17.298,28.151 11.488,22.341 11.488,15.175 C 11.488,8.009 17.298,2.199 24.464,2.199 C 31.631,2.199 37.441,8.008 37.441,15.175 z"
   id="path131"
   style="fill:#8b8b8b" />
			<path
   d="M 37.323,15.142 C 37.323,22.258 31.554,28.027 24.437,28.027 C 17.322,28.027 11.552,22.258 11.552,15.142 C 11.552,8.026 17.322,2.257 24.437,2.257 C 31.554,2.257 37.323,8.026 37.323,15.142 z"
   id="path133"
   style="fill:#8c8c8c" />
			<path
   d="M 37.204,15.109 C 37.204,22.174 31.476,27.902 24.41,27.902 C 17.345,27.902 11.616,22.174 11.616,15.109 C 11.616,8.043 17.345,2.315 24.41,2.315 C 31.476,2.315 37.204,8.043 37.204,15.109 z"
   id="path135"
   style="fill:#8d8d8d" />
			<path
   d="M 37.085,15.076 C 37.085,22.092 31.397,27.779 24.382,27.779 C 17.367,27.779 11.679,22.092 11.679,15.076 C 11.679,8.06 17.367,2.374 24.382,2.374 C 31.397,2.374 37.085,8.061 37.085,15.076 z"
   id="path137"
   style="fill:#8e8e8e" />
			<path
   d="M 36.967,15.044 C 36.967,22.009 31.321,27.655 24.355,27.655 C 17.39,27.655 11.744,22.009 11.744,15.044 C 11.744,8.078 17.39,2.432 24.355,2.432 C 31.321,2.432 36.967,8.078 36.967,15.044 z"
   id="path139"
   style="fill:#8f8f8f" />
			<path
   d="M 36.848,15.011 C 36.848,21.925 31.243,27.531 24.327,27.531 C 17.411,27.531 11.806,21.925 11.806,15.011 C 11.806,8.095 17.411,2.49 24.327,2.49 C 31.243,2.49 36.848,8.096 36.848,15.011 z"
   id="path141"
   style="fill:#909090" />
			<path
   d="M 36.73,14.978 C 36.73,21.842 31.165,27.407 24.299,27.407 C 17.436,27.407 11.87,21.842 11.87,14.978 C 11.87,8.113 17.435,2.548 24.299,2.548 C 31.165,2.548 36.73,8.113 36.73,14.978 z"
   id="path143"
   style="fill:#919191" />
			<path
   d="M 36.612,14.946 C 36.612,21.76 31.088,27.284 24.272,27.284 C 17.459,27.284 11.934,21.76 11.934,14.946 C 11.934,8.131 17.458,2.607 24.272,2.607 C 31.087,2.606 36.612,8.131 36.612,14.946 z"
   id="path145"
   style="fill:#929292" />
			<path
   d="M 36.493,14.913 C 36.493,21.677 31.01,27.16 24.245,27.16 C 17.482,27.16 11.998,21.677 11.998,14.913 C 11.998,8.148 17.482,2.665 24.245,2.665 C 31.009,2.665 36.493,8.148 36.493,14.913 z"
   id="path147"
   style="fill:#939393" />
			<path
   d="M 36.375,14.88 C 36.375,21.593 30.932,27.036 24.218,27.036 C 17.505,27.036 12.063,21.593 12.063,14.88 C 12.063,8.166 17.505,2.723 24.218,2.723 C 30.931,2.723 36.375,8.166 36.375,14.88 z"
   id="path149"
   style="fill:#949494" />
			<path
   d="M 36.255,14.847 C 36.255,21.51 30.854,26.911 24.19,26.911 C 17.527,26.911 12.125,21.509 12.125,14.847 C 12.125,8.182 17.527,2.781 24.19,2.781 C 30.854,2.781 36.255,8.183 36.255,14.847 z"
   id="path151"
   style="fill:#959595" />
			<path
   d="M 36.137,14.813 C 36.137,21.426 30.776,26.787 24.161,26.787 C 17.549,26.787 12.187,21.426 12.187,14.813 C 12.187,8.2 17.549,2.839 24.162,2.839 C 30.776,2.839 36.137,8.2 36.137,14.813 z"
   id="path153"
   style="fill:#969696" />
			<path
   d="M 36.018,14.781 C 36.018,21.343 30.699,26.664 24.135,26.664 C 17.573,26.664 12.252,21.344 12.252,14.781 C 12.252,8.218 17.572,2.897 24.135,2.897 C 30.699,2.897 36.018,8.218 36.018,14.781 z"
   id="path155"
   style="fill:#979797" />
			<path
   d="M 35.9,14.749 C 35.9,21.261 30.621,26.541 24.108,26.541 C 17.595,26.541 12.316,21.261 12.316,14.749 C 12.316,8.236 17.595,2.956 24.108,2.956 C 30.621,2.956 35.9,8.235 35.9,14.749 z"
   id="path157"
   style="fill:#989898" />
			<path
   d="M 35.781,14.715 C 35.781,21.177 30.543,26.416 24.08,26.416 C 17.618,26.416 12.38,21.177 12.38,14.715 C 12.38,8.253 17.618,3.014 24.08,3.014 C 30.542,3.014 35.781,8.253 35.781,14.715 z"
   id="path159"
   style="fill:#999999" />
			<path
   d="M 35.664,14.683 C 35.664,21.095 30.466,26.292 24.054,26.292 C 17.642,26.292 12.444,21.094 12.444,14.683 C 12.444,8.27 17.642,3.073 24.054,3.073 C 30.466,3.073 35.664,8.271 35.664,14.683 z"
   id="path161"
   style="fill:#9a9a9a" />
			<path
   d="M 35.544,14.65 C 35.544,21.011 30.387,26.169 24.024,26.169 C 17.663,26.169 12.505,21.012 12.505,14.65 C 12.505,8.288 17.662,3.131 24.024,3.131 C 30.387,3.131 35.544,8.288 35.544,14.65 z"
   id="path163"
   style="fill:#9b9b9b" />
			<path
   d="M 35.426,14.617 C 35.426,20.928 30.309,26.044 23.997,26.044 C 17.685,26.044 12.57,20.928 12.57,14.617 C 12.57,8.305 17.686,3.189 23.998,3.189 C 30.31,3.189 35.426,8.305 35.426,14.617 z"
   id="path165"
   style="fill:#9c9c9c" />
			<path
   d="M 35.307,14.584 C 35.307,20.844 30.231,25.92 23.97,25.92 C 17.709,25.92 12.633,20.844 12.633,14.584 C 12.633,8.322 17.709,3.247 23.97,3.247 C 30.231,3.247 35.307,8.323 35.307,14.584 z"
   id="path167"
   style="fill:#9d9d9d" />
			<path
   d="M 35.189,14.551 C 35.189,20.761 30.154,25.797 23.943,25.797 C 17.732,25.797 12.698,20.762 12.698,14.551 C 12.698,8.34 17.732,3.305 23.943,3.305 C 30.154,3.305 35.189,8.34 35.189,14.551 z"
   id="path169"
   style="fill:#9e9e9e" />
			<path
   d="M 35.07,14.519 C 35.07,20.679 30.077,25.673 23.916,25.673 C 17.756,25.673 12.761,20.678 12.761,14.519 C 12.761,8.358 17.756,3.364 23.916,3.364 C 30.077,3.364 35.07,8.357 35.07,14.519 z"
   id="path171"
   style="fill:#9f9f9f" />
			<path
   d="M 34.952,14.486 C 34.952,20.596 29.999,25.549 23.888,25.549 C 17.779,25.549 12.826,20.596 12.826,14.486 C 12.826,8.375 17.779,3.422 23.888,3.422 C 29.999,3.422 34.952,8.375 34.952,14.486 z"
   id="path173"
   style="fill:#a0a0a0" />
			<path
   d="M 34.833,14.453 C 34.833,20.513 29.921,25.425 23.86,25.425 C 17.801,25.425 12.888,20.512 12.888,14.453 C 12.888,8.393 17.801,3.48 23.86,3.48 C 29.92,3.48 34.833,8.393 34.833,14.453 z"
   id="path175"
   style="fill:#a1a1a1" />
			<path
   d="M 34.714,14.42 C 34.714,20.429 29.843,25.301 23.832,25.301 C 17.823,25.301 12.951,20.429 12.951,14.42 C 12.951,8.41 17.823,3.538 23.832,3.538 C 29.843,3.538 34.714,8.41 34.714,14.42 z"
   id="path177"
   style="fill:#a2a2a2" />
			<path
   d="M 34.595,14.387 C 34.595,20.346 29.765,25.178 23.805,25.178 C 17.846,25.178 13.015,20.346 13.015,14.387 C 13.015,8.428 17.846,3.596 23.805,3.596 C 29.765,3.596 34.595,8.427 34.595,14.387 z"
   id="path179"
   style="fill:#a3a3a3" />
			<path
   d="M 34.477,14.354 C 34.477,20.263 29.687,25.053 23.778,25.053 C 17.87,25.053 13.079,20.263 13.079,14.354 C 13.079,8.444 17.87,3.654 23.778,3.654 C 29.687,3.655 34.477,8.445 34.477,14.354 z"
   id="path181"
   style="fill:#a4a4a4" />
			<path
   d="M 34.359,14.322 C 34.359,20.18 29.61,24.929 23.751,24.929 C 17.893,24.929 13.143,20.179 13.143,14.322 C 13.143,8.463 17.893,3.713 23.751,3.713 C 29.61,3.713 34.359,8.462 34.359,14.322 z"
   id="path183"
   style="fill:#a5a5a5" />
			<path
   d="M 34.241,14.289 C 34.241,20.097 29.532,24.806 23.722,24.806 C 17.914,24.806 13.205,20.098 13.205,14.289 C 13.205,8.48 17.914,3.771 23.722,3.771 C 29.532,3.771 34.241,8.48 34.241,14.289 z"
   id="path185"
   style="fill:#a6a6a6" />
			<path
   d="M 34.122,14.256 C 34.122,20.013 29.454,24.681 23.695,24.681 C 17.938,24.681 13.269,20.013 13.269,14.256 C 13.269,8.497 17.938,3.83 23.695,3.83 C 29.454,3.83 34.122,8.497 34.122,14.256 z"
   id="path187"
   style="fill:#a7a7a7" />
			<path
   d="M 34.003,14.223 C 34.003,19.931 29.376,24.557 23.668,24.557 C 17.96,24.557 13.333,19.93 13.333,14.223 C 13.333,8.515 17.96,3.888 23.668,3.888 C 29.376,3.888 34.003,8.515 34.003,14.223 z"
   id="path189"
   style="fill:#a8a8a8" />
			<path
   d="M 33.884,14.19 C 33.884,19.847 29.298,24.434 23.64,24.434 C 17.983,24.434 13.397,19.847 13.397,14.19 C 13.397,8.532 17.983,3.946 23.64,3.946 C 29.298,3.946 33.884,8.532 33.884,14.19 z"
   id="path191"
   style="fill:#a9a9a9" />
			<path
   d="M 33.766,14.157 C 33.766,19.764 29.22,24.31 23.613,24.31 C 18.007,24.31 13.461,19.764 13.461,14.157 C 13.461,8.55 18.007,4.004 23.613,4.004 C 29.22,4.004 33.766,8.55 33.766,14.157 z"
   id="path193"
   style="fill:#aaaaaa" />
			<path
   d="M 33.647,14.124 C 33.647,19.681 29.143,24.186 23.585,24.186 C 18.028,24.186 13.523,19.681 13.523,14.124 C 13.523,8.567 18.028,4.062 23.585,4.062 C 29.143,4.062 33.647,8.567 33.647,14.124 z"
   id="path195"
   style="fill:#ababab" />
			<path
   d="M 33.529,14.092 C 33.529,19.598 29.065,24.062 23.558,24.062 C 18.051,24.062 13.587,19.598 13.587,14.092 C 13.587,8.585 18.051,4.121 23.558,4.121 C 29.065,4.121 33.529,8.584 33.529,14.092 z"
   id="path197"
   style="fill:#acacac" />
			<path
   d="M 33.41,14.059 C 33.41,19.515 28.987,23.938 23.531,23.938 C 18.075,23.938 13.651,19.515 13.651,14.059 C 13.651,8.602 18.075,4.179 23.531,4.179 C 28.987,4.179 33.41,8.602 33.41,14.059 z"
   id="path199"
   style="fill:#adadad" />
			<path
   d="M 33.292,14.026 C 33.292,19.432 28.91,23.814 23.504,23.814 C 18.098,23.814 13.715,19.432 13.715,14.026 C 13.715,8.62 18.098,4.237 23.504,4.237 C 28.91,4.237 33.292,8.62 33.292,14.026 z"
   id="path201"
   style="fill:#aeaeae" />
			<path
   d="M 33.173,13.993 C 33.173,19.348 28.831,23.69 23.475,23.69 C 18.12,23.69 13.779,19.348 13.779,13.993 C 13.779,8.637 18.12,4.295 23.475,4.295 C 28.832,4.295 33.173,8.637 33.173,13.993 z"
   id="path203"
   style="fill:#afafaf" />
			<path
   d="M 33.055,13.96 C 33.055,19.265 28.753,23.566 23.448,23.566 C 18.143,23.566 13.842,19.265 13.842,13.96 C 13.842,8.654 18.144,4.353 23.448,4.353 C 28.753,4.354 33.055,8.654 33.055,13.96 z"
   id="path205"
   style="fill:#b0b0b0" />
			<path
   d="M 32.936,13.927 C 32.936,19.182 28.676,23.442 23.42,23.442 C 18.165,23.442 13.905,19.182 13.905,13.927 C 13.905,8.672 18.165,4.411 23.42,4.411 C 28.676,4.412 32.936,8.672 32.936,13.927 z"
   id="path207"
   style="fill:#b1b1b1" />
			<path
   d="M 32.818,13.895 C 32.818,19.099 28.598,23.319 23.393,23.319 C 18.189,23.319 13.969,19.099 13.969,13.895 C 13.969,8.69 18.189,4.471 23.393,4.471 C 28.598,4.47 32.818,8.689 32.818,13.895 z"
   id="path209"
   style="fill:#b2b2b2" />
			<path
   d="M 32.699,13.861 C 32.699,19.016 28.52,23.194 23.366,23.194 C 18.212,23.194 14.033,19.016 14.033,13.861 C 14.033,8.706 18.212,4.528 23.366,4.528 C 28.52,4.528 32.699,8.707 32.699,13.861 z"
   id="path211"
   style="fill:#b3b3b3" />
			<path
   d="M 32.581,13.829 C 32.581,18.933 28.443,23.071 23.338,23.071 C 18.235,23.071 14.097,18.933 14.097,13.829 C 14.097,8.724 18.236,4.587 23.338,4.587 C 28.443,4.587 32.581,8.724 32.581,13.829 z"
   id="path213"
   style="fill:#b4b4b4" />
			<path
   d="M 32.461,13.796 C 32.461,18.849 28.364,22.947 23.31,22.947 C 18.257,22.947 14.16,18.849 14.16,13.796 C 14.16,8.741 18.258,4.645 23.31,4.645 C 28.365,4.645 32.461,8.742 32.461,13.796 z"
   id="path215"
   style="fill:#b5b5b5" />
			<path
   d="M 32.343,13.763 C 32.343,18.766 28.286,22.823 23.282,22.823 C 18.279,22.823 14.222,18.766 14.222,13.763 C 14.222,8.759 18.279,4.703 23.282,4.703 C 28.287,4.703 32.343,8.759 32.343,13.763 z"
   id="path217"
   style="fill:#b6b6b6" />
			<path
   d="M 32.224,13.73 C 32.224,18.683 28.209,22.699 23.255,22.699 C 18.303,22.699 14.287,18.683 14.287,13.73 C 14.287,8.776 18.303,4.761 23.255,4.761 C 28.209,4.761 32.224,8.776 32.224,13.73 z"
   id="path219"
   style="fill:#b7b7b7" />
			<path
   d="M 32.106,13.698 C 32.106,18.6 28.131,22.575 23.228,22.575 C 18.326,22.575 14.35,18.6 14.35,13.698 C 14.35,8.794 18.326,4.82 23.228,4.82 C 28.131,4.82 32.106,8.794 32.106,13.698 z"
   id="path221"
   style="fill:#b8b8b8" />
			<path
   d="M 31.988,13.665 C 31.988,18.518 28.054,22.452 23.201,22.452 C 18.348,22.452 14.415,18.518 14.415,13.665 C 14.415,8.812 18.349,4.878 23.201,4.878 C 28.054,4.878 31.988,8.812 31.988,13.665 z"
   id="path223"
   style="fill:#b9b9b9" />
			<path
   d="M 31.869,13.632 C 31.869,18.434 27.976,22.327 23.174,22.327 C 18.372,22.327 14.479,18.434 14.479,13.632 C 14.479,8.829 18.372,4.936 23.174,4.936 C 27.976,4.936 31.869,8.829 31.869,13.632 z"
   id="path225"
   style="fill:#bababa" />
			<path
   d="M 31.75,13.599 C 31.75,18.35 27.897,22.203 23.146,22.203 C 18.395,22.203 14.542,18.35 14.542,13.599 C 14.542,8.847 18.395,4.994 23.146,4.994 C 27.897,4.994 31.75,8.847 31.75,13.599 z"
   id="path227"
   style="fill:#bbbbbb" />
			<path
   d="M 31.632,13.566 C 31.632,18.268 27.82,22.08 23.118,22.08 C 18.416,22.08 14.604,18.268 14.604,13.566 C 14.604,8.864 18.416,5.052 23.118,5.052 C 27.82,5.052 31.632,8.864 31.632,13.566 z"
   id="path229"
   style="fill:#bcbcbc" />
			<path
   d="M 31.513,13.534 C 31.513,18.185 27.742,21.956 23.09,21.956 C 18.44,21.956 14.668,18.185 14.668,13.534 C 14.668,8.882 18.439,5.111 23.09,5.111 C 27.743,5.11 31.513,8.881 31.513,13.534 z"
   id="path231"
   style="fill:#bdbdbd" />
			<path
   d="M 31.395,13.5 C 31.395,18.101 27.666,21.831 23.063,21.831 C 18.462,21.831 14.732,18.101 14.732,13.5 C 14.732,8.898 18.462,5.168 23.063,5.168 C 27.666,5.169 31.395,8.899 31.395,13.5 z"
   id="path233"
   style="fill:#bebebe" />
			<path
   d="M 31.276,13.468 C 31.276,18.018 27.588,21.708 23.036,21.708 C 18.485,21.708 14.796,18.018 14.796,13.468 C 14.796,8.917 18.485,5.227 23.036,5.227 C 27.587,5.227 31.276,8.917 31.276,13.468 z"
   id="path235"
   style="fill:#bfbfbf" />
			<path
   d="M 31.158,13.435 C 31.158,17.935 27.51,21.584 23.009,21.584 C 18.509,21.584 14.86,17.935 14.86,13.435 C 14.86,8.935 18.509,5.286 23.009,5.286 C 27.509,5.286 31.158,8.934 31.158,13.435 z"
   id="path237"
   style="fill:#c0c0c0" />
			<path
   d="M 31.04,13.402 C 31.04,17.852 27.433,21.46 22.981,21.46 C 18.531,21.46 14.922,17.852 14.922,13.402 C 14.922,8.951 18.53,5.343 22.981,5.343 C 27.432,5.344 31.04,8.951 31.04,13.402 z"
   id="path239"
   style="fill:#c1c1c1" />
			<path
   d="M 30.92,13.369 C 30.92,17.769 27.354,21.336 22.953,21.336 C 18.552,21.336 14.985,17.769 14.985,13.369 C 14.985,8.969 18.552,5.402 22.953,5.402 C 27.354,5.402 30.92,8.969 30.92,13.369 z"
   id="path241"
   style="fill:#c2c2c2" />
			<path
   d="M 30.802,13.336 C 30.802,17.685 27.276,21.212 22.925,21.212 C 18.576,21.212 15.05,17.685 15.05,13.336 C 15.05,8.986 18.576,5.46 22.925,5.46 C 27.276,5.46 30.802,8.986 30.802,13.336 z"
   id="path243"
   style="fill:#c3c3c3" />
			<path
   d="M 30.683,13.303 C 30.683,17.602 27.199,21.088 22.898,21.088 C 18.599,21.088 15.114,17.602 15.114,13.303 C 15.114,9.004 18.599,5.518 22.898,5.518 C 27.199,5.519 30.683,9.004 30.683,13.303 z"
   id="path245"
   style="fill:#c4c4c4" />
			<path
   d="M 30.565,13.271 C 30.565,17.52 27.121,20.964 22.871,20.964 C 18.623,20.964 15.178,17.519 15.178,13.271 C 15.178,9.021 18.623,5.577 22.871,5.577 C 27.121,5.577 30.565,9.021 30.565,13.271 z"
   id="path247"
   style="fill:#c5c5c5" />
			<path
   d="M 30.447,13.238 C 30.447,17.437 27.043,20.841 22.843,20.841 C 18.645,20.841 15.24,17.437 15.24,13.238 C 15.24,9.039 18.644,5.635 22.843,5.635 C 27.042,5.635 30.447,9.039 30.447,13.238 z"
   id="path249"
   style="fill:#c6c6c6" />
			<path
   d="M 30.328,13.205 C 30.328,17.353 26.966,20.716 22.816,20.716 C 18.668,20.716 15.304,17.353 15.304,13.205 C 15.304,9.056 18.667,5.693 22.816,5.693 C 26.965,5.693 30.328,9.056 30.328,13.205 z"
   id="path251"
   style="fill:#c7c7c7" />
			<path
   d="M 30.209,13.172 C 30.209,17.27 26.887,20.593 22.788,20.593 C 18.69,20.593 15.367,17.27 15.367,13.172 C 15.367,9.074 18.69,5.752 22.788,5.752 C 26.887,5.751 30.209,9.074 30.209,13.172 z"
   id="path253"
   style="fill:#c8c8c8" />
			<path
   d="M 30.09,13.14 C 30.09,17.187 26.809,20.469 22.761,20.469 C 18.713,20.469 15.431,17.187 15.431,13.14 C 15.431,9.092 18.713,5.81 22.761,5.81 C 26.809,5.81 30.09,9.091 30.09,13.14 z"
   id="path255"
   style="fill:#c9c9c9" />
			<path
   d="M 29.972,13.106 C 29.972,17.103 26.732,20.344 22.734,20.344 C 18.736,20.344 15.495,17.103 15.495,13.106 C 15.495,9.108 18.736,5.867 22.734,5.867 C 26.732,5.867 29.972,9.108 29.972,13.106 z"
   id="path257"
   style="fill:#cacaca" />
			<path
   d="M 29.854,13.074 C 29.854,17.021 26.654,20.221 22.706,20.221 C 18.76,20.221 15.56,17.021 15.56,13.074 C 15.56,9.126 18.76,5.927 22.706,5.927 C 26.654,5.926 29.854,9.126 29.854,13.074 z"
   id="path259"
   style="fill:#cbcbcb" />
			<path
   d="M 29.735,13.041 C 29.735,16.938 26.577,20.098 22.678,20.098 C 18.782,20.098 15.622,16.938 15.622,13.041 C 15.622,9.144 18.781,5.985 22.678,5.985 C 26.577,5.984 29.735,9.144 29.735,13.041 z"
   id="path261"
   style="fill:#cccccc" />
			<path
   d="M 29.617,13.008 C 29.617,16.854 26.499,19.973 22.651,19.973 C 18.805,19.973 15.686,16.854 15.686,13.008 C 15.686,9.161 18.805,6.042 22.651,6.042 C 26.499,6.042 29.617,9.161 29.617,13.008 z"
   id="path263"
   style="fill:#cdcdcd" />
			<path
   d="M 29.498,12.975 C 29.498,16.771 26.421,19.849 22.624,19.849 C 18.828,19.849 15.75,16.771 15.75,12.975 C 15.75,9.178 18.828,6.1 22.624,6.1 C 26.42,6.101 29.498,9.178 29.498,12.975 z"
   id="path265"
   style="fill:#cecece" />
			<path
   d="M 29.379,12.942 C 29.379,16.688 26.343,19.725 22.596,19.725 C 18.85,19.725 15.813,16.687 15.813,12.942 C 15.813,9.195 18.85,6.159 22.596,6.159 C 26.343,6.159 29.379,9.196 29.379,12.942 z"
   id="path267"
   style="fill:#cfcfcf" />
			<path
   d="M 29.261,12.909 C 29.261,16.605 26.265,19.601 22.569,19.601 C 18.874,19.601 15.877,16.604 15.877,12.909 C 15.877,9.214 18.874,6.217 22.569,6.217 C 26.265,6.217 29.261,9.213 29.261,12.909 z"
   id="path269"
   style="fill:#d0d0d0" />
			<path
   d="M 29.142,12.877 C 29.142,16.522 26.187,19.478 22.541,19.478 C 18.895,19.478 15.939,16.522 15.939,12.877 C 15.939,9.231 18.895,6.275 22.541,6.275 C 26.187,6.275 29.142,9.231 29.142,12.877 z"
   id="path271"
   style="fill:#d1d1d1" />
			<path
   d="M 29.024,12.844 C 29.024,16.439 26.11,19.354 22.513,19.354 C 18.918,19.354 16.003,16.439 16.003,12.844 C 16.003,9.248 18.918,6.334 22.513,6.334 C 26.11,6.333 29.024,9.248 29.024,12.844 z"
   id="path273"
   style="fill:#d2d2d2" />
			<path
   d="M 28.905,12.811 C 28.905,16.355 26.032,19.23 22.486,19.23 C 18.942,19.23 16.068,16.355 16.068,12.811 C 16.068,9.266 18.942,6.392 22.486,6.392 C 26.032,6.392 28.905,9.266 28.905,12.811 z"
   id="path275"
   style="fill:#d3d3d3" />
			<path
   d="M 28.787,12.778 C 28.787,16.273 25.954,19.106 22.459,19.106 C 18.965,19.106 16.132,16.273 16.132,12.778 C 16.132,9.283 18.965,6.45 22.459,6.45 C 25.954,6.45 28.787,9.283 28.787,12.778 z"
   id="path277"
   style="fill:#d4d4d4" />
			<path
   d="M 28.668,12.746 C 28.668,16.19 25.876,18.982 22.431,18.982 C 18.987,18.982 16.195,16.19 16.195,12.746 C 16.195,9.301 18.987,6.509 22.431,6.509 C 25.876,6.508 28.668,9.301 28.668,12.746 z"
   id="path279"
   style="fill:#d5d5d5" />
			<path
   d="M 28.549,12.712 C 28.549,16.106 25.798,18.858 22.403,18.858 C 19.009,18.858 16.257,16.106 16.257,12.712 C 16.257,9.318 19.009,6.566 22.403,6.566 C 25.798,6.566 28.549,9.318 28.549,12.712 z"
   id="path281"
   style="fill:#d6d6d6" />
			<path
   d="M 28.431,12.68 C 28.431,16.023 25.72,18.735 22.376,18.735 C 19.032,18.735 16.321,16.024 16.321,12.68 C 16.321,9.336 19.032,6.625 22.376,6.625 C 25.72,6.625 28.431,9.335 28.431,12.68 z"
   id="path283"
   style="fill:#d7d7d7" />
			<path
   d="M 28.312,12.647 C 28.312,15.94 25.643,18.61 22.349,18.61 C 19.056,18.61 16.385,15.94 16.385,12.647 C 16.385,9.353 19.056,6.683 22.349,6.683 C 25.643,6.683 28.312,9.353 28.312,12.647 z"
   id="path285"
   style="fill:#d8d8d8" />
			<path
   d="M 28.194,12.614 C 28.194,15.857 25.565,18.487 22.321,18.487 C 19.079,18.487 16.449,15.858 16.449,12.614 C 16.449,9.37 19.079,6.741 22.321,6.741 C 25.565,6.741 28.194,9.371 28.194,12.614 z"
   id="path287"
   style="fill:#d9d9d9" />
			<path
   d="M 28.076,12.581 C 28.076,15.773 25.487,18.362 22.294,18.362 C 19.102,18.362 16.513,15.773 16.513,12.581 C 16.513,9.388 19.102,6.799 22.294,6.799 C 25.487,6.799 28.076,9.388 28.076,12.581 z"
   id="path289"
   style="fill:#dadada" />
			<path
   d="M 27.957,12.548 C 27.957,15.69 25.41,18.238 22.267,18.238 C 19.125,18.238 16.577,15.69 16.577,12.548 C 16.577,9.405 19.126,6.858 22.267,6.858 C 25.41,6.858 27.957,9.405 27.957,12.548 z"
   id="path291"
   style="fill:#dbdbdb" />
			<path
   d="M 27.838,12.516 C 27.838,15.608 25.331,18.115 22.238,18.115 C 19.146,18.115 16.638,15.608 16.638,12.516 C 16.638,9.423 19.146,6.916 22.238,6.916 C 25.332,6.916 27.838,9.423 27.838,12.516 z"
   id="path293"
   style="fill:#dcdcdc" />
			<path
   d="M 27.719,12.482 C 27.719,15.524 25.254,17.99 22.211,17.99 C 19.169,17.99 16.703,15.523 16.703,12.482 C 16.703,9.44 19.169,6.974 22.211,6.974 C 25.254,6.974 27.719,9.44 27.719,12.482 z"
   id="path295"
   style="fill:#dddddd" />
			<path
   d="M 27.601,12.45 C 27.601,15.441 25.176,17.867 22.184,17.867 C 19.193,17.867 16.767,15.441 16.767,12.45 C 16.767,9.458 19.193,7.033 22.184,7.033 C 25.176,7.033 27.601,9.458 27.601,12.45 z"
   id="path297"
   style="fill:#dedede" />
			<path
   d="M 27.483,12.417 C 27.483,15.358 25.098,17.743 22.157,17.743 C 19.216,17.743 16.831,15.358 16.831,12.417 C 16.831,9.475 19.216,7.091 22.157,7.091 C 25.098,7.091 27.483,9.475 27.483,12.417 z"
   id="path299"
   style="fill:#dfdfdf" />
			<path
   d="M 27.364,12.384 C 27.364,15.275 25.021,17.619 22.13,17.619 C 19.239,17.619 16.895,15.275 16.895,12.384 C 16.895,9.492 19.239,7.149 22.13,7.149 C 25.021,7.149 27.364,9.493 27.364,12.384 z"
   id="path301"
   style="fill:#e0e0e0" />
			<path
   d="M 27.246,12.351 C 27.246,15.191 24.943,17.495 22.101,17.495 C 19.261,17.495 16.957,15.191 16.957,12.351 C 16.957,9.51 19.261,7.207 22.101,7.207 C 24.943,7.207 27.246,9.51 27.246,12.351 z"
   id="path303"
   style="fill:#e1e1e1" />
			<path
   d="M 27.126,12.318 C 27.126,15.108 24.864,17.371 22.073,17.371 C 19.283,17.371 17.02,15.108 17.02,12.318 C 17.02,9.527 19.283,7.265 22.073,7.265 C 24.865,7.266 27.126,9.528 27.126,12.318 z"
   id="path305"
   style="fill:#e2e2e2" />
			<path
   d="M 27.008,12.286 C 27.008,15.026 24.787,17.247 22.046,17.247 C 19.306,17.247 17.084,15.025 17.084,12.286 C 17.084,9.545 19.306,7.324 22.046,7.324 C 24.788,7.324 27.008,9.545 27.008,12.286 z"
   id="path307"
   style="fill:#e3e3e3" />
			<path
   d="M 26.89,12.253 C 26.89,14.942 24.709,17.124 22.019,17.124 C 19.33,17.124 17.148,14.943 17.148,12.253 C 17.148,9.563 19.33,7.382 22.019,7.382 C 24.709,7.382 26.89,9.562 26.89,12.253 z"
   id="path309"
   style="fill:#e4e4e4" />
			<path
   d="M 26.771,12.22 C 26.771,14.859 24.631,17 21.992,17 C 19.353,17 17.213,14.859 17.213,12.22 C 17.213,9.58 19.353,7.441 21.992,7.441 C 24.631,7.441 26.771,9.58 26.771,12.22 z"
   id="path311"
   style="fill:#e5e5e5" />
			<path
   d="M 26.653,12.187 C 26.653,14.776 24.554,16.875 21.965,16.875 C 19.376,16.875 17.277,14.775 17.277,12.187 C 17.277,9.598 19.377,7.499 21.965,7.499 C 24.554,7.499 26.653,9.598 26.653,12.187 z"
   id="path313"
   style="fill:#e6e6e6" />
			<path
   d="M 26.534,12.154 C 26.534,14.693 24.476,16.751 21.937,16.751 C 19.398,16.751 17.339,14.692 17.339,12.154 C 17.339,9.615 19.398,7.556 21.937,7.556 C 24.476,7.556 26.534,9.615 26.534,12.154 z"
   id="path315"
   style="fill:#e7e7e7" />
			<path
   d="M 26.416,12.122 C 26.416,14.61 24.398,16.628 21.909,16.628 C 19.421,16.628 17.403,14.61 17.403,12.122 C 17.403,9.633 19.421,7.615 21.909,7.615 C 24.398,7.615 26.416,9.632 26.416,12.122 z"
   id="path317"
   style="fill:#e8e8e8" />
			<path
   d="M 26.297,12.088 C 26.297,14.526 24.32,16.504 21.881,16.504 C 19.443,16.504 17.466,14.526 17.466,12.088 C 17.466,9.65 19.444,7.673 21.881,7.673 C 24.321,7.673 26.297,9.65 26.297,12.088 z"
   id="path319"
   style="fill:#e9e9e9" />
			<path
   d="M 26.178,12.056 C 26.178,14.444 24.242,16.38 21.854,16.38 C 19.466,16.38 17.53,14.443 17.53,12.056 C 17.53,9.668 19.467,7.732 21.854,7.732 C 24.243,7.731 26.178,9.667 26.178,12.056 z"
   id="path321"
   style="fill:#eaeaea" />
			<path
   d="M 26.06,12.023 C 26.06,14.36 24.165,16.256 21.827,16.256 C 19.489,16.256 17.594,14.36 17.594,12.023 C 17.594,9.685 19.49,7.79 21.827,7.79 C 24.166,7.79 26.06,9.685 26.06,12.023 z"
   id="path323"
   style="fill:#ebebeb" />
			<path
   d="M 25.941,11.99 C 25.941,14.277 24.087,16.132 21.799,16.132 C 19.512,16.132 17.656,14.277 17.656,11.99 C 17.656,9.702 19.511,7.847 21.799,7.847 C 24.087,7.848 25.941,9.702 25.941,11.99 z"
   id="path325"
   style="fill:#ececec" />
			<path
   d="M 25.823,11.957 C 25.823,14.194 24.01,16.008 21.772,16.008 C 19.534,16.008 17.72,14.194 17.72,11.957 C 17.72,9.72 19.534,7.906 21.772,7.906 C 24.01,7.906 25.823,9.72 25.823,11.957 z"
   id="path327"
   style="fill:#ededed" />
			<path
   d="M 25.705,11.924 C 25.705,14.111 23.933,15.884 21.745,15.884 C 19.558,15.884 17.785,14.111 17.785,11.924 C 17.785,9.737 19.558,7.964 21.745,7.964 C 23.932,7.964 25.705,9.737 25.705,11.924 z"
   id="path329"
   style="fill:#eeeeee" />
			<path
   d="M 25.585,11.892 C 25.585,14.028 23.854,15.761 21.716,15.761 C 19.58,15.761 17.848,14.029 17.848,11.892 C 17.848,9.755 19.58,8.023 21.716,8.023 C 23.854,8.022 25.585,9.755 25.585,11.892 z"
   id="path331"
   style="fill:#efefef" />
			<path
   d="M 25.467,11.859 C 25.467,13.945 23.776,15.637 21.689,15.637 C 19.603,15.637 17.912,13.945 17.912,11.859 C 17.912,9.772 19.603,8.081 21.689,8.081 C 23.776,8.081 25.467,9.772 25.467,11.859 z"
   id="path333"
   style="fill:#f0f0f0" />
			<path
   d="M 25.348,11.826 C 25.348,13.862 23.699,15.513 21.661,15.513 C 19.626,15.513 17.974,13.862 17.974,11.826 C 17.974,9.79 19.625,8.139 21.661,8.139 C 23.699,8.139 25.348,9.79 25.348,11.826 z"
   id="path335"
   style="fill:#f1f1f1" />
			<path
   d="M 18.039,11.793 C 18.039,9.807 19.649,8.197 21.635,8.197 C 23.621,8.197 25.231,9.807 25.231,11.793 C 25.231,13.778 23.622,15.389 21.635,15.389 C 19.649,15.389 18.039,13.778 18.039,11.793 z"
   id="path337"
   style="fill:#f2f2f2" />
		</g>
		<path
   d="M 9.226,15.569 C 9.226,24.153 16.21,31.137 24.794,31.137 C 33.379,31.137 40.363,24.153 40.363,15.569 C 40.364,6.984 33.379,0 24.794,0 C 16.21,0 9.226,6.984 9.226,15.569 z M 12.226,15.569 C 12.226,8.639 17.864,3 24.794,3 C 31.725,3 37.363,8.639 37.363,15.569 C 37.363,22.499 31.724,28.137 24.794,28.137 C 17.864,28.138 12.226,22.5 12.226,15.569 z"
   id="path339" />
	</g>
</svg>