<?xml version="1.0" encoding="UTF-8" standalone="no"?>
<!-- Created with Sodipodi ("http://www.sodipodi.com/") -->
<svg
   xmlns:dc="http://purl.org/dc/elements/1.1/"
   xmlns:cc="http://creativecommons.org/ns#"
   xmlns:rdf="http://www.w3.org/1999/02/22-rdf-syntax-ns#"
   xmlns:svg="http://www.w3.org/2000/svg"
   xmlns="http://www.w3.org/2000/svg"
   xmlns:sodipodi="http://sodipodi.sourceforge.net/DTD/sodipodi-0.dtd"
   xmlns:inkscape="http://www.inkscape.org/namespaces/inkscape"
   width="48pt"
   height="48pt"
   viewBox="0 0 51.2 51.2"
   overflow="visible"
   enable-background="new 0 0 51.2 51.2"
   xml:space="preserve"
   id="svg153"
   sodipodi:version="0.32"
   sodipodi:docname="drive-optical.svg"
   sodipodi:docbase="/home/cschalle/gnome/gnome-themes-extras/Wasp/icons/scalable/devices"
   inkscape:version="0.46"
   inkscape:output_extension="org.inkscape.output.svg.inkscape">
  <defs
   id="defs243"><inkscape:perspective
   sodipodi:type="inkscape:persp3d"
   inkscape:vp_x="0 : 30 : 1"
   inkscape:vp_y="0 : 1000 : 0"
   inkscape:vp_z="60 : 30 : 1"
   inkscape:persp3d-origin="30 : 20 : 1"
   id="perspective84" />
    
  
      
      
      
      <linearGradient
   gradientTransform="matrix(1.000000,0.000000,0.000000,-1.000000,235.3906,411.1221)"
   y2="383.14081"
   x2="-194.9144"
   y1="402.8472"
   x1="-229.04691"
   gradientUnits="userSpaceOnUse"
   id="linearGradient1460">
        <stop
   id="stop1462"
   style="stop-color:#E6E6FA"
   offset="0" />
        <stop
   id="stop1464"
   style="stop-color:#FFFFFF"
   offset="0.4246" />
        <stop
   id="stop1466"
   style="stop-color:#ADADD2"
   offset="0.4972" />
        <stop
   id="stop1468"
   style="stop-color:#EBEBFF"
   offset="0.8492" />
      </linearGradient>
      
      <linearGradient
   gradientTransform="matrix(1.000000,0.000000,0.000000,-1.000000,235.3906,411.1221)"
   y2="397.06049"
   x2="-204.748"
   y1="392.07181"
   x1="-216.3882"
   gradientUnits="userSpaceOnUse"
   id="linearGradient1472">
        <stop
   id="stop1474"
   style="stop-color:#FFFFFF"
   offset="0" />
        <stop
   id="stop1476"
   style="stop-color:#CCCCF5"
   offset="1" />
      </linearGradient>
      
      
      <linearGradient
   gradientTransform="matrix(1.000000,0.000000,0.000000,-1.000000,235.3906,411.1221)"
   y2="392.17499"
   x2="-227.8364"
   y1="394.6792"
   x1="-200.70799"
   gradientUnits="userSpaceOnUse"
   id="linearGradient1480">
        <stop
   id="stop182"
   style="stop-color:#FFFFFF"
   offset="0" />
        <stop
   id="stop183"
   style="stop-color:#6A77B8"
   offset="1" />
      </linearGradient>
      
      
      
    <inkscape:perspective
   id="perspective2492"
   inkscape:persp3d-origin="32 : 21.333333 : 1"
   inkscape:vp_z="64 : 32 : 1"
   inkscape:vp_y="0 : 1000 : 0"
   inkscape:vp_x="0 : 32 : 1"
   sodipodi:type="inkscape:persp3d" /></defs>
  <sodipodi:namedview
   id="base"
   inkscape:zoom="6.5166667"
   inkscape:cx="30"
   inkscape:cy="30"
   inkscape:window-width="994"
   inkscape:window-height="800"
   inkscape:window-x="154"
   inkscape:window-y="38"
   inkscape:current-layer="svg153"
   showgrid="false" />
  <metadata
   id="metadata154">
    <sfw
   id="sfw6">
      <slices
   id="slices8" />
      <sliceSourceBounds
   y="393.899"
   x="270.9"
   width="51.2"
   height="51.2"
   bottomLeftOrigin="true"
   id="sliceSourceBounds10" />
    </sfw>
  <rdf:RDF><cc:Work
     rdf:about=""><dc:format>image/svg+xml</dc:format><dc:type
       rdf:resource="http://purl.org/dc/dcmitype/StillImage" /></cc:Work></rdf:RDF></metadata>
  <g
   id="Layer_1"
   stroke="#000000">
    <g
   id="Layer_1_2_">
      <path
   fill="none"
   stroke="none"
   d="M51.2,51.2H0V0h51.2V51.2z"
   id="path157" />
      <path
   stroke="none"
   d="M0.24,26.773V38.19l22.407,9.721l19.768-17.679V18.813L20.007,9.095L0.24,26.773z"
   id="path158" />
      <path
   opacity="0.2"
   stroke="none"
   d="M42.501,30.008L22.586,47.818h9.086l19.389-17.811v-4.331l-8.646-3.919L42.501,30.008z"
   id="path159" />
      <linearGradient
   id="XMLID_1_"
   gradientUnits="userSpaceOnUse"
   x1="-210.1069"
   y1="372.5811"
   x2="-211.5811"
   y2="387.3221"
   gradientTransform="matrix(1 0 0 -1 232.5 406.6992)">
        <stop
   offset="0"
   style="stop-color:#F2F2F2"
   id="stop161" />
        <stop
   offset="0.3121"
   style="stop-color:#EEEEEE"
   id="stop162" />
        <stop
   offset="0.6646"
   style="stop-color:#E0E0E0"
   id="stop163" />
        <stop
   offset="1"
   style="stop-color:#CCCCCC"
   id="stop164" />
      </linearGradient>
      <path
   fill="url(#XMLID_1_)"
   stroke="none"
   d="M22.418,36.412L1.44,27.31l18.794-16.808l20.979,9.1L22.418,36.412z"
   id="path172" />
      <linearGradient
   id="XMLID_2_"
   gradientUnits="userSpaceOnUse"
   x1="-214.0112"
   y1="358.0068"
   x2="-220.5572"
   y2="369.7685"
   gradientTransform="matrix(1 0 0 -1 232.5 406.6992)">
        <stop
   offset="0"
   style="stop-color:#E6E6E6"
   id="stop174" />
        <stop
   offset="0.621"
   style="stop-color:#C7C7C7"
   id="stop175" />
        <stop
   offset="1"
   style="stop-color:#B3B3B3"
   id="stop176" />
      </linearGradient>
      <path
   fill="url(#XMLID_2_)"
   stroke="none"
   d="M22.418,46.505L1.44,37.403V27.31l20.979,9.103V46.505z"
   id="path182" />
      <path
   fill="#33CC33"
   stroke="none"
   d="M21.364,39.849l-1.695-0.733v-2.026l1.695,0.733V39.849z"
   id="path183" />
      <path
   fill="#74FA33"
   stroke="none"
   d="M20.654,39.235l-0.787-0.34v-0.94l0.787,0.341V39.235z"
   id="path184" />
      <path
   opacity="0.5"
   stroke="none"
   d="M21.364,38.415l-1.695-0.733v-1.096l1.695,0.733V38.415z"
   id="path185" />
      <linearGradient
   id="XMLID_3_"
   gradientUnits="userSpaceOnUse"
   x1="-198.4731"
   y1="371.915"
   x2="-203.8713"
   y2="376.1435"
   gradientTransform="matrix(1 0 0 -1 232.5 406.6992)">
        <stop
   offset="0"
   style="stop-color:#999999"
   id="stop187" />
        <stop
   offset="0.6839"
   style="stop-color:#7B7B7B"
   id="stop188" />
        <stop
   offset="1"
   style="stop-color:#6B6B6B"
   id="stop189" />
      </linearGradient>
      <path
   fill="url(#XMLID_3_)"
   stroke="none"
   d="M41.214,29.695L22.418,46.504V36.412l18.795-16.811V29.695z"
   id="path195" />
      <path
   fill="none"
   stroke="#666666"
   stroke-width="0.25"
   d="M3.535,35.824l16.788,7.282v-3.742L3.535,32.08V35.824z"
   id="path196" />
      <linearGradient
   id="XMLID_4_"
   gradientUnits="userSpaceOnUse"
   x1="-221.7031"
   y1="367.2188"
   x2="-220.2584"
   y2="369.6266"
   gradientTransform="matrix(1 0 0 -1 232.5 406.6992)">
        <stop
   offset="0"
   style="stop-color:#808080"
   id="stop198" />
        <stop
   offset="0.3311"
   style="stop-color:#616161"
   id="stop199" />
        <stop
   offset="1"
   style="stop-color:#1A1A1A"
   id="stop200" />
      </linearGradient>
      <path
   fill="url(#XMLID_4_)"
   stroke="none"
   d="M19.923,42.497L3.936,35.561v-2.871l15.987,6.937V42.497z"
   id="path206" />
      <path
   opacity="0.6"
   fill="#FFFFFF"
   stroke="none"
   d="M41.228,20.364l-0.014-0.763l-0.609-0.264L22.423,35.604L1.95,26.887     L1.44,27.31l0.003,0.774l20.375,8.82v9.354l0.6,0.247l0.6-0.449v-9.404L41.228,20.364z"
   id="path207" />
      <g
   id="g208">
        <linearGradient
   id="XMLID_5_"
   gradientUnits="userSpaceOnUse"
   x1="-217.0083"
   y1="361.7363"
   x2="-220.9661"
   y2="368.8476"
   gradientTransform="matrix(1 0 0 -1 232.5 406.6992)">
          <stop
   offset="0"
   style="stop-color:#FFFFFF"
   id="stop210" />
          <stop
   offset="0.621"
   style="stop-color:#E1E1E1"
   id="stop211" />
          <stop
   offset="1"
   style="stop-color:#CCCCCC"
   id="stop212" />
        </linearGradient>
        <path
   fill="url(#XMLID_5_)"
   stroke="none"
   d="M4.766,33.09l-0.83-0.36v2.832l15.987,6.936v-0.935L4.766,34.986V33.09z"
   id="path218" />
      </g>
      <g
   id="g219">
        <linearGradient
   id="XMLID_6_"
   gradientUnits="userSpaceOnUse"
   x1="-228.8423"
   y1="372.4277"
   x2="-227.892"
   y2="372.8597"
   gradientTransform="matrix(1 0 0 -1 232.5 406.6992)">
          <stop
   offset="0"
   style="stop-color:#999999"
   id="stop221" />
          <stop
   offset="0.6839"
   style="stop-color:#7B7B7B"
   id="stop222" />
          <stop
   offset="1"
   style="stop-color:#6B6B6B"
   id="stop223" />
        </linearGradient>
        <path
   fill="url(#XMLID_6_)"
   stroke="none"
   d="M4.766,33.09l-0.83-0.36v2.832l0.83-0.575V33.09z"
   id="path229" />
      </g>
      <g
   id="g230">
        <path
   adobe-blending-mode="multiply"
   opacity="0.2"
   stroke="none"
   d="M7.152,27.111c-0.905,0-1.646-0.425-1.767-0.974      c-0.011,0.051-0.025,0.102-0.025,0.154c0,0.623,0.802,1.128,1.792,1.128s1.791-0.505,1.791-1.128      c0-0.053-0.014-0.104-0.025-0.154C8.798,26.688,8.058,27.111,7.152,27.111z"
   id="path231" />
        <path
   adobe-blending-mode="overlay"
   opacity="0.5"
   fill="#FFFFFF"
   stroke="none"
   d="M7.359,25.092      c0.894,0.144,1.557,0.682,1.588,1.243c0.019-0.049,0.041-0.096,0.049-0.148c0.1-0.614-0.612-1.241-1.587-1.399      C6.433,24.629,5.56,25,5.46,25.614c-0.008,0.052-0.003,0.104,0,0.156C5.667,25.248,6.466,24.948,7.359,25.092z"
   id="path232" />
      </g>
      <g
   id="g233">
        <path
   adobe-blending-mode="multiply"
   opacity="0.2"
   stroke="none"
   d="M20.904,15.064c-0.905,0-1.646-0.424-1.766-0.974      c-0.012,0.051-0.025,0.102-0.025,0.154c0,0.623,0.802,1.127,1.791,1.127s1.791-0.505,1.791-1.127      c0-0.053-0.013-0.104-0.025-0.154C22.55,14.64,21.809,15.064,20.904,15.064z"
   id="path234" />
        <path
   adobe-blending-mode="overlay"
   opacity="0.5"
   fill="#FFFFFF"
   stroke="none"
   d="M21.111,13.044      c0.894,0.145,1.557,0.682,1.588,1.243c0.02-0.048,0.041-0.096,0.049-0.148c0.1-0.615-0.611-1.241-1.587-1.399      c-0.977-0.158-1.849,0.212-1.948,0.827c-0.009,0.052-0.003,0.104,0,0.157C19.418,13.2,20.218,12.9,21.111,13.044z"
   id="path235" />
      </g>
      <g
   id="g236">
        <path
   adobe-blending-mode="multiply"
   opacity="0.2"
   stroke="none"
   d="M21.391,33.075c-0.905,0-1.646-0.425-1.767-0.974      c-0.011,0.051-0.024,0.102-0.024,0.154c0,0.623,0.802,1.128,1.791,1.128s1.791-0.505,1.791-1.128      c0-0.053-0.014-0.104-0.024-0.154C23.036,32.65,22.295,33.075,21.391,33.075z"
   id="path237" />
        <path
   adobe-blending-mode="overlay"
   opacity="0.5"
   fill="#FFFFFF"
   stroke="none"
   d="M21.598,31.056      c0.894,0.145,1.558,0.682,1.588,1.242c0.02-0.048,0.041-0.096,0.049-0.148c0.1-0.613-0.611-1.24-1.587-1.398      c-0.977-0.158-1.849,0.212-1.948,0.827c-0.009,0.052-0.003,0.104,0,0.156C19.905,31.212,20.705,30.911,21.598,31.056z"
   id="path238" />
      </g>
      <g
   id="g239">
        <path
   adobe-blending-mode="multiply"
   opacity="0.2"
   stroke="none"
   d="M35.142,21.027c-0.905,0-1.646-0.424-1.766-0.974      c-0.012,0.051-0.025,0.102-0.025,0.155c0,0.623,0.802,1.127,1.791,1.127s1.791-0.505,1.791-1.127      c0-0.053-0.013-0.104-0.024-0.155C36.788,20.603,36.047,21.027,35.142,21.027z"
   id="path240" />
        <path
   adobe-blending-mode="overlay"
   opacity="0.5"
   fill="#FFFFFF"
   stroke="none"
   d="M35.35,19.008      c0.894,0.145,1.558,0.682,1.589,1.243c0.019-0.048,0.04-0.096,0.048-0.148c0.1-0.614-0.61-1.241-1.588-1.399      c-0.976-0.159-1.849,0.212-1.948,0.827c-0.008,0.052-0.003,0.104,0,0.156C33.657,19.164,34.456,18.863,35.35,19.008z"
   id="path241" />
      </g>
    </g>
  </g>
<g
   id="g2459"
   transform="matrix(0.5238317,0,0,0.5238317,8.1840746e-2,-5.1083933)"><path
     id="path2461"
     d="M 32,10 C 48,12 60,20 60,32 C 60,44 48,52 32,54 C 52,54 64,44 64,32 C 64,20 52,10 32,10 z"
     style="fill:#010101;fill-opacity:0.49409999" /><path
     id="path2463"
     d="M 31,12 C 16,12 2,20 2,32 C 2,44 16,52 31,52 C 46,52 60,44 60,32 C 60,20 46,12 31,12 z M 31,26 C 27,26 25,28 25,30 C 25,32 27,34 31,34 C 35,34 37,32 37,30 C 37,28 35,26 31,26 z"
     style="fill:none;stroke:#000000;stroke-width:4" /><linearGradient
     y2="3.2"
     x2="-3.6400001"
     y1="67.690002"
     x1="4.6399999"
     gradientUnits="userSpaceOnUse"
     id="gradient0"><stop
       id="stop2466"
       stop-color="#f1f1f1"
       offset="0" /><stop
       id="stop2468"
       stop-color="#d9ddf4"
       offset="0.2121" /><stop
       id="stop2470"
       stop-color="#9996b9"
       offset="0.5416" /><stop
       id="stop2472"
       stop-color="#b8bedb"
       offset="0.7083" /><stop
       id="stop2474"
       stop-color="#f4f4f4"
       offset="1" /></linearGradient><path
     id="path2476"
     d="M 31,12 C 16,12 2,20 2,32 C 2,44 16,52 31,52 C 46,52 60,44 60,32 C 60,20 46,12 31,12 z M 43,30 C 43,34 39,38 31,38 C 23,38 19,34 19,30 C 19,26 23,22.5 31,22.5 C 39,22.5 43,26 43,30 z"
     style="fill:url(#gradient0)" /><path
     id="path2478"
     d="M 43,30 C 43,34 39,38 31,38 C 23,38 19,34 19,30 C 19,26 23,22.5 31,22.5 C 39,22.5 43,26 43,30 z M 31,26 C 27,26 25,28 25,30 C 25,32 27,34 31,34 C 35,34 37,32 37,30 C 37,28 35,26 31,26 z"
     style="fill:#ebebeb;fill-opacity:0.81559999" /><linearGradient
     y2="6.6799998"
     x2="48.02"
     y1="-3.55"
     x1="6.8400002"
     gradientUnits="userSpaceOnUse"
     id="gradient1"><stop
       id="stop2481"
       stop-color="#4137a9"
       offset="0" /><stop
       id="stop2483"
       stop-color="#b9b9b9"
       offset="1" /></linearGradient><path
     id="path2485"
     d="M 43,30 C 43,34 39,38 31,38 C 23,38 19,34 19,30 C 19,26 23,22.5 31,22.5 C 39,22.5 43,26 43,30 z"
     style="fill:none;stroke:url(#gradient1);stroke-width:2" /></g></svg>