<?xml version="1.0" encoding="UTF-8" standalone="no"?>
<!-- Created with Inkscape (http://www.inkscape.org/) -->

<svg
   xmlns:svg="http://www.w3.org/2000/svg"
   xmlns="http://www.w3.org/2000/svg"
   xmlns:xlink="http://www.w3.org/1999/xlink"
   version="1.1"
   width="103"
   height="127"
   viewBox="-0.356 0.45 103 127"
   id="svg2"
   xml:space="preserve"
   style="overflow:visible"><defs
   id="defs136">
		
		
		
		
		
		
		
		
		
		
		
		
	<radialGradient
   cx="0"
   cy="0"
   r="200"
   id="radialGradient3404"
   xlink:href="#gradient0"
   gradientUnits="userSpaceOnUse"
   gradientTransform="matrix(-0.0063,-0.2447,0.2447,-0.0063,64.3273,65.9999)" /></defs>
	<path
   d="m 0,13.704 v 64.823 l 6.226,4.329 c 19.193,13.898 31.254,27.962 32.216,37.588 l 1.227,6.54 4.299,-5.244 c 1.519,-2.418 2.958,-5.594 4.303,-9.397 0.388,0.157 7.208,4.771 7.208,4.771 L 76.211,103.402 V 37.798 L 20.712,0 0,13.704 z"
   id="path5" /><path
   d="M 73.255,86.051 102.851,99.688 76.434,117.299 55.486,117.101 72.78,100.964 73.255,86.051 z"
   id="path7"
   style="opacity:0.2" /><g
   id="g9">
			<linearGradient
   x1="26.612801"
   y1="36.754398"
   x2="35.933201"
   y2="29.128599"
   id="XMLID_1_"
   gradientUnits="userSpaceOnUse">
				<stop
   id="stop12"
   style="stop-color:#f8faed;stop-opacity:1"
   offset="0" />
				<stop
   id="stop14"
   style="stop-color:#ffffd4;stop-opacity:1"
   offset="1" />
				<midPointStop
   offset="0"
   style="stop-color:#F8FAED"
   id="midPointStop16" />
				<midPointStop
   offset="0.5"
   style="stop-color:#F8FAED"
   id="midPointStop18" />
				<midPointStop
   offset="1"
   style="stop-color:#FFFFD4"
   id="midPointStop20" />
			</linearGradient>
			<path
   d="M 55.521,51.084 3,15.316 20.688,3.613 l 52.523,35.771 -17.69,11.7 z"
   id="path22"
   style="fill:url(#XMLID_1_)" />
		</g><g
   id="g24">
			<linearGradient
   x1="23.0781"
   y1="54.5415"
   x2="44.387901"
   y2="87.216698"
   id="XMLID_2_"
   gradientUnits="userSpaceOnUse">
				<stop
   id="stop27"
   style="stop-color:#ffff66;stop-opacity:1"
   offset="0" />
				<stop
   id="stop29"
   style="stop-color:#ebf2f7;stop-opacity:1"
   offset="1" />
				<midPointStop
   offset="0"
   style="stop-color:#FFFF66"
   id="midPointStop31" />
				<midPointStop
   offset="0.5"
   style="stop-color:#FFFF66"
   id="midPointStop33" />
				<midPointStop
   offset="1"
   style="stop-color:#EBF2F7"
   id="midPointStop35" />
			</linearGradient>
			<path
   d="M 55.521,113.488 3,76.959 2.99,15.363 55.521,51.084 v 62.404 z"
   id="path37"
   style="fill:url(#XMLID_2_)" />
		</g><g
   id="g39"
   style="opacity:0.3">
			<path
   d="m 55.482,73.429 -3.485,37.537 c 0,0 -1.752,-1.475 -5.285,-2.225 -4.365,-0.927 -9.457,-0.557 -9.457,-0.557 L 55.521,51.083 55.482,73.429 z"
   id="path41" />
		</g><g
   id="g43">
			<linearGradient
   x1="22.6206"
   y1="53.839401"
   x2="43.5224"
   y2="85.889"
   id="XMLID_3_"
   gradientUnits="userSpaceOnUse">
				<stop
   id="stop46"
   style="stop-color:#ffffa4;stop-opacity:1"
   offset="0" />
				<stop
   id="stop48"
   style="stop-color:#ffffdc;stop-opacity:1"
   offset="1" />
				<midPointStop
   offset="0"
   style="stop-color:#FFFFA4"
   id="midPointStop50" />
				<midPointStop
   offset="0.5"
   style="stop-color:#FFFFA4"
   id="midPointStop52" />
				<midPointStop
   offset="1"
   style="stop-color:#FFFFDC"
   id="midPointStop54" />
			</linearGradient>
			<path
   d="M 41.428,120.146 C 39.481,100.675 3,76.959 3,76.959 L 2.99,15.363 55.521,51.084 c 0,0 -3.256,51.803 -14.093,69.062 z"
   id="path56"
   style="fill:url(#XMLID_3_)" />
		</g><path
   d="M 2.988,30.179 54.312,65.378 54.435,64.205 2.961,28.909 2.988,30.179 z"
   id="path58"
   style="fill:#f79003" /><g
   id="g60">
			<linearGradient
   x1="85.246101"
   y1="76.015099"
   x2="61.8078"
   y2="76.488701"
   id="XMLID_4_"
   gradientUnits="userSpaceOnUse">
				<stop
   id="stop63"
   style="stop-color:#ffffe3;stop-opacity:1"
   offset="0" />
				<stop
   id="stop65"
   style="stop-color:#fcfad1;stop-opacity:1"
   offset="0.2431" />
				<stop
   id="stop67"
   style="stop-color:#f4efa2;stop-opacity:1"
   offset="0.72960001" />
				<stop
   id="stop69"
   style="stop-color:#f0e886;stop-opacity:1"
   offset="0.98879999" />
				<midPointStop
   offset="0"
   style="stop-color:#FFFFE3"
   id="midPointStop71" />
				<midPointStop
   offset="0.5506"
   style="stop-color:#FFFFE3"
   id="midPointStop73" />
				<midPointStop
   offset="0.9888"
   style="stop-color:#F0E886"
   id="midPointStop75" />
			</linearGradient>
			<path
   d="M 55.521,113.488 73.21,101.789 V 39.385 L 55.521,51.084 v 62.404 z"
   id="path77"
   style="fill:url(#XMLID_4_)" />
		</g><g
   id="g79"
   style="opacity:0.2">
			<path
   d="m 57.421,112.117 0.444,-34.889 0.667,34 -1.111,0.889 z"
   id="path81" />
		</g><g
   id="g83"
   style="opacity:0.2">
			<path
   d="M 64.977,107.006 64.31,86.34 l 1.556,20.666 h -0.889 z"
   id="path85" />
		</g><g
   id="g104">
			<g
   id="g106">
				<path
   d="m 16.872,27.998 4.341,2.861 -0.051,1.029 -3.486,-2.298 -0.127,2.557 3.064,2.02 -0.05,0.998 -3.064,-2.021 -0.192,3.836 -0.855,-0.564 0.42,-8.418 z"
   id="path108"
   style="fill:#920000" />
				<path
   d="m 21.676,33.498 0.724,0.477 -0.054,1.078 c 0.071,-0.167 0.233,-0.32 0.486,-0.461 0.253,-0.14 0.535,-0.108 0.847,0.097 0.014,0.01 0.039,0.028 0.074,0.055 0.035,0.027 0.094,0.075 0.177,0.143 l -0.054,1.092 c -0.046,-0.044 -0.088,-0.08 -0.127,-0.11 -0.039,-0.03 -0.082,-0.061 -0.128,-0.091 -0.396,-0.261 -0.707,-0.293 -0.936,-0.098 -0.229,0.195 -0.354,0.512 -0.376,0.947 l -0.176,3.531 -0.763,-0.502 0.306,-6.158 z"
   id="path110"
   style="fill:#920000" />
				<path
   d="m 24.798,35.606 0.763,0.503 -0.305,6.112 -0.763,-0.504 0.305,-6.111 z m 0.116,-2.323 0.763,0.502 -0.059,1.169 -0.763,-0.503 0.059,-1.168 z"
   id="path112"
   style="fill:#920000" />
				<path
   d="m 29.226,38.684 c 0.129,0.202 0.273,0.501 0.431,0.897 l 0.153,-3.071 0.736,0.485 -0.421,8.435 -0.684,-0.451 0.042,-0.843 c -0.196,0.258 -0.42,0.39 -0.671,0.396 -0.25,0.007 -0.532,-0.093 -0.845,-0.3 -0.505,-0.332 -0.927,-0.908 -1.268,-1.727 -0.341,-0.818 -0.487,-1.707 -0.439,-2.662 0.045,-0.896 0.252,-1.561 0.621,-1.994 0.369,-0.434 0.866,-0.445 1.491,-0.033 0.345,0.228 0.63,0.518 0.854,0.868 z m -1.938,3.494 c 0.182,0.58 0.498,1.018 0.948,1.314 0.35,0.23 0.647,0.213 0.893,-0.052 0.245,-0.265 0.388,-0.783 0.426,-1.556 0.039,-0.78 -0.048,-1.435 -0.262,-1.962 -0.213,-0.528 -0.49,-0.904 -0.831,-1.129 -0.38,-0.251 -0.698,-0.254 -0.955,-0.01 -0.256,0.244 -0.403,0.755 -0.442,1.53 -0.033,0.664 0.041,1.284 0.223,1.865 z"
   id="path114"
   style="fill:#920000" />
				<path
   d="m 33.893,44.065 c 0.178,0.086 0.3,0.064 0.368,-0.065 0.042,-0.065 0.067,-0.185 0.076,-0.354 0.018,-0.348 -0.063,-0.662 -0.242,-0.941 -0.179,-0.28 -0.441,-0.535 -0.789,-0.764 -0.401,-0.265 -0.693,-0.309 -0.875,-0.133 -0.102,0.097 -0.175,0.293 -0.219,0.587 l -0.71,-0.468 c 0.052,-0.749 0.26,-1.156 0.625,-1.223 0.364,-0.066 0.777,0.053 1.239,0.357 0.535,0.354 0.963,0.779 1.283,1.281 0.317,0.498 0.462,1.038 0.433,1.618 l -0.176,3.53 c -0.005,0.107 0.007,0.203 0.037,0.291 0.03,0.086 0.098,0.164 0.204,0.234 0.035,0.023 0.074,0.046 0.117,0.068 0.043,0.022 0.09,0.045 0.14,0.065 l -0.038,0.759 c -0.122,-0.034 -0.214,-0.065 -0.277,-0.096 -0.063,-0.029 -0.148,-0.08 -0.257,-0.151 -0.265,-0.175 -0.45,-0.427 -0.557,-0.757 -0.056,-0.174 -0.091,-0.391 -0.104,-0.651 -0.17,0.177 -0.406,0.271 -0.709,0.284 -0.302,0.012 -0.629,-0.098 -0.981,-0.33 -0.422,-0.278 -0.759,-0.68 -1.01,-1.203 -0.25,-0.525 -0.363,-1.048 -0.336,-1.57 0.028,-0.572 0.182,-0.929 0.462,-1.07 0.28,-0.141 0.635,-0.105 1.067,0.104 l 1.229,0.598 z m -1.762,1.728 c 0.154,0.279 0.342,0.492 0.564,0.639 0.271,0.18 0.538,0.268 0.8,0.266 0.441,0.002 0.678,-0.314 0.71,-0.95 l 0.042,-0.833 c -0.098,0.021 -0.222,0.012 -0.373,-0.03 -0.151,-0.042 -0.297,-0.099 -0.44,-0.171 l -0.468,-0.231 c -0.281,-0.138 -0.494,-0.198 -0.641,-0.185 -0.249,0.022 -0.383,0.231 -0.402,0.627 -0.015,0.298 0.054,0.588 0.208,0.868 z"
   id="path116"
   style="fill:#920000" />
				<path
   d="m 39.13,44.955 0.848,0.56 c -0.128,0.323 -0.413,1.066 -0.855,2.229 -0.331,0.875 -0.607,1.584 -0.828,2.127 -0.524,1.278 -0.886,2.029 -1.085,2.255 -0.2,0.225 -0.522,0.19 -0.967,-0.103 -0.109,-0.072 -0.192,-0.133 -0.25,-0.184 -0.058,-0.05 -0.129,-0.119 -0.213,-0.205 l 0.047,-0.949 c 0.132,0.139 0.228,0.234 0.287,0.285 0.059,0.051 0.112,0.092 0.158,0.121 0.143,0.095 0.25,0.133 0.32,0.113 0.07,-0.018 0.131,-0.059 0.181,-0.119 0.016,-0.021 0.075,-0.145 0.178,-0.369 0.103,-0.224 0.178,-0.391 0.225,-0.502 l -1.381,-7.457 0.875,0.576 0.979,5.826 1.481,-4.204 z"
   id="path118"
   style="fill:#920000" />
			</g>
			<g
   id="g120">
				<path
   d="m 16.872,27.998 4.341,2.861 -0.051,1.029 -3.486,-2.298 -0.127,2.557 3.064,2.02 -0.05,0.998 -3.064,-2.021 -0.192,3.836 -0.855,-0.564 0.42,-8.418 z"
   id="path122"
   style="fill:#920000" />
				<path
   d="m 21.676,33.498 0.724,0.477 -0.054,1.078 c 0.071,-0.167 0.233,-0.32 0.486,-0.461 0.253,-0.14 0.535,-0.108 0.847,0.097 0.014,0.01 0.039,0.028 0.074,0.055 0.035,0.027 0.094,0.075 0.177,0.143 l -0.054,1.092 c -0.046,-0.044 -0.088,-0.08 -0.127,-0.11 -0.039,-0.03 -0.082,-0.061 -0.128,-0.091 -0.396,-0.261 -0.707,-0.293 -0.936,-0.098 -0.229,0.195 -0.354,0.512 -0.376,0.947 l -0.176,3.531 -0.763,-0.502 0.306,-6.158 z"
   id="path124"
   style="fill:#920000" />
				<path
   d="m 24.798,35.606 0.763,0.503 -0.305,6.112 -0.763,-0.504 0.305,-6.111 z m 0.116,-2.323 0.763,0.502 -0.059,1.169 -0.763,-0.503 0.059,-1.168 z"
   id="path126"
   style="fill:#920000" />
				<path
   d="m 29.226,38.684 c 0.129,0.202 0.273,0.501 0.431,0.897 l 0.153,-3.071 0.736,0.485 -0.421,8.435 -0.684,-0.451 0.042,-0.843 c -0.196,0.258 -0.42,0.39 -0.671,0.396 -0.25,0.007 -0.532,-0.093 -0.845,-0.3 -0.505,-0.332 -0.927,-0.908 -1.268,-1.727 -0.341,-0.818 -0.487,-1.707 -0.439,-2.662 0.045,-0.896 0.252,-1.561 0.621,-1.994 0.369,-0.434 0.866,-0.445 1.491,-0.033 0.345,0.228 0.63,0.518 0.854,0.868 z m -1.938,3.494 c 0.182,0.58 0.498,1.018 0.948,1.314 0.35,0.23 0.647,0.213 0.893,-0.052 0.245,-0.265 0.388,-0.783 0.426,-1.556 0.039,-0.78 -0.048,-1.435 -0.262,-1.962 -0.213,-0.528 -0.49,-0.904 -0.831,-1.129 -0.38,-0.251 -0.698,-0.254 -0.955,-0.01 -0.256,0.244 -0.403,0.755 -0.442,1.53 -0.033,0.664 0.041,1.284 0.223,1.865 z"
   id="path128"
   style="fill:#920000" />
				<path
   d="m 33.893,44.065 c 0.178,0.086 0.3,0.064 0.368,-0.065 0.042,-0.065 0.067,-0.185 0.076,-0.354 0.018,-0.348 -0.063,-0.662 -0.242,-0.941 -0.179,-0.28 -0.441,-0.535 -0.789,-0.764 -0.401,-0.265 -0.693,-0.309 -0.875,-0.133 -0.102,0.097 -0.175,0.293 -0.219,0.587 l -0.71,-0.468 c 0.052,-0.749 0.26,-1.156 0.625,-1.223 0.364,-0.066 0.777,0.053 1.239,0.357 0.535,0.354 0.963,0.779 1.283,1.281 0.317,0.498 0.462,1.038 0.433,1.618 l -0.176,3.53 c -0.005,0.107 0.007,0.203 0.037,0.291 0.03,0.086 0.098,0.164 0.204,0.234 0.035,0.023 0.074,0.046 0.117,0.068 0.043,0.022 0.09,0.045 0.14,0.065 l -0.038,0.759 c -0.122,-0.034 -0.214,-0.065 -0.277,-0.096 -0.063,-0.029 -0.148,-0.08 -0.257,-0.151 -0.265,-0.175 -0.45,-0.427 -0.557,-0.757 -0.056,-0.174 -0.091,-0.391 -0.104,-0.651 -0.17,0.177 -0.406,0.271 -0.709,0.284 -0.302,0.012 -0.629,-0.098 -0.981,-0.33 -0.422,-0.278 -0.759,-0.68 -1.01,-1.203 -0.25,-0.525 -0.363,-1.048 -0.336,-1.57 0.028,-0.572 0.182,-0.929 0.462,-1.07 0.28,-0.141 0.635,-0.105 1.067,0.104 l 1.229,0.598 z m -1.762,1.728 c 0.154,0.279 0.342,0.492 0.564,0.639 0.271,0.18 0.538,0.268 0.8,0.266 0.441,0.002 0.678,-0.314 0.71,-0.95 l 0.042,-0.833 c -0.098,0.021 -0.222,0.012 -0.373,-0.03 -0.151,-0.042 -0.297,-0.099 -0.44,-0.171 l -0.468,-0.231 c -0.281,-0.138 -0.494,-0.198 -0.641,-0.185 -0.249,0.022 -0.383,0.231 -0.402,0.627 -0.015,0.298 0.054,0.588 0.208,0.868 z"
   id="path130"
   style="fill:#920000" />
				<path
   d="m 39.13,44.955 0.848,0.56 c -0.128,0.323 -0.413,1.066 -0.855,2.229 -0.331,0.875 -0.607,1.584 -0.828,2.127 -0.524,1.278 -0.886,2.029 -1.085,2.255 -0.2,0.225 -0.522,0.19 -0.967,-0.103 -0.109,-0.072 -0.192,-0.133 -0.25,-0.184 -0.058,-0.05 -0.129,-0.119 -0.213,-0.205 l 0.047,-0.949 c 0.132,0.139 0.228,0.234 0.287,0.285 0.059,0.051 0.112,0.092 0.158,0.121 0.143,0.095 0.25,0.133 0.32,0.113 0.07,-0.018 0.131,-0.059 0.181,-0.119 0.016,-0.021 0.075,-0.145 0.178,-0.369 0.103,-0.224 0.178,-0.391 0.225,-0.502 l -1.381,-7.457 0.875,0.576 0.979,5.826 1.481,-4.204 z"
   id="path132"
   style="fill:#920000" />
			</g>
		</g>
<g
   transform="matrix(0.3781897,0,0,0.3781897,53.186959,0.81800581)"
   id="g2502"><path
     d="m 49.5,9.84 c 0,1.28 0,108 0,109.3 0,1.29 1.04,2.34 2.34,2.34 1.29,0 24.5,0 25.79,0 1.29,0 2.34,-1.05 2.34,-2.34 0,-1.29 0,-108.01 0,-109.3 0,-1.28 -1.05,-2.34 -2.34,-2.34 -1.29,0 -24.5,0 -25.79,0 -1.29,0 -2.34,1.05 -2.34,2.34 l 0,0 z m 69.62,39.57 c -1.29,0 -108,0.15 -109.29,0.15 -1.28,0 -2.34,1.04 -2.34,2.34 0,1.29 0.03,24.5 0.03,25.79 0,1.29 1.04,2.34 2.33,2.34 1.28,0 108.01,-0.15 109.3,-0.15 1.28,0 2.33,-1.05 2.33,-2.34 0,-1.29 -0.02,-24.5 -0.02,-25.79 0,-1.28 -1.05,-2.34 -2.34,-2.34 l 0,0 z"
     id="path2504"
     style="fill:none;stroke:#17450c;stroke-width:14.12899971;stroke-linecap:round" /><path
     d="m 49.5,9.84 c 0,1.28 0,108 0,109.3 0,1.29 1.04,2.34 2.34,2.34 1.29,0 24.5,0 25.79,0 1.29,0 2.34,-1.05 2.34,-2.34 0,-1.29 0,-108.01 0,-109.3 0,-1.28 -1.05,-2.34 -2.34,-2.34 -1.29,0 -24.5,0 -25.79,0 -1.29,0 -2.34,1.05 -2.34,2.34 l 0,0 z m 69.72,39.91 c -1.29,0 -108.01,-0.49 -109.3,-0.5 -1.28,0 -2.35,1.02 -2.35,2.33 0,1.28 -0.1,24.5 -0.1,25.79 0,1.29 1.02,2.35 2.32,2.35 1.28,0 108.01,0.48 109.29,0.5 1.29,0 2.35,-1.03 2.35,-2.33 0,-1.29 0.11,-24.51 0.11,-25.8 0,-1.28 -1.03,-2.34 -2.33,-2.34 l 0.01,0 z"
     id="path2506"
     style="fill:none;stroke:#7cb66e;stroke-width:4.83370018" /><radialGradient
     cx="0"
     cy="0"
     r="200"
     id="gradient0"
     gradientUnits="userSpaceOnUse"
     gradientTransform="matrix(-0.0063,-0.2447,0.2447,-0.0063,64.3273,65.9999)"><stop
       id="stop2509"
       style="stop-color:#55df36;stop-opacity:1"
       offset="0.60720003" /><stop
       id="stop2511"
       style="stop-color:#73fc54;stop-opacity:1"
       offset="0.98379999" /></radialGradient><path
     d="m 49.5,9.84 c 0,0.52 0,18.78 0,40.22 0,30.85 0,68.3 0,69.08 0,1.29 1.04,2.34 2.34,2.34 1.29,0 24.5,0 25.79,0 1.29,0 2.34,-1.05 2.34,-2.34 0,-1.29 0,-108.01 0,-109.3 0,-1.28 -1.05,-2.34 -2.34,-2.34 -1.29,0 -24.5,0 -25.79,0 -1.29,0 -2.34,1.05 -2.34,2.34 l 0,0 z m 69.72,39.91 c -1.29,0 -108.01,-0.49 -109.3,-0.5 -1.28,0 -2.35,1.02 -2.35,2.33 0,1.28 -0.1,24.5 -0.1,25.79 0,1.29 1.02,2.35 2.32,2.35 1.28,0 108.01,0.48 109.29,0.5 1.29,0 2.35,-1.03 2.35,-2.33 0,-1.29 0.11,-24.51 0.11,-25.8 0,-1.28 -1.03,-2.34 -2.33,-2.34 l 0.01,0 z"
     id="path2513"
     style="fill:url(#radialGradient3404);fill-rule:evenodd" /><path
     d="m 36.66,67.08 c 1.28,1.29 24.29,24.5 25.57,25.79 1.27,1.29 3.36,1.3 4.67,0.02 1.28,-1.27 24.58,-24.38 25.88,-25.66 1.28,-1.27 1.29,-3.36 0.01,-4.66 C 91.52,61.28 68.5,38.07 67.23,36.78 65.96,35.5 63.86,35.49 62.57,36.76 61.28,38.04 37.98,61.14 36.68,62.41 c -1.28,1.28 -1.29,3.37 -0.02,4.66 l 0,0.01 z"
     id="path2515"
     style="fill:#56e136" /></g></svg>