<?xml version="1.0" encoding="UTF-8" standalone="no"?>
<!-- Created with Inkscape (http://www.inkscape.org/) -->

<svg
   xmlns:svg="http://www.w3.org/2000/svg"
   xmlns="http://www.w3.org/2000/svg"
   version="1.1"
   width="99.609001"
   height="122.628"
   viewBox="0 0 99.609 122.628"
   id="svg2"
   xml:space="preserve"
   style="overflow:visible"><defs
   id="defs299">
			
			
				<linearGradient
   x1="-287.2139"
   y1="333.39499"
   x2="-276.90079"
   y2="336.58301"
   id="XMLID_220_"
   gradientUnits="userSpaceOnUse"
   gradientTransform="matrix(0.8816,0.2319,0,-1,308.9097,442.6559)">
				<stop
   id="stop177"
   style="stop-color:#d4ac00;stop-opacity:1"
   offset="0" />
				<stop
   id="stop179"
   style="stop-color:#dfc100;stop-opacity:1"
   offset="0.2947" />
				<stop
   id="stop181"
   style="stop-color:#faf500;stop-opacity:1"
   offset="0.89859998" />
				<stop
   id="stop183"
   style="stop-color:#ffff00;stop-opacity:1"
   offset="1" />
				<midPointStop
   offset="0"
   style="stop-color:#D4AC00"
   id="midPointStop185" />
				<midPointStop
   offset="0.5"
   style="stop-color:#D4AC00"
   id="midPointStop187" />
				<midPointStop
   offset="0.2947"
   style="stop-color:#DFC100"
   id="midPointStop189" />
				<midPointStop
   offset="0.5"
   style="stop-color:#DFC100"
   id="midPointStop191" />
				<midPointStop
   offset="0.8986"
   style="stop-color:#FAF500"
   id="midPointStop193" />
				<midPointStop
   offset="0.5"
   style="stop-color:#FAF500"
   id="midPointStop195" />
				<midPointStop
   offset="1"
   style="stop-color:#FFFF00"
   id="midPointStop197" />
			</linearGradient>
			
			
				<linearGradient
   x1="-291.3735"
   y1="347.76901"
   x2="-283.54099"
   y2="347.76901"
   id="XMLID_221_"
   gradientUnits="userSpaceOnUse"
   gradientTransform="matrix(0.8816,0.2319,0,-1,308.9097,442.6559)">
				<stop
   id="stop202"
   style="stop-color:#dcac00;stop-opacity:1"
   offset="0" />
				<stop
   id="stop204"
   style="stop-color:#e5c100;stop-opacity:1"
   offset="0.2947" />
				<stop
   id="stop206"
   style="stop-color:#fbf500;stop-opacity:1"
   offset="0.89859998" />
				<stop
   id="stop208"
   style="stop-color:#ffff00;stop-opacity:1"
   offset="1" />
				<midPointStop
   offset="0"
   style="stop-color:#DCAC00"
   id="midPointStop210" />
				<midPointStop
   offset="0.5"
   style="stop-color:#DCAC00"
   id="midPointStop212" />
				<midPointStop
   offset="0.2947"
   style="stop-color:#E5C100"
   id="midPointStop214" />
				<midPointStop
   offset="0.5"
   style="stop-color:#E5C100"
   id="midPointStop216" />
				<midPointStop
   offset="0.8986"
   style="stop-color:#FBF500"
   id="midPointStop218" />
				<midPointStop
   offset="0.5"
   style="stop-color:#FBF500"
   id="midPointStop220" />
				<midPointStop
   offset="1"
   style="stop-color:#FFFF00"
   id="midPointStop222" />
			</linearGradient>
			
			
				<linearGradient
   x1="-325.98141"
   y1="332.814"
   x2="-317.58591"
   y2="335.40909"
   id="XMLID_222_"
   gradientUnits="userSpaceOnUse"
   gradientTransform="matrix(1,0,0,-1,350.6953,360.8135)">
				<stop
   id="stop227"
   style="stop-color:#d4ac00;stop-opacity:1"
   offset="0" />
				<stop
   id="stop229"
   style="stop-color:#dfc100;stop-opacity:1"
   offset="0.2947" />
				<stop
   id="stop231"
   style="stop-color:#faf500;stop-opacity:1"
   offset="0.89859998" />
				<stop
   id="stop233"
   style="stop-color:#ffff00;stop-opacity:1"
   offset="1" />
				<midPointStop
   offset="0"
   style="stop-color:#D4AC00"
   id="midPointStop235" />
				<midPointStop
   offset="0.5"
   style="stop-color:#D4AC00"
   id="midPointStop237" />
				<midPointStop
   offset="0.2947"
   style="stop-color:#DFC100"
   id="midPointStop239" />
				<midPointStop
   offset="0.5"
   style="stop-color:#DFC100"
   id="midPointStop241" />
				<midPointStop
   offset="0.8986"
   style="stop-color:#FAF500"
   id="midPointStop243" />
				<midPointStop
   offset="0.5"
   style="stop-color:#FAF500"
   id="midPointStop245" />
				<midPointStop
   offset="1"
   style="stop-color:#FFFF00"
   id="midPointStop247" />
			</linearGradient>
			
			
				<linearGradient
   x1="-315.5874"
   y1="361.76321"
   x2="-283.54099"
   y2="361.76321"
   id="XMLID_223_"
   gradientUnits="userSpaceOnUse"
   gradientTransform="matrix(0.8816,0.2319,0,-1,308.9097,442.6559)">
				<stop
   id="stop252"
   style="stop-color:#e6b800;stop-opacity:1"
   offset="0" />
				<stop
   id="stop254"
   style="stop-color:#edcd00;stop-opacity:1"
   offset="0.3378" />
				<stop
   id="stop256"
   style="stop-color:#ffff00;stop-opacity:1"
   offset="1" />
				<midPointStop
   offset="0"
   style="stop-color:#E6B800"
   id="midPointStop258" />
				<midPointStop
   offset="0.5"
   style="stop-color:#E6B800"
   id="midPointStop260" />
				<midPointStop
   offset="0.3378"
   style="stop-color:#EDCD00"
   id="midPointStop262" />
				<midPointStop
   offset="0.5"
   style="stop-color:#EDCD00"
   id="midPointStop264" />
				<midPointStop
   offset="1"
   style="stop-color:#FFFF00"
   id="midPointStop266" />
			</linearGradient>
			
			
				<linearGradient
   x1="-304.4585"
   y1="331.62549"
   x2="-320.18121"
   y2="323.22949"
   id="XMLID_224_"
   gradientUnits="userSpaceOnUse"
   gradientTransform="matrix(1,0,0,-1,350.6953,360.8135)">
				<stop
   id="stop271"
   style="stop-color:#f8fa97;stop-opacity:1"
   offset="0" />
				<stop
   id="stop273"
   style="stop-color:#f9fb82;stop-opacity:1"
   offset="0.17470001" />
				<stop
   id="stop275"
   style="stop-color:#fbfc4d;stop-opacity:1"
   offset="0.53479999" />
				<stop
   id="stop277"
   style="stop-color:#ffff00;stop-opacity:1"
   offset="1" />
				<midPointStop
   offset="0"
   style="stop-color:#F8FA97"
   id="midPointStop279" />
				<midPointStop
   offset="0.5"
   style="stop-color:#F8FA97"
   id="midPointStop281" />
				<midPointStop
   offset="0.1747"
   style="stop-color:#F9FB82"
   id="midPointStop283" />
				<midPointStop
   offset="0.5"
   style="stop-color:#F9FB82"
   id="midPointStop285" />
				<midPointStop
   offset="0.5348"
   style="stop-color:#FBFC4D"
   id="midPointStop287" />
				<midPointStop
   offset="0.5"
   style="stop-color:#FBFC4D"
   id="midPointStop289" />
				<midPointStop
   offset="1"
   style="stop-color:#FFFF00"
   id="midPointStop291" />
			</linearGradient>
			
			
		</defs>
		<g
   id="Layer_2_2_">
			
			<path
   d="m 82.506,86.958 0.038,-35.584 c 0,0 -1.587,-0.901 -1.618,-0.919 -0.057,-0.044 -0.162,-0.127 -0.162,-0.127 l -0.263,-0.099 c 0,0 -13.163,-6.964 -18.291,-9.677 0.854,-0.803 1.709,-1.607 1.709,-1.607 l -26.096,-11.243 -1.434,1.342 -0.094,0.087 -0.042,-0.02 c 0,0 -12.924,12.135 -15.471,14.526 -0.025,-0.013 -2.233,-1.142 -2.233,-1.142 L 0.901,62.324 1.087,62.133 0,64.412 v 34.635 l 44.393,23.582 38.113,-35.671 z"
   id="path7" />
			<polygon
   points="44.404,122.144 61.542,122.144 99.609,86.24 99.546,78.294 81.985,72.479 82.032,86.403 "
   id="polygon9"
   style="opacity:0.2" />
			<g
   id="g11">
				
					<linearGradient
   x1="-308.90091"
   y1="279.01419"
   x2="-343.36981"
   y2="260.17859"
   id="XMLID_212_"
   gradientUnits="userSpaceOnUse"
   gradientTransform="matrix(1,0,0,-1,350.6953,360.8135)">
					<stop
   id="stop14"
   style="stop-color:#facf9d;stop-opacity:1"
   offset="0" />
					<stop
   id="stop16"
   style="stop-color:#cd9363;stop-opacity:1"
   offset="1" />
					<midPointStop
   id="midPointStop18"
   style="stop-color:#FACF9D"
   offset="0" />
					<midPointStop
   id="midPointStop20"
   style="stop-color:#FACF9D"
   offset="0.5" />
					<midPointStop
   id="midPointStop22"
   style="stop-color:#CD9363"
   offset="1" />
				</linearGradient>
				<polygon
   points="3,97.242 3,64.412 44.216,86.232 44.216,119.063 "
   id="polygon24"
   style="fill:url(#XMLID_212_)" />
			</g>
			<g
   id="g26">
				<polygon
   points="44.216,118.794 44.216,85.962 79.514,53.11 79.507,85.658 "
   id="polygon28"
   style="fill:#9a6633" />
			</g>
			<g
   id="g30">
				<polygon
   points="57.271,107.169 57.271,80.253 59.237,75.807 66.456,69.083 66.454,98.544 "
   id="polygon32"
   style="fill:#b0763b" />
			</g>
			<g
   id="g34">
				
					<linearGradient
   x1="-314.6987"
   y1="333.42041"
   x2="-307.5928"
   y2="291.08679"
   id="XMLID_213_"
   gradientUnits="userSpaceOnUse"
   gradientTransform="matrix(1,0,0,-1,350.6953,360.8135)">
					<stop
   id="stop37"
   style="stop-color:#ffcd99;stop-opacity:1"
   offset="0" />
					<stop
   id="stop39"
   style="stop-color:#eba76e;stop-opacity:1"
   offset="1" />
					<midPointStop
   id="midPointStop41"
   style="stop-color:#FFCD99"
   offset="0" />
					<midPointStop
   id="midPointStop43"
   style="stop-color:#FFCD99"
   offset="0.5" />
					<midPointStop
   id="midPointStop45"
   style="stop-color:#EBA76E"
   offset="1" />
				</linearGradient>
				<polygon
   points="44.216,86.232 3.019,64.435 38.309,31.299 79.507,53.098 "
   id="polygon47"
   style="fill:url(#XMLID_213_)" />
			</g>
			<g
   id="g49">
				
					<linearGradient
   x1="-330.0571"
   y1="317.2319"
   x2="-326.07391"
   y2="293.50189"
   id="XMLID_214_"
   gradientUnits="userSpaceOnUse"
   gradientTransform="matrix(1,0,0,-1,350.6953,360.8135)">
					<stop
   id="stop52"
   style="stop-color:#ffdcac;stop-opacity:1"
   offset="0" />
					<stop
   id="stop54"
   style="stop-color:#e19a68;stop-opacity:1"
   offset="1" />
					<midPointStop
   id="midPointStop56"
   style="stop-color:#FFDCAC"
   offset="0" />
					<midPointStop
   id="midPointStop58"
   style="stop-color:#FFDCAC"
   offset="0.5" />
					<midPointStop
   id="midPointStop60"
   style="stop-color:#E19A68"
   offset="1" />
				</linearGradient>
				<polygon
   points="25.575,76.51 3.114,64.303 19.249,46.223 44.228,59 "
   id="polygon62"
   style="fill:url(#XMLID_214_)" />
			</g>
			<g
   id="g64">
				
					<linearGradient
   x1="-324.15039"
   y1="296.0054"
   x2="-284.6727"
   y2="278.10291"
   id="XMLID_215_"
   gradientUnits="userSpaceOnUse"
   gradientTransform="matrix(1,0,0,-1,350.6953,360.8135)">
					<stop
   id="stop67"
   style="stop-color:#ffcd99;stop-opacity:1"
   offset="0" />
					<stop
   id="stop69"
   style="stop-color:#eba76e;stop-opacity:1"
   offset="1" />
					<midPointStop
   id="midPointStop71"
   style="stop-color:#FFCD99"
   offset="0" />
					<midPointStop
   id="midPointStop73"
   style="stop-color:#FFCD99"
   offset="0.5" />
					<midPointStop
   id="midPointStop75"
   style="stop-color:#EBA76E"
   offset="1" />
				</linearGradient>
				<polygon
   points="44.148,86.1 25.948,76.5 44.096,59.46 62.294,69.062 "
   id="polygon77"
   style="fill:url(#XMLID_215_)" />
			</g>
			<g
   id="g79">
				
					<linearGradient
   x1="-312.84329"
   y1="331.46341"
   x2="-309.5611"
   y2="311.9093"
   id="XMLID_216_"
   gradientUnits="userSpaceOnUse"
   gradientTransform="matrix(1,0,0,-1,350.6953,360.8135)">
					<stop
   id="stop82"
   style="stop-color:#ffcd99;stop-opacity:1"
   offset="0" />
					<stop
   id="stop84"
   style="stop-color:#eba76e;stop-opacity:1"
   offset="1" />
					<midPointStop
   id="midPointStop86"
   style="stop-color:#FFCD99"
   offset="0" />
					<midPointStop
   id="midPointStop88"
   style="stop-color:#FFCD99"
   offset="0.5" />
					<midPointStop
   id="midPointStop90"
   style="stop-color:#EBA76E"
   offset="1" />
				</linearGradient>
				<polygon
   points="40.649,56.696 21.867,46.796 38.439,31.234 58.534,39.89 "
   id="polygon92"
   style="fill:url(#XMLID_216_)" />
			</g>
			<g
   id="g94">
				
					<linearGradient
   x1="-302.81049"
   y1="319.06979"
   x2="-301.11331"
   y2="308.95801"
   id="XMLID_217_"
   gradientUnits="userSpaceOnUse"
   gradientTransform="matrix(1,0,0,-1,350.6953,360.8135)">
					<stop
   id="stop97"
   style="stop-color:#eba76e;stop-opacity:1"
   offset="0" />
					<stop
   id="stop99"
   style="stop-color:#cd9363;stop-opacity:1"
   offset="1" />
					<midPointStop
   id="midPointStop101"
   style="stop-color:#EBA76E"
   offset="0" />
					<midPointStop
   id="midPointStop103"
   style="stop-color:#EBA76E"
   offset="0.5" />
					<midPointStop
   id="midPointStop105"
   style="stop-color:#CD9363"
   offset="1" />
				</linearGradient>
				<polygon
   points="40.872,57.305 40.333,57.113 57.122,41.219 58.021,41.768 "
   id="polygon107"
   style="fill:url(#XMLID_217_)" />
			</g>
			<g
   id="g109"
   style="opacity:0.25">
				<polygon
   points="40.529,57.778 39.99,57.492 57.121,41.219 59.29,42.367 "
   id="polygon111" />
			</g>
			<g
   id="g113">
				<polygon
   points="62.294,69.316 61.229,68.667 79.126,52.856 79.542,53.18 "
   id="polygon115"
   style="fill:#9a6633" />
			</g>
			<g
   id="g117"
   style="opacity:0.3">
				<polygon
   points="25.854,76.492 25.117,76.089 43.903,59.565 43.809,59.458 "
   id="polygon119" />
			</g>
			<g
   id="g121"
   style="opacity:0.35">
				<polygon
   points="61.753,69.891 43.821,59.544 21.355,47.399 21.898,46.708 62.348,69.296 "
   id="polygon123" />
			</g>
			<g
   id="g125"
   style="opacity:0.36000001">
				
					<linearGradient
   x1="-325.4736"
   y1="279.32861"
   x2="-306.4639"
   y2="279.32861"
   id="XMLID_218_"
   gradientUnits="userSpaceOnUse"
   gradientTransform="matrix(1,0,0,-1,350.6953,360.8135)">
					<stop
   id="stop128"
   style="stop-color:#404040;stop-opacity:1"
   offset="0" />
					<stop
   id="stop130"
   style="stop-color:#000000;stop-opacity:1"
   offset="1" />
					<midPointStop
   id="midPointStop132"
   style="stop-color:#404040"
   offset="0" />
					<midPointStop
   id="midPointStop134"
   style="stop-color:#404040"
   offset="0.5" />
					<midPointStop
   id="midPointStop136"
   style="stop-color:#000000"
   offset="1" />
				</linearGradient>
				<polygon
   points="44.231,86.777 26.436,78.58 25.222,76.193 44.169,86.232 "
   id="polygon138"
   style="fill:url(#XMLID_218_)" />
			</g>
			<g
   id="g140"
   style="opacity:0.2">
				
					<linearGradient
   x1="-318.67581"
   y1="310.3374"
   x2="-319.89841"
   y2="308.29971"
   id="XMLID_219_"
   gradientUnits="userSpaceOnUse"
   gradientTransform="matrix(1,0,0,-1,350.6953,360.8135)">
					<stop
   id="stop143"
   style="stop-color:#ffffff;stop-opacity:1"
   offset="0" />
					<stop
   id="stop145"
   style="stop-color:#000000;stop-opacity:1"
   offset="1" />
					<midPointStop
   id="midPointStop147"
   style="stop-color:#FFFFFF"
   offset="0" />
					<midPointStop
   id="midPointStop149"
   style="stop-color:#FFFFFF"
   offset="0.5" />
					<midPointStop
   id="midPointStop151"
   style="stop-color:#000000"
   offset="1" />
				</linearGradient>
				<polygon
   points="40.379,57.038 21.875,46.751 22.837,45.963 40.345,57.235 "
   id="polygon153"
   style="fill:url(#XMLID_219_)" />
			</g>
			<g
   id="g155">
				<polygon
   points="59.237,75.807 57.271,80.253 59.161,81.996 "
   id="polygon157"
   style="fill:#cd8d53" />
			</g>
			<g
   id="g159"
   style="opacity:0.5">
				<g
   id="g161">
					<path
   d="M 24.398,107.094 4.113,96.175 V 74.714 l 20.285,10.921 v 21.459 z M 23.062,86.542 14.342,81.823 V 99.8 l 8.72,4.719 V 86.542 z M 5.393,76.979 v 17.978 l 7.788,4.217 V 81.195 L 5.393,76.979 z"
   id="path163" />
				</g>
			</g>
			<g
   id="g165"
   style="opacity:0.5">
				<polygon
   points="18.67,86.222 15.422,89.587 17.574,90.751 17.574,99.494 19.713,100.65 19.713,91.91 21.917,93.103 "
   id="polygon167" />
			</g>
			<g
   id="g169"
   style="opacity:0.5">
				<path
   d="m 11.128,96.237 c 0,-0.575 -1.451,-1.671 -1.5,-1.927 -0.05,-0.254 -0.019,-2.984 -0.015,-3.307 0.005,-0.32 -0.14,-1.023 0.428,-1.295 1.479,-0.717 1.511,-3.057 1.562,-7.088 L 6.695,79.964 c 0.051,4.086 0.083,6.461 1.562,8.775 0.568,0.889 0.423,1.436 0.428,1.76 0.004,0.326 0.036,3.09 -0.015,3.289 -0.05,0.203 -1.5,-0.271 -1.5,0.305 l 3.958,2.144 z"
   id="path171" />
			</g>
		</g>
		
	<g
   transform="matrix(0.55661854,0,0,0.55661854,27.113186,0.37709485)"
   id="Layer_1_2_">
		<path
   d="m 95.06,43.886 c 3.123,-4.648 1.887,-10.951 -2.763,-14.074 -4.648,-3.123 -9.405,-1.975 -14.073,2.762 l 26.18,-26.34 c 4.192,-4.482 9.426,-5.885 14.074,-2.762 4.649,3.125 5.885,9.426 2.762,14.074 l -26.18,26.34 z"
   id="path3178" />
		<path
   d="m 102.942,4.868 c 0.041,-0.043 -26.138,26.295 -26.138,26.295 0,0 -0.003,0.004 -0.006,0.006 l 2.844,2.814 0.006,-0.006 c 5.45,-5.531 9.192,-4.08 11.533,-2.506 3.727,2.504 4.721,7.572 2.218,11.299 l 3.079,2.523 26.314,-26.475 0.106,-0.158 c 3.733,-5.557 2.25,-13.115 -3.307,-16.85 -5.223,-3.508 -11.603,-2.338 -16.649,3.058 z m 2.88,2.776 c 1.802,-1.926 6.446,-5.934 11.54,-2.512 2.336,1.57 3.598,4.146 3.598,6.77 0,1.527 -0.442,3.062 -1.334,4.432 -0.311,0.311 -14.438,14.525 -20.948,21.074 -0.252,-3.611 -2.034,-7.086 -5.266,-9.256 -1.603,-1.078 -3.618,-1.939 -5.931,-2.057 7.696,-7.741 18.341,-18.451 18.341,-18.451 z"
   id="path3180" />
		<path
   d="m 69.917,40.216 8.113,-7.732 c 3.637,-4.186 9.618,-5.795 14.267,-2.672 4.649,3.123 5.886,9.426 2.763,14.074 l -4.334,4.93"
   id="path3182"
   style="fill:#cccccc" />
		<path
   d="m 76.521,31.171 0.13,-0.135 -8.113,7.732 2.76,2.895 8.182,-7.797 0.062,-0.072 c 2.766,-3.182 7.652,-5.004 11.642,-2.322 2.336,1.568 3.599,4.146 3.599,6.77 0,1.543 -0.444,3.096 -1.354,4.473 -0.248,0.283 -4.202,4.781 -4.202,4.781 l 3.004,2.641 4.42,-5.027 0.072,-0.107 c 3.733,-5.557 2.249,-13.115 -3.308,-16.85 -5.223,-3.509 -12.327,-2.24 -16.894,3.018 z"
   id="path3184" />
		<g
   id="g3186">
			<path
   d="m 85.754,27.208 5.233,1.293 25.119,-25.1 c 0,0 -1.018,-0.826 -2.244,-1.121 -1.385,-0.334 -2.996,-0.139 -2.996,-0.139 L 85.754,27.208 z"
   id="path3188"
   style="fill:#3d3d3d" />
			<path
   d="m 113.938,2.36 c -0.344,-0.083 -1.038,-0.213 -1.361,-0.223 -0.542,-0.017 -1,0.07 -1,0.07 l -24.795,24.717 0.84,0.264 3.237,0.474 24.478,-24.457 c 0,0 -0.58,-0.648 -1.399,-0.845 z"
   id="path3190"
   style="fill:#717171" />
			<path
   d="m 114.016,2.44 c -0.172,-0.042 -1.011,-0.25 -1.173,-0.255 -0.271,-0.008 -0.554,0.089 -0.554,0.089 l -24.477,24.366 0.909,0.338 2.012,-0.156 23.836,-23.813 c -0.001,0 -0.144,-0.47 -0.553,-0.569 z"
   id="path3192"
   style="fill:#a5a5a5" />
			<path
   d="M 88.841,26.356 89.82,26.768 114.093,2.52 113.109,2.233 88.841,26.356 z"
   id="path3194"
   style="fill:#d9d9d9" />
		</g>
		<path
   d="m 2,66.308 c 0,15.621 20.841,27.4 48.48,27.4 27.639,0 48.48,-11.779 48.48,-27.4 C 98.96,50.685 78.118,38.906 50.48,38.906 22.841,38.905 2,50.685 2,66.308 z"
   id="path3196"
   style="fill:#ffffff;stroke:#000000;stroke-width:4" />
		<path
   d="m 50.559,114.575 c 5.113,0.982 9.687,0.799 15.543,0.799 27.639,0 48.481,-16.389 48.481,-32.012 0,-8.787 -6.716,-18.482 -17.511,-25.283 1.428,4.709 2.351,7.17 2.043,9.322 -0.309,2.154 0,0 0,0 v 19.701 c -1.434,16.85 -21.82,27.627 -48.556,27.473 z"
   id="path3198"
   style="opacity:0.2" />
		<g
   id="g3200">
			<linearGradient
   x1="2"
   y1="90.493202"
   x2="98.960899"
   y2="90.493202"
   id="XMLID_1_"
   gradientUnits="userSpaceOnUse">
				<stop
   id="stop3203"
   style="stop-color:#9494bb;stop-opacity:1"
   offset="0.0056" />
				<stop
   id="stop3205"
   style="stop-color:#9898be;stop-opacity:1"
   offset="0.1026" />
				<stop
   id="stop3207"
   style="stop-color:#a5a5c6;stop-opacity:1"
   offset="0.2035" />
				<stop
   id="stop3209"
   style="stop-color:#babad3;stop-opacity:1"
   offset="0.3064" />
				<stop
   id="stop3211"
   style="stop-color:#d7d7e5;stop-opacity:1"
   offset="0.41049999" />
				<stop
   id="stop3213"
   style="stop-color:#fcfcfd;stop-opacity:1"
   offset="0.5147" />
				<stop
   id="stop3215"
   style="stop-color:#ffffff;stop-opacity:1"
   offset="0.52249998" />
				<stop
   id="stop3217"
   style="stop-color:#ebebf2;stop-opacity:1"
   offset="0.56309998" />
				<stop
   id="stop3219"
   style="stop-color:#ccccde;stop-opacity:1"
   offset="0.63980001" />
				<stop
   id="stop3221"
   style="stop-color:#b3b3cf;stop-opacity:1"
   offset="0.7198" />
				<stop
   id="stop3223"
   style="stop-color:#a2a2c4;stop-opacity:1"
   offset="0.8035" />
				<stop
   id="stop3225"
   style="stop-color:#9797bd;stop-opacity:1"
   offset="0.8933" />
				<stop
   id="stop3227"
   style="stop-color:#9494bb;stop-opacity:1"
   offset="1" />
				<midPointStop
   offset="0.0056"
   style="stop-color:#9494BB"
   id="midPointStop3229" />
				<midPointStop
   offset="0.6989"
   style="stop-color:#9494BB"
   id="midPointStop3231" />
				<midPointStop
   offset="0.5225"
   style="stop-color:#FFFFFF"
   id="midPointStop3233" />
				<midPointStop
   offset="0.2588"
   style="stop-color:#FFFFFF"
   id="midPointStop3235" />
				<midPointStop
   offset="1"
   style="stop-color:#9494BB"
   id="midPointStop3237" />
			</linearGradient>
			<path
   d="m 2,87.276 c 0,15.621 20.841,27.402 48.48,27.402 27.639,0 48.48,-11.781 48.48,-27.402 V 66.308 c 0,15.621 -20.842,27.4 -48.48,27.4 C 22.841,93.708 2,81.929 2,66.308 v 20.968 z"
   id="path3239"
   style="fill:url(#XMLID_1_)" />
			<path
   d="m 2,87.276 c 0,15.621 20.841,27.402 48.48,27.402 27.639,0 48.48,-11.781 48.48,-27.402 V 66.308 c 0,15.621 -20.842,27.4 -48.48,27.4 C 22.841,93.708 2,81.929 2,66.308 v 20.968 z"
   id="path3241"
   style="fill:none;stroke:#000000;stroke-width:4" />
		</g>
		<g
   id="g3243">
			<path
   d="m 50.48,47.868 c -20.368,0 -36.879,8.254 -36.879,18.439 0,3.107 1.546,6.035 4.264,8.605 4.682,-7.494 18.674,-12.936 35.207,-12.936 14.148,0 26.43,3.986 32.614,9.832 1.085,-1.736 1.672,-3.586 1.672,-5.502 0,-10.184 -16.51,-18.438 -36.878,-18.438 z"
   id="path3245"
   style="fill:none;stroke:#000000;stroke-width:4" />
		</g>
		<path
   d="m 13.602,66.308 c 0,-10.186 16.511,-18.439 36.879,-18.439 20.367,0 36.878,8.254 36.878,18.439 0,10.184 -16.511,18.438 -36.878,18.438 C 30.112,84.745 13.602,76.491 13.602,66.308 z"
   id="path3247"
   style="fill:none;stroke:#000000;stroke-width:4" />
		<g
   id="g3249">
			<g
   id="g3251"
   style="opacity:0.38999999">
				<path
   d="m 50.48,83.167 c 18.018,0 32.893,-6.371 35.197,-14.625 -5.069,-6.373 -18.033,-10.906 -33.232,-10.906 -18.02,0 -32.893,6.371 -35.197,14.625 5.07,6.373 18.032,10.906 33.232,10.906 z"
   id="path3253"
   style="fill:#8c8cdf" />
			</g>
		</g>
		<g
   id="g3255"
   style="opacity:0.38999999">
			<path
   d="m 14.962,66.308 c 0,-9.312 15.901,-16.861 35.519,-16.861 19.616,0 35.519,7.549 35.519,16.861 0,9.311 -15.902,16.859 -35.519,16.859 -19.618,0 -35.519,-7.549 -35.519,-16.859 z"
   id="path3257"
   style="fill:#8c8cdf" />
		</g>
		<path
   d="M 95.689,54.491 129.793,20.19 c 0,0 -3.566,-3.969 -6.424,-3.236 l -32.393,31.908 4.713,5.629 z"
   id="path3259"
   style="opacity:0.2" />
		<path
   d="m 74.848,40.278 1.971,0.59 10.576,-10.34 c 0,0 -0.709,-0.324 -1.373,-0.344 -0.59,-0.016 -1.148,0.273 -1.148,0.273 l -10.026,9.821 z"
   id="path3261"
   style="fill:#ffffff" />
		<g
   id="g3263">
			<path
   d="m 32.217,61.177 c 1.971,-2.969 5.079,-4.377 6.941,-3.139 1.863,1.234 1.775,4.645 -0.195,7.615 -1.97,2.97 -5.078,4.375 -6.941,3.141 -1.864,-1.236 -1.776,-4.647 0.195,-7.617 z"
   id="path3265"
   style="opacity:0.5;fill:#ffffff" />
			<path
   d="m 37.374,59.71 c 1.493,0.617 1.905,2.777 0.919,4.824 -0.986,2.047 -2.995,3.204 -4.488,2.587 -1.493,-0.618 -1.904,-2.778 -0.919,-4.825 0.986,-2.046 2.995,-3.205 4.488,-2.586 z"
   id="path3267"
   style="opacity:0.7;fill:#ffffff" />
			<path
   d="m 33.557,63.415 c 0,-1.123 0.91,-2.033 2.033,-2.033 1.123,0 2.034,0.91 2.034,2.033 0,1.123 -0.911,2.033 -2.034,2.033 -1.123,0 -2.033,-0.91 -2.033,-2.033 z"
   id="path3269"
   style="opacity:0.9;fill:#ffffff" />
		</g>
		<path
   d="m 63.525,73.624 c 0,0 10.268,-3.889 11.48,-9.1 1.213,-5.209 2.362,0.266 2.053,1.289 -1.604,5.289 -8.498,11.742 -11.861,11.209 -3.363,-0.531 -3.543,-2.609 -1.672,-3.398 z"
   id="path3271"
   style="opacity:0.67000002;fill:#ffffff" />
	</g></svg>