<?xml version="1.0" encoding="UTF-8" standalone="no"?>
<!-- Generator: Adobe Illustrator 10.0, SVG Export Plug-In . SVG Version: 3.0.0 Build 43)  -->
<svg
   xmlns:dc="http://purl.org/dc/elements/1.1/"
   xmlns:cc="http://creativecommons.org/ns#"
   xmlns:rdf="http://www.w3.org/1999/02/22-rdf-syntax-ns#"
   xmlns:svg="http://www.w3.org/2000/svg"
   xmlns="http://www.w3.org/2000/svg"
   xmlns:sodipodi="http://sodipodi.sourceforge.net/DTD/sodipodi-0.dtd"
   xmlns:inkscape="http://www.inkscape.org/namespaces/inkscape"
   width="32"
   height="32"
   viewBox="0 0 50.482 50.941"
   overflow="visible"
   enable-background="new 0 0 50.482 50.941"
   xml:space="preserve"
   id="svg2"
   sodipodi:version="0.32"
   inkscape:version="0.46"
   sodipodi:docname="go-home.svg"
   inkscape:output_extension="org.inkscape.output.svg.inkscape"
   version="1.0"
   style="overflow:visible"><defs
   id="defs74"><inkscape:perspective
     sodipodi:type="inkscape:persp3d"
     inkscape:vp_x="0 : 25.470501 : 1"
     inkscape:vp_y="0 : 1000 : 0"
     inkscape:vp_z="50.481998 : 25.470501 : 1"
     inkscape:persp3d-origin="25.240999 : 16.980334 : 1"
     id="perspective76" /></defs><sodipodi:namedview
   inkscape:window-height="682"
   inkscape:window-width="884"
   inkscape:pageshadow="2"
   inkscape:pageopacity="0.0"
   guidetolerance="10.0"
   gridtolerance="10.0"
   objecttolerance="10.0"
   borderopacity="1.0"
   bordercolor="#666666"
   pagecolor="#ffffff"
   id="base"
   showgrid="false"
   inkscape:zoom="9.1085763"
   inkscape:cx="31.244207"
   inkscape:cy="23.719679"
   inkscape:window-x="272"
   inkscape:window-y="24"
   inkscape:current-layer="svg2" />
	<metadata
   id="metadata4">
		<sfw
   id="sfw6">
			<slices
   id="slices8" />
			<sliceSourceBounds
   y="394.029"
   x="271.259"
   width="50.482"
   height="50.941"
   bottomLeftOrigin="true"
   id="sliceSourceBounds10" />
		</sfw>
	<rdf:RDF><cc:Work
     rdf:about=""><dc:format>image/svg+xml</dc:format><dc:type
       rdf:resource="http://purl.org/dc/dcmitype/StillImage" /></cc:Work></rdf:RDF></metadata>
	<g
   id="Layer_1"
   style="stroke:#000000"
   transform="matrix(0.7872883,0,0,0.7872883,5.4178713,4.7187911)">
		<g
   id="Layer_1_2_">
			<path
   d="M 15.011,9.724 L 0.089,20.529 L 0,25.776 C 0,25.776 2.34,24.072 2.665,23.836 C 2.665,27.208 2.665,38.982 2.665,38.982 L 26.767,50.941 L 42.366,37.905 C 42.366,37.905 42.366,29.854 42.366,28.893 C 42.986,28.375 45.389,26.367 45.389,26.367 L 45.389,22.71 L 30.612,0 L 15.011,9.724 z"
   id="path14"
   style="stroke:none" />
			
				<linearGradient
   id="XMLID_1_"
   gradientUnits="userSpaceOnUse"
   x1="-221.5313"
   y1="366.19629"
   x2="-217.65491"
   y2="370.8479"
   gradientTransform="matrix(1,0,0,-1,233.3975,406.7656)">
				<stop
   offset="0"
   style="stop-color:#BFBFBF"
   id="stop17" />
				<stop
   offset="1"
   style="stop-color:#555555"
   id="stop19" />
				
				
				
			</linearGradient>
			<path
   d="M 12.065,42.349 L 12.065,27.627 L 18.366,30.754 L 18.366,45.475 L 12.065,42.349 z"
   id="path21"
   style="fill:url(#XMLID_1_);stroke:none" />
			
				<linearGradient
   id="XMLID_2_"
   gradientUnits="userSpaceOnUse"
   x1="-194.16499"
   y1="367.45209"
   x2="-263.68839"
   y2="422.54999"
   gradientTransform="matrix(1,0,0,-1,233.3975,406.7656)">
				<stop
   offset="0"
   style="stop-color:#BFBFBF"
   id="stop24" />
				<stop
   offset="1"
   style="stop-color:#898989"
   id="stop26" />
				
				
				
			</linearGradient>
			<path
   d="M 41.203,20.615 L 26.604,32.815 L 26.604,49.562 L 41.203,37.361 L 41.203,20.615 z"
   id="path28"
   style="fill:url(#XMLID_2_);stroke:none" />
			<path
   d="M 13.592,28.313 L 12.066,27.705 L 12.066,42.35 L 13.592,41.088 L 13.592,28.313 z"
   id="path30"
   style="fill:#bfbfbf;stroke:none" />
			<path
   d="M 42.366,37.905 L 26.767,50.941 L 36.243,50.941 L 50.482,38.927 L 50.311,35.768 L 42.39,34.817 L 42.366,37.905 z"
   id="path32"
   style="opacity:0.2;stroke:none" />
			
				<linearGradient
   id="XMLID_3_"
   gradientUnits="userSpaceOnUse"
   x1="-204.59959"
   y1="373.76459"
   x2="-254.6736"
   y2="384.66641"
   gradientTransform="matrix(1,0,0,-1,233.3975,406.7656)">
				<stop
   offset="0"
   style="stop-color:#FFFFFF"
   id="stop35" />
				<stop
   offset="1"
   style="stop-color:#E6E6E6"
   id="stop37" />
				
				
				
			</linearGradient>
			<path
   d="M 15.216,13.004 L 3.828,21.514 L 3.828,38.261 L 12.065,42.349 L 12.065,27.627 L 18.366,30.754 L 18.366,45.475 L 26.603,49.563 L 26.603,32.815 L 15.216,13.004 z"
   id="path39"
   style="fill:url(#XMLID_3_);stroke:none" />
			
				<linearGradient
   id="XMLID_4_"
   gradientUnits="userSpaceOnUse"
   x1="-209.8569"
   y1="367.38669"
   x2="-227.22279"
   y2="393.0231"
   gradientTransform="matrix(1,0,0,-1,233.3975,406.7656)">
				<stop
   offset="0"
   style="stop-color:#F75625"
   id="stop42" />
				<stop
   offset="1"
   style="stop-color:#FB0F0C"
   id="stop44" />
				
				
				
			</linearGradient>
			<path
   d="M 29.626,35.081 L 15.661,10.689 L 1.242,21.13 L 1.202,23.463 L 15.208,13.268 L 29.626,38.018 L 29.626,35.081 L 29.626,35.081 z"
   id="path46"
   style="fill:url(#XMLID_4_);stroke:none" />
			<path
   d="M 44.226,23.056 L 30.259,1.59 L 15.66,10.689 L 29.626,35.255 L 44.226,23.056 z"
   id="path48"
   style="fill:#fb0f0c;stroke:none" />
			
				<linearGradient
   id="XMLID_5_"
   gradientUnits="userSpaceOnUse"
   x1="-189.3174"
   y1="382.32809"
   x2="-203.50301"
   y2="370.22849"
   gradientTransform="matrix(1,0,0,-1,233.3975,406.7656)">
				<stop
   offset="0"
   style="stop-color:#F75625"
   id="stop51" />
				<stop
   offset="1"
   style="stop-color:#FB0F0C"
   id="stop53" />
				
				
				
			</linearGradient>
			<path
   d="M 44.226,23.056 L 29.626,35.256 L 29.626,38.025 L 44.226,25.824 L 44.226,23.056 z"
   id="path55"
   style="fill:url(#XMLID_5_);stroke:none" />
			<path
   d="M 44.226,23.056 L 29.626,35.256 L 29.626,38.025 L 44.226,25.824 L 44.226,23.056 z"
   id="path57"
   style="opacity:0.2;stroke:none" />
			<path
   d="M 15.208,13.268 L 3.828,21.582 L 3.801,23.283 L 15.953,14.557 L 15.208,13.268 z"
   id="path59"
   style="opacity:0.2;stroke:none" />
			<path
   d="M 35.247,11.114 L 31.691,14.283 L 31.691,22.726 L 35.247,19.557 L 35.247,11.114 z"
   id="path61"
   style="fill:#eac510;stroke:none" />
			<path
   d="M 27.156,12.076 L 27.156,14.753 L 31.691,22.727 L 31.691,14.284 L 27.156,12.076 z"
   id="path63"
   style="fill:#f7e219;stroke:none" />
			<path
   d="M 30.711,8.908 L 27.154,12.076 L 31.69,14.283 L 35.246,11.114 L 30.711,8.908 z"
   id="path65"
   style="fill:#f8f98b;stroke:none" />
			<path
   d="M 35.247,19.557 L 35.779,10.876 L 30.712,8.908 L 35.247,11.114 L 35.247,19.557 z"
   id="path67"
   style="fill:#9f0f09;stroke:none" />
			<path
   d="M 30.888,9.881 L 28.619,11.902 L 31.513,13.31 L 33.783,11.288 L 30.888,9.881 z"
   id="path69"
   style="opacity:0.2;stroke:none" />
			<path
   d="M 30.888,9.881 L 28.619,11.902 L 31.513,13.31 L 30.917,12.269 L 30.888,9.881 z"
   id="path71"
   style="opacity:0.5;stroke:none" />
		</g>
	</g>
</svg>