<?xml version="1.0" encoding="UTF-8" standalone="yes"?>
<!-- (c)2005 by yellowTAB GmbH. All rights reserved. It is prohibited to redistribute or publish thisor derivitive works of this data without prior express written permission from yellowTAB GmbH.  -->
<svg width="264" height="193" color-interpolation="linearRGB">
 <g>
  <path style="fill:#000000; fill-opacity:0.1294"
        d="M237.84 54.89c0 0 -6.54 -4.45 -7.92 -5.39c0 -0.18 0 -0.21 0.01 -0.36c0.67 -0.43 1.58 -0.96 2.44 -1.46c2.59 -1.52 3.8 -2.26 4.4 -2.93c0.3 -0.33 0.45 -0.75 0.45 -1.18c0 -0.18 -0.02 -0.36 -0.08 -0.54c-0.97 -2.93 -2.36 -5.86 -4.12 -8.72c-0.28 -0.46 -0.78 -0.79 -1.35 -0.9c0 0 -6.96 -1.35 -7.55 -1.47c-1.04 -1.48 -2.22 -2.92 -3.5 -4.31c1 -1.17 2.39 -2.8 2.39 -2.8c0.29 -0.34 0.43 -0.74 0.43 -1.14c0 -0.49 -0.21 -0.97 -0.62 -1.34c-2.41 -2.14 -5.01 -4.11 -7.73 -5.87c-0.59 -0.38 -1.37 -0.45 -2.04 -0.16c0 0 -3.13 1.33 -4.44 1.89c-1.63 -0.92 -3.33 -1.75 -5.07 -2.49c0.02 -1.39 0.08 -3.91 0.08 -3.92c0 -0.75 -0.5 -1.44 -1.26 -1.73c-3.3 -1.24 -6.72 -2.21 -10.15 -2.89c-1.01 -0.19 -2.02 0.32 -2.36 1.22c0 0 -0.77 2.04 -1.3 3.47c-1.63 -0.14 -3.25 -0.2 -4.83 -0.16c-0.96 -1.1 -4.18 -4.83 -4.18 -4.83c-0.41 -0.48 -1.07 -0.74 -1.75 -0.7c-2.84 0.18 -5.59 0.64 -8.21 1.3c-0.31 -0.08 -0.63 -0.16 -0.97 -0.1c-0.86 0.15 -1.52 0.8 -1.63 1.6c-0.08 0.63 -0.11 2.42 -0.11 4.48c0 0.94 0 1.92 0.01 2.89c-1.94 -0.86 -7.56 -3.36 -7.56 -3.36c-0.72 -0.32 -1.59 -0.22 -2.2 0.23c-2.22 1.67 -4.13 3.61 -5.68 5.76c-0.18 0.25 -0.29 0.53 -0.32 0.83c-0.06 0.54 -0.38 6.59 -0.49 8.44c-0 0.02 -0 0.06 -0 0.09c0 0.62 0.33 1.2 0.9 1.55c0 0 0.93 0.57 1.42 0.87c-2.14 0.11 -4.39 0.23 -4.39 0.23c-0.96 0.05 -1.76 0.71 -1.9 1.59l-1.63 10.23c-0.01 0.09 -0.02 0.18 -0.02 0.27c0 0.07 0 0.15 0.01 0.23l1.19 8.6c0.12 0.87 0.9 1.55 1.86 1.62c0 0 7.64 0.61 7.86 0.63c0.62 1.24 1.34 2.47 2 3.52c-0.03 0.04 -0.08 0.05 -0.11 0.1l-0.64 0.95c-0.57 1.4 -1.81 4.13 -3.66 8.09c-0.11 0.23 -0.16 0.48 -0.16 0.73c0 0.4 0.14 0.8 0.41 1.13c1.91 2.29 8.18 8.08 10.92 8.68c0.56 0.12 1.16 0.01 1.64 -0.28c0 0 5.95 -3.76 7.64 -4.83c1.46 0.83 3.64 2.02 5.22 2.73c0.16 1.37 1.18 9.66 1.18 9.66c0.08 0.7 0.59 1.29 1.32 1.54c5.49 1.86 9.06 2.67 11.93 2.71c0.71 0.01 1.39 -0.32 1.77 -0.88l4.64 -6.78c0.33 -0.48 0.52 -0.76 0.65 -0.98c1.11 -0.05 2.61 -0.16 3.94 -0.38c0.84 0.98 5.02 5.89 5.02 5.89c0.49 0.58 1.31 0.84 2.09 0.66c3.54 -0.77 7.22 -3.19 7.38 -3.29c0.11 -0.07 0.21 -0.15 0.3 -0.24c0.29 -0.29 7.22 -7.13 8.26 -8.26c0.32 -0.34 0.49 -0.77 0.49 -1.21c0 -0.31 -0.08 -0.62 -0.26 -0.91c0 0 -0.35 -0.56 -0.48 -0.77c0.05 -0.03 0.1 -0.04 0.15 -0.08l8.18 -6.39c0.23 -0.18 0.41 -0.4 0.54 -0.65c1.21 -2.49 2.01 -5.18 2.36 -8.01c0 -0.07 0.01 -0.14 0.01 -0.21c-0 -0.58 -0.3 -1.14 -0.82 -1.49v0z
           M203.3 56.38c-6.63 1.28 -14.43 1.01 -21.26 -3.04c-16.7 -9.9 -15.4 -14.53 -15.37 -18.02c1.53 -10.29 18.7 -11 28.95 -5.14c10.25 5.85 16.14 15.45 13.32 22.7c-1.28 2.57 -5.63 3.51 -5.63 3.51z"
  />
  <path style="fill:#000000; fill-opacity:0.1294"
        d="M177.63 4.58c-2.68 0.17 -5.43 0.61 -8.17 1.28c-0.33 -0.07 -0.69 -0.15 -1.18 -0.06c-1.51 0.27 -2.66 1.43 -2.85 2.88c-0.06 0.42 -0.12 1.34 -0.12 4.68c0 0 0 0.39 0 0.58c-2.19 -0.97 -5.44 -2.42 -5.44 -2.42c-1.21 -0.54 -2.67 -0.38 -3.72 0.4c-2.33 1.76 -4.35 3.8 -5.99 6.07c-0.32 0.45 -0.53 0.98 -0.6 1.53c-0.05 0.45 -0.22 3.51 -0.46 7.95l-0.03 0.62l-0 0.13c0 0.39 0.16 0.75 0.29 1.11c-0.31 0.01 -0.94 0.04 -0.94 0.04c-1.66 0.08 -3.05 1.29 -3.3 2.85c-0 0 -1.63 10.23 -1.63 10.23c0 0 -0.04 0.5 -0.04 0.5l0.02 0.42c0 0.02 1.2 8.62 1.2 8.62c0.21 1.56 1.57 2.78 3.23 2.91c0 0 5.12 0.41 7.07 0.57c0.37 0.65 0.7 1.24 1.13 1.98c-0.11 0.17 -0.3 0.45 -0.3 0.45l-0.05 0.14c-0.56 1.37 -1.78 4.07 -3.63 8.02c0 0 -0.3 1.37 -0.3 1.37c0 0.75 0.27 1.5 0.76 2.09c1.63 1.95 8.28 8.43 11.75 9.18c0.94 0.2 1.94 0.03 2.75 -0.47c0 -0 5 -3.16 6.89 -4.36c1.09 0.6 2.5 1.36 3.79 1.98c0.16 1.36 1.08 8.85 1.08 8.85c0.15 1.28 1.05 2.34 2.32 2.78c5.65 1.91 8.26 -0.31 11.3 -0.26c1.22 0.01 3.21 0.27 3.88 -0.7c0 -0 4.88 -4.54 4.88 -4.54c0 0 0.12 -0.18 0.25 -0.38c0.75 -0.04 1.59 -0.12 2.48 -0.24c0.83 0.98 4.5 5.28 4.5 5.28c0.84 0.99 2.24 1.45 3.56 1.16c3.57 -0.78 7.17 -3.04 7.86 -3.48c0.03 -0.02 0.54 -0.43 0.54 -0.43c0.07 -0.07 7.23 -7.14 8.32 -8.32c0.57 -0.61 0.89 -1.41 0.89 -2.22c0 -0.44 -0.12 -0.86 -0.29 -1.27c2.09 -1.63 7.31 -5.7 7.31 -5.7l0.96 -1.18c1.28 -2.64 2.13 -5.49 2.5 -8.48c0 -0.02 0.02 -0.4 0.02 -0.4c0 -1.08 -0.55 -2.11 -1.48 -2.74l0 0c0 0 -4.19 -2.85 -6.27 -4.27c0.29 -0.18 0.71 -0.42 0.71 -0.42c2.8 -1.64 4.01 -2.39 4.76 -3.23c0.54 -0.6 0.84 -1.38 0.84 -2.18l-0.16 -1c-1.01 -3.05 -2.45 -6.09 -4.27 -9.04c-0.5 -0.82 -1.36 -1.4 -2.34 -1.59c0 0 -6.03 -1.17 -6.99 -1.36c-0.71 -0.97 -1.51 -1.96 -2.37 -2.95c0.7 -0.82 1.55 -1.82 1.55 -1.82c0.51 -0.59 0.79 -1.35 0.79 -2.12c0 -0.93 -0.41 -1.83 -1.12 -2.46c-2.46 -2.19 -5.13 -4.21 -7.91 -6c-1.01 -0.65 -2.33 -0.76 -3.44 -0.28c0 0 -2.88 1.23 -3.81 1.62c-1.16 -0.62 -2.36 -1.21 -3.59 -1.76c0.01 -0.82 0.06 -3 0.06 -3c0 -1.39 -0.87 -2.62 -2.23 -3.13c-3.39 -1.27 -6.88 -2.26 -10.39 -2.95c-1.72 -0.33 -3.47 0.59 -4.06 2.16c0 0 -0.53 1.42 -0.92 2.45c-1.06 -0.06 -2.13 -0.13 -3.13 -0.12c-0.72 -0.83 -3.73 -4.3 -3.73 -4.3c-0.72 -0.83 -1.83 -1.29 -2.97 -1.21z
           M169.87 8.84c2.66 -0.67 5.33 -1.09 7.94 -1.26c0.2 -0.01 0.4 0.05 0.51 0.19l4.65 5.36l0.7 -0.01c1.46 -0.03 3.03 0.02 4.66 0.16l1.13 0.09l1.71 -4.53c0.06 -0.18 0.35 -0.34 0.67 -0.27c3.34 0.65 6.68 1.6 9.91 2.82c0.17 0.06 0.29 0.19 0.29 0.32c0 0 -0.1 4.9 -0.1 4.9l0.93 0.39c1.7 0.72 3.36 1.54 4.93 2.42l0.64 0.36l5.12 -2.18c0.2 -0.08 0.45 -0.06 0.64 0.04c2.65 1.71 5.19 3.64 7.54 5.73c0.07 0.06 0.11 0.14 0.11 0.22c0 0.06 -0.02 0.11 -0.07 0.17c-0 0 -3.25 3.81 -3.25 3.81l0.9 0.97c1.28 1.39 2.42 2.79 3.38 4.15l0.34 0.49l8.15 1.59c0.16 0.03 0.29 0.11 0.36 0.22c1.7 2.75 3.04 5.58 3.97 8.4c0.01 0.13 -0.01 0.19 -0.06 0.25c-0.47 0.52 -1.84 1.35 -4.04 2.64l-3.17 1.91l-0 0.78l-0.05 1.2l0.69 0.46l7.92 5.4c0.1 0.07 0.16 0.16 0.16 0.26c-0.33 2.68 -1.08 5.22 -2.23 7.56c0 -0 -0.11 0.13 -0.11 0.13c-0 0 -7.64 5.96 -8.1 6.32c-0.06 0.03 -1.54 0.81 -1.54 0.81l0.94 1.29l0.49 0.79c0.02 0.04 0.03 0.07 0.03 0.11c0 0.05 -0.03 0.12 -0.09 0.19c-0.99 1.07 -7.8 7.81 -8.21 8.2c0 -0.01 -0.09 0.07 -0.09 0.07c-0.35 0.23 -3.73 2.38 -6.86 3.06c-0.23 0.05 -0.49 -0.01 -0.62 -0.17c-0 -0 -5.57 -6.54 -5.57 -6.54l-0.83 0.13c-1.39 0.22 -2.96 0.32 -3.78 0.36l-0.75 0.03l-1.06 1.59c-0 0 -4.64 6.78 -4.64 6.78c-0.09 0.13 -0.3 0.23 -0.51 0.22c-2.7 -0.04 -6.14 -0.82 -11.47 -2.63c-0.17 -0.05 -0.3 -0.18 -0.31 -0.31l-1.29 -10.5l-0.77 -0.34c-1.61 -0.72 -3.88 -1.98 -5.09 -2.66l-0.78 -0.44l-8.4 5.31c-0.14 0.08 -0.34 0.12 -0.52 0.08c-2.12 -0.46 -8.07 -5.77 -10.09 -8.18c-0.04 -0.05 -0.06 -0.11 -0.06 -0.17c1.83 -3.97 3.05 -6.65 3.65 -8.1c0.1 -0.16 0.4 -0.59 0.49 -0.73c0.03 -0.03 0.98 -0.89 0.98 -0.89l-0.77 -0.95l-2.32 -4.07l-0.81 -0.13l-7.87 -0.63c-0.28 -0.02 -0.48 -0.19 -0.5 -0.34l-1.19 -8.6c0 -0.06 1.63 -10.29 1.63 -10.29c0.02 -0.15 0.22 -0.32 0.5 -0.33l9.19 -0.49l-5.51 -3.39c-0.11 -0.07 -0.19 -0.17 -0.19 -0.27l0.03 -0.59c0.09 -1.8 0.39 -7.28 0.45 -7.76c0 -0.03 0.02 -0.08 0.05 -0.12c1.46 -2.02 3.27 -3.85 5.37 -5.44c0.18 -0.13 0.46 -0.16 0.69 -0.06c0 0 9.68 4.3 9.68 4.3l-0.02 -5.2c0 -3.09 0.06 -4.01 0.1 -4.27c0.01 -0.13 0.16 -0.29 0.41 -0.33c0 0 0.3 0.07 0.3 0.07l0.34 0.07l0.42 -0.06z"
  />
  <path style="fill:#000000; fill-opacity:0.1294"
        d="M171.52 26.93c-3.62 1.75 -5.81 4.58 -6.35 8.16l-0.01 0.09l-0.01 0.76c-0.14 4.71 0.97 9.69 16.12 18.67c7.93 4.7 16.51 4.35 22.32 3.22l0.02 -0c0.51 -0.11 5.1 -1.17 6.66 -4.31l0.02 -0.06l0.02 -0.06c3.05 -7.85 -2.82 -18.18 -13.97 -24.55c-7.54 -4.3 -18.21 -5.13 -24.82 -1.92z
           M172.84 29.63c5.7 -2.76 15.37 -1.96 22.02 1.83c8.12 4.63 13.26 11.68 13.26 17.59c0 1.1 -0.18 2.17 -0.56 3.18c-0.8 1.53 -3.61 2.46 -4.56 2.67c-5.29 1.02 -13.08 1.35 -20.19 -2.86c-13.66 -8.1 -14.67 -12.26 -14.67 -15.23c0 -0.26 0 -0.52 0.01 -0.76c0 0 0 -0.35 0.01 -0.55c0.39 -2.56 1.97 -4.54 4.68 -5.86z"
  />
  <path style="fill:#000000"
        d="M257.88 133.69c0 0 -3.95 -2.95 -6.79 -5.06c3.43 -2.2 4.98 -3.27 5.99 -4.5c0.81 -0.99 1.25 -2.24 1.25 -3.52v-0.18l-0.18 -1.26l-0.05 -0.17c-1.27 -4.21 -3.1 -8.43 -5.4 -12.52c-0.78 -1.39 -2.13 -2.38 -3.69 -2.71c0 0 -5.94 -1.26 -8.26 -1.76c-0.71 -1.05 -1.49 -2.12 -2.33 -3.19c0.75 -0.96 1.53 -1.96 1.53 -1.96c0.76 -0.97 1.18 -2.19 1.18 -3.43c0 -1.51 -0.59 -2.93 -1.68 -3.99c-3.12 -3.04 -6.5 -5.84 -10.02 -8.33c-1.62 -1.15 -3.76 -1.34 -5.58 -0.49c0 0 -2.62 1.22 -4.18 1.95c-0.46 -0.26 -0.94 -0.5 -1.42 -0.76c4.86 -4.81 7.53 -7.48 8.17 -8.18c0.82 -0.88 1.27 -2.02 1.27 -3.21c0 -0.24 -0.06 -0.47 -0.1 -0.71c1.93 -1.51 6.77 -5.28 6.77 -5.28l1.03 -1.27l0.12 -0.25c1.36 -2.78 2.25 -5.79 2.64 -8.93l0 -0.07l0.02 -0.41v-0.08c0 -1.56 -0.79 -3.04 -2.13 -3.95c0 0 -2.29 -1.56 -4.37 -2.97c1.94 -1.15 3.08 -1.9 3.85 -2.77c0.78 -0.88 1.21 -1.99 1.21 -3.14v-0.19l-0.17 -1.08l-0.06 -0.19c-1.04 -3.15 -2.53 -6.29 -4.41 -9.34c-0.71 -1.17 -1.94 -2.01 -3.35 -2.28c0 0 -4.46 -0.87 -6.41 -1.25c-0.4 -0.53 -0.81 -1.07 -1.27 -1.61c0.34 -0.4 0.75 -0.88 0.75 -0.88c0.73 -0.86 1.14 -1.95 1.14 -3.06c0 -1.36 -0.57 -2.62 -1.61 -3.55c-2.53 -2.25 -5.25 -4.31 -8.1 -6.15c-1.43 -0.93 -3.31 -1.08 -4.9 -0.4c0 0 -1.97 0.84 -3.15 1.34c-0.68 -0.35 -1.38 -0.69 -2.1 -1.03c0.02 -1.01 0.04 -2.05 0.04 -2.05c0 -2.06 -1.26 -3.83 -3.21 -4.56c-3.45 -1.29 -7.03 -2.31 -10.63 -3.02c-2.45 -0.48 -4.94 0.84 -5.79 3.1c0 0 -0.26 0.71 -0.54 1.45c-0.65 -0.02 -0.79 -0.02 -1.32 -0.04c-0.96 -1.1 -3.31 -3.82 -3.31 -3.82c-1.03 -1.19 -2.62 -1.84 -4.24 -1.74c-2.45 0.15 -5.66 0.43 -8.8 1.22c0.03 -0 -0.51 0.12 -0.51 0.12c0.02 -0 -0.56 0.12 -0.56 0.12c-2.05 0.37 -3.46 1.8 -3.73 3.91c-0.05 0.39 -0.1 1.15 -0.12 3.15c-1.64 -0.73 -3.29 -1.46 -3.29 -1.46c-1.72 -0.76 -3.8 -0.53 -5.28 0.58c-2.45 1.85 -4.58 4 -6.31 6.39c-0.47 0.65 -0.77 1.42 -0.87 2.22c-0.02 0.18 -0.07 0.66 -0.5 8.62c-0 0.03 -0 0.07 -0 0.11c-2 0.42 -3.62 1.93 -3.93 3.92c-0 0 -1.64 10.33 -1.64 10.33l-0.04 0.62l0.04 0.56l1.21 8.68c0.31 2.24 2.25 4 4.62 4.18c0 0 4.08 0.33 6.25 0.5c0.16 0.27 0.17 0.3 0.32 0.57c-0.03 0.08 -3.74 8.25 -3.74 8.25l-0.06 0.27l-0.26 1.19v0.27c0 1.09 0.39 2.17 1.1 3.02c0.67 0.8 5.01 5.37 8.99 7.97c-1.28 -0 -2.56 0.42 -3.59 1.26c-2.68 2.22 -4.98 4.79 -6.94 7.57c-0.83 -1.08 -2 -1.85 -3.35 -2.14c0 0 -9.57 -2.04 -11.22 -2.39c-1.19 -1.79 -2.52 -3.59 -3.96 -5.38c1.14 -1.46 2.65 -3.39 2.65 -3.39c0.79 -1.01 1.22 -2.28 1.22 -3.56c0 -1.58 -0.62 -3.05 -1.75 -4.15c-3.99 -3.88 -8.29 -7.45 -12.76 -10.61c-1.69 -1.2 -3.92 -1.39 -5.8 -0.51c0 0 -3.96 1.85 -5.99 2.8c-1.86 -1.1 -3.79 -2.14 -5.77 -3.11c0.02 -0.93 0.11 -5.4 0.11 -5.4c0 -2.36 -1.41 -4.46 -3.59 -5.36c-5.46 -2.25 -11.11 -4.01 -16.79 -5.23c-2.86 -0.61 -5.75 1 -6.7 3.78c0 0 -0.87 2.54 -1.49 4.35c-1.64 -0.11 -3.28 -0.23 -4.84 -0.22c-1.19 -1.51 -5.98 -7.56 -5.98 -7.56c-1.18 -1.5 -3.04 -2.32 -4.95 -2.18c-3.87 0.27 -8.93 0.75 -13.79 2.09c0.05 -0.01 -0.84 0.21 -0.84 0.21l-0.88 0.21c-2.42 0.48 -3.92 2.11 -4.23 4.61c-0.05 0.4 -0.2 1.65 -0.2 8.22c0 0 0 0.72 0 1.1c-3.57 -1.74 -8.57 -4.18 -8.57 -4.18c-2.04 -0.99 -4.49 -0.7 -6.24 0.73c-3.77 3.11 -7.02 6.72 -9.66 10.71c-0.5 0.76 -0.83 1.66 -0.93 2.58c-0.11 1.12 -0.68 12.73 -0.79 15.04c-0 0.03 -0 0.28 -0 0.28c0 0.74 0.18 1.45 0.44 2.12c-0.45 0.02 -1.42 0.08 -1.42 0.08c-2.73 0.16 -5 2.24 -5.4 4.95c0 0 -2.63 18.06 -2.63 18.06c0 0 -0.05 0.83 -0.05 0.83l0.04 0.74l1.93 15.17c0.34 2.69 2.56 4.82 5.28 5.05c0 0 7.96 0.7 11.25 0.99c0.68 1.4 1.35 2.68 1.93 3.73c-0.21 0.35 -0.54 0.87 -0.54 0.87l-0.08 0.22c-0.9 2.43 -2.88 7.2 -5.86 14.18c-0.31 0.72 -0.46 1.49 -0.46 2.28c0 1.26 0.42 2.52 1.19 3.52c2.63 3.44 13.36 14.89 19.01 16.24c1.6 0.37 3.29 0.05 4.64 -0.86c0 -0 7.81 -5.41 10.99 -7.61c1.89 1.15 4.06 2.42 6 3.44c0.25 2.25 1.76 15.74 1.76 15.74c0.24 2.19 1.68 4.02 3.75 4.79c9.15 3.39 15.16 4.87 20.08 4.95c2.02 0.03 3.94 -1.01 5.01 -2.73l7.48 -11.96c0 0 0.18 -0.3 0.39 -0.64c1.16 -0.08 2.49 -0.21 3.82 -0.39c1.42 1.82 7.19 9.25 7.19 9.25c1.39 1.79 3.73 2.61 5.93 2.07c5.81 -1.39 11.64 -5.4 12.75 -6.19c0.03 -0.02 0.89 -0.79 0.89 -0.79c0.1 -0.11 11.64 -12.58 13.39 -14.65c0.89 -1.05 1.38 -2.38 1.38 -3.75c0 -0.8 -0.21 -1.59 -0.54 -2.32c3.35 -2.86 11.91 -10.17 11.91 -10.17c0.65 -0.55 1.18 -1.26 1.52 -2.04c0.17 -0.38 0.3 -0.82 0.46 -1.21c0.03 0.06 0.04 0.08 0.08 0.15c0 0 -0.13 0.22 -0.13 0.22l-0.08 0.22c-0.75 1.99 -2.29 5.7 -4.57 11.03l-0.09 0.23l-0.35 1.7v0.25c0 1.22 0.4 2.42 1.14 3.39c1.77 2.31 10.43 11.8 15.33 12.97c1.54 0.36 3.16 0.06 4.46 -0.83c0 -0 5.37 -3.72 7.93 -5.49c1.13 0.68 2.4 1.41 3.59 2.06c0.23 2.11 1.3 11.62 1.3 11.62c0.24 2.11 1.62 3.87 3.6 4.61c7.2 2.67 11.96 3.84 15.91 3.9c1.94 0.02 3.79 -0.97 4.82 -2.63c0 0 5.82 -9.3 5.82 -9.31c0.57 -0.04 1.16 -0.11 1.82 -0.19c1.28 1.64 5.2 6.69 5.2 6.69c1.34 1.72 3.58 2.51 5.71 1.99c4.67 -1.12 9.36 -4.33 10.25 -4.96c-0 0 -0 0 -0 0c0 -0 0.68 -0.58 0.68 -0.58l0.11 -0.1l0.05 -0.07l0.08 -0.09c2.71 -2.93 9.14 -9.9 10.31 -11.28c0.85 -1 1.32 -2.28 1.32 -3.6c0 -0.5 -0.07 -0.99 -0.21 -1.47c2.11 -1.8 8.63 -7.37 8.63 -7.37c0.62 -0.53 1.13 -1.21 1.47 -1.97c1.64 -3.68 2.72 -7.66 3.2 -11.83l0 -0.07l0.02 -0.49v-0.07c0 -1.75 -0.83 -3.42 -2.24 -4.47z
           M122.18 115.59c-9.04 17.22 -34.53 21.64 -56.93 9.88c-22.39 -11.76 -33.21 -35.26 -24.17 -52.48c9.04 -17.22 34.53 -21.64 56.93 -9.88c22.39 11.76 33.22 35.26 24.17 52.48z
           M136.99 154.38l-0.25 0.15c0 -0 0.12 -0.07 0.25 -0.15l-0 0z
           M164.33 78.48c-1.22 -0.59 -1.47 -0.71 -2.52 -1.22c0.89 -0.04 1.77 -0.28 2.53 -0.75c-0 0.55 -0.01 1.23 -0.01 1.98z
           M162.98 21.92c5.6 -10.66 22.95 -12.58 38.75 -4.28c15.8 8.29 24.06 23.67 18.46 34.34c-5.6 10.66 -22.95 12.58 -38.75 4.28c-15.8 -8.29 -24.06 -23.67 -18.46 -34.34z
           M217.36 82.48l-0.26 0.15l0.01 -0.01c0.01 -0 0.12 -0.07 0.12 -0.07l0.11 -0.06z
           M235.13 133.19c-7.26 13.83 -28.07 17.21 -46.48 7.54c-18.4 -9.66 -27.43 -28.72 -20.16 -42.55c7.26 -13.83 28.07 -17.21 46.48 -7.54c18.4 9.66 27.43 28.72 20.16 42.55z"
  />
  <path style="fill:#000000"
        d="M172.47 26.85c-3.85 1.65 -6.18 4.43 -6.72 8.03l-0 0.04l-0.03 0.97c-0.18 3.72 -0.49 9.96 15.3 19.33c5.85 3.47 13.45 4.33 22.59 2.56l0.1 -0.02l0.09 -0.03c0.19 -0.07 4.74 -1.91 6.17 -4.78l0.01 -0.03l0.01 -0.03c2.94 -7.56 -2.84 -17.58 -13.74 -23.81c-7.19 -4.1 -17.2 -5.03 -23.79 -2.21z
           M173.33 28.55c5.91 -2.53 15.3 -1.62 21.83 2.1c8.29 4.73 13.53 11.99 13.53 18.12c0 1.19 -0.2 2.34 -0.61 3.43c-0.91 1.77 -3.83 3.28 -5 3.76c-8.54 1.64 -15.59 0.86 -20.95 -2.31c-13.15 -7.8 -14.41 -13.06 -14.41 -16.47c0 -0.43 0.02 -0.82 0.04 -1.2c0 0 0.02 -0.72 0.03 -0.87c0.56 -3.7 3.32 -5.61 5.55 -6.56z"
  />
  <path style="fill:none; stroke:#000000; stroke-width:1"
        d="M172.47 26.85c-3.85 1.65 -6.18 4.43 -6.72 8.03l-0 0.04l-0.03 0.97c-0.18 3.72 -0.49 9.96 15.3 19.33c5.85 3.47 13.45 4.33 22.59 2.56l0.1 -0.02l0.09 -0.03c0.19 -0.07 4.74 -1.91 6.17 -4.78l0.01 -0.03l0.01 -0.03c2.94 -7.56 -2.84 -17.58 -13.74 -23.81c-7.19 -4.1 -17.2 -5.03 -23.79 -2.21z
           M173.33 28.55c5.91 -2.53 15.3 -1.62 21.83 2.1c8.29 4.73 13.53 11.99 13.53 18.12c0 1.19 -0.2 2.34 -0.61 3.43c-0.91 1.77 -3.83 3.28 -5 3.76c-8.54 1.64 -15.59 0.86 -20.95 -2.31c-13.15 -7.8 -14.41 -13.06 -14.41 -16.47c0 -0.43 0.02 -0.82 0.04 -1.2c0 0 0.02 -0.72 0.03 -0.87c0.56 -3.7 3.32 -5.61 5.55 -6.56z"
  />
  <path style="fill:#9ba1aa"
        d="M158.89 21.66l-6.12 -4.16c-0 0 -3.12 -0.68 -3.12 -0.68c-0.06 0.53 -0.47 8.33 -0.47 8.33l7.63 4.7l2.09 -8.19v0z"
  />
  <path style="fill:#d7dadd"
        d="M183.11 62.75l-9.38 -4.74l-9.27 5.82l-8.73 -7.82c-0.12 0.1 0.13 -0.03 -3.82 8.41c2.18 2.61 7.99 7.61 9.76 8c8.75 -5.53 8.75 -5.53 8.75 -5.53c0 0 5.69 3.3 7.18 3.69c1.31 10.73 0 0 1.31 10.73c4.62 1.56 8.37 2.55 11.26 2.6c5.32 -7.81 5.3 -7.69 5.32 -7.81l-12.27 -2.61l-0.12 -10.73z"
  />
  <path style="fill:#c5cad3"
        d="M206.09 65.26l-8.88 0.55l-2.11 8.93c0 0 0.6 0.58 0.6 0.58c0 0 4.26 -0.08 6.29 -0.65c5.81 6.83 0 0 5.81 6.83c3.19 -0.7 6.66 -2.98 6.66 -2.98c0 0 7.18 -7.09 8.2 -8.19l-9.51 4.44l-7.07 -9.5v0z"
  />
  <path style="fill:#d7dadd"
        d="M224.13 45.36c0.84 -0.94 6.74 -3.93 7.64 -4.94l-7.94 -0.04l0.3 4.98z"
  />
  <path style="fill:#d7dadd"
        d="M214.01 62.75l8.8 4.37l8.18 -6.38l-9.82 -5.23"
  />
  <path style="fill:#9ba1aa"
        d="M165.52 6c-0.16 1.26 -0.06 8.92 -0.06 8.92c0 0 0 -0 0 0l4.02 -2.53l-3.96 -6.38v0z"
  />
  <path style="fill:#c5cad3"
        d="M158 40.01l-11.05 -0.96l-1.78 -9.36l-1.63 10.23l1.19 8.6c0 0 0 0 9.07 0.72c1.46 3.25 4.04 6.77 4.04 6.77l4.56 -6.93l-4.4 -9.06v0z"
  />
  <path style="fill:#d7dadd"
        d="M145.09 29.88l-0.9 10.17l0.54 8.45l1.51 -9.52"
  />
  <path style="fill:#c5cad3"
        d="M158 40.01l-4.2 9.23l4.26 6.77l4.97 -7.57l-5.03 -8.43"
  />
  <path style="fill:#ffffff"
        d="M224.42 47.29l-0.01 -0.12c0.04 -0.56 0.07 -1.12 0.07 -1.7c0 -1.54 -0.18 -3.12 -0.52 -4.74l7.8 -0.3c-0.93 -2.82 -2.27 -5.62 -3.94 -8.34c-1.91 -0.37 -7.2 -1.4 -8.36 -1.63c-1.38 -2.07 -3.03 -4.07 -4.9 -5.95l3.4 -3.98c-2.29 -2.04 -4.79 -3.95 -7.48 -5.68l-5.42 2.31c-2.29 -1.35 -4.65 -2.5 -7.04 -3.44l0.11 -5.08c-3.26 -1.22 -6.54 -2.15 -9.8 -2.79l-1.83 4.87c-2.46 -0.31 -4.88 -0.4 -7.21 -0.28l-4.82 -5.56c-3.05 0.19 -5.99 0.68 -8.76 1.45l3.78 6.1c-2.06 0.79 -3.95 1.8 -5.63 3.05c-1.43 -0.63 -6.96 -3.09 -8.92 -3.97c-2.02 1.52 -3.8 3.31 -5.28 5.35l8.55 5.13c-1.17 2.23 -1.83 4.64 -2.03 7.14l-10.98 0.58c-0.15 3.03 0.22 6.16 1.08 9.31l11.75 1.02c1.17 2.88 2.87 5.72 5.03 8.43l-7.19 7.52c2.48 2.78 5.35 5.43 8.6 7.85l9.27 -5.82l0.03 0.01c0.53 0.34 1.07 0.68 1.63 1.01c2.47 1.46 5.06 2.7 7.71 3.72l0.12 10.73c4.07 1.31 8.2 2.19 12.27 2.61c0.42 -2.61 1.62 -9.82 1.69 -10.29c3.06 0.16 6.05 -0 8.88 -0.55l7.07 9.5c1.29 -0.37 2.54 -0.8 3.74 -1.3c0.74 -0.34 1.53 -0.7 2.29 -1.06c1.22 -0.62 2.39 -1.31 3.48 -2.08c-1.03 -1.69 -4.83 -7.7 -5.98 -9.52c1.7 -1.26 3.16 -2.74 4.36 -4.43c0.04 -0.06 0.08 -0.12 0.12 -0.18l9.81 4.56c1.14 -2.34 1.87 -4.84 2.2 -7.46l-8.77 -5.97l-0 0z
           M212.59 49.27c-5.76 8.11 -20.26 8.87 -32.38 1.69c-12.11 -7.18 -17.26 -19.59 -11.49 -27.71c5.76 -8.11 20.26 -8.87 32.38 -1.68c12.11 7.18 17.25 19.59 11.49 27.71z"
  />
  <path style="fill:#9ba1aa"
        d="M164.45 63.83l-2.78 8.59l8.75 -5.54l3.3 -8.88l-9.27 5.82"
  />
  <path style="fill:#ffffff; fill-opacity:0.4"
        d="M177.61 70.58l5.5 -7.82l0.12 10.74l-4.3 7.82l-1.32 -10.74"
  />
  <path style="fill:#ffffff; fill-opacity:0.4"
        d="M206.04 65.42l-4.04 9.25l5.81 6.82l5.35 -6.74l-7.12 -9.34"
  />
  <path style="fill:#787e87; fill-opacity:0.498"
        d="M146.25 38.99l-1.51 9.52l9.07 0.73l4.2 -9.23"
  />
  <path style="fill:#000000"
        d="M234.42 51.77c0 0 -6.54 -4.45 -7.92 -5.39c0.01 -0.18 0.01 -0.21 0.01 -0.36c0.67 -0.43 1.59 -0.97 2.44 -1.46c2.59 -1.52 3.8 -2.26 4.4 -2.93c0.3 -0.33 0.46 -0.75 0.46 -1.18c0 -0.18 -0.02 -0.36 -0.08 -0.54c-0.97 -2.93 -2.36 -5.86 -4.12 -8.72c-0.28 -0.46 -0.77 -0.79 -1.35 -0.9c0 0 -6.95 -1.35 -7.56 -1.47c-1.04 -1.48 -2.21 -2.92 -3.5 -4.31c1 -1.17 2.39 -2.8 2.39 -2.8c0.29 -0.34 0.43 -0.74 0.43 -1.14c0 -0.49 -0.21 -0.97 -0.62 -1.34c-2.41 -2.14 -5.01 -4.11 -7.72 -5.87c-0.6 -0.38 -1.38 -0.45 -2.04 -0.16c0 0 -3.13 1.33 -4.44 1.89c-1.63 -0.91 -3.33 -1.75 -5.07 -2.49c0.03 -1.39 0.08 -3.91 0.08 -3.92c0 -0.75 -0.49 -1.44 -1.26 -1.73c-3.3 -1.24 -6.72 -2.21 -10.15 -2.89c-1.01 -0.19 -2.02 0.32 -2.36 1.22c0 0 -0.77 2.04 -1.3 3.47c-1.63 -0.14 -3.24 -0.2 -4.83 -0.16c-0.95 -1.1 -4.18 -4.83 -4.18 -4.83c-0.42 -0.48 -1.07 -0.74 -1.75 -0.7c-2.84 0.18 -5.62 0.48 -8.24 1.14c-0.59 0.13 -0.84 0.2 -1.18 0.27c-0.86 0.15 -1.28 0.59 -1.39 1.39c-0.08 0.63 -0.11 2.42 -0.11 4.48c0 0.94 0 1.92 0.01 2.89c-1.94 -0.86 -7.55 -3.36 -7.55 -3.36c-0.72 -0.32 -1.59 -0.23 -2.21 0.23c-2.22 1.67 -4.13 3.61 -5.68 5.75c-0.18 0.25 -0.29 0.53 -0.32 0.83c-0.06 0.55 -0.38 6.6 -0.48 8.44c-0 0.03 -0 0.06 -0 0.09c0 0.61 0.33 1.2 0.9 1.55c0 0 0.93 0.57 1.42 0.87c-2.14 0.11 -4.39 0.23 -4.39 0.23c-0.97 0.05 -1.76 0.71 -1.9 1.59l-1.63 10.23c-0.01 0.09 -0.02 0.18 -0.02 0.27c0 0.07 0 0.15 0.01 0.23l1.19 8.6c0.12 0.87 0.9 1.55 1.86 1.62c0 0 7.64 0.61 7.86 0.63c0.62 1.24 1.34 2.47 2 3.52c-0.03 0.04 -0.08 0.05 -0.11 0.1l-0.64 0.95c-0.57 1.4 -1.8 4.13 -3.66 8.09c-0.11 0.23 -0.16 0.48 -0.16 0.73c0 0.4 0.14 0.8 0.42 1.13c1.91 2.28 8.18 8.08 10.91 8.68c0.56 0.12 1.16 0.01 1.64 -0.28c0 0 5.95 -3.76 7.64 -4.83c1.46 0.83 3.64 2.02 5.22 2.73c0.17 1.37 1.18 9.66 1.18 9.66c0.08 0.7 0.6 1.3 1.32 1.54c5.49 1.86 9.06 2.67 11.93 2.71c0.71 0.01 1.39 -0.32 1.77 -0.88l4.64 -6.78c0.33 -0.48 0.52 -0.76 0.66 -0.98c1.11 -0.05 2.61 -0.16 3.94 -0.38c0.83 0.98 5.02 5.89 5.02 5.89c0.49 0.58 1.31 0.84 2.09 0.67c3.54 -0.77 7.22 -3.19 7.38 -3.29c0.11 -0.07 0.21 -0.15 0.3 -0.24c0.29 -0.29 7.22 -7.13 8.26 -8.25c0.32 -0.34 0.48 -0.77 0.48 -1.2c0 -0.31 -0.08 -0.62 -0.26 -0.91c0 0 -0.35 -0.56 -0.48 -0.77c0.05 -0.03 0.11 -0.04 0.15 -0.08l8.18 -6.38c0.23 -0.18 0.41 -0.4 0.54 -0.66c1.21 -2.49 2.01 -5.18 2.36 -8.01c0 -0.07 0.01 -0.14 0.01 -0.21c0 -0.58 -0.3 -1.14 -0.82 -1.5v0z
           M231 60.74l-8.18 6.38l-3.08 -1.53c1.22 1.94 2.44 3.87 2.96 4.72c-1.02 1.1 -8.2 8.19 -8.2 8.19c0 0 -3.47 2.28 -6.66 2.98c-5.81 -6.83 0 0 -5.81 -6.83c-2.02 0.56 -6.29 0.65 -6.29 0.65c0 0 -0.02 -0.02 -0.05 -0.05c-0.05 0.31 -0.09 0.59 -0.13 0.83c-0.01 0.11 0 0 -5.32 7.81c-2.88 -0.04 -6.63 -1.03 -11.26 -2.6c-1.32 -10.73 0 0 -1.32 -10.73c-1.48 -0.38 -7.18 -3.69 -7.18 -3.69c0 0 0 0 -8.75 5.53c-1.76 -0.38 -7.57 -5.38 -9.76 -8c3.99 -8.5 3.81 -8.33 3.94 -8.44c0 0 0.03 0.01 0.01 -0.01l1.13 -1.18c-0.88 -1.31 -2.26 -3.47 -3.18 -5.53l-1.71 -0.13c-0.54 -0.04 -1.04 -0.08 -1.5 -0.12l-0.84 -0.06c-0.33 -0.02 -0.64 -0.05 -0.93 -0.07l-0.93 -0.07c-0.55 -0.04 -1.01 -0.08 -1.38 -0.11l-0.61 -0.04c-0.08 -0 -0.16 -0.01 -0.23 -0.01l-0.33 -0.02c-0.05 -0 -0.1 -0 -0.14 -0.01l-0.18 -0.01c-0.06 -0 -0.1 -0 -0.14 -0.01l-0.07 -0c-0 -0 -0.01 -0 -0.01 -0l-1.19 -8.6l1.63 -10.23l10.45 -0.55l-6.45 -3.97c0 0 0.41 -7.79 0.48 -8.33c1.47 -2.04 3.25 -3.82 5.28 -5.35c1.95 0.87 7.48 3.33 8.92 3.97c0.51 -0.37 1.05 -0.72 1.6 -1.06c-0.02 -1.77 -0.07 -7.31 0.06 -8.36c0 0 0.06 0.1 0.17 0.28c2.76 -0.76 5.7 -1.25 8.76 -1.45l4.82 5.56c2.33 -0.11 4.75 -0.02 7.21 0.28l1.83 -4.87c3.25 0.64 6.54 1.56 9.8 2.79l-0.11 5.08c2.38 0.94 4.74 2.09 7.04 3.44l5.42 -2.31c2.68 1.73 5.18 3.64 7.48 5.68l-3.4 3.98c1.86 1.88 3.51 3.88 4.9 5.95c1.15 0.22 6.44 1.25 8.36 1.62c1.67 2.71 3 5.51 3.94 8.34c-0.81 0.91 -5.77 3.48 -7.29 4.64c0 0.13 0.01 0.27 0.01 0.4c0 0.57 -0.03 1.14 -0.07 1.7l0.01 0.12l8.77 5.97c-0.33 2.62 -1.06 5.12 -2.2 7.46v0h0z"
  />
  <path style="fill:#000000"
        d="M174.27 2.48c-2.35 0.15 -5.42 0.41 -8.35 1.15l-0.55 0.13l-0.59 0.13c-1.08 0.19 -1.67 0.78 -1.8 1.8c-0.08 0.57 -0.11 2.1 -0.11 4.54c0 0 0 1.3 0 2.13c-1.22 -0.54 -6.8 -3.03 -6.8 -3.03c-0.9 -0.4 -1.99 -0.28 -2.77 0.29c-2.26 1.7 -4.2 3.68 -5.79 5.86c-0.22 0.31 -0.36 0.67 -0.41 1.04c-0.05 0.48 -0.29 4.87 -0.49 8.46l-0 0.11c0 0.78 0.42 1.5 1.13 1.94c0 0 0.08 0.05 0.14 0.08c-1.29 0.06 -2.85 0.15 -2.85 0.15c-1.21 0.06 -2.21 0.9 -2.39 2c0 0 -1.63 10.23 -1.63 10.23c0 0 -0.02 0.33 -0.02 0.33l0.02 0.29l1.19 8.6c0.14 1.09 1.13 1.95 2.34 2.04c0 0 7.05 0.56 7.57 0.61c0.22 0.39 1.45 2.55 1.72 3.01c-0.13 0.19 -0.58 0.86 -0.58 0.86c-0.62 1.49 -1.85 4.21 -3.69 8.15c0 0 -0.2 0.92 -0.2 0.92c0 0.51 0.18 1.01 0.52 1.42c1.69 2.01 8.16 8.19 11.21 8.85c0.7 0.15 1.45 0.02 2.05 -0.35c0 0 6.06 -3.83 7.36 -4.66c1.22 0.69 3.17 1.75 4.72 2.46c0.05 0.47 1.15 9.41 1.15 9.41c0.11 0.88 0.74 1.63 1.66 1.93c5.55 1.88 9.17 2.7 12.11 2.74c0.89 0.01 1.74 -0.4 2.22 -1.1l4.64 -6.78c0 0 0.34 -0.51 0.52 -0.77c0.95 -0.05 2.2 -0.15 3.4 -0.33c0.33 0.4 4.83 5.68 4.83 5.68c0.61 0.72 1.64 1.05 2.62 0.84c3.41 -0.75 6.89 -2.93 7.55 -3.36c0.01 -0.01 0.39 -0.31 0.39 -0.31c0 -0 0.17 -0.17 0.17 -0.17c2.66 -2.63 7.26 -7.19 8.1 -8.1c0.39 -0.42 0.61 -0.96 0.61 -1.51c0 -0.4 -0.11 -0.79 -0.33 -1.14c0 -0 -0.13 -0.2 -0.25 -0.4c0.96 -0.75 7.99 -6.24 7.99 -6.24l0.67 -0.83c1.23 -2.53 2.05 -5.27 2.41 -8.15c0 -0.01 0.01 -0.26 0.01 -0.26c0 -0.73 -0.38 -1.44 -1.03 -1.88c0 0 -7.02 -4.78 -7.61 -5.18c0.47 -0.28 2.11 -1.26 2.11 -1.26c2.7 -1.58 3.87 -2.3 4.52 -3.03c0.37 -0.41 0.57 -0.94 0.57 -1.48l-0.11 -0.68c-0.98 -2.97 -2.39 -5.93 -4.17 -8.81c-0.35 -0.58 -0.98 -1 -1.7 -1.14c0 0 -6.97 -1.35 -7.35 -1.43c-0.91 -1.28 -1.97 -2.59 -3.15 -3.88c0.4 -0.47 2.14 -2.5 2.14 -2.5c0.35 -0.41 0.54 -0.92 0.54 -1.44c0 -0.64 -0.27 -1.23 -0.77 -1.68c-2.42 -2.15 -5.05 -4.14 -7.79 -5.91c-0.75 -0.48 -1.73 -0.56 -2.56 -0.2c0 0 -3.3 1.41 -4.21 1.79c-1.46 -0.81 -2.99 -1.56 -4.56 -2.24c0.01 -0.47 0.08 -3.64 0.08 -3.64c0 -0.95 -0.62 -1.8 -1.59 -2.17c-3.33 -1.25 -6.77 -2.23 -10.24 -2.91c-1.27 -0.25 -2.54 0.4 -2.97 1.53c0 0 -0.85 2.28 -1.17 3.13c-1.45 -0.11 -2.87 -0.17 -4.21 -0.15c-0.29 -0.34 -4.02 -4.64 -4.02 -4.64c-0.53 -0.6 -1.35 -0.93 -2.19 -0.88z
           M153.88 54.39v0z
           M163.91 13.14l-0.01 -2.89c0 -2.98 0.05 -4.05 0.11 -4.42c0.07 -0.6 0.34 -0.87 0.97 -0.98l0.65 -0.14l0.55 -0.13c2.85 -0.71 5.85 -0.97 8.15 -1.12c0.5 -0.03 0.99 0.16 1.3 0.52l4.34 5.01l0.26 -0c1.5 -0.03 3.1 0.02 4.76 0.16l0.41 0.03l1.44 -3.82c0.25 -0.66 1.01 -1.05 1.76 -0.9c3.4 0.67 6.79 1.63 10.06 2.86c0.57 0.21 0.94 0.72 0.94 1.28l-0.09 4.22l0.3 0.13c1.73 0.74 3.42 1.57 5.02 2.47l0.24 0.13l4.7 -2c0.49 -0.21 1.08 -0.16 1.52 0.12c2.69 1.74 5.27 3.7 7.66 5.82c0.29 0.26 0.46 0.62 0.46 1c0 0.3 -0.11 0.61 -0.32 0.85l-2.65 3.1l0.27 0.29c1.31 1.42 2.47 2.85 3.46 4.26l0.11 0.16l7.77 1.51c0.42 0.08 0.79 0.32 1 0.67c1.74 2.81 3.11 5.72 4.08 8.62l0.06 0.4c0 0.31 -0.12 0.63 -0.34 0.88c-0.55 0.61 -1.72 1.33 -4.27 2.83l-2.68 1.61v0.24l-0.02 0.55l0.21 0.21l7.92 5.39c0.38 0.26 0.61 0.68 0.61 1.11l-0.01 0.17c-0.34 2.76 -1.13 5.41 -2.32 7.86c0 0 -0.4 0.49 -0.4 0.49l-8.18 6.39c0.02 -0.01 -0.11 0.05 -0.11 0.05l-0.44 0.23l0.29 0.38l0.48 0.77c0.12 0.2 0.19 0.43 0.19 0.67c0 0.32 -0.13 0.64 -0.36 0.9c-0.61 0.66 -3.48 3.53 -8.07 8.07l-0.17 0.17l-0.22 0.18c-0.39 0.25 -3.9 2.48 -7.19 3.21c-0.58 0.12 -1.18 -0.06 -1.56 -0.5l-5.21 -6.12l-0.31 0.04c-1.34 0.21 -2.85 0.32 -3.88 0.37l-0.27 0.01l-0.8 1.19c0 0 -4.64 6.78 -4.64 6.78c-0.28 0.41 -0.78 0.66 -1.32 0.65c-2.8 -0.04 -6.32 -0.84 -11.76 -2.68c-0.54 -0.18 -0.92 -0.62 -0.98 -1.15l-1.22 -9.92l-0.25 -0.11c-1.64 -0.73 -3.95 -2.01 -5.18 -2.7l-0.28 -0.16l-7.93 5.01c-0.35 0.22 -0.8 0.3 -1.22 0.21c-2.42 -0.53 -8.5 -5.98 -10.62 -8.51c-0.2 -0.24 -0.31 -0.54 -0.31 -0.84l0.12 -0.54c1.85 -3.95 3.08 -6.68 3.67 -8.11c0 0 0.6 -0.87 0.6 -0.87l0.27 -0.24l-0.15 -0.34l-2.11 -3.71l-0.29 -0.04l-7.86 -0.63c-0.71 -0.05 -1.3 -0.56 -1.39 -1.21l-1.19 -8.6c0 -0 -0.01 -0.17 -0.01 -0.17l0.01 -0.19c0 -0 1.63 -10.23 1.63 -10.23c0.1 -0.65 0.7 -1.15 1.42 -1.19l5.93 -0.31l-2.7 -1.66c-0.42 -0.25 -0.67 -0.69 -0.67 -1.15c0.27 -5.06 0.44 -8.12 0.48 -8.48c0.02 -0.22 0.1 -0.43 0.24 -0.61c1.52 -2.1 3.4 -4 5.58 -5.65c0.46 -0.34 1.1 -0.41 1.64 -0.17l8.31 3.7v-0.76z
           M165.92 3.64v0z"
  />
  <path style="fill:#000000"
        d="M174.42 4.35c-2.94 0.18 -5.78 0.66 -8.46 1.38c-0.03 -0.05 -0.75 -1.21 -0.75 -1.21l-0.19 1.42c-0.07 0.58 -0.1 2.41 -0.1 4.3c0 1.44 0.01 2.88 0.02 3.87c-0.27 0.18 -0.81 0.54 -1.13 0.75c-0.52 -0.23 -8.94 -3.97 -8.94 -3.97l-0.25 0.19c-2.1 1.58 -3.91 3.42 -5.38 5.45l-0.07 0.09l-0.01 0.11c-0.06 0.54 -0.46 8.04 -0.48 8.36l-0.01 0.26c0 0 3.77 2.31 5.41 3.33c-2.24 0.11 -9.33 0.5 -9.33 0.5l-1.7 10.68l1.26 9.04c0 0 8.69 0.7 9.19 0.74c0.89 1.93 2.11 3.86 2.89 5.03c-0.3 0.31 -0.88 0.92 -0.88 0.92c0.02 -0.02 -0.46 0.86 -0.46 0.86l-3.69 7.97l0.18 0.22c2.19 2.62 8.11 7.75 10.06 8.17l0.22 0.04c0 0 8.13 -5.14 8.66 -5.47c1.13 0.65 5.04 2.87 6.68 3.45c0.06 0.5 1.32 10.74 1.32 10.74l0.3 0.1c5.25 1.77 8.78 2.59 11.43 2.63l0.29 0l4.8 -7.01c0.72 -1.04 0.72 -1.04 0.74 -1.2c0 0 0.05 -0.31 0.06 -0.38c1.01 -0.03 3.9 -0.16 5.7 -0.57c0.35 0.41 5.81 6.82 5.81 6.82l0.32 -0.07c3.25 -0.71 6.7 -2.97 6.84 -3.06c0.37 -0.35 7.27 -7.17 8.29 -8.27l0.23 -0.25c0 0 -1.35 -2.16 -2.23 -3.56c0.73 0.36 1.79 0.88 1.79 0.88l8.55 -6.67l0.04 -0.09c1.15 -2.36 1.9 -4.92 2.24 -7.6l0.03 -0.27c0 0 -8.43 -5.74 -8.81 -6c0.01 -0.22 0.07 -1.58 0.07 -1.58c0 0 -0 -0.09 -0 -0.17c0.69 -0.49 1.91 -1.21 3.12 -1.92c2.13 -1.25 3.56 -2.11 4.04 -2.64l0.17 -0.19l-0.07 -0.24c-0.94 -2.83 -2.28 -5.67 -3.99 -8.44l-0.11 -0.18c0 0 -8.02 -1.56 -8.38 -1.63c-1.3 -1.92 -2.83 -3.77 -4.54 -5.53c0.44 -0.51 3.43 -4.02 3.43 -4.02l-0.33 -0.29c-2.36 -2.1 -4.9 -4.02 -7.54 -5.73l-0.24 -0.15c0 0 -4.99 2.13 -5.44 2.32c-2.08 -1.21 -4.28 -2.29 -6.54 -3.2c0.01 -0.53 0.11 -5.1 0.11 -5.1l-0.33 -0.12c-3.22 -1.21 -6.55 -2.15 -9.89 -2.81l-0.45 -0.08c0 0 -1.63 4.33 -1.85 4.93c-2.24 -0.26 -4.46 -0.36 -6.6 -0.27c-0.3 -0.35 -4.83 -5.57 -4.83 -5.57l-0.27 0.01z
           M174.22 5.33c0.33 0.38 4.81 5.55 4.81 5.55l0.27 -0.01c2.29 -0.11 4.68 -0.02 7.11 0.28l0.42 0.05c0 0 1.55 -4.13 1.81 -4.82c3.01 0.61 6.02 1.47 8.94 2.55c-0.01 0.59 -0.11 5.06 -0.11 5.06l0.32 0.12c2.4 0.95 4.75 2.1 6.96 3.41l0.24 0.14c0 0 4.88 -2.08 5.39 -2.3c2.38 1.55 4.68 3.3 6.83 5.18c-0.49 0.58 -3.37 3.95 -3.37 3.95l0.29 0.29c1.84 1.85 3.47 3.83 4.84 5.88l0.11 0.17c0 0 7.88 1.53 8.33 1.62c1.56 2.55 2.8 5.17 3.69 7.79c-0.59 0.5 -2.15 1.43 -3.59 2.27c-1.4 0.82 -2.72 1.6 -3.42 2.13l-0.19 0.14l0.01 0.62l-0.07 1.66c0 0.07 0.01 0.2 0.01 0.2l0.01 0.21c0 0 8.21 5.59 8.7 5.92c-0.33 2.45 -1.02 4.8 -2.07 6.97c-0.19 0.15 -7.3 5.7 -7.81 6.09c-0.5 -0.25 -4.38 -2.18 -4.38 -2.18c0 0 3.36 5.37 3.69 5.89c-1.47 1.53 -7.88 7.86 -7.94 7.93c0.04 -0.03 -3.12 2.01 -6.09 2.76c-0.37 -0.43 -5.81 -6.83 -5.81 -6.83l-0.34 0.09c-1.92 0.53 -6.1 0.62 -6.14 0.62l-0.43 0l-0.12 0.34c0 0 -0.13 0.82 -0.13 0.82c-0 -0.03 -0.59 0.84 -0.59 0.84c0 0 -4.16 6.08 -4.48 6.54c-2.44 -0.08 -5.71 -0.84 -10.5 -2.45c-0.06 -0.53 -1.32 -10.76 -1.32 -10.76l-0.33 -0.08c-1.16 -0.3 -5.47 -2.72 -7.04 -3.63l-0.29 -0.16c0 0 -8.35 5.28 -8.8 5.56c-1.68 -0.56 -6.87 -4.96 -9.1 -7.54c0.22 -0.5 3.74 -8.07 3.74 -8.07c0 0.01 1.13 -1.17 1.13 -1.17l0.25 -0.26l-0.2 -0.29c-0.77 -1.13 -2.2 -3.36 -3.14 -5.46l-0.11 -0.26l-8.5 -0.68c0 0 -0.46 -0.03 -0.46 -0.03c-0.09 -0.69 -1.12 -8.03 -1.13 -8.15c0.02 -0.12 1.44 -9.07 1.56 -9.78c0.78 -0.04 11.56 -0.61 11.56 -0.61c0 0 -7.04 -4.33 -7.49 -4.6c0.11 -2.22 0.38 -7.13 0.45 -7.91c1.34 -1.83 2.98 -3.49 4.87 -4.95c0.6 0.26 8.87 3.95 8.87 3.95l2.05 -1.37l0.01 -0.25c-0.01 -0.8 -0.02 -2.49 -0.02 -4.15c0 -1.35 0.01 -2.68 0.04 -3.5c2.6 -0.7 5.36 -1.16 8.23 -1.36z"
  />
  <linearGradient id="gradient0" gradientUnits="userSpaceOnUse" x1="227.21" y1="61.44" x2="150.4" y2="17.62">
   <stop offset="0" stop-color="#c5cad3"/>
   <stop offset="0.2527" stop-color="#787e87"/>
   <stop offset="0.4291" stop-color="#9398a1"/>
   <stop offset="0.6534" stop-color="#aeb4bd"/>
   <stop offset="0.8511" stop-color="#bfc4cd"/>
   <stop offset="1" stop-color="#c5cad3"/>
  </linearGradient>
  <path style="fill:url(#gradient0)"
        d="M223.69 46.73c0.19 -1.37 0.23 -4.72 -0.11 -6.34l8.18 0.03c-0.93 -2.82 -2.27 -5.62 -3.94 -8.34c-1.91 -0.37 -7.21 -1.4 -8.36 -1.63c-1.38 -2.07 -3.03 -4.07 -4.9 -5.95l3.4 -3.98c-2.29 -2.03 -4.79 -3.95 -7.48 -5.68l-5.42 2.31c-2.29 -1.35 -4.65 -2.49 -7.04 -3.44l0.11 -5.08c-3.25 -1.22 -6.54 -2.14 -9.8 -2.79l-1.83 4.87c-2.46 -0.31 -4.87 -0.4 -7.21 -0.28l-4.82 -5.56c-3.06 0.19 -6.11 0.5 -8.87 1.26l3.89 6.28c-2.06 0.79 -3.95 1.8 -5.63 3.05c-1.43 -0.63 -6.96 -3.09 -8.91 -3.97c-2.02 1.53 -3.8 3.31 -5.28 5.35l8.85 4.86c-1.17 2.23 -1.5 4.88 -1.7 7.38l-11.62 0.62c-0.15 3.03 0.63 5.79 1.5 8.94l11.83 0.62c1.17 2.88 3.52 6.44 5.69 9.14l-6.82 7.48c1.98 2.22 3.1 3.89 6.94 6.75c0 0 -0.11 0 9.33 -5.92c1.93 1.76 7.7 4.29 10.35 5.3l0.34 10.91c4.07 1.31 6.17 1.65 10.24 2.07c0.43 -2.61 1.51 -9.71 1.59 -10.18c3.06 0.16 7.64 -0.07 10.46 -0.62l6.94 9.35c2.05 -0.52 6.76 -2.77 7.85 -3.53c-1.03 -1.69 -4.53 -7.74 -5.69 -9.56c1.7 -1.26 3.92 -3.4 5.12 -5.09c0.04 -0.05 9.89 4.78 9.89 4.78c1.14 -2.34 2.11 -4.24 2.44 -6.86l-9.5 -6.54v0z
           M212.59 49.27c-5.76 8.11 -20.26 8.87 -32.38 1.69c-12.11 -7.18 -17.26 -19.59 -11.49 -27.71c5.76 -8.11 20.26 -8.87 32.38 -1.68c12.11 7.18 17.25 19.59 11.49 27.71z"
  />
  <path style="fill:#ffffff"
        d="M164.04 63.51l-2.47 8.81l3.49 -8.88"
  />
  <path style="fill:#ffffff"
        d="M146.12 38.49l-1.36 9.9l1.87 -9.35"
  />
  <path style="fill:#ffffff"
        d="M200.54 21.2c-12.07 -6.82 -26.38 -6.06 -32.08 2.43c-0.76 1.13 -1.3 2.46 -1.65 3.72c0.34 -0.99 0.93 -1.91 1.54 -2.83c5.45 -8.14 19.69 -9.27 31.81 -2.5c12.1 6.76 17.5 18.86 12.04 27.01c-0.93 1.39 -2.12 2.57 -3.51 3.55c1.68 -1.01 3.1 -2.32 4.17 -3.91c5.45 -8.15 0.7 -20.12 -12.31 -27.47z"
  />
  <path style="fill:#000000"
        d="M178.79 102.04c-4.81 2.25 -7.72 6.05 -8.39 10.98l-0 0.06l-0.04 1.32c-0.23 5.09 -0.61 13.61 19.1 26.42c7.31 4.74 16.8 5.92 28.21 3.5l0.12 -0.02l0.11 -0.05c0.24 -0.1 5.92 -2.61 7.71 -6.54l0.02 -0.04l0.01 -0.05c3.67 -10.34 -3.54 -24.03 -17.16 -32.54c-8.98 -5.61 -21.47 -6.88 -29.7 -3.02z
           M179.88 104.35c7.38 -3.45 19.1 -2.22 27.26 2.88c10.35 6.47 16.89 16.39 16.89 24.77c0 1.63 -0.25 3.21 -0.77 4.69c-1.13 2.42 -4.78 4.48 -6.25 5.15c-10.66 2.24 -19.47 1.18 -26.16 -3.16c-16.42 -10.66 -17.99 -17.85 -17.99 -22.52c0 -0.58 0.02 -1.13 0.04 -1.64c0 0 0.03 -0.98 0.03 -1.19c0.7 -5.05 4.15 -7.67 6.93 -8.97z"
  />
  <path style="fill:#000000; fill-opacity:0.1294"
        d="M260.42 140.36c0 0 -8.16 -6.09 -9.89 -7.38c0.01 -0.25 0.01 -0.29 0.02 -0.5c0.84 -0.58 1.98 -1.32 3.04 -2c3.24 -2.08 4.74 -3.09 5.49 -4.01c0.37 -0.46 0.57 -1.03 0.57 -1.61c0 -0.24 -0.03 -0.49 -0.1 -0.74c-1.21 -4 -2.94 -8.02 -5.15 -11.92c-0.36 -0.63 -0.97 -1.09 -1.69 -1.24c0 0 -8.68 -1.85 -9.43 -2.01c-1.29 -2.02 -2.77 -3.99 -4.37 -5.89c1.24 -1.59 2.99 -3.83 2.99 -3.83c0.36 -0.46 0.53 -1.02 0.53 -1.57c0 -0.67 -0.26 -1.33 -0.77 -1.83c-3.01 -2.93 -6.26 -5.62 -9.65 -8.02c-0.75 -0.53 -1.72 -0.61 -2.55 -0.22c0 0 -3.91 1.82 -5.55 2.59c-2.04 -1.25 -4.16 -2.39 -6.33 -3.41c0.03 -1.91 0.1 -5.34 0.1 -5.36c0 -1.03 -0.62 -1.96 -1.58 -2.36c-4.12 -1.69 -8.39 -3.02 -12.68 -3.95c-1.26 -0.27 -2.53 0.44 -2.95 1.66c0 0 -0.96 2.79 -1.63 4.74c-2.04 -0.19 -4.05 -0.28 -6.03 -0.22c-1.19 -1.51 -5.22 -6.6 -5.22 -6.6c-0.52 -0.66 -1.34 -1.02 -2.18 -0.96c-3.55 0.25 -6.98 0.88 -10.25 1.78c-0.39 -0.12 -0.79 -0.22 -1.22 -0.14c-1.08 0.21 -1.9 1.09 -2.03 2.19c-0.1 0.86 -0.14 3.31 -0.14 6.13c0 1.28 0 2.63 0.01 3.95c-2.42 -1.18 -9.43 -4.6 -9.43 -4.6c-0.9 -0.44 -1.98 -0.31 -2.75 0.32c-2.77 2.29 -5.16 4.94 -7.1 7.87c-0.22 0.34 -0.36 0.73 -0.4 1.13c-0.07 0.74 -0.48 9.02 -0.61 11.53c-0 0.04 -0 0.08 -0 0.12c0 0.84 0.42 1.64 1.12 2.12c0 0 1.16 0.78 1.77 1.19c-2.67 0.15 -5.48 0.32 -5.48 0.32c-1.21 0.06 -2.2 0.98 -2.38 2.18l-2.03 13.98c-0.01 0.12 -0.02 0.24 -0.02 0.37c0 0.1 0 0.21 0.02 0.32l1.49 11.75c0.14 1.19 1.13 2.12 2.33 2.22c0 0 9.54 0.83 9.81 0.86c0.78 1.7 1.68 3.38 2.5 4.81c-0.04 0.05 -0.09 0.07 -0.14 0.14l-0.8 1.3c-0.72 1.92 -2.26 5.64 -4.57 11.06c-0.13 0.32 -0.2 0.66 -0.2 1c0 0.55 0.18 1.1 0.52 1.55c2.39 3.12 10.22 11.05 13.63 11.86c0.7 0.16 1.45 0.02 2.04 -0.38c0 0 7.43 -5.14 9.54 -6.61c1.83 1.13 4.55 2.77 6.52 3.73c0.21 1.87 1.48 13.21 1.48 13.21c0.11 0.95 0.74 1.77 1.65 2.11c6.86 2.54 11.32 3.65 14.9 3.71c0.89 0.01 1.73 -0.44 2.21 -1.2l5.79 -9.27c0.41 -0.66 0.65 -1.04 0.82 -1.34c1.38 -0.07 3.26 -0.23 4.92 -0.52c1.04 1.34 6.27 8.06 6.27 8.06c0.61 0.79 1.63 1.15 2.61 0.91c4.42 -1.06 9.02 -4.36 9.21 -4.49c0.13 -0.1 0.26 -0.21 0.38 -0.33c0.36 -0.39 9.02 -9.75 10.31 -11.28c0.4 -0.47 0.61 -1.06 0.61 -1.65c0 -0.42 -0.11 -0.85 -0.33 -1.24c0 0 -0.44 -0.77 -0.6 -1.06c0.06 -0.04 0.13 -0.06 0.19 -0.11l10.22 -8.73c0.29 -0.24 0.52 -0.55 0.67 -0.9c1.51 -3.4 2.51 -7.08 2.95 -10.95c0.01 -0.09 0.01 -0.19 0.01 -0.29c-0 -0.8 -0.37 -1.56 -1.02 -2.04v0z
           M217.29 142.39c-8.28 1.75 -18.02 1.38 -26.55 -4.16c-20.86 -13.54 -19.23 -19.86 -19.19 -24.63c1.91 -14.07 23.35 -15.03 36.15 -7.04c12.79 8 20.15 21.11 16.63 31.03c-1.6 3.52 -7.03 4.8 -7.03 4.8z"
  />
  <path style="fill:#000000; fill-opacity:0.1294"
        d="M185.29 72.65c-3.35 0.23 -6.79 0.83 -10.22 1.76c-0.42 -0.11 -0.86 -0.21 -1.38 -0.1c-1.5 0.3 -2.64 1.52 -2.83 3.05c-0.1 0.8 -0.15 2.85 -0.15 6.25c0 0 0 1.21 0.01 2.35c-2.07 -1.01 -7.99 -3.89 -7.99 -3.89c-1.25 -0.61 -2.75 -0.43 -3.83 0.45c-2.84 2.35 -5.3 5.07 -7.3 8.09c-0.31 0.47 -0.51 1.02 -0.56 1.58c-0.07 0.71 -0.42 7.56 -0.61 11.59c0 0 -0 0.17 -0 0.17c0 0.96 0.46 1.81 1.14 2.47c-1.39 0.08 -2.78 0.16 -2.78 0.16c-1.67 0.09 -3.06 1.37 -3.31 3.03c0 0 -2.03 13.98 -2.03 13.98c0 0 -0.03 0.51 -0.03 0.51l0.02 0.45l1.49 11.75c0.2 1.65 1.56 2.95 3.23 3.09c0 0 7.2 0.63 9.24 0.81c0.71 1.49 1.41 2.8 1.97 3.8c-0.23 0.38 -0.66 1.07 -0.66 1.07l-0.03 0.09c-0.71 1.9 -2.24 5.61 -4.55 11.02c0 0 -0.28 1.39 -0.28 1.39c0 0.77 0.25 1.54 0.72 2.15c2.4 3.14 10.36 11.31 14.19 12.23c0.97 0.23 2.02 0.03 2.84 -0.53c0 0 7.02 -4.85 9.01 -6.23c1.69 1.04 3.8 2.28 5.55 3.18c0.1 0.97 1.42 12.68 1.42 12.68c0.15 1.34 1.03 2.46 2.29 2.93c6.98 2.58 11.53 3.71 15.23 3.77c1.24 0.02 2.41 -0.62 3.07 -1.67l5.79 -9.27c0 0 0.31 -0.51 0.56 -0.91c1.12 -0.07 2.5 -0.2 3.89 -0.41c0.62 0.8 5.91 7.61 5.91 7.61c0.85 1.1 2.28 1.6 3.64 1.27c4.44 -1.07 9.05 -4.28 9.56 -4.65c0.02 -0.01 0.53 -0.47 0.53 -0.47c2.17 -2.35 9.16 -9.93 10.35 -11.32c0.54 -0.64 0.85 -1.46 0.85 -2.3c0 -0.6 -0.16 -1.2 -0.46 -1.73c-0 -0 -0.08 -0.14 -0.17 -0.3c1.98 -1.69 9.76 -8.34 9.76 -8.34c0.4 -0.34 0.72 -0.77 0.93 -1.25c1.55 -3.49 2.58 -7.28 3.03 -11.24c0 -0 0.02 -0.4 0.02 -0.4c0 -1.11 -0.53 -2.18 -1.43 -2.85c0 0 -7.75 -5.78 -9.1 -6.78c0.86 -0.56 2.21 -1.45 2.21 -1.45c3.41 -2.19 4.89 -3.19 5.73 -4.22c0.51 -0.62 0.79 -1.42 0.79 -2.24l-0.15 -1.03c-1.23 -4.07 -3 -8.15 -5.23 -12.12c-0.5 -0.88 -1.36 -1.52 -2.35 -1.72c0 0 -7.3 -1.55 -9.04 -1.93c-1.07 -1.65 -2.32 -3.33 -3.69 -5c0.68 -0.87 2.5 -3.21 2.5 -3.21c0.48 -0.62 0.75 -1.39 0.75 -2.18c0 -0.97 -0.38 -1.87 -1.07 -2.55c-3.05 -2.96 -6.33 -5.69 -9.77 -8.12c-1.03 -0.73 -2.4 -0.85 -3.55 -0.31c0 0 -3.81 1.77 -5.09 2.38c-1.71 -1.03 -3.51 -1.99 -5.35 -2.88c0.02 -0.95 0.09 -4.77 0.09 -4.77c0 -1.44 -0.86 -2.73 -2.2 -3.29c-4.18 -1.72 -8.51 -3.06 -12.85 -4c-1.76 -0.37 -3.52 0.61 -4.11 2.32c0 0 -1.03 3 -1.38 4.03c-1.67 -0.13 -3.31 -0.22 -4.85 -0.2c-0.54 -0.68 -4.92 -6.22 -4.92 -6.22c-0.73 -0.91 -1.86 -1.42 -3.04 -1.33z
           M175.36 76.4c3.37 -0.93 6.76 -1.52 10.06 -1.75c0.51 -0.03 1.01 0.18 1.33 0.58l5.54 6.99l0.5 -0.01c1.85 -0.04 3.84 0.02 5.91 0.22l0.78 0.07l1.89 -5.48c0.25 -0.74 1.02 -1.18 1.79 -1.01c4.22 0.91 8.43 2.22 12.51 3.89c0.58 0.24 0.96 0.8 0.96 1.43l-0.12 5.99l0.58 0.27c2.16 1.01 4.26 2.14 6.23 3.35l0.45 0.28l6.04 -2.82c0.5 -0.23 1.1 -0.18 1.55 0.13c3.34 2.36 6.55 5.03 9.53 7.92c0.3 0.29 0.47 0.69 0.47 1.11c0 0.35 -0.11 0.68 -0.32 0.95l-3.49 4.47l0.52 0.61c1.63 1.93 3.07 3.88 4.29 5.79l0.22 0.35l9.84 2.1c0.43 0.09 0.81 0.36 1.03 0.75c2.16 3.83 3.86 7.77 5.06 11.72c0 0 0.06 0.45 0.06 0.45c0 0.35 -0.12 0.7 -0.34 0.98c-0.65 0.8 -2.17 1.82 -5.26 3.8l-3.51 2.31l0 0.49l-0.04 1.02c0 0 10.31 7.69 10.31 7.69c0.39 0.29 0.62 0.76 0.62 1.25l-0.01 0.18c-0.43 3.75 -1.39 7.33 -2.87 10.65c-0.09 0.21 -0.23 0.39 -0.41 0.54c-0 0 -9.48 8.1 -10.15 8.68c-0.07 0.03 -0.92 0.44 -0.92 0.44l0.44 0.97l0.6 1.06c0.13 0.22 0.19 0.48 0.19 0.74c0 0.36 -0.13 0.72 -0.37 1.01c-0.91 1.07 -5.88 6.48 -10.23 11.18c-0.05 0.06 -0.3 0.27 -0.3 0.27c-0.46 0.33 -4.77 3.34 -8.85 4.32c-0.59 0.14 -1.22 -0.07 -1.59 -0.55c-0 -0 -6.64 -8.53 -6.64 -8.53l-0.59 0.1c-1.67 0.29 -3.53 0.43 -4.8 0.5l-0.52 0.02l-1.09 1.77c-0 0 -5.8 9.27 -5.8 9.27c-0.28 0.46 -0.8 0.74 -1.34 0.73c-3.46 -0.05 -7.81 -1.14 -14.57 -3.65c-0.55 -0.2 -0.93 -0.69 -1 -1.28l-1.54 -13.75l-0.49 -0.24c-2.03 -0.99 -4.9 -2.73 -6.43 -3.68l-0.55 -0.34l-10.08 6.98c-0.36 0.25 -0.81 0.33 -1.24 0.23c-2.85 -0.68 -10.41 -8.03 -13.07 -11.5c-0.2 -0.27 -0.31 -0.6 -0.31 -0.94l0.12 -0.61c2.28 -5.36 3.81 -9.05 4.55 -11.01c0.07 -0.12 0.64 -1.04 0.71 -1.16c0.06 -0.06 0.67 -0.67 0.67 -0.67l-0.47 -0.55c-0.63 -1.08 -1.57 -2.78 -2.46 -4.72l-0.24 -0.52l-10.39 -0.91c-0.73 -0.06 -1.33 -0.63 -1.42 -1.35c0 -0 -1.49 -11.75 -1.49 -11.75c-0 -0 -0.01 -0.19 -0.01 -0.19l0.01 -0.22c0 -0 2.03 -13.99 2.03 -13.99c0.1 -0.72 0.71 -1.28 1.44 -1.32c0 0 8.44 -0.49 8.44 -0.49l-4.23 -2.85c-0.43 -0.29 -0.68 -0.77 -0.68 -1.29c0.33 -6.78 0.55 -11.07 0.6 -11.55c0.02 -0.24 0.11 -0.48 0.25 -0.69c1.88 -2.85 4.2 -5.42 6.9 -7.65c0.47 -0.38 1.12 -0.46 1.68 -0.19c0 0 10.88 5.3 10.88 5.3l-0.02 -5.56c0 -4.07 0.07 -5.51 0.13 -6c0.08 -0.67 0.58 -1.2 1.23 -1.33c0.19 -0.03 0.44 0.03 0.73 0.12l0.27 0.08l0.28 -0.07z"
  />
  <path style="fill:#000000; fill-opacity:0.1294"
        d="M178.78 102.7c-4.72 2.21 -7.57 5.93 -8.23 10.76l-0 0.05l-0.02 0.98c-0.13 4.88 -0.33 11.58 19.67 24.56c9.68 6.29 20.19 5.81 27.3 4.3l0.02 -0c0.24 -0.05 5.93 -1.43 7.72 -5.35c3.66 -10.3 -3.51 -23.85 -17.01 -32.29c-8.76 -5.47 -21.42 -6.77 -29.44 -3.01z
           M179.63 104.51c7.45 -3.49 19.29 -2.25 27.53 2.89c10.56 6.6 17.05 16.37 17.05 24.86c0 1.73 -0.27 3.4 -0.83 4.99c-1.33 2.92 -6.19 4.12 -6.31 4.15c-6.74 1.43 -16.68 1.89 -25.79 -4.02c-17.47 -11.34 -18.78 -17.36 -18.78 -21.69c0 -0.39 0.01 -0.77 0.02 -1.13c0 0 0.01 -0.69 0.01 -0.85c0.56 -4.1 3.01 -7.28 7.09 -9.19z"
  />
  <path style="fill:none; stroke:#000000; stroke-opacity:0.1294; stroke-width:1"
        d="M178.78 102.7c-4.72 2.21 -7.57 5.93 -8.23 10.76l-0 0.05l-0.02 0.98c-0.13 4.88 -0.33 11.58 19.67 24.56c9.68 6.29 20.19 5.81 27.3 4.3l0.02 -0c0.24 -0.05 5.93 -1.43 7.72 -5.35c3.66 -10.3 -3.51 -23.85 -17.01 -32.29c-8.76 -5.47 -21.42 -6.77 -29.44 -3.01z
           M179.63 104.51c7.45 -3.49 19.29 -2.25 27.53 2.89c10.56 6.6 17.05 16.37 17.05 24.86c0 1.73 -0.27 3.4 -0.83 4.99c-1.33 2.92 -6.19 4.12 -6.31 4.15c-6.74 1.43 -16.68 1.89 -25.79 -4.02c-17.47 -11.34 -18.78 -17.36 -18.78 -21.69c0 -0.39 0.01 -0.77 0.02 -1.13c0 0 0.01 -0.69 0.01 -0.85c0.56 -4.1 3.01 -7.28 7.09 -9.19z"
  />
  <path style="fill:#9ba1aa"
        d="M161.84 94.93l-7.64 -5.69c-0 0.01 -3.89 -0.93 -3.9 -0.92c-0.07 0.73 -0.6 11.38 -0.6 11.38l9.54 6.42l2.61 -11.19v0z"
  />
  <path style="fill:#d7dadd"
        d="M192.09 151.1l-11.71 -6.49l-11.58 7.96l-10.9 -10.69c-0.15 0.14 0.16 -0.04 -4.77 11.5c2.73 3.57 9.98 10.4 12.19 10.93c10.93 -7.56 10.93 -7.56 10.93 -7.56c0 0 7.11 4.52 8.97 5.04c1.65 14.67 0 0 1.65 14.67c5.77 2.14 10.46 3.49 14.06 3.55c6.64 -10.67 6.61 -10.51 6.64 -10.67l-15.32 -3.57l-0.15 -14.68z"
  />
  <path style="fill:#c5cad3"
        d="M220.78 154.53l-11.08 0.75l-2.63 12.2c0 0 0.75 0.79 0.75 0.79c0 0 5.32 -0.11 7.85 -0.88c7.26 9.33 0 0 7.26 9.33c3.98 -0.95 8.32 -4.08 8.32 -4.08c0 0 8.97 -9.69 10.24 -11.2l-11.87 6.07l-8.83 -12.98h-0z"
  />
  <path style="fill:#d7dadd"
        d="M243.3 127.33c1.04 -1.28 8.41 -5.37 9.54 -6.75l-9.91 -0.05l0.37 6.81z"
  />
  <path style="fill:#d7dadd"
        d="M230.66 151.1l10.99 5.98l10.22 -8.73l-12.27 -7.15"
  />
  <path style="fill:#9ba1aa"
        d="M170.11 73.53c-0.21 1.72 -0.08 12.19 -0.08 12.19c0 0 0 -0 0 0l5.02 -3.46l-4.94 -8.72v0z"
  />
  <path style="fill:#c5cad3"
        d="M160.74 120.02l-13.81 -1.32l-2.22 -12.8l-2.03 13.98l1.49 11.75c0 0 0 0 11.33 0.99c1.82 4.44 5.04 9.25 5.04 9.25l5.69 -9.47l-5.5 -12.39v0z"
  />
  <path style="fill:#d7dadd"
        d="M144.6 106.17l-1.12 13.91l0.67 11.55l1.89 -13.01"
  />
  <path style="fill:#c5cad3"
        d="M160.74 120.02l-5.24 12.62l5.32 9.25l6.2 -10.34l-6.28 -11.52"
  />
  <linearGradient id="gradient1" gradientUnits="userSpaceOnUse" x1="175.7" y1="170.65" x2="175.7" y2="71.7">
   <stop offset="0" stop-color="#ffcd00"/>
   <stop offset="1" stop-color="#fff332"/>
  </linearGradient>
  <path style="fill:url(#gradient1)"
        d="M181.09 71.7l-10.97 1.83l0.21 0.38c3.44 -1.04 7.12 -1.71 10.94 -1.98l-0.18 -0.23l0 0z"
  />
  <linearGradient id="gradient2" gradientUnits="userSpaceOnUse" x1="144.71" y1="165.02" x2="254.9" y2="165.02">
   <stop offset="0" stop-color="#ffcd00"/>
   <stop offset="1" stop-color="#fff332"/>
  </linearGradient>
  <path style="fill:url(#gradient2)"
        d="M237.15 164.29c-0.94 0.47 -1.92 0.97 -2.86 1.44c0.98 -0.44 1.93 -0.93 2.86 -1.44z"
  />
  <path style="fill:#ffffff"
        d="M243.67 129.98l-0.01 -0.17c0.05 -0.76 0.09 -1.54 0.09 -2.32c0 -2.1 -0.22 -4.27 -0.65 -6.48l9.74 -0.41c-1.17 -3.86 -2.83 -7.69 -4.93 -11.4c-2.38 -0.51 -9 -1.92 -10.43 -2.22c-1.73 -2.83 -3.78 -5.56 -6.12 -8.13l4.25 -5.44c-2.86 -2.78 -5.98 -5.4 -9.34 -7.77l-6.77 3.16c-2.86 -1.85 -5.81 -3.41 -8.79 -4.71l0.14 -6.94c-4.07 -1.67 -8.17 -2.93 -12.24 -3.81l-2.29 6.66c-3.07 -0.42 -6.08 -0.55 -9 -0.39l-6.02 -7.6c-3.82 0.26 -7.49 0.93 -10.94 1.98l4.72 8.34c-2.57 1.08 -4.93 2.46 -7.03 4.16c-1.79 -0.86 -8.7 -4.22 -11.14 -5.42c-2.52 2.09 -4.75 4.52 -6.59 7.31l10.67 7.01c-1.46 3.05 -2.29 6.34 -2.54 9.76l-13.72 0.8c-0.19 4.15 0.27 8.43 1.35 12.72l14.68 1.39c1.46 3.93 3.58 7.82 6.28 11.52l-8.97 10.28c3.09 3.81 6.68 7.42 10.74 10.73l11.58 -7.96l0.04 0.02c0.66 0.47 1.34 0.93 2.03 1.38c3.09 2 6.32 3.7 9.63 5.08l0.15 14.67c5.08 1.79 10.24 3 15.32 3.57c0.53 -3.58 2.02 -13.42 2.12 -14.06c3.82 0.22 7.56 -0 11.09 -0.75l8.83 12.98c1.61 -0.51 3.18 -1.1 4.67 -1.77c0.93 -0.47 1.91 -0.97 2.86 -1.44c1.53 -0.85 2.98 -1.8 4.34 -2.84c-1.29 -2.31 -6.03 -10.52 -7.47 -13.01c2.12 -1.72 3.95 -3.75 5.45 -6.06c0.05 -0.08 0.1 -0.17 0.15 -0.25l12.25 6.23c1.42 -3.19 2.34 -6.61 2.75 -10.2l-10.95 -8.17h-0z
           M228.89 132.68c-7.19 11.09 -25.3 12.13 -40.43 2.31c-15.13 -9.82 -21.55 -26.78 -14.35 -37.87c7.2 -11.09 25.3 -12.13 40.44 -2.31c15.13 9.82 21.55 26.78 14.34 37.87z"
  />
  <path style="fill:#9ba1aa"
        d="M168.79 152.57l-3.48 11.75l10.93 -7.57l4.13 -12.14l-11.58 7.96"
  />
  <path style="fill:#ffffff; fill-opacity:0.4"
        d="M185.21 161.8l6.87 -10.69l0.15 14.67l-5.38 10.69l-1.65 -14.67"
  />
  <path style="fill:#ffffff; fill-opacity:0.4"
        d="M220.71 154.75l-5.04 12.65l7.26 9.33l6.68 -9.22l-8.89 -12.76"
  />
  <path style="fill:#787e87; fill-opacity:0.498"
        d="M146.05 118.62l-1.89 13.01l11.33 0.99l5.24 -12.62"
  />
  <path style="fill:#000000"
        d="M256.16 136.1c0 0 -8.16 -6.08 -9.89 -7.38c0 -0.25 0.01 -0.29 0.02 -0.5c0.84 -0.59 1.98 -1.32 3.04 -2c3.24 -2.08 4.74 -3.09 5.49 -4.01c0.37 -0.46 0.57 -1.03 0.57 -1.61c0 -0.24 -0.03 -0.49 -0.11 -0.74c-1.21 -4 -2.94 -8.01 -5.15 -11.92c-0.35 -0.63 -0.97 -1.09 -1.69 -1.24c0 0 -8.69 -1.85 -9.43 -2.01c-1.3 -2.02 -2.77 -3.99 -4.37 -5.89c1.24 -1.59 2.98 -3.83 2.98 -3.83c0.36 -0.46 0.54 -1.02 0.54 -1.57c0 -0.66 -0.26 -1.33 -0.77 -1.83c-3.01 -2.93 -6.26 -5.62 -9.65 -8.02c-0.75 -0.53 -1.72 -0.61 -2.55 -0.22c0 0 -3.91 1.82 -5.55 2.59c-2.04 -1.25 -4.16 -2.39 -6.33 -3.41c0.03 -1.91 0.1 -5.34 0.1 -5.36c0 -1.03 -0.62 -1.97 -1.58 -2.36c-4.12 -1.69 -8.39 -3.02 -12.68 -3.95c-1.26 -0.27 -2.53 0.44 -2.95 1.66c0 0 -0.96 2.79 -1.63 4.74c-2.04 -0.19 -4.05 -0.28 -6.03 -0.23c-1.19 -1.51 -5.22 -6.6 -5.22 -6.6c-0.52 -0.66 -1.34 -1.02 -2.18 -0.96c-3.56 0.25 -7.02 0.65 -10.3 1.55c-0.73 0.18 -1.05 0.28 -1.47 0.37c-1.08 0.21 -1.6 0.81 -1.73 1.9c-0.1 0.86 -0.14 3.31 -0.14 6.12c0 1.28 0 2.63 0.02 3.95c-2.42 -1.18 -9.43 -4.6 -9.43 -4.6c-0.9 -0.44 -1.98 -0.31 -2.76 0.32c-2.77 2.29 -5.16 4.94 -7.1 7.87c-0.22 0.34 -0.36 0.73 -0.4 1.13c-0.07 0.75 -0.48 9.02 -0.6 11.53c-0 0.04 -0 0.08 -0 0.12c0 0.84 0.42 1.64 1.12 2.12c0 0 1.16 0.78 1.77 1.19c-2.67 0.15 -5.48 0.32 -5.48 0.32c-1.21 0.06 -2.2 0.98 -2.38 2.18l-2.03 13.98c-0.01 0.12 -0.02 0.24 -0.02 0.37c0 0.1 0 0.21 0.02 0.32l1.49 11.75c0.15 1.19 1.13 2.12 2.33 2.22c0 0 9.55 0.84 9.82 0.86c0.78 1.7 1.67 3.38 2.5 4.81c-0.04 0.05 -0.1 0.07 -0.14 0.14l-0.8 1.3c-0.72 1.92 -2.25 5.64 -4.57 11.06c-0.13 0.32 -0.2 0.66 -0.2 1c0 0.55 0.17 1.1 0.52 1.55c2.39 3.12 10.22 11.05 13.63 11.86c0.7 0.16 1.45 0.02 2.04 -0.38c0 0 7.43 -5.14 9.55 -6.61c1.83 1.13 4.54 2.77 6.52 3.73c0.2 1.87 1.48 13.21 1.48 13.21c0.1 0.96 0.74 1.77 1.65 2.11c6.86 2.54 11.32 3.65 14.9 3.71c0.89 0.01 1.73 -0.44 2.21 -1.2l5.79 -9.27c0.41 -0.66 0.65 -1.04 0.82 -1.34c1.39 -0.07 3.27 -0.23 4.92 -0.52c1.04 1.34 6.27 8.06 6.27 8.06c0.61 0.79 1.64 1.15 2.61 0.91c4.42 -1.06 9.02 -4.36 9.21 -4.49c0.13 -0.1 0.26 -0.21 0.38 -0.33c0.36 -0.39 9.02 -9.75 10.31 -11.28c0.4 -0.47 0.61 -1.06 0.61 -1.65c0 -0.42 -0.1 -0.85 -0.33 -1.24c0 0 -0.44 -0.77 -0.6 -1.05c0.06 -0.04 0.13 -0.06 0.19 -0.11l10.22 -8.73c0.28 -0.24 0.52 -0.55 0.67 -0.9c1.51 -3.4 2.51 -7.08 2.95 -10.95c0.01 -0.09 0.01 -0.19 0.01 -0.29c-0 -0.79 -0.37 -1.56 -1.03 -2.04v0z
           M251.88 148.35l-10.22 8.73l-3.85 -2.09c1.53 2.66 3.04 5.3 3.69 6.46c-1.27 1.5 -10.24 11.2 -10.24 11.2c0 0 -4.33 3.12 -8.32 4.08c-7.25 -9.33 0 0 -7.25 -9.33c-2.52 0.77 -7.85 0.88 -7.85 0.88c0 0 -0.03 -0.03 -0.07 -0.07c-0.06 0.42 -0.12 0.81 -0.17 1.14c-0.02 0.15 0 0 -6.64 10.67c-3.59 -0.05 -8.28 -1.41 -14.06 -3.55c-1.65 -14.68 0 0 -1.65 -14.68c-1.85 -0.52 -8.97 -5.04 -8.97 -5.04c0 0 0 0 -10.93 7.56c-2.2 -0.52 -9.46 -7.35 -12.19 -10.93c4.98 -11.61 4.76 -11.39 4.92 -11.53c0 0 0.04 0.01 0.01 -0.01l1.41 -1.62c-1.1 -1.79 -2.81 -4.74 -3.97 -7.56l-2.13 -0.18c-0.67 -0.05 -1.3 -0.11 -1.88 -0.16l-1.05 -0.09c-0.41 -0.03 -0.8 -0.06 -1.17 -0.1l-1.16 -0.1c-0.69 -0.06 -1.26 -0.11 -1.73 -0.15l-0.76 -0.06c-0.1 -0 -0.2 -0.01 -0.29 -0.02l-0.42 -0.03c-0.06 -0 -0.12 -0.01 -0.18 -0.01l-0.23 -0.02c-0.07 -0 -0.13 -0.01 -0.17 -0.01l-0.09 -0c-0.01 -0 -0.01 -0 -0.01 -0l-1.49 -11.75l2.03 -13.98l13.04 -0.76l-8.06 -5.42c0 0 0.52 -10.65 0.59 -11.38c1.84 -2.78 4.07 -5.22 6.59 -7.31c2.43 1.19 9.34 4.55 11.14 5.42c0.64 -0.51 1.31 -0.99 2 -1.45c-0.02 -2.43 -0.09 -9.99 0.08 -11.43c0 0 0.07 0.14 0.21 0.38c3.44 -1.04 7.11 -1.71 10.93 -1.98l6.02 7.61c2.91 -0.16 5.93 -0.03 9 0.39l2.29 -6.66c4.06 0.87 8.17 2.14 12.24 3.81l-0.14 6.95c2.97 1.29 5.92 2.85 8.79 4.71l6.77 -3.16c3.35 2.36 6.47 4.98 9.34 7.77l-4.25 5.44c2.33 2.57 4.38 5.3 6.12 8.13c1.43 0.3 8.05 1.71 10.43 2.22c2.09 3.71 3.75 7.54 4.93 11.4c-1.02 1.25 -7.21 4.75 -9.1 6.34c0 0.18 0.01 0.37 0.01 0.55c0 0.78 -0.03 1.56 -0.09 2.32l0.01 0.17l10.95 8.16c-0.41 3.58 -1.32 7 -2.75 10.2v0h0z"
  />
  <path style="fill:#000000"
        d="M181.06 68.86c-2.92 0.2 -6.75 0.57 -10.4 1.57c0.01 -0 -0.68 0.17 -0.68 0.17l-0.75 0.18c-1.28 0.25 -1.99 1.02 -2.15 2.35c-0.09 0.78 -0.14 2.87 -0.14 6.19c0 0 0.01 2.07 0.01 3.12c-1.27 -0.62 -8.68 -4.23 -8.68 -4.23c-1.08 -0.52 -2.38 -0.37 -3.31 0.39c-2.81 2.32 -5.23 5.01 -7.2 7.98c-0.27 0.4 -0.44 0.88 -0.49 1.36c-0.09 0.87 -0.59 11.13 -0.61 11.56c0 0 -0 0.15 -0 0.15c0 1.02 0.5 1.97 1.35 2.55c0 0 0.22 0.15 0.49 0.33c-1.59 0.09 -3.94 0.23 -3.94 0.23c-1.44 0.08 -2.65 1.18 -2.86 2.62l-2.03 13.98c0 0 -0.03 0.44 -0.03 0.44l0.02 0.38c0 0 1.49 11.76 1.49 11.76c0.18 1.42 1.36 2.55 2.8 2.67c0 0 8.97 0.79 9.52 0.83c0.8 1.71 1.61 3.2 2.21 4.26c-0.11 0.18 -0.75 1.23 -0.75 1.23c-0.76 2.01 -2.3 5.73 -4.61 11.13l-0.24 1.21c0 0.67 0.22 1.33 0.63 1.87c2.49 3.26 10.34 11.2 13.92 12.05c0.84 0.2 1.74 0.03 2.46 -0.46c0 0 7.74 -5.36 9.27 -6.41c1.53 0.94 4.05 2.46 6.02 3.44c0.05 0.52 1.45 12.93 1.45 12.93c0.13 1.16 0.89 2.13 1.99 2.54c6.92 2.56 11.43 3.68 15.08 3.74c1.07 0.01 2.09 -0.53 2.66 -1.45l5.79 -9.27c0 -0 0.44 -0.72 0.68 -1.11c1.21 -0.07 2.83 -0.21 4.38 -0.46c0.34 0.44 6.08 7.82 6.08 7.82c0.74 0.95 1.97 1.38 3.15 1.1c4.35 -1.04 8.89 -4.21 9.39 -4.57c0.01 -0 0.46 -0.41 0.46 -0.41c0.08 -0.09 9 -9.73 10.33 -11.3c0.47 -0.55 0.73 -1.26 0.73 -1.99c0 -0.52 -0.13 -1.04 -0.39 -1.5c-0 0 -0.2 -0.34 -0.37 -0.64c1.24 -1.06 10.06 -8.6 10.06 -8.6c0.34 -0.29 0.62 -0.67 0.81 -1.08c1.53 -3.45 2.54 -7.18 3 -11.1c0 -0 0.01 -0.35 0.01 -0.35c0 -0.96 -0.46 -1.88 -1.23 -2.46c0 0 -9.17 -6.84 -9.64 -7.19c0.4 -0.27 2.79 -1.83 2.79 -1.83c3.29 -2.11 4.82 -3.14 5.62 -4.12c0.44 -0.54 0.69 -1.23 0.69 -1.94l-0.13 -0.89c-1.22 -4.04 -2.97 -8.09 -5.19 -12.02c-0.43 -0.76 -1.17 -1.31 -2.03 -1.49c0 0 -8.2 -1.75 -9.23 -1.97c-1.16 -1.79 -2.51 -3.61 -4.02 -5.43c0.42 -0.54 2.73 -3.5 2.73 -3.5c0.41 -0.53 0.65 -1.21 0.65 -1.89c0 -0.83 -0.33 -1.62 -0.93 -2.2c-3.02 -2.94 -6.3 -5.66 -9.71 -8.07c-0.89 -0.63 -2.07 -0.74 -3.07 -0.27c0 0 -4.88 2.28 -5.31 2.48c-1.85 -1.12 -3.81 -2.17 -5.82 -3.13c0.01 -0.51 0.1 -5.05 0.1 -5.05c0 -1.25 -0.75 -2.37 -1.9 -2.84c-4.15 -1.7 -8.45 -3.04 -12.76 -3.97c-1.52 -0.32 -3.05 0.53 -3.56 2c0 0 -1.28 3.74 -1.5 4.37c-1.87 -0.16 -3.7 -0.25 -5.41 -0.21c-0.3 -0.37 -5.06 -6.4 -5.06 -6.4c-0.63 -0.79 -1.61 -1.23 -2.63 -1.16z
           M167.97 83.3l-0.02 -3.95c0 -4.08 0.07 -5.55 0.13 -6.06c0.1 -0.88 0.47 -1.29 1.32 -1.46c0 0 0.81 -0.19 0.81 -0.19l0.68 -0.17c3.57 -0.98 7.33 -1.34 10.21 -1.54c0.67 -0.04 1.32 0.24 1.74 0.76l5.38 6.8l0.26 -0c1.87 -0.04 3.88 0.02 5.96 0.22l0.41 0.04l1.76 -5.13c0.33 -0.97 1.34 -1.54 2.35 -1.32c4.25 0.91 8.49 2.23 12.59 3.92c0.76 0.31 1.26 1.05 1.26 1.88l-0.11 5.69l0.3 0.14c2.17 1.02 4.29 2.15 6.28 3.38l0.24 0.14l5.8 -2.71c0.65 -0.31 1.43 -0.24 2.03 0.18c3.37 2.38 6.59 5.06 9.59 7.97c0.39 0.38 0.61 0.9 0.61 1.46c0 0.45 -0.14 0.88 -0.43 1.25l-3.25 4.16l0.27 0.32c1.64 1.94 3.09 3.91 4.33 5.83l0.11 0.18l9.64 2.06c0.57 0.12 1.06 0.48 1.34 0.98c2.18 3.86 3.89 7.84 5.1 11.81c0 0 0.08 0.59 0.08 0.59c0 0.46 -0.16 0.92 -0.45 1.28c-0.7 0.85 -2.17 1.84 -5.37 3.9l-3.29 2.16v0.26l-0.02 0.77l10.11 7.54c0.51 0.38 0.81 0.99 0.81 1.63l-0.01 0.24c-0.43 3.8 -1.41 7.43 -2.91 10.79c-0.12 0.27 -0.3 0.52 -0.53 0.71l-10.22 8.73l-0.48 0.24l0.18 0.52l0.6 1.05c0.17 0.3 0.26 0.64 0.26 0.98c0 0.47 -0.17 0.94 -0.48 1.31c-1.31 1.55 -10.21 11.17 -10.3 11.27l-0.3 0.27c-0.49 0.34 -4.87 3.41 -9.03 4.41c-0.77 0.18 -1.59 -0.09 -2.08 -0.72l-6.46 -8.31l-0.31 0.05c-1.68 0.29 -3.57 0.44 -4.86 0.51l-0.27 0.01l-0.96 1.57c0 0 -5.79 9.27 -5.79 9.27c-0.37 0.6 -1.05 0.97 -1.76 0.96c-3.51 -0.05 -7.92 -1.15 -14.73 -3.68c-0.72 -0.26 -1.22 -0.91 -1.31 -1.68l-1.51 -13.49l-0.25 -0.12c-2.05 -1 -4.94 -2.75 -6.47 -3.71l-0.29 -0.17l-9.83 6.8c-0.47 0.32 -1.06 0.44 -1.63 0.3c-3.24 -0.77 -11.05 -8.68 -13.34 -11.67c-0.27 -0.35 -0.41 -0.79 -0.41 -1.23l0.16 -0.79c2.31 -5.41 3.85 -9.14 4.58 -11.08c0 0 0.73 -1.16 0.75 -1.2c0 -0 0.12 -0.11 0.12 -0.11l0.29 -0.28l-0.25 -0.29c-0.63 -1.09 -1.58 -2.81 -2.48 -4.76l-0.12 -0.27l-10.12 -0.89c-0.95 -0.08 -1.74 -0.82 -1.86 -1.77l-1.49 -11.75c0 -0 -0.01 -0.25 -0.01 -0.25l0.02 -0.29c0 -0 2.03 -13.98 2.03 -13.98c0.13 -0.95 0.93 -1.68 1.89 -1.73l7.02 -0.41l-3.05 -2.06c-0.56 -0.37 -0.89 -1.01 -0.89 -1.68c0.14 -3.06 0.53 -10.9 0.61 -11.6c0.03 -0.32 0.14 -0.63 0.32 -0.9c1.91 -2.88 4.26 -5.5 6.99 -7.75c0.61 -0.5 1.47 -0.6 2.19 -0.25l10.19 4.96l-0 -0.84z"
  />
  <path style="fill:#000000"
        d="M181.24 71.41c-3.7 0.26 -7.27 0.91 -10.64 1.9c-0 -0 -0.8 -1.4 -0.8 -1.4l-0.19 1.55c-0.09 0.79 -0.12 3.28 -0.12 5.87c0 1.99 0.01 4.01 0.02 5.36c-0.3 0.22 -1.17 0.85 -1.53 1.11c-0.53 -0.26 -11.15 -5.43 -11.15 -5.43l-0.26 0.21c-2.61 2.16 -4.87 4.66 -6.7 7.42l-0.07 0.1l-0.01 0.12c-0.08 0.74 -0.58 10.98 -0.6 11.41l-0.01 0.29c0 0 5.21 3.5 7.02 4.72c-2.39 0.14 -11.93 0.69 -11.93 0.69l-2.1 14.47l1.55 12.24c0 0 10.86 0.95 11.44 1c1.08 2.56 2.54 5.15 3.68 7.01c-0.33 0.38 -1.16 1.33 -1.16 1.33c-0.13 0.11 -0.13 0.11 -0.56 1.16l-4.58 10.8l0.18 0.24c2.73 3.57 10.07 10.55 12.49 11.12l0.22 0.05c0 0 10.3 -7.13 10.84 -7.5c1.21 0.76 6.45 4.03 8.47 4.78c0.06 0.56 1.65 14.68 1.65 14.68l0.3 0.11c6.54 2.42 10.93 3.53 14.23 3.58l0.29 0l5.95 -9.52c0.88 -1.4 0.88 -1.4 0.91 -1.6c0 0 0.04 -0.31 0.09 -0.62c1.17 -0.03 5 -0.21 7.28 -0.81c0.36 0.47 7.26 9.33 7.26 9.33l0.32 -0.07c4.04 -0.97 8.32 -4.04 8.5 -4.17c0.44 -0.46 9.06 -9.79 10.33 -11.29l0.23 -0.27c0 0 -1.93 -3.37 -2.96 -5.18c1.09 0.59 2.55 1.39 2.55 1.39l10.58 -9.04l0.04 -0.1c1.43 -3.21 2.37 -6.7 2.79 -10.35l0.03 -0.29c0 0 -10.62 -7.92 -11 -8.2c0 -0.17 0.09 -2.22 0.09 -2.22c0 0 -0 -0.24 -0 -0.3c0.86 -0.68 2.42 -1.69 3.96 -2.68c2.26 -1.45 4.39 -2.82 5.01 -3.58l0.17 -0.21l-0.07 -0.26c-1.17 -3.86 -2.84 -7.73 -4.97 -11.51l-0.11 -0.2c0 0 -10.09 -2.15 -10.46 -2.23c-1.64 -2.66 -3.58 -5.24 -5.76 -7.68c0.45 -0.58 4.28 -5.48 4.28 -5.48l-0.33 -0.32c-2.94 -2.86 -6.11 -5.49 -9.4 -7.82l-0.24 -0.17c0 0 -6.33 2.95 -6.79 3.17c-2.64 -1.68 -5.43 -3.18 -8.29 -4.44c0.01 -0.6 0.14 -6.97 0.14 -6.97l-0.32 -0.13c-4.02 -1.65 -8.17 -2.94 -12.33 -3.84l-0.45 -0.09c0 0 -2.08 6.05 -2.31 6.72c-2.85 -0.36 -5.67 -0.5 -8.39 -0.37c-0.3 -0.38 -6.03 -7.62 -6.03 -7.62l-0.27 0.01z
           M181.05 72.48c0.34 0.43 6.01 7.59 6.01 7.59l0.27 -0.01c2.86 -0.16 5.86 -0.03 8.9 0.38l0.42 0.05c0 0 2 -5.81 2.27 -6.61c3.84 0.85 7.66 2.04 11.38 3.55c-0.01 0.66 -0.14 6.92 -0.14 6.92l0.31 0.13c3.01 1.31 5.94 2.88 8.71 4.67l0.24 0.15c0 0 6.22 -2.9 6.74 -3.15c3.03 2.16 5.96 4.59 8.69 7.22c-0.51 0.66 -4.22 5.41 -4.22 5.41l0.29 0.32c2.31 2.54 4.35 5.25 6.06 8.05l0.11 0.19c0 0 9.95 2.12 10.41 2.22c1.98 3.54 3.55 7.17 4.67 10.8c-0.71 0.69 -2.72 2 -4.56 3.18c-1.74 1.12 -3.4 2.18 -4.26 2.9l-0.19 0.16l0.02 0.79l-0.09 2.28c0 0.08 0.01 0.25 0.01 0.25l0.01 0.23c0 0 10.39 7.74 10.88 8.11c-0.41 3.4 -1.29 6.66 -2.62 9.67c-0.2 0.16 -9.33 7.97 -9.84 8.41c-0.53 -0.29 -5.15 -2.8 -5.15 -2.8c0 0 4.09 7.16 4.42 7.73c-1.83 2.09 -9.9 10.82 -9.99 10.91c0.03 -0.03 -3.99 2.83 -7.74 3.83c-0.38 -0.49 -7.26 -9.33 -7.26 -9.33l-0.34 0.1c-2.42 0.74 -7.66 0.86 -7.71 0.86l-0.43 0l-0.13 0.35c0 0 -0.17 1.13 -0.17 1.13c-0 -0.02 -0.76 1.19 -0.76 1.19c0 0 -5.31 8.5 -5.63 9.01c-3.08 -0.1 -7.22 -1.15 -13.3 -3.39c-0.06 -0.59 -1.65 -14.7 -1.65 -14.7l-0.33 -0.09c-1.46 -0.41 -6.87 -3.73 -8.83 -4.98l-0.29 -0.18c0 0 -10.53 7.29 -10.98 7.6c-2.13 -0.72 -8.68 -6.8 -11.53 -10.43c0.23 -0.55 4.71 -11.11 4.71 -11.11c0.01 -0 1.43 -1.63 1.43 -1.63l0.25 -0.29l-0.2 -0.32c-0.96 -1.56 -2.75 -4.61 -3.93 -7.49l-0.12 -0.29c0 0 -11.18 -0.98 -11.22 -0.98c-0.1 -0.77 -1.41 -11.13 -1.43 -11.27c0.01 -0.13 1.85 -12.7 1.96 -13.49c0.79 -0.04 14.16 -0.83 14.16 -0.83c0 0 -8.63 -5.81 -9.09 -6.12c0.17 -3.61 0.49 -9.98 0.57 -10.92c1.7 -2.55 3.78 -4.85 6.18 -6.87c0.61 0.29 11.09 5.4 11.09 5.4l2.45 -1.79l0.01 -0.28c-0.01 -1.09 -0.03 -3.39 -0.03 -5.65c0 -1.92 0.01 -3.79 0.06 -4.91c3.3 -0.99 6.82 -1.63 10.46 -1.9z"
  />
  <linearGradient id="gradient3" gradientUnits="userSpaceOnUse" x1="248.17" y1="147.22" x2="150.16" y2="91.29">
   <stop offset="0" stop-color="#c5cad3"/>
   <stop offset="0.2527" stop-color="#787e87"/>
   <stop offset="0.4291" stop-color="#9398a1"/>
   <stop offset="0.6534" stop-color="#aeb4bd"/>
   <stop offset="0.8511" stop-color="#bfc4cd"/>
   <stop offset="1" stop-color="#c5cad3"/>
  </linearGradient>
  <path style="fill:url(#gradient3)"
        d="M161.35 94.96c-1.46 3.05 -1.88 6.67 -2.13 10.08l-14.51 0.84c-0.19 4.15 0.79 7.92 1.87 12.22l14.77 0.85c1.46 3.93 4.4 8.8 7.1 12.5l-8.52 10.22c2.47 3.04 3.88 5.32 8.66 9.23c0 0 -0.14 0 11.65 -8.09c2.41 2.41 9.62 5.86 12.93 7.24l0.42 14.91c5.08 1.79 7.71 2.26 12.78 2.84c0.54 -3.58 1.89 -13.28 1.99 -13.92c3.82 0.22 9.54 -0.1 13.07 -0.85l8.66 12.78c2.55 -0.71 8.44 -3.79 9.8 -4.83c-1.29 -2.31 -5.66 -10.58 -7.1 -13.07c2.12 -1.72 4.89 -4.65 6.39 -6.96c0.05 -0.08 12.36 6.53 12.36 6.53c1.42 -3.19 2.64 -5.8 3.05 -9.38l-11.86 -8.94c0.24 -1.88 0.28 -6.45 -0.14 -8.66l10.22 0.04c-1.17 -3.86 -2.83 -7.69 -4.93 -11.4c-2.38 -0.51 -9 -1.92 -10.43 -2.22c-1.72 -2.83 -3.78 -5.56 -6.11 -8.13l4.25 -5.44c-2.86 -2.78 -5.98 -5.4 -9.34 -7.77l-6.77 3.16c-2.86 -1.85 -5.81 -3.41 -8.79 -4.71l0.14 -6.94c-4.07 -1.67 -8.17 -2.93 -12.24 -3.81l-2.29 6.66c-3.07 -0.42 -6.08 -0.55 -9 -0.39l-6.02 -7.6c-3.82 0.26 -7.63 0.68 -11.08 1.73l4.86 8.59c-2.57 1.08 -4.93 2.46 -7.03 4.16c-1.79 -0.86 -8.7 -4.22 -11.13 -5.42c-2.52 2.09 -4.75 4.52 -6.59 7.31
           M228.89 132.68c-7.19 11.09 -25.3 12.13 -40.43 2.31c-15.13 -9.82 -21.55 -26.78 -14.35 -37.87c7.2 -11.09 25.3 -12.13 40.44 -2.31c15.13 9.82 21.55 26.78 14.34 37.87z"
  />
  <path style="fill:#ffffff"
        d="M192.46 164.51l-5.64 11.82l6.81 -10.23"
  />
  <path style="fill:#ffffff"
        d="M229.23 166.96l-6.18 9.59l7.77 -9.37"
  />
  <path style="fill:#ffffff"
        d="M168.27 152.15l-3.09 12.04l4.36 -12.14"
  />
  <path style="fill:#ffffff"
        d="M145.89 117.94l-1.7 13.53l2.34 -12.78"
  />
  <path style="fill:#ffffff"
        d="M213.84 94.31c-15.07 -9.32 -32.94 -8.28 -40.06 3.32c-0.95 1.55 -1.62 3.37 -2.06 5.09c0.43 -1.36 1.16 -2.62 1.92 -3.87c6.81 -11.13 24.59 -12.67 39.71 -3.41c15.12 9.25 21.85 25.77 15.04 36.92c-1.16 1.9 -2.65 3.51 -4.39 4.85c2.1 -1.39 3.88 -3.17 5.21 -5.35c6.81 -11.14 0.88 -27.5 -15.37 -37.55z"
  />
  <path style="fill:#000000"
        d="M52.55 78.58c-6.22 2.91 -9.97 7.81 -10.83 14.18l-0.01 0.08l-0.05 1.71c-0.29 6.57 -0.8 17.58 24.67 34.12c9.44 6.13 21.7 7.65 36.43 4.52l0.16 -0.03l0.15 -0.06c0.31 -0.13 7.65 -3.38 9.95 -8.44l0.02 -0.06l0.02 -0.06c4.73 -13.36 -4.58 -31.04 -22.16 -42.03c-11.6 -7.25 -27.73 -8.89 -38.36 -3.91z
           M53.95 81.57c9.53 -4.46 24.66 -2.86 35.21 3.72c13.37 8.36 21.81 21.16 21.81 31.99c0 2.11 -0.32 4.14 -0.99 6.06c-1.47 3.13 -6.18 5.79 -8.07 6.65c-13.77 2.89 -25.14 1.52 -33.79 -4.08c-21.21 -13.77 -23.23 -23.06 -23.23 -29.08c0 -0.75 0.03 -1.46 0.06 -2.12c0 0 0.04 -1.27 0.05 -1.54c0.9 -6.53 5.36 -9.9 8.95 -11.59z"
  />
  <path style="fill:#000000"
        d="M52.33 78.13c-6.38 2.99 -10.22 8.02 -11.12 14.56l-0.01 0.13l-0.05 1.71c-0.03 0.76 -0.07 1.59 -0.07 2.49c0 6.84 2.22 17.3 24.97 32.06c9.55 6.2 21.94 7.75 36.81 4.59c0 -0 0.16 -0.03 0.16 -0.03c0.08 -0.02 0.24 -0.09 0.24 -0.09c0.32 -0.14 7.83 -3.46 10.21 -8.7c0.04 -0.09 0.06 -0.16 0.06 -0.16c4.81 -13.58 -4.59 -31.51 -22.37 -42.62c-11.73 -7.33 -28.06 -8.99 -38.84 -3.94z
           M66.59 128.27c-25.23 -16.38 -24.74 -27.21 -24.44 -33.68c0 -0 0.05 -1.72 0.05 -1.72c0.85 -6.21 4.5 -10.98 10.56 -13.82c10.48 -4.91 26.41 -3.28 37.88 3.88c17.38 10.86 26.62 28.29 21.96 41.44c-2.26 4.97 -9.43 8.15 -9.73 8.28c0 -0 -0.14 0.06 -0.14 0.06c-14.67 3.11 -26.8 1.61 -36.13 -4.44z
           M52.33 78.13v0z"
  />
  <path style="fill:#000000"
        d="M53.74 81.12c-3.69 1.73 -8.29 5.21 -9.23 11.97c-0 0.05 -0.05 1.59 -0.05 1.59c0 0 -0.06 2.14 -0.06 2.14c0 6.64 2.66 16 23.46 29.5c8.76 5.68 20.25 7.08 34.17 4.15c0.36 -0.15 6.58 -3 8.42 -6.93c0.69 -1.99 1.04 -4.08 1.04 -6.27c0 -11.14 -8.86 -24.17 -22.05 -32.41c-10.67 -6.67 -26.02 -8.28 -35.69 -3.75z
           M88.9 85.72c12.91 8.06 21.58 20.75 21.58 31.56c0 2.06 -0.32 4.05 -0.96 5.89c-1.32 2.82 -5.69 5.4 -7.81 6.36c-13.54 2.83 -24.78 1.48 -33.31 -4.05c-20.39 -13.23 -23 -22.27 -23 -28.66l0.06 -2.09c0 -0.01 0.05 -1.56 0.05 -1.56c0.87 -6.26 5.19 -9.52 8.66 -11.15c9.38 -4.4 24.32 -2.81 34.73 3.69z"
  />
  <path style="fill:#000000; fill-opacity:0.1294"
        d="M157.97 128.08c0 0 -10.55 -7.86 -12.78 -9.53c0.01 -0.31 0.01 -0.38 0.02 -0.64c1.08 -0.76 2.56 -1.71 3.93 -2.59c4.19 -2.69 6.13 -3.99 7.1 -5.18c0.48 -0.59 0.74 -1.33 0.74 -2.08c0 -0.31 -0.04 -0.64 -0.14 -0.95c-1.57 -5.17 -3.8 -10.35 -6.65 -15.39c-0.46 -0.82 -1.26 -1.4 -2.18 -1.6c0 0 -11.22 -2.39 -12.18 -2.6c-1.67 -2.62 -3.58 -5.15 -5.65 -7.61c1.61 -2.06 3.86 -4.94 3.86 -4.94c0.46 -0.6 0.69 -1.31 0.69 -2.03c0 -0.86 -0.33 -1.72 -1 -2.37c-3.89 -3.78 -8.08 -7.26 -12.46 -10.36c-0.96 -0.68 -2.22 -0.79 -3.3 -0.29c0 0 -5.05 2.36 -7.17 3.35c-2.64 -1.62 -5.37 -3.09 -8.18 -4.4c0.05 -2.47 0.14 -6.9 0.14 -6.93c0 -1.33 -0.8 -2.54 -2.04 -3.05c-5.33 -2.19 -10.83 -3.9 -16.37 -5.1c-1.63 -0.35 -3.27 0.57 -3.81 2.15c0 0 -1.24 3.61 -2.1 6.12c-2.63 -0.25 -5.24 -0.36 -7.79 -0.29c-1.54 -1.95 -6.75 -8.53 -6.75 -8.53c-0.67 -0.85 -1.73 -1.32 -2.82 -1.24c-4.59 0.32 -9.02 1.14 -13.25 2.3c-0.5 -0.15 -1.02 -0.29 -1.57 -0.18c-1.39 0.27 -2.45 1.42 -2.63 2.83c-0.13 1.11 -0.18 4.28 -0.18 7.91c0 1.66 0.01 3.4 0.02 5.11c-3.13 -1.52 -12.19 -5.94 -12.19 -5.94c-1.16 -0.56 -2.56 -0.4 -3.56 0.41c-3.57 2.95 -6.66 6.38 -9.17 10.16c-0.29 0.44 -0.47 0.94 -0.52 1.47c-0.1 0.96 -0.63 11.64 -0.79 14.89c-0 0.05 -0 0.1 -0 0.16c0 1.09 0.54 2.12 1.45 2.73c0 0 1.5 1.01 2.29 1.54c-3.45 0.2 -7.08 0.41 -7.08 0.41c-1.56 0.09 -2.84 1.27 -3.07 2.82l-2.63 18.06c-0.02 0.15 -0.03 0.31 -0.03 0.47c0 0.13 0 0.27 0.02 0.41l1.93 15.18c0.19 1.54 1.46 2.74 3.01 2.87c0 0 12.33 1.08 12.68 1.11c1.01 2.2 2.16 4.37 3.23 6.21c-0.05 0.07 -0.12 0.09 -0.18 0.18l-1.04 1.68c-0.93 2.48 -2.91 7.29 -5.9 14.29c-0.17 0.41 -0.26 0.85 -0.26 1.29c0 0.71 0.23 1.41 0.67 2c3.09 4.04 13.2 14.27 17.6 15.32c0.91 0.21 1.87 0.03 2.64 -0.49c0 0 9.6 -6.64 12.33 -8.53c2.36 1.47 5.87 3.58 8.42 4.82c0.27 2.42 1.91 17.06 1.91 17.06c0.13 1.23 0.96 2.29 2.13 2.72c8.86 3.29 14.62 4.72 19.25 4.79c1.15 0.02 2.24 -0.57 2.85 -1.55l7.48 -11.97c0.54 -0.86 0.84 -1.35 1.06 -1.73c1.79 -0.1 4.22 -0.3 6.36 -0.67c1.35 1.73 8.09 10.41 8.09 10.41c0.79 1.02 2.11 1.48 3.37 1.18c5.71 -1.37 11.65 -5.63 11.9 -5.81c0.17 -0.12 0.34 -0.27 0.49 -0.43c0.47 -0.51 11.64 -12.59 13.32 -14.57c0.52 -0.61 0.79 -1.37 0.79 -2.13c0 -0.55 -0.14 -1.1 -0.43 -1.61c0 0 -0.57 -0.99 -0.78 -1.36c0.08 -0.05 0.17 -0.08 0.25 -0.14l13.2 -11.28c0.37 -0.31 0.66 -0.71 0.86 -1.16c1.95 -4.39 3.24 -9.15 3.82 -14.14c0.01 -0.12 0.02 -0.25 0.02 -0.37c0 -1.03 -0.48 -2.02 -1.32 -2.64v0z
           M102.26 130.7c-10.69 2.27 -23.27 1.78 -34.29 -5.36c-26.94 -17.49 -24.84 -25.65 -24.79 -31.81c2.47 -18.18 30.16 -19.41 46.69 -9.08c16.52 10.33 26.03 27.27 21.48 40.08c-2.06 4.54 -9.08 6.19 -9.08 6.19z"
  />
  <linearGradient id="gradient4" gradientUnits="userSpaceOnUse" x1="119.33" y1="119.34" x2="119.33" y2="119.34">
   <stop offset="0" stop-color="#ffa800"/>
   <stop offset="1" stop-color="#ffcc00"/>
  </linearGradient>
  <path style="fill:url(#gradient4)"
        d="M119.33 119.34"
  />
  <path style="fill:#9ba1aa"
        d="M30.65 69.41l-9.87 -7.34c-0 0.01 -5.03 -1.21 -5.03 -1.2c-0.1 0.94 -0.77 14.7 -0.77 14.7l12.32 8.29l3.37 -14.45v0z"
  />
  <path style="fill:#d7dadd"
        d="M69.72 141.95l-15.13 -8.38l-14.95 10.28l-14.08 -13.8c-0.2 0.18 0.21 -0.06 -6.16 14.85c3.53 4.61 12.89 13.43 15.75 14.12c14.12 -9.77 14.12 -9.77 14.12 -9.77c0 0 9.18 5.83 11.58 6.51c2.13 18.95 0 0 2.13 18.95c7.46 2.76 13.51 4.51 18.16 4.59c8.57 -13.78 8.54 -13.57 8.57 -13.78l-19.78 -4.62l-0.2 -18.95z"
  />
  <path style="fill:#c5cad3"
        d="M106.77 146.38l-14.32 0.97l-3.4 15.76c0 0 0.97 1.03 0.97 1.03c0 0 6.88 -0.15 10.14 -1.14c9.37 12.05 0 0 9.37 12.05c5.15 -1.23 10.75 -5.27 10.75 -5.27c0 0 11.57 -12.52 13.23 -14.47l-15.34 7.84l-11.4 -16.77h-0v-0z"
  />
  <path style="fill:#d7dadd"
        d="M135.86 111.25c1.35 -1.66 10.87 -6.94 12.32 -8.72l-12.81 -0.07l0.48 8.8z"
  />
  <path style="fill:#d7dadd"
        d="M119.54 141.95l14.19 7.72l13.2 -11.27l-15.85 -9.24"
  />
  <path style="fill:#9ba1aa"
        d="M41.34 41.77c-0.27 2.22 -0.1 15.75 -0.1 15.75c-0 0 0 -0 0 0l6.49 -4.47c0 0 -6.38 -11.27 -6.38 -11.27v0z"
  />
  <path style="fill:#c5cad3"
        d="M29.23 101.81l-17.83 -1.7l-2.87 -16.53l-2.63 18.06l1.93 15.18c0 0 0 0 14.63 1.28c2.35 5.74 6.51 11.95 6.51 11.95l7.36 -12.24l-7.1 -16v0z"
  />
  <path style="fill:#d7dadd"
        d="M8.39 83.93l-1.45 17.97l0.87 14.91l2.44 -16.81"
  />
  <path style="fill:#c5cad3"
        d="M29.23 101.81l-6.77 16.29l6.87 11.95l8.01 -13.36l-8.12 -14.88"
  />
  <linearGradient id="gradient5" gradientUnits="userSpaceOnUse" x1="48.55" y1="167.16" x2="48.55" y2="39.4">
   <stop offset="0" stop-color="#ffcd00"/>
   <stop offset="1" stop-color="#fff332"/>
  </linearGradient>
  <path style="fill:url(#gradient5)"
        d="M55.51 39.4l-14.16 2.37l0.27 0.49c4.45 -1.35 9.19 -2.21 14.13 -2.56l-0.24 -0.3l0 0z"
  />
  <linearGradient id="gradient6" gradientUnits="userSpaceOnUse" x1="8.5" y1="159.92" x2="150.84" y2="159.92">
   <stop offset="0" stop-color="#ffcd00"/>
   <stop offset="1" stop-color="#fff332"/>
  </linearGradient>
  <path style="fill:url(#gradient6)"
        d="M127.91 158.98c-1.21 0.61 -2.49 1.26 -3.69 1.87c1.27 -0.57 2.5 -1.2 3.69 -1.87z"
  />
  <path style="fill:#ffffff"
        d="M136.33 114.67l-0.01 -0.22c0.07 -0.99 0.12 -1.99 0.12 -3c0 -2.72 -0.29 -5.52 -0.85 -8.37l12.59 -0.53c-1.51 -4.99 -3.66 -9.93 -6.36 -14.73c-3.07 -0.66 -11.62 -2.48 -13.47 -2.87c-2.23 -3.65 -4.89 -7.18 -7.9 -10.5l5.49 -7.03c-3.7 -3.6 -7.73 -6.97 -12.06 -10.03l-8.74 4.08c-3.7 -2.39 -7.51 -4.41 -11.35 -6.08l0.18 -8.97c-5.25 -2.16 -10.55 -3.79 -15.81 -4.92l-2.95 8.6c-3.96 -0.54 -7.86 -0.71 -11.62 -0.5l-7.77 -9.82c-4.93 0.34 -9.67 1.2 -14.13 2.56l6.1 10.77c-3.32 1.39 -6.37 3.18 -9.08 5.38c-2.31 -1.12 -11.23 -5.46 -14.38 -7.01c-3.26 2.7 -6.13 5.84 -8.52 9.44l13.78 9.06c-1.89 3.94 -2.96 8.19 -3.28 12.6l-17.72 1.03c-0.25 5.36 0.35 10.88 1.74 16.43l18.96 1.8c1.89 5.08 4.63 10.1 8.12 14.88l-11.59 13.28c4 4.92 8.63 9.59 13.87 13.86l14.95 -10.28l0.05 0.03c0.86 0.6 1.73 1.2 2.63 1.78c3.99 2.59 8.17 4.78 12.44 6.56l0.2 18.95c6.56 2.31 13.23 3.87 19.78 4.62c0.69 -4.62 2.61 -17.34 2.73 -18.16c4.94 0.29 9.77 -0.01 14.32 -0.97l11.4 16.76c2.09 -0.66 4.1 -1.42 6.03 -2.29c1.2 -0.61 2.47 -1.25 3.69 -1.87c1.97 -1.1 3.85 -2.32 5.61 -3.67c-1.67 -2.99 -7.79 -13.59 -9.65 -16.8c2.74 -2.23 5.11 -4.85 7.04 -7.83c0.06 -0.1 0.12 -0.22 0.19 -0.33l15.82 8.05c1.84 -4.13 3.02 -8.55 3.55 -13.17l-14.15 -10.55v-0z
           M117.25 118.16c-9.3 14.33 -32.68 15.66 -52.22 2.98c-19.54 -12.68 -27.83 -34.58 -18.53 -48.91c9.3 -14.33 32.68 -15.66 52.22 -2.98c19.53 12.68 27.83 34.58 18.53 48.91z"
  />
  <path style="fill:#9ba1aa"
        d="M39.63 143.85l-4.5 15.17l14.12 -9.77l5.33 -15.68l-14.95 10.28"
  />
  <path style="fill:#ffffff; fill-opacity:0.4"
        d="M60.83 155.76l8.88 -13.81l0.2 18.95l-6.95 13.81l-2.13 -18.96"
  />
  <path style="fill:#ffffff; fill-opacity:0.4"
        d="M106.68 146.67l-6.51 16.33l9.37 12.05l8.63 -11.9l-11.49 -16.48"
  />
  <path style="fill:#787e87; fill-opacity:0.498"
        d="M10.26 100.01l-2.44 16.81l14.63 1.28l6.77 -16.29"
  />
  <path style="fill:#000000"
        d="M152.46 122.57c0 0 -10.54 -7.86 -12.78 -9.53c0.01 -0.32 0.01 -0.37 0.02 -0.64c1.08 -0.76 2.56 -1.71 3.93 -2.59c4.19 -2.69 6.12 -3.99 7.09 -5.18c0.48 -0.59 0.74 -1.33 0.74 -2.08c0 -0.32 -0.04 -0.64 -0.14 -0.95c-1.56 -5.18 -3.8 -10.36 -6.64 -15.39c-0.46 -0.82 -1.25 -1.4 -2.18 -1.6c0 0 -11.22 -2.39 -12.19 -2.6c-1.68 -2.62 -3.58 -5.15 -5.65 -7.61c1.61 -2.06 3.86 -4.94 3.86 -4.94c0.47 -0.6 0.69 -1.31 0.69 -2.03c0 -0.86 -0.33 -1.72 -1 -2.36c-3.89 -3.78 -8.08 -7.27 -12.46 -10.36c-0.96 -0.68 -2.22 -0.79 -3.3 -0.29c0 0 -5.05 2.36 -7.17 3.35c-2.64 -1.62 -5.37 -3.09 -8.18 -4.4c0.05 -2.47 0.14 -6.9 0.14 -6.92c0 -1.33 -0.8 -2.54 -2.04 -3.05c-5.33 -2.19 -10.84 -3.9 -16.37 -5.1c-1.63 -0.35 -3.27 0.57 -3.81 2.15c0 0 -1.24 3.61 -2.1 6.12c-2.63 -0.25 -5.24 -0.36 -7.79 -0.29c-1.54 -1.95 -6.75 -8.53 -6.75 -8.53c-0.67 -0.85 -1.73 -1.32 -2.82 -1.24c-4.59 0.32 -9.07 0.84 -13.3 2.01c-0.95 0.23 -1.36 0.36 -1.91 0.47c-1.39 0.27 -2.06 1.05 -2.24 2.46c-0.13 1.11 -0.18 4.28 -0.18 7.91c0 1.66 0.01 3.4 0.02 5.11c-3.13 -1.52 -12.19 -5.94 -12.19 -5.94c-1.16 -0.56 -2.56 -0.4 -3.56 0.41c-3.57 2.95 -6.66 6.38 -9.17 10.16c-0.29 0.44 -0.47 0.94 -0.52 1.47c-0.1 0.96 -0.63 11.64 -0.78 14.9c-0 0.05 -0 0.1 -0 0.16c0 1.09 0.54 2.12 1.45 2.73c0 0 1.5 1.01 2.29 1.54c-3.45 0.2 -7.08 0.41 -7.08 0.41c-1.56 0.09 -2.84 1.26 -3.07 2.81l-2.63 18.06c-0.02 0.15 -0.03 0.31 -0.03 0.47c0 0.13 0 0.27 0.02 0.41l1.93 15.18c0.19 1.54 1.46 2.74 3.01 2.87c0 0 12.33 1.08 12.68 1.11c1.01 2.2 2.16 4.36 3.23 6.21c-0.05 0.07 -0.12 0.09 -0.18 0.18l-1.04 1.68c-0.93 2.48 -2.91 7.29 -5.9 14.29c-0.17 0.41 -0.26 0.85 -0.26 1.29c0 0.71 0.23 1.42 0.68 2c3.09 4.04 13.2 14.27 17.6 15.33c0.91 0.21 1.87 0.03 2.64 -0.49c0 0 9.6 -6.64 12.33 -8.53c2.36 1.46 5.87 3.57 8.42 4.82c0.27 2.42 1.91 17.06 1.91 17.06c0.14 1.23 0.96 2.29 2.13 2.72c8.86 3.28 14.62 4.72 19.25 4.79c1.15 0.02 2.24 -0.57 2.85 -1.55l7.48 -11.97c0.54 -0.86 0.84 -1.35 1.06 -1.73c1.79 -0.1 4.22 -0.3 6.35 -0.67c1.35 1.73 8.09 10.41 8.09 10.41c0.79 1.02 2.11 1.48 3.37 1.18c5.72 -1.37 11.65 -5.63 11.9 -5.8c0.17 -0.13 0.34 -0.27 0.49 -0.43c0.47 -0.51 11.65 -12.6 13.32 -14.57c0.51 -0.61 0.79 -1.37 0.79 -2.13c0 -0.55 -0.14 -1.1 -0.43 -1.6c0 0 -0.56 -0.99 -0.78 -1.36c0.08 -0.05 0.17 -0.08 0.25 -0.14l13.2 -11.27c0.37 -0.31 0.66 -0.71 0.86 -1.16c1.95 -4.39 3.24 -9.15 3.81 -14.14c0.01 -0.12 0.02 -0.25 0.02 -0.37c0 -1.03 -0.48 -2.02 -1.32 -2.65v0z
           M146.93 138.39l-13.2 11.27l-4.97 -2.71c1.97 3.43 3.93 6.85 4.77 8.34c-1.64 1.94 -13.23 14.47 -13.23 14.47c0 0 -5.59 4.03 -10.74 5.27c-9.37 -12.05 0 0 -9.37 -12.05c-3.25 0.99 -10.14 1.14 -10.14 1.14c0 0 -0.04 -0.04 -0.09 -0.09c-0.08 0.55 -0.15 1.04 -0.22 1.47c-0.03 0.2 0 0 -8.58 13.78c-4.64 -0.07 -10.69 -1.82 -18.15 -4.59c-2.13 -18.95 0 0 -2.13 -18.95c-2.39 -0.67 -11.58 -6.51 -11.58 -6.51c0 0 0 0 -14.12 9.77c-2.85 -0.68 -12.22 -9.5 -15.75 -14.12c6.43 -15 6.15 -14.71 6.35 -14.89c0 0 0.04 0.02 0.02 -0.02l1.83 -2.1c-1.42 -2.31 -3.64 -6.13 -5.13 -9.77l-2.76 -0.24c-0.87 -0.07 -1.68 -0.14 -2.43 -0.21l-1.36 -0.12c-0.54 -0.04 -1.04 -0.09 -1.51 -0.13l-1.5 -0.13c-0.89 -0.07 -1.63 -0.14 -2.23 -0.19l-0.98 -0.08c-0.13 -0.01 -0.25 -0.02 -0.37 -0.03l-0.54 -0.05c-0.08 -0 -0.16 -0.01 -0.23 -0.01l-0.3 -0.02c-0.1 -0 -0.17 -0.01 -0.23 -0.01l-0.11 -0.01c-0.01 -0 -0.01 -0 -0.01 -0l-1.93 -15.18l2.63 -18.05l16.85 -0.98l-10.41 -7c0 0 0.67 -13.76 0.77 -14.7c2.38 -3.6 5.25 -6.74 8.52 -9.44c3.14 1.54 12.06 5.88 14.38 7c0.82 -0.66 1.69 -1.28 2.58 -1.88c-0.03 -3.14 -0.11 -12.9 0.11 -14.77c0 0 0.1 0.18 0.27 0.49c4.45 -1.35 9.19 -2.21 14.13 -2.56l7.77 9.82c3.76 -0.21 7.66 -0.04 11.62 0.5l2.95 -8.6c5.25 1.13 10.55 2.76 15.81 4.92l-0.18 8.97c3.84 1.67 7.65 3.69 11.35 6.08l8.74 -4.08c4.33 3.06 8.36 6.43 12.06 10.03l-5.49 7.03c3.01 3.32 5.66 6.85 7.9 10.5c1.85 0.39 10.39 2.21 13.47 2.87c2.7 4.79 4.85 9.74 6.36 14.73c-1.32 1.62 -9.31 6.14 -11.75 8.19c0 0.23 0.01 0.48 0.01 0.71c0 1.01 -0.04 2.01 -0.12 3l0.01 0.22l14.15 10.55c-0.53 4.62 -1.71 9.04 -3.55 13.17v0h0z"
  />
  <linearGradient id="gradient7" gradientUnits="userSpaceOnUse" x1="142.15" y1="136.93" x2="15.57" y2="64.7">
   <stop offset="0" stop-color="#c5cad3"/>
   <stop offset="0.2527" stop-color="#787e87"/>
   <stop offset="0.4291" stop-color="#9398a1"/>
   <stop offset="0.6534" stop-color="#aeb4bd"/>
   <stop offset="0.8511" stop-color="#bfc4cd"/>
   <stop offset="1" stop-color="#c5cad3"/>
  </linearGradient>
  <path style="fill:url(#gradient7)"
        d="M135.16 113.66c0.31 -2.43 0.37 -8.33 -0.18 -11.19l13.2 0.05c-1.51 -4.99 -3.66 -9.93 -6.36 -14.73c-3.07 -0.66 -11.62 -2.48 -13.47 -2.87c-2.23 -3.65 -4.89 -7.18 -7.9 -10.5l5.49 -7.03c-3.7 -3.6 -7.73 -6.97 -12.06 -10.03l-8.74 4.08c-3.7 -2.39 -7.51 -4.41 -11.35 -6.08l0.18 -8.97c-5.25 -2.16 -10.55 -3.79 -15.81 -4.92l-2.95 8.6c-3.96 -0.54 -7.86 -0.71 -11.62 -0.5l-7.77 -9.82c-4.93 0.34 -9.85 0.88 -14.31 2.24l6.28 11.09c-3.32 1.39 -6.37 3.18 -9.08 5.38c-2.31 -1.12 -11.23 -5.46 -14.38 -7.01c-3.26 2.7 -6.14 5.84 -8.52 9.44l14.28 8.57c-1.88 3.94 -2.42 8.61 -2.75 13.02l-18.75 1.09c-0.25 5.36 1.02 10.23 2.41 15.78l19.08 1.1c1.89 5.08 5.68 11.37 9.17 16.14l-11 13.21c3.19 3.93 5.01 6.87 11.19 11.92c0 0 -0.18 0 15.04 -10.46c3.11 3.11 12.43 7.57 16.69 9.36l0.55 19.26c6.56 2.31 9.95 2.92 16.51 3.66c0.69 -4.62 2.44 -17.15 2.56 -17.98c4.94 0.29 12.33 -0.13 16.87 -1.1l11.19 16.51c3.3 -0.91 10.89 -4.89 12.66 -6.23c-1.67 -2.99 -7.31 -13.66 -9.17 -16.88c2.74 -2.23 6.32 -6.01 8.25 -8.98c0.07 -0.1 15.96 8.43 15.96 8.43c1.84 -4.12 3.41 -7.48 3.94 -12.11l-15.32 -11.55v0z
           M117.25 118.16c-9.3 14.33 -32.68 15.66 -52.22 2.98c-19.54 -12.68 -27.83 -34.58 -18.53 -48.91c9.3 -14.33 32.68 -15.66 52.22 -2.98c19.53 12.68 27.83 34.58 18.53 48.91z"
  />
  <path style="fill:#ffffff"
        d="M70.2 159.26l-7.29 15.27l8.8 -13.21"
  />
  <path style="fill:#ffffff"
        d="M117.68 162.43l-7.98 12.38l10.04 -12.11"
  />
  <path style="fill:#ffffff"
        d="M38.96 143.3l-3.99 15.55l5.64 -15.68"
  />
  <path style="fill:#ffffff"
        d="M10.06 99.12l-2.2 17.47l3.02 -16.51"
  />
  <path style="fill:#ffffff"
        d="M97.81 68.61c-19.47 -12.03 -42.54 -10.69 -51.74 4.29c-1.22 2 -2.1 4.35 -2.66 6.58c0.55 -1.76 1.49 -3.38 2.48 -4.99c8.8 -14.38 31.76 -16.36 51.29 -4.41c19.52 11.94 28.22 33.29 19.42 47.68c-1.5 2.45 -3.43 4.54 -5.67 6.27c2.71 -1.8 5.01 -4.09 6.73 -6.91c8.8 -14.38 1.14 -35.51 -19.86 -48.5z"
  />
  <linearGradient id="gradient8" gradientUnits="userSpaceOnUse" x1="248.62" y1="147.01" x2="150.6" y2="91.08">
   <stop offset="0" stop-color="#c5cad3"/>
   <stop offset="0.2527" stop-color="#787e87"/>
   <stop offset="0.4291" stop-color="#9398a1"/>
   <stop offset="0.6534" stop-color="#aeb4bd"/>
   <stop offset="0.8511" stop-color="#bfc4cd"/>
   <stop offset="1" stop-color="#c5cad3"/>
  </linearGradient>
  <path style="fill:url(#gradient8)"
        d="M243.2 128.99c0.24 -1.88 0.29 -6.45 -0.14 -8.66l10.22 0.04c-1.17 -3.86 -2.83 -7.69 -4.93 -11.4c-2.38 -0.51 -9 -1.92 -10.43 -2.22c-1.73 -2.83 -3.78 -5.56 -6.12 -8.13l4.25 -5.44c-2.86 -2.78 -5.99 -5.4 -9.34 -7.77l-6.77 3.16c-2.86 -1.85 -5.81 -3.41 -8.79 -4.71l0.14 -6.94c-4.07 -1.67 -8.17 -2.93 -12.24 -3.81l-2.29 6.66c-3.07 -0.42 -6.08 -0.55 -9 -0.39l-6.02 -7.6c-3.82 0.26 -7.63 0.68 -11.08 1.73l4.86 8.59c-2.57 1.08 -4.93 2.46 -7.03 4.16c-1.79 -0.86 -8.7 -4.22 -11.13 -5.42c-2.52 2.09 -4.75 4.52 -6.6 7.31l11.06 6.64c-1.46 3.05 -1.88 6.67 -2.13 10.08l-14.51 0.84c-0.19 4.15 0.79 7.92 1.87 12.22l14.77 0.85c1.46 3.93 4.4 8.8 7.1 12.5l-8.52 10.22c2.47 3.04 3.88 5.32 8.66 9.23c0 0 -0.14 0 11.64 -8.1c2.41 2.41 9.62 5.86 12.92 7.24l0.42 14.91c5.08 1.79 7.71 2.26 12.78 2.84c0.54 -3.58 1.89 -13.28 1.99 -13.92c3.82 0.22 9.54 -0.1 13.07 -0.85l8.66 12.78c2.55 -0.7 8.44 -3.79 9.8 -4.83c-1.29 -2.31 -5.66 -10.58 -7.1 -13.07c2.12 -1.72 4.89 -4.65 6.39 -6.96c0.05 -0.08 12.36 6.53 12.36 6.53c1.42 -3.19 2.64 -5.8 3.05 -9.38l-11.86 -8.94v0z
           M229.34 132.47c-7.2 11.09 -25.31 12.13 -40.43 2.31c-15.13 -9.82 -21.55 -26.77 -14.35 -37.87c7.2 -11.09 25.3 -12.13 40.44 -2.31c15.13 9.82 21.55 26.78 14.35 37.87z"
  />
 </g>
</svg>
