<?xml version="1.0" encoding="UTF-8" standalone="no"?>
<!-- Created with Inkscape (http://www.inkscape.org/) -->

<svg
   xmlns:svg="http://www.w3.org/2000/svg"
   xmlns="http://www.w3.org/2000/svg"
   version="1.1"
   width="126"
   height="126"
   viewBox="-0.383 -0.148 126 126"
   id="svg2"
   xml:space="preserve"
   style="overflow:visible"><defs
   id="defs170" />
	<g
   id="Layer_2_2_">
		<path
   d="m 125.728,23.887 v -9.512 l -3.167,-5.453 -1.119,-0.7 0.085,-1.775 -3.023,-6.447 -1.26,1.087 -11.963,0.216 -3.084,3.704 c 0,0 0,1.635 0,2.151 -1.643,0.281 -5.79,0.99 -5.79,0.99 0,0 0,3.021 0,3.505 -1.103,0.409 -4.165,1.546 -4.165,1.546 v 4.441 l 0.812,2.169 -3.005,0.514 c 0,0 -3.765,1.773 -4.081,2.054 l -1.01,0.896 v 3.634 c 0,0 0.369,1.14 0.592,1.827 -1.458,0.249 -8.885,1.518 -8.885,1.518 l -2.211,2.658 c 0,0 0,1.578 0,2.065 -0.328,0.056 -2.008,0.343 -2.008,0.343 l -1.937,2.325 v 3.317 l 1.987,6.278 -1.373,0.893 -10.899,1.863 c 0,0 -1.763,2.117 -2.757,3.31 -3.261,-1.367 -6.864,-0.849 -8.675,1.326 0,0 -0.201,0.241 -0.461,0.554 -3.681,-0.982 -7.847,0.048 -10.071,2.719 0,0 -0.956,1.147 -1.811,2.174 C 24.64,56.384 11.097,59.521 4.176,67.83 1.457,71.094 0.013,74.882 0,78.783 c 0,0 0.064,-0.064 0.067,-0.067 C 0.007,79.224 0,79.701 0,80.048 l 0,6.777 c 0.12,7.283 4.985,13.812 13.024,17.511 0.507,0.232 1.097,0.411 1.641,0.622 0,1.394 0,2.86 0,2.861 -0.012,0.223 -0.022,0.445 -0.022,0.667 0,5.729 3.828,11.007 10.175,13.926 7.92,3.645 17.933,2.677 24.504,-1.991 1.24,0.844 2.542,1.632 3.967,2.288 12.46,5.732 28.286,2.94 36.027,-6.356 2.586,-3.105 4.023,-6.712 4.156,-10.431 l 0.011,-0.279 -0.002,-0.151 0.002,-7.475 c 0.003,-0.12 0.004,-0.24 0.004,-0.36 0,-3.84 -1.414,-7.636 -4.104,-10.938 C 89.378,86.714 88.659,85.877 88.659,85.877 88.61,85.824 87.868,85.05 87.868,85.05 87.8,84.983 87.02,84.252 87.02,84.252 l -0.086,-0.078 c 0,0 -0.309,-0.26 -0.552,-0.466 0,-1.273 0,-7.433 0,-7.433 l -0.058,-0.181 c -0.125,-1.026 -0.577,-1.965 -1.169,-2.843 0,-0.249 0,-0.327 0,-0.646 1.324,-1.589 40.573,-48.718 40.573,-48.718 z m -93.737,80.85 c 1.509,-1.078 4.743,-1.077 6.468,0.216 -1.51,1.078 -4.528,1.509 -6.468,-0.216 z"
   id="path5" />
		<linearGradient
   x1="8.5775995"
   y1="86.399902"
   x2="17.8818"
   y2="86.399902"
   id="XMLID_1_"
   gradientUnits="userSpaceOnUse">
			<stop
   id="stop8"
   style="stop-color:#e6e6e6;stop-opacity:1"
   offset="0" />
			<stop
   id="stop10"
   style="stop-color:#525252;stop-opacity:1"
   offset="1" />
			<midPointStop
   id="midPointStop12"
   style="stop-color:#E6E6E6"
   offset="0" />
			<midPointStop
   id="midPointStop14"
   style="stop-color:#E6E6E6"
   offset="0.5" />
			<midPointStop
   id="midPointStop16"
   style="stop-color:#525252"
   offset="1" />
		</linearGradient>
		<path
   d="M 21.242,101.097 21.107,95.698 6.482,69.905 c -2.309,2.772 -3.43,5.842 -3.475,8.889 H 3 v 8.031 h 0.009 c 0.089,5.807 4.083,11.479 11.269,14.785 1.098,0.505 2.232,0.927 3.387,1.284 l 3.577,-1.797 z"
   id="path18"
   style="fill:url(#XMLID_1_)" />
		<linearGradient
   x1="48.818802"
   y1="68.798798"
   x2="68.125"
   y2="68.798798"
   id="XMLID_2_"
   gradientUnits="userSpaceOnUse">
			<stop
   id="stop21"
   style="stop-color:#e6e6e6;stop-opacity:1"
   offset="0" />
			<stop
   id="stop23"
   style="stop-color:#525252;stop-opacity:1"
   offset="1" />
			<midPointStop
   id="midPointStop25"
   style="stop-color:#E6E6E6"
   offset="0" />
			<midPointStop
   id="midPointStop27"
   style="stop-color:#E6E6E6"
   offset="0.5" />
			<midPointStop
   id="midPointStop29"
   style="stop-color:#525252"
   offset="1" />
		</linearGradient>
		<path
   d="m 49.296,116.714 c 1.492,1.24 3.243,2.348 5.246,3.27 11.118,5.115 25.654,2.631 32.467,-5.551 2.24,-2.689 3.358,-5.659 3.464,-8.617 h 0.009 v -0.173 c 0.001,-0.061 -0.001,-0.121 0,-0.182 v -7.676 h -0.01 c 0.024,-4.677 -2.479,-9.288 -7.158,-12.672 -0.069,0.349 -0.013,-0.009 0,0 0.012,-0.06 0.022,-0.136 0.031,-0.215 0.023,-0.197 0.036,-0.41 0.036,-0.41 v -8.03 h -0.036 c -0.101,-0.814 -0.51,-1.603 -1.19,-2.267 v -3.583 l 0.01,0.901 40.563,-48.707 v -7.629 l -43.003,51.637 0.104,0.047 c -1.327,0.812 -1.013,2.302 -1.013,2.302 l 0.988,15.33 c 0,0 -29.081,25.784 -30.508,24.597 v 7.628 z"
   id="path31"
   style="fill:url(#XMLID_2_)" />
		<linearGradient
   x1="19.9604"
   y1="106.5605"
   x2="37.871101"
   y2="114.4688"
   id="XMLID_3_"
   gradientUnits="userSpaceOnUse">
			<stop
   id="stop34"
   style="stop-color:#e6e6e6;stop-opacity:1"
   offset="0" />
			<stop
   id="stop36"
   style="stop-color:#525252;stop-opacity:1"
   offset="1" />
			<midPointStop
   id="midPointStop38"
   style="stop-color:#E6E6E6"
   offset="0" />
			<midPointStop
   id="midPointStop40"
   style="stop-color:#E6E6E6"
   offset="0.5" />
			<midPointStop
   id="midPointStop42"
   style="stop-color:#525252"
   offset="1" />
		</linearGradient>
		<path
   d="m 49.296,109.085 c -18.317,13.074 -28.054,-8.143 -28.054,-8.143 l -3.577,-0.021 v 6.898 c -0.311,4.621 2.694,9.239 8.406,11.866 7.771,3.576 17.767,2.199 23.226,-2.973 v -7.627 z"
   id="path44"
   style="fill:url(#XMLID_3_)" />
		<linearGradient
   x1="42.538101"
   y1="99.665001"
   x2="34.1646"
   y2="99.665001"
   id="XMLID_4_"
   gradientUnits="userSpaceOnUse">
			<stop
   id="stop47"
   style="stop-color:#e6e6e6;stop-opacity:1"
   offset="0" />
			<stop
   id="stop49"
   style="stop-color:#525252;stop-opacity:1"
   offset="1" />
			<midPointStop
   id="midPointStop51"
   style="stop-color:#E6E6E6"
   offset="0" />
			<midPointStop
   id="midPointStop53"
   style="stop-color:#E6E6E6"
   offset="0.5" />
			<midPointStop
   id="midPointStop55"
   style="stop-color:#525252"
   offset="1" />
		</linearGradient>
		<path
   d="m 39.949,102.946 c 1.058,0.486 1.929,1.111 2.603,1.82 0.108,-0.112 0.22,-0.223 0.319,-0.343 2.555,-3.068 1.248,-7.111 -2.922,-9.03 -4.17,-1.919 -9.621,-0.986 -12.176,2.081 -1.907,2.29 -1.66,5.122 0.32,7.209 2.667,-2.786 7.849,-3.58 11.856,-1.737 z"
   id="path57"
   style="fill:url(#XMLID_4_)" />
	</g>
	<g
   id="Layer_1_2_">
		<g
   id="g60">
			<path
   d="m 116.838,4.532 -11.641,1.561 v 1.811 l 0.912,3.44 -6.702,-0.665 v 1.811 l 1.065,2.666 -5.23,0.13 v 1.811 c 0,0 1.111,2.808 1.616,4.37 0.506,1.562 -1.708,2.839 -1.708,2.839 0,0 -3.254,0.557 -4.596,0.786 -0.604,0.104 -2.596,-0.469 -2.596,-0.469 v 1.811 c 0,0 0.23,0.711 0.966,2.982 0.736,2.271 -1.96,3.931 -1.96,3.931 l -9.51,0.648 v 1.811 l 1.076,3.328 -5.021,-0.404 v 1.811 c 0.354,1.236 1.3,4.446 2.288,7.002 1.25,3.232 -3.744,5.284 -3.744,5.284 l 5.73,-2.233 39.055,-46.062"
   id="path62"
   style="fill:#ffffff" />
			<path
   d="m 30.696,106.504 c -4.17,-1.918 -5.478,-5.961 -2.923,-9.029 2.555,-3.067 8.006,-4 12.176,-2.081 4.169,1.919 5.477,5.962 2.922,9.03 -2.555,3.067 -8.005,4 -12.175,2.08 z"
   id="path64"
   style="fill:none" />
			<linearGradient
   x1="8.0576"
   y1="56.172901"
   x2="110.8604"
   y2="60.056599"
   id="XMLID_5_"
   gradientUnits="userSpaceOnUse">
				<stop
   id="stop67"
   style="stop-color:#e6e6e6;stop-opacity:1"
   offset="0" />
				<stop
   id="stop69"
   style="stop-color:#7a7a7a;stop-opacity:1"
   offset="0.33149999" />
				<stop
   id="stop71"
   style="stop-color:#999999;stop-opacity:1"
   offset="0.52810001" />
				<stop
   id="stop73"
   style="stop-color:#787878;stop-opacity:1"
   offset="0.72469997" />
				<stop
   id="stop75"
   style="stop-color:#a1a1a1;stop-opacity:1"
   offset="0.89889997" />
				<stop
   id="stop77"
   style="stop-color:#787878;stop-opacity:1"
   offset="0.97750002" />
				<midPointStop
   id="midPointStop79"
   style="stop-color:#E6E6E6"
   offset="0" />
				<midPointStop
   id="midPointStop81"
   style="stop-color:#E6E6E6"
   offset="0.5" />
				<midPointStop
   id="midPointStop83"
   style="stop-color:#7A7A7A"
   offset="0.3315" />
				<midPointStop
   id="midPointStop85"
   style="stop-color:#7A7A7A"
   offset="0.5" />
				<midPointStop
   id="midPointStop87"
   style="stop-color:#999999"
   offset="0.5281" />
				<midPointStop
   id="midPointStop89"
   style="stop-color:#999999"
   offset="0.5" />
				<midPointStop
   id="midPointStop91"
   style="stop-color:#787878"
   offset="0.7247" />
				<midPointStop
   id="midPointStop93"
   style="stop-color:#787878"
   offset="0.5" />
				<midPointStop
   id="midPointStop95"
   style="stop-color:#A1A1A1"
   offset="0.8989" />
				<midPointStop
   id="midPointStop97"
   style="stop-color:#A1A1A1"
   offset="0.5" />
				<midPointStop
   id="midPointStop99"
   style="stop-color:#787878"
   offset="0.9775" />
			</linearGradient>
			<path
   d="m 87.009,106.804 c 6.769,-8.128 3.362,-18.82 -7.589,-23.976 l 3.086,-3.706 c 1.704,-2.045 0.831,-4.739 -1.949,-6.019 l -0.61,-0.28 1.805,-2.168 c 0.97,-1.164 0.108,-2.864 -1.923,-3.798 l -0.104,-0.048 43.003,-51.636 -2.386,-4.167 -41.315,49.609 c 0,0 -3.243,3.737 -4.332,3.236 -1.089,-0.501 1.898,-4.356 1.898,-4.356 L 119.207,8.325 117.188,3.554 65.983,65.039 55.585,60.254 58.326,56.963 56.531,56.137 c -2.031,-0.935 -4.463,-0.75 -5.433,0.414 l -1.805,2.167 -0.611,-0.282 c -2.78,-1.278 -6.414,-0.658 -8.117,1.387 L 37.444,63.57 C 26.55,59.324 12.991,61.934 6.481,69.751 c -6.813,8.181 -3.323,18.959 7.795,24.075 1.566,0.722 3.201,1.284 4.871,1.71 -3.553,5.89 -0.739,12.997 6.922,16.521 7.771,3.577 17.766,2.199 23.226,-2.973 1.492,1.24 3.243,2.348 5.246,3.27 11.119,5.115 25.655,2.63 32.468,-5.55 z m -44.137,-2.38 c -2.555,3.067 -8.005,4 -12.175,2.08 -4.17,-1.918 -5.478,-5.961 -2.923,-9.029 2.555,-3.067 8.006,-4 12.176,-2.081 4.169,1.918 5.476,5.961 2.922,9.03 z"
   id="path101"
   style="fill:url(#XMLID_5_)" />
			<linearGradient
   x1="55.584999"
   y1="34.295898"
   x2="117.1895"
   y2="34.295898"
   id="XMLID_6_"
   gradientUnits="userSpaceOnUse">
				<stop
   id="stop104"
   style="stop-color:#b8b8b8;stop-opacity:1"
   offset="0" />
				<stop
   id="stop106"
   style="stop-color:#e6e6e6;stop-opacity:1"
   offset="0.3371" />
				<stop
   id="stop108"
   style="stop-color:#b8b8b8;stop-opacity:1"
   offset="0.60110003" />
				<stop
   id="stop110"
   style="stop-color:#d1d1d1;stop-opacity:1"
   offset="0.87080002" />
				<midPointStop
   id="midPointStop112"
   style="stop-color:#B8B8B8"
   offset="0" />
				<midPointStop
   id="midPointStop114"
   style="stop-color:#B8B8B8"
   offset="0.5" />
				<midPointStop
   id="midPointStop116"
   style="stop-color:#E6E6E6"
   offset="0.3371" />
				<midPointStop
   id="midPointStop118"
   style="stop-color:#E6E6E6"
   offset="0.5" />
				<midPointStop
   id="midPointStop120"
   style="stop-color:#B8B8B8"
   offset="0.6011" />
				<midPointStop
   id="midPointStop122"
   style="stop-color:#B8B8B8"
   offset="0.5" />
				<midPointStop
   id="midPointStop124"
   style="stop-color:#D1D1D1"
   offset="0.8708" />
			</linearGradient>
			<path
   d="m 55.585,60.253 2.741,-3.291 3.496,-4.198 10.232,-1.749 c 0,0 4.994,-2.052 3.744,-5.284 -0.988,-2.556 -1.935,-5.767 -2.288,-7.002 l 0.533,-0.64 4.487,-0.767 -1.076,-3.328 0.809,-0.972 8.701,-1.487 c 0,0 2.695,-1.659 1.96,-3.931 -0.735,-2.272 -0.966,-2.982 -0.966,-2.982 0,0 1.256,-1.113 2.596,-1.342 1.342,-0.229 4.596,-0.786 4.596,-0.786 0,0 2.214,-1.277 1.708,-2.839 -0.505,-1.562 -1.616,-4.37 -1.616,-4.37 l 5.23,-1.941 -1.065,-2.666 6.702,-1.146 -0.912,-3.44 1.647,-1.979 9.979,-0.089 0.365,-0.472 -51.205,61.487 -10.398,-4.786 z"
   id="path126"
   style="fill:url(#XMLID_6_)" />
			<linearGradient
   x1="74.695297"
   y1="36.087898"
   x2="120.3418"
   y2="36.087898"
   id="XMLID_7_"
   gradientUnits="userSpaceOnUse">
				<stop
   id="stop129"
   style="stop-color:#b8b8b8;stop-opacity:1"
   offset="0" />
				<stop
   id="stop131"
   style="stop-color:#e6e6e6;stop-opacity:1"
   offset="0.3371" />
				<stop
   id="stop133"
   style="stop-color:#a3a3a3;stop-opacity:1"
   offset="0.60110003" />
				<stop
   id="stop135"
   style="stop-color:#d1d1d1;stop-opacity:1"
   offset="0.87080002" />
				<midPointStop
   id="midPointStop137"
   style="stop-color:#B8B8B8"
   offset="0" />
				<midPointStop
   id="midPointStop139"
   style="stop-color:#B8B8B8"
   offset="0.5" />
				<midPointStop
   id="midPointStop141"
   style="stop-color:#E6E6E6"
   offset="0.3371" />
				<midPointStop
   id="midPointStop143"
   style="stop-color:#E6E6E6"
   offset="0.5" />
				<midPointStop
   id="midPointStop145"
   style="stop-color:#A3A3A3"
   offset="0.6011" />
				<midPointStop
   id="midPointStop147"
   style="stop-color:#A3A3A3"
   offset="0.5" />
				<midPointStop
   id="midPointStop149"
   style="stop-color:#D1D1D1"
   offset="0.8708" />
			</linearGradient>
			<path
   d="m 74.695,63.851 c -1.089,-0.501 1.898,-4.356 1.898,-4.356 l 42.614,-51.17 0.135,1.969 0.999,0.712 -41.314,49.609 c 0,0 -3.243,3.737 -4.332,3.236 z"
   id="path151"
   style="fill:url(#XMLID_7_)" />
		</g>
		<path
   d="M 75.573,78.667 45.464,64.812 39.836,71.569 69.945,85.423 75.573,78.667 z"
   id="path153"
   style="fill:#a1a1a1" />
		<linearGradient
   x1="75.242203"
   y1="77.5811"
   x2="43.173302"
   y2="68.439003"
   id="XMLID_8_"
   gradientUnits="userSpaceOnUse">
			<stop
   id="stop156"
   style="stop-color:#e6e6e6;stop-opacity:1"
   offset="0" />
			<stop
   id="stop158"
   style="stop-color:#525252;stop-opacity:1"
   offset="1" />
			<midPointStop
   id="midPointStop160"
   style="stop-color:#E6E6E6"
   offset="0" />
			<midPointStop
   id="midPointStop162"
   style="stop-color:#E6E6E6"
   offset="0.5" />
			<midPointStop
   id="midPointStop164"
   style="stop-color:#525252"
   offset="1" />
		</linearGradient>
		<path
   d="m 45.464,66.699 28.974,13.331 1.136,-1.364 -30.11,-13.854 -5.628,6.757 1.136,0.523 4.492,-5.393 z"
   id="path166"
   style="fill:url(#XMLID_8_)" />
	</g>
</svg>