<?xml version="1.0" encoding="UTF-8" standalone="no"?>
<!-- Created with Inkscape (http://www.inkscape.org/) -->

<svg
   xmlns:dc="http://purl.org/dc/elements/1.1/"
   xmlns:cc="http://creativecommons.org/ns#"
   xmlns:rdf="http://www.w3.org/1999/02/22-rdf-syntax-ns#"
   xmlns:svg="http://www.w3.org/2000/svg"
   xmlns="http://www.w3.org/2000/svg"
   xmlns:xlink="http://www.w3.org/1999/xlink"
   xmlns:sodipodi="http://sodipodi.sourceforge.net/DTD/sodipodi-0.dtd"
   xmlns:inkscape="http://www.inkscape.org/namespaces/inkscape"
   version="1.1"
   width="122"
   height="122"
   viewBox="-0.354 0.026 122 122"
   id="svg2"
   xml:space="preserve"
   style="overflow:visible"
   inkscape:version="0.47 r22583"
   sodipodi:docname="preferences-desktop-accessibility.svg"><metadata
   id="metadata181"><rdf:RDF><cc:Work
       rdf:about=""><dc:format>image/svg+xml</dc:format><dc:type
         rdf:resource="http://purl.org/dc/dcmitype/StillImage" /></cc:Work></rdf:RDF></metadata><sodipodi:namedview
   pagecolor="#ffffff"
   bordercolor="#666666"
   borderopacity="1"
   objecttolerance="10"
   gridtolerance="10"
   guidetolerance="10"
   inkscape:pageopacity="0"
   inkscape:pageshadow="2"
   inkscape:window-width="1270"
   inkscape:window-height="747"
   id="namedview179"
   showgrid="false"
   inkscape:zoom="1.9344262"
   inkscape:cx="61"
   inkscape:cy="61"
   inkscape:window-x="0"
   inkscape:window-y="0"
   inkscape:window-maximized="1"
   inkscape:current-layer="svg2" /><defs
   id="defs343"><inkscape:perspective
   sodipodi:type="inkscape:persp3d"
   inkscape:vp_x="0 : 61 : 1"
   inkscape:vp_y="0 : 1000 : 0"
   inkscape:vp_z="122 : 61 : 1"
   inkscape:persp3d-origin="61 : 40.666667 : 1"
   id="perspective183" />
		
		
		
		
		
		
		
		
		
		
		
		
		
		
		
	<linearGradient
   x1="18.6401"
   y1="85.083504"
   x2="-2.1110001"
   y2="78.788597"
   id="linearGradient3496"
   xlink:href="#XMLID_1_"
   gradientUnits="userSpaceOnUse" /><linearGradient
   x1="38.688999"
   y1="78.735802"
   x2="36.887901"
   y2="73.031898"
   id="linearGradient3498"
   xlink:href="#XMLID_2_"
   gradientUnits="userSpaceOnUse" /><linearGradient
   x1="29.771999"
   y1="48.388699"
   x2="9.0223999"
   y2="42.0942"
   id="linearGradient3500"
   xlink:href="#XMLID_3_"
   gradientUnits="userSpaceOnUse" /><linearGradient
   x1="29.6777"
   y1="29.9014"
   x2="9.7792997"
   y2="39.701801"
   id="linearGradient3502"
   xlink:href="#XMLID_4_"
   gradientUnits="userSpaceOnUse" /><inkscape:perspective
   id="perspective3099"
   inkscape:persp3d-origin="61.5 : 42.333333 : 1"
   inkscape:vp_z="123 : 63.5 : 1"
   inkscape:vp_y="0 : 1000 : 0"
   inkscape:vp_x="0 : 63.5 : 1"
   sodipodi:type="inkscape:persp3d" /><linearGradient
   id="gradient0"
   gradientUnits="userSpaceOnUse"
   x1="46.34"
   y1="42.790001"
   x2="107.4"
   y2="42.790001"><stop
     offset="0"
     stop-color="#ffffff"
     id="stop3000" /><stop
     offset="1"
     stop-color="#f1c779"
     id="stop3002" /></linearGradient><linearGradient
   id="gradient1"
   gradientUnits="userSpaceOnUse"
   x1="76.18"
   y1="44.380001"
   x2="79.260002"
   y2="30.15"><stop
     offset="0"
     stop-color="#a68b54"
     id="stop3007" /><stop
     offset="1"
     stop-color="#f1c779"
     id="stop3009" /></linearGradient><linearGradient
   id="gradient2"
   gradientUnits="userSpaceOnUse"
   x1="72.400002"
   y1="21.23"
   x2="68.379997"
   y2="47.09"><stop
     offset="0"
     stop-color="#ffffff"
     id="stop3014" /><stop
     offset="0.648"
     stop-color="#eaeb49"
     id="stop3016" /><stop
     offset="0.8069"
     stop-color="#e8e847"
     id="stop3018" /><stop
     offset="0.9254"
     stop-color="#e0de42"
     id="stop3020" /><stop
     offset="1"
     stop-color="#d7d43d"
     id="stop3022" /></linearGradient><linearGradient
   id="gradient3"
   gradientUnits="userSpaceOnUse"
   x1="32.310001"
   y1="24.110001"
   x2="70.730003"
   y2="55.09"><stop
     offset="0"
     stop-color="#ffffff"
     id="stop3029" /><stop
     offset="1"
     stop-color="#f1c779"
     id="stop3031" /></linearGradient><linearGradient
   id="gradient4"
   gradientUnits="userSpaceOnUse"
   x1="11.67"
   y1="50.450001"
   x2="76.669998"
   y2="113.07"><stop
     offset="0"
     stop-color="#ffffff"
     id="stop3038" /><stop
     offset="1"
     stop-color="#495e63"
     id="stop3040" /></linearGradient><linearGradient
   id="gradient5"
   gradientUnits="userSpaceOnUse"
   x1="72.099998"
   y1="109.1"
   x2="15.79"
   y2="54.849998"><stop
     offset="0"
     stop-color="#ffffff"
     id="stop3047" /><stop
     offset="1"
     stop-color="#5a6467"
     id="stop3049" /></linearGradient><linearGradient
   id="gradient6"
   gradientUnits="userSpaceOnUse"
   x1="50.220001"
   y1="104.37"
   x2="25.700001"
   y2="80.75"><stop
     offset="0"
     stop-color="#ffffff"
     id="stop3056" /><stop
     offset="1"
     stop-color="#5a6467"
     id="stop3058" /></linearGradient><linearGradient
   id="gradient7"
   gradientUnits="userSpaceOnUse"
   x1="63.919998"
   y1="95.660004"
   x2="33.169998"
   y2="66.029999"><stop
     offset="0"
     stop-color="#ffffff"
     id="stop3065" /><stop
     offset="1"
     stop-color="#5a6467"
     id="stop3067" /></linearGradient><linearGradient
   id="gradient8"
   gradientUnits="userSpaceOnUse"
   x1="43.060001"
   y1="74.18"
   x2="38.169998"
   y2="69.470001"><stop
     offset="0"
     stop-color="#ffffff"
     id="stop3074" /><stop
     offset="1"
     stop-color="#5a6467"
     id="stop3076" /></linearGradient><linearGradient
   id="gradient9"
   gradientUnits="userSpaceOnUse"
   x1="38.380001"
   y1="64.400002"
   x2="31.629999"
   y2="57.889999"><stop
     offset="0"
     stop-color="#ffffff"
     id="stop3083" /><stop
     offset="1"
     stop-color="#5a6467"
     id="stop3085" /></linearGradient><linearGradient
   inkscape:collect="always"
   xlink:href="#gradient9"
   id="linearGradient3194"
   gradientUnits="userSpaceOnUse"
   x1="38.380001"
   y1="64.400002"
   x2="31.629999"
   y2="57.889999"
   gradientTransform="translate(8.4980295,-23.577834)" /><linearGradient
   inkscape:collect="always"
   xlink:href="#gradient8"
   id="linearGradient3198"
   gradientUnits="userSpaceOnUse"
   x1="43.060001"
   y1="74.18"
   x2="38.169998"
   y2="69.470001"
   gradientTransform="translate(8.4980295,-23.577834)" /><linearGradient
   inkscape:collect="always"
   xlink:href="#gradient7"
   id="linearGradient3202"
   gradientUnits="userSpaceOnUse"
   x1="63.919998"
   y1="95.660004"
   x2="33.169998"
   y2="66.029999"
   gradientTransform="translate(8.4980295,-23.577834)" /><linearGradient
   inkscape:collect="always"
   xlink:href="#gradient6"
   id="linearGradient3206"
   gradientUnits="userSpaceOnUse"
   x1="50.220001"
   y1="104.37"
   x2="25.700001"
   y2="80.75"
   gradientTransform="translate(8.4980295,-23.577834)" /><linearGradient
   inkscape:collect="always"
   xlink:href="#gradient5"
   id="linearGradient3210"
   gradientUnits="userSpaceOnUse"
   x1="72.099998"
   y1="109.1"
   x2="15.79"
   y2="54.849998"
   gradientTransform="translate(8.4980295,-23.577834)" /><linearGradient
   inkscape:collect="always"
   xlink:href="#gradient4"
   id="linearGradient3214"
   gradientUnits="userSpaceOnUse"
   x1="11.67"
   y1="50.450001"
   x2="76.669998"
   y2="113.07"
   gradientTransform="translate(8.4980295,-23.577834)" /><linearGradient
   inkscape:collect="always"
   xlink:href="#gradient3"
   id="linearGradient3218"
   gradientUnits="userSpaceOnUse"
   x1="32.310001"
   y1="24.110001"
   x2="70.730003"
   y2="55.09"
   gradientTransform="translate(-132.11214,-3.4168174)" /><linearGradient
   inkscape:collect="always"
   xlink:href="#gradient2"
   id="linearGradient3222"
   gradientUnits="userSpaceOnUse"
   x1="72.400002"
   y1="21.23"
   x2="68.379997"
   y2="47.09"
   gradientTransform="translate(-132.11214,-3.4168174)" /><linearGradient
   inkscape:collect="always"
   xlink:href="#gradient1"
   id="linearGradient3225"
   gradientUnits="userSpaceOnUse"
   x1="76.18"
   y1="44.380001"
   x2="79.260002"
   y2="30.15"
   gradientTransform="translate(-132.11214,-3.4168174)" /><linearGradient
   inkscape:collect="always"
   xlink:href="#gradient0"
   id="linearGradient3228"
   gradientUnits="userSpaceOnUse"
   x1="46.34"
   y1="42.790001"
   x2="107.4"
   y2="42.790001"
   gradientTransform="translate(-132.11214,-3.4168174)" /><linearGradient
   inkscape:collect="always"
   xlink:href="#gradient4"
   id="linearGradient3248"
   gradientUnits="userSpaceOnUse"
   gradientTransform="translate(8.4980295,-23.577834)"
   x1="11.67"
   y1="50.450001"
   x2="76.669998"
   y2="113.07" /><linearGradient
   inkscape:collect="always"
   xlink:href="#gradient5"
   id="linearGradient3250"
   gradientUnits="userSpaceOnUse"
   gradientTransform="translate(8.4980295,-23.577834)"
   x1="72.099998"
   y1="109.1"
   x2="15.79"
   y2="54.849998" /><linearGradient
   inkscape:collect="always"
   xlink:href="#gradient6"
   id="linearGradient3252"
   gradientUnits="userSpaceOnUse"
   gradientTransform="translate(8.4980295,-23.577834)"
   x1="50.220001"
   y1="104.37"
   x2="25.700001"
   y2="80.75" /><linearGradient
   inkscape:collect="always"
   xlink:href="#gradient7"
   id="linearGradient3254"
   gradientUnits="userSpaceOnUse"
   gradientTransform="translate(8.4980295,-23.577834)"
   x1="63.919998"
   y1="95.660004"
   x2="33.169998"
   y2="66.029999" /><linearGradient
   inkscape:collect="always"
   xlink:href="#gradient8"
   id="linearGradient3256"
   gradientUnits="userSpaceOnUse"
   gradientTransform="translate(8.4980295,-23.577834)"
   x1="43.060001"
   y1="74.18"
   x2="38.169998"
   y2="69.470001" /><linearGradient
   inkscape:collect="always"
   xlink:href="#gradient9"
   id="linearGradient3258"
   gradientUnits="userSpaceOnUse"
   gradientTransform="translate(8.4980295,-23.577834)"
   x1="38.380001"
   y1="64.400002"
   x2="31.629999"
   y2="57.889999" /></defs>
	
<g
   id="g3233"
   transform="matrix(1.6824664,0,0,1.6824664,-27.4939,-37.847936)"><path
     id="path3042"
     d="m 87.268029,84.612163 c 0,3.8 -3.2,6.89 -7.15,6.89 h -54.87 c -3.95,0 -7.15,-3.08 -7.15,-6.89 V 31.752166 c 0,-3.8 3.2,-6.89 7.15,-6.89 h 54.87 c 3.95,0 7.15,3.08 7.15,6.89 v 52.859997 z m -4.62,-49.329997 c 0,-3.29 -2.77,-5.97 -6.2,-5.97 h -47.54 c -3.42,0 -6.2,2.67 -6.2,5.97 v 45.799997 c 0,3.29 2.77,5.97 6.2,5.97 h 47.54 c 3.42,0 6.2,-2.67 6.2,-5.97 V 35.282166 h 0 z"
     style="fill:url(#linearGradient3248)" /><path
     id="path3044"
     d="m 87.037029,84.827023 c 0,3.80385 -3.202668,6.8952 -7.1568,6.8952 l -54.8688,0 c -3.94817,0 -7.1568,-3.08561 -7.1568,-6.8952 l 0,-52.863203 c 0,-3.803852 3.20267,-6.8952 7.1568,-6.8952 l 54.8688,0 c 3.948168,0 7.1568,3.085602 7.1568,6.8952 l 0,52.863203 z m -4.6221,-49.329413 c 0,-3.298204 -2.77326,-5.970094 -6.196596,-5.970094 l -47.533084,0 c -3.42333,0 -6.19659,2.67189 -6.19659,5.970094 l 0,45.795623 c 0,3.2982 2.77326,5.97009 6.19659,5.97009 l 47.533084,0 c 3.423336,0 6.196596,-2.67189 6.196596,-5.97009 l 0,-45.795623 0,0 z"
     style="fill:none;stroke:#000000;stroke-width:0.58539855" /><path
     id="path3051"
     d="m 82.418029,35.492166 c 0,-3.29 -2.77,-5.97 -6.2,-5.97 h -47.54 c -3.42,0 -6.2,2.67 -6.2,5.97 v 45.799997 c 0,3.29 2.77,5.97 6.2,5.97 h 47.54 c 3.42,0 6.2,-2.67 6.2,-5.97 V 35.492166 h 0 z"
     style="fill:url(#linearGradient3250)" /><path
     id="path3053"
     d="m 82.414929,35.49761 c 0,-3.298204 -2.77326,-5.970094 -6.196596,-5.970094 l -47.533084,0 c -3.42333,0 -6.19659,2.67189 -6.19659,5.970094 l 0,45.795623 c 0,3.2982 2.77326,5.97009 6.19659,5.97009 l 47.533084,0 c 3.423336,0 6.196596,-2.67189 6.196596,-5.97009 l 0,-45.795623 0,0 z"
     style="fill:none;stroke:#000000;stroke-width:0.58539855" /><path
     id="path3060"
     d="m 40.808029,51.572166 c -5.16,2.9 -8.62,8.3 -8.62,14.48 0,9.26 7.79,16.759997 17.4,16.759997 8.04,0 14.81,-5.249997 16.8,-12.399997"
     style="fill:url(#linearGradient3252);fill-opacity:0" /><path
     id="path3062"
     d="m 40.809501,51.569172 c -5.158862,2.907476 -8.623942,8.30297 -8.623942,14.47992 0,9.256806 7.78898,16.761081 17.396986,16.761081 8.039472,0 14.808612,-5.257589 16.806552,-12.399867"
     style="fill:none;stroke:#000000;stroke-width:3.51239109;stroke-linecap:round" /><path
     id="path3069"
     d="m 41.958029,42.162166 5.36,14.35 h 11.68 l 12.15,13.2 5.72,-1.95"
     style="fill:url(#linearGradient3254);fill-opacity:0" /><path
     id="path3071"
     d="m 41.960553,42.16297 5.361636,14.353508 11.677512,0 12.154632,13.204308 5.719476,-1.947894"
     style="fill:none;stroke:#000000;stroke-width:3.51239109;stroke-linecap:round" /><path
     id="path3078"
     d="m 53.998029,48.252166 h -9.77"
     style="fill:url(#linearGradient3256)" /><path
     id="path3080"
     d="m 54.001869,48.247984 -9.769032,0"
     style="fill:none;stroke:#000000;stroke-width:3.51239109;stroke-linecap:round" /><path
     id="path3087"
     d="m 48.278029,37.572166 c 0,-2.53 -2.13,-4.59 -4.77,-4.59 -2.63,0 -4.77,2.05 -4.77,4.59 0,2.53 2.13,4.59 4.77,4.59 2.63,0 4.77,-2.05 4.77,-4.59 z"
     style="fill:url(#linearGradient3258);fill-opacity:0" /><path
     id="path3089"
     d="m 48.270465,37.56617 c 0,-2.533986 -2.135112,-4.591054 -4.765236,-4.591054 -2.630124,0 -4.7712,2.057068 -4.7712,4.591054 0,2.533986 2.135112,4.5968 4.7712,4.5968 2.630124,0 4.765236,-2.057068 4.765236,-4.5968 z"
     style="fill:none;stroke:#000000;stroke-width:2.92699265;stroke-linecap:round" /><path
     id="path3091"
     d="m 17.848029,64.432166 v -32.46 c 0,-3.8 3.2,-6.89 7.15,-6.89 h 54.87 c 3.95,0 7.15,3.08 7.15,6.89 v 16.95 c 0,0 -10.14,15.8 -34.89,8.04 -24.75,-7.75 -34.29,7.47 -34.29,7.47 z"
     style="fill:#ffffff;fill-opacity:0.29800002" /></g></svg>