<?xml version="1.0" encoding="UTF-8" standalone="no"?>
<!-- Created with Inkscape (http://www.inkscape.org/) -->

<svg
   xmlns:svg="http://www.w3.org/2000/svg"
   xmlns="http://www.w3.org/2000/svg"
   xmlns:xlink="http://www.w3.org/1999/xlink"
   version="1.1"
   width="48pt"
   height="48pt"
   viewBox="0.068 0.263 127 122"
   id="svg153"
   xml:space="preserve"
   style="overflow:visible">
  <defs
   id="defs249"><linearGradient
   x1="-259.3071"
   y1="291.29251"
   x2="-316.36441"
   y2="302.81369"
   id="linearGradient2974"
   xlink:href="#XMLID_29_"
   gradientUnits="userSpaceOnUse"
   gradientTransform="matrix(1,0,0.1473,-1,303.1824,363.4561)" /><linearGradient
   x1="-171.8188"
   y1="407.18509"
   x2="-224.07919"
   y2="452.35931"
   id="linearGradient2971"
   xlink:href="#XMLID_30_"
   gradientUnits="userSpaceOnUse"
   gradientTransform="matrix(0.7492,0.3527,0.1473,-1,143.3723,588.2299)" /><linearGradient
   x1="110.3647"
   y1="138.7261"
   x2="25.364799"
   y2="48.726101"
   id="linearGradient2955"
   xlink:href="#XMLID_32_"
   gradientUnits="userSpaceOnUse" />
			
			
			
			 
			
			
			
			
			
			
			
		<linearGradient
   x1="110.3647"
   y1="138.7261"
   x2="25.364799"
   y2="48.726101"
   id="XMLID_32_"
   gradientUnits="userSpaceOnUse">
				<stop
   id="stop73"
   style="stop-color:#6699cc;stop-opacity:1"
   offset="0" />
				<stop
   id="stop75"
   style="stop-color:#ffffff;stop-opacity:1"
   offset="1" />
				<midPointStop
   offset="0"
   style="stop-color:#6699CC"
   id="midPointStop77" />
				<midPointStop
   offset="0.5"
   style="stop-color:#6699CC"
   id="midPointStop79" />
				<midPointStop
   offset="1"
   style="stop-color:#FFFFFF"
   id="midPointStop81" />
			</linearGradient>
			
			
			
			
			
			
			
			
			
			
			
			
			<linearGradient
   x1="-182.6987"
   y1="416.9819"
   x2="-257.26309"
   y2="480.60669"
   id="XMLID_31_"
   gradientUnits="userSpaceOnUse"
   gradientTransform="matrix(0.7492,0.3527,0.1473,-1,143.3723,588.2299)">
				<stop
   id="stop38"
   style="stop-color:#808080;stop-opacity:1"
   offset="0" />
				<stop
   id="stop40"
   style="stop-color:#000000;stop-opacity:1"
   offset="1" />
				<midPointStop
   offset="0"
   style="stop-color:#808080"
   id="midPointStop42" />
				<midPointStop
   offset="0.5"
   style="stop-color:#808080"
   id="midPointStop44" />
				<midPointStop
   offset="1"
   style="stop-color:#000000"
   id="midPointStop46" />
			</linearGradient>
			
			
			
				<linearGradient
   x1="-171.8188"
   y1="407.18509"
   x2="-224.07919"
   y2="452.35931"
   id="XMLID_30_"
   gradientUnits="userSpaceOnUse"
   gradientTransform="matrix(0.7492,0.3527,0.1473,-1,143.3723,588.2299)">
				<stop
   id="stop23"
   style="stop-color:#dedede;stop-opacity:1"
   offset="0" />
				<stop
   id="stop25"
   style="stop-color:#c9c9c9;stop-opacity:1"
   offset="1" />
				<midPointStop
   offset="0"
   style="stop-color:#DEDEDE"
   id="midPointStop27" />
				<midPointStop
   offset="0.5"
   style="stop-color:#DEDEDE"
   id="midPointStop29" />
				<midPointStop
   offset="1"
   style="stop-color:#C9C9C9"
   id="midPointStop31" />
			</linearGradient>
			
			
				<linearGradient
   x1="-259.3071"
   y1="291.29251"
   x2="-316.36441"
   y2="302.81369"
   id="XMLID_29_"
   gradientUnits="userSpaceOnUse"
   gradientTransform="matrix(1,0,0.1473,-1,303.1824,363.4561)">
				<stop
   id="stop10"
   style="stop-color:#ededed;stop-opacity:1"
   offset="0" />
				<stop
   id="stop12"
   style="stop-color:#8c8c8c;stop-opacity:1"
   offset="1" />
				<midPointStop
   offset="0"
   style="stop-color:#EDEDED"
   id="midPointStop14" />
				<midPointStop
   offset="0.5"
   style="stop-color:#EDEDED"
   id="midPointStop16" />
				<midPointStop
   offset="1"
   style="stop-color:#8C8C8C"
   id="midPointStop18" />
			</linearGradient>
			
			
			
				
    
    
    
    <linearGradient
   x1="26.1553"
   y1="88.274902"
   x2="41.033199"
   y2="88.274902"
   id="XMLID_1_"
   gradientUnits="userSpaceOnUse">
      <stop
   id="stop160"
   style="stop-color:#d9a96d;stop-opacity:1"
   offset="0" />
      <stop
   id="stop161"
   style="stop-color:#c48b56;stop-opacity:1"
   offset="0.4492" />
      <stop
   id="stop162"
   style="stop-color:#a76035;stop-opacity:1"
   offset="1" />
      
      
      
    </linearGradient>
    
    
    <linearGradient
   x1="46.986801"
   y1="72.128403"
   x2="-0.60149997"
   y2="45.2715"
   id="XMLID_2_"
   gradientUnits="userSpaceOnUse">
      <stop
   id="stop169"
   style="stop-color:#ebc097;stop-opacity:1"
   offset="0" />
      <stop
   id="stop170"
   style="stop-color:#d1af79;stop-opacity:1"
   offset="0.74190003" />
      <stop
   id="stop171"
   style="stop-color:#c7a96d;stop-opacity:1"
   offset="1" />
      
      
      
    </linearGradient>
    
    <linearGradient
   x1="45.583"
   y1="47.933601"
   x2="-33.207298"
   y2="44.3522"
   id="XMLID_3_"
   gradientUnits="userSpaceOnUse">
      <stop
   id="stop177"
   style="stop-color:#d9a96d;stop-opacity:1"
   offset="0" />
      <stop
   id="stop178"
   style="stop-color:#d2994f;stop-opacity:1"
   offset="0.4436" />
      <stop
   id="stop179"
   style="stop-color:#c78323;stop-opacity:1"
   offset="1" />
      
      
      
    </linearGradient>
    
    <linearGradient
   x1="62.700199"
   y1="72.977997"
   x2="52.309898"
   y2="72.505699"
   id="XMLID_4_"
   gradientUnits="userSpaceOnUse">
      <stop
   id="stop185"
   style="stop-color:#d9a96d;stop-opacity:1"
   offset="0" />
      <stop
   id="stop186"
   style="stop-color:#d2994f;stop-opacity:1"
   offset="0.4436" />
      <stop
   id="stop187"
   style="stop-color:#c78323;stop-opacity:1"
   offset="1" />
      
      
      
    </linearGradient>
    
    
    
    
    <linearGradient
   x1="56.255901"
   y1="40.992699"
   x2="52.828098"
   y2="37.564899"
   id="XMLID_5_"
   gradientUnits="userSpaceOnUse">
      <stop
   id="stop196"
   style="stop-color:#f5ffe1;stop-opacity:1"
   offset="0" />
      <stop
   id="stop197"
   style="stop-color:#e0e3c2;stop-opacity:1"
   offset="0.1611" />
      <stop
   id="stop198"
   style="stop-color:#ac9c74;stop-opacity:1"
   offset="0.51389998" />
      <stop
   id="stop199"
   style="stop-color:#5d3200;stop-opacity:1"
   offset="1" />
      
      
      
    </linearGradient>
    
    <linearGradient
   x1="78.841797"
   y1="58.8853"
   x2="111.8877"
   y2="58.8853"
   id="XMLID_6_"
   gradientUnits="userSpaceOnUse">
      <stop
   id="stop205"
   style="stop-color:#ebe1c0;stop-opacity:1"
   offset="0" />
      <stop
   id="stop206"
   style="stop-color:#d6c3af;stop-opacity:1"
   offset="0.34020001" />
      <stop
   id="stop207"
   style="stop-color:#a77e88;stop-opacity:1"
   offset="1" />
      
      
      
    </linearGradient>
    
    
    
    
    
    <linearGradient
   x1="86.412102"
   y1="65.317902"
   x2="111.8877"
   y2="65.317902"
   id="XMLID_7_"
   gradientUnits="userSpaceOnUse">
      <stop
   id="stop225"
   style="stop-color:#f5ffe1;stop-opacity:1"
   offset="0" />
      <stop
   id="stop226"
   style="stop-color:#ece8c3;stop-opacity:1"
   offset="0.34990001" />
      <stop
   id="stop227"
   style="stop-color:#d9b681;stop-opacity:1"
   offset="1" />
      
      
      
    </linearGradient>
    
    <linearGradient
   x1="86.412102"
   y1="71.750504"
   x2="95.364304"
   y2="71.750504"
   id="XMLID_8_"
   gradientUnits="userSpaceOnUse">
      <stop
   id="stop233"
   style="stop-color:#ffffff;stop-opacity:1"
   offset="0" />
      <stop
   id="stop234"
   style="stop-color:#000000;stop-opacity:1"
   offset="1" />
      
      
      
    </linearGradient>
    
    <linearGradient
   x1="20.4727"
   y1="23.475599"
   x2="21.3081"
   y2="19.8188"
   id="XMLID_9_"
   gradientUnits="userSpaceOnUse">
      <stop
   id="stop240"
   style="stop-color:#f5ffe1;stop-opacity:1"
   offset="0" />
      <stop
   id="stop241"
   style="stop-color:#e0e3c2;stop-opacity:1"
   offset="0.1611" />
      <stop
   id="stop242"
   style="stop-color:#ac9c74;stop-opacity:1"
   offset="0.51389998" />
      <stop
   id="stop243"
   style="stop-color:#5d3200;stop-opacity:1"
   offset="1" />
      
      
      
    </linearGradient>
    
  <linearGradient
   x1="20.4727"
   y1="23.475599"
   x2="21.3081"
   y2="19.8188"
   id="linearGradient3029"
   xlink:href="#XMLID_9_"
   gradientUnits="userSpaceOnUse"
   gradientTransform="matrix(0.82033645,0,0,0.82033645,4.8432203,31.819906)" /><linearGradient
   x1="86.412102"
   y1="71.750504"
   x2="95.364304"
   y2="71.750504"
   id="linearGradient3032"
   xlink:href="#XMLID_8_"
   gradientUnits="userSpaceOnUse"
   gradientTransform="matrix(0.64934327,0,0,0.64934327,25.682001,44.665254)" /><linearGradient
   x1="86.412102"
   y1="65.317902"
   x2="111.8877"
   y2="65.317902"
   id="linearGradient3035"
   xlink:href="#XMLID_7_"
   gradientUnits="userSpaceOnUse"
   gradientTransform="matrix(0.64934327,0,0,0.64934327,25.682001,44.665254)" /><linearGradient
   x1="78.841797"
   y1="58.8853"
   x2="111.8877"
   y2="58.8853"
   id="linearGradient3050"
   xlink:href="#XMLID_6_"
   gradientUnits="userSpaceOnUse"
   gradientTransform="matrix(0.64934327,0,0,0.64934327,25.682001,44.665254)" /><linearGradient
   x1="56.255901"
   y1="40.992699"
   x2="52.828098"
   y2="37.564899"
   id="linearGradient3053"
   xlink:href="#XMLID_5_"
   gradientUnits="userSpaceOnUse"
   gradientTransform="matrix(0.82033645,0,0,0.82033645,4.8432203,31.819906)" /><linearGradient
   x1="62.700199"
   y1="72.977997"
   x2="52.309898"
   y2="72.505699"
   id="linearGradient3059"
   xlink:href="#XMLID_4_"
   gradientUnits="userSpaceOnUse"
   gradientTransform="matrix(0.82033645,0,0,0.82033645,4.8432203,31.819906)" /><linearGradient
   x1="45.583"
   y1="47.933601"
   x2="-33.207298"
   y2="44.3522"
   id="linearGradient3062"
   xlink:href="#XMLID_3_"
   gradientUnits="userSpaceOnUse"
   gradientTransform="matrix(0.82033645,0,0,0.82033645,4.8432203,31.819906)" /><linearGradient
   x1="46.986801"
   y1="72.128403"
   x2="-0.60149997"
   y2="45.2715"
   id="linearGradient3065"
   xlink:href="#XMLID_2_"
   gradientUnits="userSpaceOnUse"
   gradientTransform="matrix(0.82033645,0,0,0.82033645,4.8432203,31.819906)" /><linearGradient
   x1="26.1553"
   y1="88.274902"
   x2="41.033199"
   y2="88.274902"
   id="linearGradient3069"
   xlink:href="#XMLID_1_"
   gradientUnits="userSpaceOnUse"
   gradientTransform="matrix(0.82033645,0,0,0.82033645,4.8432203,31.819906)" /></defs>
  
  <g
   transform="matrix(0.79142962,0,0,0.79142962,24.984686,-2.5380675)"
   id="g2966"
   style="overflow:visible"><path
     d="M 121.386,65.059 62.886,37.543 C 57.511,35.015 49.494,37.003 45.017,41.976 L 3.865,87.68 c -0.506,0.561 -0.936,1.139 -1.309,1.721 0,0 78.925,35.391 79.306,34.966 l 41.153,-45.703 c 4.477,-4.974 3.747,-11.077 -1.629,-13.605 z"
     id="path5"
     style="opacity:0.2" /><path
     d="M 16.648,1.189 C 13.143,3.069 10.72,6.95 10.001,11.837 L 0.225,78.233 C 0.073,79.26 0,80.294 0,81.328 c 0,7.596 3.959,15.03 9.8,17.78 l 58.897,27.723 c 3.139,1.479 6.457,1.438 9.344,-0.111 3.506,-1.881 5.929,-5.761 6.646,-10.646 L 94.462,49.678 C 95.728,41.095 91.521,31.927 84.886,28.805 L 25.993,1.082 c -3.139,-1.478 -6.457,-1.44 -9.345,0.107 z"
     id="path7" /><path
     d="M 24.715,3.795 C 19.302,1.245 14.033,5.05 12.969,12.274 L 3.192,78.671 c -1.065,7.226 2.473,15.175 7.886,17.722 l 58.896,27.724 c 5.41,2.547 10.68,-1.257 11.745,-8.479 L 91.495,49.24 C 92.558,42.016 89.02,34.066 83.607,31.519 L 24.715,3.795 z"
     id="path20"
     style="fill:url(#linearGradient2974)" /><path
     d="M 13.18,11.917 C 14.044,6.045 18.31,2.965 22.71,5.035 L 82.439,33.15 c 4.398,2.07 7.264,8.509 6.398,14.38 l -10.174,69.093 c -0.863,5.87 -5.131,8.949 -9.531,6.88 L 9.402,95.387 C 5.004,93.317 2.14,86.88 3.005,81.01 L 13.18,11.917 z"
     id="path33"
     style="fill:url(#linearGradient2971)" /><path
     d="m 21.668,6.507 c -3.671,-1.728 -7.244,0.852 -7.965,5.75 L 3.527,81.352 c -0.72,4.898 1.678,10.287 5.348,12.016 l 59.73,28.113 c 3.671,1.729 7.243,-0.85 7.965,-5.748 L 86.746,46.64 C 87.467,41.741 85.068,36.353 81.396,34.624 L 21.668,6.507 z"
     id="path35"
     style="fill:none;stroke:#385392;stroke-width:0.3691" /><polygon
     points="22.242,16.16 79.766,43.355 69.6,112.379 12.077,85.186 "
     id="polygon48"
     style="fill:url(#XMLID_31_)" /><path
     d="m 24.551,21.348 c -0.95,6.438 -8.087,54.918 -9.036,61.355 4.947,2.329 49.419,23.262 54.367,25.592 0.947,-6.44 8.088,-54.918 9.033,-61.357 -4.946,-2.33 -49.416,-23.261 -54.364,-25.59 z"
     id="path50"
     style="fill:#6699cc" /><polygon
     points="23.915,79.276 22.887,86.262 62.485,104.903 63.515,97.915 "
     id="polygon52"
     style="fill:#e6e6e6" /><path
     d="m 28.065,30.776 c -0.096,0.655 -0.82,5.581 -0.917,6.235 0.503,0.237 5.021,2.364 5.525,2.6 0.096,-0.653 0.819,-5.58 0.917,-6.234 -0.502,-0.236 -5.021,-2.363 -5.525,-2.601 z"
     id="path54"
     style="fill:#fafafa" /><path
     d="m 26.211,41.907 c -0.096,0.656 -0.821,5.581 -0.918,6.235 0.503,0.237 5.021,2.363 5.525,2.6 0.097,-0.654 0.821,-5.581 0.917,-6.234 -0.502,-0.237 -5.021,-2.362 -5.524,-2.601 z"
     id="path56"
     style="fill:#fafafa" /><path
     d="m 24.357,53.225 c -0.098,0.654 -0.823,5.581 -0.919,6.234 0.503,0.236 5.021,2.364 5.523,2.6 0.098,-0.655 0.823,-5.581 0.919,-6.234 -0.502,-0.237 -5.021,-2.365 -5.523,-2.6 z"
     id="path58"
     style="fill:#fafafa" /><path
     d="m 37.898,35.229 c -0.096,0.656 -0.821,5.581 -0.918,6.235 0.503,0.237 5.021,2.363 5.525,2.601 0.096,-0.655 0.819,-5.58 0.917,-6.234 -0.501,-0.239 -5.021,-2.365 -5.524,-2.602 z"
     id="path60"
     style="fill:#fafafa" /><path
     d="m 36.043,46.359 c -0.096,0.655 -0.82,5.581 -0.918,6.234 0.504,0.239 5.021,2.365 5.525,2.602 0.097,-0.654 0.821,-5.58 0.917,-6.234 -0.501,-0.237 -5.02,-2.363 -5.524,-2.602 z"
     id="path62"
     style="fill:#fafafa" /><path
     d="m 34.189,57.677 c -0.097,0.654 -0.823,5.581 -0.919,6.234 0.503,0.237 5.021,2.365 5.523,2.602 0.098,-0.654 0.823,-5.582 0.92,-6.235 -0.503,-0.237 -5.022,-2.364 -5.524,-2.601 z"
     id="path64"
     style="fill:#fafafa" /><polygon
     points="24.862,19.225 24.508,21.623 78.876,47.214 79.23,44.813 "
     id="polygon66"
     style="fill:#e6e6e6" /><path
     d="m 75.664,48.971 -6.111,3.448 0.658,1.269 c 0,0 4.765,2.243 5.24,2.467 0.092,-0.622 0.87,-5.915 0.87,-5.915 l -0.657,-1.269 z"
     id="path68"
     style="fill:#474747" /><path
     d="m 70.423,46.505 c -0.092,0.62 -0.779,5.293 -0.871,5.913 0.477,0.226 4.765,2.244 5.24,2.468 0.092,-0.621 0.779,-5.293 0.871,-5.916 -0.475,-0.223 -4.764,-2.241 -5.24,-2.465 z"
     id="path70"
     style="fill:#c2c2c2" /><path
     d="m 19.454,63.166 c -0.479,-0.081 -0.965,-0.057 -1.086,-0.081 l -2.891,19.63 54.403,25.58 7.248,-49.217 C 45.76,51.556 48.082,68.04 19.454,63.166 z"
     id="path83"
     style="opacity:0.97000002;fill:url(#linearGradient2955)" /><path
     d="m 27.084,84.453 c -0.733,-0.347 -1.206,-2.324 -1.354,-2.394 -0.06,0.397 -0.5,3.396 -0.56,3.795 0.306,0.146 3.057,1.438 3.365,1.582 0.058,-0.397 0.498,-3.396 0.558,-3.795 -0.158,-0.076 -1.215,1.184 -2.009,0.812 z"
     id="path85"
     style="fill:#6666ff" /><path
     d="m 27.084,84.453 c -0.733,-0.347 1.143,2.841 1.451,2.983 0.058,-0.397 0.498,-3.396 0.558,-3.795 -0.158,-0.076 -1.215,1.184 -2.009,0.812 z"
     id="path87"
     style="fill:#44c2ff" /><circle
     cx="31.951"
     cy="86.824997"
     r="1.429"
     id="circle89"
     style="fill:#8be697" /><path
     d="m 37.94,88.653 c -0.059,0.4 -0.499,3.398 -0.559,3.797 0.306,0.145 3.057,1.439 3.364,1.583 0.059,-0.397 0.499,-3.397 0.558,-3.796 -0.305,-0.146 -3.057,-1.439 -3.363,-1.584 z"
     id="path91"
     style="fill:#ff6666" /><path
     d="m 47.171,92.038 c -0.205,0.203 -1.761,1.738 -1.969,1.943 0.113,0.213 1.138,2.153 1.251,2.369 0.207,-0.203 1.763,-1.74 1.968,-1.942 -0.112,-0.216 -1.135,-2.157 -1.25,-2.37 z"
     id="path93"
     style="fill:#9966cc" /></g><g
   transform="matrix(0.64934327,0,0,0.64934327,25.682001,44.665254)"
   id="g156">
      <path
   d="m 75.842,12.562 v 92.646 c 0,4.033 2.797,7.666 7.57,9.996 0,1.385 0,5.307 0,5.307 l 2.386,0.5 c 1.488,0.311 3.966,0.248 7.304,0.127 l 2.263,-0.064 c 10.515,0 19.523,-8.723 19.523,-15.865 V 12.562 C 114.888,5.518 106.312,0 95.364,0 84.416,0 75.842,5.518 75.842,12.562 z"
   id="path157" />
    </g><path
   d="m 13.559296,38.595064 -0.03035,0.0017 c -0.420013,0.02953 -2.587341,0.212465 -4.0188285,0.85971 -2.1648658,0.977004 -3.1074325,2.591426 -3.2075134,2.7719 l -0.6726759,1.209997 0.6858012,1.204252 c 0.018868,0.03363 1.8974382,3.376505 1.8974382,7.184507 0,2.648867 -0.1665283,5.376485 -0.3420803,7.552017 -0.655454,0.295283 -1.1058187,0.498727 -1.3199265,0.596347 -1.7005575,0.461029 -1.7079405,2.495463 -1.7079405,3.324003 v 23.101495 c 0,0 16.4748167,7.137745 18.9948897,8.230437 0,2.812112 0,22.428001 0,22.428001 0,3.41588 3.68085,5.99256 8.562672,5.99256 4.881822,0 8.563493,-2.57668 8.563493,-5.99256 0,0 0,-10.20745 0,-15.00806 3.833431,1.66118 11.127043,4.82111 11.127043,4.82111 l 8.320673,-3.75714 V 77.459324 c 0,0 -2.227214,-0.964715 -2.964697,-1.284646 -0.238717,-1.517623 -0.602947,-4.337939 -0.602947,-7.526587 0,-3.916287 3.050832,-7.639793 3.082005,-7.67753 l 1.823607,-2.198501 -2.439681,-1.483988 c -0.182114,-0.109929 -4.485599,-2.707111 -6.960554,-3.6546 -8.21e-4,0 -6.302645,-2.291199 -6.302645,-2.291199 l -0.440521,-0.157505 c -0.161607,-0.08778 -0.6333,-0.570133 -0.945848,-0.890064 -0.754709,-0.771937 -1.693174,-1.734192 -2.958133,-2.19194 -1.31582,-0.476615 -2.531558,-0.108286 -3.336308,0.134535 0,0 -0.247741,0.06562 -0.427396,0.112387 -0.270711,-0.21739 -0.722715,-0.694005 -1.018857,-1.009835 -0.815414,-0.869556 -1.739935,-1.85478 -2.958134,-2.335497 -1.44051,-0.566853 -2.795707,-0.373254 -3.785032,-0.232156 -0.352745,0.05086 -0.845766,0.116487 -1.073,0.08531 -0.185395,-0.192779 -0.487279,-0.661192 -0.701387,-1.000811 -0.566033,-0.895808 -1.207536,-1.912205 -2.234598,-2.552887 -0.717793,-0.447083 -2.081192,-0.922878 -3.668544,0.308447 -0.06071,-0.05825 -0.132074,-0.123874 -0.183755,-0.173091 -0.625097,-0.603764 -1.215739,-1.173898 -1.962245,-1.486446 -3.568463,-1.497935 -6.473274,-1.376525 -6.794025,-1.357658 z"
   id="path158" /><path
   d="m 32.401603,87.880058 c -3.369943,0 -6.101663,1.582429 -6.101663,3.532369 v 25.647003 c 0,1.94994 2.73254,3.53155 6.101663,3.53155 3.370762,0 6.102482,-1.58161 6.102482,-3.53155 V 91.412427 c 0,-1.94994 -2.73172,-3.532369 -6.102482,-3.532369 z"
   id="path166"
   style="fill:url(#linearGradient3069)" /><path
   d="M 38.504085,107.12843 V 91.412427 c 0,-1.94994 -2.73172,-3.532369 -6.102482,-3.532369 -3.369943,0 -6.101663,1.582429 -6.101663,3.532369 l 0.05414,6.53234 c 5.448674,-3.269861 11.999061,4.712013 12.150003,9.183663 z"
   id="path167"
   style="opacity:0.2" /><path
   d="M 7.3042296,62.334782 52.072451,81.730817 V 104.18015 L 7.3042296,84.784929 V 62.334782 z"
   id="path175"
   style="fill:url(#linearGradient3065)" /><path
   d="M 13.183582,59.679352 57.951801,79.075388 52.071629,81.730817 7.3042296,62.335602 13.183582,59.679352 z"
   id="path183"
   style="fill:url(#linearGradient3062)" /><path
   d="m 52.071629,81.730817 5.880172,-2.655429 v 22.450152 l -5.880172,2.65461 V 81.730817 z"
   id="path191"
   style="fill:url(#linearGradient3059)" /><path
   d="m 10.674172,51.827092 c 0,-4.559431 -2.2214713,-8.403527 -2.2214713,-8.403527 0,0 2.0623263,-0.373253 7.1172393,1.687432 12.169691,4.960575 34.419675,15.242672 34.419675,15.242672 v 19.87101 L 10.014621,62.904915 c 0,0 0.659551,-5.759582 0.659551,-11.077823 z"
   id="path192"
   style="fill:#faff7e" /><path
   d="m 10.52405,41.698397 c 1.103352,-0.498763 3.179624,-0.647245 3.179624,-0.647245 0,0 2.552067,-0.150122 5.695595,1.17062 0.776859,0.326494 2.170611,2.26823 3.122202,2.34124 0.95159,0.07301 1.461839,-1.720246 2.341239,-1.170619 1.174722,0.73338 1.903181,3.165677 3.166499,3.712842 1.588992,0.688262 3.352716,-0.470053 5.028663,0.189498 1.419182,0.558649 2.744846,2.940906 4.163208,3.469202 1.141087,0.425755 2.534838,-0.748146 3.642294,-0.347001 1.444611,0.523374 2.585699,2.612772 3.914645,3.086105 2.593084,0.924519 4.904792,1.745676 6.690664,2.429017 2.298582,0.8794 6.566793,3.461819 6.566793,3.461819 l -8.046681,0.958153 c 0,0 -10.835823,-4.04918 -21.253277,-8.743966 -4.483958,-2.021309 -8.876039,-4.136957 -12.283716,-5.786654 -3.935154,-1.904821 -7.9999217,-2.398663 -7.9999217,-2.398663 0,0 0.6029474,-1.060696 2.0721697,-1.724348 z"
   id="path193"
   style="fill:#faffa9" /><path
   d="m 49.247211,69.629214 c 0,-4.62998 0.743226,-9.276365 0.743226,-9.276365 0,0 0.709591,-0.461851 1.644774,-0.579978 0.311727,-0.03856 0.593924,-1.203434 0.977021,-1.055774 0.603768,0.233796 1.311717,0.666934 2.168148,0.937645 0.31583,0.09926 0.434779,-0.363408 0.82526,-0.51107 0.765373,-0.289578 2.431477,0.250203 2.431477,0.250203 0,0 -3.652959,4.352705 -3.652959,9.254216 0,5.032764 0.857252,9.204996 0.857252,9.204996 l -5.250153,2.370771 c -8.2e-4,0 -0.744046,-5.329726 -0.744046,-10.594644 z"
   id="path194"
   style="fill:#f7cf5d" /><path
   d="m 49.990437,60.352849 c 0,0 0.709591,-0.461851 1.644774,-0.579978 0.311727,-0.03856 0.593924,-1.203434 0.977021,-1.055774 0.603768,0.233796 1.311717,0.666934 2.168148,0.937645 0.31583,0.09926 0.434779,-0.363408 0.82526,-0.51107 0,0 -0.03938,0.314189 -0.196061,0.629199 -0.156684,0.315009 -8.2e-4,0.51107 -0.707951,0.432317 -0.707129,-0.07875 -1.296951,-0.667754 -1.729269,-0.31419 -0.432317,0.353566 -1.160775,2.595546 -1.593093,2.949111 -0.432317,0.353564 -0.552907,1.177182 -0.592283,1.923688 -0.03938,0.746506 -1.183746,10.0926 -1.183746,10.210728 0,0.118131 -0.168169,-8.95151 -0.207544,-9.46258 -0.03938,-0.51107 0.511068,-5.150072 0.511068,-5.150072"
   id="path203"
   style="opacity:0.4;fill:url(#linearGradient3053)" /><path
   d="m 87.605975,46.613284 c -5.92526,0 -10.728453,2.780487 -10.728453,6.20902 v 60.159056 c 0,3.42918 4.803193,6.20902 10.728453,6.20902 5.9259,0 10.7291,-2.77984 10.7291,-6.20902 V 52.822304 c 6.5e-4,-3.428533 -4.8032,-6.20902 -10.7291,-6.20902 z"
   id="path211"
   style="fill:url(#linearGradient3050)" /><path
   d="m 76.877522,52.822304 c 0,-3.428533 4.803193,-6.20902 10.728453,-6.20902 5.9259,0 10.7291,2.780487 10.7291,6.20902 0,3.429832 -4.8032,6.20967 -10.7291,6.20967 -5.92526,6.49e-4 -10.728453,-2.779189 -10.728453,-6.20967 z"
   id="path212"
   style="fill:#f5ebac" /><path
   d="m 84.392375,52.822304 c 0,-1.027261 1.43895,-1.860368 3.21425,-1.860368 1.7753,0 3.21424,0.833107 3.21424,1.860368 0,1.02791 -1.43894,1.860368 -3.21424,1.860368 -1.7753,0 -3.21425,-0.831808 -3.21425,-1.860368 z"
   id="path213"
   style="opacity:0.5" /><g
   transform="matrix(0.82033645,0,0,0.82033645,4.8432203,31.819906)"
   id="g214">
      <path
   d="m 4.883,15.016 c 0.009,0.009 3.84,5.416 3.84,6.79 l -0.484,16.791 2.01,0.876 0.139,-21.175 c 0,-2.212 -4.155,-3.222 -4.214,-3.282 H 4.883 z"
   id="path215"
   style="fill:#ffc758" />
      <path
   d="m 15.989,22.451 c 0,0.078 0.085,8.931 0.085,11.104 0,4.96 -0.562,8.073 -0.57,8.109 l 1.793,0.943 c 0.032,-0.156 0.777,-3.879 0.777,-9.053 0,-2.268 -0.248,-4.902 -0.466,-7.228 l -0.291,-3.963 c 0,-1.471 -1.944,-2.501 -2.779,-2.876 l 1.451,2.964 z"
   id="path216"
   style="fill:#ffc758" />
      <path
   d="m 22.357,21.58 0.09,23.153 1.938,0.62 -0.969,-23.548 -1.059,-0.225 z"
   id="path217"
   style="fill:#ffc758" />
      <path
   d="m 29.229,26.649 0.646,21.313 0.969,0.484 V 24.873 l -1.615,1.776 z"
   id="path218"
   style="fill:#ffc758" />
      <path
   d="M 36.521,27.02 V 51.244 L 38.432,51.837 37.624,27.133 36.521,27.02 z"
   id="path219"
   style="fill:#ffc758" />
      <path
   d="m 43.17,38.013 c -0.374,6.363 0.39,15.857 0.423,16.258 l 1.944,0.473 c -0.008,-0.097 -0.736,-10.392 -0.37,-16.614 0.188,-3.185 0.682,-5.467 0.693,-5.507 l -1.278,-2.287 c -0.05,0.173 -1.211,4.268 -1.412,7.677 z"
   id="path220"
   style="fill:#ffc758" />
      <path
   d="m 57.395,40.713 c -0.374,6.363 0.305,16.319 0.337,16.72 h 0.9 c -0.008,-0.097 -0.365,-10.163 0,-16.385 0.188,-3.185 1.428,-3.921 1.439,-3.961 v -2.161 c -0.05,0.174 -2.475,2.379 -2.676,5.787 z"
   id="path221"
   style="fill:#c79258" />
      <path
   d="m 51.021,38.651 c 0,10e-4 -0.318,18.03 -0.318,18.03 l 2.099,0.969 0.22,-18.981 c 0.01,-1.099 0.498,-1.66 0.519,-1.684 l 0.23,-2.101 c -0.108,0.111 -2.733,1.866 -2.75,3.767 z"
   id="path222"
   style="fill:#ffc758" />
    </g><path
   d="m 80.224245,118.19298 1.3805,-53.659121 2.0701,54.176651 c 0,0 -1.0357,1.55259 -3.27854,0"
   id="path223"
   style="opacity:0.2" /><path
   d="m 87.605975,61.176754 c -1.28116,0 -4.67398,0.238309 -5.81293,0 v 60.159056 c 1.13895,0.23831 4.53177,0 5.81293,0 5.9259,0 10.7291,-4.92462 10.7291,-8.3538 V 52.822304 c 6.5e-4,3.430481 -4.8032,8.35445 -10.7291,8.35445 z"
   id="path231"
   style="fill:url(#linearGradient3035)" /><path
   d="m 87.605975,61.176754 c -1.28116,0 -4.67398,0.238309 -5.81293,0 v 60.159056 l 5.81293,-60.159056 z"
   id="path238"
   style="opacity:0.8;fill:url(#linearGradient3032)" /><path
   d="m 6.953946,43.452277 c 0,0 2.6152325,-0.653808 4.359268,0.435599 1.744035,1.089407 4.795687,2.397843 5.885094,2.615232 1.089405,0.21739 2.615232,1.090228 4.795687,2.397843 2.180453,1.307617 3.620143,1.908103 5.885092,2.615234 2.264949,0.707129 3.269862,0.435598 5.013077,1.743215 1.743215,1.307615 2.833442,3.05165 3.923669,3.26986 -1.962245,0 -2.615232,-1.961425 -3.923669,-2.615232 -1.308437,-0.653808 -1.962245,-0.872018 -3.92367,-0.872018 -1.961424,0 -2.112366,-0.133715 -3.855581,-1.005733 -1.743215,-0.872017 -2.629179,-1.251833 -4.590602,-1.251833 -1.961425,0 -2.101702,-1.666103 -6.050802,-3.129583 -0.204264,0.851509 0.501225,2.749768 -1.46102,1.877749 C 11.048245,48.660593 9.4731992,48.452227 9.2549897,49.324246 9.0367802,50.196263 6.953946,43.452277 6.953946,43.452277 z"
   id="path247"
   style="opacity:0.4;fill:url(#linearGradient3029)" />
</svg>