<?xml version="1.0" encoding="UTF-8" standalone="no"?>
<!-- Created with Inkscape (http://www.inkscape.org/) -->
<svg
   xmlns:svg="http://www.w3.org/2000/svg"
   xmlns="http://www.w3.org/2000/svg"
   xmlns:xlink="http://www.w3.org/1999/xlink"
   version="1.0"
   width="64"
   height="64"
   id="svg2">
  <defs
     id="defs41">
    <linearGradient
       x1="102.6"
       y1="8.5"
       x2="102.74"
       y2="47.07"
       id="linearGradient2536"
       xlink:href="#gradient0"
       gradientUnits="userSpaceOnUse" />
    <linearGradient
       x1="103.24"
       y1="12.68"
       x2="103.39"
       y2="55.34"
       id="linearGradient2538"
       xlink:href="#gradient1"
       gradientUnits="userSpaceOnUse" />
    <linearGradient
       x1="78.339996"
       y1="-26.66"
       x2="101.46"
       y2="12.94"
       id="linearGradient2540"
       xlink:href="#gradient2"
       gradientUnits="userSpaceOnUse" />
    <linearGradient
       x1="88.519997"
       y1="9.5900002"
       x2="97.540001"
       y2="51.290001"
       id="linearGradient2542"
       xlink:href="#gradient3"
       gradientUnits="userSpaceOnUse" />
  </defs>
  <g
     id="g4">
    <path
       d="M 42,61 L 48,61 L 52,57 L 56,57 L 62,51 L 48,47 L 42,61 z"
       id="path6"
       style="fill:#010101;fill-opacity:0.39599998" />
    <path
       d="M 3,15 L 13,41 L 42,59 L 60,12 L 48,10 L 44,12 L 26,8 L 24,13 L 16,11 L 15.91,19.2 L 3,15 z"
       id="path8"
       style="fill:none;stroke:#000000;stroke-width:4" />
    <linearGradient
       x1="102.6"
       y1="8.5"
       x2="102.74"
       y2="47.07"
       id="gradient0"
       gradientUnits="userSpaceOnUse">
      <stop
         id="stop11"
         style="stop-color:#face79;stop-opacity:1"
         offset="0" />
      <stop
         id="stop13"
         style="stop-color:#bc4105;stop-opacity:1"
         offset="1" />
    </linearGradient>
    <path
       d="M 26,8 L 14,41 L 42,58 L 60,12 L 48,10 L 44,12 L 26,8 z"
       id="path15"
       style="fill:url(#gradient0)" />
    <linearGradient
       x1="103.24"
       y1="12.68"
       x2="103.39"
       y2="55.34"
       id="gradient1"
       gradientUnits="userSpaceOnUse">
      <stop
         id="stop18"
         style="stop-color:#ffffff;stop-opacity:1"
         offset="0" />
      <stop
         id="stop20"
         style="stop-color:#8e8e8e;stop-opacity:1"
         offset="1" />
    </linearGradient>
    <path
       d="M 16,11 L 16,41 L 42,57 L 49,22 L 16,11 z"
       id="path22"
       style="fill:url(#gradient1)" />
    <linearGradient
       x1="78.339996"
       y1="-26.66"
       x2="101.46"
       y2="12.94"
       id="gradient2"
       gradientUnits="userSpaceOnUse">
      <stop
         id="stop25"
         style="stop-color:#9a9a9a;stop-opacity:1"
         offset="0" />
      <stop
         id="stop27"
         style="stop-color:#505050;stop-opacity:1"
         offset="1" />
    </linearGradient>
    <path
       d="M 16,11 L 49,22 L 42,57 L 52,20.37 L 16,11 z"
       id="path29"
       style="fill:url(#gradient2)" />
    <linearGradient
       x1="88.519997"
       y1="9.5900002"
       x2="97.540001"
       y2="51.290001"
       id="gradient3"
       gradientUnits="userSpaceOnUse">
      <stop
         id="stop32"
         style="stop-color:#ffe2ac;stop-opacity:1"
         offset="0" />
      <stop
         id="stop34"
         style="stop-color:#f49806;stop-opacity:1"
         offset="1" />
    </linearGradient>
    <path
       d="M 3,15 L 13,41 L 42,59 L 38,30 L 3,15 z"
       id="path36"
       style="fill:url(#gradient3)" />
    <path
       d="M 3,15 L 38,30 L 42,59 L 40.5,28 L 3,15 z"
       id="path38"
       style="fill:#a03d03" />
  </g>
  <g
     transform="matrix(0.4612069,0,0,0.4612069,2.2068966,33.24138)"
     id="g2420">
    <path
       d="M 44,64 L 49,64 L 64,48 L 60,46 L 44,64 z M 19,20 C 11.81,20 6,22.23 6,25 C 6,27.75 11.81,30 19,30 C 26.17,30 32,27.75 32,25 C 32,22.23 26.17,20 19,20 z"
       id="path2422"
       style="fill:#010101;fill-opacity:0.43130002" />
    <path
       d="M 32,42 C 32,42 18,42 18,38 C 18,30 34,28 34,22 C 34,18 23,18 23,18"
       transform="matrix(1,0,0,0.9285,2,3.1428)"
       id="path2424"
       style="fill:none;stroke:#010101;stroke-width:4;stroke-opacity:0.43130002" />
    <path
       d="M 32,42 C 32,42 18,42 18,38 C 18,30 34,28 34,22 C 34,18 23,18 23,18 M 49,22 L 58,25 L 58,48 L 44,62 L 34,56 L 34,32 L 49,22 z M 14,2 C 7.37,2 2,7.37 2,14 C 2,20.61 7.37,26 14,26 C 20.61,26 26,20.61 26,14 C 26,7.37 20.61,2 14,2 z"
       id="path2426"
       style="fill:none;stroke:#000000;stroke-width:4" />
    <linearGradient
       x1="33.689999"
       y1="1.88"
       x2="51.599998"
       y2="3.6700001"
       id="linearGradient2499"
       gradientUnits="userSpaceOnUse">
      <stop
         id="stop2429"
         style="stop-color:#d7d7d7;stop-opacity:1"
         offset="0" />
      <stop
         id="stop2431"
         style="stop-color:#b8b8b8;stop-opacity:1"
         offset="1" />
    </linearGradient>
    <path
       d="M 44,36 L 44,62 L 41.87,60.62 L 41.87,50.62 L 36,48 L 36.02,57.21 L 34,56 L 34,32 L 44,36 z"
       id="path2433"
       style="fill:url(#linearGradient2536)" />
    <path
       d="M 37.48,48.66 L 36,48 L 36.02,57.21 L 37.31,57.96 L 37.48,48.66 z"
       id="path2435"
       style="fill:#949494" />
    <linearGradient
       x1="33.689999"
       y1="1.88"
       x2="51.599998"
       y2="3.6700001"
       id="linearGradient2505"
       gradientUnits="userSpaceOnUse">
      <stop
         id="stop2438"
         style="stop-color:#d2d2d2;stop-opacity:1"
         offset="0" />
      <stop
         id="stop2440"
         style="stop-color:#858585;stop-opacity:1"
         offset="1" />
    </linearGradient>
    <path
       d="M 40.39,49.96 L 37.48,48.66 L 37.31,57.96 L 40.37,59.75 L 40.39,49.96 z"
       id="path2442"
       style="fill:url(#linearGradient2538)" />
    <path
       d="M 41.87,60.62 L 41.87,50.62 L 40.39,49.96 L 40.37,59.75 L 41.87,60.62 z"
       id="path2444"
       style="fill:#c4c4c4" />
    <linearGradient
       x1="24"
       y1="7.9899998"
       x2="64"
       y2="7.9899998"
       id="linearGradient2511"
       gradientUnits="userSpaceOnUse">
      <stop
         id="stop2447"
         style="stop-color:#f4f4f4;stop-opacity:1"
         offset="0" />
      <stop
         id="stop2449"
         style="stop-color:#dbdbdb;stop-opacity:1"
         offset="1" />
    </linearGradient>
    <path
       d="M 49,22 L 58,25 L 44,36 L 34,32 L 49,22 z"
       id="path2451"
       style="fill:url(#linearGradient2540)" />
    <linearGradient
       x1="55.689999"
       y1="-10.23"
       x2="74.970001"
       y2="-5.4099998"
       id="linearGradient2516"
       gradientUnits="userSpaceOnUse">
      <stop
         id="stop2454"
         style="stop-color:#5c5c5c;stop-opacity:1"
         offset="0" />
      <stop
         id="stop2456"
         style="stop-color:#838383;stop-opacity:1"
         offset="1" />
    </linearGradient>
    <path
       d="M 44,36 L 58,25 L 58,48 L 44,62 L 44,36 z"
       id="path2458"
       style="fill:url(#linearGradient2542)" />
    <linearGradient
       x1="33.689999"
       y1="1.88"
       x2="51.599998"
       y2="3.6700001"
       id="gradient4"
       gradientUnits="userSpaceOnUse">
      <stop
         id="stop2461"
         style="stop-color:#d2d2d2;stop-opacity:1"
         offset="0" />
      <stop
         id="stop2463"
         style="stop-color:#858585;stop-opacity:1"
         offset="1" />
    </linearGradient>
    <path
       d="M 40,38 L 40,40 L 42,40.5 L 42,38.5 L 40,38 z"
       id="path2465"
       style="fill:none;stroke:url(#gradient4);stroke-width:1" />
    <path
       d="M 40,38 L 40,40 L 42,40.5 L 42,38.5 L 40,38 z"
       id="path2467"
       style="fill:#a9ff00" />
    <radialGradient
       cx="0"
       cy="0"
       r="64"
       id="gradient5"
       gradientUnits="userSpaceOnUse"
       gradientTransform="matrix(0.25,0,0,0.25,10,10)">
      <stop
         id="stop2470"
         style="stop-color:#9eedff;stop-opacity:1"
         offset="0.044" />
      <stop
         id="stop2472"
         style="stop-color:#67ceff;stop-opacity:1"
         offset="0.14569999" />
      <stop
         id="stop2474"
         style="stop-color:#0473b3;stop-opacity:1"
         offset="1" />
    </radialGradient>
    <path
       d="M 14,2 C 10.46,2 7.27,3.52 5.07,5.96 C 5.07,5.96 8,6 8,8 C 8,10 4,14 4,14 L 4,16 C 4,16 6,16 8,18 C 10,20 8,22 8,22 L 10.27,25.41 C 11.44,25.78 12.69,26 14,26 C 16.99,26 19.72,24.9 21.83,23.07 L 20,22 L 22,18 C 22,18 16,16 16,14 C 16,12 20,8 20,8 L 18,6 L 15.87,8 L 14,8 L 16,6 L 14,4 L 17.39,2.48 C 16.31,2.16 15.17,2 14,2 z"
       id="path2476"
       style="fill:url(#gradient5)" />
    <radialGradient
       cx="0"
       cy="0"
       r="64"
       id="gradient6"
       gradientUnits="userSpaceOnUse"
       gradientTransform="matrix(0.25,0,0,0.25,10,10)">
      <stop
         id="stop2479"
         style="stop-color:#b9ff97;stop-opacity:1"
         offset="0" />
      <stop
         id="stop2481"
         style="stop-color:#05d65e;stop-opacity:1"
         offset="0.7457" />
      <stop
         id="stop2483"
         style="stop-color:#049943;stop-opacity:1"
         offset="1" />
    </radialGradient>
    <path
       d="M 5.07,5.96 C 3.16,8.08 2,10.9 2,14 C 2,19.32 5.47,23.84 10.27,25.41 L 8,22 C 8,22 10,20 8,18 C 6,16 4,16 4,16 L 4,14 C 4,14 8,10 8,8 C 8,6 5.07,5.96 5.07,5.96 z M 14,8 L 16.37,8 L 18,6 L 20,8 C 20,8 16,12 16,14 C 16,16 22,18 22,18 L 20,22 L 21.83,23.07 C 24.38,20.88 26,17.62 26,14 C 26,8.54 22.36,3.95 17.39,2.48 L 14,4 L 16,6 L 14,8 z"
       id="path2485"
       style="fill:url(#gradient6)" />
  </g>
</svg>
