<?xml version="1.0" encoding="UTF-8" standalone="no"?>
<!-- Created with Inkscape (http://www.inkscape.org/) -->

<svg
   xmlns:dc="http://purl.org/dc/elements/1.1/"
   xmlns:cc="http://creativecommons.org/ns#"
   xmlns:rdf="http://www.w3.org/1999/02/22-rdf-syntax-ns#"
   xmlns:svg="http://www.w3.org/2000/svg"
   xmlns="http://www.w3.org/2000/svg"
   xmlns:xlink="http://www.w3.org/1999/xlink"
   xmlns:sodipodi="http://sodipodi.sourceforge.net/DTD/sodipodi-0.dtd"
   xmlns:inkscape="http://www.inkscape.org/namespaces/inkscape"
   version="1.1"
   width="58pt"
   height="48pt"
   viewBox="0 0 66.133 48.371"
   id="svg153"
   xml:space="preserve"
   style="overflow:visible"
   inkscape:version="0.47pre4 r22446"
   sodipodi:docname="image-x-psd.svg"><metadata
   id="metadata83"><rdf:RDF><cc:Work
       rdf:about=""><dc:format>image/svg+xml</dc:format><dc:type
         rdf:resource="http://purl.org/dc/dcmitype/StillImage" /></cc:Work></rdf:RDF></metadata><sodipodi:namedview
   pagecolor="#ffffff"
   bordercolor="#666666"
   borderopacity="1"
   objecttolerance="10"
   gridtolerance="10"
   guidetolerance="10"
   inkscape:pageopacity="0"
   inkscape:pageshadow="2"
   inkscape:window-width="640"
   inkscape:window-height="489"
   id="namedview81"
   showgrid="false"
   inkscape:zoom="3.9333333"
   inkscape:cx="36.25"
   inkscape:cy="30"
   inkscape:window-x="0"
   inkscape:window-y="0"
   inkscape:window-maximized="0"
   inkscape:current-layer="svg153" />
  <defs
   id="defs200"><inkscape:perspective
     sodipodi:type="inkscape:persp3d"
     inkscape:vp_x="0 : 30 : 1"
     inkscape:vp_y="0 : 1000 : 0"
     inkscape:vp_z="72.5 : 30 : 1"
     inkscape:persp3d-origin="36.25 : 20 : 1"
     id="perspective85" /><linearGradient
     id="linearGradient7176"><stop
       id="stop7178"
       style="stop-color:#204a87;stop-opacity:1"
       offset="0" /><stop
       id="stop7180"
       style="stop-color:#97bcd4;stop-opacity:1"
       offset="1" /></linearGradient><linearGradient
     id="linearGradient7613"><stop
       id="stop7615"
       style="stop-color:#304456;stop-opacity:1"
       offset="0" /><stop
       id="stop7617"
       style="stop-color:#6394be;stop-opacity:1"
       offset="1" /></linearGradient><linearGradient
     id="linearGradient7192"><stop
       id="stop7210"
       style="stop-color:#fce94f;stop-opacity:1"
       offset="0" /><stop
       id="stop8189"
       style="stop-color:#66d09a;stop-opacity:1"
       offset="0.5" /><stop
       id="stop8187"
       style="stop-color:#66c6d0;stop-opacity:1"
       offset="1" /></linearGradient><linearGradient
     id="linearGradient7605"><stop
       id="stop7607"
       style="stop-color:#bcae3e;stop-opacity:1"
       offset="0" /><stop
       id="stop7609"
       style="stop-color:#3b9a6a;stop-opacity:1"
       offset="0.5" /><stop
       id="stop7611"
       style="stop-color:#3d8891;stop-opacity:1"
       offset="1" /></linearGradient><linearGradient
     id="linearGradient8589"><stop
       id="stop8591"
       style="stop-color:#fefefe;stop-opacity:1"
       offset="0" /><stop
       id="stop8593"
       style="stop-color:#cbcbcb;stop-opacity:1"
       offset="1" /></linearGradient><linearGradient
     id="linearGradient9162"><stop
       id="stop9170"
       style="stop-color:#8ae234;stop-opacity:1"
       offset="0" /><stop
       id="stop9166"
       style="stop-color:#4db07d;stop-opacity:0.88235295"
       offset="1" /></linearGradient><linearGradient
     id="linearGradient3600"><stop
       id="stop3602"
       style="stop-color:#f4f4f4;stop-opacity:1"
       offset="0" /><stop
       id="stop3604"
       style="stop-color:#dbdbdb;stop-opacity:1"
       offset="1" /></linearGradient><linearGradient
     id="linearGradient3104"><stop
       id="stop3106"
       style="stop-color:#aaaaaa;stop-opacity:1"
       offset="0" /><stop
       id="stop3108"
       style="stop-color:#d2d2d2;stop-opacity:1"
       offset="1" /></linearGradient><linearGradient
     x1="302.85715"
     y1="366.64789"
     x2="302.85715"
     y2="609.50507"
     id="linearGradient7004"
     xlink:href="#linearGradient5048"
     gradientUnits="userSpaceOnUse"
     gradientTransform="matrix(0.0704142,0,0,0.01537476,-1.4497047,38.629007)" /><linearGradient
     id="linearGradient5048"><stop
       id="stop5050"
       style="stop-color:#000000;stop-opacity:0"
       offset="0" /><stop
       id="stop5056"
       style="stop-color:#000000;stop-opacity:1"
       offset="0.5" /><stop
       id="stop5052"
       style="stop-color:#000000;stop-opacity:0"
       offset="1" /></linearGradient><radialGradient
     cx="605.71429"
     cy="486.64789"
     r="117.14286"
     fx="605.71429"
     fy="486.64789"
     id="radialGradient7006"
     xlink:href="#linearGradient5060"
     gradientUnits="userSpaceOnUse"
     gradientTransform="matrix(-0.02409717,0,0,0.01537476,21.522412,38.629039)" /><linearGradient
     id="linearGradient5060"><stop
       id="stop5062"
       style="stop-color:#000000;stop-opacity:1"
       offset="0" /><stop
       id="stop5064"
       style="stop-color:#000000;stop-opacity:0"
       offset="1" /></linearGradient><radialGradient
     cx="605.71429"
     cy="486.64789"
     r="117.14286"
     fx="605.71429"
     fy="486.64789"
     id="radialGradient7008"
     xlink:href="#linearGradient5060"
     gradientUnits="userSpaceOnUse"
     gradientTransform="matrix(0.02409717,0,0,0.01537476,26.477584,38.629039)" /><linearGradient
     x1="375.62509"
     y1="311.79102"
     x2="393.43311"
     y2="374.92462"
     id="linearGradient2969"
     xlink:href="#linearGradient7176"
     gradientUnits="userSpaceOnUse"
     gradientTransform="matrix(0.32314805,-0.05397522,0.05397522,0.32314805,-116.99521,-74.900493)" /><linearGradient
     x1="13.112816"
     y1="7.2513928"
     x2="20.403833"
     y2="21.766705"
     id="linearGradient2971"
     xlink:href="#linearGradient7613"
     gradientUnits="userSpaceOnUse"
     gradientTransform="matrix(1.4064726,0,0,1.4064726,-0.69883125,-4.824807)" /><radialGradient
     cx="416.65488"
     cy="392.0784"
     r="27.076788"
     fx="416.65488"
     fy="392.0784"
     id="radialGradient2974"
     xlink:href="#linearGradient7192"
     gradientUnits="userSpaceOnUse"
     gradientTransform="matrix(0.36845771,-0.40169982,0.41601757,0.38158909,-276.64181,51.069673)" /><linearGradient
     x1="32.027035"
     y1="21.986458"
     x2="27.560297"
     y2="15.298627"
     id="linearGradient2976"
     xlink:href="#linearGradient7605"
     gradientUnits="userSpaceOnUse"
     gradientTransform="matrix(1.4064726,0,0,1.4064726,-0.69883125,-4.824807)" /><linearGradient
     x1="32.892288"
     y1="8.0590115"
     x2="36.358372"
     y2="5.4565363"
     id="linearGradient2979"
     xlink:href="#linearGradient8589"
     gradientUnits="userSpaceOnUse"
     gradientTransform="matrix(0.91007993,0,0,0.97074569,-43.078605,0.08670996)" /><radialGradient
     cx="416.80206"
     cy="399.14209"
     r="20.131355"
     fx="416.80206"
     fy="399.14209"
     id="radialGradient2983"
     xlink:href="#linearGradient9162"
     gradientUnits="userSpaceOnUse"
     gradientTransform="matrix(-0.49934938,-0.08598953,0.03795803,-0.22042604,235.73843,159.7962)" /><linearGradient
     x1="25.132275"
     y1="6.7287393"
     x2="25.132275"
     y2="47.013336"
     id="linearGradient2987"
     xlink:href="#linearGradient3600"
     gradientUnits="userSpaceOnUse"
     gradientTransform="matrix(0.91217931,0,0,0.91217931,-44.387573,0.2137364)" /><linearGradient
     x1="-51.786404"
     y1="50.786446"
     x2="-51.786404"
     y2="2.9062471"
     id="linearGradient2989"
     xlink:href="#linearGradient3104"
     gradientUnits="userSpaceOnUse"
     gradientTransform="matrix(0.73658187,0,0,0.85366401,9.805215,-0.80286829)" /></defs>
  
  
  <g
   id="Layer_1"
   style="stroke:#000000">
    <g
   id="Layer_1_2_">
      <g
   id="g157">
        <linearGradient
   x1="-375.43311"
   y1="104.5449"
   x2="-356.30731"
   y2="73.170799"
   id="XMLID_1_"
   gradientUnits="userSpaceOnUse"
   gradientTransform="matrix(0.4828,0.721,0.7677,-0.514,140.0518,339.5116)">
          <stop
   id="stop159"
   style="stop-color:#fdfeed;stop-opacity:1"
   offset="0" />
          <stop
   id="stop160"
   style="stop-color:#fff24b;stop-opacity:1"
   offset="1" />
        </linearGradient>
        <path
   d="M 22.404,44.751 5.074,24.075 34.322,11.038 60.023,32.302 22.404,44.751 z"
   id="path164"
   style="fill:url(#XMLID_1_);stroke:none" />
      </g>
      <path
   d="M 1.69,23.299 21.921,47.271 63.407,33.08 34.804,8.516 1.69,23.299 z"
   id="path165"
   style="stroke:none" />
      <g
   id="g166">
        <linearGradient
   x1="-375.43311"
   y1="104.5449"
   x2="-356.30731"
   y2="73.170799"
   id="XMLID_2_"
   gradientUnits="userSpaceOnUse"
   gradientTransform="matrix(0.4828,0.721,0.7677,-0.514,140.0518,339.5116)">
          <stop
   id="stop168"
   style="stop-color:#d9d8ff;stop-opacity:1"
   offset="0.0056" />
          <stop
   id="stop169"
   style="stop-color:#fdfeed;stop-opacity:1"
   offset="0.514" />
          <stop
   id="stop170"
   style="stop-color:#9a99cd;stop-opacity:1"
   offset="1" />
        </linearGradient>
        <path
   d="M 22.404,44.751 5.074,24.075 34.322,11.038 60.023,32.302 22.404,44.751 z"
   id="path176"
   style="fill:url(#XMLID_2_);stroke:none" />
      </g>
      <g
   id="g177">
        <linearGradient
   x1="-313.0947"
   y1="225.81149"
   x2="-292.30981"
   y2="191.71581"
   id="XMLID_3_"
   gradientUnits="userSpaceOnUse"
   gradientTransform="matrix(0.702,0.51,0.543,-0.7475,130.3028,333.4989)">
          <stop
   id="stop179"
   style="stop-color:#fdfeed;stop-opacity:1"
   offset="0" />
          <stop
   id="stop180"
   style="stop-color:#fff24b;stop-opacity:1"
   offset="1" />
        </linearGradient>
        <path
   d="M 38.013,42.094 3.422,23.729 24.475,2.548 59.067,20.913 38.013,42.094 z"
   id="path184"
   style="fill:url(#XMLID_3_);stroke:none" />
      </g>
      <path
   d="M 0,24.278 38.356,44.643 62.489,20.363 24.134,0 0,24.278 z"
   id="path185"
   style="stroke:none" />
      <g
   id="g186">
        <linearGradient
   x1="-200.60941"
   y1="423.32129"
   x2="-202.1694"
   y2="387.44009"
   id="XMLID_4_"
   gradientUnits="userSpaceOnUse"
   gradientTransform="matrix(1,0,0,-1,232.9102,421.3594)">
          <stop
   id="stop188"
   style="stop-color:#d9d8ff;stop-opacity:1"
   offset="0.0056" />
          <stop
   id="stop189"
   style="stop-color:#fdfeed;stop-opacity:1"
   offset="0.514" />
          <stop
   id="stop190"
   style="stop-color:#9a99cd;stop-opacity:1"
   offset="1" />
        </linearGradient>
        <path
   d="M 38.013,42.094 3.422,23.729 24.475,2.548 59.067,20.913 38.013,42.094 z"
   id="path196"
   style="fill:url(#XMLID_4_);stroke:none" />
      </g>
      <path
   d="m 1.954,24.939 27.714,18.106 -7.746,4.225 11.636,-1.03 6.32,2.131 6.807,-7.987 19.448,-6.391 -6.32,-6.923 5.349,-3.727 -5.523,-1.63 -4.688,5.358 5.349,3.728 -17.018,6.922 -5.269,4.373 L 1.954,24.939 z"
   id="path197"
   style="opacity:0.2;stroke:none" />
      <path
   d="m 56.563,28.922 -5.359,5.533 -5.755,2.439 9.373,-10.063 1.741,2.091 z"
   id="path198"
   style="opacity:0.2;stroke:none" />
    </g>
  </g>
<path
   d="m 31.325269,32.451691 c 2.096721,2.691407 4.791301,3.105689 8.065302,3.065962 -0.224589,0.51843 -0.449174,1.036855 -0.673761,1.555284 0.627418,-0.74944 1.095126,-1.563756 2.13251,-1.459467 -0.641787,0.923502 -0.747177,1.521073 -0.990049,2.202185 1.241465,-1.120309 3.187792,-1.504903 4.757759,-1.954062 -0.417657,-0.637469 -1.052411,-1.097705 -1.470069,-1.735175 0.726515,-1.238872 1.036425,-2.917476 1.096212,-4.404183 -0.281057,0.774563 -0.693603,1.394869 -1.08332,1.940879 0.794673,-1.9736 0.191618,-3.279455 -0.483389,-4.926435 0.07367,0.779788 0.147342,1.559581 0.221009,2.339368 -0.626431,2.296833 -1.345082,2.569425 -2.728703,3.965524 -2.283505,0.567534 -5.782721,1.080111 -8.843501,-0.58988 z"
   id="path8191"
   style="fill:url(#radialGradient2983);fill-opacity:1;fill-rule:evenodd;stroke:#4b8748;stroke-width:1.05485451;stroke-linecap:butt;stroke-linejoin:miter;stroke-miterlimit:4;stroke-opacity:1;stroke-dasharray:none;display:inline" /><path
   d="m 22.30786,20.296961 c 0.151815,6.102798 5.36714,9.717131 10.200895,12.527324 2.733046,1.025245 5.196963,0.744686 8.009739,0.39967 1.73773,-3.554435 1.011356,-6.495695 -0.513357,-10.00846 -0.950127,-1.370373 -1.187366,-2.795246 -1.396858,-4.400094 -1.09626,1.022508 -0.522751,2.702124 -0.548609,4.145868 -0.655555,-2.452643 -2.17622,-4.484997 -3.504019,-6.613058 -0.986906,-3.707099 -4.652039,-5.975184 -7.569737,-8.1679211 4.787617,7.4809441 5.925245,7.8630161 3.883273,16.8093921 -4.400168,1.596238 -7.207725,-0.627653 -8.561327,-4.692721 z"
   id="path27337"
   style="fill:url(#radialGradient2974);fill-opacity:1;fill-rule:evenodd;stroke:url(#linearGradient2976);stroke-width:1.05485451;stroke-linecap:butt;stroke-linejoin:miter;stroke-miterlimit:4;stroke-opacity:1;stroke-dasharray:none;display:inline" /><path
   d="m 17.85189,15.414957 c 1.092527,4.159969 4.06561,7.547767 8.066496,9.160564 1.79136,0.379586 3.576565,0.745035 5.01785,0.320223 -0.341418,-2.645486 0.232089,-5.171081 0.46027,-8.064458 0.117923,-2.493992 0.245782,-4.706046 -1.220527,-6.751045 -2.25792,-3.0464071 -5.18212,-4.1932141 -8.584198,-3.9775922 -0.828438,1.1563483 -1.658484,2.1224527 -2.287776,3.1167515 -1.047698,1.6553967 -1.857278,4.4248927 -0.539796,6.2086527 1.296281,1.212003 2.994837,2.492879 3.999024,2.64162 -1.523039,0.103697 -2.553877,-0.671421 -3.797352,-1.434215 -0.371331,-0.406833 -0.74266,-0.813669 -1.113991,-1.220501 z"
   id="path24402"
   style="fill:url(#linearGradient2969);fill-opacity:1;fill-rule:evenodd;stroke:url(#linearGradient2971);stroke-width:1.05485451;stroke-linecap:butt;stroke-linejoin:miter;stroke-miterlimit:4;stroke-opacity:1;stroke-dasharray:none;display:inline" /><path
   d="m 50.325204,38.649615 c -2.220435,-0.911697 -7.35103,-3.447475 -8.780808,-4.339883 -1.068584,-0.666962 -1.712141,-0.826631 -2.772188,-0.687787 -0.970064,0.127068 -1.122997,0.09667 -0.514366,-0.102237 0.476396,-0.15568 0.853301,-0.360108 0.837572,-0.454288 -0.01574,-0.09418 -0.960689,-0.93536 -2.099912,-1.869294 C 29.616118,25.146501 24.053917,17.072369 22.496531,10.149308 22.199461,8.8287521 22.096163,8.1733754 22.266976,8.6929136 24.702015,16.099275 27.35301,20.633365 32.318377,25.884211 c 2.929709,3.09815 7.532767,6.648166 8.149566,6.285189 0.293021,-0.172437 0.401647,-0.09 0.332006,0.251971 -0.12665,0.621871 3.301121,2.704206 7.46153,4.53281 1.604834,0.705362 3.038733,1.487843 3.186442,1.738848 0.335128,0.569471 0.373587,0.570958 -1.122717,-0.04342 z"
   id="path24368"
   style="fill:#2a6a28;display:inline" /></svg>