<?xml version="1.0" encoding="UTF-8" standalone="no"?>
<svg
   xmlns:dc="http://purl.org/dc/elements/1.1/"
   xmlns:cc="http://creativecommons.org/ns#"
   xmlns:rdf="http://www.w3.org/1999/02/22-rdf-syntax-ns#"
   xmlns:svg="http://www.w3.org/2000/svg"
   xmlns="http://www.w3.org/2000/svg"
   xmlns:xlink="http://www.w3.org/1999/xlink"
   xmlns:sodipodi="http://sodipodi.sourceforge.net/DTD/sodipodi-0.dtd"
   xmlns:inkscape="http://www.inkscape.org/namespaces/inkscape"
   version="1.1"
   width="64"
   height="64"
   color-interpolation="linearRGB"
   id="svg2"
   sodipodi:version="0.32"
   inkscape:version="0.46"
   sodipodi:docname="image"
   inkscape:output_extension="org.inkscape.output.svg.inkscape">
  <metadata
     id="metadata49">
    <rdf:RDF>
      <cc:Work
         rdf:about="">
        <dc:format>image/svg+xml</dc:format>
        <dc:type
           rdf:resource="http://purl.org/dc/dcmitype/StillImage" />
      </cc:Work>
    </rdf:RDF>
  </metadata>
  <defs
     id="defs47">
    <inkscape:perspective
       sodipodi:type="inkscape:persp3d"
       inkscape:vp_x="0 : 32 : 1"
       inkscape:vp_y="0 : 1000 : 0"
       inkscape:vp_z="64 : 32 : 1"
       inkscape:persp3d-origin="32 : 21.333333 : 1"
       id="perspective51" />
    <inkscape:perspective
       id="perspective2476"
       inkscape:persp3d-origin="32 : 21.333333 : 1"
       inkscape:vp_z="64 : 32 : 1"
       inkscape:vp_y="0 : 1000 : 0"
       inkscape:vp_x="0 : 32 : 1"
       sodipodi:type="inkscape:persp3d" />
    <radialGradient
       inkscape:collect="always"
       xlink:href="#gradient0"
       id="radialGradient2508"
       gradientUnits="userSpaceOnUse"
       gradientTransform="matrix(0.5714,0,0,0.3333,26,35)"
       cx="0"
       cy="0"
       r="64" />
    <linearGradient
       inkscape:collect="always"
       xlink:href="#gradient1"
       id="linearGradient2510"
       gradientUnits="userSpaceOnUse"
       x1="107.04"
       y1="-17.09"
       x2="118.33"
       y2="27.99" />
    <linearGradient
       inkscape:collect="always"
       xlink:href="#gradient2"
       id="linearGradient2512"
       gradientUnits="userSpaceOnUse"
       x1="80.48"
       y1="10.12"
       x2="78.9"
       y2="43.63" />
    <linearGradient
       inkscape:collect="always"
       xlink:href="#gradient3"
       id="linearGradient2514"
       gradientUnits="userSpaceOnUse"
       x1="-62.14"
       y1="43.08"
       x2="-58.5"
       y2="14.4" />
  </defs>
  <sodipodi:namedview
     inkscape:window-height="772"
     inkscape:window-width="1270"
     inkscape:pageshadow="2"
     inkscape:pageopacity="0.0"
     guidetolerance="10.0"
     gridtolerance="10.0"
     objecttolerance="10.0"
     borderopacity="1.0"
     bordercolor="#666666"
     pagecolor="#ffffff"
     id="base"
     showgrid="false"
     inkscape:zoom="7.25"
     inkscape:cx="43.514511"
     inkscape:cy="32"
     inkscape:window-x="0"
     inkscape:window-y="0"
     inkscape:current-layer="g2426" />
  <g
     id="g4">
    <path
       style="fill:#010101; fill-opacity:0.5725"
       d="M27 57L29 59L32.13 55.83L37 59L45.39 47.54L64 38L59 35L61 37L36 49L27 57z            M58 34L62 31L58 29L55 32L58 34z"
       id="path6" />
    <path
       style="fill:none; stroke:#010101; stroke-width:4"
       d="M6.25 30C6.25 30 11.87 36 16.87 42.5C21.87 49 26.25 55.75 26.25 55.75L59.12 36.87L32 15L6.25 30z"
       id="path8" />
    <radialGradient
       id="gradient0"
       gradientUnits="userSpaceOnUse"
       cx="0"
       cy="0"
       r="64"
       gradientTransform="matrix(0.5714,0,0,0.3333,26,35)">
      <stop
         offset="1"
         stop-color="#eaeaea"
         id="stop11" />
      <stop
         offset="0.4886"
         stop-color="#a3a3a3"
         id="stop13" />
    </radialGradient>
    <path
       style="fill:url(#gradient0)"
       d="M6.25 30C6.25 30 11.87 36 16.87 42.5C21.87 49 26.25 55.75 26.25 55.75L59.12 36.87L32 15L6.25 30z"
       id="path15" />
    <path
       style="fill:none; stroke:#010101; stroke-width:4"
       d="M2.62 30.87C2.62 30.87 10.95 36.26 19 41.87C27.44 47.75 35.75 52.75 35.75 52.75L58.12 26.37C58.12 26.37 45.44 20.7 35.37 15.37C30.18 12.62 26 9.37 26 9.37L2.62 30.87z"
       id="path17" />
    <linearGradient
       id="gradient1"
       gradientUnits="userSpaceOnUse"
       x1="107.04"
       y1="-17.09"
       x2="118.33"
       y2="27.99">
      <stop
         offset="0"
         stop-color="#edecec"
         id="stop20" />
      <stop
         offset="0.673"
         stop-color="#f5f5f5"
         id="stop22" />
      <stop
         offset="1"
         stop-color="#e6e6e6"
         id="stop24" />
    </linearGradient>
    <path
       style="fill:url(#gradient1)"
       d="M2.62 30.87C2.62 30.87 10.95 36.26 19 41.87C27.44 47.75 35.75 52.75 35.75 52.75L58.12 26.37C58.12 26.37 45.44 20.7 35.37 15.37C30.18 12.62 26 9.37 26 9.37L2.62 30.87z"
       id="path26" />
    <linearGradient
       id="gradient2"
       gradientUnits="userSpaceOnUse"
       x1="80.48"
       y1="10.12"
       x2="78.9"
       y2="43.63">
      <stop
         offset="0"
         stop-color="#9aa5ec"
         id="stop29" />
      <stop
         offset="0.5498"
         stop-color="#bfd2f9"
         id="stop31" />
      <stop
         offset="1"
         stop-color="#949aee"
         id="stop33" />
    </linearGradient>
    <path
       style="fill:url(#gradient2)"
       d="M8 30L30 44C30 44 45 29 48 25C35 19 26 13 26 13L8 30z"
       id="path35" />
    <path
       style="fill:none; stroke:#010101; stroke-opacity:0.5725; stroke-width:1"
       d="M8 30L30 44C30 44 45 29 48 25C35 19 26 13 26 13L8 30z"
       id="path37" />
    <linearGradient
       id="gradient3"
       gradientUnits="userSpaceOnUse"
       x1="-62.14"
       y1="43.08"
       x2="-58.5"
       y2="14.4">
      <stop
         offset="0"
         stop-color="#c70484"
         stop-opacity="0.8588"
         id="stop40" />
      <stop
         offset="0.9607"
         stop-color="#ee058e"
         id="stop42" />
    </linearGradient>
    <path
       style="fill:url(#gradient3)"
       d="M20.37 21.37C20.37 21.37 16.34 23.06 13.87 25.61C11.25 28.31 9.46 32.97 12.61 33.37C15.61 33.74 19.37 35.61 26.87 34C32.83 32.7 34.82 32.06 37 31.24C39.61 30.24 44.87 31.61 43.5 29.37C42.97 28.5 42.11 27.87 45.61 27.24C49.11 26.61 48.82 22.99 42 22.24C35.11 21.5 31.11 25 26.37 27C21.61 29 18.53 28.7 17.11 28.37C14 27.61 20.37 21.37 20.37 21.37z            M40 33C37.87 33.11 37 35.11 40.5 35.61C44 36.11 42.11 32.87 40 33z            M48.61 28.74C47.5 28.87 47.11 29.74 48.5 30.24C49.87 30.74 49.74 28.61 48.61 28.74z"
       transform="matrix(0.6608,0,0,0.7205,8.6916,7.9718)"
       id="path44" />
  </g>
  <g
     id="g2426"
     transform="translate(-71.285862,-5.8982759)">
    <linearGradient
       y2="47.07"
       x2="102.74"
       y1="8.5"
       x1="102.6"
       gradientUnits="userSpaceOnUse"
       id="linearGradient2482">
      <stop
         id="stop2433"
         stop-color="#face79"
         offset="0" />
      <stop
         id="stop2435"
         stop-color="#bc4105"
         offset="1" />
    </linearGradient>
    <linearGradient
       y2="55.34"
       x2="103.39"
       y1="12.68"
       x1="103.24"
       gradientUnits="userSpaceOnUse"
       id="linearGradient2487">
      <stop
         id="stop2440"
         stop-color="#ffffff"
         offset="0" />
      <stop
         id="stop2442"
         stop-color="#8e8e8e"
         offset="1" />
    </linearGradient>
    <linearGradient
       y2="12.94"
       x2="101.46"
       y1="-26.66"
       x1="78.339996"
       gradientUnits="userSpaceOnUse"
       id="linearGradient2492">
      <stop
         id="stop2447"
         stop-color="#9a9a9a"
         offset="0" />
      <stop
         id="stop2449"
         stop-color="#505050"
         offset="1" />
    </linearGradient>
    <linearGradient
       y2="51.290001"
       x2="97.540001"
       y1="9.5900002"
       x1="88.519997"
       gradientUnits="userSpaceOnUse"
       id="linearGradient2497">
      <stop
         id="stop2454"
         stop-color="#ffe2ac"
         offset="0" />
      <stop
         id="stop2456"
         stop-color="#f49806"
         offset="1" />
    </linearGradient>
    <path
       id="path2462"
       d="M 118.3,39.837587 C 115.97,39.947587 113.8,40.697587 111.95,41.877587 C 111.95,41.877587 111.9,43.117587 112.44,43.957587 L 113.53,45.667587 C 112.13,46.727587 111.06,48.167587 110.48,49.867587 L 108.56,49.367587 C 107.6,49.117587 106.43,49.517587 106.43,49.517587 C 106.15,50.547587 106.02,51.657587 106.02,52.777587 C 106.02,53.977587 106.17,55.117587 106.46,56.207587 C 106.46,56.207587 107.62,56.617587 108.6,56.347587 L 110.52,55.817587 C 111.11,57.457587 112.18,58.907587 113.55,59.937587 L 112.47,61.617587 C 111.94,62.457587 111.98,63.707587 111.98,63.707587 C 113.82,64.887587 115.98,65.617587 118.31,65.727587 C 118.31,65.727587 119.04,64.777587 119.09,63.777587 L 119.18,61.757587 C 121,61.727587 122.68,61.137587 124.09,60.187587 L 125.34,61.737587 C 125.97,62.507587 127.15,62.867587 127.15,62.867587 C 128.88,61.457587 130.25,59.617587 131.09,57.477587 C 131.09,57.477587 130.4,56.507587 129.47,56.137587 L 127.59,55.387587 C 127.84,54.577587 127.97,53.687587 127.97,52.797587 C 127.97,51.917587 127.86,51.087587 127.63,50.277587 L 129.49,49.587587 C 130.43,49.227587 131.13,48.197587 131.13,48.197587 C 130.33,46.047587 128.95,44.167587 127.2,42.737587 C 127.2,42.737587 126.04,43.097587 125.4,43.877587 L 124.15,45.447587 C 122.75,44.457587 121.04,43.867587 119.18,43.827587 L 119.09,41.797587 C 119.06,40.797587 118.31,39.837587 118.31,39.837587 L 118.3,39.837587 z M 123,52.827587 C 123,55.027587 121.21,56.827587 119,56.827587 C 116.8,56.827587 115,55.037587 115,52.827587 C 115,50.617587 116.78,48.827587 119,48.827587 C 121.2,48.827587 123,50.607587 123,52.827587 z"
       style="fill:none;stroke:#000000;stroke-width:4" />
    <linearGradient
       y2="22.58"
       x2="57.169998"
       y1="-0.0099999998"
       x1="21.959999"
       gradientUnits="userSpaceOnUse"
       id="gradient4"
       gradientTransform="translate(104,4.8275863)">
      <stop
         id="stop2465"
         stop-color="#f7f9ff"
         offset="0" />
      <stop
         id="stop2467"
         stop-color="#989db0"
         offset="1" />
    </linearGradient>
    <path
       id="path2469"
       d="M 118.3,39.837587 C 115.97,39.947587 113.8,40.697587 111.95,41.877587 C 111.95,41.877587 111.9,43.117587 112.44,43.957587 L 113.53,45.667587 C 112.13,46.727587 111.06,48.167587 110.48,49.867587 L 108.56,49.367587 C 107.6,49.117587 106.43,49.517587 106.43,49.517587 C 106.15,50.547587 106.02,51.657587 106.02,52.777587 C 106.02,53.977587 106.17,55.117587 106.46,56.207587 C 106.46,56.207587 107.62,56.617587 108.6,56.347587 L 110.52,55.817587 C 111.11,57.457587 112.18,58.907587 113.55,59.937587 L 112.47,61.617587 C 111.94,62.457587 111.98,63.707587 111.98,63.707587 C 113.82,64.887587 115.98,65.617587 118.31,65.727587 C 118.31,65.727587 119.04,64.777587 119.09,63.777587 L 119.18,61.757587 C 121,61.727587 122.68,61.137587 124.09,60.187587 L 125.34,61.737587 C 125.97,62.507587 127.15,62.867587 127.15,62.867587 C 128.88,61.457587 130.25,59.617587 131.09,57.477587 C 131.09,57.477587 130.4,56.507587 129.47,56.137587 L 127.59,55.387587 C 127.84,54.577587 127.97,53.687587 127.97,52.797587 C 127.97,51.917587 127.86,51.087587 127.63,50.277587 L 129.49,49.587587 C 130.43,49.227587 131.13,48.197587 131.13,48.197587 C 130.33,46.047587 128.95,44.167587 127.2,42.737587 C 127.2,42.737587 126.04,43.097587 125.4,43.877587 L 124.15,45.447587 C 122.75,44.457587 121.04,43.867587 119.18,43.827587 L 119.09,41.797587 C 119.06,40.797587 118.31,39.837587 118.31,39.837587 L 118.3,39.837587 z M 123,52.827587 C 123,55.027587 121.21,56.827587 119,56.827587 C 116.8,56.827587 115,55.037587 115,52.827587 C 115,50.617587 116.78,48.827587 119,48.827587 C 121.2,48.827587 123,50.607587 123,52.827587 z"
       style="fill:url(#gradient4)" />
  </g>
</svg>
