/* XPM */
static char *AimApp[]={
"32 32 5 1",
"# c #000000",
"a c #808000",
"c c #808080",
"b c #ffff00",
". c #ffffff",
"................................",
"..................####..........",
".................######.........",
"................##abba##........",
"...............##abbbbb##.......",
"...............##bbbbbba#.......",
"...............#abbbbbba#.......",
"...............#abbbbbba#.......",
"...............##bbbbbb##.......",
"................##abbb##........",
"...............#########........",
"..............###a#####.##......",
".............c#abbb########.....",
".............##bbbbaaaaabb##....",
".............#abbbbbbbbbbb##....",
"............c#abbbbbbbbbbb##....",
"............##bbbbbabbbaa###....",
"............##bbbba########.....",
"............#abbbbb####.........",
"............#abbbbbba###........",
"...........##abbbbbbbb###.......",
"..........##abbbbbbbbbba##......",
".........###bbbbaabbbbbb###.....",
".......####bbbbb###abbbbb##.....",
".....####abbbbba####abbbba##....",
".....##abbbbbba##..###bbbb##....",
".....c#abbbbba##....###bbba##...",
"......##bbba###......##aba###...",
"......##aa####........#####c....",
".......#####...........###......",
".......##..............c........",
"................................"};
