<?xml version="1.0" encoding="UTF-8" standalone="no"?>
<!-- Created with Inkscape (http://www.inkscape.org/) -->

<svg
   xmlns:svg="http://www.w3.org/2000/svg"
   xmlns="http://www.w3.org/2000/svg"
   version="1.1"
   width="65"
   height="127"
   viewBox="-0.166 -0.064 65 127"
   id="svg2"
   xml:space="preserve"
   style="overflow:visible"><defs
   id="defs614" />
	<g
   id="Layer_1_2_">
		<g
   id="g5">
			<path
   d="m 4.892,101.508 c 0,-12.309 9.979,-22.287 22.287,-22.287 12.308,0 22.287,9.979 22.287,22.287 0,12.308 -9.979,22.287 -22.287,22.287 -12.308,0 -22.287,-9.978 -22.287,-22.287 z"
   id="path7"
   style="fill:#b40303" />
			<path
   d="m 49.306,101.471 c 0,12.246 -9.929,22.174 -22.176,22.174 -12.246,0 -22.175,-9.928 -22.175,-22.174 0,-12.246 9.929,-22.174 22.175,-22.174 12.247,0 22.176,9.928 22.176,22.174 z"
   id="path9"
   style="fill:#b40404" />
			<path
   d="m 49.144,101.432 c 0,12.186 -9.877,22.062 -22.062,22.062 -12.184,0 -22.061,-9.877 -22.061,-22.062 0,-12.184 9.877,-22.061 22.061,-22.061 12.185,0.001 22.062,9.878 22.062,22.061 z"
   id="path11"
   style="fill:#b50505" />
			<path
   d="m 48.982,101.395 c 0,12.121 -9.827,21.949 -21.95,21.949 -12.121,0 -21.948,-9.828 -21.948,-21.949 0,-12.121 9.827,-21.949 21.948,-21.949 12.123,0 21.95,9.828 21.95,21.949 z"
   id="path13"
   style="fill:#b50606" />
			<path
   d="m 48.821,101.358 c 0,12.059 -9.776,21.836 -21.836,21.836 -12.061,0 -21.837,-9.777 -21.837,-21.836 0,-12.061 9.776,-21.836 21.837,-21.836 12.06,0 21.836,9.775 21.836,21.836 z"
   id="path15"
   style="fill:#b60707" />
			<path
   d="m 48.661,101.321 c 0,11.996 -9.727,21.723 -21.725,21.723 -11.998,0 -21.724,-9.727 -21.724,-21.723 0,-11.998 9.726,-21.725 21.724,-21.725 11.998,0 21.725,9.727 21.725,21.725 z"
   id="path17"
   style="fill:#b60808" />
			<path
   d="m 48.499,101.282 c 0,11.936 -9.676,21.611 -21.611,21.611 -11.935,0 -21.612,-9.676 -21.612,-21.611 0,-11.935 9.676,-21.612 21.612,-21.612 11.936,0 21.611,9.676 21.611,21.612 z"
   id="path19"
   style="fill:#b70909" />
			<path
   d="m 48.339,101.245 c 0,11.873 -9.626,21.498 -21.5,21.498 -11.873,0 -21.499,-9.625 -21.499,-21.498 0,-11.873 9.626,-21.5 21.499,-21.5 11.874,0 21.5,9.627 21.5,21.5 z"
   id="path21"
   style="fill:#b70a0a" />
			<path
   d="m 48.178,101.206 c 0,11.811 -9.575,21.387 -21.387,21.387 -11.812,0 -21.387,-9.576 -21.387,-21.387 0,-11.811 9.575,-21.387 21.387,-21.387 11.812,0 21.387,9.576 21.387,21.387 z"
   id="path23"
   style="fill:#b80b0b" />
			<path
   d="m 48.016,101.168 c 0,11.748 -9.524,21.273 -21.273,21.273 -11.749,0 -21.273,-9.525 -21.273,-21.273 0,-11.75 9.524,-21.273 21.273,-21.273 11.749,0 21.273,9.523 21.273,21.273 z"
   id="path25"
   style="fill:#b80c0c" />
			<path
   d="m 47.855,101.129 c 0,11.688 -9.475,21.162 -21.162,21.162 -11.687,0 -21.16,-9.475 -21.16,-21.162 0,-11.686 9.474,-21.16 21.16,-21.16 11.688,0 21.162,9.475 21.162,21.16 z"
   id="path27"
   style="fill:#b80d0d" />
			<path
   d="m 47.694,101.092 c 0,11.623 -9.426,21.049 -21.05,21.049 -11.624,0 -21.048,-9.426 -21.048,-21.049 0,-11.625 9.424,-21.049 21.048,-21.049 11.624,0 21.05,9.424 21.05,21.049 z"
   id="path29"
   style="fill:#b90e0e" />
			<path
   d="m 47.533,101.053 c 0,11.562 -9.374,20.938 -20.937,20.938 -11.563,0 -20.936,-9.375 -20.936,-20.938 0,-11.561 9.373,-20.934 20.936,-20.934 11.563,0 20.937,9.374 20.937,20.934 z"
   id="path31"
   style="fill:#b90f0f" />
			<path
   d="m 47.371,101.016 c 0,11.5 -9.323,20.824 -20.823,20.824 -11.5,0 -20.823,-9.324 -20.823,-20.824 0,-11.5 9.323,-20.824 20.823,-20.824 11.5,0 20.823,9.324 20.823,20.824 z"
   id="path33"
   style="fill:#ba1010" />
			<path
   d="m 47.211,100.979 c 0,11.438 -9.272,20.711 -20.712,20.711 -11.438,0 -20.71,-9.273 -20.71,-20.711 0,-11.438 9.272,-20.711 20.71,-20.711 11.439,0 20.712,9.274 20.712,20.711 z"
   id="path35"
   style="fill:#ba1111" />
			<path
   d="m 47.05,100.942 c 0,11.375 -9.223,20.598 -20.599,20.598 -11.376,0 -20.599,-9.223 -20.599,-20.598 0,-11.377 9.223,-20.6 20.599,-20.6 11.376,0 20.599,9.223 20.599,20.6 z"
   id="path37"
   style="fill:#bb1212" />
			<path
   d="m 46.889,100.903 c 0,11.312 -9.172,20.486 -20.486,20.486 -11.313,0 -20.485,-9.174 -20.485,-20.486 0,-11.314 9.172,-20.486 20.485,-20.486 11.314,0 20.486,9.171 20.486,20.486 z"
   id="path39"
   style="fill:#bb1313" />
			<path
   d="m 46.728,100.864 c 0,11.252 -9.121,20.373 -20.373,20.373 -11.252,0 -20.375,-9.121 -20.375,-20.373 0,-11.25 9.122,-20.371 20.374,-20.371 11.252,0 20.374,9.121 20.374,20.371 z"
   id="path41"
   style="fill:#bc1414" />
			<path
   d="m 46.566,100.827 c 0,11.189 -9.071,20.262 -20.261,20.262 -11.19,0 -20.26,-9.072 -20.26,-20.262 0,-11.188 9.07,-20.26 20.26,-20.26 11.19,0 20.261,9.072 20.261,20.26 z"
   id="path43"
   style="fill:#bc1515" />
			<path
   d="m 46.405,100.788 c 0,11.129 -9.021,20.148 -20.148,20.148 -11.127,0 -20.147,-9.02 -20.147,-20.148 0,-11.125 9.021,-20.146 20.147,-20.146 11.126,0 20.148,9.021 20.148,20.146 z"
   id="path45"
   style="fill:#bd1616" />
			<path
   d="m 46.244,100.75 c 0,11.066 -8.97,20.035 -20.035,20.035 -11.065,0 -20.035,-8.968 -20.035,-20.035 0,-11.064 8.97,-20.035 20.035,-20.035 11.065,0 20.035,8.971 20.035,20.035 z"
   id="path47"
   style="fill:#bd1717" />
			<path
   d="m 46.083,100.713 c 0,11.004 -8.92,19.924 -19.923,19.924 -11.003,0 -19.923,-8.92 -19.923,-19.924 0,-11.002 8.92,-19.922 19.923,-19.922 11.003,0 19.923,8.92 19.923,19.922 z"
   id="path49"
   style="fill:#bd1818" />
			<path
   d="m 45.922,100.676 c 0,10.939 -8.869,19.809 -19.811,19.809 -10.94,0 -19.81,-8.869 -19.81,-19.809 0,-10.941 8.869,-19.811 19.81,-19.811 10.942,0.001 19.811,8.87 19.811,19.811 z"
   id="path51"
   style="fill:#be1919" />
			<path
   d="m 45.76,100.637 c 0,10.879 -8.818,19.697 -19.697,19.697 -10.878,0 -19.697,-8.818 -19.697,-19.697 0,-10.879 8.819,-19.697 19.696,-19.697 10.879,0 19.698,8.818 19.698,19.697 z"
   id="path53"
   style="fill:#be1a1a" />
			<path
   d="m 45.6,100.6 c 0,10.816 -8.769,19.584 -19.585,19.584 -10.816,0 -19.585,-8.767 -19.585,-19.584 0,-10.817 8.769,-19.584 19.585,-19.584 10.816,0 19.585,8.768 19.585,19.584 z"
   id="path55"
   style="fill:#bf1b1b" />
			<path
   d="m 45.438,100.561 c 0,10.756 -8.718,19.473 -19.473,19.473 -10.754,0 -19.472,-8.717 -19.472,-19.473 0,-10.752 8.718,-19.471 19.472,-19.471 10.756,0 19.473,8.719 19.473,19.471 z"
   id="path57"
   style="fill:#bf1c1c" />
			<path
   d="m 45.278,100.524 c 0,10.691 -8.669,19.359 -19.36,19.359 -10.692,0 -19.36,-8.668 -19.36,-19.359 0,-10.691 8.668,-19.359 19.36,-19.359 10.691,0 19.36,8.668 19.36,19.359 z"
   id="path59"
   style="fill:#c01d1d" />
			<path
   d="m 45.115,100.485 c 0,10.631 -8.617,19.248 -19.246,19.248 -10.63,0 -19.247,-8.617 -19.247,-19.248 0,-10.629 8.617,-19.246 19.247,-19.246 10.629,0 19.246,8.617 19.246,19.246 z"
   id="path61"
   style="fill:#c01e1e" />
			<path
   d="m 44.955,100.448 c 0,10.568 -8.567,19.135 -19.135,19.135 -10.568,0 -19.134,-8.566 -19.134,-19.135 0,-10.566 8.566,-19.135 19.134,-19.135 10.568,0 19.135,8.568 19.135,19.135 z"
   id="path63"
   style="fill:#c11f1f" />
			<path
   d="m 44.794,100.411 c 0,10.506 -8.516,19.021 -19.021,19.021 -10.505,0 -19.021,-8.516 -19.021,-19.021 0,-10.505 8.516,-19.021 19.021,-19.021 10.505,0 19.021,8.515 19.021,19.021 z"
   id="path65"
   style="fill:#c12020" />
			<path
   d="m 44.634,100.374 c 0,10.441 -8.468,18.908 -18.91,18.908 -10.443,0 -18.909,-8.467 -18.909,-18.908 0,-10.443 8.466,-18.91 18.909,-18.91 10.442,-0.001 18.91,8.466 18.91,18.91 z"
   id="path67"
   style="fill:#c12121" />
			<path
   d="m 44.472,100.334 c 0,10.381 -8.416,18.797 -18.798,18.797 -10.38,0 -18.796,-8.416 -18.796,-18.797 0,-10.381 8.416,-18.797 18.796,-18.797 10.382,10e-4 18.798,8.417 18.798,18.797 z"
   id="path69"
   style="fill:#c22222" />
			<path
   d="m 44.311,100.297 c 0,10.318 -8.364,18.684 -18.684,18.684 -10.32,0 -18.685,-8.365 -18.685,-18.684 0,-10.319 8.365,-18.684 18.685,-18.684 10.32,0 18.684,8.366 18.684,18.684 z"
   id="path71"
   style="fill:#c22323" />
			<path
   d="m 44.149,100.258 c 0,10.258 -8.315,18.572 -18.571,18.572 -10.257,0 -18.571,-8.314 -18.571,-18.572 0,-10.256 8.314,-18.57 18.571,-18.57 10.256,0 18.571,8.314 18.571,18.57 z"
   id="path73"
   style="fill:#c32424" />
			<path
   d="m 43.988,100.221 c 0,10.195 -8.265,18.459 -18.459,18.459 -10.194,0 -18.459,-8.263 -18.459,-18.459 0,-10.193 8.265,-18.459 18.459,-18.459 10.194,0 18.459,8.266 18.459,18.459 z"
   id="path75"
   style="fill:#c32525" />
			<path
   d="m 43.827,100.182 c 0,10.133 -8.214,18.348 -18.347,18.348 -10.132,0 -18.347,-8.215 -18.347,-18.348 0,-10.131 8.215,-18.346 18.347,-18.346 10.133,0 18.347,8.215 18.347,18.346 z"
   id="path77"
   style="fill:#c42626" />
			<path
   d="m 43.667,100.145 c 0,10.07 -8.165,18.232 -18.234,18.232 -10.07,0 -18.233,-8.162 -18.233,-18.232 0,-10.068 8.163,-18.234 18.233,-18.234 10.069,0 18.234,8.166 18.234,18.234 z"
   id="path79"
   style="fill:#c42727" />
			<path
   d="m 43.505,100.108 c 0,10.008 -8.112,18.121 -18.12,18.121 -10.008,0 -18.121,-8.113 -18.121,-18.121 0,-10.008 8.113,-18.121 18.121,-18.121 10.008,0 18.12,8.113 18.12,18.121 z"
   id="path81"
   style="fill:#c52828" />
			<path
   d="m 43.344,100.071 c 0,9.945 -8.062,18.008 -18.008,18.008 -9.946,0 -18.009,-8.062 -18.009,-18.008 0,-9.946 8.062,-18.01 18.009,-18.01 9.945,0 18.008,8.064 18.008,18.01 z"
   id="path83"
   style="fill:#c52929" />
			<path
   d="m 43.183,100.032 c 0,9.883 -8.013,17.895 -17.896,17.895 -9.883,0 -17.896,-8.012 -17.896,-17.895 0,-9.885 8.013,-17.896 17.896,-17.896 9.883,-10e-4 17.896,8.011 17.896,17.896 z"
   id="path85"
   style="fill:#c62a2a" />
			<path
   d="m 43.022,99.995 c 0,9.82 -7.963,17.783 -17.784,17.783 -9.821,0 -17.783,-7.963 -17.783,-17.783 0,-9.822 7.962,-17.783 17.783,-17.783 9.821,0 17.784,7.96 17.784,17.783 z"
   id="path87"
   style="fill:#c62b2b" />
			<path
   d="m 42.86,99.956 c 0,9.76 -7.911,17.672 -17.67,17.672 -9.76,0 -17.671,-7.912 -17.671,-17.672 0,-9.758 7.911,-17.67 17.671,-17.67 9.759,0 17.67,7.912 17.67,17.67 z"
   id="path89"
   style="fill:#c62c2c" />
			<path
   d="m 42.7,99.918 c 0,9.697 -7.862,17.557 -17.56,17.557 -9.695,0 -17.557,-7.859 -17.557,-17.557 0,-9.698 7.862,-17.558 17.558,-17.558 9.697,0 17.559,7.861 17.559,17.558 z"
   id="path91"
   style="fill:#c72d2d" />
			<path
   d="m 42.538,99.879 c 0,9.635 -7.811,17.445 -17.445,17.445 -9.634,0 -17.447,-7.81 -17.447,-17.445 0,-9.635 7.812,-17.445 17.446,-17.445 9.634,0 17.446,7.811 17.446,17.445 z"
   id="path93"
   style="fill:#c72e2e" />
			<path
   d="m 42.378,99.842 c 0,9.572 -7.761,17.332 -17.334,17.332 -9.572,0 -17.332,-7.76 -17.332,-17.332 0,-9.572 7.76,-17.332 17.332,-17.332 9.573,0 17.334,7.76 17.334,17.332 z"
   id="path95"
   style="fill:#c82f2f" />
			<path
   d="m 42.216,99.805 c 0,9.51 -7.71,17.221 -17.219,17.221 -9.512,0 -17.221,-7.711 -17.221,-17.221 0,-9.512 7.709,-17.221 17.221,-17.221 9.509,0 17.219,7.709 17.219,17.221 z"
   id="path97"
   style="fill:#c83030" />
			<path
   d="m 42.056,99.768 c 0,9.447 -7.66,17.107 -17.108,17.107 -9.448,0 -17.108,-7.66 -17.108,-17.107 0,-9.449 7.659,-17.109 17.107,-17.109 9.448,0 17.109,7.66 17.109,17.109 z"
   id="path99"
   style="fill:#c93131" />
			<path
   d="m 41.894,99.729 c 0,9.385 -7.608,16.994 -16.995,16.994 -9.386,0 -16.995,-7.609 -16.995,-16.994 0,-9.387 7.609,-16.996 16.995,-16.996 9.386,0 16.995,7.609 16.995,16.996 z"
   id="path101"
   style="fill:#c93232" />
			<path
   d="m 41.732,99.692 c 0,9.322 -7.559,16.881 -16.882,16.881 -9.324,0 -16.883,-7.559 -16.883,-16.881 0,-9.324 7.559,-16.883 16.883,-16.883 9.324,0 16.882,7.559 16.882,16.883 z"
   id="path103"
   style="fill:#ca3333" />
			<path
   d="m 41.571,99.653 c 0,9.262 -7.508,16.77 -16.769,16.77 -9.262,0 -16.771,-7.508 -16.771,-16.77 0,-9.262 7.509,-16.77 16.771,-16.77 9.261,0 16.769,7.508 16.769,16.77 z"
   id="path105"
   style="fill:#ca3434" />
			<path
   d="m 41.411,99.616 c 0,9.199 -7.458,16.656 -16.658,16.656 -9.199,0 -16.657,-7.457 -16.657,-16.656 0,-9.199 7.458,-16.658 16.657,-16.658 9.2,0 16.658,7.459 16.658,16.658 z"
   id="path107"
   style="fill:#ca3535" />
			<path
   d="m 41.249,99.577 c 0,9.137 -7.407,16.545 -16.544,16.545 -9.138,0 -16.545,-7.408 -16.545,-16.545 0,-9.137 7.407,-16.545 16.545,-16.545 9.137,0 16.544,7.408 16.544,16.545 z"
   id="path109"
   style="fill:#cb3636" />
			<path
   d="m 41.089,99.54 c 0,9.074 -7.357,16.432 -16.433,16.432 -9.076,0 -16.431,-7.358 -16.431,-16.432 0,-9.074 7.356,-16.432 16.432,-16.432 9.076,0 16.432,7.357 16.432,16.432 z"
   id="path111"
   style="fill:#cb3737" />
			<path
   d="m 40.928,99.502 c 0,9.012 -7.307,16.318 -16.32,16.318 -9.013,0 -16.318,-7.307 -16.318,-16.318 0,-9.014 7.306,-16.32 16.318,-16.32 9.013,0 16.32,7.307 16.32,16.32 z"
   id="path113"
   style="fill:#cc3838" />
			<path
   d="m 40.767,99.463 c 0,8.951 -7.257,16.207 -16.207,16.207 -8.951,0 -16.207,-7.256 -16.207,-16.207 0,-8.949 7.256,-16.207 16.207,-16.207 8.95,0 16.207,7.258 16.207,16.207 z"
   id="path115"
   style="fill:#cc3939" />
			<path
   d="m 40.605,99.426 c 0,8.887 -7.207,16.094 -16.095,16.094 -8.889,0 -16.094,-7.207 -16.094,-16.094 0,-8.889 7.205,-16.094 16.094,-16.094 8.888,0.001 16.095,7.206 16.095,16.094 z"
   id="path117"
   style="fill:#cd3a3a" />
			<path
   d="m 40.444,99.389 c 0,8.824 -7.155,15.979 -15.981,15.979 -8.827,0 -15.982,-7.154 -15.982,-15.979 0,-8.826 7.155,-15.982 15.982,-15.982 8.826,0 15.981,7.156 15.981,15.982 z"
   id="path119"
   style="fill:#cd3b3b" />
			<path
   d="m 40.284,99.35 c 0,8.764 -7.106,15.869 -15.87,15.869 -8.764,0 -15.869,-7.105 -15.869,-15.869 0,-8.764 7.105,-15.869 15.869,-15.869 8.764,0 15.87,7.105 15.87,15.869 z"
   id="path121"
   style="fill:#ce3c3c" />
			<path
   d="m 40.122,99.311 c 0,8.703 -7.055,15.758 -15.757,15.758 -8.702,0 -15.757,-7.055 -15.757,-15.758 0,-8.699 7.055,-15.754 15.757,-15.754 8.702,0 15.757,7.055 15.757,15.754 z"
   id="path123"
   style="fill:#ce3d3d" />
			<path
   d="m 39.961,99.274 c 0,8.639 -7.004,15.643 -15.644,15.643 -8.641,0 -15.645,-7.004 -15.645,-15.643 0,-8.639 7.004,-15.643 15.645,-15.643 8.64,0 15.644,7.004 15.644,15.643 z"
   id="path125"
   style="fill:#ce3e3e" />
			<path
   d="m 39.8,99.237 c 0,8.576 -6.954,15.531 -15.531,15.531 -8.578,0 -15.531,-6.955 -15.531,-15.531 0,-8.576 6.953,-15.531 15.531,-15.531 8.577,0 15.531,6.955 15.531,15.531 z"
   id="path127"
   style="fill:#cf3f3f" />
			<path
   d="m 39.64,99.2 c 0,8.514 -6.904,15.416 -15.42,15.416 -8.515,0 -15.418,-6.902 -15.418,-15.416 0,-8.516 6.903,-15.42 15.418,-15.42 8.515,0 15.42,6.904 15.42,15.42 z"
   id="path129"
   style="fill:#cf4040" />
			<path
   d="m 39.478,99.161 c 0,8.453 -6.854,15.305 -15.306,15.305 -8.454,0 -15.307,-6.852 -15.307,-15.305 0,-8.453 6.853,-15.307 15.307,-15.307 8.452,0 15.306,6.854 15.306,15.307 z"
   id="path131"
   style="fill:#d04141" />
			<path
   d="m 39.316,99.124 c 0,8.389 -6.804,15.193 -15.193,15.193 -8.392,0 -15.193,-6.805 -15.193,-15.193 0,-8.393 6.802,-15.193 15.193,-15.193 8.39,-10e-4 15.193,6.8 15.193,15.193 z"
   id="path133"
   style="fill:#d04242" />
			<path
   d="m 39.155,99.084 c 0,8.328 -6.752,15.08 -15.081,15.08 -8.328,0 -15.081,-6.752 -15.081,-15.08 0,-8.328 6.753,-15.08 15.081,-15.08 8.329,0 15.081,6.752 15.081,15.08 z"
   id="path135"
   style="fill:#d14343" />
			<path
   d="m 38.995,99.047 c 0,8.266 -6.702,14.969 -14.969,14.969 -8.267,0 -14.968,-6.703 -14.968,-14.969 0,-8.266 6.702,-14.969 14.969,-14.969 8.267,0 14.968,6.704 14.968,14.969 z"
   id="path137"
   style="fill:#d14444" />
			<path
   d="m 38.833,99.008 c 0,8.205 -6.651,14.857 -14.855,14.857 -8.204,0 -14.856,-6.652 -14.856,-14.857 0,-8.203 6.651,-14.854 14.855,-14.854 8.204,0 14.856,6.651 14.856,14.854 z"
   id="path139"
   style="fill:#d24545" />
			<path
   d="m 38.672,98.971 c 0,8.141 -6.601,14.742 -14.743,14.742 -8.142,0 -14.743,-6.601 -14.743,-14.742 0,-8.143 6.601,-14.744 14.743,-14.744 8.142,0 14.743,6.602 14.743,14.744 z"
   id="path141"
   style="fill:#d24646" />
			<path
   d="m 38.511,98.932 c 0,8.08 -6.551,14.631 -14.631,14.631 -8.08,0 -14.631,-6.551 -14.631,-14.631 0,-8.078 6.551,-14.629 14.631,-14.629 8.08,0 14.631,6.551 14.631,14.629 z"
   id="path143"
   style="fill:#d34747" />
			<path
   d="m 38.351,98.897 c 0,8.016 -6.501,14.516 -14.519,14.516 -8.018,0 -14.518,-6.5 -14.518,-14.516 0,-8.02 6.5,-14.52 14.518,-14.52 8.018,0 14.519,6.5 14.519,14.52 z"
   id="path145"
   style="fill:#d34848" />
			<path
   d="m 38.188,98.858 c 0,7.955 -6.449,14.404 -14.405,14.404 -7.956,0 -14.405,-6.449 -14.405,-14.404 0,-7.957 6.449,-14.406 14.405,-14.406 7.956,0 14.405,6.449 14.405,14.406 z"
   id="path147"
   style="fill:#d34949" />
			<path
   d="m 38.027,98.819 c 0,7.895 -6.399,14.293 -14.293,14.293 -7.893,0 -14.292,-6.398 -14.292,-14.293 0,-7.893 6.399,-14.291 14.292,-14.291 7.894,0 14.293,6.398 14.293,14.291 z"
   id="path149"
   style="fill:#d44a4a" />
			<path
   d="m 37.866,98.782 c 0,7.83 -6.349,14.18 -14.181,14.18 -7.831,0 -14.18,-6.35 -14.18,-14.18 0,-7.832 6.349,-14.18 14.18,-14.18 7.833,0 14.181,6.348 14.181,14.18 z"
   id="path151"
   style="fill:#d44b4b" />
			<path
   d="m 37.706,98.745 c 0,7.77 -6.299,14.066 -14.067,14.066 -7.77,0 -14.068,-6.297 -14.068,-14.066 0,-7.769 6.299,-14.068 14.068,-14.068 7.768,-0.001 14.067,6.298 14.067,14.068 z"
   id="path153"
   style="fill:#d54c4c" />
			<path
   d="m 37.544,98.706 c 0,7.707 -6.248,13.955 -13.954,13.955 -7.708,0 -13.955,-6.248 -13.955,-13.955 0,-7.707 6.247,-13.953 13.955,-13.953 7.706,-0.001 13.954,6.246 13.954,13.953 z"
   id="path155"
   style="fill:#d54d4d" />
			<path
   d="m 37.383,98.668 c 0,7.645 -6.197,13.842 -13.842,13.842 -7.646,0 -13.843,-6.197 -13.843,-13.842 0,-7.645 6.197,-13.842 13.843,-13.842 7.645,0.001 13.842,6.198 13.842,13.842 z"
   id="path157"
   style="fill:#d64e4e" />
			<path
   d="m 37.222,98.629 c 0,7.584 -6.146,13.73 -13.729,13.73 -7.582,0 -13.729,-6.146 -13.729,-13.73 0,-7.582 6.147,-13.729 13.729,-13.729 7.582,10e-4 13.729,6.147 13.729,13.729 z"
   id="path159"
   style="fill:#d64f4f" />
			<path
   d="m 37.062,98.594 c 0,7.52 -6.098,13.615 -13.617,13.615 -7.521,0 -13.617,-6.096 -13.617,-13.615 0,-7.521 6.096,-13.617 13.617,-13.617 7.519,0 13.617,6.096 13.617,13.617 z"
   id="path161"
   style="fill:#d75050" />
			<path
   d="m 36.899,98.555 c 0,7.457 -6.047,13.504 -13.504,13.504 -7.459,0 -13.504,-6.047 -13.504,-13.504 0,-7.459 6.045,-13.506 13.504,-13.506 7.458,0 13.504,6.047 13.504,13.506 z"
   id="path163"
   style="fill:#d75151" />
			<path
   d="m 36.739,98.516 c 0,7.396 -5.997,13.393 -13.393,13.393 -7.396,0 -13.392,-5.996 -13.392,-13.393 0,-7.395 5.995,-13.391 13.392,-13.391 7.396,0 13.393,5.997 13.393,13.391 z"
   id="path165"
   style="fill:#d75252" />
			<path
   d="m 36.577,98.479 c 0,7.334 -5.945,13.279 -13.279,13.279 -7.333,0 -13.279,-5.945 -13.279,-13.279 0,-7.334 5.946,-13.279 13.279,-13.279 7.334,0 13.279,5.945 13.279,13.279 z"
   id="path167"
   style="fill:#d85353" />
			<path
   d="m 36.417,98.442 c 0,7.271 -5.896,13.166 -13.167,13.166 -7.271,0 -13.167,-5.895 -13.167,-13.166 0,-7.271 5.896,-13.168 13.167,-13.168 7.271,0 13.167,5.896 13.167,13.168 z"
   id="path169"
   style="fill:#d85454" />
			<path
   d="m 36.255,98.403 c 0,7.209 -5.844,13.055 -13.054,13.055 -7.21,0 -13.054,-5.846 -13.054,-13.055 0,-7.209 5.844,-13.053 13.054,-13.053 7.21,0 13.054,5.844 13.054,13.053 z"
   id="path171"
   style="fill:#d95555" />
			<path
   d="m 36.095,98.366 c 0,7.146 -5.795,12.941 -12.942,12.941 -7.147,0 -12.941,-5.795 -12.941,-12.941 0,-7.146 5.794,-12.941 12.941,-12.941 7.147,0 12.942,5.794 12.942,12.941 z"
   id="path173"
   style="fill:#d95656" />
			<path
   d="m 35.933,98.327 c 0,7.086 -5.743,12.83 -12.828,12.83 -7.085,0 -12.829,-5.744 -12.829,-12.83 0,-7.084 5.744,-12.828 12.829,-12.828 7.085,0 12.828,5.744 12.828,12.828 z"
   id="path175"
   style="fill:#da5757" />
			<path
   d="m 35.772,98.29 c 0,7.023 -5.693,12.717 -12.717,12.717 -7.022,0 -12.717,-5.693 -12.717,-12.717 0,-7.021 5.694,-12.717 12.717,-12.717 7.024,0 12.717,5.695 12.717,12.717 z"
   id="path177"
   style="fill:#da5858" />
			<path
   d="m 35.61,98.252 c 0,6.959 -5.643,12.602 -12.604,12.602 -6.96,0 -12.604,-5.643 -12.604,-12.602 0,-6.961 5.644,-12.604 12.604,-12.604 6.962,0.001 12.604,5.644 12.604,12.604 z"
   id="path179"
   style="fill:#db5959" />
			<path
   d="m 35.45,98.213 c 0,6.898 -5.593,12.49 -12.492,12.49 -6.898,0 -12.49,-5.592 -12.49,-12.49 0,-6.896 5.592,-12.49 12.49,-12.49 6.899,0 12.492,5.594 12.492,12.49 z"
   id="path181"
   style="fill:#db5a5a" />
			<path
   d="m 35.288,98.176 c 0,6.836 -5.542,12.379 -12.378,12.379 -6.837,0 -12.378,-5.543 -12.378,-12.379 0,-6.836 5.541,-12.379 12.378,-12.379 6.836,0 12.378,5.543 12.378,12.379 z"
   id="path183"
   style="fill:#dc5b5b" />
			<path
   d="m 35.128,98.137 c 0,6.775 -5.492,12.266 -12.266,12.266 -6.774,0 -12.267,-5.49 -12.267,-12.266 0,-6.773 5.492,-12.264 12.267,-12.264 6.774,10e-4 12.266,5.491 12.266,12.264 z"
   id="path185"
   style="fill:#dc5c5c" />
			<path
   d="m 34.966,98.1 c 0,6.713 -5.44,12.152 -12.152,12.152 -6.712,0 -12.154,-5.439 -12.154,-12.152 0,-6.711 5.441,-12.152 12.153,-12.152 6.712,0 12.153,5.441 12.153,12.152 z"
   id="path187"
   style="fill:#dc5d5d" />
			<path
   d="m 34.806,98.063 c 0,6.648 -5.392,12.041 -12.041,12.041 -6.649,0 -12.041,-5.393 -12.041,-12.041 0,-6.65 5.392,-12.041 12.041,-12.041 6.649,0 12.041,5.391 12.041,12.041 z"
   id="path189"
   style="fill:#dd5e5e" />
			<path
   d="m 34.644,98.024 c 0,6.588 -5.34,11.928 -11.928,11.928 -6.588,0 -11.928,-5.34 -11.928,-11.928 0,-6.588 5.34,-11.928 11.928,-11.928 6.588,0 11.928,5.34 11.928,11.928 z"
   id="path191"
   style="fill:#dd5f5f" />
			<path
   d="m 34.483,97.987 c 0,6.525 -5.29,11.814 -11.815,11.814 -6.526,0 -11.816,-5.289 -11.816,-11.814 0,-6.525 5.29,-11.816 11.816,-11.816 6.525,-0.001 11.815,5.29 11.815,11.816 z"
   id="path193"
   style="fill:#de6060" />
			<path
   d="m 34.321,97.95 c 0,6.463 -5.239,11.701 -11.702,11.701 -6.463,0 -11.703,-5.238 -11.703,-11.701 0,-6.465 5.24,-11.703 11.703,-11.703 6.463,0 11.702,5.238 11.702,11.703 z"
   id="path195"
   style="fill:#de6161" />
			<path
   d="m 34.161,97.911 c 0,6.4 -5.189,11.59 -11.591,11.59 -6.4,0 -11.59,-5.189 -11.59,-11.59 0,-6.401 5.189,-11.59 11.59,-11.59 6.402,0 11.591,5.189 11.591,11.59 z"
   id="path197"
   style="fill:#df6262" />
			<path
   d="m 33.999,97.874 c 0,6.338 -5.138,11.477 -11.477,11.477 -6.339,0 -11.478,-5.139 -11.478,-11.477 0,-6.34 5.139,-11.479 11.478,-11.479 6.339,0 11.477,5.139 11.477,11.479 z"
   id="path199"
   style="fill:#df6363" />
			<path
   d="m 33.839,97.834 c 0,6.277 -5.089,11.365 -11.365,11.365 -6.276,0 -11.365,-5.088 -11.365,-11.365 0,-6.275 5.089,-11.363 11.365,-11.363 6.276,0 11.365,5.088 11.365,11.363 z"
   id="path201"
   style="fill:#e06464" />
			<path
   d="m 33.678,97.797 c 0,6.215 -5.038,11.252 -11.253,11.252 -6.214,0 -11.252,-5.037 -11.252,-11.252 0,-6.215 5.038,-11.252 11.252,-11.252 6.215,0 11.253,5.038 11.253,11.252 z"
   id="path203"
   style="fill:#e06565" />
			<path
   d="m 33.517,97.758 c 0,6.154 -4.987,11.141 -11.141,11.141 -6.151,0 -11.14,-4.986 -11.14,-11.141 0,-6.15 4.988,-11.139 11.14,-11.139 6.153,0.001 11.141,4.989 11.141,11.139 z"
   id="path205"
   style="fill:#e06666" />
			<path
   d="m 33.356,97.721 c 0,6.092 -4.938,11.027 -11.028,11.027 -6.09,0 -11.027,-4.936 -11.027,-11.027 0,-6.09 4.938,-11.027 11.027,-11.027 6.089,0 11.028,4.937 11.028,11.027 z"
   id="path207"
   style="fill:#e16767" />
			<path
   d="m 33.194,97.684 c 0,6.027 -4.887,10.914 -10.914,10.914 -6.028,0 -10.915,-4.887 -10.915,-10.914 0,-6.027 4.887,-10.916 10.915,-10.916 6.028,0 10.914,4.889 10.914,10.916 z"
   id="path209"
   style="fill:#e16868" />
			<path
   d="m 33.033,97.647 c 0,5.965 -4.836,10.801 -10.802,10.801 -5.966,0 -10.801,-4.836 -10.801,-10.801 0,-5.967 4.836,-10.803 10.802,-10.803 5.966,0 10.801,4.836 10.801,10.803 z"
   id="path211"
   style="fill:#e26969" />
			<path
   d="m 32.872,97.608 c 0,5.904 -4.786,10.689 -10.689,10.689 -5.903,0 -10.689,-4.785 -10.689,-10.689 0,-5.902 4.786,-10.689 10.689,-10.689 5.903,0 10.689,4.787 10.689,10.689 z"
   id="path213"
   style="fill:#e26a6a" />
			<path
   d="m 32.711,97.571 c 0,5.842 -4.736,10.576 -10.576,10.576 -5.842,0 -10.577,-4.734 -10.577,-10.576 0,-5.842 4.735,-10.578 10.577,-10.578 5.84,0 10.576,4.736 10.576,10.578 z"
   id="path215"
   style="fill:#e36b6b" />
			<path
   d="m 32.55,97.532 c 0,5.779 -4.685,10.465 -10.464,10.465 -5.779,0 -10.465,-4.686 -10.465,-10.465 0,-5.777 4.686,-10.463 10.465,-10.463 5.779,0 10.464,4.685 10.464,10.463 z"
   id="path217"
   style="fill:#e36c6c" />
			<path
   d="m 32.389,97.495 c 0,5.717 -4.635,10.352 -10.352,10.352 -5.717,0 -10.352,-4.635 -10.352,-10.352 0,-5.717 4.635,-10.352 10.352,-10.352 5.717,0 10.352,4.635 10.352,10.352 z"
   id="path219"
   style="fill:#e46d6d" />
			<path
   d="m 32.228,97.456 c 0,5.656 -4.585,10.24 -10.239,10.24 -5.654,0 -10.239,-4.584 -10.239,-10.24 0,-5.652 4.585,-10.238 10.239,-10.238 5.654,0 10.239,4.585 10.239,10.238 z"
   id="path221"
   style="fill:#e46e6e" />
			<path
   d="m 32.066,97.418 c 0,5.594 -4.534,10.127 -10.126,10.127 -5.593,0 -10.127,-4.533 -10.127,-10.127 0,-5.592 4.534,-10.127 10.127,-10.127 5.592,0.001 10.126,4.536 10.126,10.127 z"
   id="path223"
   style="fill:#e56f6f" />
			<path
   d="m 31.905,97.381 c 0,5.531 -4.483,10.012 -10.014,10.012 -5.531,0 -10.014,-4.48 -10.014,-10.012 0,-5.532 4.483,-10.014 10.014,-10.014 5.531,0 10.014,4.483 10.014,10.014 z"
   id="path225"
   style="fill:#e57070" />
			<path
   d="m 31.744,97.344 c 0,5.467 -4.433,9.9 -9.901,9.9 -5.468,0 -9.901,-4.434 -9.901,-9.9 0,-5.469 4.434,-9.902 9.901,-9.902 5.469,0 9.901,4.433 9.901,9.902 z"
   id="path227"
   style="fill:#e57171" />
			<path
   d="m 31.583,97.305 c 0,5.406 -4.383,9.787 -9.788,9.787 -5.406,0 -9.789,-4.381 -9.789,-9.787 0,-5.406 4.383,-9.789 9.789,-9.789 5.405,0 9.788,4.383 9.788,9.789 z"
   id="path229"
   style="fill:#e67272" />
			<path
   d="m 31.422,97.268 c 0,5.344 -4.332,9.674 -9.676,9.674 -5.344,0 -9.676,-4.33 -9.676,-9.674 0,-5.344 4.332,-9.676 9.676,-9.676 5.344,0 9.676,4.332 9.676,9.676 z"
   id="path231"
   style="fill:#e67373" />
			<path
   d="m 31.261,97.229 c 0,5.283 -4.282,9.564 -9.563,9.564 -5.281,0 -9.563,-4.281 -9.563,-9.564 0,-5.281 4.282,-9.562 9.563,-9.562 5.281,0 9.563,4.281 9.563,9.562 z"
   id="path233"
   style="fill:#e77474" />
			<path
   d="m 31.1,97.192 c 0,5.219 -4.231,9.449 -9.451,9.449 -5.219,0 -9.45,-4.23 -9.45,-9.449 0,-5.219 4.231,-9.451 9.45,-9.451 5.219,0 9.451,4.232 9.451,9.451 z"
   id="path235"
   style="fill:#e77575" />
			<path
   d="m 30.938,97.153 c 0,5.158 -4.181,9.338 -9.338,9.338 -5.157,0 -9.338,-4.18 -9.338,-9.338 0,-5.156 4.181,-9.338 9.338,-9.338 5.157,0 9.338,4.182 9.338,9.338 z"
   id="path237"
   style="fill:#e87676" />
			<path
   d="m 30.778,97.116 c 0,5.096 -4.132,9.227 -9.226,9.227 -5.096,0 -9.227,-4.131 -9.227,-9.227 0,-5.096 4.131,-9.227 9.227,-9.227 5.094,0 9.226,4.131 9.226,9.227 z"
   id="path239"
   style="fill:#e87777" />
			<path
   d="m 30.616,97.077 c 0,5.035 -4.08,9.113 -9.112,9.113 -5.033,0 -9.113,-4.078 -9.113,-9.113 0,-5.031 4.08,-9.111 9.113,-9.111 5.032,-10e-4 9.112,4.079 9.112,9.111 z"
   id="path241"
   style="fill:#e97878" />
			<path
   d="m 30.456,97.04 c 0,4.971 -4.03,9 -9.001,9 -4.971,0 -9.001,-4.029 -9.001,-9 0,-4.971 4.03,-9 9.001,-9 4.971,0 9.001,4.029 9.001,9 z"
   id="path243"
   style="fill:#e97979" />
			<path
   d="m 30.295,97.002 c 0,4.908 -3.979,8.887 -8.889,8.887 -4.908,0 -8.888,-3.979 -8.888,-8.887 0,-4.91 3.979,-8.889 8.888,-8.889 4.909,0.001 8.889,3.979 8.889,8.889 z"
   id="path245"
   style="fill:#e97a7a" />
			<path
   d="m 30.133,96.963 c 0,4.848 -3.929,8.775 -8.774,8.775 -4.847,0 -8.775,-3.928 -8.775,-8.775 0,-4.846 3.929,-8.773 8.775,-8.773 4.845,0 8.774,3.928 8.774,8.773 z"
   id="path247"
   style="fill:#ea7b7b" />
			<path
   d="m 29.973,96.926 c 0,4.785 -3.879,8.662 -8.663,8.662 -4.784,0 -8.663,-3.877 -8.663,-8.662 0,-4.785 3.879,-8.662 8.663,-8.662 4.784,0 8.663,3.877 8.663,8.662 z"
   id="path249"
   style="fill:#ea7c7c" />
			<path
   d="m 29.811,96.889 c 0,4.721 -3.827,8.549 -8.55,8.549 -4.722,0 -8.55,-3.828 -8.55,-8.549 0,-4.723 3.828,-8.551 8.55,-8.551 4.722,0 8.55,3.829 8.55,8.551 z"
   id="path251"
   style="fill:#eb7d7d" />
			<path
   d="m 29.65,96.85 c 0,4.66 -3.778,8.438 -8.438,8.438 -4.66,0 -8.438,-3.777 -8.438,-8.438 0,-4.661 3.777,-8.436 8.438,-8.436 4.66,0.001 8.438,3.776 8.438,8.436 z"
   id="path253"
   style="fill:#eb7e7e" />
			<path
   d="m 29.489,96.813 c 0,4.598 -3.728,8.324 -8.325,8.324 -4.597,0 -8.325,-3.727 -8.325,-8.324 0,-4.597 3.728,-8.326 8.325,-8.326 4.597,0 8.325,3.728 8.325,8.326 z"
   id="path255"
   style="fill:#ec7f7f" />
			<path
   d="m 29.328,96.774 c 0,4.537 -3.677,8.213 -8.213,8.213 -4.535,0 -8.212,-3.676 -8.212,-8.213 0,-4.535 3.677,-8.211 8.212,-8.211 4.536,0 8.213,3.676 8.213,8.211 z"
   id="path257"
   style="fill:#ec8080" />
			<path
   d="m 29.167,96.737 c 0,4.473 -3.627,8.1 -8.1,8.1 -4.474,0 -8.101,-3.627 -8.101,-8.1 0,-4.473 3.627,-8.1 8.101,-8.1 4.473,0 8.1,3.627 8.1,8.1 z"
   id="path259"
   style="fill:#ed8181" />
			<path
   d="m 29.006,96.7 c 0,4.41 -3.576,7.986 -7.987,7.986 -4.411,0 -7.987,-3.576 -7.987,-7.986 0,-4.412 3.576,-7.988 7.987,-7.988 4.411,0 7.987,3.576 7.987,7.988 z"
   id="path261"
   style="fill:#ed8282" />
			<path
   d="m 28.845,96.661 c 0,4.35 -3.526,7.875 -7.875,7.875 -4.349,0 -7.874,-3.525 -7.874,-7.875 0,-4.348 3.525,-7.873 7.874,-7.873 4.349,0 7.875,3.525 7.875,7.873 z"
   id="path263"
   style="fill:#ed8383" />
			<path
   d="m 28.684,96.624 c 0,4.287 -3.476,7.762 -7.762,7.762 -4.287,0 -7.762,-3.475 -7.762,-7.762 0,-4.287 3.475,-7.762 7.762,-7.762 4.286,0 7.762,3.474 7.762,7.762 z"
   id="path265"
   style="fill:#ee8484" />
			<path
   d="m 28.522,96.584 c 0,4.225 -3.426,7.65 -7.649,7.65 -4.225,0 -7.649,-3.426 -7.649,-7.65 0,-4.223 3.425,-7.648 7.649,-7.648 4.224,0 7.649,3.426 7.649,7.648 z"
   id="path267"
   style="fill:#ee8585" />
			<path
   d="m 28.361,96.547 c 0,4.162 -3.374,7.537 -7.536,7.537 -4.163,0 -7.537,-3.375 -7.537,-7.537 0,-4.162 3.374,-7.537 7.537,-7.537 4.162,0 7.536,3.375 7.536,7.537 z"
   id="path269"
   style="fill:#ef8686" />
			<path
   d="m 28.2,96.51 c 0,4.1 -3.324,7.424 -7.424,7.424 -4.101,0 -7.425,-3.324 -7.425,-7.424 0,-4.1 3.324,-7.426 7.425,-7.426 4.1,0 7.424,3.327 7.424,7.426 z"
   id="path271"
   style="fill:#ef8787" />
			<path
   d="m 28.039,96.471 c 0,4.039 -3.274,7.312 -7.312,7.312 -4.038,0 -7.312,-3.273 -7.312,-7.312 0,-4.037 3.273,-7.311 7.312,-7.311 4.038,0.001 7.312,3.274 7.312,7.311 z"
   id="path273"
   style="fill:#f08888" />
			<path
   d="m 27.878,96.434 c 0,3.975 -3.224,7.199 -7.199,7.199 -3.975,0 -7.199,-3.225 -7.199,-7.199 0,-3.974 3.224,-7.199 7.199,-7.199 3.975,0 7.199,3.224 7.199,7.199 z"
   id="path275"
   style="fill:#f08989" />
			<path
   d="m 27.717,96.397 c 0,3.912 -3.173,7.086 -7.086,7.086 -3.914,0 -7.087,-3.174 -7.087,-7.086 0,-3.914 3.173,-7.088 7.087,-7.088 3.913,0 7.086,3.174 7.086,7.088 z"
   id="path277"
   style="fill:#f18a8a" />
			<path
   d="m 27.556,96.358 c 0,3.852 -3.123,6.975 -6.974,6.975 -3.852,0 -6.974,-3.123 -6.974,-6.975 0,-3.852 3.122,-6.973 6.974,-6.973 3.851,0 6.974,3.121 6.974,6.973 z"
   id="path279"
   style="fill:#f18b8b" />
			<path
   d="m 27.395,96.321 c 0,3.789 -3.072,6.861 -6.861,6.861 -3.789,0 -6.86,-3.072 -6.86,-6.861 0,-3.789 3.071,-6.861 6.86,-6.861 3.789,0 6.861,3.072 6.861,6.861 z"
   id="path281"
   style="fill:#f28c8c" />
			<path
   d="m 27.233,96.282 c 0,3.727 -3.021,6.75 -6.748,6.75 -3.728,0 -6.749,-3.023 -6.749,-6.75 0,-3.727 3.021,-6.748 6.749,-6.748 3.727,0 6.748,3.021 6.748,6.748 z"
   id="path283"
   style="fill:#f28d8d" />
			<path
   d="m 27.072,96.245 c 0,3.664 -2.972,6.635 -6.636,6.635 -3.665,0 -6.636,-2.971 -6.636,-6.635 0,-3.664 2.971,-6.635 6.636,-6.635 3.665,0 6.636,2.971 6.636,6.635 z"
   id="path285"
   style="fill:#f28e8e" />
			<path
   d="m 26.911,96.206 c 0,3.604 -2.921,6.523 -6.523,6.523 -3.602,0 -6.523,-2.92 -6.523,-6.523 0,-3.602 2.921,-6.521 6.523,-6.521 3.602,0 6.523,2.919 6.523,6.521 z"
   id="path287"
   style="fill:#f38f8f" />
			<path
   d="m 26.75,96.168 c 0,3.541 -2.87,6.412 -6.41,6.412 -3.541,0 -6.411,-2.871 -6.411,-6.412 0,-3.541 2.87,-6.41 6.411,-6.41 3.54,0 6.41,2.869 6.41,6.41 z"
   id="path289"
   style="fill:#f39090" />
			<path
   d="m 26.589,96.131 c 0,3.479 -2.82,6.297 -6.298,6.297 -3.479,0 -6.298,-2.818 -6.298,-6.297 0,-3.479 2.819,-6.299 6.298,-6.299 3.478,0.001 6.298,2.821 6.298,6.299 z"
   id="path291"
   style="fill:#f49191" />
			<path
   d="m 26.428,96.094 c 0,3.414 -2.77,6.184 -6.185,6.184 -3.417,0 -6.187,-2.77 -6.187,-6.184 0,-3.418 2.77,-6.186 6.187,-6.186 3.415,0.001 6.185,2.768 6.185,6.186 z"
   id="path293"
   style="fill:#f49292" />
			<path
   d="m 26.267,96.055 c 0,3.354 -2.719,6.072 -6.072,6.072 -3.354,0 -6.073,-2.719 -6.073,-6.072 0,-3.353 2.719,-6.072 6.073,-6.072 3.353,0 6.072,2.719 6.072,6.072 z"
   id="path295"
   style="fill:#f59393" />
			<path
   d="m 26.105,96.018 c 0,3.291 -2.669,5.959 -5.96,5.959 -3.292,0 -5.96,-2.668 -5.96,-5.959 0,-3.293 2.668,-5.961 5.96,-5.961 3.292,0 5.96,2.668 5.96,5.961 z"
   id="path297"
   style="fill:#f59494" />
			<path
   d="m 25.944,95.979 c 0,3.23 -2.618,5.848 -5.847,5.848 -3.23,0 -5.849,-2.617 -5.849,-5.848 0,-3.231 2.618,-5.846 5.849,-5.846 3.229,0 5.847,2.616 5.847,5.846 z"
   id="path299"
   style="fill:#f69595" />
			<path
   d="m 25.783,95.942 c 0,3.166 -2.567,5.734 -5.734,5.734 -3.167,0 -5.735,-2.568 -5.735,-5.734 0,-3.168 2.568,-5.734 5.735,-5.734 3.167,0 5.734,2.566 5.734,5.734 z"
   id="path301"
   style="fill:#f69696" />
			<path
   d="m 25.622,95.903 c 0,3.105 -2.518,5.623 -5.622,5.623 -3.105,0 -5.623,-2.518 -5.623,-5.623 0,-3.105 2.518,-5.621 5.623,-5.621 3.104,0 5.622,2.515 5.622,5.621 z"
   id="path303"
   style="fill:#f69797" />
			<path
   d="m 25.461,95.866 c 0,3.043 -2.467,5.51 -5.51,5.51 -3.043,0 -5.51,-2.467 -5.51,-5.51 0,-3.043 2.467,-5.51 5.51,-5.51 3.043,0 5.51,2.467 5.51,5.51 z"
   id="path305"
   style="fill:#f79898" />
			<path
   d="m 25.3,95.829 c 0,2.98 -2.416,5.396 -5.396,5.396 -2.981,0 -5.397,-2.416 -5.397,-5.396 0,-2.982 2.416,-5.398 5.397,-5.398 2.98,-10e-4 5.396,2.415 5.396,5.398 z"
   id="path307"
   style="fill:#f79999" />
			<path
   d="m 25.14,95.79 c 0,2.918 -2.366,5.285 -5.285,5.285 -2.919,0 -5.285,-2.367 -5.285,-5.285 0,-2.918 2.366,-5.283 5.285,-5.283 2.919,0 5.285,2.365 5.285,5.283 z"
   id="path309"
   style="fill:#f89a9a" />
			<path
   d="m 24.979,95.752 c 0,2.855 -2.316,5.172 -5.173,5.172 -2.855,0 -5.172,-2.316 -5.172,-5.172 0,-2.857 2.316,-5.172 5.172,-5.172 2.856,0.001 5.173,2.315 5.173,5.172 z"
   id="path311"
   style="fill:#f89b9b" />
			<path
   d="m 24.817,95.715 c 0,2.793 -2.266,5.059 -5.06,5.059 -2.795,0 -5.06,-2.266 -5.06,-5.059 0,-2.795 2.265,-5.061 5.06,-5.061 2.795,0.001 5.06,2.266 5.06,5.061 z"
   id="path313"
   style="fill:#f99c9c" />
			<path
   d="m 24.656,95.676 c 0,2.732 -2.216,4.947 -4.947,4.947 -2.732,0 -4.947,-2.215 -4.947,-4.947 0,-2.732 2.215,-4.945 4.947,-4.945 2.731,0 4.947,2.213 4.947,4.945 z"
   id="path315"
   style="fill:#f99d9d" />
			<path
   d="m 24.495,95.639 c 0,2.67 -2.165,4.834 -4.835,4.834 -2.67,0 -4.834,-2.164 -4.834,-4.834 0,-2.67 2.164,-4.836 4.834,-4.836 2.67,0 4.835,2.166 4.835,4.836 z"
   id="path317"
   style="fill:#fa9e9e" />
			<path
   d="m 24.334,95.6 c 0,2.607 -2.115,4.723 -4.723,4.723 -2.606,0 -4.722,-2.115 -4.722,-4.723 0,-2.608 2.115,-4.721 4.722,-4.721 2.608,0 4.723,2.114 4.723,4.721 z"
   id="path319"
   style="fill:#fa9f9f" />
			<path
   d="m 24.173,95.563 c 0,2.545 -2.064,4.609 -4.609,4.609 -2.545,0 -4.609,-2.064 -4.609,-4.609 0,-2.545 2.064,-4.609 4.609,-4.609 2.545,0 4.609,2.064 4.609,4.609 z"
   id="path321"
   style="fill:#fba0a0" />
			<path
   d="m 24.012,95.526 c 0,2.482 -2.014,4.496 -4.496,4.496 -2.484,0 -4.497,-2.014 -4.497,-4.496 0,-2.484 2.013,-4.498 4.497,-4.498 2.482,0 4.496,2.014 4.496,4.498 z"
   id="path323"
   style="fill:#fba1a1" />
			<path
   d="m 23.851,95.487 c 0,2.422 -1.964,4.383 -4.384,4.383 -2.422,0 -4.385,-1.961 -4.385,-4.383 0,-2.42 1.963,-4.383 4.385,-4.383 2.42,0 4.384,1.963 4.384,4.383 z"
   id="path325"
   style="fill:#fba2a2" />
			<path
   d="m 23.689,95.45 c 0,2.357 -1.913,4.271 -4.271,4.271 -2.359,0 -4.271,-1.914 -4.271,-4.271 0,-2.359 1.912,-4.271 4.271,-4.271 2.358,-0.001 4.271,1.911 4.271,4.271 z"
   id="path327"
   style="fill:#fca3a3" />
			<path
   d="m 23.528,95.411 c 0,2.297 -1.862,4.16 -4.159,4.16 -2.296,0 -4.158,-1.863 -4.158,-4.16 0,-2.295 1.862,-4.158 4.158,-4.158 2.297,-0.001 4.159,1.863 4.159,4.158 z"
   id="path329"
   style="fill:#fca4a4" />
			<path
   d="m 23.367,95.374 c 0,2.234 -1.812,4.045 -4.046,4.045 -2.234,0 -4.047,-1.811 -4.047,-4.045 0,-2.234 1.812,-4.045 4.047,-4.045 2.234,0 4.046,1.81 4.046,4.045 z"
   id="path331"
   style="fill:#fda5a5" />
			<path
   d="m 23.206,95.336 c 0,2.172 -1.762,3.934 -3.934,3.934 -2.173,0 -3.934,-1.762 -3.934,-3.934 0,-2.174 1.761,-3.934 3.934,-3.934 2.172,0.001 3.934,1.761 3.934,3.934 z"
   id="path333"
   style="fill:#fda6a6" />
			<path
   d="m 23.045,95.297 c 0,2.111 -1.711,3.82 -3.821,3.82 -2.11,0 -3.82,-1.709 -3.82,-3.82 0,-2.109 1.71,-3.82 3.82,-3.82 2.11,0 3.821,1.711 3.821,3.82 z"
   id="path335"
   style="fill:#fea7a7" />
			<path
   d="m 22.884,95.26 c 0,2.047 -1.661,3.707 -3.708,3.707 -2.048,0 -3.709,-1.66 -3.709,-3.707 0,-2.049 1.661,-3.709 3.709,-3.709 2.047,0 3.708,1.66 3.708,3.709 z"
   id="path337"
   style="fill:#fea8a8" />
			<path
   d="m 22.723,95.223 c 0,1.984 -1.61,3.596 -3.596,3.596 -1.986,0 -3.596,-1.611 -3.596,-3.596 0,-1.986 1.61,-3.596 3.596,-3.596 1.986,0 3.596,1.61 3.596,3.596 z"
   id="path339"
   style="fill:#ffa9a9" />
			<path
   d="m 15.595,95.184 c 0,-1.924 1.561,-3.482 3.483,-3.482 1.924,0 3.483,1.559 3.483,3.482 0,1.923 -1.56,3.482 -3.483,3.482 -1.923,0.001 -3.483,-1.558 -3.483,-3.482 z"
   id="path341"
   style="fill:#ffaaaa" />
		</g>
		<g
   id="red_exclamation_2_">
			<path
   d="M 0,20.842 C 0.188,21.468 21.092,91.216 21.577,92.837 22.802,91.751 43.902,73.06 44.095,72.89 44.19,72.646 64.796,20.379 65.181,19.404 64.231,18.986 21.745,0.296 21.071,0 20.554,0.512 0.458,20.389 0,20.842 z"
   id="path344" />
			<path
   d="m 1.729,101.151 c 0,14.105 11.475,25.578 25.577,25.578 14.104,0 25.576,-11.473 25.576,-25.578 0,-14.098 -11.473,-25.574 -25.576,-25.574 -14.103,0 -25.577,11.476 -25.577,25.574 z m 3.842,0 c 0,-11.982 9.75,-21.732 21.734,-21.732 11.983,0 21.729,9.75 21.729,21.732 0,11.986 -9.745,21.734 -21.729,21.734 -11.984,0 -21.734,-9.748 -21.734,-21.734 z"
   id="path346" />
			<g
   id="g348">
				<path
   d="m 14.765,95.637 c 0,-3.396 1.721,-6.152 3.85,-6.152 2.12,0 3.843,2.756 3.843,6.152 0,3.4 -1.723,6.154 -3.843,6.154 -2.13,0.001 -3.85,-2.753 -3.85,-6.154 z"
   id="path350"
   style="fill:#ff8c8c" />
				<path
   d="m 18.614,89.504 c 2.113,0 3.83,2.748 3.83,6.133 0,3.389 -1.717,6.135 -3.83,6.135 -2.122,0 -3.837,-2.746 -3.837,-6.135 0,-3.385 1.715,-6.133 3.837,-6.133 z"
   id="path352"
   style="fill:#ff8d8d" />
				<path
   d="m 18.614,89.524 c 2.107,0 3.819,2.738 3.819,6.113 0,3.379 -1.712,6.115 -3.819,6.115 -2.115,0 -3.825,-2.736 -3.825,-6.115 0,-3.375 1.71,-6.113 3.825,-6.113 z"
   id="path354"
   style="fill:#ff8e8e" />
				<path
   d="m 18.614,89.543 c 2.1,0 3.807,2.73 3.807,6.094 0,3.367 -1.707,6.096 -3.807,6.096 -2.108,0 -3.812,-2.729 -3.812,-6.096 0,-3.363 1.704,-6.094 3.812,-6.094 z"
   id="path356"
   style="fill:#ff8f8f" />
				<path
   d="m 18.614,89.563 c 2.093,0 3.794,2.721 3.794,6.074 0,3.357 -1.701,6.074 -3.794,6.074 -2.103,0 -3.801,-2.717 -3.801,-6.074 0,-3.353 1.699,-6.074 3.801,-6.074 z"
   id="path358"
   style="fill:#ff9090" />
				<path
   d="m 18.614,89.583 c 2.086,0 3.782,2.713 3.782,6.055 0,3.348 -1.696,6.057 -3.782,6.057 -2.095,0 -3.788,-2.709 -3.788,-6.057 0,-3.343 1.694,-6.055 3.788,-6.055 z"
   id="path360"
   style="fill:#ff9191" />
				<path
   d="m 18.614,89.602 c 2.079,0 3.77,2.703 3.77,6.035 0,3.334 -1.69,6.035 -3.77,6.035 -2.088,0 -3.776,-2.701 -3.776,-6.035 0,-3.332 1.688,-6.035 3.776,-6.035 z"
   id="path362"
   style="fill:#ff9393" />
				<path
   d="m 18.613,89.622 c 2.073,0 3.758,2.693 3.758,6.016 0,3.324 -1.685,6.016 -3.758,6.016 -2.081,0 -3.763,-2.691 -3.763,-6.016 0.001,-3.323 1.682,-6.016 3.763,-6.016 z"
   id="path364"
   style="fill:#ff9494" />
				<path
   d="m 18.614,89.641 c 2.066,0 3.745,2.686 3.745,5.996 0,3.312 -1.679,5.998 -3.745,5.998 -2.075,0 -3.751,-2.686 -3.751,-5.998 0,-3.31 1.676,-5.996 3.751,-5.996 z"
   id="path366"
   style="fill:#ff9595" />
				<path
   d="m 18.614,89.661 c 2.06,0 3.732,2.678 3.732,5.977 0,3.303 -1.673,5.977 -3.732,5.977 -2.068,0 -3.739,-2.674 -3.739,-5.977 0,-3.3 1.671,-5.977 3.739,-5.977 z"
   id="path368"
   style="fill:#ff9696" />
				<path
   d="m 18.614,89.68 c 2.052,0 3.721,2.668 3.721,5.957 0,3.291 -1.669,5.957 -3.721,5.957 -2.062,0 -3.728,-2.666 -3.728,-5.957 0.001,-3.289 1.667,-5.957 3.728,-5.957 z"
   id="path370"
   style="fill:#ff9797" />
				<path
   d="m 18.614,89.7 c 2.046,0 3.708,2.66 3.708,5.938 0,3.281 -1.662,5.938 -3.708,5.938 -2.055,0 -3.715,-2.656 -3.715,-5.938 0,-3.278 1.661,-5.938 3.715,-5.938 z"
   id="path372"
   style="fill:#ff9898" />
				<path
   d="m 18.614,89.719 c 2.039,0 3.696,2.652 3.696,5.918 0,3.27 -1.657,5.918 -3.696,5.918 -2.049,0 -3.703,-2.648 -3.703,-5.918 0,-3.265 1.654,-5.918 3.703,-5.918 z"
   id="path374"
   style="fill:#ff9999" />
				<path
   d="m 18.614,89.739 c 2.032,0 3.684,2.643 3.684,5.898 0,3.26 -1.651,5.898 -3.684,5.898 -2.041,0 -3.69,-2.639 -3.69,-5.898 0,-3.256 1.649,-5.898 3.69,-5.898 z"
   id="path376"
   style="fill:#ff9a9a" />
				<path
   d="m 18.614,89.758 c 2.025,0 3.672,2.633 3.672,5.879 0,3.248 -1.646,5.879 -3.672,5.879 -2.034,0 -3.678,-2.631 -3.678,-5.879 10e-4,-3.246 1.644,-5.879 3.678,-5.879 z"
   id="path378"
   style="fill:#ff9b9b" />
				<path
   d="m 18.613,89.778 c 2.019,0 3.66,2.625 3.66,5.859 0,3.236 -1.642,5.859 -3.66,5.859 -2.027,0 -3.665,-2.623 -3.665,-5.859 0,-3.234 1.638,-5.859 3.665,-5.859 z"
   id="path380"
   style="fill:#ff9c9c" />
				<path
   d="m 18.614,89.797 c 2.012,0 3.647,2.615 3.647,5.84 0,3.227 -1.636,5.84 -3.647,5.84 -2.021,0 -3.653,-2.613 -3.653,-5.84 0,-3.224 1.632,-5.84 3.653,-5.84 z"
   id="path382"
   style="fill:#ff9d9d" />
				<path
   d="m 18.614,89.819 c 2.006,0 3.635,2.605 3.635,5.818 0,3.217 -1.629,5.82 -3.635,5.82 -2.015,0 -3.641,-2.604 -3.641,-5.82 10e-4,-3.213 1.627,-5.818 3.641,-5.818 z"
   id="path384"
   style="fill:#ff9e9e" />
				<path
   d="m 18.614,89.838 c 1.998,0 3.623,2.596 3.623,5.799 0,3.205 -1.625,5.801 -3.623,5.801 -2.008,0 -3.629,-2.596 -3.629,-5.801 0,-3.203 1.621,-5.799 3.629,-5.799 z"
   id="path386"
   style="fill:#ffa0a0" />
				<path
   d="m 18.613,89.856 c 1.992,0 3.611,2.59 3.611,5.781 0,3.193 -1.619,5.781 -3.611,5.781 -2,0 -3.616,-2.588 -3.616,-5.781 0,-3.191 1.616,-5.781 3.616,-5.781 z"
   id="path388"
   style="fill:#ffa1a1" />
				<path
   d="m 18.614,89.875 c 1.985,0 3.598,2.58 3.598,5.762 0,3.184 -1.612,5.762 -3.598,5.762 -1.994,0 -3.604,-2.578 -3.604,-5.762 0,-3.181 1.61,-5.762 3.604,-5.762 z"
   id="path390"
   style="fill:#ffa2a2" />
				<path
   d="m 18.614,89.897 c 1.979,0 3.586,2.572 3.586,5.74 0,3.174 -1.607,5.742 -3.586,5.742 -1.987,0 -3.592,-2.568 -3.592,-5.742 0,-3.168 1.605,-5.74 3.592,-5.74 z"
   id="path392"
   style="fill:#ffa3a3" />
				<path
   d="m 18.614,89.917 c 1.972,0 3.573,2.562 3.573,5.721 0,3.162 -1.602,5.723 -3.573,5.723 -1.98,0 -3.58,-2.561 -3.58,-5.723 0,-3.159 1.6,-5.721 3.58,-5.721 z"
   id="path394"
   style="fill:#ffa4a4" />
				<path
   d="m 18.613,89.936 c 1.965,0 3.562,2.553 3.562,5.701 0,3.15 -1.597,5.703 -3.562,5.703 -1.974,0 -3.567,-2.553 -3.567,-5.703 0,-3.148 1.594,-5.701 3.567,-5.701 z"
   id="path396"
   style="fill:#ffa5a5" />
				<path
   d="m 18.614,89.956 c 1.958,0 3.549,2.545 3.549,5.682 0,3.141 -1.591,5.684 -3.549,5.684 -1.967,0 -3.555,-2.543 -3.555,-5.684 0.001,-3.138 1.588,-5.682 3.555,-5.682 z"
   id="path398"
   style="fill:#ffa6a6" />
				<path
   d="m 18.614,89.975 c 1.951,0 3.537,2.535 3.537,5.662 0,3.129 -1.586,5.664 -3.537,5.664 -1.96,0 -3.543,-2.535 -3.543,-5.664 0,-3.127 1.583,-5.662 3.543,-5.662 z"
   id="path400"
   style="fill:#ffa7a7" />
				<path
   d="m 18.614,89.995 c 1.944,0 3.524,2.527 3.524,5.643 0,3.117 -1.58,5.643 -3.524,5.643 -1.954,0 -3.53,-2.525 -3.53,-5.643 0,-3.116 1.576,-5.643 3.53,-5.643 z"
   id="path402"
   style="fill:#ffa8a8" />
				<path
   d="m 18.613,90.014 c 1.938,0 3.513,2.518 3.513,5.623 0,3.107 -1.574,5.623 -3.513,5.623 -1.946,0 -3.518,-2.516 -3.518,-5.623 10e-4,-3.105 1.572,-5.623 3.518,-5.623 z"
   id="path404"
   style="fill:#ffa9a9" />
				<path
   d="m 18.614,90.034 c 1.932,0 3.5,2.51 3.5,5.604 0,3.098 -1.568,5.604 -3.5,5.604 -1.94,0 -3.506,-2.506 -3.506,-5.604 0,-3.095 1.566,-5.604 3.506,-5.604 z"
   id="path406"
   style="fill:#ffaaaa" />
				<path
   d="m 18.614,90.055 c 1.925,0 3.488,2.498 3.488,5.582 0,3.086 -1.563,5.586 -3.488,5.586 -1.934,0 -3.494,-2.5 -3.494,-5.586 0,-3.084 1.561,-5.582 3.494,-5.582 z"
   id="path408"
   style="fill:#ffabab" />
				<path
   d="m 18.614,90.073 c 1.918,0 3.476,2.492 3.476,5.564 0,3.076 -1.558,5.564 -3.476,5.564 -1.927,0 -3.481,-2.488 -3.481,-5.564 0,-3.072 1.555,-5.564 3.481,-5.564 z"
   id="path410"
   style="fill:#ffadad" />
				<path
   d="m 18.613,90.092 c 1.911,0 3.464,2.484 3.464,5.545 0,3.064 -1.553,5.545 -3.464,5.545 -1.92,0 -3.469,-2.48 -3.469,-5.545 10e-4,-3.06 1.549,-5.545 3.469,-5.545 z"
   id="path412"
   style="fill:#ffaeae" />
				<path
   d="m 18.614,90.112 c 1.903,0 3.451,2.475 3.451,5.525 0,3.053 -1.548,5.525 -3.451,5.525 -1.913,0 -3.457,-2.473 -3.457,-5.525 0,-3.051 1.544,-5.525 3.457,-5.525 z"
   id="path414"
   style="fill:#ffafaf" />
				<path
   d="m 18.614,90.133 c 1.897,0 3.438,2.465 3.438,5.504 0,3.043 -1.541,5.506 -3.438,5.506 -1.906,0 -3.445,-2.463 -3.445,-5.506 0,-3.039 1.539,-5.504 3.445,-5.504 z"
   id="path416"
   style="fill:#ffb0b0" />
				<path
   d="m 18.614,90.153 c 1.89,0 3.427,2.455 3.427,5.484 0,3.031 -1.537,5.486 -3.427,5.486 -1.9,0 -3.433,-2.455 -3.433,-5.486 0.001,-3.029 1.533,-5.484 3.433,-5.484 z"
   id="path418"
   style="fill:#ffb1b1" />
				<path
   d="m 18.613,90.17 c 1.885,0 3.415,2.447 3.415,5.467 0,3.02 -1.53,5.465 -3.415,5.465 -1.893,0 -3.42,-2.445 -3.42,-5.465 0,-3.02 1.528,-5.467 3.42,-5.467 z"
   id="path420"
   style="fill:#ffb2b2" />
				<path
   d="m 18.614,90.192 c 1.877,0 3.402,2.438 3.402,5.445 0,3.01 -1.525,5.445 -3.402,5.445 -1.887,0 -3.408,-2.436 -3.408,-5.445 0,-3.008 1.522,-5.445 3.408,-5.445 z"
   id="path422"
   style="fill:#ffb3b3" />
				<path
   d="m 18.614,90.211 c 1.87,0 3.39,2.43 3.39,5.426 0,3 -1.52,5.428 -3.39,5.428 -1.879,0 -3.396,-2.428 -3.396,-5.428 10e-4,-2.996 1.517,-5.426 3.396,-5.426 z"
   id="path424"
   style="fill:#ffb4b4" />
				<path
   d="m 18.614,90.231 c 1.863,0 3.378,2.42 3.378,5.406 0,2.988 -1.515,5.406 -3.378,5.406 -1.873,0 -3.384,-2.418 -3.384,-5.406 0,-2.986 1.511,-5.406 3.384,-5.406 z"
   id="path426"
   style="fill:#ffb5b5" />
				<path
   d="m 18.613,90.25 c 1.857,0 3.366,2.41 3.366,5.387 0,2.977 -1.509,5.387 -3.366,5.387 -1.865,0 -3.371,-2.41 -3.371,-5.387 0,-2.977 1.506,-5.387 3.371,-5.387 z"
   id="path428"
   style="fill:#ffb6b6" />
				<path
   d="m 18.614,90.27 c 1.85,0 3.354,2.404 3.354,5.367 0,2.967 -1.504,5.367 -3.354,5.367 -1.859,0 -3.359,-2.4 -3.359,-5.367 0,-2.963 1.5,-5.367 3.359,-5.367 z"
   id="path430"
   style="fill:#ffb7b7" />
				<path
   d="m 18.614,90.29 c 1.844,0 3.341,2.395 3.341,5.348 0,2.957 -1.497,5.348 -3.341,5.348 -1.853,0 -3.347,-2.391 -3.347,-5.348 0.001,-2.954 1.495,-5.348 3.347,-5.348 z"
   id="path432"
   style="fill:#ffb8b8" />
				<path
   d="m 18.614,90.309 c 1.836,0 3.329,2.385 3.329,5.328 0,2.945 -1.493,5.328 -3.329,5.328 -1.847,0 -3.335,-2.383 -3.335,-5.328 0,-2.943 1.489,-5.328 3.335,-5.328 z"
   id="path434"
   style="fill:#ffbaba" />
				<path
   d="m 18.613,90.329 c 1.83,0 3.317,2.377 3.317,5.309 0,2.934 -1.487,5.309 -3.317,5.309 -1.839,0 -3.322,-2.375 -3.322,-5.309 0,-2.932 1.483,-5.309 3.322,-5.309 z"
   id="path436"
   style="fill:#ffbbbb" />
				<path
   d="m 18.614,90.348 c 1.822,0 3.305,2.367 3.305,5.289 0,2.924 -1.482,5.289 -3.305,5.289 -1.833,0 -3.31,-2.365 -3.31,-5.289 10e-4,-2.922 1.477,-5.289 3.31,-5.289 z"
   id="path438"
   style="fill:#ffbcbc" />
				<path
   d="m 18.614,90.368 c 1.816,0 3.292,2.359 3.292,5.27 0,2.912 -1.476,5.27 -3.292,5.27 -1.825,0 -3.298,-2.357 -3.298,-5.27 0,-2.911 1.473,-5.27 3.298,-5.27 z"
   id="path440"
   style="fill:#ffbdbd" />
				<path
   d="m 18.614,90.387 c 1.81,0 3.28,2.35 3.28,5.25 0,2.902 -1.471,5.25 -3.28,5.25 -1.818,0 -3.285,-2.348 -3.285,-5.25 0,-2.9 1.467,-5.25 3.285,-5.25 z"
   id="path442"
   style="fill:#ffbebe" />
				<path
   d="m 18.613,90.407 c 1.804,0 3.268,2.342 3.268,5.23 0,2.891 -1.464,5.23 -3.268,5.23 -1.812,0 -3.272,-2.34 -3.272,-5.23 0,-2.888 1.461,-5.23 3.272,-5.23 z"
   id="path444"
   style="fill:#ffbfbf" />
				<path
   d="m 18.614,90.426 c 1.796,0 3.255,2.332 3.255,5.211 0,2.881 -1.459,5.211 -3.255,5.211 -1.806,0 -3.261,-2.33 -3.261,-5.211 10e-4,-2.879 1.456,-5.211 3.261,-5.211 z"
   id="path446"
   style="fill:#ffc0c0" />
				<path
   d="m 18.614,90.446 c 1.789,0 3.243,2.326 3.243,5.191 0,2.869 -1.454,5.191 -3.243,5.191 -1.799,0 -3.249,-2.322 -3.249,-5.191 0,-2.865 1.45,-5.191 3.249,-5.191 z"
   id="path448"
   style="fill:#ffc1c1" />
				<path
   d="m 18.614,90.465 c 1.782,0 3.23,2.316 3.23,5.172 0,2.859 -1.448,5.172 -3.23,5.172 -1.792,0 -3.236,-2.312 -3.236,-5.172 0,-2.855 1.444,-5.172 3.236,-5.172 z"
   id="path450"
   style="fill:#ffc2c2" />
				<path
   d="m 18.613,90.485 c 1.776,0 3.22,2.307 3.22,5.152 0,2.848 -1.443,5.152 -3.22,5.152 -1.785,0 -3.224,-2.305 -3.224,-5.152 0.001,-2.845 1.439,-5.152 3.224,-5.152 z"
   id="path452"
   style="fill:#ffc3c3" />
				<path
   d="m 18.614,90.504 c 1.769,0 3.207,2.299 3.207,5.133 0,2.836 -1.438,5.133 -3.207,5.133 -1.779,0 -3.212,-2.297 -3.212,-5.133 0,-2.834 1.433,-5.133 3.212,-5.133 z"
   id="path454"
   style="fill:#ffc4c4" />
				<path
   d="m 18.614,90.524 c 1.763,0 3.194,2.289 3.194,5.113 0,2.826 -1.432,5.113 -3.194,5.113 -1.771,0 -3.199,-2.287 -3.199,-5.113 0,-2.824 1.428,-5.113 3.199,-5.113 z"
   id="path456"
   style="fill:#ffc5c5" />
				<path
   d="m 18.614,90.543 c 1.756,0 3.183,2.281 3.183,5.094 0,2.814 -1.427,5.094 -3.183,5.094 -1.766,0 -3.188,-2.279 -3.188,-5.094 10e-4,-2.812 1.423,-5.094 3.188,-5.094 z"
   id="path458"
   style="fill:#ffc7c7" />
				<path
   d="m 18.614,90.563 c 1.748,0 3.17,2.271 3.17,5.074 0,2.805 -1.422,5.074 -3.17,5.074 -1.759,0 -3.176,-2.27 -3.176,-5.074 0,-2.803 1.417,-5.074 3.176,-5.074 z"
   id="path460"
   style="fill:#ffc8c8" />
				<path
   d="m 18.614,90.583 c 1.742,0 3.158,2.264 3.158,5.055 0,2.793 -1.416,5.055 -3.158,5.055 -1.752,0 -3.163,-2.262 -3.163,-5.055 0,-2.792 1.411,-5.055 3.163,-5.055 z"
   id="path462"
   style="fill:#ffc9c9" />
				<path
   d="m 18.614,90.602 c 1.734,0 3.146,2.254 3.146,5.035 0,2.783 -1.411,5.035 -3.146,5.035 -1.745,0 -3.15,-2.252 -3.15,-5.035 0,-2.781 1.405,-5.035 3.15,-5.035 z"
   id="path464"
   style="fill:#ffcaca" />
				<path
   d="m 18.614,90.622 c 1.729,0 3.133,2.246 3.133,5.016 0,2.771 -1.404,5.014 -3.133,5.014 -1.738,0 -3.139,-2.242 -3.139,-5.014 0.001,-2.77 1.401,-5.016 3.139,-5.016 z"
   id="path466"
   style="fill:#ffcbcb" />
				<path
   d="m 18.614,90.641 c 1.722,0 3.121,2.238 3.121,4.996 0,2.762 -1.399,4.994 -3.121,4.994 -1.731,0 -3.127,-2.232 -3.127,-4.994 0,-2.758 1.396,-4.996 3.127,-4.996 z"
   id="path468"
   style="fill:#ffcccc" />
				<path
   d="m 18.614,90.661 c 1.715,0 3.108,2.229 3.108,4.977 0,2.75 -1.394,4.975 -3.108,4.975 -1.725,0 -3.114,-2.225 -3.114,-4.975 0,-2.749 1.39,-4.977 3.114,-4.977 z"
   id="path470"
   style="fill:#ffcdcd" />
				<path
   d="m 18.614,90.682 c 1.708,0 3.097,2.219 3.097,4.955 0,2.738 -1.389,4.955 -3.097,4.955 -1.718,0 -3.102,-2.217 -3.102,-4.955 10e-4,-2.736 1.384,-4.955 3.102,-4.955 z"
   id="path472"
   style="fill:#ffcece" />
				<path
   d="m 18.614,90.702 c 1.701,0 3.084,2.209 3.084,4.936 0,2.729 -1.383,4.936 -3.084,4.936 -1.711,0 -3.089,-2.207 -3.089,-4.936 0,-2.727 1.378,-4.936 3.089,-4.936 z"
   id="path474"
   style="fill:#ffcfcf" />
				<path
   d="m 18.614,90.721 c 1.694,0 3.071,2.201 3.071,4.916 0,2.717 -1.377,4.916 -3.071,4.916 -1.705,0 -3.077,-2.199 -3.077,-4.916 0,-2.715 1.372,-4.916 3.077,-4.916 z"
   id="path476"
   style="fill:#ffd0d0" />
				<path
   d="m 18.614,90.741 c 1.688,0 3.06,2.191 3.06,4.896 0,2.707 -1.372,4.896 -3.06,4.896 -1.697,0 -3.065,-2.189 -3.065,-4.896 0,-2.705 1.368,-4.896 3.065,-4.896 z"
   id="path478"
   style="fill:#ffd1d1" />
				<path
   d="m 18.614,90.76 c 1.681,0 3.047,2.182 3.047,4.877 0,2.695 -1.366,4.877 -3.047,4.877 -1.691,0 -3.053,-2.182 -3.053,-4.877 0,-2.695 1.362,-4.877 3.053,-4.877 z"
   id="path480"
   style="fill:#ffd3d3" />
				<path
   d="m 18.614,90.78 c 1.674,0 3.035,2.174 3.035,4.857 0,2.686 -1.361,4.857 -3.035,4.857 -1.685,0 -3.04,-2.172 -3.04,-4.857 0,-2.683 1.356,-4.857 3.04,-4.857 z"
   id="path482"
   style="fill:#ffd4d4" />
				<path
   d="m 18.614,90.799 c 1.668,0 3.022,2.164 3.022,4.838 0,2.674 -1.354,4.838 -3.022,4.838 -1.678,0 -3.028,-2.164 -3.028,-4.838 0,-2.674 1.351,-4.838 3.028,-4.838 z"
   id="path484"
   style="fill:#ffd5d5" />
				<path
   d="m 18.614,90.819 c 1.66,0 3.011,2.158 3.011,4.818 0,2.664 -1.351,4.818 -3.011,4.818 -1.671,0 -3.016,-2.154 -3.016,-4.818 10e-4,-2.66 1.345,-4.818 3.016,-4.818 z"
   id="path486"
   style="fill:#ffd6d6" />
				<path
   d="m 18.614,90.838 c 1.654,0 2.998,2.148 2.998,4.799 0,2.652 -1.344,4.799 -2.998,4.799 -1.664,0 -3.004,-2.146 -3.004,-4.799 0,-2.65 1.34,-4.799 3.004,-4.799 z"
   id="path488"
   style="fill:#ffd7d7" />
				<path
   d="m 18.614,90.858 c 1.646,0 2.985,2.139 2.985,4.779 0,2.64 -1.339,4.779 -2.985,4.779 -1.657,0 -2.991,-2.139 -2.991,-4.779 0,-2.64 1.334,-4.779 2.991,-4.779 z"
   id="path490"
   style="fill:#ffd8d8" />
				<path
   d="m 18.614,90.877 c 1.641,0 2.974,2.131 2.974,4.76 0,2.631 -1.333,4.76 -2.974,4.76 -1.65,0 -2.979,-2.129 -2.979,-4.76 0,-2.629 1.329,-4.76 2.979,-4.76 z"
   id="path492"
   style="fill:#ffd9d9" />
				<path
   d="m 18.614,90.897 c 1.634,0 2.961,2.121 2.961,4.74 0,2.619 -1.327,4.74 -2.961,4.74 -1.644,0 -2.967,-2.121 -2.967,-4.74 0,-2.619 1.324,-4.74 2.967,-4.74 z"
   id="path494"
   style="fill:#ffdada" />
				<path
   d="m 18.614,90.917 c 1.627,0 2.949,2.113 2.949,4.721 0,2.609 -1.322,4.721 -2.949,4.721 -1.638,0 -2.955,-2.111 -2.955,-4.721 0,-2.608 1.318,-4.721 2.955,-4.721 z"
   id="path496"
   style="fill:#ffdbdb" />
				<path
   d="m 18.614,90.936 c 1.62,0 2.937,2.104 2.937,4.701 0,2.597 -1.316,4.701 -2.937,4.701 -1.631,0 -2.942,-2.104 -2.942,-4.701 0,-2.597 1.311,-4.701 2.942,-4.701 z"
   id="path498"
   style="fill:#ffdcdc" />
				<path
   d="m 18.614,90.956 c 1.613,0 2.925,2.096 2.925,4.682 0,2.588 -1.312,4.682 -2.925,4.682 -1.624,0 -2.931,-2.094 -2.931,-4.682 10e-4,-2.587 1.307,-4.682 2.931,-4.682 z"
   id="path500"
   style="fill:#ffdddd" />
				<path
   d="m 18.614,90.975 c 1.606,0 2.912,2.086 2.912,4.662 0,2.576 -1.306,4.662 -2.912,4.662 -1.617,0 -2.918,-2.086 -2.918,-4.662 0,-2.576 1.301,-4.662 2.918,-4.662 z"
   id="path502"
   style="fill:#ffdede" />
				<path
   d="m 18.614,90.995 c 1.6,0 2.9,2.078 2.9,4.643 0,2.566 -1.301,4.643 -2.9,4.643 -1.61,0 -2.906,-2.076 -2.906,-4.643 0,-2.565 1.296,-4.643 2.906,-4.643 z"
   id="path504"
   style="fill:#ffe0e0" />
				<path
   d="m 18.614,91.014 c 1.593,0 2.888,2.07 2.888,4.623 0,2.555 -1.295,4.623 -2.888,4.623 -1.604,0 -2.894,-2.068 -2.894,-4.623 10e-4,-2.553 1.291,-4.623 2.894,-4.623 z"
   id="path506"
   style="fill:#ffe1e1" />
				<path
   d="m 18.614,91.034 c 1.586,0 2.876,2.061 2.876,4.604 0,2.543 -1.29,4.602 -2.876,4.602 -1.597,0 -2.881,-2.059 -2.881,-4.602 0,-2.543 1.285,-4.604 2.881,-4.604 z"
   id="path508"
   style="fill:#ffe2e2" />
				<path
   d="m 18.614,91.053 c 1.58,0 2.863,2.053 2.863,4.584 0,2.533 -1.283,4.582 -2.863,4.582 -1.59,0 -2.869,-2.049 -2.869,-4.582 0,-2.531 1.279,-4.584 2.869,-4.584 z"
   id="path510"
   style="fill:#ffe3e3" />
				<path
   d="m 18.614,91.073 c 1.572,0 2.852,2.043 2.852,4.564 0,2.521 -1.279,4.562 -2.852,4.562 -1.583,0 -2.856,-2.041 -2.856,-4.562 0,-2.521 1.273,-4.564 2.856,-4.564 z"
   id="path512"
   style="fill:#ffe4e4" />
				<path
   d="m 18.614,91.092 c 1.566,0 2.839,2.035 2.839,4.545 0,2.512 -1.272,4.543 -2.839,4.543 -1.576,0 -2.844,-2.031 -2.844,-4.543 0.001,-2.51 1.268,-4.545 2.844,-4.545 z"
   id="path514"
   style="fill:#ffe5e5" />
				<path
   d="m 18.614,91.112 c 1.559,0 2.827,2.025 2.827,4.525 0,2.502 -1.269,4.523 -2.827,4.523 -1.569,0 -2.832,-2.021 -2.832,-4.523 0,-2.5 1.263,-4.525 2.832,-4.525 z"
   id="path516"
   style="fill:#ffe6e6" />
				<path
   d="m 18.614,91.131 c 1.553,0 2.814,2.018 2.814,4.506 0,2.49 -1.262,4.504 -2.814,4.504 -1.563,0 -2.819,-2.014 -2.819,-4.504 0,-2.488 1.256,-4.506 2.819,-4.506 z"
   id="path518"
   style="fill:#ffe7e7" />
				<path
   d="m 18.614,91.151 c 1.546,0 2.803,2.008 2.803,4.486 0,2.48 -1.257,4.484 -2.803,4.484 -1.557,0 -2.808,-2.004 -2.808,-4.484 0.001,-2.478 1.252,-4.486 2.808,-4.486 z"
   id="path520"
   style="fill:#ffe8e8" />
				<path
   d="m 18.614,91.17 c 1.539,0 2.79,2 2.79,4.467 0,2.469 -1.251,4.465 -2.79,4.465 -1.55,0 -2.795,-1.996 -2.795,-4.465 0,-2.467 1.245,-4.467 2.795,-4.467 z"
   id="path522"
   style="fill:#ffe9e9" />
				<path
   d="m 18.614,91.192 c 1.532,0 2.778,1.99 2.778,4.445 0,2.459 -1.246,4.445 -2.778,4.445 -1.543,0 -2.782,-1.986 -2.782,-4.445 0,-2.455 1.239,-4.445 2.782,-4.445 z"
   id="path524"
   style="fill:#ffeaea" />
				<path
   d="m 18.614,91.211 c 1.525,0 2.766,1.98 2.766,4.426 0,2.447 -1.24,4.426 -2.766,4.426 -1.536,0 -2.771,-1.979 -2.771,-4.426 10e-4,-2.445 1.235,-4.426 2.771,-4.426 z"
   id="path526"
   style="fill:#ffebeb" />
				<path
   d="m 18.614,91.231 c 1.519,0 2.754,1.973 2.754,4.406 0,2.436 -1.235,4.406 -2.754,4.406 -1.529,0 -2.758,-1.971 -2.758,-4.406 0,-2.433 1.229,-4.406 2.758,-4.406 z"
   id="path528"
   style="fill:#ffeded" />
				<path
   d="m 18.614,91.25 c 1.512,0 2.741,1.963 2.741,4.387 0,2.426 -1.229,4.387 -2.741,4.387 -1.522,0 -2.746,-1.961 -2.746,-4.387 0,-2.424 1.224,-4.387 2.746,-4.387 z"
   id="path530"
   style="fill:#ffeeee" />
				<path
   d="m 18.614,91.27 c 1.505,0 2.729,1.955 2.729,4.367 0,2.414 -1.225,4.367 -2.729,4.367 -1.516,0 -2.733,-1.953 -2.733,-4.367 0,-2.412 1.218,-4.367 2.733,-4.367 z"
   id="path532"
   style="fill:#ffefef" />
				<path
   d="m 18.614,91.29 c 1.498,0 2.717,1.945 2.717,4.348 0,2.404 -1.219,4.348 -2.717,4.348 -1.51,0 -2.722,-1.943 -2.722,-4.348 0.001,-2.403 1.212,-4.348 2.722,-4.348 z"
   id="path534"
   style="fill:#fff0f0" />
				<path
   d="m 18.614,91.309 c 1.492,0 2.704,1.936 2.704,4.328 0,2.392 -1.212,4.328 -2.704,4.328 -1.502,0 -2.709,-1.936 -2.709,-4.328 0,-2.392 1.207,-4.328 2.709,-4.328 z"
   id="path536"
   style="fill:#fff1f1" />
				<path
   d="m 18.614,91.329 c 1.484,0 2.692,1.928 2.692,4.309 0,2.383 -1.208,4.309 -2.692,4.309 -1.496,0 -2.697,-1.926 -2.697,-4.309 0,-2.382 1.201,-4.309 2.697,-4.309 z"
   id="path538"
   style="fill:#fff2f2" />
				<path
   d="m 18.614,91.348 c 1.479,0 2.68,1.918 2.68,4.289 0,2.371 -1.201,4.289 -2.68,4.289 -1.489,0 -2.685,-1.918 -2.685,-4.289 0,-2.371 1.196,-4.289 2.685,-4.289 z"
   id="path540"
   style="fill:#fff3f3" />
				<path
   d="m 18.614,91.368 c 1.472,0 2.668,1.91 2.668,4.27 0,2.361 -1.196,4.27 -2.668,4.27 -1.482,0 -2.673,-1.908 -2.673,-4.27 0,-2.36 1.191,-4.27 2.673,-4.27 z"
   id="path542"
   style="fill:#fff4f4" />
				<path
   d="m 18.614,91.387 c 1.465,0 2.655,1.902 2.655,4.25 0,2.35 -1.19,4.25 -2.655,4.25 -1.476,0 -2.66,-1.9 -2.66,-4.25 0,-2.347 1.185,-4.25 2.66,-4.25 z"
   id="path544"
   style="fill:#fff5f5" />
				<path
   d="m 18.614,91.407 c 1.458,0 2.644,1.893 2.644,4.23 0,2.337 -1.186,4.23 -2.644,4.23 -1.469,0 -2.648,-1.893 -2.648,-4.23 0,-2.337 1.18,-4.23 2.648,-4.23 z"
   id="path546"
   style="fill:#fff6f6" />
				<path
   d="m 18.614,91.426 c 1.451,0 2.631,1.885 2.631,4.211 0,2.328 -1.18,4.211 -2.631,4.211 -1.462,0 -2.636,-1.883 -2.636,-4.211 10e-4,-2.326 1.174,-4.211 2.636,-4.211 z"
   id="path548"
   style="fill:#fff7f7" />
				<path
   d="m 18.614,91.446 c 1.444,0 2.618,1.875 2.618,4.191 0,2.316 -1.174,4.191 -2.618,4.191 -1.455,0 -2.624,-1.875 -2.624,-4.191 0,-2.316 1.169,-4.191 2.624,-4.191 z"
   id="path550"
   style="fill:#fff8f8" />
				<path
   d="m 18.614,91.465 c 1.438,0 2.606,1.867 2.606,4.172 0,2.307 -1.169,4.17 -2.606,4.17 -1.448,0 -2.611,-1.863 -2.611,-4.17 0,-2.304 1.163,-4.172 2.611,-4.172 z"
   id="path552"
   style="fill:#fffafa" />
				<path
   d="m 18.614,91.485 c 1.431,0 2.594,1.857 2.594,4.152 0,2.295 -1.163,4.15 -2.594,4.15 -1.442,0 -2.599,-1.855 -2.599,-4.15 0,-2.295 1.157,-4.152 2.599,-4.152 z"
   id="path554"
   style="fill:#fffbfb" />
				<path
   d="m 18.614,91.504 c 1.424,0 2.582,1.85 2.582,4.133 0,2.285 -1.158,4.131 -2.582,4.131 -1.435,0 -2.587,-1.846 -2.587,-4.131 0,-2.283 1.153,-4.133 2.587,-4.133 z"
   id="path556"
   style="fill:#fffcfc" />
				<path
   d="m 18.614,91.524 c 1.417,0 2.569,1.84 2.569,4.113 0,2.273 -1.152,4.111 -2.569,4.111 -1.429,0 -2.574,-1.838 -2.574,-4.111 0,-2.273 1.146,-4.113 2.574,-4.113 z"
   id="path558"
   style="fill:#fffdfd" />
				<path
   d="m 18.614,91.543 c 1.41,0 2.558,1.832 2.558,4.094 0,2.264 -1.147,4.092 -2.558,4.092 -1.422,0 -2.562,-1.828 -2.562,-4.092 0,-2.262 1.14,-4.094 2.562,-4.094 z"
   id="path560"
   style="fill:#fffefe" />
				<path
   d="m 16.064,95.637 c 0,-2.25 1.135,-4.074 2.55,-4.074 1.404,0 2.545,1.824 2.545,4.074 0,2.252 -1.141,4.072 -2.545,4.072 -1.415,0 -2.55,-1.82 -2.55,-4.072 z"
   id="path562"
   style="fill:#ffffff" />
			</g>
			<g
   id="g564">
				<g
   id="g566">
					<path
   d="M 59.522,21.564 22.113,5.48 4.985,22.016 5.022,22.034 23.724,86.92 23.945,86.447 40.342,70.211 59.52,21.568 59.522,21.564 z"
   id="path568" />
				</g>
			</g>
			<g
   id="g570">
				<path
   d="M 23.724,86.92 5.018,22.016 23.724,31.031 42.427,40.045 23.724,86.92 z"
   id="path572"
   style="fill:#dd0100" />
			</g>
			<g
   id="g574">
				<linearGradient
   x1="31.159201"
   y1="37.3936"
   x2="33.614899"
   y2="2.3863001"
   id="XMLID_1_"
   gradientUnits="userSpaceOnUse">
					<stop
   id="stop577"
   style="stop-color:#ff8b8b;stop-opacity:1"
   offset="0" />
					<stop
   id="stop579"
   style="stop-color:#fb7b7b;stop-opacity:1"
   offset="0.15979999" />
					<stop
   id="stop581"
   style="stop-color:#f15352;stop-opacity:1"
   offset="0.4707" />
					<stop
   id="stop583"
   style="stop-color:#e11211;stop-opacity:1"
   offset="0.89810002" />
					<stop
   id="stop585"
   style="stop-color:#dd0100;stop-opacity:1"
   offset="1" />
					<midPointStop
   id="midPointStop587"
   style="stop-color:#FF8B8B"
   offset="0" />
					<midPointStop
   id="midPointStop589"
   style="stop-color:#FF8B8B"
   offset="0.5587" />
					<midPointStop
   id="midPointStop591"
   style="stop-color:#DD0100"
   offset="1" />
				</linearGradient>
				<path
   d="M 42.396,40.044 4.985,22.016 22.113,5.48 59.522,21.564 42.396,40.044 z"
   id="path593"
   style="fill:url(#XMLID_1_)" />
			</g>
			<g
   id="g595">
				<linearGradient
   x1="39.415001"
   y1="52.515598"
   x2="44.277699"
   y2="55.641701"
   id="XMLID_2_"
   gradientUnits="userSpaceOnUse">
					<stop
   id="stop598"
   style="stop-color:#660000;stop-opacity:1"
   offset="0" />
					<stop
   id="stop600"
   style="stop-color:#760000;stop-opacity:1"
   offset="0.53259999" />
					<stop
   id="stop602"
   style="stop-color:#870000;stop-opacity:1"
   offset="1" />
					<midPointStop
   id="midPointStop604"
   style="stop-color:#660000"
   offset="0" />
					<midPointStop
   id="midPointStop606"
   style="stop-color:#660000"
   offset="0.5587" />
					<midPointStop
   id="midPointStop608"
   style="stop-color:#870000"
   offset="1" />
				</linearGradient>
				<path
   d="M 40.342,70.211 23.944,86.448 42.424,40.023 59.522,21.565 40.342,70.211 z"
   id="path610"
   style="fill:url(#XMLID_2_)" />
			</g>
		</g>
	</g>
</svg>