<?xml version="1.0" encoding="UTF-8" standalone="no"?>
<svg
   xmlns:dc="http://purl.org/dc/elements/1.1/"
   xmlns:cc="http://creativecommons.org/ns#"
   xmlns:rdf="http://www.w3.org/1999/02/22-rdf-syntax-ns#"
   xmlns:svg="http://www.w3.org/2000/svg"
   xmlns="http://www.w3.org/2000/svg"
   xmlns:xlink="http://www.w3.org/1999/xlink"
   xmlns:sodipodi="http://sodipodi.sourceforge.net/DTD/sodipodi-0.dtd"
   xmlns:inkscape="http://www.inkscape.org/namespaces/inkscape"
   version="1.1"
   width="64"
   height="64"
   color-interpolation="linearRGB"
   id="svg2"
   sodipodi:version="0.32"
   inkscape:version="0.46"
   sodipodi:docname="cdplayer"
   inkscape:output_extension="org.inkscape.output.svg.inkscape">
  <metadata
     id="metadata101">
    <rdf:RDF>
      <cc:Work
         rdf:about="">
        <dc:format>image/svg+xml</dc:format>
        <dc:type
           rdf:resource="http://purl.org/dc/dcmitype/StillImage" />
      </cc:Work>
    </rdf:RDF>
  </metadata>
  <defs
     id="defs99">
    <inkscape:perspective
       sodipodi:type="inkscape:persp3d"
       inkscape:vp_x="0 : 32 : 1"
       inkscape:vp_y="0 : 1000 : 0"
       inkscape:vp_z="64 : 32 : 1"
       inkscape:persp3d-origin="32 : 21.333333 : 1"
       id="perspective103" />
    <inkscape:perspective
       id="perspective2521"
       inkscape:persp3d-origin="32 : 21.333333 : 1"
       inkscape:vp_z="64 : 32 : 1"
       inkscape:vp_y="0 : 1000 : 0"
       inkscape:vp_x="0 : 32 : 1"
       sodipodi:type="inkscape:persp3d" />
    <linearGradient
       inkscape:collect="always"
       xlink:href="#gradient0"
       id="linearGradient2549"
       gradientUnits="userSpaceOnUse"
       x1="22.67"
       y1="32.17"
       x2="43.45"
       y2="15.14" />
    <linearGradient
       inkscape:collect="always"
       xlink:href="#gradient1"
       id="linearGradient2551"
       gradientUnits="userSpaceOnUse"
       x1="26"
       y1="-64"
       x2="64"
       y2="-64" />
    <linearGradient
       inkscape:collect="always"
       xlink:href="#gradient2"
       id="linearGradient2553"
       gradientUnits="userSpaceOnUse"
       x1="12.68"
       y1="46.75"
       x2="5.62"
       y2="18.34" />
    <linearGradient
       inkscape:collect="always"
       xlink:href="#gradient3"
       id="linearGradient2555"
       gradientUnits="userSpaceOnUse"
       x1="17.25"
       y1="14.34"
       x2="45"
       y2="33.36" />
    <radialGradient
       id="radialGradient2527"
       gradientUnits="userSpaceOnUse"
       cx="0"
       cy="0"
       r="64"
       gradientTransform="matrix(0.5714,0,0,0.3333,26,35)">
      <stop
         offset="1"
         stop-color="#eaeaea"
         id="stop2485" />
      <stop
         offset="0.4886"
         stop-color="#a3a3a3"
         id="stop2487" />
    </radialGradient>
    <linearGradient
       id="linearGradient2533"
       gradientUnits="userSpaceOnUse"
       x1="107.04"
       y1="-17.09"
       x2="118.33"
       y2="27.99">
      <stop
         offset="0"
         stop-color="#d6d6d6"
         id="stop2494" />
      <stop
         offset="0.7424"
         stop-color="#f5f5f5"
         id="stop2496" />
      <stop
         offset="1"
         stop-color="#e6e6e6"
         id="stop2498" />
    </linearGradient>
    <radialGradient
       id="radialGradient2539"
       gradientUnits="userSpaceOnUse"
       cx="0"
       cy="0"
       r="64"
       gradientTransform="matrix(0.1385,-0.181,0.307,0.2349,31.7187,31.0811)">
      <stop
         offset="0"
         stop-color="#5e5e5e"
         id="stop2503" />
      <stop
         offset="1"
         stop-color="#d6d6d6"
         id="stop2505" />
    </radialGradient>
    <linearGradient
       id="linearGradient2544"
       gradientUnits="userSpaceOnUse"
       x1="-16.879999"
       y1="12.97"
       x2="2.3199999"
       y2="-12.12">
      <stop
         offset="0"
         stop-color="#010101"
         id="stop2510" />
      <stop
         offset="1"
         stop-color="#272727"
         id="stop2512" />
    </linearGradient>
    <linearGradient
       inkscape:collect="always"
       xlink:href="#gradient2"
       id="linearGradient2574"
       gradientUnits="userSpaceOnUse"
       x1="12.68"
       y1="46.75"
       x2="5.62"
       y2="18.34"
       gradientTransform="translate(-65.689311,-2.7022418)" />
    <linearGradient
       inkscape:collect="always"
       xlink:href="#gradient1"
       id="linearGradient2577"
       gradientUnits="userSpaceOnUse"
       x1="26"
       y1="-64"
       x2="64"
       y2="-64"
       gradientTransform="translate(-65.689311,-2.7022418)" />
    <linearGradient
       inkscape:collect="always"
       xlink:href="#gradient0"
       id="linearGradient2581"
       gradientUnits="userSpaceOnUse"
       x1="22.67"
       y1="32.17"
       x2="43.45"
       y2="15.14"
       gradientTransform="translate(-65.689311,-2.7022418)" />
  </defs>
  <sodipodi:namedview
     inkscape:window-height="772"
     inkscape:window-width="1270"
     inkscape:pageshadow="2"
     inkscape:pageopacity="0.0"
     guidetolerance="10.0"
     gridtolerance="10.0"
     objecttolerance="10.0"
     borderopacity="1.0"
     bordercolor="#666666"
     pagecolor="#ffffff"
     id="base"
     showgrid="false"
     inkscape:zoom="7.25"
     inkscape:cx="-12.812557"
     inkscape:cy="32"
     inkscape:window-x="0"
     inkscape:window-y="0"
     inkscape:current-layer="svg2" />
  <g
     id="g4">
    <path
       style="fill:#000000; fill-opacity:0.4156"
       d="M60 34L33 62H40L55 46H64L62 35L60 34z"
       id="path6" />
    <path
       style="fill:none; stroke:#000000; stroke-width:4"
       d="M53 10L23 2L22 3L30 21L9 36L6 34L2 38V46L30 60H34L58 36V32L59 31L53 10z"
       id="path8" />
    <linearGradient
       id="gradient0"
       gradientUnits="userSpaceOnUse"
       x1="22.67"
       y1="32.17"
       x2="43.45"
       y2="15.14">
      <stop
         offset="0"
         stop-color="#ffd600"
         id="stop11" />
      <stop
         offset="1"
         stop-color="#d74f05"
         id="stop13" />
    </linearGradient>
    <path
       style="fill:url(#gradient0)"
       d="M30 21L58 32L38 51L8 37L30 21z"
       id="path15" />
    <linearGradient
       id="gradient1"
       gradientUnits="userSpaceOnUse"
       x1="26"
       y1="-64"
       x2="64"
       y2="-64">
      <stop
         offset="0"
         stop-color="#ff7200"
         id="stop18" />
      <stop
         offset="1"
         stop-color="#ff9800"
         id="stop20" />
    </linearGradient>
    <path
       style="fill:url(#gradient1)"
       d="M38 56L58 36V32L38 51V56z"
       id="path22" />
    <linearGradient
       id="gradient2"
       gradientUnits="userSpaceOnUse"
       x1="12.68"
       y1="46.75"
       x2="5.62"
       y2="18.34">
      <stop
         offset="0"
         stop-color="#dd6311"
         id="stop25" />
      <stop
         offset="0.9962"
         stop-color="#ff9f59"
         id="stop27" />
    </linearGradient>
    <path
       style="fill:url(#gradient2)"
       d="M53 10L52 11L58 32L59 31L53 10z"
       id="path29" />
    <linearGradient
       id="gradient3"
       gradientUnits="userSpaceOnUse"
       x1="17.25"
       y1="14.34"
       x2="45"
       y2="33.36">
      <stop
         offset="0"
         stop-color="#ffdd59"
         id="stop32" />
      <stop
         offset="1"
         stop-color="#ffcb00"
         id="stop34" />
    </linearGradient>
    <path
       style="fill:url(#gradient3)"
       d="M22 3L52 11L53 10L23 2L22 3z"
       id="path36" />
    <linearGradient
       id="gradient4"
       gradientUnits="userSpaceOnUse"
       x1="69"
       y1="7.13"
       x2="68.8"
       y2="35.24">
      <stop
         offset="0"
         stop-color="#ff5e06"
         id="stop39" />
      <stop
         offset="1"
         stop-color="#ff9806"
         id="stop41" />
    </linearGradient>
    <path
       style="fill:url(#gradient4)"
       d="M30 21L58 32L52 11L22 3L30 21z"
       id="path43" />
    <path
       style="fill:none; stroke:#000000; stroke-width:4"
       d="M34 22C26 22 18 26 18 32C18 38 26 42 34 42C42 42 50 38 50 32C50 26 42 22 34 22z            M34 29C32 29 31 30 31 31C31 32 32 33 34 33C36 33 37 32 37 31C37 30 36 29 34 29z"
       id="path45" />
    <linearGradient
       id="gradient5"
       gradientUnits="userSpaceOnUse"
       x1="19.05"
       y1="50.69"
       x2="14.57"
       y2="15.87">
      <stop
         offset="0"
         stop-color="#f1f1f1"
         id="stop48" />
      <stop
         offset="0.2121"
         stop-color="#d9ddf4"
         id="stop50" />
      <stop
         offset="0.5416"
         stop-color="#9996b9"
         id="stop52" />
      <stop
         offset="0.7083"
         stop-color="#b8bedb"
         id="stop54" />
      <stop
         offset="1"
         stop-color="#f4f4f4"
         id="stop56" />
    </linearGradient>
    <path
       style="fill:url(#gradient5)"
       d="M40 31C40 33 38 35 34 35C30 35 28 33 28 31C28 29 30 27 34 27C38 27 40 29 40 31z            M34 22C26 22 18 26 18 32C18 38 26 42 34 42C42 42 50 38 50 32C50 26 42 22 34 22z"
       id="path58" />
    <path
       style="fill:#c9a588"
       d="M34 29C32 29 31 30 31 31C31 32 32 33 34 33C36 33 37 32 37 31C37 30 36 29 34 29z            M40 31C40 33 38 35 34 35C30 35 28 33 28 31C28 29 30 27 34 27C38 27 40 29 40 31z"
       id="path60" />
    <linearGradient
       id="gradient6"
       gradientUnits="userSpaceOnUse"
       x1="6.84"
       y1="-3.55"
       x2="48.02"
       y2="6.68">
      <stop
         offset="0"
         stop-color="#4137a9"
         id="stop63" />
      <stop
         offset="1"
         stop-color="#b9b9b9"
         id="stop65" />
    </linearGradient>
    <path
       style="fill:none; stroke:url(#gradient6); stroke-width:2"
       d="M40 31C40 33 38 35 34 35C30 35 28 33 28 31C28 29 30 27 34 27C38 27 40 29 40 31z"
       id="path67" />
    <path
       style="fill:#ffa200"
       d="M30 52V60H34V52H30z"
       id="path69" />
    <linearGradient
       id="gradient7"
       gradientUnits="userSpaceOnUse"
       x1="26"
       y1="-64"
       x2="64"
       y2="-64">
      <stop
         offset="0"
         stop-color="#ff7200"
         id="stop72" />
      <stop
         offset="1"
         stop-color="#ff9800"
         id="stop74" />
    </linearGradient>
    <path
       style="fill:url(#gradient7)"
       d="M38 48L34 52V60L38 56V48z"
       id="path76" />
    <linearGradient
       id="gradient8"
       gradientUnits="userSpaceOnUse"
       x1="17.25"
       y1="14.34"
       x2="45"
       y2="33.36">
      <stop
         offset="0"
         stop-color="#ffdd59"
         id="stop79" />
      <stop
         offset="1"
         stop-color="#ffcb00"
         id="stop81" />
    </linearGradient>
    <path
       style="fill:url(#gradient8)"
       d="M2 40L30 52V60L2 46V40z"
       id="path83" />
    <linearGradient
       id="gradient9"
       gradientUnits="userSpaceOnUse"
       x1="-2"
       y1="-64"
       x2="38"
       y2="-64">
      <stop
         offset="0"
         stop-color="#feffac"
         id="stop86" />
      <stop
         offset="1"
         stop-color="#ffea3e"
         id="stop88" />
    </linearGradient>
    <path
       style="fill:url(#gradient9)"
       d="M6 34L2 38V40L30 52H34L38 48L6 34z"
       id="path90" />
    <path
       style="fill:#000000"
       d="M6 34L38 48V51L39 50V47L6 32V34z"
       id="path92" />
    <path
       style="fill:#005c00"
       d="M16 41L17 40.5L8.31 36.68L5.37 39.62L6 40L8.31 37.68L16 41z"
       id="path94" />
    <path
       style="fill:#8eb68e"
       d="M16 41L8.25 37.75L6 40L14 43L16 41z"
       id="path96" />
  </g>
  <path
     style="fill:#333333"
     d="M 8.4956902,18.299061 C 4.7479228,17.33183 0.91852401,18.635135 0.30141131,21.0359 C -0.32049579,23.44997 2.2126512,26.181739 5.9694686,27.144715 C 9.7172362,28.111947 13.537585,26.812896 14.159493,24.398827 L 13.871028,6.1357671 C 15.764113,9.8094064 20.82089,10.105896 21.908982,14.511648 C 24.154668,5.797901 14.365042,4.2017427 11.989755,0.48962591 L 12.578409,20.401681 C 11.571694,19.482701 10.154033,18.723794 8.4956902,18.299061 z"
     id="path2514" />
</svg>
