<?xml version="1.0" encoding="UTF-8" standalone="yes"?>
<svg version="1.1" width="64" height="64" color-interpolation="linearRGB"
     xmlns:svg="http://www.w3.org/2000/svg" xmlns="http://www.w3.org/2000/svg">
 <g>
  <path style="fill:#010101; fill-opacity:0.4549"
        d="M37 63L47 62L63 46L47 38L37 63z"
        transform="matrix(1,0,0,1,1,1)"
  />
  <path style="fill:none; stroke:#000000; stroke-width:2"
        d="M6 11V48L38 63L55 46V11L24 2L6 11z"
  />
  <linearGradient id="gradient0" gradientUnits="userSpaceOnUse" x1="-8.87" y1="-12.34" x2="18.99" y2="-19.92">
   <stop offset="0" stop-color="#f9f9f9"/>
   <stop offset="1" stop-color="#aeaeae"/>
  </linearGradient>
  <path style="fill:url(#gradient0)"
        d="M7 11V48L38 62V21L7 11z"
  />
  <linearGradient id="gradient1" gradientUnits="userSpaceOnUse" x1="30.5" y1="-22.81" x2="56.01" y2="-9.13">
   <stop offset="0" stop-color="#ffffff"/>
   <stop offset="1" stop-color="#c5c5c5"/>
  </linearGradient>
  <path style="fill:url(#gradient1)"
        d="M7 11L38 22L54 11L24 3L7 11z"
  />
  <linearGradient id="gradient2" gradientUnits="userSpaceOnUse" x1="33.3" y1="-0.68" x2="46.77" y2="0.74">
   <stop offset="0" stop-color="#646464"/>
   <stop offset="1" stop-color="#8c8c8c"/>
  </linearGradient>
  <path style="fill:url(#gradient2)"
        d="M38 22V62L54 46V11L38 22z"
  />
  <path style="fill:none; stroke:#010101; stroke-width:4"
        d="M23 21C16 18 10 24.06 10 31C10 37.93 14.62 46.26 21 49C28 52 35 45.93 35 39C35 30 29.37 23.73 23 21z"
  />
  <linearGradient id="gradient3" gradientUnits="userSpaceOnUse" x1="19.03" y1="125.45" x2="-68.73" y2="32.29">
   <stop offset="0" stop-color="#010101"/>
   <stop offset="0.7786" stop-color="#707070"/>
   <stop offset="0.8167" stop-color="#737373"/>
   <stop offset="1" stop-color="#ffffff"/>
  </linearGradient>
  <path style="fill:url(#gradient3)"
        d="M23 21C16 18 10 24.06 10 31C10 37.93 14.62 46.26 21 49C28 52 35 45.93 35 39C35 30 29.37 23.73 23 21z"
  />
  <radialGradient id="gradient4" gradientUnits="userSpaceOnUse" cx="0" cy="0" r="64" gradientTransform="matrix(0.6718,0,0,0.6718,12,19)">
   <stop offset="0.7487" stop-color="#4b4b4b"/>
   <stop offset="0" stop-color="#848484"/>
   <stop offset="1" stop-color="#323232"/>
  </radialGradient>
  <path style="fill:url(#gradient4)"
        d="M23 21C16 18 10 24.06 10 31C10 37.93 14.62 46.26 21 49C28 52 35 45.93 35 39C35 30 29.37 23.73 23 21z"
        transform="matrix(0.4666,0,0,0.4666,13.0666,19.0666)"
  />
  <linearGradient id="gradient5" gradientUnits="userSpaceOnUse" x1="32.91" y1="-8.43" x2="69.79" y2="43.86">
   <stop offset="0.632" stop-color="#434343"/>
   <stop offset="1" stop-color="#ffffff"/>
  </linearGradient>
  <path style="fill:none; stroke:url(#gradient5); stroke-width:1.5"
        d="M23 21C16 18 10 24.06 10 31C10 37.93 14.62 46.26 21 49C28 52 35 45.93 35 39C35 30 29.37 23.73 23 21z"
        transform="matrix(0.9062,0,0,0.9062,1.9999,2.9999)"
  />
  <linearGradient id="gradient6" gradientUnits="userSpaceOnUse" x1="15.39" y1="80.67" x2="-23.3" y2="29.7">
   <stop offset="0.6735" stop-color="#080808"/>
   <stop offset="1" stop-color="#ffffff"/>
  </linearGradient>
  <path style="fill:none; stroke:url(#gradient6); stroke-width:2.0999"
        d="M23 21C16 18 10 24.06 10 31C10 37.93 14.62 46.26 21 49C28 52 35 45.93 35 39C35 30 29.37 23.73 23 21z"
        transform="matrix(0.8048,0,0,0.8105,4.3946,6.6981)"
  />
  <path style="fill:#00ff00"
        d="M32 16C23.37 14.08 16 20.16 16 29C16 37.83 22.61 44.2 31 47C40 50 47 44.83 47 36C47 27.16 41 18 32 16z"
        transform="matrix(0.1562,0,0,0.1562,28.5,49.5)"
  />
 </g>
</svg>
