<?xml version="1.0" encoding="UTF-8" standalone="no"?>
<svg
   xmlns:dc="http://purl.org/dc/elements/1.1/"
   xmlns:cc="http://creativecommons.org/ns#"
   xmlns:rdf="http://www.w3.org/1999/02/22-rdf-syntax-ns#"
   xmlns:svg="http://www.w3.org/2000/svg"
   xmlns="http://www.w3.org/2000/svg"
   xmlns:xlink="http://www.w3.org/1999/xlink"
   xmlns:sodipodi="http://sodipodi.sourceforge.net/DTD/sodipodi-0.dtd"
   xmlns:inkscape="http://www.inkscape.org/namespaces/inkscape"
   version="1.1"
   width="64"
   height="64"
   color-interpolation="linearRGB"
   id="svg2"
   sodipodi:version="0.32"
   inkscape:version="0.46"
   sodipodi:docname="speakerbox"
   inkscape:output_extension="org.inkscape.output.svg.inkscape">
  <metadata
     id="metadata72">
    <rdf:RDF>
      <cc:Work
         rdf:about="">
        <dc:format>image/svg+xml</dc:format>
        <dc:type
           rdf:resource="http://purl.org/dc/dcmitype/StillImage" />
      </cc:Work>
    </rdf:RDF>
  </metadata>
  <defs
     id="defs70">
    <inkscape:perspective
       sodipodi:type="inkscape:persp3d"
       inkscape:vp_x="0 : 32 : 1"
       inkscape:vp_y="0 : 1000 : 0"
       inkscape:vp_z="64 : 32 : 1"
       inkscape:persp3d-origin="32 : 21.333333 : 1"
       id="perspective74" />
    <inkscape:perspective
       id="perspective2492"
       inkscape:persp3d-origin="32 : 21.333333 : 1"
       inkscape:vp_z="64 : 32 : 1"
       inkscape:vp_y="0 : 1000 : 0"
       inkscape:vp_x="0 : 32 : 1"
       sodipodi:type="inkscape:persp3d" />
    <linearGradient
       inkscape:collect="always"
       xlink:href="#gradient0"
       id="linearGradient2520"
       gradientUnits="userSpaceOnUse"
       x1="-8.87"
       y1="-12.34"
       x2="18.99"
       y2="-19.92" />
    <linearGradient
       inkscape:collect="always"
       xlink:href="#gradient1"
       id="linearGradient2522"
       gradientUnits="userSpaceOnUse"
       x1="30.5"
       y1="-22.81"
       x2="56.01"
       y2="-9.13" />
    <linearGradient
       inkscape:collect="always"
       xlink:href="#gradient2"
       id="linearGradient2524"
       gradientUnits="userSpaceOnUse"
       x1="33.3"
       y1="-0.68"
       x2="46.77"
       y2="0.74" />
    <linearGradient
       inkscape:collect="always"
       xlink:href="#gradient3"
       id="linearGradient2526"
       gradientUnits="userSpaceOnUse"
       x1="19.03"
       y1="125.45"
       x2="-68.73"
       y2="32.29"
       gradientTransform="translate(71.724138,5.7931034)" />
    <radialGradient
       id="radialGradient2498"
       gradientUnits="userSpaceOnUse"
       cx="0"
       cy="0"
       r="64"
       gradientTransform="matrix(0.5714,0,0,0.3333,26,35)">
      <stop
         offset="1"
         stop-color="#d8e4fa"
         id="stop2456" />
      <stop
         offset="0.4886"
         stop-color="#7794c9"
         id="stop2458" />
    </radialGradient>
    <linearGradient
       id="linearGradient2504"
       gradientUnits="userSpaceOnUse"
       x1="107.04"
       y1="-17.09"
       x2="118.33"
       y2="27.99">
      <stop
         offset="0"
         stop-color="#a5c5ff"
         id="stop2465" />
      <stop
         offset="0.7424"
         stop-color="#eaf2ff"
         id="stop2467" />
      <stop
         offset="1"
         stop-color="#d5e3ff"
         id="stop2469" />
    </linearGradient>
    <radialGradient
       id="radialGradient2510"
       gradientUnits="userSpaceOnUse"
       cx="0"
       cy="0"
       r="64"
       gradientTransform="matrix(0.1558,-0.1915,0.4544,0.3697,27.8803,27.4956)">
      <stop
         offset="0"
         stop-color="#485c85"
         id="stop2474" />
      <stop
         offset="1"
         stop-color="#bbcff7"
         id="stop2476" />
    </radialGradient>
    <linearGradient
       id="linearGradient2515"
       gradientUnits="userSpaceOnUse"
       x1="-16.879999"
       y1="12.97"
       x2="2.3199999"
       y2="-12.12">
      <stop
         offset="0"
         stop-color="#010101"
         id="stop2481" />
      <stop
         offset="1"
         stop-color="#272727"
         id="stop2483" />
    </linearGradient>
    <linearGradient
       inkscape:collect="always"
       xlink:href="#gradient2"
       id="linearGradient2545"
       gradientUnits="userSpaceOnUse"
       x1="33.3"
       y1="-0.68"
       x2="46.77"
       y2="0.74"
       gradientTransform="translate(-67.206551,-6.9781035)" />
    <linearGradient
       inkscape:collect="always"
       xlink:href="#gradient1"
       id="linearGradient2548"
       gradientUnits="userSpaceOnUse"
       x1="30.5"
       y1="-22.81"
       x2="56.01"
       y2="-9.13"
       gradientTransform="translate(-67.206551,-6.9781035)" />
    <linearGradient
       inkscape:collect="always"
       xlink:href="#gradient0"
       id="linearGradient2552"
       gradientUnits="userSpaceOnUse"
       x1="-8.87"
       y1="-12.34"
       x2="18.99"
       y2="-19.92"
       gradientTransform="translate(-67.206551,-6.9781035)" />
    <linearGradient
       inkscape:collect="always"
       xlink:href="#gradient0"
       id="linearGradient2443"
       gradientUnits="userSpaceOnUse"
       x1="-8.87"
       y1="-12.34"
       x2="18.99"
       y2="-19.92" />
    <linearGradient
       inkscape:collect="always"
       xlink:href="#gradient1"
       id="linearGradient2445"
       gradientUnits="userSpaceOnUse"
       x1="30.5"
       y1="-22.81"
       x2="56.01"
       y2="-9.13" />
    <linearGradient
       inkscape:collect="always"
       xlink:href="#gradient2"
       id="linearGradient2447"
       gradientUnits="userSpaceOnUse"
       x1="33.3"
       y1="-0.68"
       x2="46.77"
       y2="0.74" />
    <linearGradient
       inkscape:collect="always"
       xlink:href="#gradient3"
       id="linearGradient2449"
       gradientUnits="userSpaceOnUse"
       x1="19.03"
       y1="125.45"
       x2="-68.73"
       y2="32.29" />
  </defs>
  <sodipodi:namedview
     inkscape:window-height="772"
     inkscape:window-width="1270"
     inkscape:pageshadow="2"
     inkscape:pageopacity="0.0"
     guidetolerance="10.0"
     gridtolerance="10.0"
     objecttolerance="10.0"
     borderopacity="1.0"
     bordercolor="#666666"
     pagecolor="#ffffff"
     id="base"
     showgrid="false"
     inkscape:zoom="7.25"
     inkscape:cx="7.2967578"
     inkscape:cy="29.677274"
     inkscape:window-x="0"
     inkscape:window-y="0"
     inkscape:current-layer="svg2" />
  <g
     id="g4"
     transform="translate(7.862069,-0.8275862)">
    <path
       style="fill:#010101;fill-opacity:0.45489999"
       d="M 37,63 L 47,62 L 63,46 L 47,38 L 37,63 z"
       transform="translate(1,1)"
       id="path6" />
    <path
       style="fill:none;stroke:#000000;stroke-width:2"
       d="M 6,11 L 6,48 L 38,63 L 55,46 L 55,11 L 24,2 L 6,11 z"
       id="path8" />
    <linearGradient
       id="gradient0"
       gradientUnits="userSpaceOnUse"
       x1="-8.8699999"
       y1="-12.34"
       x2="18.99"
       y2="-19.92">
      <stop
         offset="0"
         stop-color="#f9f9f9"
         id="stop11" />
      <stop
         offset="1"
         stop-color="#aeaeae"
         id="stop13" />
    </linearGradient>
    <path
       style="fill:url(#linearGradient2443)"
       d="M 7,11 L 7,48 L 38,62 L 38,21 L 7,11 z"
       id="path15" />
    <linearGradient
       id="gradient1"
       gradientUnits="userSpaceOnUse"
       x1="30.5"
       y1="-22.809999"
       x2="56.009998"
       y2="-9.1300001">
      <stop
         offset="0"
         stop-color="#ffffff"
         id="stop18" />
      <stop
         offset="1"
         stop-color="#c5c5c5"
         id="stop20" />
    </linearGradient>
    <path
       style="fill:url(#linearGradient2445)"
       d="M 7,11 L 38,22 L 54,11 L 24,3 L 7,11 z"
       id="path22" />
    <linearGradient
       id="gradient2"
       gradientUnits="userSpaceOnUse"
       x1="33.299999"
       y1="-0.68000001"
       x2="46.77"
       y2="0.74000001">
      <stop
         offset="0"
         stop-color="#646464"
         id="stop25" />
      <stop
         offset="1"
         stop-color="#8c8c8c"
         id="stop27" />
    </linearGradient>
    <path
       style="fill:url(#linearGradient2447)"
       d="M 38,22 L 38,62 L 54,46 L 54,11 L 38,22 z"
       id="path29" />
    <path
       style="fill:none;stroke:#010101;stroke-width:4"
       d="M 23,21 C 16,18 10,24.06 10,31 C 10,37.93 14.62,46.26 21,49 C 28,52 35,45.93 35,39 C 35,30 29.37,23.73 23,21 z"
       id="path31" />
    <linearGradient
       id="gradient3"
       gradientUnits="userSpaceOnUse"
       x1="19.030001"
       y1="125.45"
       x2="-68.730003"
       y2="32.290001">
      <stop
         offset="0"
         stop-color="#010101"
         id="stop34" />
      <stop
         offset="0.7786"
         stop-color="#707070"
         id="stop36" />
      <stop
         offset="0.8167"
         stop-color="#737373"
         id="stop38" />
      <stop
         offset="1"
         stop-color="#ffffff"
         id="stop40" />
    </linearGradient>
    <path
       style="fill:url(#linearGradient2449)"
       d="M 23,21 C 16,18 10,24.06 10,31 C 10,37.93 14.62,46.26 21,49 C 28,52 35,45.93 35,39 C 35,30 29.37,23.73 23,21 z"
       id="path42" />
    <radialGradient
       id="gradient4"
       gradientUnits="userSpaceOnUse"
       cx="0"
       cy="0"
       r="64"
       gradientTransform="matrix(0.6718,0,0,0.6718,12,19)">
      <stop
         offset="0.7487"
         stop-color="#4b4b4b"
         id="stop45" />
      <stop
         offset="0"
         stop-color="#848484"
         id="stop47" />
      <stop
         offset="1"
         stop-color="#323232"
         id="stop49" />
    </radialGradient>
    <path
       style="fill:url(#gradient4)"
       d="M 23,21 C 16,18 10,24.06 10,31 C 10,37.93 14.62,46.26 21,49 C 28,52 35,45.93 35,39 C 35,30 29.37,23.73 23,21 z"
       transform="matrix(0.4666,0,0,0.4666,13.0666,19.0666)"
       id="path51" />
    <linearGradient
       id="gradient5"
       gradientUnits="userSpaceOnUse"
       x1="32.91"
       y1="-8.4300003"
       x2="69.790001"
       y2="43.860001">
      <stop
         offset="0.632"
         stop-color="#434343"
         id="stop54" />
      <stop
         offset="1"
         stop-color="#ffffff"
         id="stop56" />
    </linearGradient>
    <path
       style="fill:none;stroke:url(#gradient5);stroke-width:1.5"
       d="M 23,21 C 16,18 10,24.06 10,31 C 10,37.93 14.62,46.26 21,49 C 28,52 35,45.93 35,39 C 35,30 29.37,23.73 23,21 z"
       transform="matrix(0.9062,0,0,0.9062,1.9999,2.9999)"
       id="path58" />
    <linearGradient
       id="gradient6"
       gradientUnits="userSpaceOnUse"
       x1="15.39"
       y1="80.669998"
       x2="-23.299999"
       y2="29.700001">
      <stop
         offset="0.6735"
         stop-color="#080808"
         id="stop61" />
      <stop
         offset="1"
         stop-color="#ffffff"
         id="stop63" />
    </linearGradient>
    <path
       style="fill:none;stroke:url(#gradient6);stroke-width:2.09990001"
       d="M 23,21 C 16,18 10,24.06 10,31 C 10,37.93 14.62,46.26 21,49 C 28,52 35,45.93 35,39 C 35,30 29.37,23.73 23,21 z"
       transform="matrix(0.8048,0,0,0.8105,4.3946,6.6981)"
       id="path65" />
    <path
       style="fill:#00ff00"
       d="M 32,16 C 23.37,14.08 16,20.16 16,29 C 16,37.83 22.61,44.2 31,47 C 40,50 47,44.83 47,36 C 47,27.16 41,18 32,16 z"
       transform="matrix(0.1562,0,0,0.1562,28.5,49.5)"
       id="path67" />
  </g>
  <path
     style="fill:#4d4d4d"
     d="M 0.50359069,53.765597 C 0.15536369,58.702942 10.936283,57.068675 11.570731,52.093509 C 12.20518,47.118343 10.422047,40.610929 10.422047,40.610929 L 21.508047,42.148203 L 21.113139,56.073241 C 18.695558,54.540994 12.335665,57.128321 12.082398,60.690532 C 11.73417,65.627876 22.515089,63.993609 23.149538,59.018443 C 23.783987,54.043276 23.650935,36.172574 23.650935,36.172574 L 8.1298157,33.367215 L 9.5343327,49.148307 C 7.1167507,47.616059 0.75685669,50.203386 0.50359069,53.765597 z"
     id="path2485" />
</svg>
