<?xml version="1.0" encoding="UTF-8" standalone="no"?>
<svg
   xmlns:dc="http://purl.org/dc/elements/1.1/"
   xmlns:cc="http://creativecommons.org/ns#"
   xmlns:rdf="http://www.w3.org/1999/02/22-rdf-syntax-ns#"
   xmlns:svg="http://www.w3.org/2000/svg"
   xmlns="http://www.w3.org/2000/svg"
   xmlns:sodipodi="http://sodipodi.sourceforge.net/DTD/sodipodi-0.dtd"
   xmlns:inkscape="http://www.inkscape.org/namespaces/inkscape"
   version="1.1"
   width="64"
   height="64"
   color-interpolation="linearRGB"
   id="svg2"
   sodipodi:version="0.32"
   inkscape:version="0.46"
   sodipodi:docname="media_convert"
   inkscape:output_extension="org.inkscape.output.svg.inkscape">
  <metadata
     id="metadata74">
    <rdf:RDF>
      <cc:Work
         rdf:about="">
        <dc:format>image/svg+xml</dc:format>
        <dc:type
           rdf:resource="http://purl.org/dc/dcmitype/StillImage" />
      </cc:Work>
    </rdf:RDF>
  </metadata>
  <defs
     id="defs72">
    <inkscape:perspective
       sodipodi:type="inkscape:persp3d"
       inkscape:vp_x="0 : 32 : 1"
       inkscape:vp_y="0 : 1000 : 0"
       inkscape:vp_z="64 : 32 : 1"
       inkscape:persp3d-origin="32 : 21.333333 : 1"
       id="perspective76" />
  </defs>
  <sodipodi:namedview
     inkscape:window-height="682"
     inkscape:window-width="640"
     inkscape:pageshadow="2"
     inkscape:pageopacity="0.0"
     guidetolerance="10.0"
     gridtolerance="10.0"
     objecttolerance="10.0"
     borderopacity="1.0"
     bordercolor="#666666"
     pagecolor="#ffffff"
     id="base"
     showgrid="false"
     inkscape:zoom="7.25"
     inkscape:cx="32"
     inkscape:cy="32"
     inkscape:window-x="0"
     inkscape:window-y="0"
     inkscape:current-layer="svg2" />
  <g
     id="g4">
    <path
       style="fill:#010000; fill-opacity:0.4431"
       d="M38 58H43L64 36L56 32H38V58z"
       id="path6" />
    <path
       style="fill:none; stroke:#010000; stroke-width:4"
       d="M2 30L21 14L58 28V36L38 56L2 38V30z"
       id="path8" />
    <linearGradient
       id="gradient0"
       gradientUnits="userSpaceOnUse"
       x1="35.39"
       y1="14.68"
       x2="50.49"
       y2="42.9">
      <stop
         offset="0"
         stop-color="#686868"
         id="stop11" />
      <stop
         offset="1"
         stop-color="#393939"
         id="stop13" />
    </linearGradient>
    <path
       style="fill:url(#gradient0)"
       d="M38 56L2 38V30L38 46V56z"
       id="path15" />
    <linearGradient
       id="gradient1"
       gradientUnits="userSpaceOnUse"
       x1="39.81"
       y1="66.3"
       x2="30.43"
       y2="59.24">
      <stop
         offset="0"
         stop-color="#505050"
         id="stop18" />
      <stop
         offset="1"
         stop-color="#222222"
         id="stop20" />
    </linearGradient>
    <path
       style="fill:url(#gradient1)"
       d="M38 46V56L58 36V28L38 46z"
       id="path22" />
    <linearGradient
       id="gradient2"
       gradientUnits="userSpaceOnUse"
       x1="49.05"
       y1="4.66"
       x2="61.23"
       y2="34.25">
      <stop
         offset="0"
         stop-color="#aeaeae"
         id="stop25" />
      <stop
         offset="1"
         stop-color="#7c7c7c"
         id="stop27" />
    </linearGradient>
    <path
       style="fill:url(#gradient2)"
       d="M4.23 28.11L21 14L58 28L40.37 43.86L4.23 28.11z"
       id="path29" />
    <linearGradient
       id="gradient3"
       gradientUnits="userSpaceOnUse"
       x1="33.55"
       y1="5.08"
       x2="57.12"
       y2="26.73">
      <stop
         offset="0"
         stop-color="#8e8e8e"
         id="stop32" />
      <stop
         offset="1"
         stop-color="#5a5a5a"
         id="stop34" />
    </linearGradient>
    <path
       style="fill:url(#gradient3)"
       d="M2 30L4.23 28.11L40.37 43.86L38 46L2 30z"
       id="path36" />
    <path
       style="fill:none; stroke:#010000; stroke-width:2"
       d="M39 36C37 35 18 27 16 26C14 25 14 23 16 21C18 19 21 18 23 19C25 20 45 27 47 28C49 29 51 31 48 34C45 37 41 37 39 36z"
       id="path38" />
    <linearGradient
       id="gradient4"
       gradientUnits="userSpaceOnUse"
       x1="17.54"
       y1="4.52"
       x2="49.01"
       y2="6.15">
      <stop
         offset="0"
         stop-color="#3c3b3b"
         id="stop41" />
      <stop
         offset="0.2681"
         stop-color="#737373"
         id="stop43" />
      <stop
         offset="1"
         stop-color="#3a3a3a"
         id="stop45" />
    </linearGradient>
    <path
       style="fill:url(#gradient4)"
       d="M39 36C37 35 18 27 16 26C14 25 14 23 16 21C18 19 21 18 23 19C25 20 45 27 47 28C49 29 51 31 48 34C45 37 41 37 39 36z"
       id="path47" />
    <path
       style="fill:#828282"
       d="M23 22C21.34 22 20 22.89 20 24C20 25.1 21.34 26 23 26C24.65 26 26 25.1 26 24C26 22.89 24.65 22 23 22z"
       id="path49" />
    <path
       style="fill:#7c7c7c"
       d="M23 22C21.34 22 20 22.89 20 24C20 25.1 21.34 26 23 26C24.65 26 26 25.1 26 24C26 22.89 24.65 22 23 22z"
       transform="matrix(1,0,0,1,17,7.375)"
       id="path51" />
    <linearGradient
       id="gradient5"
       gradientUnits="userSpaceOnUse"
       x1="41.84"
       y1="1.06"
       x2="63.9"
       y2="24.25">
      <stop
         offset="0"
         stop-color="#ffffff"
         id="stop54" />
      <stop
         offset="1"
         stop-color="#e8e8e8"
         id="stop56" />
    </linearGradient>
    <path
       style="fill:url(#gradient5)"
       d="M34.62 33.37L21 28L28.12 21.87L42 26.87L34.62 33.37z"
       id="path58" />
    <path
       style="fill:none; stroke:#090909; stroke-width:1"
       d="M4 28L41 44L42.5 42.5V45.5L39 56"
       id="path60" />
    <linearGradient
       id="gradient6"
       gradientUnits="userSpaceOnUse"
       x1="60.28"
       y1="-0.95"
       x2="82.85"
       y2="13.52">
      <stop
         offset="0"
         stop-color="#fdfdfd"
         id="stop65" />
      <stop
         offset="1"
         stop-color="#8d8d8d"
         id="stop67" />
    </linearGradient>
  </g>
</svg>
