<?xml version="1.0" encoding="UTF-8" standalone="no"?>
<!-- Created with Inkscape (http://www.inkscape.org/) -->
<svg
   xmlns:a="http://ns.adobe.com/AdobeSVGViewerExtensions/3.0/"
   xmlns:svg="http://www.w3.org/2000/svg"
   xmlns="http://www.w3.org/2000/svg"
   version="1.0"
   width="22.812"
   height="17.756001"
   viewBox="0 0 22.812 17.756"
   id="svg2"
   xml:space="preserve"
   style="overflow:visible"><defs
   id="defs75" />
	
		<g
   transform="matrix(0.3253414,-0.7124127,0.7124127,0.3253414,1.6778289,14.963743)"
   id="Ebene_1">
			<path
   d="M 20.558,1.291 L 16.041,6.019 L 22.812,4.965 C 20.431,6.403 16.494,8.05 12.854,9.029 C 11.333,10.316 10.845,11.308 9.407,13.123 C 10.002,14.439 9.573,15.964 8.525,16.953 C 7.346,18.069 5.515,17.984 4.608,16.929 C 2.647,14.647 5.091,11.037 8.049,11.933 L 9.632,10.001 C 9.823,9.642 10.255,9.251 9.514,8.969 L 6.388,9.002 C 5.914,10.029 4.805,10.734 3.605,10.755 C 0.066,10.817 0.111,6.084 3.352,5.675 C 4.578,5.52 5.962,5.938 6.453,7.313 C 8.455,7.305 9.656,7.037 11.576,6.744 C 14.261,4.876 15.873,3.75 20.558,1.291 L 20.558,1.291 z M 3.724,6.586 C 2.667,6.67 2.002,7.37 1.901,8.289 C 1.8,9.208 2.742,9.959 3.693,9.8 C 4.644,9.639 5.318,9.047 5.548,8.223 C 5.778,7.401 4.781,6.5 3.724,6.586 L 3.724,6.586 z M 5.496,13.434 C 4.601,14.318 4.43,15.373 5.232,16.188 C 6.035,17.003 7.124,16.917 8.019,16.034 C 8.915,15.151 8.894,14.223 8.284,13.376 C 7.672,12.53 6.392,12.552 5.496,13.434 z"
   id="path7"
   style="fill:#e6e6e6;fill-rule:evenodd" />
			<path
   d="M 20.125,0 L 14.899,4.944 L 22.439,3.772 C 19.995,5.116 15.78,6.692 12.149,7.804 C 10.587,9.125 9.914,10.149 8.368,11.945 C 9.235,13.359 8.854,15.064 7.776,16.078 C 6.684,17.104 4.804,17.131 3.81,15.93 C 2.118,13.539 3.94,10.315 7.287,10.925 L 8.912,8.943 C 9.108,8.574 9.605,7.985 8.844,7.696 L 5.609,7.673 C 5.123,8.728 3.958,9.597 2.726,9.569 C -0.952,9.483 -0.779,5.174 2.467,4.611 C 3.654,4.405 4.968,4.588 5.599,6.165 C 7.736,6.077 8.938,5.898 10.908,5.599 C 13.662,3.679 15.316,2.525 20.125,0 L 20.125,0 z M 2.669,4.894 C 1.768,4.992 1.027,5.499 0.676,6.171 C 0.42,6.548 0.293,6.991 0.343,7.452 C 0.468,8.604 1.658,9.418 3,9.271 C 4.34,9.126 5.326,8.073 5.2,6.922 C 5.198,6.899 5.195,6.876 5.192,6.854 C 5.349,7.09 5.372,7.137 5.326,6.712 C 5.2,5.561 4.01,4.747 2.669,4.894 L 2.669,4.894 z M 4.402,11.942 C 3.683,12.561 3.365,13.521 3.494,14.371 C 3.511,14.896 3.698,15.396 4.064,15.782 C 4.952,16.719 6.557,16.637 7.648,15.603 C 8.739,14.568 8.454,12.969 7.566,12.034 C 7.55,12.017 7.986,12.004 7.97,11.987 C 7.967,11.986 7.992,11.963 7.986,11.764 C 7.979,11.566 5.483,11.011 4.402,11.942 z"
   id="path9"
   style="fill-rule:evenodd" />
			<path
   d="M 2.669,4.893 C 4.01,4.746 5.2,5.561 5.326,6.712 C 5.451,7.863 5.064,5.543 2.873,5.37 C 0.682,5.195 0.593,8.393 0.468,7.242 C 0.342,6.091 1.328,5.039 2.669,4.893 z"
   id="path11"
   style="fill:#b3b3b3;fill-rule:evenodd" />
			<linearGradient
   x1="21.9746"
   y1="4.5098"
   x2="5.0664001"
   y2="7.7964001"
   id="XMLID_16_"
   gradientUnits="userSpaceOnUse">
				<stop
   id="stop14"
   style="stop-color:#999999;stop-opacity:1"
   offset="0" />
				<stop
   id="stop16"
   style="stop-color:#4d4d4d;stop-opacity:1"
   offset="1" />
				<a:midPointStop
   style="stop-color:#999999"
   offset="0" />
				<a:midPointStop
   style="stop-color:#999999"
   offset="0.5" />
				<a:midPointStop
   style="stop-color:#4D4D4D"
   offset="1" />
			</linearGradient>
			<path
   d="M 4.708,7.444 L 8.473,7.412 C 9.133,7.466 9.53,7.741 9.662,8.237 C 13.621,7.171 17.459,5.825 21.154,4.142 C 17.675,4.759 14.197,5.374 10.719,5.991 C 8.891,6.387 6.789,6.508 4.609,6.552 L 4.708,7.444 z"
   id="path18"
   style="fill:url(#XMLID_16_);fill-rule:evenodd" />
			<linearGradient
   x1="-0.4443"
   y1="20.7603"
   x2="18.836901"
   y2="-1.4202"
   id="XMLID_17_"
   gradientUnits="userSpaceOnUse">
				<stop
   id="stop21"
   style="stop-color:#b3b3b3;stop-opacity:1"
   offset="0" />
				<stop
   id="stop23"
   style="stop-color:#7f7f7f;stop-opacity:1"
   offset="1" />
				<a:midPointStop
   style="stop-color:#B3B3B3"
   offset="0" />
				<a:midPointStop
   style="stop-color:#B3B3B3"
   offset="0.5" />
				<a:midPointStop
   style="stop-color:#7F7F7F"
   offset="1" />
			</linearGradient>
			<path
   d="M 7.031,11.792 L 9.383,8.661 C 9.741,8.104 9.567,7.556 9.254,7.149 C 12.511,4.659 15.85,2.566 19.335,0.463 L 11.68,7.679 C 10.252,8.887 9.073,10.612 7.711,12.314 L 7.031,11.792 z"
   id="path25"
   style="fill:url(#XMLID_17_);fill-rule:evenodd" />
			<circle
   cx="11.208"
   cy="6.947"
   r="0.50999999"
   id="circle27"
   style="fill:#e6e6e6;fill-rule:evenodd" /> 
			<radialGradient
   cx="11.0625"
   cy="6.8164001"
   r="0.76050001"
   fx="11.0625"
   fy="6.8164001"
   id="XMLID_18_"
   gradientUnits="userSpaceOnUse">
				<stop
   id="stop30"
   style="stop-color:#cccccc;stop-opacity:1"
   offset="0" />
				<stop
   id="stop32"
   style="stop-color:#000000;stop-opacity:1"
   offset="1" />
				<a:midPointStop
   style="stop-color:#CCCCCC"
   offset="0" />
				<a:midPointStop
   style="stop-color:#CCCCCC"
   offset="0.5" />
				<a:midPointStop
   style="stop-color:#000000"
   offset="1" />
			</radialGradient>
			<circle
   cx="11.208"
   cy="6.947"
   r="0.40700001"
   id="circle34"
   style="fill:url(#XMLID_18_);fill-rule:evenodd" /> 
			<path
   d="M 9.244,7.111 L 9.503,6.955 C 9.693,7.228 9.804,7.582 9.836,8.014 C 9.797,8.896 8.379,10.294 7.537,11.55 L 7.111,11.661 C 7.928,10.438 9.627,8.706 9.562,7.993 C 9.517,7.699 9.395,7.405 9.244,7.111 z"
   id="path36"
   style="fill:#7f7f7f;fill-rule:evenodd" />
			<path
   d="M 4.966,6.516 L 5.006,6.771 C 7.194,6.803 9.302,6.562 10.967,5.967 C 9.039,6.28 6.999,6.516 4.966,6.516 z"
   id="path38"
   style="fill:#b3b3b3;fill-rule:evenodd" />
			<path
   d="M 9.188,7.062 L 9.088,7.138 L 9.164,7.238 C 9.413,7.561 9.556,8.15 9.207,8.694 L 6.805,11.5 L 7.946,12.422 L 8.837,11.272 C 10.036,9.721 11.29,8.382 12.087,7.721 L 19.655,0.247 L 19.655,0.247 C 15.847,2.492 12.295,4.686 9.188,7.062 z M 19.136,0.65 C 17.761,1.947 11.63,7.721 11.63,7.721 C 10.651,8.549 9.785,9.779 8.701,11.182 C 8.701,11.182 8.03,11.909 7.902,12.073 C 7.782,11.981 7.133,11.449 7.014,11.357 C 7.178,11.138 7.082,11.602 9.273,8.85 C 9.423,8.617 9.589,8.362 9.622,8.116 C 9.68,7.678 9.415,7.208 9.415,7.208 C 12.288,4.876 14.971,2.849 19.136,0.65 z"
   id="path40"
   style="fill-rule:evenodd" />
			<path
   d="M 12.511,6.896 C 12.457,6.571 12.49,6.225 12.608,5.856 L 19.296,0.498 L 12.511,6.896 z"
   id="path42"
   style="fill:#666666;fill-rule:evenodd" />
			<linearGradient
   x1="10.3584"
   y1="8.3656998"
   x2="19.2707"
   y2="0.61839998"
   id="XMLID_19_"
   gradientUnits="userSpaceOnUse">
				<stop
   id="stop45"
   style="stop-color:#cccccc;stop-opacity:1"
   offset="0" />
				<stop
   id="stop47"
   style="stop-color:#e6e6e6;stop-opacity:1"
   offset="1" />
				<a:midPointStop
   style="stop-color:#CCCCCC"
   offset="0" />
				<a:midPointStop
   style="stop-color:#CCCCCC"
   offset="0.5" />
				<a:midPointStop
   style="stop-color:#E6E6E6"
   offset="1" />
			</linearGradient>
			<path
   d="M 12.663,6.736 C 12.663,6.411 12.653,6.196 12.776,5.889 L 19.069,0.678 L 12.663,6.736 z"
   id="path49"
   style="fill:url(#XMLID_19_);fill-rule:evenodd" />
			<path
   d="M 2.543,5.102 C 3.885,4.955 5.075,5.771 5.2,6.921 C 5.325,8.072 4.34,9.123 2.999,9.271 C 1.657,9.417 0.468,8.603 0.342,7.452 C 0.217,6.3 1.203,5.248 2.543,5.102 L 2.543,5.102 z M 2.602,5.632 C 1.602,5.741 0.867,6.525 0.96,7.383 C 1.054,8.241 1.941,8.849 2.94,8.739 C 3.94,8.63 4.675,7.846 4.581,6.988 C 4.488,6.131 3.602,5.523 2.602,5.632 z"
   id="path51"
   style="fill:#4d4d4d;fill-rule:evenodd" />
			<path
   d="M 2.59,5.627 C 3.595,5.517 4.487,6.128 4.581,6.99 C 4.675,7.852 3.936,8.642 2.931,8.75 C 1.926,8.861 1.035,8.25 0.94,7.386 C 0.846,6.525 1.585,5.736 2.59,5.627 L 2.59,5.627 z M 2.608,5.791 C 1.709,5.889 1.048,6.595 1.132,7.367 C 1.216,8.137 2.013,8.684 2.913,8.587 C 3.812,8.489 4.473,7.783 4.389,7.012 C 4.304,6.24 3.507,5.694 2.608,5.791 z"
   id="path53"
   style="fill-rule:evenodd" />
			<linearGradient
   x1="11.0112"
   y1="7.145"
   x2="11.4433"
   y2="6.7420998"
   id="XMLID_20_"
   gradientUnits="userSpaceOnUse">
				<stop
   id="stop56"
   style="stop-color:#666666;stop-opacity:1"
   offset="0" />
				<stop
   id="stop58"
   style="stop-color:#cccccc;stop-opacity:1"
   offset="0.34999999" />
				<stop
   id="stop60"
   style="stop-color:#cccccc;stop-opacity:1"
   offset="0.67000002" />
				<stop
   id="stop62"
   style="stop-color:#666666;stop-opacity:1"
   offset="1" />
				<a:midPointStop
   style="stop-color:#666666"
   offset="0" />
				<a:midPointStop
   style="stop-color:#666666"
   offset="0.5" />
				<a:midPointStop
   style="stop-color:#CCCCCC"
   offset="0.35" />
				<a:midPointStop
   style="stop-color:#CCCCCC"
   offset="0.5" />
				<a:midPointStop
   style="stop-color:#CCCCCC"
   offset="0.67" />
				<a:midPointStop
   style="stop-color:#CCCCCC"
   offset="0.5" />
				<a:midPointStop
   style="stop-color:#666666"
   offset="1" />
			</linearGradient>
			<polygon
   points="11.412,6.668 11.502,6.761 11.502,6.771 11.03,7.237 11.02,7.237 10.928,7.145 10.928,7.135 11.401,6.668 11.412,6.668 "
   id="polygon64"
   style="fill:url(#XMLID_20_);fill-rule:evenodd" />
			<g
   id="g66">
				<path
   d="M 3.884,12.405 C 4.712,11.199 6.529,10.64 7.389,11.29 C 8.248,11.94 6.08,10.787 4.457,12.557 C 2.834,14.328 5.58,16.735 4.455,16.04 C 3.329,15.344 3.058,13.611 3.884,12.405 z"
   id="path68"
   style="fill:#7f7f7f;fill-rule:evenodd" />
				<path
   d="M 3.984,12.666 C 4.795,11.354 6.364,10.855 7.488,11.55 C 8.613,12.245 8.869,13.872 8.059,15.184 C 7.248,16.495 5.679,16.996 4.554,16.298 C 3.429,15.603 3.174,13.977 3.984,12.666 L 3.984,12.666 z M 4.503,12.986 C 3.899,13.963 4.089,15.175 4.928,15.694 C 5.766,16.212 6.936,15.84 7.54,14.862 C 8.144,13.885 7.954,12.672 7.114,12.153 C 6.277,11.636 5.107,12.008 4.503,12.986 z"
   id="path70"
   style="fill:#b3b3b3;fill-rule:evenodd" />
				<path
   d="M 4.504,12.981 C 5.111,11.999 6.287,11.625 7.13,12.146 C 7.973,12.667 8.164,13.885 7.557,14.868 C 6.95,15.85 5.774,16.225 4.931,15.705 C 4.088,15.182 3.896,13.963 4.504,12.981 L 4.504,12.981 z M 4.665,13.081 C 4.123,13.959 4.293,15.051 5.047,15.517 C 5.801,15.982 6.853,15.648 7.396,14.769 C 7.938,13.891 7.768,12.8 7.014,12.334 C 6.26,11.867 5.208,12.202 4.665,13.081 z"
   id="path72"
   style="fill-rule:evenodd" />
			</g>
		</g>
	</svg>