<?xml version="1.0" encoding="UTF-8" standalone="no"?>
<!-- Created with Inkscape (http://www.inkscape.org/) -->
<svg
   xmlns:svg="http://www.w3.org/2000/svg"
   xmlns="http://www.w3.org/2000/svg"
   version="1.0"
   width="127"
   height="89"
   viewBox="0.024 -0.209 127 89"
   id="svg2"
   xml:space="preserve"
   style="overflow:visible"><defs
   id="defs232" />
	<g
   id="Layer_1_2_">
		<path
   d="M 115.704,34.934 C 111.894,38.341 55.221,89.032 55.221,89.032 L 73.423,88.293 L 126.727,40.524 L 126.727,33.419 L 115.2,28.61 L 115.704,34.934 z"
   id="path5"
   style="opacity:0.2" />
		<path
   d="M 57.52,3.822 C 57.367,4.758 56.681,6.889 55.544,7.503 L 55.544,7.503 C 53.776,8.459 51.343,8.849 48.766,9.263 C 44.717,9.912 40.128,10.649 36.505,13.867 C 35.715,14.569 35,15.493 34.332,16.607 C 33.584,16.28 30.529,24.301 30.009,26.186 C 26.629,26.218 21.801,27.256 17.79,32.002 C 16.078,34.028 14.713,37.04 13.269,40.229 C 12.155,42.688 11.003,45.23 9.878,46.777 C 7.656,49.832 5.604,50.918 5.583,50.928 L 0,53.822 C 0,53.822 1.706,54.578 3.325,55.296 C 2.586,55.957 1.82,56.643 1.82,56.643 C 1.82,56.643 1.954,56.702 1.963,56.705 C 1.957,56.711 0.854,57.697 0.854,57.697 L 0.854,65.271 L 55.221,89.031 C 55.221,89.031 80.805,66.148 84.615,62.741 C 84.695,62.814 84.745,62.905 84.827,62.977 C 88.886,66.559 99.84,70.056 101.076,70.444 L 111.821,72.381 C 111.821,72.381 102.464,63.999 101.175,62.85 C 103.559,62.562 114.946,60.445 114.946,60.445 C 114.946,60.445 98.789,54.226 95.962,52.591 C 100,48.979 115.703,34.934 115.703,34.934 L 115.703,27.36 C 115.703,27.36 110.957,25.286 108.844,24.363 C 108.849,24.239 108.853,24.122 108.853,24.071 C 108.853,24.067 108.979,21.511 108.979,21.511 L 58.148,0 L 57.52,3.822 z"
   id="path7" />
		<path
   d="M 61.898,7.126 L 112.704,29.322 L 54.657,81.241 L 3.854,59.039 L 61.898,7.126 z"
   id="path9"
   style="fill:#d9883d" />
		<linearGradient
   x1="65.067902"
   y1="36.088902"
   x2="77.288597"
   y2="26.4258"
   id="XMLID_1_"
   gradientUnits="userSpaceOnUse">
			<stop
   id="stop12"
   style="stop-color:#ffffff;stop-opacity:1"
   offset="0" />
			<stop
   id="stop14"
   style="stop-color:#cccccc;stop-opacity:1"
   offset="1" />
			<midPointStop
   id="midPointStop16"
   style="stop-color:#FFFFFF"
   offset="0" />
			<midPointStop
   id="midPointStop18"
   style="stop-color:#FFFFFF"
   offset="0.5" />
			<midPointStop
   id="midPointStop20"
   style="stop-color:#CCCCCC"
   offset="1" />
		</linearGradient>
		<path
   d="M 60.846,7.876 L 107.723,28.356 L 54.165,76.261 L 7.289,55.774 L 60.846,7.876 z"
   id="path22"
   style="fill:url(#XMLID_1_);stroke:#000000;stroke-linejoin:round" />
		<g
   id="g24">
			<linearGradient
   x1="65.641098"
   y1="35.742199"
   x2="80.703598"
   y2="19.2593"
   id="XMLID_2_"
   gradientUnits="userSpaceOnUse">
				<stop
   id="stop27"
   style="stop-color:#ffffff;stop-opacity:1"
   offset="0" />
				<stop
   id="stop29"
   style="stop-color:#cccccc;stop-opacity:1"
   offset="1" />
				<midPointStop
   id="midPointStop31"
   style="stop-color:#FFFFFF"
   offset="0" />
				<midPointStop
   id="midPointStop33"
   style="stop-color:#FFFFFF"
   offset="0.5" />
				<midPointStop
   id="midPointStop35"
   style="stop-color:#CCCCCC"
   offset="1" />
			</linearGradient>
			<path
   d="M 60.846,7.876 L 107.723,28.356 L 81.732,51.251 L 34.856,30.765 L 60.846,7.876 z"
   id="path37"
   style="fill:url(#XMLID_2_);stroke:#000000;stroke-linejoin:round" />
			<linearGradient
   x1="53.1035"
   y1="26.4604"
   x2="94.679901"
   y2="31.2817"
   id="XMLID_3_"
   gradientUnits="userSpaceOnUse">
				<stop
   id="stop40"
   style="stop-color:#ffffff;stop-opacity:1"
   offset="0" />
				<stop
   id="stop42"
   style="stop-color:#ffffff;stop-opacity:1"
   offset="0.0056" />
				<stop
   id="stop44"
   style="stop-color:#e7e7e7;stop-opacity:1"
   offset="0.3202" />
				<stop
   id="stop46"
   style="stop-color:#eaeaea;stop-opacity:1"
   offset="0.4339" />
				<stop
   id="stop48"
   style="stop-color:#ebeaea;stop-opacity:1"
   offset="0.57870001" />
				<stop
   id="stop50"
   style="stop-color:#e6e6e6;stop-opacity:1"
   offset="0.72659999" />
				<stop
   id="stop52"
   style="stop-color:#d9d9d9;stop-opacity:1"
   offset="0.89160001" />
				<stop
   id="stop54"
   style="stop-color:#cccccc;stop-opacity:1"
   offset="1" />
				<midPointStop
   id="midPointStop56"
   style="stop-color:#FFFFFF"
   offset="0" />
				<midPointStop
   id="midPointStop58"
   style="stop-color:#FFFFFF"
   offset="0.5" />
				<midPointStop
   id="midPointStop60"
   style="stop-color:#FFFFFF"
   offset="0.0056" />
				<midPointStop
   id="midPointStop62"
   style="stop-color:#FFFFFF"
   offset="0.5357" />
				<midPointStop
   id="midPointStop64"
   style="stop-color:#E7E7E7"
   offset="0.3202" />
				<midPointStop
   id="midPointStop66"
   style="stop-color:#E7E7E7"
   offset="0.3043" />
				<midPointStop
   id="midPointStop68"
   style="stop-color:#EBEAEA"
   offset="0.5787" />
				<midPointStop
   id="midPointStop70"
   style="stop-color:#EBEAEA"
   offset="0.6842" />
				<midPointStop
   id="midPointStop72"
   style="stop-color:#CCCCCC"
   offset="1" />
			</linearGradient>
			<path
   d="M 107.1,26.642 C 107.1,26.642 105.645,29.497 104.693,30.011 C 102.944,30.957 90.244,39.839 88.531,41.36 C 87.372,42.389 81.304,50.393 81.304,50.393 L 34.428,29.909 C 34.428,29.909 39.364,22.987 40.523,21.957 C 42.235,20.436 55.614,11.506 57.363,10.56 C 58.315,10.045 60.724,6.681 60.724,6.681 L 107.1,26.642 z"
   id="path74"
   style="fill:url(#XMLID_3_);stroke:#000000;stroke-linejoin:round" />
			<linearGradient
   x1="62.798302"
   y1="13.6748"
   x2="79.947701"
   y2="44.369099"
   id="XMLID_4_"
   gradientUnits="userSpaceOnUse">
				<stop
   id="stop77"
   style="stop-color:#ffffff;stop-opacity:1"
   offset="0" />
				<stop
   id="stop79"
   style="stop-color:#ffffff;stop-opacity:1"
   offset="0.0056" />
				<stop
   id="stop81"
   style="stop-color:#e0e1e0;stop-opacity:1"
   offset="0.30680001" />
				<stop
   id="stop83"
   style="stop-color:#dfe0df;stop-opacity:1"
   offset="0.3202" />
				<stop
   id="stop85"
   style="stop-color:#e7e8e7;stop-opacity:1"
   offset="0.3757" />
				<stop
   id="stop87"
   style="stop-color:#f1f1f0;stop-opacity:1"
   offset="0.4799" />
				<stop
   id="stop89"
   style="stop-color:#f6f6f5;stop-opacity:1"
   offset="0.57870001" />
				<stop
   id="stop91"
   style="stop-color:#f1f1f1;stop-opacity:1"
   offset="0.704" />
				<stop
   id="stop93"
   style="stop-color:#e4e4e3;stop-opacity:1"
   offset="0.84390002" />
				<stop
   id="stop95"
   style="stop-color:#cecece;stop-opacity:1"
   offset="0.99049997" />
				<stop
   id="stop97"
   style="stop-color:#cccccc;stop-opacity:1"
   offset="1" />
				<midPointStop
   id="midPointStop99"
   style="stop-color:#FFFFFF"
   offset="0" />
				<midPointStop
   id="midPointStop101"
   style="stop-color:#FFFFFF"
   offset="0.5" />
				<midPointStop
   id="midPointStop103"
   style="stop-color:#FFFFFF"
   offset="0.0056" />
				<midPointStop
   id="midPointStop105"
   style="stop-color:#FFFFFF"
   offset="0.5357" />
				<midPointStop
   id="midPointStop107"
   style="stop-color:#DFE0DF"
   offset="0.3202" />
				<midPointStop
   id="midPointStop109"
   style="stop-color:#DFE0DF"
   offset="0.3043" />
				<midPointStop
   id="midPointStop111"
   style="stop-color:#F6F6F5"
   offset="0.5787" />
				<midPointStop
   id="midPointStop113"
   style="stop-color:#F6F6F5"
   offset="0.6842" />
				<midPointStop
   id="midPointStop115"
   style="stop-color:#CCCCCC"
   offset="1" />
			</linearGradient>
			<path
   d="M 106.476,24.929 C 106.476,24.929 105.754,28.711 103.852,29.74 C 100.352,31.633 90.244,35.925 86.819,38.968 C 84.5,41.028 80.878,49.538 80.878,49.538 L 34,29.055 C 34,29.055 37.191,21.094 39.51,19.034 C 42.935,15.991 53.667,12.244 57.167,10.351 C 59.07,9.323 60.604,5.486 60.604,5.486 L 106.476,24.929 z"
   id="path117"
   style="fill:url(#XMLID_4_);stroke:#000000;stroke-linejoin:round" />
			<linearGradient
   x1="75.713402"
   y1="12.5347"
   x2="62.795101"
   y2="40.237999"
   id="XMLID_5_"
   gradientUnits="userSpaceOnUse">
				<stop
   id="stop120"
   style="stop-color:#ffffff;stop-opacity:1"
   offset="0.0056" />
				<stop
   id="stop122"
   style="stop-color:#e5e5e5;stop-opacity:1"
   offset="0.2146" />
				<stop
   id="stop124"
   style="stop-color:#d6d6d6;stop-opacity:1"
   offset="0.3202" />
				<stop
   id="stop126"
   style="stop-color:#d9d9d9;stop-opacity:1"
   offset="0.32960001" />
				<stop
   id="stop128"
   style="stop-color:#eeeeee;stop-opacity:1"
   offset="0.4154" />
				<stop
   id="stop130"
   style="stop-color:#fbfbfb;stop-opacity:1"
   offset="0.4993" />
				<stop
   id="stop132"
   style="stop-color:#ffffff;stop-opacity:1"
   offset="0.57870001" />
				<stop
   id="stop134"
   style="stop-color:#fafafa;stop-opacity:1"
   offset="0.69129997" />
				<stop
   id="stop136"
   style="stop-color:#ededed;stop-opacity:1"
   offset="0.81720001" />
				<stop
   id="stop138"
   style="stop-color:#d7d7d7;stop-opacity:1"
   offset="0.94889998" />
				<stop
   id="stop140"
   style="stop-color:#cccccc;stop-opacity:1"
   offset="1" />
				<midPointStop
   id="midPointStop142"
   style="stop-color:#FFFFFF"
   offset="0.0056" />
				<midPointStop
   id="midPointStop144"
   style="stop-color:#FFFFFF"
   offset="0.5357" />
				<midPointStop
   id="midPointStop146"
   style="stop-color:#D6D6D6"
   offset="0.3202" />
				<midPointStop
   id="midPointStop148"
   style="stop-color:#D6D6D6"
   offset="0.3043" />
				<midPointStop
   id="midPointStop150"
   style="stop-color:#FFFFFF"
   offset="0.5787" />
				<midPointStop
   id="midPointStop152"
   style="stop-color:#FFFFFF"
   offset="0.6842" />
				<midPointStop
   id="midPointStop154"
   style="stop-color:#CCCCCC"
   offset="1" />
			</linearGradient>
			<path
   d="M 33.572,28.2 C 33.572,28.2 35.019,19.2 38.498,16.11 C 43.636,11.546 51.722,12.981 56.971,10.142 C 59.825,8.599 60.483,4.29 60.483,4.29 L 105.853,23.214 C 105.853,23.214 105.865,27.923 103.01,29.466 C 97.761,32.305 90.243,32.008 85.106,36.572 C 81.627,39.662 80.45,48.679 80.45,48.679 L 33.572,28.2 z"
   id="path156"
   style="fill:url(#XMLID_5_);stroke:#000000;stroke-linejoin:round" />
		</g>
		<g
   id="g158">
			<linearGradient
   x1="40.2188"
   y1="57.5723"
   x2="93.7033"
   y2="7.4837999"
   id="XMLID_6_"
   gradientUnits="userSpaceOnUse">
				<stop
   id="stop161"
   style="stop-color:#ffffff;stop-opacity:1"
   offset="0" />
				<stop
   id="stop163"
   style="stop-color:#cccccc;stop-opacity:1"
   offset="1" />
				<midPointStop
   id="midPointStop165"
   style="stop-color:#FFFFFF"
   offset="0" />
				<midPointStop
   id="midPointStop167"
   style="stop-color:#FFFFFF"
   offset="0.5" />
				<midPointStop
   id="midPointStop169"
   style="stop-color:#CCCCCC"
   offset="1" />
			</linearGradient>
			<path
   d="M 34.983,30.327 L 81.86,50.806 L 55.834,74.086 L 9.846,53.785 L 34.983,30.327 z"
   id="path171"
   style="fill:url(#XMLID_6_);stroke:#000000;stroke-linejoin:round" />
			<linearGradient
   x1="44.783699"
   y1="52.609402"
   x2="74.726097"
   y2="15.9494"
   id="XMLID_7_"
   gradientUnits="userSpaceOnUse">
				<stop
   id="stop174"
   style="stop-color:#ffffff;stop-opacity:1"
   offset="0" />
				<stop
   id="stop176"
   style="stop-color:#cccccc;stop-opacity:1"
   offset="1" />
				<midPointStop
   id="midPointStop178"
   style="stop-color:#FFFFFF"
   offset="0" />
				<midPointStop
   id="midPointStop180"
   style="stop-color:#FFFFFF"
   offset="0.5" />
				<midPointStop
   id="midPointStop182"
   style="stop-color:#CCCCCC"
   offset="1" />
			</linearGradient>
			<path
   d="M 55.157,74.088 L 8.873,53.727 C 8.873,53.727 11.324,51.831 12.247,50.562 C 13.164,49.301 22.059,39.186 22.975,38.103 C 24.923,35.798 34.559,30.104 34.559,30.104 L 81.435,50.585 C 81.435,50.585 73.079,54.861 71.13,57.166 C 70.214,58.249 58.837,70.4 58.05,71.502 C 57.281,72.579 55.157,74.088 55.157,74.088 z"
   id="path184"
   style="fill:url(#XMLID_7_);stroke:#000000;stroke-linejoin:round" />
			<linearGradient
   x1="46.98"
   y1="47.910198"
   x2="60.2673"
   y2="26.314501"
   id="XMLID_8_"
   gradientUnits="userSpaceOnUse">
				<stop
   id="stop187"
   style="stop-color:#ffffff;stop-opacity:1"
   offset="0" />
				<stop
   id="stop189"
   style="stop-color:#cccccc;stop-opacity:1"
   offset="1" />
				<midPointStop
   id="midPointStop191"
   style="stop-color:#FFFFFF"
   offset="0" />
				<midPointStop
   id="midPointStop193"
   style="stop-color:#FFFFFF"
   offset="0.5" />
				<midPointStop
   id="midPointStop195"
   style="stop-color:#CCCCCC"
   offset="1" />
			</linearGradient>
			<path
   d="M 54.48,74.091 L 7.9,53.669 C 7.9,53.669 10.43,52.089 12.276,49.551 C 14.109,47.029 19.698,38.186 21.528,36.021 C 25.424,31.412 34.132,29.882 34.132,29.882 L 81.008,50.364 C 81.008,50.364 72.941,51.185 69.044,55.795 C 67.214,57.96 59.535,68.776 57.961,70.982 C 56.423,73.134 54.48,74.091 54.48,74.091 z"
   id="path197"
   style="fill:url(#XMLID_8_);stroke:#000000;stroke-linejoin:round" />
			<linearGradient
   x1="47.068401"
   y1="44.423801"
   x2="50.478901"
   y2="36.751301"
   id="XMLID_9_"
   gradientUnits="userSpaceOnUse">
				<stop
   id="stop200"
   style="stop-color:#ffffff;stop-opacity:1"
   offset="0" />
				<stop
   id="stop202"
   style="stop-color:#cccccc;stop-opacity:1"
   offset="1" />
				<midPointStop
   id="midPointStop204"
   style="stop-color:#FFFFFF"
   offset="0" />
				<midPointStop
   id="midPointStop206"
   style="stop-color:#FFFFFF"
   offset="0.5" />
				<midPointStop
   id="midPointStop208"
   style="stop-color:#CCCCCC"
   offset="1" />
			</linearGradient>
			<path
   d="M 53.803,74.093 C 53.803,74.093 55.564,73.689 57.871,70.458 C 60.232,67.151 64.213,57.669 66.958,54.421 C 72.803,47.507 80.582,50.142 80.582,50.142 L 33.706,29.659 C 33.706,29.659 25.927,27.024 20.082,33.939 C 17.337,37.187 15.056,44.757 12.305,48.541 C 9.536,52.348 6.927,53.611 6.927,53.611 L 53.803,74.093 z"
   id="path210"
   style="fill:url(#XMLID_9_);stroke:#000000;stroke-linejoin:round" />
		</g>
		<path
   d="M 54.657,85.511 L 112.704,33.592 L 112.704,29.322 L 54.657,81.241 L 54.657,85.511 z"
   id="path212"
   style="fill:#ac6a3d" />
		<path
   d="M 3.854,63.309 L 54.657,85.511 L 54.657,81.241 L 3.854,59.039 L 3.854,63.309 z"
   id="path214"
   style="fill:#e8a762" />
		<path
   d="M 33.84,19.822 L 31.481,28.373 L 32.214,30.371 L 71.617,47.213 C 71.742,47.259 78.417,49.661 80.592,52.775 C 81.31,53.802 81.772,54.8 82.26,55.856 C 83.101,57.673 83.97,59.552 86.151,61.478 C 89.963,64.842 101.198,68.385 101.674,68.535 L 102.639,66.835 C 102.639,66.835 98.587,63.221 96.542,61.397 C 99.413,61.049 105.812,60.275 105.812,60.275 L 105.916,58.307 C 105.823,58.286 96.645,56.156 93.184,53.1 C 90.922,51.105 89.191,48.367 87.663,45.951 L 85.952,43.332 C 83.411,39.692 76.364,37.158 76.065,37.052 C 76.064,37.049 35.207,19.174 35.207,19.174 L 34.149,18.711 L 33.84,19.822 z"
   id="path216" />
		<linearGradient
   x1="71.2183"
   y1="38.578098"
   x2="67.318802"
   y2="45.819099"
   id="XMLID_10_"
   gradientUnits="userSpaceOnUse">
			<stop
   id="stop219"
   style="stop-color:#ff0000;stop-opacity:1"
   offset="0" />
			<stop
   id="stop221"
   style="stop-color:#9d0000;stop-opacity:1"
   offset="1" />
			<midPointStop
   id="midPointStop223"
   style="stop-color:#FF0000"
   offset="0" />
			<midPointStop
   id="midPointStop225"
   style="stop-color:#FF0000"
   offset="0.5" />
			<midPointStop
   id="midPointStop227"
   style="stop-color:#9D0000"
   offset="1" />
		</linearGradient>
		<path
   d="M 72.009,46.293 C 72.009,46.293 79.024,48.784 81.411,52.203 C 83.458,55.133 83.572,57.869 86.811,60.728 C 90.507,63.991 101.971,67.581 101.971,67.581 L 94.224,60.67 L 105.69,59.281 C 105.69,59.281 96.215,57.112 92.519,53.849 C 89.28,50.99 87.176,46.832 85.129,43.903 C 82.741,40.484 75.727,37.993 75.727,37.993 L 34.804,20.088 L 32.53,28.33 L 33.004,29.621 L 72.009,46.293 z"
   id="path229"
   style="fill:url(#XMLID_10_)" />
	</g>
</svg>