<?xml version="1.0" encoding="UTF-8" standalone="no"?>
<!-- Created with Inkscape (http://www.inkscape.org/) -->

<svg
   xmlns:dc="http://purl.org/dc/elements/1.1/"
   xmlns:cc="http://creativecommons.org/ns#"
   xmlns:rdf="http://www.w3.org/1999/02/22-rdf-syntax-ns#"
   xmlns:svg="http://www.w3.org/2000/svg"
   xmlns="http://www.w3.org/2000/svg"
   xmlns:xlink="http://www.w3.org/1999/xlink"
   version="1.1"
   width="128"
   height="128"
   viewBox="0 0 143.4048 106.07147"
   id="svg153"
   xml:space="preserve"
   style="overflow:visible">
  <defs
   id="defs194"><linearGradient
     x1="25.6"
     y1="71.550003"
     x2="30.129999"
     y2="50.189999"
     id="linearGradient3054"
     xlink:href="#gradient4"
     gradientUnits="userSpaceOnUse"
     gradientTransform="matrix(1.3204289,0,0,1.3204289,-1.1854018,-35.682139)" /><linearGradient
     x1="45.82"
     y1="95.849998"
     x2="33.529999"
     y2="100.88"
     id="linearGradient3050"
     xlink:href="#gradient5"
     gradientUnits="userSpaceOnUse"
     gradientTransform="matrix(1.3204289,0,0,1.3204289,-1.1854018,-35.682139)" /><linearGradient
     x1="50.259998"
     y1="74.32"
     x2="69.660004"
     y2="66.150002"
     id="linearGradient3045"
     xlink:href="#gradient6"
     gradientUnits="userSpaceOnUse"
     gradientTransform="matrix(1.3204289,0,0,1.3204289,-1.1854018,-35.682139)" /><linearGradient
     x1="15.1"
     y1="50.259998"
     x2="54.73"
     y2="82.849998"
     id="linearGradient3040"
     xlink:href="#gradient7"
     gradientUnits="userSpaceOnUse"
     gradientTransform="matrix(1.3204289,0,0,1.3204289,-1.1854018,-35.682139)" /><linearGradient
     x1="57.709999"
     y1="68.089996"
     x2="64.550003"
     y2="67.5"
     id="linearGradient3032"
     xlink:href="#gradient8"
     gradientUnits="userSpaceOnUse"
     gradientTransform="matrix(1.3204289,0,0,1.3204289,-1.1854018,-25.682139)" /><linearGradient
     x1="54.939999"
     y1="56.860001"
     x2="60.139999"
     y2="58.189999"
     id="linearGradient3029"
     xlink:href="#gradient9"
     gradientUnits="userSpaceOnUse"
     gradientTransform="matrix(1.3204289,0,0,1.3204289,-1.1854018,-25.682139)" /><linearGradient
     x1="34.369999"
     y1="57.360001"
     x2="40.689999"
     y2="55.470001"
     id="linearGradient3026"
     xlink:href="#gradient10"
     gradientUnits="userSpaceOnUse"
     gradientTransform="matrix(1.3204289,0,0,1.3204289,-1.1854018,-25.682139)" /><linearGradient
     x1="38.869999"
     y1="42.52"
     x2="60.139999"
     y2="47.959999"
     id="linearGradient3023"
     xlink:href="#gradient11"
     gradientUnits="userSpaceOnUse"
     gradientTransform="matrix(1.3204289,0,0,1.3204289,-1.1854018,-25.682139)" /><linearGradient
     x1="50.580002"
     y1="58.240002"
     x2="38.740002"
     y2="64.379997"
     id="linearGradient3020"
     xlink:href="#gradient12"
     gradientUnits="userSpaceOnUse"
     gradientTransform="matrix(1.3204289,0,0,1.3204289,-1.1854018,-25.682139)" /><linearGradient
     x1="50.580002"
     y1="58.240002"
     x2="38.740002"
     y2="64.379997"
     id="gradient12"
     gradientUnits="userSpaceOnUse"><stop
       id="stop143"
       style="stop-color:#f8fa97;stop-opacity:1"
       offset="0" /><stop
       id="stop145"
       style="stop-color:#f9fb82;stop-opacity:1"
       offset="0.17470001" /><stop
       id="stop147"
       style="stop-color:#fbfc4d;stop-opacity:1"
       offset="0.53469998" /><stop
       id="stop149"
       style="stop-color:#ffff00;stop-opacity:1"
       offset="1" /></linearGradient><linearGradient
     x1="38.869999"
     y1="42.52"
     x2="60.139999"
     y2="47.959999"
     id="gradient11"
     gradientUnits="userSpaceOnUse"><stop
       id="stop134"
       style="stop-color:#e6b800;stop-opacity:1"
       offset="0" /><stop
       id="stop136"
       style="stop-color:#edcd00;stop-opacity:1"
       offset="0.33770001" /><stop
       id="stop138"
       style="stop-color:#ffff00;stop-opacity:1"
       offset="1" /></linearGradient><linearGradient
     x1="34.369999"
     y1="57.360001"
     x2="40.689999"
     y2="55.470001"
     id="gradient10"
     gradientUnits="userSpaceOnUse"><stop
       id="stop123"
       style="stop-color:#d4ac00;stop-opacity:1"
       offset="0" /><stop
       id="stop125"
       style="stop-color:#dfc100;stop-opacity:1"
       offset="0.29460001" /><stop
       id="stop127"
       style="stop-color:#faf500;stop-opacity:1"
       offset="0.89850003" /><stop
       id="stop129"
       style="stop-color:#ffff00;stop-opacity:1"
       offset="1" /></linearGradient><linearGradient
     x1="54.939999"
     y1="56.860001"
     x2="60.139999"
     y2="58.189999"
     id="gradient9"
     gradientUnits="userSpaceOnUse"><stop
       id="stop112"
       style="stop-color:#dcac00;stop-opacity:1"
       offset="0" /><stop
       id="stop114"
       style="stop-color:#e5c100;stop-opacity:1"
       offset="0.29460001" /><stop
       id="stop116"
       style="stop-color:#fbf500;stop-opacity:1"
       offset="0.89850003" /><stop
       id="stop118"
       style="stop-color:#ffff00;stop-opacity:1"
       offset="1" /></linearGradient><linearGradient
     x1="57.709999"
     y1="68.089996"
     x2="64.550003"
     y2="67.5"
     id="gradient8"
     gradientUnits="userSpaceOnUse"><stop
       id="stop101"
       style="stop-color:#d4ac00;stop-opacity:1"
       offset="0" /><stop
       id="stop103"
       style="stop-color:#dfc100;stop-opacity:1"
       offset="0.29460001" /><stop
       id="stop105"
       style="stop-color:#faf500;stop-opacity:1"
       offset="0.89850003" /><stop
       id="stop107"
       style="stop-color:#ffff00;stop-opacity:1"
       offset="1" /></linearGradient><linearGradient
     x1="15.1"
     y1="50.259998"
     x2="54.73"
     y2="82.849998"
     id="gradient7"
     gradientUnits="userSpaceOnUse"><stop
       id="stop84"
       style="stop-color:#f0b481;stop-opacity:1"
       offset="0" /><stop
       id="stop86"
       style="stop-color:#936331;stop-opacity:1"
       offset="1" /></linearGradient><linearGradient
     x1="50.259998"
     y1="74.32"
     x2="69.660004"
     y2="66.150002"
     id="gradient6"
     gradientUnits="userSpaceOnUse"><stop
       id="stop73"
       style="stop-color:#eba76e;stop-opacity:1"
       offset="0" /><stop
       id="stop75"
       style="stop-color:#cd9363;stop-opacity:1"
       offset="1" /></linearGradient><linearGradient
     x1="45.82"
     y1="95.849998"
     x2="33.529999"
     y2="100.88"
     id="gradient5"
     gradientUnits="userSpaceOnUse"><stop
       id="stop62"
       style="stop-color:#eba76e;stop-opacity:1"
       offset="0" /><stop
       id="stop64"
       style="stop-color:#cd9363;stop-opacity:1"
       offset="1" /></linearGradient><linearGradient
     x1="25.6"
     y1="71.550003"
     x2="30.129999"
     y2="50.189999"
     id="gradient4"
     gradientUnits="userSpaceOnUse"><stop
       id="stop53"
       style="stop-color:#eba76e;stop-opacity:1"
       offset="0" /><stop
       id="stop55"
       style="stop-color:#cd9363;stop-opacity:1"
       offset="1" /></linearGradient><linearGradient
     x1="32.310001"
     y1="24.110001"
     x2="70.730003"
     y2="55.09"
     id="gradient3"
     gradientUnits="userSpaceOnUse"><stop
       id="stop42"
       style="stop-color:#ffffff;stop-opacity:1"
       offset="0" /><stop
       id="stop44"
       style="stop-color:#f1c779;stop-opacity:1"
       offset="1" /></linearGradient><linearGradient
     x1="72.400002"
     y1="21.23"
     x2="68.379997"
     y2="47.09"
     id="gradient2"
     gradientUnits="userSpaceOnUse"><stop
       id="stop27"
       style="stop-color:#ffffff;stop-opacity:1"
       offset="0" /><stop
       id="stop29"
       style="stop-color:#eaeb49;stop-opacity:1"
       offset="0.648" /><stop
       id="stop31"
       style="stop-color:#e8e847;stop-opacity:1"
       offset="0.80690002" /><stop
       id="stop33"
       style="stop-color:#e0de42;stop-opacity:1"
       offset="0.92540002" /><stop
       id="stop35"
       style="stop-color:#d7d43d;stop-opacity:1"
       offset="1" /></linearGradient><linearGradient
     x1="76.18"
     y1="44.380001"
     x2="79.260002"
     y2="30.15"
     id="gradient1"
     gradientUnits="userSpaceOnUse"><stop
       id="stop20"
       style="stop-color:#a68b54;stop-opacity:1"
       offset="0" /><stop
       id="stop22"
       style="stop-color:#f1c779;stop-opacity:1"
       offset="1" /></linearGradient><linearGradient
     x1="46.34"
     y1="42.790001"
     x2="107.4"
     y2="42.790001"
     id="gradient0"
     gradientUnits="userSpaceOnUse"><stop
       id="stop13"
       style="stop-color:#ffffff;stop-opacity:1"
       offset="0" /><stop
       id="stop15"
       style="stop-color:#f1c779;stop-opacity:1"
       offset="1" /></linearGradient><linearGradient
     x1="25.6"
     y1="71.550003"
     x2="30.129999"
     y2="50.189999"
     id="linearGradient3254"
     xlink:href="#gradient4"
     gradientUnits="userSpaceOnUse"
     gradientTransform="matrix(1.3204289,0,0,1.3204289,-1.1854018,-35.682139)" /><linearGradient
     x1="45.82"
     y1="95.849998"
     x2="33.529999"
     y2="100.88"
     id="linearGradient3256"
     xlink:href="#gradient5"
     gradientUnits="userSpaceOnUse"
     gradientTransform="matrix(1.3204289,0,0,1.3204289,-1.1854018,-35.682139)" /><linearGradient
     x1="50.259998"
     y1="74.32"
     x2="69.660004"
     y2="66.150002"
     id="linearGradient3258"
     xlink:href="#gradient6"
     gradientUnits="userSpaceOnUse"
     gradientTransform="matrix(1.3204289,0,0,1.3204289,-1.1854018,-35.682139)" /><linearGradient
     x1="15.1"
     y1="50.259998"
     x2="54.73"
     y2="82.849998"
     id="linearGradient3260"
     xlink:href="#gradient7"
     gradientUnits="userSpaceOnUse"
     gradientTransform="matrix(1.3204289,0,0,1.3204289,-1.1854018,-35.682139)" /><linearGradient
     x1="57.709999"
     y1="68.089996"
     x2="64.550003"
     y2="67.5"
     id="linearGradient3262"
     xlink:href="#gradient8"
     gradientUnits="userSpaceOnUse"
     gradientTransform="matrix(1.3204289,0,0,1.3204289,-1.1854018,-25.682139)" /><linearGradient
     x1="54.939999"
     y1="56.860001"
     x2="60.139999"
     y2="58.189999"
     id="linearGradient3264"
     xlink:href="#gradient9"
     gradientUnits="userSpaceOnUse"
     gradientTransform="matrix(1.3204289,0,0,1.3204289,-1.1854018,-25.682139)" /><linearGradient
     x1="34.369999"
     y1="57.360001"
     x2="40.689999"
     y2="55.470001"
     id="linearGradient3266"
     xlink:href="#gradient10"
     gradientUnits="userSpaceOnUse"
     gradientTransform="matrix(1.3204289,0,0,1.3204289,-1.1854018,-25.682139)" /><linearGradient
     x1="38.869999"
     y1="42.52"
     x2="60.139999"
     y2="47.959999"
     id="linearGradient3268"
     xlink:href="#gradient11"
     gradientUnits="userSpaceOnUse"
     gradientTransform="matrix(1.3204289,0,0,1.3204289,-1.1854018,-25.682139)" /><linearGradient
     x1="50.580002"
     y1="58.240002"
     x2="38.740002"
     y2="64.379997"
     id="linearGradient3270"
     xlink:href="#gradient12"
     gradientUnits="userSpaceOnUse"
     gradientTransform="matrix(1.3204289,0,0,1.3204289,-1.1854018,-25.682139)" /><linearGradient
     x1="-375.43311"
     y1="104.5449"
     x2="-356.30731"
     y2="73.170799"
     id="linearGradient3272"
     xlink:href="#XMLID_1_-3"
     gradientUnits="userSpaceOnUse"
     gradientTransform="matrix(0.4828,0.721,0.7677,-0.514,140.0518,339.5116)" /><linearGradient
     x1="-375.43311"
     y1="104.5449"
     x2="-356.30731"
     y2="73.170799"
     id="linearGradient3274"
     xlink:href="#XMLID_2_-7"
     gradientUnits="userSpaceOnUse"
     gradientTransform="matrix(0.4828,0.721,0.7677,-0.514,140.0518,339.5116)" /><linearGradient
     x1="-313.0947"
     y1="225.81149"
     x2="-292.30981"
     y2="191.71581"
     id="linearGradient3276"
     xlink:href="#XMLID_3_-4"
     gradientUnits="userSpaceOnUse"
     gradientTransform="matrix(0.702,0.51,0.543,-0.7475,130.3028,333.4989)" /><linearGradient
     x1="-200.60941"
     y1="423.32129"
     x2="-202.1694"
     y2="387.44009"
     id="linearGradient3278"
     xlink:href="#XMLID_4_"
     gradientUnits="userSpaceOnUse"
     gradientTransform="matrix(1,0,0,-1,232.9102,421.3594)" /><linearGradient
     x1="50.580002"
     y1="58.240002"
     x2="38.740002"
     y2="64.379997"
     id="linearGradient3309"
     xlink:href="#gradient12"
     gradientUnits="userSpaceOnUse"
     gradientTransform="matrix(1.4793425,0,0,1.4793425,-141.90198,-61.00782)" /><linearGradient
     x1="38.869999"
     y1="42.52"
     x2="60.139999"
     y2="47.959999"
     id="linearGradient3312"
     xlink:href="#gradient11"
     gradientUnits="userSpaceOnUse"
     gradientTransform="matrix(1.4793425,0,0,1.4793425,-141.90198,-61.00782)" /><linearGradient
     x1="34.369999"
     y1="57.360001"
     x2="40.689999"
     y2="55.470001"
     id="linearGradient3315"
     xlink:href="#gradient10"
     gradientUnits="userSpaceOnUse"
     gradientTransform="matrix(1.4793425,0,0,1.4793425,-141.90198,-61.00782)" /><linearGradient
     x1="54.939999"
     y1="56.860001"
     x2="60.139999"
     y2="58.189999"
     id="linearGradient3318"
     xlink:href="#gradient9"
     gradientUnits="userSpaceOnUse"
     gradientTransform="matrix(1.4793425,0,0,1.4793425,-141.90198,-61.00782)" /><linearGradient
     x1="57.709999"
     y1="68.089996"
     x2="64.550003"
     y2="67.5"
     id="linearGradient3321"
     xlink:href="#gradient8"
     gradientUnits="userSpaceOnUse"
     gradientTransform="matrix(1.4793425,0,0,1.4793425,-141.90198,-61.00782)" /><linearGradient
     x1="15.1"
     y1="50.259998"
     x2="54.73"
     y2="82.849998"
     id="linearGradient3329"
     xlink:href="#gradient7"
     gradientUnits="userSpaceOnUse"
     gradientTransform="matrix(1.4793425,0,0,1.4793425,-141.90198,-72.21132)" /><linearGradient
     x1="50.259998"
     y1="74.32"
     x2="69.660004"
     y2="66.150002"
     id="linearGradient3333"
     xlink:href="#gradient6"
     gradientUnits="userSpaceOnUse"
     gradientTransform="matrix(1.4793425,0,0,1.4793425,-141.90198,-72.21132)" /><linearGradient
     x1="45.82"
     y1="95.849998"
     x2="33.529999"
     y2="100.88"
     id="linearGradient3338"
     xlink:href="#gradient5"
     gradientUnits="userSpaceOnUse"
     gradientTransform="matrix(1.4793425,0,0,1.4793425,-141.90198,-72.21132)" /><linearGradient
     x1="25.6"
     y1="71.550003"
     x2="30.129999"
     y2="50.189999"
     id="linearGradient3342"
     xlink:href="#gradient4"
     gradientUnits="userSpaceOnUse"
     gradientTransform="matrix(1.4793425,0,0,1.4793425,-141.90198,-72.21132)" /><linearGradient
     x1="-226.6675"
     y1="412.64209"
     x2="-179.7346"
     y2="385.54541"
     id="linearGradient3123"
     xlink:href="#XMLID_1_"
     gradientUnits="userSpaceOnUse"
     gradientTransform="matrix(1,0,0,-1,266.42597,360.34449)" /><linearGradient
     x1="-209.2612"
     y1="397.82669"
     x2="-193.2562"
     y2="404.686"
     id="linearGradient3125"
     xlink:href="#XMLID_2_"
     gradientUnits="userSpaceOnUse"
     gradientTransform="matrix(1,0,0,-1,266.42597,360.34449)" /><linearGradient
     x1="-187.7012"
     y1="401.4097"
     x2="-225.0033"
     y2="397.9664"
     id="linearGradient3127"
     xlink:href="#XMLID_3_"
     gradientUnits="userSpaceOnUse"
     gradientTransform="matrix(1,0,0,-1,266.42597,360.34449)" /></defs>
  
  <metadata
   id="metadata154">
    <sfw
   id="sfw6">
      <slices
   id="slices8" />
      <sliceSourceBounds
   id="sliceSourceBounds10"
   bottomLeftOrigin="true"
   height="49.721"
   width="67.221"
   x="262.89"
   y="394.64" />
    </sfw>
  <rdf:RDF><cc:Work
     rdf:about=""><dc:format>image/svg+xml</dc:format><dc:type
       rdf:resource="http://purl.org/dc/dcmitype/StillImage" /><dc:title></dc:title></cc:Work></rdf:RDF></metadata>
  <g
   transform="translate(0,76.1838)"
   id="Layer_1"
   style="stroke:#000000">
    <g
   id="Layer_1_2_">
      
      
      
      <linearGradient
   x1="-226.6675"
   y1="412.64209"
   x2="-179.7346"
   y2="385.54541"
   id="XMLID_1_"
   gradientUnits="userSpaceOnUse"
   gradientTransform="matrix(1,0,0,-1,266.42597,360.34449)">
        <stop
   id="stop161"
   style="stop-color:#e6e6fa;stop-opacity:1"
   offset="0" />
        <stop
   id="stop162"
   style="stop-color:#ffffff;stop-opacity:1"
   offset="0.42460001" />
        <stop
   id="stop163"
   style="stop-color:#adadd2;stop-opacity:1"
   offset="0.49720001" />
        <stop
   id="stop164"
   style="stop-color:#ebebff;stop-opacity:1"
   offset="0.84920001" />
      </linearGradient>
      
      <linearGradient
   x1="-209.2612"
   y1="397.82669"
   x2="-193.2562"
   y2="404.686"
   id="XMLID_2_"
   gradientUnits="userSpaceOnUse"
   gradientTransform="matrix(1,0,0,-1,266.42597,360.34449)">
        <stop
   id="stop174"
   style="stop-color:#ffffff;stop-opacity:1"
   offset="0" />
        <stop
   id="stop175"
   style="stop-color:#ccccf5;stop-opacity:1"
   offset="1" />
      </linearGradient>
      
      
      <linearGradient
   x1="-187.7012"
   y1="401.4097"
   x2="-225.0033"
   y2="397.9664"
   id="XMLID_3_"
   gradientUnits="userSpaceOnUse"
   gradientTransform="matrix(1,0,0,-1,266.42597,360.34449)">
        <stop
   id="stop182"
   style="stop-color:#ffffff;stop-opacity:1"
   offset="0" />
        <stop
   id="stop183"
   style="stop-color:#6a77b8;stop-opacity:1"
   offset="1" />
      </linearGradient>
      <g
   transform="matrix(1.9874105,0,0,2.5082557,-56.741539,73.963136)"
   id="g3114"><path
     d="m 37.619367,-41.525012 c 0,-12.234 13.573,-22.151 30.318,-22.151 16.745,0 30.318,9.917 30.318,22.151 0,12.234 -13.574,22.151 -30.318,22.151 -16.744,0 -30.318,-9.917 -30.318,-22.151 z m 30.318,5.075 c 3.836,0 6.945,-2.272 6.945,-5.075 0,-2.804 -3.109,-5.076 -6.945,-5.076 -3.836,0 -6.947,2.272 -6.947,5.076 10e-4,2.803 3.111,5.075 6.947,5.075 z"
     id="path157"
     style="opacity:0.2;stroke:none" /><path
     d="m 31.035367,-39.512012 c 0,11.621 13.847,21.075 30.868,21.075 17.019,0 30.868,-9.454 30.868,-21.075 0,-11.621 -13.849,-21.076 -30.868,-21.076 -17.021,-10e-4 -30.868,9.454 -30.868,21.076 z m 3.393,0 c 0,-9.777 12.325,-17.73 27.475,-17.73 15.15,0 27.475,7.953 27.475,17.73 0,9.776 -12.325,17.73 -27.475,17.73 -15.151,0 -27.475,-7.954 -27.475,-17.73 z"
     id="path158"
     style="stroke:none" /><path
     d="m 33.071367,-39.512012 c 0,-10.739 12.908,-19.445 28.832,-19.445 15.923,0 28.832,8.705 28.832,19.445 0,10.739 -12.908,19.444 -28.832,19.444 -15.924,0 -28.832,-8.706 -28.832,-19.444 z m 28.832,4.394 c 3.386,0 6.131,-1.968 6.131,-4.395 0,-2.427 -2.745,-4.394 -6.131,-4.394 -3.387,0 -6.132,1.967 -6.132,4.394 -10e-4,2.427 2.745,4.395 6.132,4.395 z"
     id="path159"
     style="fill:#d9d9d9;stroke:none" /><path
     d="m 33.071367,-39.512012 c 0,-10.739 12.908,-19.445 28.832,-19.445 15.923,0 28.832,8.705 28.832,19.445 0,10.739 -12.908,19.444 -28.832,19.444 -15.924,0 -28.832,-8.706 -28.832,-19.444 z m 28.832,4.394 c 3.386,0 6.131,-1.968 6.131,-4.395 0,-2.427 -2.745,-4.394 -6.131,-4.394 -3.387,0 -6.132,1.967 -6.132,4.394 -10e-4,2.427 2.745,4.395 6.132,4.395 z"
     id="path172"
     style="fill:url(#linearGradient3123);stroke:none" /><path
     d="m 49.772367,-39.512012 c 0,-4.519 5.431,-8.181 12.131,-8.181 6.699,0 12.13,3.662 12.13,8.181 0,4.519 -5.432,8.181 -12.13,8.181 -6.701,-10e-4 -12.131,-3.664 -12.131,-8.181 z m 12.131,4.442 c 3.518,0 6.37,-2.027 6.37,-4.526 0,-2.5 -2.853,-4.526 -6.37,-4.526 -3.518,0 -6.37,2.026 -6.37,4.526 0,2.499 2.852,4.526 6.37,4.526 z"
     id="path179"
     style="fill:url(#linearGradient3125);stroke:none" /><path
     d="m 55.784367,-39.512012 c 0,-2.453 2.739,-4.442 6.119,-4.442 3.379,0 6.119,1.989 6.119,4.442 0,2.453 -2.739,4.442 -6.119,4.442 -3.38,0 -6.119,-1.989 -6.119,-4.442 z"
     id="path180"
     style="fill:none;stroke-width:2" /><path
     d="m 49.217367,-39.512012 c 0,4.813 5.691,8.729 12.686,8.729 6.995,0 12.686,-3.916 12.686,-8.729 0,-4.813 -5.691,-8.729 -12.686,-8.729 -6.995,0 -12.686,3.916 -12.686,8.729 z m 1.148,0 c 0,-4.18 5.176,-7.581 11.539,-7.581 6.363,0 11.538,3.401 11.538,7.581 0,4.181 -5.176,7.581 -11.538,7.581 -6.362,0 -11.539,-3.402 -11.539,-7.581 z"
     id="path187"
     style="fill:url(#linearGradient3127);stroke:none" /></g>
      
      
      
    
</g>
  </g>
</svg>