<?xml version="1.0" encoding="UTF-8" standalone="no"?>
<!-- Created with Sodipodi ("http://www.sodipodi.com/") -->
<svg
   xmlns:dc="http://purl.org/dc/elements/1.1/"
   xmlns:cc="http://creativecommons.org/ns#"
   xmlns:rdf="http://www.w3.org/1999/02/22-rdf-syntax-ns#"
   xmlns:svg="http://www.w3.org/2000/svg"
   xmlns="http://www.w3.org/2000/svg"
   xmlns:xlink="http://www.w3.org/1999/xlink"
   xmlns:sodipodi="http://sodipodi.sourceforge.net/DTD/sodipodi-0.dtd"
   xmlns:inkscape="http://www.inkscape.org/namespaces/inkscape"
   width="48pt"
   height="48pt"
   viewBox="0 0 158.373 139.039"
   overflow="visible"
   enable-background="new 0 0 158.373 139.039"
   xml:space="preserve"
   id="svg153"
   sodipodi:version="0.32"
   sodipodi:docname="edit-find-replace.svg"
   sodipodi:docbase="/home/cschalle/gnome-themes-extras/Wasp/icons/scalable/stock"
   inkscape:version="0.46"
   inkscape:output_extension="org.inkscape.output.svg.inkscape"><metadata
   id="metadata99"><rdf:RDF><cc:Work
       rdf:about=""><dc:format>image/svg+xml</dc:format><dc:type
         rdf:resource="http://purl.org/dc/dcmitype/StillImage" /></cc:Work></rdf:RDF></metadata>
  <defs
   id="defs315"><inkscape:perspective
   sodipodi:type="inkscape:persp3d"
   inkscape:vp_x="0 : 30 : 1"
   inkscape:vp_y="0 : 1000 : 0"
   inkscape:vp_z="60 : 30 : 1"
   inkscape:persp3d-origin="30 : 20 : 1"
   id="perspective101" /><inkscape:perspective
   id="perspective2577"
   inkscape:persp3d-origin="30 : 18.75 : 1"
   inkscape:vp_z="60 : 28.125 : 1"
   inkscape:vp_y="0 : 1000 : 0"
   inkscape:vp_x="0 : 28.125 : 1"
   sodipodi:type="inkscape:persp3d" /><linearGradient
   inkscape:collect="always"
   xlink:href="#XMLID_3_"
   id="linearGradient2690"
   gradientUnits="userSpaceOnUse"
   gradientTransform="matrix(0.702,0.51,0.543,-0.7475,71.8123,340.4085)"
   x1="-265.0688"
   y1="257.3594"
   x2="-249.0802"
   y2="231.1314" />
    
  <linearGradient
   inkscape:collect="always"
   xlink:href="#XMLID_1_"
   id="linearGradient2790"
   gradientUnits="userSpaceOnUse"
   gradientTransform="matrix(0.4828,0.721,0.7677,-0.514,50.3329,346.1161)"
   x1="-324.7451"
   y1="177.7949"
   x2="-310.0333"
   y2="153.6615" /><linearGradient
   inkscape:collect="always"
   xlink:href="#XMLID_1_"
   id="linearGradient2792"
   gradientUnits="userSpaceOnUse"
   gradientTransform="matrix(0.4828,0.721,0.7677,-0.514,50.3329,346.1161)"
   x1="-324.7451"
   y1="177.7949"
   x2="-310.0333"
   y2="153.6615" /><linearGradient
   inkscape:collect="always"
   xlink:href="#XMLID_3_"
   id="linearGradient2794"
   gradientUnits="userSpaceOnUse"
   gradientTransform="matrix(0.702,0.51,0.543,-0.7475,71.8123,340.4085)"
   x1="-265.0688"
   y1="257.3594"
   x2="-249.0802"
   y2="231.1314" /><linearGradient
   inkscape:collect="always"
   xlink:href="#XMLID_3_"
   id="linearGradient2796"
   gradientUnits="userSpaceOnUse"
   gradientTransform="matrix(0.702,0.51,0.543,-0.7475,71.8123,340.4085)"
   x1="-265.0688"
   y1="257.3594"
   x2="-249.0802"
   y2="231.1314" /><linearGradient
   inkscape:collect="always"
   xlink:href="#XMLID_5_"
   id="linearGradient2798"
   gradientUnits="userSpaceOnUse"
   gradientTransform="matrix(1,0,0,-1,232.9102,407.9512)"
   x1="-206.5859"
   y1="394.667"
   x2="-217.3597"
   y2="383.8932" /><linearGradient
   inkscape:collect="always"
   xlink:href="#XMLID_9_"
   id="linearGradient2806"
   gradientUnits="userSpaceOnUse"
   gradientTransform="matrix(1,0,0,-1,232.9102,407.9512)"
   x1="-196.8564"
   y1="382.28909"
   x2="-201.84669"
   y2="378.1304" /><linearGradient
   inkscape:collect="always"
   xlink:href="#XMLID_10_"
   id="linearGradient2808"
   gradientUnits="userSpaceOnUse"
   gradientTransform="matrix(1,0,0,-1,232.9102,407.9512)"
   x1="-209.79539"
   y1="383.4541"
   x2="-206.6615"
   y2="379.64801" /><linearGradient
   inkscape:collect="always"
   xlink:href="#XMLID_11_"
   id="linearGradient2810"
   gradientUnits="userSpaceOnUse"
   gradientTransform="matrix(1,0,0,-1,232.9102,407.9512)"
   x1="-202.1787"
   y1="393.5264"
   x2="-203.2431"
   y2="394.66669" /><linearGradient
   inkscape:collect="always"
   xlink:href="#XMLID_12_"
   id="linearGradient2812"
   gradientUnits="userSpaceOnUse"
   gradientTransform="matrix(1,0,0,-1,232.9102,407.9512)"
   x1="-200.11819"
   y1="390.5498"
   x2="-201.3344"
   y2="391.76599" /><linearGradient
   inkscape:collect="always"
   xlink:href="#XMLID_13_"
   id="linearGradient2814"
   gradientUnits="userSpaceOnUse"
   gradientTransform="matrix(1,0,0,-1,232.9102,407.9512)"
   x1="-193.3008"
   y1="405.5527"
   x2="-188.93671"
   y2="400.5466" /><linearGradient
   inkscape:collect="always"
   xlink:href="#XMLID_15_"
   id="linearGradient2818"
   gradientUnits="userSpaceOnUse"
   gradientTransform="matrix(1,0,0,-1,232.9102,407.9512)"
   x1="-190.4854"
   y1="403.82809"
   x2="-185.8945"
   y2="403.44559" />
      
      
      
      
      
      
      
      <linearGradient
   gradientTransform="matrix(1,0,0,-1,232.9102,407.9512)"
   y2="378.02939"
   x2="-217.89751"
   y1="387.4473"
   x1="-207.7251"
   gradientUnits="userSpaceOnUse"
   id="XMLID_6_">
        <stop
   id="stop188"
   style="stop-color:#D8DAA1"
   offset="0" />
        <stop
   id="stop189"
   style="stop-color:#5C5C3A"
   offset="1" />
      </linearGradient>
      
      <linearGradient
   gradientTransform="matrix(1,0,0,-1,232.9102,407.9512)"
   y2="375.52469"
   x2="-215.6445"
   y1="384.91309"
   x1="-205.50391"
   gradientUnits="userSpaceOnUse"
   id="linearGradient2608">
        <stop
   id="stop195"
   style="stop-color:#D8DAA1"
   offset="0" />
        <stop
   id="stop196"
   style="stop-color:#5C5C3A"
   offset="1" />
      </linearGradient>
      
      <linearGradient
   gradientTransform="matrix(1,0,0,-1,232.9102,407.9512)"
   y2="376.46649"
   x2="-209.48"
   y1="383.29199"
   x1="-200.31931"
   gradientUnits="userSpaceOnUse"
   id="XMLID_8_">
        <stop
   id="stop202"
   style="stop-color:#D8DAA1"
   offset="0" />
        <stop
   id="stop203"
   style="stop-color:#5C5C3A"
   offset="1" />
      </linearGradient>
      
      
      
      
      
      
      
      
      
      
      
      
      
      
      <linearGradient
   gradientTransform="matrix(1,0,0,-1,232.9102,407.9512)"
   y2="376.08051"
   x2="-201.166"
   y1="380.88089"
   x1="-201.166"
   gradientUnits="userSpaceOnUse"
   id="XMLID_14_">
        <stop
   id="stop287"
   style="stop-color:#FFFFFF"
   offset="0" />
        <stop
   id="stop288"
   style="stop-color:#000000"
   offset="1" />
      </linearGradient>
      
      
      
      
    <linearGradient
   inkscape:collect="always"
   xlink:href="#XMLID_14_"
   id="linearGradient2842"
   gradientUnits="userSpaceOnUse"
   gradientTransform="matrix(-2.3419348,0,0,-2.3419348,-414.71249,969.9074)"
   x1="-201.166"
   y1="380.88089"
   x2="-201.166"
   y2="376.08051" /><linearGradient
   inkscape:collect="always"
   xlink:href="#XMLID_8_"
   id="linearGradient2890"
   gradientUnits="userSpaceOnUse"
   gradientTransform="matrix(-2.3419348,0,0,-2.3419348,-414.71249,969.9074)"
   x1="-200.31931"
   y1="383.29199"
   x2="-209.48"
   y2="376.46649" /><linearGradient
   inkscape:collect="always"
   xlink:href="#XMLID_7_"
   id="linearGradient2893"
   gradientUnits="userSpaceOnUse"
   gradientTransform="matrix(-2.3419348,0,0,-2.3419348,-411.6202,1247.8384)"
   x1="-202.0098"
   y1="414.8174"
   x2="-104.291"
   y2="414.8174" /><linearGradient
   inkscape:collect="always"
   xlink:href="#XMLID_6_"
   id="linearGradient2896"
   gradientUnits="userSpaceOnUse"
   gradientTransform="matrix(-2.3419348,0,0,-2.3419348,-414.71249,969.9074)"
   x1="-207.7251"
   y1="387.4473"
   x2="-217.8975"
   y2="378.0294" /></defs>
  <sodipodi:namedview
   id="base"
   showgrid="false"
   inkscape:zoom="7.7333333"
   inkscape:cx="34.495859"
   inkscape:cy="26.551596"
   inkscape:window-width="1270"
   inkscape:window-height="772"
   inkscape:window-x="0"
   inkscape:window-y="0"
   inkscape:current-layer="svg153" />
  <g
   id="Layer_1_2_"
   style="font-size:12;stroke:#000000;">
    <path
   stroke="none"
   d="M123.369,63.183c3.147-4.85,1.901-11.425-2.785-14.684c-4.686-3.258-9.479-2.061-14.183,2.882     l26.385-27.482c4.224-4.676,9.499-6.14,14.184-2.881c4.686,3.261,5.931,9.834,2.783,14.684L123.369,63.183z"
   id="path246" />
    <path
   stroke="none"
   d="M131.312,22.474c0.041-0.045-26.342,27.435-26.342,27.435s-0.004,0.004-0.007,0.006l2.867,2.936     l0.006-0.006c5.492-5.771,9.264-4.257,11.624-2.615c3.755,2.612,4.757,7.9,2.233,11.789l3.104,2.632l26.52-27.623l0.107-0.165     c3.762-5.798,2.268-13.684-3.334-17.58C142.827,15.623,136.397,16.844,131.312,22.474z M134.215,25.37     c1.815-2.01,6.496-6.191,11.629-2.621c2.355,1.639,3.627,4.326,3.627,7.063c0,1.594-0.445,3.195-1.344,4.625     c-0.314,0.324-14.552,15.154-21.112,21.987c-0.254-3.768-2.05-7.393-5.308-9.657c-1.615-1.125-3.646-2.023-5.978-2.146     C123.486,36.544,134.215,25.37,134.215,25.37z"
   id="path247" />
    <path
   fill="#CCCCCC"
   stroke="none"
   d="M98.028,59.354l8.176-8.067c3.666-4.367,9.694-6.046,14.38-2.788     c4.685,3.258,5.933,9.834,2.785,14.684l-4.368,5.144"
   id="path248" />
    <path
   stroke="none"
   d="M104.685,49.917l0.13-0.141l-8.176,8.067l2.781,3.021l8.247-8.135l0.062-0.076     c2.789-3.32,7.712-5.221,11.733-2.422c2.354,1.636,3.627,4.326,3.627,7.063c0,1.61-0.447,3.23-1.363,4.667     c-0.25,0.295-4.236,4.988-4.236,4.988l3.027,2.756l4.454-5.245l0.073-0.112c3.763-5.798,2.268-13.683-3.333-17.58     C116.446,43.107,109.287,44.431,104.685,49.917z"
   id="path249" />
    <g
   id="g250">
      <path
   fill="#3D3D3D"
   stroke="none"
   d="M113.989,45.782l5.273,1.349l25.315-26.188c0,0-1.025-0.861-2.262-1.169      c-1.396-0.349-3.019-0.145-3.019-0.145L113.989,45.782z"
   id="path251" />
      <path
   fill="#717171"
   stroke="none"
   d="M142.394,19.857c-0.347-0.086-1.045-0.222-1.371-0.232      c-0.546-0.018-1.008,0.073-1.008,0.073l-24.989,25.788l0.847,0.275l3.263,0.495l24.669-25.517      C143.804,20.739,143.22,20.063,142.394,19.857z"
   id="path252" />
      <path
   fill="#A5A5A5"
   stroke="none"
   d="M142.473,19.94c-0.174-0.043-1.02-0.261-1.183-0.266      c-0.272-0.009-0.558,0.093-0.558,0.093l-24.668,25.422l0.915,0.353l2.027-0.162l24.022-24.846      C143.029,20.534,142.885,20.044,142.473,19.94z"
   id="path253" />
      <path
   fill="#D9D9D9"
   stroke="none"
   d="M117.101,44.893l0.987,0.43l24.462-25.299l-0.991-0.3L117.101,44.893z"
   id="path254" />
    </g>
    <path
   fill="#FFFFFF"
   stroke-width="4"
   d="M29.58,86.577c0,16.298,21.004,28.588,48.859,28.588s48.859-12.29,48.859-28.588     c0-16.301-21.005-28.59-48.859-28.59C50.584,57.986,29.58,70.276,29.58,86.577z"
   id="path255" />
    <path
   adobe-blending-mode="multiply"
   opacity="0.2"
   stroke="none"
   d="M78.519,136.937c5.153,1.023,9.763,0.833,15.665,0.833     c27.855,0,48.86-17.1,48.86-33.4c0-9.167-6.769-19.282-17.647-26.377c1.438,4.913,2.369,7.481,2.059,9.725c-0.311,2.248,0,0,0,0     v20.555C126.011,125.853,105.464,137.096,78.519,136.937z"
   id="path256" />
    <g
   id="g257">
      <linearGradient
   id="XMLID_7_"
   gradientUnits="userSpaceOnUse"
   x1="-202.0098"
   y1="414.8174"
   x2="-104.291"
   y2="414.8174"
   gradientTransform="matrix(1 0 0 -1 231.5898 526.627)">
        <stop
   offset="0.0056"
   style="stop-color:#9494BB"
   id="stop259" />
        <stop
   offset="0.1026"
   style="stop-color:#9898BE"
   id="stop260" />
        <stop
   offset="0.2035"
   style="stop-color:#A5A5C6"
   id="stop261" />
        <stop
   offset="0.3064"
   style="stop-color:#BABAD3"
   id="stop262" />
        <stop
   offset="0.4105"
   style="stop-color:#D7D7E5"
   id="stop263" />
        <stop
   offset="0.5147"
   style="stop-color:#FCFCFD"
   id="stop264" />
        <stop
   offset="0.5225"
   style="stop-color:#FFFFFF"
   id="stop265" />
        <stop
   offset="0.5631"
   style="stop-color:#EBEBF2"
   id="stop266" />
        <stop
   offset="0.6398"
   style="stop-color:#CCCCDE"
   id="stop267" />
        <stop
   offset="0.7198"
   style="stop-color:#B3B3CF"
   id="stop268" />
        <stop
   offset="0.8035"
   style="stop-color:#A2A2C4"
   id="stop269" />
        <stop
   offset="0.8933"
   style="stop-color:#9797BD"
   id="stop270" />
        <stop
   offset="1"
   style="stop-color:#9494BB"
   id="stop271" />
      </linearGradient>
      <path
   fill="url(#XMLID_7_)"
   stroke="none"
   d="M29.58,108.453c0,16.298,21.004,28.589,48.859,28.589s48.859-12.291,48.859-28.589      V86.577c0,16.298-21.005,28.588-48.859,28.588c-27.855,0-48.859-12.29-48.859-28.588V108.453z"
   id="path297" />
      <path
   fill="none"
   stroke-width="4"
   d="M29.58,108.453c0,16.298,21.004,28.589,48.859,28.589s48.859-12.291,48.859-28.589V86.577      c0,16.298-21.005,28.588-48.859,28.588c-27.855,0-48.859-12.29-48.859-28.588V108.453z"
   id="path298" />
    </g>
    <g
   id="g299">
      <path
   fill="none"
   stroke-width="4"
   d="M78.439,67.338c-20.527,0-37.167,8.612-37.167,19.238c0,3.24,1.558,6.295,4.297,8.977      c4.718-7.818,18.82-13.496,35.482-13.496c14.26,0,26.637,4.159,32.869,10.258c1.094-1.812,1.685-3.741,1.685-5.741      C115.605,75.95,98.967,67.338,78.439,67.338z"
   id="path300" />
    </g>
    <path
   fill="none"
   stroke-width="4"
   d="M41.273,86.577c0-10.627,16.64-19.238,37.167-19.238c20.526,0,37.167,8.611,37.167,19.238     c0,10.624-16.641,19.236-37.167,19.236C57.912,105.813,41.273,97.201,41.273,86.577z"
   id="path301" />
    <g
   id="g302">
      <g
   opacity="0.39"
   id="g303">
        <path
   fill="#8C8CDF"
   stroke="none"
   d="M78.439,104.167c18.159,0,33.15-6.647,35.473-15.259       c-5.109-6.649-18.174-11.379-33.493-11.379c-18.161,0-33.15,6.647-35.472,15.259C50.057,99.438,63.12,104.167,78.439,104.167z"
   id="path304" />
      </g>
    </g>
    <g
   opacity="0.39"
   id="g305">
      <path
   fill="#8C8CDF"
   stroke="none"
   d="M42.644,86.577c0-9.716,16.025-17.592,35.797-17.592c19.771,0,35.797,7.875,35.797,17.592      c0,9.714-16.026,17.59-35.797,17.59C58.669,104.167,42.644,96.291,42.644,86.577z"
   id="path306" />
    </g>
    <path
   adobe-blending-mode="multiply"
   opacity="0.2"
   stroke="none"
   d="M124.003,74.248l34.37-35.788     c0,0-3.595-4.141-6.474-3.376l-32.646,33.291L124.003,74.248z"
   id="path307" />
    <path
   fill="#FFFFFF"
   stroke="none"
   d="M102.998,59.418l1.986,0.616l10.658-10.789c0,0-0.714-0.337-1.384-0.358     c-0.594-0.017-1.156,0.285-1.156,0.285L102.998,59.418z"
   id="path308" />
    <g
   id="g309">
      <path
   adobe-blending-mode="lighten"
   opacity="0.5"
   fill="#FFFFFF"
   stroke="none"
   d="M60.033,81.224      c1.987-3.098,5.119-4.567,6.996-3.275c1.877,1.287,1.789,4.846-0.197,7.944c-1.985,3.099-5.118,4.565-6.995,3.278      C57.958,87.881,58.047,84.322,60.033,81.224z"
   id="path310" />
      <path
   adobe-blending-mode="lighten"
   opacity="0.7"
   fill="#FFFFFF"
   stroke="none"
   d="M65.231,79.693      c1.505,0.644,1.919,2.896,0.926,5.033c-0.994,2.136-3.019,3.342-4.523,2.698c-1.505-0.645-1.919-2.898-0.926-5.034      C61.702,80.255,63.726,79.047,65.231,79.693z"
   id="path311" />
      <path
   adobe-blending-mode="lighten"
   opacity="0.9"
   fill="#FFFFFF"
   stroke="none"
   d="M61.384,83.559      c0-1.171,0.917-2.121,2.048-2.121s2.05,0.95,2.05,2.121c0,1.172-0.918,2.121-2.05,2.121S61.384,84.73,61.384,83.559z"
   id="path312" />
    </g>
    <path
   opacity="0.67"
   fill="#FFFFFF"
   stroke="none"
   d="M91.587,94.21c0,0,10.348-4.058,11.569-9.495     c1.223-5.435,2.381,0.278,2.069,1.346c-1.616,5.518-8.564,12.251-11.954,11.694C89.882,97.201,89.701,95.033,91.587,94.21z"
   id="path313" />
  </g>
  
<path
   id="path200"
   d="M 64.679684,63.292448 L 85.906981,85.430758 C 86.61893,86.154415 83.848421,87.962389 83.138814,87.243415 C 83.138814,87.243415 61.543834,64.173015 62.201917,63.397835 C 62.862343,62.620313 63.970078,62.573474 64.679684,63.292448 z"
   style="fill:url(#linearGradient2893);stroke:none" /><g
   style="stroke:#000000"
   id="g220"
   transform="matrix(-2.3419348,0,0,2.3419348,130.74801,14.512287)">
        <path
   id="path221"
   d="M 47.534,1.691 L 47.425,1.589 C 46.622,0.765 45.702,0.314 44.761,0.103 C 43.413,-0.287 42.124,-0.002 41.282,0.764 C 41.226,0.8 37.287,4.726 37.287,4.726 C 37.283,4.728 22.315,20.011 22.315,20.011 L 22.173,20.157 L 18.257,30.892 L 20.408,31.353 L 29.665,27.345 L 44.699,11.993 C 44.697,11.997 44.896,11.796 44.918,11.774 C 45.026,11.682 45.158,11.571 45.158,11.571 C 45.158,11.531 48.887,7.531 48.887,7.531 C 49.93,5.961 49.385,3.53 47.534,1.691 z"
   style="stroke:none" />
      </g><g
   style="stroke:#000000"
   id="g222"
   transform="matrix(-2.3419348,0,0,2.3419348,130.74801,14.512287)">
        <linearGradient
   gradientTransform="matrix(1,0,0,-1,232.9102,407.9512)"
   y2="379.64801"
   x2="-206.6615"
   y1="383.4541"
   x1="-209.79539"
   gradientUnits="userSpaceOnUse"
   id="XMLID_10_">
          <stop
   id="stop224"
   style="stop-color:#FFFFFA"
   offset="0" />
          <stop
   id="stop225"
   style="stop-color:#F49333"
   offset="1" />
        </linearGradient>
        <path
   id="path229"
   d="M 23.555,20.514 L 20.079,28.915 L 20.696,29.86 L 29.272,25.979 L 27.636,21.689 L 23.555,20.514 z"
   style="fill:url(#linearGradient2808);stroke:none" />
      </g><path
   id="path230"
   d="M 81.733654,76.327657 L 84.532266,82.231675 L 82.483073,85.653241 L 77.513487,83.074771 L 80.656364,79.856953 L 81.733654,76.327657 z"
   style="stroke:none" /><g
   style="stroke:#000000"
   id="g231"
   transform="matrix(-2.3419348,0,0,2.3419348,130.74801,14.512287)">
        <path
   id="path232"
   d="M 43.556,11.394 L 29.271,25.979 L 26.487,25.425 L 23.976,23.12 L 23.554,20.513 L 37.839,5.928 L 38.256,8.536 L 40.771,10.841 L 43.556,11.394 z"
   style="fill:#f49300;stroke:none" />
      </g><g
   style="stroke:#000000"
   id="g233"
   transform="matrix(-2.3419348,0,0,2.3419348,130.74801,14.512287)">
        <linearGradient
   gradientTransform="matrix(1,0,0,-1,232.9102,407.9512)"
   y2="394.66669"
   x2="-203.2431"
   y1="393.5264"
   x1="-202.1787"
   gradientUnits="userSpaceOnUse"
   id="XMLID_11_">
          <stop
   id="stop235"
   style="stop-color:#ECEB23"
   offset="0" />
          <stop
   id="stop236"
   style="stop-color:#F49333"
   offset="1" />
        </linearGradient>
        <path
   id="path240"
   d="M 23.891,23.207 L 23.555,20.514 L 37.839,5.928 L 38.256,8.536 L 23.891,23.207 z"
   style="fill:url(#linearGradient2810);stroke:none" />
      </g><g
   style="stroke:#000000"
   id="g241"
   transform="matrix(-2.3419348,0,0,2.3419348,130.74801,14.512287)">
        <linearGradient
   gradientTransform="matrix(1,0,0,-1,232.9102,407.9512)"
   y2="391.76599"
   x2="-201.3344"
   y1="390.5498"
   x1="-200.11819"
   gradientUnits="userSpaceOnUse"
   id="XMLID_12_">
          <stop
   id="stop243"
   style="stop-color:#ECEB23"
   offset="0" />
          <stop
   id="stop244"
   style="stop-color:#FFFCF7"
   offset="1" />
        </linearGradient>
        <path
   id="path2645"
   d="M 26.487,25.426 L 23.971,23.122 L 38.256,8.536 L 40.771,10.84 L 26.487,25.426 z"
   style="fill:url(#linearGradient2812);stroke:none" />
      </g><path
   id="path2647"
   d="M 41.822401,33.849644 L 74.930333,67.903718 L 67.860032,74.643806 L 33.916029,39.863732 L 41.19242,33.200928 L 41.822401,33.849644 z M 41.11982,35.807501 C 40.213492,36.636546 37.574131,39.055765 36.611596,39.936332 C 37.88795,41.238448 67.557922,71.533717 68.754651,72.753865 C 69.66098,71.92482 72.302682,69.505601 73.260533,68.625033 C 71.986521,67.322918 42.314207,37.027649 41.11982,35.807501 z"
   style="stroke:none" /><g
   style="stroke:#000000"
   id="g2649"
   transform="matrix(-2.3419348,0,0,2.3419348,130.74801,14.512287)">
        <linearGradient
   gradientTransform="matrix(1,0,0,-1,232.9102,407.9512)"
   y2="400.5466"
   x2="-188.93671"
   y1="405.5527"
   x1="-193.3008"
   gradientUnits="userSpaceOnUse"
   id="XMLID_13_">
          <stop
   id="stop252"
   style="stop-color:#FF9999"
   offset="0.0279" />
          <stop
   id="stop253"
   style="stop-color:#FF9F9F"
   offset="0.1116" />
          <stop
   id="stop254"
   style="stop-color:#FFB0B0"
   offset="0.2238" />
          <stop
   id="stop255"
   style="stop-color:#FFCCCC"
   offset="0.3523" />
          <stop
   id="stop256"
   style="stop-color:#FFF3F3"
   offset="0.4918" />
          <stop
   id="stop257"
   style="stop-color:#FFFFFF"
   offset="0.5307" />
          <stop
   id="stop258"
   style="stop-color:#FFE6E6"
   offset="0.6016" />
          <stop
   id="stop2659"
   style="stop-color:#FFC5C5"
   offset="0.7129" />
          <stop
   id="stop2661"
   style="stop-color:#FFACAC"
   offset="0.8192" />
          <stop
   id="stop2663"
   style="stop-color:#FF9E9E"
   offset="0.9175" />
          <stop
   id="stop2665"
   style="stop-color:#FF9999"
   offset="1" />
        </linearGradient>
        <path
   id="path284"
   d="M 46.624,2.644 C 46.587,2.607 46.549,2.575 46.511,2.539 C 45.806,1.814 45.107,1.454 44.473,1.317 C 43.518,1.031 42.615,1.143 42.048,1.713 C 42.042,1.718 42.038,1.725 42.032,1.731 C 41.963,1.772 41.925,1.8 41.925,1.8 L 37.773,5.997 L 37.848,8.177 L 40.706,10.91 L 43.49,11.463 L 47.642,7.266 C 47.642,7.266 47.687,7.18 47.743,7.028 C 48.528,5.973 48.064,4.075 46.624,2.644 z"
   style="fill:url(#linearGradient2814);stroke:none" />
      </g><path
   id="path285"
   d="M 76.283971,61.069952 C 76.789829,61.182365 77.108332,61.683539 76.995919,62.189397 L 75.447901,69.151969 L 69.166831,74.917812 L 61.815498,76.543115 C 61.30964,76.655528 60.810808,76.334683 60.698395,75.831167 C 60.682002,75.763251 60.677318,75.692993 60.677318,75.625077 C 60.677318,75.196503 60.972402,74.810083 61.410343,74.711722 C 61.410343,74.711722 67.810851,73.297193 68.26987,73.194148 C 68.604767,72.887355 73.356553,68.52433 73.745314,68.168356 C 73.862411,67.641421 75.166868,61.779558 75.166868,61.779558 C 75.279281,61.276042 75.780455,60.957539 76.283971,61.069952 z"
   style="stroke:none" /><path
   id="path293"
   d="M 42.035517,25.788703 C 44.9442,28.716122 42.925452,35.236069 39.246272,38.889487 C 36.674828,41.444538 33.079958,43.088576 30.093991,43.079209 C 28.515527,43.074525 27.211069,42.594428 26.314108,41.692783 C 25.951109,41.3251 25.951109,40.73259 26.321134,40.36959 C 26.686476,40.004248 27.278986,40.00659 27.644327,40.374274 C 28.323489,41.058119 29.351598,41.203319 30.098675,41.205661 C 32.578784,41.212687 35.724002,39.748977 37.927763,37.559268 C 41.208814,34.299295 42.70531,29.029942 40.803659,27.114238 C 40.438317,26.748896 40.349324,26.147019 40.714666,25.784019 C 41.077665,25.418677 41.672517,25.421019 42.035517,25.788703 z"
   style="stroke:none" /><g
   style="stroke:#000000"
   id="g294"
   transform="matrix(-2.3419348,0,0,2.3419348,130.74801,14.512287)">
        <linearGradient
   gradientTransform="matrix(1,0,0,-1,232.9102,407.9512)"
   y2="403.44559"
   x2="-185.8945"
   y1="403.82809"
   x1="-190.4854"
   gradientUnits="userSpaceOnUse"
   id="XMLID_15_">
          <stop
   id="stop296"
   style="stop-color:#FFFFFF"
   offset="0" />
          <stop
   id="stop297"
   style="stop-color:#FFEFEF"
   offset="0.2071" />
          <stop
   id="stop298"
   style="stop-color:#FFC7C7"
   offset="0.6077" />
          <stop
   id="stop299"
   style="stop-color:#FF9999"
   offset="1" />
        </linearGradient>
        <path
   id="path2680"
   d="M 43.262,6.016 C 41.754,4.513 41.283,2.541 42.209,1.612 C 43.136,0.683 45.108,1.148 46.616,2.652 C 48.124,4.155 48.595,6.127 47.669,7.056 C 46.742,7.984 44.77,7.519 43.262,6.016 z"
   style="fill:url(#linearGradient2818);stroke:none" />
      </g><path
   id="path2682"
   d="M 33.508532,17.266403 C 34.414861,18.177415 34.890274,19.477189 34.88559,21.029892 C 34.876222,23.887052 33.2275,27.364825 30.686501,29.891774 C 28.101005,32.460876 24.53658,34.114282 21.604478,34.104915 C 20.056459,34.100231 18.768395,33.622476 17.876117,32.725515 C 17.513117,32.357831 17.513117,31.765322 17.880801,31.402322 C 18.248485,31.039322 18.838653,31.039322 19.203994,31.407006 C 19.878472,32.086167 20.883162,32.229025 21.60682,32.233709 C 24.02838,32.240734 27.145495,30.767657 29.363308,28.563896 C 31.536623,26.404632 33.002674,23.374168 33.0097,21.02755 C 33.012042,20.299208 33.007358,19.13995 32.314145,18.444396 C 31.948804,18.076712 31.815313,17.629402 32.180655,17.266403 C 32.548339,16.896377 33.14319,16.898719 33.508532,17.266403 z"
   style="stroke:none" /></svg>