<?xml version="1.0" encoding="UTF-8" standalone="no"?>
<!-- Created with Inkscape (http://www.inkscape.org/) -->

<svg
   xmlns:svg="http://www.w3.org/2000/svg"
   xmlns="http://www.w3.org/2000/svg"
   xmlns:xlink="http://www.w3.org/1999/xlink"
   version="1.1"
   width="47.734001"
   height="48.431999"
   viewBox="0 0 47.734 48.432"
   id="svg2"
   xml:space="preserve"
   style="overflow:visible"><defs
   id="defs70"><radialGradient
     cx="0"
     cy="0"
     r="200"
     id="radialGradient3269"
     xlink:href="#gradient0"
     gradientUnits="userSpaceOnUse"
     gradientTransform="matrix(-0.0063,-0.2447,0.2447,-0.0063,64.3273,65.9999)" /></defs>
	
	<g
   id="Layer_1"
   style="stroke:#000000">
		<g
   id="Layer_1_2_">
			<path
   d="M 36.128,48.378 47.734,37.827 40.486,33.308 36.128,48.378 z"
   id="path14"
   style="opacity:0.2;stroke:none" />
			<path
   d="m 15.616,1.914 c 0,0 -0.132,0.67 -0.255,1.291 C 13.353,2.388 7.732,0.099 7.732,0.099 c 0,0 0.345,6.202 0.487,8.768 C 5.993,7.96 0,5.522 0,5.522 L 8.467,35.923 35.914,48.431 37.837,46.819 44.9,12.579 44.136,7.537 33.491,4.436 c 0,0 -1.7,1.113 -2.43,1.59 C 29.666,5.468 15.995,0 15.995,0 l -0.379,1.914 z"
   id="path16"
   style="stroke:none" />
			<g
   id="g18">
				<path
   d="M 43.255,12.535 42.69,8.803 33.753,6.201 31.242,7.844 17.205,2.229 16.569,5.445 9.49,2.564 9.978,11.332 2.446,8.266 l 7.38,26.5 25.494,11.741 -0.429,-2.829 1.771,0.817 6.593,-31.96 z"
   id="path20"
   style="stroke:none" />
			</g>
			<g
   id="g22">
				
					<linearGradient
   x1="-224.13429"
   y1="382.47751"
   x2="-192.0479"
   y2="382.47751"
   id="XMLID_1_"
   gradientUnits="userSpaceOnUse"
   gradientTransform="matrix(1,0,0,-1,235.3027,405.8398)">
					<stop
   id="stop25"
   style="stop-color:#ffffff;stop-opacity:1"
   offset="0" />
					<stop
   id="stop27"
   style="stop-color:#f1c779;stop-opacity:1"
   offset="1" />
					
					
					
				</linearGradient>
				<path
   d="M 36.662,44.496 11.168,32.755 17.205,2.229 31.242,7.844 33.753,6.2 l 8.937,2.602 0.565,3.732 -6.593,31.962 z"
   id="path29"
   style="fill:url(#XMLID_1_);stroke:none" />
			</g>
			<g
   id="g31">
				
					<linearGradient
   x1="-208.457"
   y1="381.5762"
   x2="-206.8315"
   y2="389.70349"
   id="XMLID_2_"
   gradientUnits="userSpaceOnUse"
   gradientTransform="matrix(1,0,0,-1,235.3027,405.8398)">
					<stop
   id="stop34"
   style="stop-color:#a68b54;stop-opacity:1"
   offset="0" />
					<stop
   id="stop36"
   style="stop-color:#f1c779;stop-opacity:1"
   offset="1" />
					
					
					
				</linearGradient>
				<path
   d="M 42.286,17.229 36.662,44.496 11.168,32.755 15.924,8.707 42.286,17.229 z"
   id="path38"
   style="fill:url(#XMLID_2_);stroke:none" />
			</g>
			<g
   id="g40">
				
					<linearGradient
   x1="-210.4424"
   y1="394.7988"
   x2="-212.55299"
   y2="380.02481"
   id="XMLID_3_"
   gradientUnits="userSpaceOnUse"
   gradientTransform="matrix(1,0,0,-1,235.3027,405.8398)">
					<stop
   id="stop43"
   style="stop-color:#ffffff;stop-opacity:1"
   offset="0" />
					<stop
   id="stop45"
   style="stop-color:#eaeb49;stop-opacity:1"
   offset="0.648" />
					<stop
   id="stop47"
   style="stop-color:#e8e847;stop-opacity:1"
   offset="0.80699998" />
					<stop
   id="stop49"
   style="stop-color:#e0de42;stop-opacity:1"
   offset="0.92549998" />
					<stop
   id="stop51"
   style="stop-color:#d7d43d;stop-opacity:1"
   offset="1" />
					
					
					
					
					
					
					
					
					
				</linearGradient>
				<path
   d="M 36.662,44.496 11.168,32.755 9.49,2.564 38.339,14.305 36.662,44.496 z"
   id="path53"
   style="fill:url(#XMLID_3_);stroke:none" />
			</g>
			<path
   d="m 16.56,5.435 c 0,0 20.538,8.491 21.22,8.774 -0.04,0.723 -1.499,28.36 -1.58,29.906 -0.438,-0.222 -0.885,-0.446 -0.885,-0.446 l -0.487,0.964 1.825,0.624 L 38.897,13.506 16.779,4.388 16.56,5.435 z"
   id="path55"
   style="fill:#808080;stroke:none" />
			<g
   id="g57">
				
					<linearGradient
   x1="-231.5103"
   y1="393.1572"
   x2="-211.32091"
   y2="375.45291"
   id="XMLID_4_"
   gradientUnits="userSpaceOnUse"
   gradientTransform="matrix(1,0,0,-1,235.3027,405.8398)">
					<stop
   id="stop60"
   style="stop-color:#ffffff;stop-opacity:1"
   offset="0" />
					<stop
   id="stop62"
   style="stop-color:#f1c779;stop-opacity:1"
   offset="1" />
					
					
					
				</linearGradient>
				<path
   d="M 35.319,46.508 9.826,34.767 l -7.38,-26.5 28.849,11.741 4.024,26.5 z"
   id="path64"
   style="fill:url(#XMLID_4_);stroke:none" />
			</g>
			<path
   d="m 2.639,8.928 c 0,0 27.61,11.237 28.168,11.464 0.09,0.593 3.943,25.878 3.943,25.878 L 35.914,46.759 31.783,19.622 2.25,7.595 2.639,8.928 z"
   id="path66"
   style="fill:#808080;stroke:none" />
		</g>
	</g>
<g
   transform="matrix(0.14270749,0,0,0.14270749,29.344579,0.33811745)"
   id="g2502"><path
     d="m 49.5,9.84 c 0,1.28 0,108 0,109.3 0,1.29 1.04,2.34 2.34,2.34 1.29,0 24.5,0 25.79,0 1.29,0 2.34,-1.05 2.34,-2.34 0,-1.29 0,-108.01 0,-109.3 0,-1.28 -1.05,-2.34 -2.34,-2.34 -1.29,0 -24.5,0 -25.79,0 -1.29,0 -2.34,1.05 -2.34,2.34 l 0,0 z m 69.62,39.57 c -1.29,0 -108,0.15 -109.29,0.15 -1.28,0 -2.34,1.04 -2.34,2.34 0,1.29 0.03,24.5 0.03,25.79 0,1.29 1.04,2.34 2.33,2.34 1.28,0 108.01,-0.15 109.3,-0.15 1.28,0 2.33,-1.05 2.33,-2.34 0,-1.29 -0.02,-24.5 -0.02,-25.79 0,-1.28 -1.05,-2.34 -2.34,-2.34 l 0,0 z"
     id="path2504"
     style="fill:none;stroke:#17450c;stroke-width:14.12899971;stroke-linecap:round" /><path
     d="m 49.5,9.84 c 0,1.28 0,108 0,109.3 0,1.29 1.04,2.34 2.34,2.34 1.29,0 24.5,0 25.79,0 1.29,0 2.34,-1.05 2.34,-2.34 0,-1.29 0,-108.01 0,-109.3 0,-1.28 -1.05,-2.34 -2.34,-2.34 -1.29,0 -24.5,0 -25.79,0 -1.29,0 -2.34,1.05 -2.34,2.34 l 0,0 z m 69.72,39.91 c -1.29,0 -108.01,-0.49 -109.3,-0.5 -1.28,0 -2.35,1.02 -2.35,2.33 0,1.28 -0.1,24.5 -0.1,25.79 0,1.29 1.02,2.35 2.32,2.35 1.28,0 108.01,0.48 109.29,0.5 1.29,0 2.35,-1.03 2.35,-2.33 0,-1.29 0.11,-24.51 0.11,-25.8 0,-1.28 -1.03,-2.34 -2.33,-2.34 l 0.01,0 z"
     id="path2506"
     style="fill:none;stroke:#7cb66e;stroke-width:4.83370018" /><radialGradient
     cx="0"
     cy="0"
     r="200"
     id="gradient0"
     gradientUnits="userSpaceOnUse"
     gradientTransform="matrix(-0.0063,-0.2447,0.2447,-0.0063,64.3273,65.9999)"><stop
       id="stop2509"
       style="stop-color:#55df36;stop-opacity:1"
       offset="0.60720003" /><stop
       id="stop2511"
       style="stop-color:#73fc54;stop-opacity:1"
       offset="0.98379999" /></radialGradient><path
     d="m 49.5,9.84 c 0,0.52 0,18.78 0,40.22 0,30.85 0,68.3 0,69.08 0,1.29 1.04,2.34 2.34,2.34 1.29,0 24.5,0 25.79,0 1.29,0 2.34,-1.05 2.34,-2.34 0,-1.29 0,-108.01 0,-109.3 0,-1.28 -1.05,-2.34 -2.34,-2.34 -1.29,0 -24.5,0 -25.79,0 -1.29,0 -2.34,1.05 -2.34,2.34 l 0,0 z m 69.72,39.91 c -1.29,0 -108.01,-0.49 -109.3,-0.5 -1.28,0 -2.35,1.02 -2.35,2.33 0,1.28 -0.1,24.5 -0.1,25.79 0,1.29 1.02,2.35 2.32,2.35 1.28,0 108.01,0.48 109.29,0.5 1.29,0 2.35,-1.03 2.35,-2.33 0,-1.29 0.11,-24.51 0.11,-25.8 0,-1.28 -1.03,-2.34 -2.33,-2.34 l 0.01,0 z"
     id="path2513"
     style="fill:url(#radialGradient3269);fill-rule:evenodd" /><path
     d="m 36.66,67.08 c 1.28,1.29 24.29,24.5 25.57,25.79 1.27,1.29 3.36,1.3 4.67,0.02 1.28,-1.27 24.58,-24.38 25.88,-25.66 1.28,-1.27 1.29,-3.36 0.01,-4.66 C 91.52,61.28 68.5,38.07 67.23,36.78 65.96,35.5 63.86,35.49 62.57,36.76 61.28,38.04 37.98,61.14 36.68,62.41 c -1.28,1.28 -1.29,3.37 -0.02,4.66 l 0,0.01 z"
     id="path2515"
     style="fill:#56e136" /></g></svg>