<?xml version="1.0" encoding="UTF-8" standalone="no"?>
<!-- Created with Inkscape (http://www.inkscape.org/) -->
<svg
   xmlns:dc="http://purl.org/dc/elements/1.1/"
   xmlns:cc="http://creativecommons.org/ns#"
   xmlns:rdf="http://www.w3.org/1999/02/22-rdf-syntax-ns#"
   xmlns:svg="http://www.w3.org/2000/svg"
   xmlns="http://www.w3.org/2000/svg"
   xmlns:sodipodi="http://sodipodi.sourceforge.net/DTD/sodipodi-0.dtd"
   xmlns:inkscape="http://www.inkscape.org/namespaces/inkscape"
   version="1.0"
   width="64"
   height="64"
   id="svg2"
   sodipodi:version="0.32"
   inkscape:version="0.46"
   sodipodi:docname="go-down.svg"
   inkscape:output_extension="org.inkscape.output.svg.inkscape">
  <metadata
     id="metadata19">
    <rdf:RDF>
      <cc:Work
         rdf:about="">
        <dc:format>image/svg+xml</dc:format>
        <dc:type
           rdf:resource="http://purl.org/dc/dcmitype/StillImage" />
      </cc:Work>
    </rdf:RDF>
  </metadata>
  <sodipodi:namedview
     inkscape:window-height="682"
     inkscape:window-width="640"
     inkscape:pageshadow="2"
     inkscape:pageopacity="0.0"
     guidetolerance="10.0"
     gridtolerance="10.0"
     objecttolerance="10.0"
     borderopacity="1.0"
     bordercolor="#666666"
     pagecolor="#ffffff"
     id="base"
     showgrid="false"
     inkscape:zoom="7.25"
     inkscape:cx="32"
     inkscape:cy="32"
     inkscape:window-x="0"
     inkscape:window-y="0"
     inkscape:current-layer="svg2" />
  <defs
     id="defs31">
    <inkscape:perspective
       sodipodi:type="inkscape:persp3d"
       inkscape:vp_x="0 : 32 : 1"
       inkscape:vp_y="0 : 1000 : 0"
       inkscape:vp_z="64 : 32 : 1"
       inkscape:persp3d-origin="32 : 21.333333 : 1"
       id="perspective21" />
  </defs>
  <g
     transform="matrix(-1.3390131,0,0,-1.3390131,73.341595,70.098455)"
     id="g4">
    <path
       d="M 30.99,13 L 45,27.99 L 38,27.99 L 38,43.99 L 24,43.99 L 24,27.99 L 17,27.99 L 30.99,13 z"
       transform="translate(3,1)"
       id="path6"
       style="fill:#010101;fill-opacity:0.29010004" />
    <path
       d="M 30.99,13 L 45,27.99 L 38,27.99 L 38,43.99 L 24,43.99 L 24,27.99 L 17,27.99 L 30.99,13 z"
       transform="translate(3,1)"
       id="path8"
       style="fill:#010101;fill-opacity:0.29010004" />
    <path
       d="M 30.99,13 L 45,27.99 L 38,27.99 L 38,43.99 L 24,43.99 L 24,27.99 L 17,27.99 L 30.99,13 z"
       transform="translate(3,1)"
       id="path10"
       style="fill:#010101;fill-opacity:0.29010004" />
    <path
       d="M 30.99,13 L 45,27.99 L 38,27.99 L 38,43.99 L 24,43.99 L 24,27.99 L 17,27.99 L 30.99,13 z"
       transform="translate(3,1)"
       id="path12"
       style="fill:#010101;fill-opacity:0.29010004" />
    <path
       d="M 30.99,13 L 45,27.99 L 38,27.99 L 38,43.99 L 24,43.99 L 24,27.99 L 17,27.99 L 30.99,13 z"
       id="path14"
       style="fill:none;stroke:#000000;stroke-width:4" />
    <linearGradient
       x1="38.700001"
       y1="-24.700001"
       x2="56.68"
       y2="-18.549999"
       id="gradient0"
       gradientUnits="userSpaceOnUse">
      <stop
         id="stop17"
         style="stop-color:#ffd789;stop-opacity:1"
         offset="0" />
      <stop
         id="stop19"
         style="stop-color:#e08606;stop-opacity:1"
         offset="1" />
    </linearGradient>
    <path
       d="M 30.99,13 L 45,27.99 L 38,27.99 L 38,43.99 L 24,43.99 L 24,27.99 L 17,27.99 L 30.99,13 z"
       id="path21"
       style="fill:url(#gradient0)" />
    <linearGradient
       x1="59.509998"
       y1="-20.74"
       x2="87.120003"
       y2="7.0100002"
       id="gradient1"
       gradientUnits="userSpaceOnUse">
      <stop
         id="stop24"
         style="stop-color:#ffbf44;stop-opacity:1"
         offset="0" />
      <stop
         id="stop26"
         style="stop-color:#ff9806;stop-opacity:1"
         offset="1" />
    </linearGradient>
    <path
       d="M 30.99,13 L 45,27.99 L 38,27.99 L 38,43.99 L 24,43.99 L 24,27.99 L 17,27.99 L 30.99,13 z"
       id="path28"
       style="fill:url(#gradient1)" />
  </g>
</svg>
