<?xml version="1.0" encoding="UTF-8" standalone="no"?>
<!-- Created with Inkscape (http://www.inkscape.org/) -->

<svg
   xmlns:svg="http://www.w3.org/2000/svg"
   xmlns="http://www.w3.org/2000/svg"
   version="1.1"
   width="123"
   height="127"
   id="svg2">
  <defs
     id="defs107" />
  <g
     id="g4">
    <path
       d="M 93.83,86.58 115.91,68.13 102.14,60.24 93.85,86.6 93.84,86.59 z"
       id="path6"
       style="fill:#000000;fill-opacity:0.2" />
    <path
       d="m 54.81,5.26 c 0,0 -0.25,1.16 -0.47,2.25 C 50.53,6.08 39.83,2.08 39.83,2.08 c 0,0 0.65,10.85 0.92,15.34 -4.23,-1.57 -15.63,-5.85 -15.63,-5.85 l 16.09,53.2 52.2,21.88 3.65,-2.81 L 110.49,23.91 109.05,15.1 88.8,9.68 c 0,0 -3.23,1.93 -4.62,2.77 C 81.53,11.48 55.53,1.92 55.53,1.92 l -0.72,3.34 0.01,0 z"
       id="path8"
       style="fill:#000000" />
    <path
       d="m 107.4,23.85 -1.06,-6.53 -17,-4.54 -4.77,2.86 -26.69,-9.81 -1.2,5.61 -13.45,-5.03 0.91,15.34 -14.31,-5.36 14.04,46.37 48.49,20.54 -0.81,-4.94 3.37,1.41 12.54,-55.93 -0.02,0.01 z"
       id="path10"
       style="fill:#000000" />
    <linearGradient
       x1="46.34"
       y1="42.790001"
       x2="107.4"
       y2="42.790001"
       id="gradient0"
       gradientUnits="userSpaceOnUse">
      <stop
         id="stop13"
         style="stop-color:#ffffff;stop-opacity:1"
         offset="0" />
      <stop
         id="stop15"
         style="stop-color:#f1c779;stop-opacity:1"
         offset="1" />
    </linearGradient>
    <path
       d="M 94.84,79.8 46.36,59.25 57.83,5.82 l 26.7,9.81 4.76,-2.86 17,4.54 1.06,6.53 -12.54,55.94 0.01,0.01 z"
       id="path17"
       style="fill:url(#gradient0)" />
    <linearGradient
       x1="76.18"
       y1="44.380001"
       x2="79.260002"
       y2="30.15"
       id="gradient1"
       gradientUnits="userSpaceOnUse">
      <stop
         id="stop20"
         style="stop-color:#a68b54;stop-opacity:1"
         offset="0" />
      <stop
         id="stop22"
         style="stop-color:#f1c779;stop-opacity:1"
         offset="1" />
    </linearGradient>
    <path
       d="M 105.55,32.06 94.86,79.78 46.37,59.24 l 9.04,-42.09 50.14,14.91 0,0 z"
       id="path24"
       style="fill:url(#gradient1)" />
    <linearGradient
       x1="72.400002"
       y1="21.23"
       x2="68.379997"
       y2="47.09"
       id="gradient2"
       gradientUnits="userSpaceOnUse">
      <stop
         id="stop27"
         style="stop-color:#ffffff;stop-opacity:1"
         offset="0" />
      <stop
         id="stop29"
         style="stop-color:#eaeb49;stop-opacity:1"
         offset="0.648" />
      <stop
         id="stop31"
         style="stop-color:#e8e847;stop-opacity:1"
         offset="0.80690002" />
      <stop
         id="stop33"
         style="stop-color:#e0de42;stop-opacity:1"
         offset="0.92540002" />
      <stop
         id="stop35"
         style="stop-color:#d7d43d;stop-opacity:1"
         offset="1" />
    </linearGradient>
    <path
       d="M 94.84,79.8 46.36,59.25 43.17,6.41 98.05,26.95 94.87,79.79 h -0.02 z"
       id="path37"
       style="fill:url(#gradient2)" />
    <path
       d="m 56.61,11.42 c 0,0 39.06,14.86 40.37,15.35 -0.06,1.26 -2.85,49.64 -3,52.34 -0.83,-0.37 -1.68,-0.77 -1.68,-0.77 l -0.92,1.68 3.47,1.08 4.26,-55.56 -42.06,-15.95 -0.4,1.82 -0.02,0.01 z"
       id="path39"
       style="fill:#808080" />
    <linearGradient
       x1="32.310001"
       y1="24.110001"
       x2="70.730003"
       y2="55.09"
       id="gradient3"
       gradientUnits="userSpaceOnUse">
      <stop
         id="stop42"
         style="stop-color:#ffffff;stop-opacity:1"
         offset="0" />
      <stop
         id="stop44"
         style="stop-color:#f1c779;stop-opacity:1"
         offset="1" />
    </linearGradient>
    <path
       d="M 92.3,83.31 43.81,62.77 29.77,16.39 84.65,36.93 92.3,83.31 z"
       id="path46"
       style="fill:url(#gradient3)" />
    <path
       d="m 30.12,17.54 c 0,0 52.52,19.65 53.58,20.05 0.16,1.03 7.5,45.29 7.5,45.29 l 2.2,0.84 -7.86,-47.49 -56.18,-21.05 0.73,2.33 0.01,0.02 z"
       id="path48"
       style="fill:#808080" />
    <path
       d="m 14.38,44.4 c -4.33,0 -7.94,3.79 -7.94,8.59 v 58 c 0,4.8 3.42,8.59 7.76,8.59 h 55.77 c 4.33,0 7.76,-3.79 7.76,-8.59 v -58 c 0,-4.79 -3.42,-8.59 -7.76,-8.59 H 14.38 z"
       id="path50"
       style="fill:#000000" />
    <linearGradient
       x1="25.73"
       y1="50.459999"
       x2="59.290001"
       y2="115.06"
       id="gradient4"
       gradientUnits="userSpaceOnUse">
      <stop
         id="stop53"
         style="stop-color:#d2d2d2;stop-opacity:1"
         offset="0" />
      <stop
         id="stop55"
         style="stop-color:#ededed;stop-opacity:1"
         offset="1" />
    </linearGradient>
    <path
       d="m 73.76,109.59 c 0,3.2 -2.34,5.8 -5.23,5.8 H 15.65 c -2.88,0 -5.23,-2.59 -5.23,-5.8 V 54.4 c 0,-3.2 2.34,-5.8 5.23,-5.8 h 52.88 c 2.88,0 5.23,2.6 5.23,5.8 v 55.19 z"
       id="path57"
       style="fill:url(#gradient4)" />
    <linearGradient
       x1="42.68"
       y1="103.68"
       x2="42.75"
       y2="88.150002"
       id="gradient5"
       gradientUnits="userSpaceOnUse">
      <stop
         id="stop60"
         style="stop-color:#163069;stop-opacity:1"
         offset="0" />
      <stop
         id="stop62"
         style="stop-color:#83a1cb;stop-opacity:1"
         offset="1" />
    </linearGradient>
    <path
       d="M 69.25,102.19 H 16.37 V 62.4 h 52.88 v 39.79 z"
       id="path64"
       style="fill:url(#gradient5)" />
    <path
       d="m 12.58,55.59 -1.08,57.59 c -0.72,-1 -1.08,-2.79 -1.08,-2.79 v -56.8 c 0,0 0,-1.39 1.08,-3.19 1.26,-1.8 3.24,-1.8 3.24,-1.8 H 60.76 L 16.55,51 c -1.8,0 -2.7,1 -3.06,1.4 -0.36,0.59 -0.9,1.79 -0.9,3.19 z"
       id="path66"
       style="fill:#fcfcfc" />
    <path
       d="M 71.6,108.19 72.86,51 c 0.72,0.79 1.08,2.79 1.08,2.79 v 56.6 c 0,0 0,1.4 -1.08,3.19 -1.26,1.8 -3.42,2 -3.42,2 H 23.78 l 44.21,-2.79 c 1.8,0 2.7,-1 3.06,-1.4 0.36,-0.4 0.9,-1.8 0.9,-3 l -0.36,-0.2 z"
       id="path68"
       style="fill:#bebebe" />
    <path
       d="M 69.25,62.4 70.33,61 15.11,60.8 v 42.79 L 16.37,102 V 62.41 h 52.88 z"
       id="path70"
       style="fill:#bebebe" />
    <path
       d="M 15.1,103.59 70.32,103.4 V 61 l -1.26,1.4 v 39.79 h -52.7 l -1.26,1.6 v -0.2 z"
       id="path72"
       style="fill:#ffffff" />
    <linearGradient
       x1="42.779999"
       y1="92.25"
       x2="42.779999"
       y2="57.209999"
       id="gradient6"
       gradientUnits="userSpaceOnUse">
      <stop
         id="stop75"
         style="stop-color:#d0d6e5;stop-opacity:1"
         offset="0" />
      <stop
         id="stop77"
         style="stop-color:#093a80;stop-opacity:1"
         offset="1" />
    </linearGradient>
    <path
       d="m 16.91,62.79 h 51.8 v 24.2 h -51.8 v -24.2 z"
       id="path79"
       style="fill:url(#gradient6)" />
    <path
       d="m 36.4,73.8 c 0,4.39 -3.24,8.19 -7.39,8.19 -3.97,0 -7.4,-3.59 -7.4,-8.19 0,-4.4 3.24,-8.2 7.4,-8.2 3.97,0 7.39,3.59 7.39,8.2 z"
       id="path81"
       style="fill:#e8f52f;fill-opacity:0.047" />
    <path
       d="m 35.68,73.8 c 0,4 -2.88,7.39 -6.67,7.39 -3.6,0 -6.67,-3.19 -6.67,-7.39 0,-4 2.88,-7.4 6.67,-7.4 3.6,0 6.67,3.19 6.67,7.4 z"
       id="path83"
       style="fill:#ecf751;fill-opacity:0.20779999" />
    <path
       d="m 34.96,73.8 c 0,3.59 -2.7,6.59 -5.95,6.59 -3.24,0 -5.95,-3 -5.95,-6.59 0,-3.6 2.7,-6.6 5.95,-6.6 3.24,0 5.95,3 5.95,6.6 z"
       id="path85"
       style="fill:#f0f972;fill-opacity:0.36470002" />
    <path
       d="m 34.23,73.8 c 0,3.19 -2.34,5.79 -5.23,5.79 -2.88,0 -5.23,-2.59 -5.23,-5.79 0,-3.2 2.34,-5.8 5.23,-5.8 2.88,0 5.23,2.59 5.23,5.8 z"
       id="path87"
       style="fill:#f4fa95;fill-opacity:0.52149999" />
    <path
       d="m 33.51,73.8 c 0,2.79 -1.98,5 -4.51,5 -2.52,0 -4.51,-2.2 -4.51,-5 0,-2.8 1.98,-5 4.51,-5 2.52,0 4.51,2.19 4.51,5 z"
       id="path89"
       style="fill:#f7fcb7;fill-opacity:0.68229998" />
    <path
       d="m 32.79,73.8 c 0,2.39 -1.8,4.19 -3.79,4.19 -1.98,0 -3.79,-2 -3.79,-4.19 0,-2.2 1.8,-4.2 3.79,-4.2 1.98,0 3.79,2 3.79,4.2 z"
       id="path91"
       style="fill:#fbfddb;fill-opacity:0.83920001" />
    <path
       d="m 32.07,73.8 c 0,2 -1.44,3.59 -3.24,3.59 -1.8,0 -3.24,-1.59 -3.24,-3.59 0,-2 1.44,-3.6 3.24,-3.6 1.8,0 3.24,1.6 3.24,3.6 z"
       id="path93"
       style="fill:#ffffff" />
    <path
       d="m 46.51,90.4 h 13.17 l 2.52,0.79 h -4.33 c 0,0 4.33,0.4 6.49,3.4 2.16,2.8 -2.52,6.2 -2.52,6.2 -0.18,-0.6 -1.26,-5.4 -3.42,-7.4 -1.62,-1.59 -3.42,-2 -3.42,-2 h -8.48 v -0.8 -0.19 z"
       id="path95"
       style="fill:#000000;fill-opacity:0.29800002" />
    <path
       d="m 55.17,91.59 h -7.58 l 14.07,8.8 -6.49,-8.8 z"
       id="path97"
       style="fill:#000000;fill-opacity:0.29800002" />
    <path
       d="m 46.51,90.59 h 13.17 l 1.98,-1.4 h -4.33 c 0,0 3.97,-0.79 4.51,-5.79 0.54,-5 -6.13,-10.59 -6.13,-10.59 0,0 0,0 0,0.19 0.18,1.19 1.98,9.59 0.72,12.8 -0.54,2.79 -2.16,3.39 -2.16,3.39 h -8.3 l 0.36,1.4 h 0.18 z"
       id="path99"
       style="fill:#515151" />
    <path
       d="M 54.45,88.4 H 46.87 L 55.89,73.2 54.45,88.4 z"
       id="path101"
       style="fill:#515151" />
    <path
       d="m 16.37,62.4 v 39.79 H 69.25 V 62.4 H 16.37 z M 68.17,101 H 17.64 V 63.6 H 68.17 V 101 z"
       id="path103"
       style="fill:#000000" />
  </g>
</svg>
