<?xml version="1.0" encoding="UTF-8" standalone="no"?>
<!-- Created with Inkscape (http://www.inkscape.org/) -->

<svg
   xmlns:svg="http://www.w3.org/2000/svg"
   xmlns="http://www.w3.org/2000/svg"
   version="1.1"
   width="123"
   height="127"
   id="svg2">
  <defs
     id="defs192" />
  <g
     id="g4">
    <path
       d="M 93.83,86.58 115.91,68.13 102.14,60.24 93.85,86.6 93.84,86.59 z"
       id="path6"
       style="fill:#000000;fill-opacity:0.2" />
    <path
       d="m 54.81,5.26 c 0,0 -0.25,1.16 -0.47,2.25 C 50.53,6.08 39.83,2.08 39.83,2.08 c 0,0 0.65,10.85 0.92,15.34 -4.23,-1.57 -15.63,-5.85 -15.63,-5.85 l 16.09,53.2 52.2,21.88 3.65,-2.81 L 110.49,23.91 109.05,15.1 88.8,9.68 c 0,0 -3.23,1.93 -4.62,2.77 C 81.53,11.48 55.53,1.92 55.53,1.92 l -0.72,3.34 0.01,0 z"
       id="path8"
       style="fill:#000000" />
    <path
       d="m 107.4,23.85 -1.06,-6.53 -17,-4.54 -4.77,2.86 -26.69,-9.81 -1.2,5.61 -13.45,-5.03 0.91,15.34 -14.31,-5.36 14.04,46.37 48.49,20.54 -0.81,-4.94 3.37,1.41 12.54,-55.93 -0.02,0.01 z"
       id="path10"
       style="fill:#000000" />
    <linearGradient
       x1="46.34"
       y1="42.790001"
       x2="107.4"
       y2="42.790001"
       id="gradient0"
       gradientUnits="userSpaceOnUse">
      <stop
         id="stop13"
         style="stop-color:#ffffff;stop-opacity:1"
         offset="0" />
      <stop
         id="stop15"
         style="stop-color:#f1c779;stop-opacity:1"
         offset="1" />
    </linearGradient>
    <path
       d="M 94.84,79.8 46.36,59.25 57.83,5.82 l 26.7,9.81 4.76,-2.86 17,4.54 1.06,6.53 -12.54,55.94 0.01,0.01 z"
       id="path17"
       style="fill:url(#gradient0)" />
    <linearGradient
       x1="76.18"
       y1="44.380001"
       x2="79.260002"
       y2="30.15"
       id="gradient1"
       gradientUnits="userSpaceOnUse">
      <stop
         id="stop20"
         style="stop-color:#a68b54;stop-opacity:1"
         offset="0" />
      <stop
         id="stop22"
         style="stop-color:#f1c779;stop-opacity:1"
         offset="1" />
    </linearGradient>
    <path
       d="M 105.55,32.06 94.86,79.78 46.37,59.24 l 9.04,-42.09 50.14,14.91 0,0 z"
       id="path24"
       style="fill:url(#gradient1)" />
    <linearGradient
       x1="72.400002"
       y1="21.23"
       x2="68.379997"
       y2="47.09"
       id="gradient2"
       gradientUnits="userSpaceOnUse">
      <stop
         id="stop27"
         style="stop-color:#ffffff;stop-opacity:1"
         offset="0" />
      <stop
         id="stop29"
         style="stop-color:#eaeb49;stop-opacity:1"
         offset="0.648" />
      <stop
         id="stop31"
         style="stop-color:#e8e847;stop-opacity:1"
         offset="0.80690002" />
      <stop
         id="stop33"
         style="stop-color:#e0de42;stop-opacity:1"
         offset="0.92540002" />
      <stop
         id="stop35"
         style="stop-color:#d7d43d;stop-opacity:1"
         offset="1" />
    </linearGradient>
    <path
       d="M 94.84,79.8 46.36,59.25 43.17,6.41 98.05,26.95 94.87,79.79 h -0.02 z"
       id="path37"
       style="fill:url(#gradient2)" />
    <path
       d="m 56.61,11.42 c 0,0 39.06,14.86 40.37,15.35 -0.06,1.26 -2.85,49.64 -3,52.34 -0.83,-0.37 -1.68,-0.77 -1.68,-0.77 l -0.92,1.68 3.47,1.08 4.26,-55.56 -42.06,-15.95 -0.4,1.82 -0.02,0.01 z"
       id="path39"
       style="fill:#808080" />
    <linearGradient
       x1="32.310001"
       y1="24.110001"
       x2="70.730003"
       y2="55.09"
       id="gradient3"
       gradientUnits="userSpaceOnUse">
      <stop
         id="stop42"
         style="stop-color:#ffffff;stop-opacity:1"
         offset="0" />
      <stop
         id="stop44"
         style="stop-color:#f1c779;stop-opacity:1"
         offset="1" />
    </linearGradient>
    <path
       d="M 92.3,83.31 43.81,62.77 29.77,16.39 84.65,36.93 92.3,83.31 z"
       id="path46"
       style="fill:url(#gradient3)" />
    <path
       d="m 30.12,17.54 c 0,0 52.52,19.65 53.58,20.05 0.16,1.03 7.5,45.29 7.5,45.29 l 2.2,0.84 -7.86,-47.49 -56.18,-21.05 0.73,2.33 0.01,0.02 z"
       id="path48"
       style="fill:#808080" />
    <path
       d="M 3,78.81 C 3,59.03 20.44,43 41.96,43 c 21.51,0 38.96,16.03 38.96,35.81 0,19.78 -17.44,35.81 -38.96,35.81 C 20.45,114.62 3,98.59 3,78.81 z"
       id="path50"
       style="fill:#000000" />
    <path
       d="m 5.42,78.82 c 0,-18.55 16.36,-33.59 36.54,-33.59 20.18,0 36.54,15.04 36.54,33.59 0,18.55 -16.36,33.59 -36.54,33.59 -20.18,0 -36.54,-15.04 -36.54,-33.59 z"
       id="path52"
       style="fill:#3fd2ff" />
    <path
       d="m 53.48,110.79 c 0.44,-1.74 1.45,-5.45 -0.33,-5.76 -1.79,-0.3 -5.15,-0.51 -6.15,-1.54 -1,-1.03 -2.01,-1.03 -2.68,-1.44 -0.67,-0.41 -1.68,-1.74 -0.67,-2.98 1,-1.23 0.78,-2.47 -0.55,-3.19 -1.34,-0.72 -2.12,0.2 -3.24,0.3 -1.12,0.1 -3.8,-1.54 -5.82,-1.54 -2.01,0 -3.91,0 -4.25,-1.03 -1.23,0.72 -8.62,-0.51 -8.28,-2.57 -0.78,-0.72 -3.69,-3.7 -4.47,-4.73 0.11,0.82 0.78,2.57 1.45,3.08 -1.9,-1.23 -3.47,-3.39 -3.58,-5.04 -0.89,-0.72 -3.13,-4.52 -2.79,-5.66 0.33,-1.13 0.67,-5.14 1.34,-5.25 0.67,-0.1 0.11,-0.61 -0.22,-1.23 -0.33,-0.61 -0.56,-1.64 -0.56,-2.16 0,-0.51 0.56,-1.85 0,-1.95 -0.55,-0.1 -1.79,-0.82 -1,-0.82 0.78,0 1.45,0.41 1.45,-0.3 0,-0.72 -0.44,-2.67 -0.78,-2.98 -0.33,-0.3 -0.22,-0.2 -0.89,0.2 -0.67,0.41 -1.34,0.51 -1.45,0.2 -0.11,-0.3 0.11,-0.2 0.67,-0.92 0.56,-0.72 1.9,-2.78 2.35,-3.5 0.44,-0.72 0.33,0.2 1.79,-1.33 1.45,-1.54 2.23,-2.98 2.23,-1.54 0,1.44 0.33,2.05 1.23,2.05 0.89,0 1,-0.3 1.11,0.3 0.11,0.61 0.22,1.33 1.12,1.03 0.89,-0.3 1.67,0.1 2.12,-0.3 0.44,-0.41 -0.33,-0.82 0.22,-0.92 0.56,-0.1 0.78,0.82 1,0.1 0.22,-0.71 -0.11,-1.85 0.67,-1.13 0.78,0.72 1,0.82 1.56,0.51 0.56,-0.31 2.35,-0.41 0.78,0.51 -1.56,0.92 -1.68,0.82 -1.9,1.74 -0.22,0.92 -0.33,0.61 -0.89,1.64 -0.55,1.02 -1.67,2.05 -0.22,2.77 1.45,0.72 3.35,0.92 3.35,0.92 0,0 1.56,-1.13 1.34,0.1 -0.22,1.23 -0.33,1.95 0.44,1.75 0.78,-0.2 2.12,-0.1 1.23,-1.02 -0.89,-0.92 -0.78,-0.3 -0.44,-1.64 0.33,-1.33 0.11,-1.23 -0.33,-1.85 C 29,63.06 27.88,61.1 29,61 c 1.12,-0.1 2.01,-0.41 2.35,0.1 0.33,0.51 1.45,1.44 1.9,0.92 0.44,-0.51 -0.11,-1.95 1.56,-0.92 1.68,1.02 -0.11,1.54 1.68,1.54 1.79,0 3.47,-0.1 3.47,0.3 0,0.41 -1.23,2.36 -2.12,2.67 -0.89,0.3 -1.23,-0.41 -1.56,0.51 -0.33,0.92 -1.45,2.88 -0.78,2.16 0.67,-0.72 1.79,-2.26 1.9,-1.33 0.11,0.92 0,1.64 1.12,1.54 1.11,-0.1 2.79,-1.02 1.34,0.31 -1.45,1.33 -1.56,2.26 -1.45,1.33 0.11,-0.92 0.11,-1.44 -0.78,-0.2 -0.89,1.23 -1.11,2.16 -0.67,2.16 0.44,0 0.44,0.3 -0.11,0.61 -0.55,0.3 -0.89,1.74 -1.23,2.57 -0.33,0.82 -1,1.74 -0.33,1.85 0.67,0.1 0.44,1.64 0.44,1.64 0,0 -3.02,3.08 -1.9,4.01 1.11,0.92 2.46,2.36 1.9,2.67 -0.56,0.3 -1.9,-1.64 -2.24,-1.95 -0.33,-0.3 -3.69,-0.72 -3.91,-0.2 -0.22,0.51 0.55,0.92 0,1.02 -0.55,0.1 -2.57,0.51 -3.35,0.92 -0.78,0.41 -1,1.74 -0.89,2.26 0.11,0.51 0.67,4.94 3.24,4.42 2.57,-0.51 2.79,-0.72 2.35,-1.74 l 2.01,-0.72 c 0,0 -0.44,2.98 0.56,3.08 1,0.1 2.46,-0.2 2.79,-0.2 0.33,0 1.11,2.67 1.79,2.88 0.67,0.2 2.57,0 3.69,-0.72 1.12,-0.71 1.68,0.92 1.79,0.1 0.11,-0.82 1.34,-2.57 2.46,-2.98 0,0.72 0,1.44 0.67,1.23 0.67,-0.2 0.22,-1.54 0.22,-1.54 0,0 4.47,0.2 4.47,-1.03 0,0 2.46,-0.61 3.02,0.1 0.33,-0.72 0.89,-0.1 1.79,0.1 0.89,0.2 1.45,-0.51 2.68,-1.02 1.23,-0.51 3.91,-0.1 4.25,0.72 0.33,0.82 1,1.64 1.45,0.2 l 2.57,-0.61 c 0,0 1.45,-1.33 2.46,-1.44 1,-0.1 2.01,-0.71 2.12,-0.1 0.11,0.61 -0.33,3.08 -1,3.6 -0.67,0.51 -0.33,0.92 -0.11,1.44 0.22,0.51 -0.33,3.29 -0.78,3.8 -0.44,0.51 0,0.61 -0.89,1.33 -0.89,0.72 -1.34,1.74 -1.68,2.36 -0.33,0.61 -0.89,2.36 -1.79,3.08 -0.89,0.72 -1.45,1.54 -1.45,1.54 -1.23,0.92 -4.47,4.53 -10.52,5.35 z"
       id="path54"
       style="fill:#009900" />
    <radialGradient
       cx="0"
       cy="0"
       r="200"
       id="gradient4"
       gradientUnits="userSpaceOnUse"
       gradientTransform="matrix(0.3145,0,0,-0.2891,23.8101,66.7888)">
      <stop
         id="stop57"
         style="stop-color:#33cc33;stop-opacity:1"
         offset="0" />
      <stop
         id="stop59"
         style="stop-color:#009900;stop-opacity:1"
         offset="0.57529998" />
      <stop
         id="stop61"
         style="stop-color:#005e07;stop-opacity:1"
         offset="1" />
    </radialGradient>
    <path
       d="m 35.34,87.62 c 0.67,-0.31 0.78,-0.41 1.45,-0.41 0.67,0 2.79,0.1 3.47,0.1 0.67,0 0.89,0.61 0.22,0.72 -0.67,0.1 -1.79,-0.31 -2.57,-0.31 -0.78,0 -2.12,0.41 -2.57,-0.1 z"
       id="path63"
       style="fill:url(#gradient4)" />
    <radialGradient
       cx="0"
       cy="0"
       r="200"
       id="gradient5"
       gradientUnits="userSpaceOnUse"
       gradientTransform="matrix(0.309,0,0,-0.2841,23.97,66.3213)">
      <stop
         id="stop66"
         style="stop-color:#33cc33;stop-opacity:1"
         offset="0" />
      <stop
         id="stop68"
         style="stop-color:#009900;stop-opacity:1"
         offset="0.49430001" />
      <stop
         id="stop70"
         style="stop-color:#005e07;stop-opacity:1"
         offset="1" />
    </radialGradient>
    <path
       d="m 28.73,53.44 c 0.67,-0.2 0.78,-0.72 2.23,0 1.45,0.72 1.56,0 2.8,1.13 1.23,1.13 3.35,3.08 6.04,2.16 -0.56,-1.23 -1.45,-1.54 -1.34,-2.67 0.11,-1.13 0.33,-2.78 0.33,-2.78 l -1.12,0.41 -0.11,-0.82 c 0,0 -3.91,-0.72 -4.7,-0.61 -0.78,0.1 -0.78,-0.41 -1.34,-0.41 -0.56,0 -0.67,0.82 -1.12,0.82 -0.44,0 -1.9,-0.61 -1.68,0.2 0.22,0.82 0.56,1.02 0.11,1.54 -0.44,0.51 -0.1,1.02 -0.1,1.02 z"
       id="path72"
       style="fill:url(#gradient5)" />
    <radialGradient
       cx="0"
       cy="0"
       r="200"
       id="gradient6"
       gradientUnits="userSpaceOnUse"
       gradientTransform="matrix(0.0101,0,0,-0.0093,21.9622,51.2316)">
      <stop
         id="stop75"
         style="stop-color:#33cc33;stop-opacity:1"
         offset="0" />
      <stop
         id="stop77"
         style="stop-color:#009900;stop-opacity:1"
         offset="0.57529998" />
      <stop
         id="stop79"
         style="stop-color:#005e07;stop-opacity:1"
         offset="1" />
    </radialGradient>
    <path
       d="m 19.66,52.31 c 0,0 0.11,0.61 0.44,0.51 0.33,-0.1 1.67,-1.02 2.57,-1.64 0.89,-0.61 1.68,-1.23 1.56,-1.54 -0.11,-0.3 -3.58,1.75 -4.59,2.67 z"
       id="path81"
       style="fill:url(#gradient6)" />
    <radialGradient
       cx="0"
       cy="0"
       r="200"
       id="gradient7"
       gradientUnits="userSpaceOnUse"
       gradientTransform="matrix(0.3222,0,0,-0.2962,23.666,67.4837)">
      <stop
         id="stop84"
         style="stop-color:#33cc33;stop-opacity:1"
         offset="0" />
      <stop
         id="stop86"
         style="stop-color:#009900;stop-opacity:1"
         offset="0.57529998" />
      <stop
         id="stop88"
         style="stop-color:#005e07;stop-opacity:1"
         offset="1" />
    </radialGradient>
    <path
       d="m 18.32,53.34 c 0.54,-0.16 -0.33,0.82 -1,1.54 -0.67,0.72 -1.11,0.72 -1.79,1.44 -0.67,0.72 -1.79,1.54 -2.23,1.95 -0.44,0.41 -1.17,1.31 -1.17,1.31 0,0 5.2,-5.95 6.21,-6.26 z"
       id="path90"
       style="fill:url(#gradient7)" />
    <radialGradient
       cx="0"
       cy="0"
       r="200"
       id="gradient8"
       gradientUnits="userSpaceOnUse"
       gradientTransform="matrix(0.3141,0,0,-0.2887,23.8111,66.8307)">
      <stop
         id="stop93"
         style="stop-color:#33cc33;stop-opacity:1"
         offset="0" />
      <stop
         id="stop95"
         style="stop-color:#009900;stop-opacity:1"
         offset="0.57529998" />
      <stop
         id="stop97"
         style="stop-color:#005e07;stop-opacity:1"
         offset="1" />
    </radialGradient>
    <path
       d="m 51.47,46.54 c 0,0 1.79,1.23 1.34,1.33 -0.44,0.1 -1.56,0.1 -1.56,0.1 0,0 1.11,0.1 1.68,0.51 0.56,0.41 0.33,1.13 1.56,1.44 1.23,0.3 1.56,1.74 2.12,2.16 0.56,0.41 0.11,-0.51 1,-0.3 0.89,0.2 3.24,1.54 2.57,1.74 -0.67,0.2 -0.89,1.03 0.33,1.64 1.23,0.61 2.57,1.13 2.91,1.85 0.56,-0.82 0.78,-2.16 -0.22,-2.67 -1,-0.51 -2.35,-1.03 -2.57,-1.85 -0.22,-0.82 -0.33,-1.54 -0.22,-2.16 -2.24,-1.75 -8.17,-3.7 -8.96,-3.8 z"
       id="path99"
       style="fill:url(#gradient8)" />
    <radialGradient
       cx="0"
       cy="0"
       r="200"
       id="gradient9"
       gradientUnits="userSpaceOnUse"
       gradientTransform="matrix(0.3432,0,0,-0.3155,36.8765,90.613)">
      <stop
         id="stop102"
         style="stop-color:#33cc33;stop-opacity:1"
         offset="0" />
      <stop
         id="stop104"
         style="stop-color:#009900;stop-opacity:1"
         offset="0.57529998" />
      <stop
         id="stop106"
         style="stop-color:#005e07;stop-opacity:1"
         offset="1" />
    </radialGradient>
    <path
       d="m 64.73,52.63 c 0.22,0.82 0.89,3.7 0.22,4.11 -0.67,0.41 0,0.61 0.44,1.02 0.44,0.41 0.55,0.2 1.23,1.13 0.67,0.92 1.23,1.64 1.23,2.88 0,1.23 0.89,2.36 1.34,3.08 0.44,0.72 3.24,2.67 3.24,3.7 0,1.02 -0.11,2.05 1.12,2.26 1.23,0.2 1.79,0.3 2.12,0.82 0.33,0.51 1.34,0.51 1.9,0.61 C 76.9,67.82 73.99,59.37 64.69,52.58 z"
       id="path108"
       style="fill:url(#gradient9)" />
    <path
       d="M 41.03,114.51 21.54,107.5 C 25.44,103.59 32.01,99 41.33,94.13 59.97,84.39 75.45,79.1 78.12,83.42 c 2.67,4.32 -8.47,16.62 -27.11,26.37 -3.57,1.87 -6.91,3.44 -9.98,4.72 z"
       id="path110"
       style="fill:#000000;fill-opacity:0.247" />
    <path
       d="m 43.6,47.04 c 0,0 -0.26,0.03 -0.26,0.03 0.01,0 -0.98,0.21 -0.98,0.21 -0.04,0.01 -0.94,0.34 -0.94,0.34 -0.01,0 -0.22,0.09 -0.22,0.09 0,0 -0.85,0.45 -0.85,0.45 -0.06,0.04 -0.78,0.56 -0.78,0.56 0,0 -0.17,0.14 -0.17,0.14 0,0 -0.75,0.73 -0.75,0.73 l -0.03,0.06 0.03,-0.03 c 0,-0.01 -0.49,0.65 -0.49,0.65 -0.01,0.02 -0.12,0.19 -0.12,0.19 0,0 -0.43,0.8 -0.43,0.8 -0.38,0.86 -0.56,1.72 -0.57,2.6 -2.66,-1.28 -11.36,-5.44 -11.36,-5.44 l -4.54,1.09 -3.4,5.32 18.63,8.93 c 0,0 0,6.83 0,8.1 -1.17,0.96 -9.55,7.69 -9.55,7.69 0,0 -0.01,13.24 -0.01,15.12 -12.06,6.53 -18.64,12.81 -18.64,17.73 0,0.89 0.21,1.74 0.65,2.54 3.36,6.12 16.98,4.39 36.45,-4.63 19.62,-9.09 32.83,-21.52 29.45,-27.69 -2.12,-3.85 -9.21,-3.67 -21.63,0.56 0,-0.5 0,-12.26 0,-13.36 0.21,-0.14 0.25,-0.17 0.43,-0.29 0.81,0 19.73,0 19.73,0 l 2.96,-2.79 v -3.7 L 72.56,59.92 H 59.01 c 0,0 -6.25,-2.51 -7.13,-2.86 -0.06,-0.05 -0.11,-0.12 -0.18,-0.17 0.01,-0.03 0.04,-0.06 0.06,-0.09 0.01,0 0.28,-0.67 0.28,-0.67 0,0 0.06,-0.19 0.06,-0.19 0.01,-0.05 0.08,-0.3 0.08,-0.3 0.14,-0.54 0.22,-1.1 0.22,-1.65 0,-0.79 -0.14,-1.58 -0.44,-2.34 0,0 -0.16,-0.4 -0.16,-0.4 -0.01,-0.03 -0.45,-0.82 -0.45,-0.82 0,0 -0.13,-0.19 -0.13,-0.19 0,0 -0.56,-0.72 -0.56,-0.72 -0.02,-0.02 -0.67,-0.65 -0.67,-0.65 l -0.18,-0.15 c 0,0 -0.77,-0.55 -0.77,-0.55 -0.02,-0.01 -0.85,-0.45 -0.85,-0.45 0,0 -0.22,-0.09 -0.22,-0.09 0,0 -0.93,-0.33 -0.93,-0.33 -0.01,0 -0.98,-0.21 -0.98,-0.21 -0.01,0 -0.26,-0.03 -0.26,-0.03 0,0 -1.03,-0.06 -1.03,-0.06 0,0 -1.04,0.07 -1.05,0.07 z m -2.29,11.7 c 0.85,0.46 1.48,0.8 1.73,0.94 0,0 0,0.01 0,0.01 -0.24,-0.12 -0.88,-0.46 -1.75,-0.91 0,-0.01 0,-0.01 0,-0.03 z m 0.33,21.99 c 0,0 -0.11,6.54 -0.11,7.02 -0.97,0.41 -3.02,1.7 -3.02,1.7 l 0.07,-6.05 3.06,-2.67 z"
       id="path112"
       style="fill:#000000" />
    <path
       d="m 58.5,61.95 -3.48,-1.4 -4.62,-1.85 0,0.31 h -0.26 c 0.09,-0.1 0.18,-0.2 0.26,-0.31 0.22,-0.29 -0.94,-0.45 -2.49,-0.49 0.8,-0.53 1.45,-1.25 1.86,-2.1 0,0 0,0 0,0 0.07,-0.16 0.13,-0.32 0.19,-0.47 0.02,-0.05 0.03,-0.11 0.05,-0.17 0.01,-0.06 0.03,-0.12 0.05,-0.18 0.1,-0.39 0.16,-0.79 0.16,-1.21 0,-0.59 -0.11,-1.16 -0.31,-1.7 -0.06,-0.17 -0.11,-0.28 -0.11,-0.29 0,0 0,-0.01 -0.01,-0.01 -0.09,-0.19 -0.2,-0.38 -0.31,-0.56 -0.03,-0.04 -0.06,-0.09 -0.09,-0.14 -0.12,-0.18 -0.26,-0.36 -0.4,-0.52 0,0 -0.01,-0.01 -0.01,-0.01 -0.14,-0.16 -0.3,-0.31 -0.47,-0.45 -0.04,-0.03 -0.09,-0.07 -0.13,-0.11 -0.17,-0.14 -0.36,-0.28 -0.55,-0.4 0,0 0,0 -0.01,0 -0.19,-0.11 -0.39,-0.22 -0.6,-0.31 -0.05,-0.02 -0.11,-0.04 -0.16,-0.07 -0.21,-0.09 -0.43,-0.17 -0.67,-0.24 0,0 0,0 0,0 -0.22,-0.06 -0.46,-0.11 -0.7,-0.14 -0.06,0 -0.12,-0.01 -0.18,-0.02 -0.24,-0.03 -0.49,-0.05 -0.75,-0.05 -0.26,0 -0.51,0.02 -0.76,0.05 -0.06,0 -0.12,0.01 -0.18,0.02 -0.24,0.03 -0.48,0.08 -0.72,0.15 -0.01,0 -0.01,0 -0.02,0.01 -0.22,0.06 -0.44,0.14 -0.65,0.24 -0.05,0.02 -0.1,0.04 -0.15,0.06 -0.21,0.09 -0.42,0.2 -0.62,0.33 -0.01,0.01 -0.02,0.02 -0.04,0.03 -0.18,0.11 -0.35,0.24 -0.52,0.38 -0.04,0.03 -0.08,0.07 -0.12,0.1 -0.17,0.15 -0.33,0.3 -0.48,0.47 -0.01,0.02 -0.03,0.04 -0.05,0.06 -0.13,0.15 -0.25,0.31 -0.36,0.48 -0.03,0.04 -0.06,0.09 -0.09,0.14 -0.11,0.18 -0.22,0.38 -0.31,0.58 0,0 -0.01,0.01 -0.01,0.02 0,0 0,0 0,0 -0.26,0.59 -0.41,1.24 -0.41,1.93 0,1.98 1.22,3.7 3.02,4.55 -0.31,0.07 -0.51,0.16 -0.58,0.26 l 0.26,-0.41 -4.51,-2.16 0,-0.01 -13.77,-6.59 -0.91,1.34 0.03,0.01 -2,3.11 4.51,2.16 0,0.01 13.27,6.35 v 10.14 l -7.93,6.52 h 0.02 l -1.64,1.23 h -0.01 v 15.29 c -14.4,7.6 -20.35,14.42 -18.21,18.31 2.43,4.43 14.47,3.38 33.62,-5.48 C 63.59,99.87 75.39,88.09 72.95,83.65 71.21,80.48 62.66,81.92 50.93,86.23 v -3.77 -0.12 h 0.16 v -9.46 -3.86 l 1.85,-1.25 h 5.74 15.53 v -1.79 -2.14 -1.8 H 58.68 z m -22.04,17.59 -0.17,0 0.26,-0.19 -0.08,1.67 0,-1.47 z M 41.53,59 h -0.11 l 0.09,-0.14 C 41.49,58.9 41.49,58.95 41.52,59 z M 30.44,80.59 v 0 l -1.34,-0.01 1.34,0.01 z m 6.03,11.54 -0.01,-9.59 6.66,-5.47 v 5.23 h 0.5 v 5.9 l 0.92,0.41 c -2.59,1.07 -5.3,2.25 -8.08,3.52 z"
       id="path114"
       style="fill:#000000" />
    <path
       d="M 25.12,56.31 38.89,62.9 41.77,58.43 28,51.84 25.12,56.31 z"
       id="path116"
       style="fill:#f70001" />
    <path
       d="m 22.7,50.91 -2.08,3.23 13.77,6.59 2.88,-4.47 -12.48,-5.97 -2.09,0.62 z"
       id="path118"
       style="fill:#fac692" />
    <path
       d="m 22.62,51.03 -2,3.11 2.88,1.3 2.88,-4.38 -1.57,-0.8 -2.18,0.76 z"
       id="path120"
       style="fill:#d8a674" />
    <path
       d="M 22.58,51.01 36.35,57.6 37.26,56.26 24.86,50.32 22.58,51 z"
       id="path122"
       style="fill:#fee7cd" />
    <path
       d="m 10.62,114.18 c -2.43,-4.43 5.65,-12.69 24.8,-21.56 19.14,-8.87 34.89,-13.45 37.33,-9.01 2.43,4.44 -9.36,16.21 -28.51,25.09 -19.14,8.87 -31.18,9.93 -33.62,5.48 z"
       id="path124"
       style="fill:#ffcc01" />
    <path
       d="m 72.76,83.6 c -0.25,-0.47 -0.67,-0.83 -1.22,-1.1 2.85,6.2 -9.81,15.48 -28.99,24.77 -16.51,7.99 -25.85,9.28 -31.72,7.22 2.83,4.06 14.73,2.85 33.42,-5.8 C 63.4,99.82 75.2,88.04 72.76,83.6 z"
       id="path126"
       style="fill:#fe9900" />
    <path
       d="M 50.9,73.5 H 38.41 V 59.01 H 50.9 V 73.5 z"
       id="path128"
       style="fill:#f70001" />
    <path
       d="m 12.95,114.72 c -2.43,-4.43 5.65,-12.69 24.8,-21.56 14.78,-6.85 27.52,-11.13 33.69,-10.69 -4.68,-2.21 -19.01,2.26 -36.03,10.15 -19.15,8.87 -27.24,17.12 -24.8,21.56 0.73,1.33 2.33,2.16 4.71,2.44 -1.12,-0.42 -1.92,-1.07 -2.38,-1.9 z"
       id="path130"
       style="fill:#fffa01" />
    <path
       d="m 42.24,72.82 h -2.6 V 62.66 l 2.6,-2.45 v 12.62 z"
       id="path132"
       style="fill:#ff3334" />
    <path
       d="m 29.55,78.38 -2.19,1.51 v 20.61 l -2.38,1.91 -0.56,3.31 7.91,-0.02 5.13,-4.57 0.48,-22.93 -7.97,-0.1 -0.4,0.27 z"
       id="path134"
       style="fill:#000000" />
    <path
       d="m 36.55,79.34 h -6.08 l 7.93,-6.52 h 6.08 l -7.93,6.52 z"
       id="path136"
       style="fill:#f70001" />
    <path
       d="m 36.38,82.6 0.16,-3.26 7.93,-6.52 -0.16,3.26 -7.93,6.52 z"
       id="path138"
       style="fill:#9e0000" />
    <path
       d="m 50.22,69.41 2.53,-1.7 h 5.74 v -5.74 l -3.48,-1.4 -4.87,-1.99 0.08,10.85 z"
       id="path140"
       style="fill:#f70001" />
    <path
       d="m 58.5,67.7 h 13.48 l 2.04,-1.79 v -2.14 l -2.18,-1.8 H 58.5 v 5.74 z"
       id="path142"
       style="fill:#fac692" />
    <path
       d="m 58.5,63.76 h 15.53 l -2.26,-1.8 H 58.5 v 1.8 z"
       id="path144"
       style="fill:#fee7cd" />
    <path
       d="m 58.5,67.7 h 13.48 l 2.04,-1.79 -0.02,-1.98 -2.22,0 V 65.9 H 58.5 v 1.79 z"
       id="path146"
       style="fill:#d8a674" />
    <path
       d="m 36.11,100.31 -1.21,0.91 -4.45,-0.06 0.12,-21.88 5.98,0.05 -0.44,20.97 z"
       id="path148"
       style="fill:#cb9966" />
    <path
       d="m 34.46,100.86 -5.62,0.3 V 80.57 l 6.01,0.08 -0.39,20.21 z"
       id="path150"
       style="fill:#fac692" />
    <path
       d="m 31.66,104.35 -5.27,-1.33 2.44,-1.84 7.28,-0.87 -4.45,4.05 z"
       id="path152"
       style="fill:#fac692" />
    <path
       d="m 31.66,104.35 0.05,-1.44 2.84,-2.6 1.54,0.01 -4.44,4.03 z"
       id="path154"
       style="fill:#cb9966" />
    <path
       d="m 34.83,80.73 -5.99,-0.15 1.7,-1.28 6.01,0.05 -1.72,1.38 z"
       id="path156"
       style="fill:#fac692" />
    <path
       d="m 50.73,80.23 h -8.57 v 8.81 c 0,0 6.59,2.93 7.98,3.55 -0.23,1.01 -0.9,3.93 -0.9,3.93 h 8.69 l 1.37,-5.95 c 0,0 -5.85,-2.82 -7.09,-3.42 0,-1.24 0,-6.91 0,-6.91 h -1.48 z"
       id="path158"
       style="fill:#000000" />
    <path
       d="m 57.62,91.3 -5.79,0.54 -8.19,-3.66 6.58,-0.46 7.4,3.57 z"
       id="path160"
       style="fill:#d8a674" />
    <path
       d="M 50.73,88.19 H 48.8 l -1.81,0.67 -3.33,-0.67 V 81.6 h 7.09 v 6.59 z"
       id="path162"
       style="fill:#fac692" />
    <path
       d="M 50.73,88.19 H 48.8 v -5.77 h 1.93 v 5.77 z"
       id="path164"
       style="fill:#d8a674" />
    <path
       d="m 56.73,95.17 h -5.66 l 0.89,-3.86 h 5.66 l -0.89,3.86 z"
       id="path166"
       style="fill:#d8a674" />
    <path
       d="m 41.26,59.19 c -0.28,-0.31 -2.14,-2.07 -2.14,-2.07 0,0 11.68,1.04 11.27,1.57 -1,1.31 -2.67,2.17 -4.55,2.17 -1.72,0 -3.54,-0.54 -4.56,-1.67 z"
       id="path168"
       style="fill:#9e0000" />
    <path
       d="m 39.08,54.04 c 0,-2.82 2.49,-5.12 5.57,-5.12 3.07,0 5.57,2.29 5.57,5.12 0,2.83 -2.49,5.12 -5.57,5.12 -3.07,0 -5.57,-2.29 -5.57,-5.12 z"
       id="path170"
       style="fill:#fac692" />
    <path
       d="m 49.76,56.1 c -0.09,0.12 -0.52,-2.72 -0.82,-2.68 -0.17,0.02 -0.66,1.39 -0.88,1.41 -0.27,0.02 -0.34,-2.39 -0.67,-2.37 -3.09,0.16 -7.85,0.09 -7.88,-0.34 -0.11,-1.99 2.85,-3.66 5.18,-3.66 2.3,0 4.67,1.57 5.51,3.4 0.02,0.05 0.79,2.73 -0.43,4.25 z"
       id="path172"
       style="fill:#000000" />
    <path
       d="m 49.04,82.29 h -5.9 v -9.46 h 5.9 v 9.46 z"
       id="path174"
       style="fill:#f70001" />
    <path
       d="M 50.9,68.94 V 82.28 H 49.04 V 67.85 l 2.36,-1.55 7.09,-0.15 0,1.55 h -5.74 l -1.85,1.24 z"
       id="path176"
       style="fill:#9e0000" />
    <path
       d="m 47.25,82.21 h -2.6 v -8.02 l 2.6,1.2 v 6.82 z"
       id="path178"
       style="fill:#ff3334" />
    <path
       d="m 31.66,104.35 h -5.51 l 0.24,-1.33 5.32,-0.1 -0.05,1.44 z"
       id="path180"
       style="fill:#fac692" />
    <path
       d="M 53.82,101.14 H 37.46 l -5.13,4.57 h 12.82 l 8.67,-4.57 z"
       id="path182"
       style="fill:#d4ab0f" />
    <path
       d="m 67.61,91.95 -8.53,0.01 -1.14,4.55 h 3.84 l 5.83,-4.57 z"
       id="path184"
       style="fill:#d4ab0f" />
    <path
       d="m 43.96,73.87 h -0.75 l -0.18,0.15 0.01,3.1 0.09,-0.07 v 5.23 h 0.83 l 0,-8.42 z"
       id="path186"
       style="fill:#9e0000" />
    <path
       d="m 54.13,92.91 h -2.51 l 0.22,-1.06 h 2.51 l -0.22,1.06 z"
       id="path188"
       style="fill:#a9774e" />
  </g>
</svg>
