<?xml version="1.0" encoding="UTF-8" standalone="no"?>
<!-- Created with Inkscape (http://www.inkscape.org/) -->

<svg
   xmlns:svg="http://www.w3.org/2000/svg"
   xmlns="http://www.w3.org/2000/svg"
   version="1.1"
   width="124.074"
   height="115.354"
   viewBox="0 0 124.074 115.354"
   id="svg2"
   xml:space="preserve"
   style="overflow:visible"><defs
   id="defs253" />
		<g
   id="Layer_1_2_">
			<path
   d="m 66.145,3.453 c 0,0 -0.235,1.209 -0.459,2.327 -3.622,-1.473 -13.761,-5.6 -13.761,-5.6 0,0 0.622,11.186 0.879,15.813 C 48.788,14.358 37.98,9.96 37.98,9.96 l 15.27,54.832 49.505,22.56 3.468,-2.907 12.739,-61.756 -1.379,-9.095 -19.199,-5.593 c 0,0 -3.065,2.006 -4.383,2.867 C 91.485,9.861 66.828,0 66.828,0 l -0.683,3.453 z"
   id="path5" />
			<polygon
   points="124.074,68.227 111,60.076 103.14,87.255 "
   id="polygon7"
   style="opacity:0.2" />
			<path
   d="m 35.863,115.223 8.252,0.131 c 0,0 27.47,-24.405 29.794,-26.635 2.325,-2.23 0.817,-4.531 -0.382,-5.552 -1.198,-1.02 -9.19,-5.729 -9.19,-5.729 l -28.474,37.785 z"
   id="path9"
   style="opacity:0.2" />
			<g
   id="g11">
				<polygon
   points="114.974,15.876 98.857,11.184 94.33,14.146 69.011,4.021 67.865,9.82 55.097,4.625 55.977,20.439 42.392,14.91 55.704,62.707 101.683,83.881 100.91,78.78 104.105,80.253 115.994,22.608 "
   id="polygon13" />
			</g>
			<g
   id="g15">
				
					<linearGradient
   x1="-280.33939"
   y1="315.04199"
   x2="-222.4697"
   y2="315.04199"
   id="XMLID_175_"
   gradientUnits="userSpaceOnUse"
   gradientTransform="matrix(1,0,0,-1,338.4634,357.1777)">
					<stop
   id="stop18"
   style="stop-color:#ffffff;stop-opacity:1"
   offset="0" />
					<stop
   id="stop20"
   style="stop-color:#f1c779;stop-opacity:1"
   offset="1" />
					<midPointStop
   id="midPointStop22"
   style="stop-color:#FFFFFF"
   offset="0" />
					<midPointStop
   id="midPointStop24"
   style="stop-color:#FFFFFF"
   offset="0.5" />
					<midPointStop
   id="midPointStop26"
   style="stop-color:#F1C779"
   offset="1" />
				</linearGradient>
				<polygon
   points="58.124,59.075 69.011,4.021 94.33,14.146 98.857,11.184 114.974,15.876 115.994,22.608 104.104,80.252 "
   id="polygon28"
   style="fill:url(#XMLID_175_)" />
			</g>
			<polygon
   points="115.457,31.976 107.542,28.947 104.087,81.625 "
   id="polygon30"
   style="opacity:0.2" />
			<g
   id="g32">
				
					<linearGradient
   x1="-255.64549"
   y1="337.26169"
   x2="-259.45221"
   y2="310.6156"
   id="XMLID_176_"
   gradientUnits="userSpaceOnUse"
   gradientTransform="matrix(1,0,0,-1,338.4634,357.1777)">
					<stop
   id="stop35"
   style="stop-color:#ffffff;stop-opacity:1"
   offset="0" />
					<stop
   id="stop37"
   style="stop-color:#eaeb49;stop-opacity:1"
   offset="0.648" />
					<stop
   id="stop39"
   style="stop-color:#e8e847;stop-opacity:1"
   offset="0.80699998" />
					<stop
   id="stop41"
   style="stop-color:#e0de42;stop-opacity:1"
   offset="0.92549998" />
					<stop
   id="stop43"
   style="stop-color:#d7d43d;stop-opacity:1"
   offset="1" />
					<midPointStop
   id="midPointStop45"
   style="stop-color:#FFFFFF"
   offset="0" />
					<midPointStop
   id="midPointStop47"
   style="stop-color:#FFFFFF"
   offset="0.5" />
					<midPointStop
   id="midPointStop49"
   style="stop-color:#EAEB49"
   offset="0.648" />
					<midPointStop
   id="midPointStop51"
   style="stop-color:#EAEB49"
   offset="0.5" />
					<midPointStop
   id="midPointStop53"
   style="stop-color:#E8E847"
   offset="0.807" />
					<midPointStop
   id="midPointStop55"
   style="stop-color:#E8E847"
   offset="0.5" />
					<midPointStop
   id="midPointStop57"
   style="stop-color:#E0DE42"
   offset="0.9255" />
					<midPointStop
   id="midPointStop59"
   style="stop-color:#E0DE42"
   offset="0.5" />
					<midPointStop
   id="midPointStop61"
   style="stop-color:#D7D43D"
   offset="1" />
				</linearGradient>
				<polygon
   points="58.124,59.075 55.097,4.625 107.128,25.802 104.104,80.252 "
   id="polygon63"
   style="fill:url(#XMLID_176_)" />
			</g>
			<path
   d="m 67.848,9.804 c 0,0 37.042,15.314 38.272,15.824 -0.072,1.306 -2.703,51.149 -2.85,53.938 -0.791,-0.4 -1.596,-0.806 -1.596,-0.806 l -0.881,1.738 3.293,1.125 4.049,-57.266 L 68.244,7.915 67.848,9.804 z"
   id="path65"
   style="fill:#808080" />
			<g
   id="g67">
				
					<linearGradient
   x1="-293.64209"
   y1="334.30179"
   x2="-257.2294"
   y2="302.37109"
   id="XMLID_177_"
   gradientUnits="userSpaceOnUse"
   gradientTransform="matrix(1,0,0,-1,338.4634,357.1777)">
					<stop
   id="stop70"
   style="stop-color:#ffffff;stop-opacity:1"
   offset="0" />
					<stop
   id="stop72"
   style="stop-color:#f1c779;stop-opacity:1"
   offset="1" />
					<midPointStop
   id="midPointStop74"
   style="stop-color:#FFFFFF"
   offset="0" />
					<midPointStop
   id="midPointStop76"
   style="stop-color:#FFFFFF"
   offset="0.5" />
					<midPointStop
   id="midPointStop78"
   style="stop-color:#F1C779"
   offset="1" />
				</linearGradient>
				<polygon
   points="55.703,62.707 42.392,14.909 94.423,36.085 101.682,83.88 "
   id="polygon80"
   style="fill:url(#XMLID_177_)" />
			</g>
			<path
   d="m 42.739,16.104 c 0,0 49.798,20.267 50.804,20.676 0.162,1.069 7.113,46.675 7.113,46.675 l 2.1,0.882 -7.452,-48.943 -53.265,-21.697 0.7,2.407 z"
   id="path82"
   style="fill:#808080" />
			<g
   id="g84">
				<path
   d="m 29.981,58.998 c -1.111,0.258 -1.991,0.704 -2.598,1.168 L 0,85.751 0.37,97.47 32.487,114.421 c 0.833,0.455 2.133,0.984 3.376,0.802 1.092,-0.163 2.102,-0.837 2.759,-1.374 l 0.081,-0.066 28.58,-26.905 c -0.048,0.074 0.993,-1.385 0.993,-1.385 0,-0.002 0.324,-1.649 0.324,-1.649 V 80.71 c -0.052,-1.734 -1.127,-2.801 -1.455,-3.089 l -0.302,-0.263 -7.47,-3.656 c 0,0 -1.23,0.184 -1.501,0.223 C 56.367,73.13 40.682,64.831 38.566,63.711 L 38.283,62.351 32.6,59.245 32.324,59.157 C 31.978,59.046 31.092,58.741 29.981,58.998 z M 29.97,59 29.696,59.047 C 29.695,59.046 29.941,59.004 29.97,59 z"
   id="path86" />
				
					<linearGradient
   x1="-280.12299"
   y1="270.16019"
   x2="-329.33389"
   y2="273.07501"
   id="XMLID_178_"
   gradientUnits="userSpaceOnUse"
   gradientTransform="matrix(1,0,0,-1,338.4634,357.1777)">
					<stop
   id="stop89"
   style="stop-color:#808080;stop-opacity:1"
   offset="0" />
					<stop
   id="stop91"
   style="stop-color:#4d4d4d;stop-opacity:1"
   offset="1" />
					<midPointStop
   id="midPointStop93"
   style="stop-color:#808080"
   offset="0" />
					<midPointStop
   id="midPointStop95"
   style="stop-color:#808080"
   offset="0.5" />
					<midPointStop
   id="midPointStop97"
   style="stop-color:#4D4D4D"
   offset="1" />
				</linearGradient>
				<path
   d="m 30.485,61.955 c 0.476,-0.083 0.931,0.063 0.931,0.063 l 4.213,2.301 0.288,1.385 21.423,11.332 1.554,-0.229 6.275,3.07 c 0,0 0.418,0.366 0.432,0.814 0.012,0.398 -0.381,0.89 -0.381,0.89 L 36.723,108.38 c 0,0 -0.8,0.655 -1.296,0.729 -0.511,0.076 -1.54,-0.486 -1.54,-0.486 L 3.37,92.515 3.072,86.989 29.432,62.359 c -10e-4,-0.001 0.537,-0.317 1.053,-0.404 z"
   id="path99"
   style="fill:url(#XMLID_178_)" />
				<polygon
   points="35.917,65.702 23.241,77.606 44.66,88.938 57.34,77.036 "
   id="polygon101"
   style="fill:#ffffff" />
				<polygon
   points="35.917,65.702 32.841,68.764 54.26,80.096 57.34,77.036 "
   id="polygon103"
   style="fill:#3333ff" />
				<polygon
   points="35.917,65.701 32.841,68.763 41.373,73.273 44.454,70.214 "
   id="polygon105"
   style="fill:#ff0000" />
				<polygon
   points="44.66,89.981 58.893,76.806 57.339,77.035 44.66,88.938 22.202,77.125 21.711,77.886 "
   id="polygon107"
   style="opacity:0.5;fill:#ffffff" />
				<polygon
   points="58.392,79.747 56.376,81.64 59.782,83.438 61.796,81.546 "
   id="polygon109" />
				
					<linearGradient
   x1="-278.4473"
   y1="276.3945"
   x2="-278.69589"
   y2="275.96399"
   id="XMLID_179_"
   gradientUnits="userSpaceOnUse"
   gradientTransform="matrix(1,0,0,-1,338.4634,357.1777)">
					<stop
   id="stop112"
   style="stop-color:#a6a6a6;stop-opacity:1"
   offset="0" />
					<stop
   id="stop114"
   style="stop-color:#7c7c7c;stop-opacity:1"
   offset="0.44780001" />
					<stop
   id="stop116"
   style="stop-color:#4d4d4d;stop-opacity:1"
   offset="1" />
					<midPointStop
   id="midPointStop118"
   style="stop-color:#A6A6A6"
   offset="0" />
					<midPointStop
   id="midPointStop120"
   style="stop-color:#A6A6A6"
   offset="0.5" />
					<midPointStop
   id="midPointStop122"
   style="stop-color:#7C7C7C"
   offset="0.4478" />
					<midPointStop
   id="midPointStop124"
   style="stop-color:#7C7C7C"
   offset="0.5" />
					<midPointStop
   id="midPointStop126"
   style="stop-color:#4D4D4D"
   offset="1" />
				</linearGradient>
				<polygon
   points="61.796,81.547 61.335,81.991 58.396,80.437 58.392,79.748 "
   id="polygon128"
   style="fill:url(#XMLID_179_)" />
				<polygon
   points="29.913,63.795 27.895,65.691 31.303,67.491 33.321,65.599 "
   id="polygon130"
   style="fill:#2f2f2f" />
				<polygon
   points="35.917,65.702 35.623,64.317 22.023,77.08 23.241,77.606 "
   id="polygon132"
   style="fill:#2f2f2f" />
				<polyline
   opacity="0.3"
   enable-background="new    "
   points="19.016,98.555 12.716,95.267 19.636,88.711 20.714,88.711       13.794,95.267 20.094,98.555 "
   id="polyline134"
   style="opacity:0.3" />
				
					<linearGradient
   x1="-305.06839"
   y1="253.957"
   x2="-332.36639"
   y2="255.5739"
   id="XMLID_180_"
   gradientUnits="userSpaceOnUse"
   gradientTransform="matrix(1,0,0,-1,338.4634,357.1777)">
					<stop
   id="stop137"
   style="stop-color:#999999;stop-opacity:1"
   offset="0" />
					<stop
   id="stop139"
   style="stop-color:#666666;stop-opacity:1"
   offset="1" />
					<midPointStop
   id="midPointStop141"
   style="stop-color:#999999"
   offset="0" />
					<midPointStop
   id="midPointStop143"
   style="stop-color:#999999"
   offset="0.5" />
					<midPointStop
   id="midPointStop145"
   style="stop-color:#666666"
   offset="1" />
				</linearGradient>
				<path
   d="m 3.37,95.661 30.518,16.107 c 0,0 1.028,0.562 1.54,0.485 0.496,-0.073 1.296,-0.729 1.296,-0.729 v -3.146 c 0,0 -0.8,0.655 -1.296,0.729 -0.511,0.076 -1.54,-0.486 -1.54,-0.486 L 3.37,92.515"
   id="path147"
   style="fill:url(#XMLID_180_)" />
				
					<linearGradient
   x1="-276.8262"
   y1="260.04391"
   x2="-299.53049"
   y2="261.3887"
   id="XMLID_181_"
   gradientUnits="userSpaceOnUse"
   gradientTransform="matrix(1,0,0,-1,338.4634,357.1777)">
					<stop
   id="stop150"
   style="stop-color:#262626;stop-opacity:1"
   offset="0" />
					<stop
   id="stop152"
   style="stop-color:#404040;stop-opacity:1"
   offset="1" />
					<midPointStop
   id="midPointStop154"
   style="stop-color:#262626"
   offset="0" />
					<midPointStop
   id="midPointStop156"
   style="stop-color:#262626"
   offset="0.5" />
					<midPointStop
   id="midPointStop158"
   style="stop-color:#404040"
   offset="1" />
				</linearGradient>
				<path
   d="m 65.507,81.097 c -0.076,0.18 -0.176,0.322 -0.232,0.405 v -0.004 l -28.551,26.881 c 0,0 -0.8,0.655 -1.296,0.729 -0.511,0.076 -0.511,3.222 0,3.146 0.496,-0.073 1.296,-0.729 1.296,-0.729 L 65.226,84.691 v 0.032 c 0,0 0.191,-0.174 0.287,-0.399 0.092,-0.217 0.088,-0.488 0.088,-0.488 V 80.69 c 0,0.001 -0.01,0.211 -0.094,0.407 z"
   id="path160"
   style="fill:url(#XMLID_181_)" />
				
					<linearGradient
   x1="-304.62259"
   y1="246.8584"
   x2="-301.72311"
   y2="246.8584"
   id="XMLID_182_"
   gradientUnits="userSpaceOnUse"
   gradientTransform="matrix(1,0,0,-1,338.4634,357.1777)">
					<stop
   id="stop163"
   style="stop-color:#999999;stop-opacity:1"
   offset="0" />
					<stop
   id="stop165"
   style="stop-color:#404040;stop-opacity:1"
   offset="1" />
					<midPointStop
   id="midPointStop167"
   style="stop-color:#999999"
   offset="0" />
					<midPointStop
   id="midPointStop169"
   style="stop-color:#999999"
   offset="0.5" />
					<midPointStop
   id="midPointStop171"
   style="stop-color:#404040"
   offset="1" />
				</linearGradient>
				<path
   d="m 33.887,111.769 c 0,0 1.028,0.562 1.54,0.485 0.496,-0.073 1.296,-0.729 1.296,-0.729 v -3.146 c 0,0 -0.8,0.655 -1.296,0.729 -0.511,0.076 -1.54,-0.486 -1.54,-0.486 v 3.147 z"
   id="path173"
   style="fill:url(#XMLID_182_)" />
				<path
   d="M 27.866,108.573 26.91,108.45 v -0.295 l 0.046,-3.213 9.024,-8.49 -0.045,-1.004 -18.018,-9.533 18.69,9.367 c 0,0 0.449,0.425 0.502,0.854 0.055,0.428 -0.286,0.859 -0.286,0.859 l -8.921,8.376 -0.036,3.202 z"
   id="path175"
   style="opacity:0.3" />
				
					<linearGradient
   x1="-339.11871"
   y1="259.46289"
   x2="-295.81201"
   y2="260.49341"
   id="XMLID_183_"
   gradientUnits="userSpaceOnUse"
   gradientTransform="matrix(1,0,0,-1,338.4634,357.1777)">
					<stop
   id="stop178"
   style="stop-color:#ffffff;stop-opacity:1"
   offset="0" />
					<stop
   id="stop180"
   style="stop-color:#adadad;stop-opacity:1"
   offset="0.52509999" />
					<stop
   id="stop182"
   style="stop-color:#ffffff;stop-opacity:1"
   offset="0.65359998" />
					<stop
   id="stop184"
   style="stop-color:#adadad;stop-opacity:1"
   offset="0.94410002" />
					<midPointStop
   id="midPointStop186"
   style="stop-color:#FFFFFF"
   offset="0" />
					<midPointStop
   id="midPointStop188"
   style="stop-color:#FFFFFF"
   offset="0.5" />
					<midPointStop
   id="midPointStop190"
   style="stop-color:#ADADAD"
   offset="0.5251" />
					<midPointStop
   id="midPointStop192"
   style="stop-color:#ADADAD"
   offset="0.5" />
					<midPointStop
   id="midPointStop194"
   style="stop-color:#FFFFFF"
   offset="0.6536" />
					<midPointStop
   id="midPointStop196"
   style="stop-color:#FFFFFF"
   offset="0.5" />
					<midPointStop
   id="midPointStop198"
   style="stop-color:#ADADAD"
   offset="0.9441" />
				</linearGradient>
				<path
   d="M 26.91,108.155 8.183,98.248 8.205,95.059 17.351,86.45 c 0,0 0.317,-0.207 0.653,-0.264 0.271,-0.047 0.572,0.057 0.572,0.057 l 17.231,9.139 c 0,0 0.398,0.185 0.444,0.473 0.042,0.245 -0.271,0.601 -0.271,0.601 l -9.024,8.49 -0.046,3.209 z m -7.894,-9.6 6.907,-6.536 -6.286,-3.308 -6.92,6.556 6.299,3.288 z"
   id="path200"
   style="fill:url(#XMLID_183_)" />
				
					<linearGradient
   x1="-310.63669"
   y1="253.4258"
   x2="-331.5014"
   y2="257.4895"
   id="XMLID_184_"
   gradientUnits="userSpaceOnUse"
   gradientTransform="matrix(1,0,0,-1,338.4634,357.1777)">
					<stop
   id="stop203"
   style="stop-color:#ffffff;stop-opacity:1"
   offset="0" />
					<stop
   id="stop205"
   style="stop-color:#adadad;stop-opacity:1"
   offset="0.52509999" />
					<stop
   id="stop207"
   style="stop-color:#ffffff;stop-opacity:1"
   offset="0.65359998" />
					<stop
   id="stop209"
   style="stop-color:#adadad;stop-opacity:1"
   offset="1" />
					<midPointStop
   id="midPointStop211"
   style="stop-color:#FFFFFF"
   offset="0" />
					<midPointStop
   id="midPointStop213"
   style="stop-color:#FFFFFF"
   offset="0.5" />
					<midPointStop
   id="midPointStop215"
   style="stop-color:#ADADAD"
   offset="0.5251" />
					<midPointStop
   id="midPointStop217"
   style="stop-color:#ADADAD"
   offset="0.5" />
					<midPointStop
   id="midPointStop219"
   style="stop-color:#FFFFFF"
   offset="0.6536" />
					<midPointStop
   id="midPointStop221"
   style="stop-color:#FFFFFF"
   offset="0.5" />
					<midPointStop
   id="midPointStop223"
   style="stop-color:#ADADAD"
   offset="1" />
				</linearGradient>
				<polygon
   points="8.206,95.058 8.184,98.543 26.911,108.449 26.956,104.942 "
   id="polygon225"
   style="fill:url(#XMLID_184_)" />
				<polygon
   points="27.454,104.493 8.704,94.606 8.235,95.058 8.225,95.599 26.952,105.505 26.971,104.944 "
   id="polygon227"
   style="opacity:0.6;fill:#ffffff" />
				<path
   d="m 35.043,109.229 c 0.822,-0.148 1.646,-0.523 1.68,-0.851 -1.68,0.254 -1.791,0.021 -1.791,0.021 L 3.418,91.735 3.37,92.515 3.359,93.058 33.867,109.185 c 0,0 0.439,0.18 1.176,0.044 z"
   id="path229"
   style="opacity:0.6;fill:#ffffff" />
				
					<rect
   width="21.246"
   height="0.84100002"
   x="24.320999"
   y="81.892998"
   transform="matrix(-0.8845,-0.4666,0.4666,-0.8845,27.4453,171.4221)"
   id="rect231"
   style="fill:#d9d9d9" /> 
				
					<rect
   width="21.247"
   height="0.84100002"
   x="26.523001"
   y="80.045998"
   transform="matrix(-0.8845,-0.4666,0.4666,-0.8845,32.4542,168.9696)"
   id="rect233"
   style="fill:#d9d9d9" /> 
				
					<rect
   width="21.246"
   height="0.84100002"
   x="28.724001"
   y="78.197998"
   transform="matrix(-0.8845,-0.4666,0.4666,-0.8845,37.4682,166.514)"
   id="rect235"
   style="fill:#d9d9d9" /> 
				
					<rect
   width="21.245001"
   height="0.84200001"
   x="30.927"
   y="76.350998"
   transform="matrix(-0.8845,-0.4665,0.4665,-0.8845,42.4861,164.0602)"
   id="rect237"
   style="fill:#d9d9d9" /> 
			</g>
			<g
   id="g239">
				<polygon
   points="27.906,44.784 23.846,43.155 14.204,51.374 36.97,81.385 59.231,70.082 69.384,61.43 54.129,55.307 54.263,27.438 36.521,20.32 27.989,27.594 "
   id="polygon241" />
				<polygon
   points="36.954,51.647 30.849,56.852 18.307,51.818 24.412,46.614 "
   id="polygon243"
   style="fill:#009900" />
				<polygon
   points="45.148,34.667 30.982,28.983 30.848,56.852 18.307,51.818 37.846,77.574 57.555,67.568 45.014,62.536 "
   id="polygon245"
   style="fill:#33cc33" />
				<polygon
   points="51.253,29.463 51.119,57.332 63.662,62.365 57.556,67.569 45.014,62.536 45.148,34.667 30.982,28.983 37.087,23.779 "
   id="polygon247"
   style="fill:#009900" />
				<polygon
   points="51.119,57.332 45.014,62.536 45.148,34.667 51.253,29.463 "
   id="polygon249"
   style="fill:#006f00" />
			</g>
		</g>
	</svg>