<?xml version="1.0" encoding="UTF-8" standalone="no"?>
<!-- Created with Inkscape (http://www.inkscape.org/) -->

<svg
   xmlns:svg="http://www.w3.org/2000/svg"
   xmlns="http://www.w3.org/2000/svg"
   version="1.1"
   width="123"
   height="99"
   viewBox="0.25 0.387 123 99"
   id="svg2"
   xml:space="preserve"
   style="overflow:visible"><defs
   id="defs267" />
	<g
   id="Layer_1_2_">
		<path
   d="m 122.006,26.361 -2.637,4.66 -0.943,2.832 c 0.467,2.258 -0.266,3.598 -0.266,4.855 0,1.557 -0.461,2.801 -1.645,4.869 C 114.417,47.249 99.71,62.3 94.22,67.79 L 66.418,94.928 c -4.184,4.484 -9.047,5.219 -11.953,4.496 -1.66,-0.41 -2.832,-1.318 -3.131,-2.428 -0.348,-1.283 -3.07,-3.521 -1.371,-5.18 -3.203,3.916 -8.291,4.537 -11.707,3.916 -2.805,-0.51 -8.205,-3.641 -8.752,-5.273 -0.102,-0.293 -0.178,-1.016 -0.178,-1.016 -5.578,4.826 -12.225,3.771 -14.654,1.168 -0.664,-0.719 -3.564,-2.396 -3.564,-3.217 0,-1.072 4.309,-6.359 4.309,-6.359 C 13.318,83.133 49.35,33.771 49.35,33.771 l 2.182,-6.07 c 0,-4.17 -4.432,-4.512 -6.564,-4.678 l -19,4.461 c -1.674,0 -2.938,-0.445 -3.758,-1.32 -0.895,-0.951 -1.082,-2.211 -1.082,-3.1 0,-3.186 2.354,-6.746 5.502,-6.746 l 65.373,-6.016 0.148,-0.135 c 0.111,-0.102 2.812,-2.486 7.525,-1.494 12.463,2.629 19.994,6.096 22.389,10.303 0.621,1.09 0.848,2.166 0.848,3.199 -10e-4,1.518 -0.483,2.942 -0.907,4.186 z"
   id="path5"
   style="opacity:0.2" />
		<g
   id="g7">
			<path
   d="m 96.543,1.342 c -5.537,-1.168 -8.74,1.826 -8.74,1.826 L 81.18,6.48 c 0,0 -3.223,-2.094 -5.959,-1.988 H 24.229 C 16.944,4.492 13.635,18.4 23.567,18.4 h 17.879 c 2.729,0.209 5.297,0.66 5.297,3.311 L 44.757,27.008 3.699,66.742 c -7.283,7.285 4.303,14.238 9.27,9.271 L 13.073,76.04 10.984,78 c -7.283,7.285 5.982,15.008 15.916,6.398 l 1.709,-1.795 C 23.99,90.645 40.586,95.295 47.5,86.809 l 1.416,-1.379 0.139,0.037 c -8.443,8.23 5.635,14.387 14.904,4.453 L 91.771,62.77 c 0,0 19.869,-19.865 22.518,-24.502 2.65,-4.637 1.99,-5.961 0.664,-12.584 l 4.635,-3.973 C 120.99,17.174 126.348,7.629 96.543,1.342 z"
   id="path9"
   style="fill:#ffcd9a" />
			<path
   d="m 80.938,7.83 c 1.131,0.225 7.479,3.145 7.479,5.934 v 1.523 l 1.514,-0.16 c 7.818,-0.816 20.182,1.822 20.182,8.736 l -0.859,-5.594 1.885,-0.039 C 107.811,13.109 98.034,12.97 90.141,13.365 88.75,8.957 82.164,5.26 81.42,5.129 L 80.938,7.83 z"
   id="path11"
   style="opacity:0.7;fill:#cd9966" />
			<path
   d="m 22.857,14.84 25.369,-0.686 c 4.801,7.543 7.543,9.6 17.828,6.172 8.482,-2.828 14.398,-3.43 14.398,-3.43 0,0 -6.857,6.172 -13.027,8.914 -6.172,2.744 -13.713,3.43 -23.998,4.115 0.572,-4.787 6.08,-10.43 2.057,-10.971 C 32.934,17.26 23.566,18.4 23.566,18.4 l -0.709,-3.56 z"
   id="path13"
   style="opacity:0.7;fill:#cd9966" />
			<path
   d="m 114.051,7.984 c 2.057,4.113 -2.057,10.285 -4.799,10.285 0,2.742 2.742,9.598 -4.801,18.512 -7.541,8.914 -12.342,14.4 -16.455,16.457 -4.115,2.057 -4.115,6.855 -6.172,10.285 -2.057,3.428 -15.77,17.141 -15.77,17.141 0,0 -8.914,10.285 -11.656,10.285 -2.744,0 -6.172,3.43 -2.744,3.43 3.43,0 9.6,-2.059 21.256,-13.715 11.658,-11.656 42.512,-39.768 43.197,-47.996 0.688,-8.229 -1.154,-6.984 -1.154,-6.984 4.635,-3.973 10.068,-13.586 -0.902,-17.7 z"
   id="path15"
   style="opacity:0.7;fill:#cd9966" />
			<path
   d="m 65.369,55.98 c 0,0 4.113,2.742 2.742,4.801 -1.371,2.057 -10.971,7.541 -11.656,10.285 -4.113,2.742 -8.229,8.227 -9.6,10.971 -1.371,2.742 -8.914,4.113 -11.656,4.113 -2.742,0 -3.428,4.799 -0.686,4.799 2.742,0 9.52,-0.742 12.986,-4.141 L 71.538,62.837 c 0,0 3.43,-3.43 5.486,-2.057 -3.428,-1.372 -11.655,-4.8 -11.655,-4.8 z"
   id="path17"
   style="opacity:0.7;fill:#cd9966" />
			<path
   d="m 44.799,51.867 c 0,0 4.113,2.742 2.742,4.799 -1.371,2.057 -10.971,7.543 -11.656,10.285 -4.113,2.742 -8.229,8.229 -9.6,10.971 -1.371,2.742 -8.914,4.115 -11.656,4.115 -2.742,0 -3.428,4.799 -0.686,4.799 2.742,0 9.52,-0.742 12.988,-4.143 L 50.968,58.722 c 0,0 3.43,-3.428 5.486,-2.057 -3.427,-1.37 -11.655,-4.798 -11.655,-4.798 z"
   id="path19"
   style="opacity:0.7;fill:#cd9966" />
			<path
   d="m 35.885,41.582 c 0,0 4.113,2.742 2.742,4.799 -1.371,2.057 -10.971,7.543 -11.656,10.285 -4.113,2.742 -8.229,8.229 -9.6,10.971 -1.371,2.742 -8.914,4.115 -11.656,4.115 -2.742,0 -3.428,4.799 -0.686,4.799 2.742,0 9.52,-0.742 12.988,-4.143 L 42.056,48.437 c 0,0 3.428,-3.428 5.484,-2.057 -3.427,-1.37 -11.655,-4.798 -11.655,-4.798 z"
   id="path21"
   style="opacity:0.7;fill:#cd9966" />
			<path
   d="m 49.598,31.982 c 4.801,0.686 15.086,4.799 17.828,6.855 2.742,2.059 13.713,2.059 15.084,6.172 C 78.397,42.267 73.688,44.101 68.797,42.267 63.313,40.21 58.512,38.837 55.77,37.466 53.028,36.095 49.598,31.982 49.598,31.982 z"
   id="path23"
   style="opacity:0.7;fill:#cd9966" />
			<path
   d="m 53.713,29.24 c 6.17,0 24.684,-1.373 28.797,-4.801 -6.17,6.172 -21.256,9.6 -28.797,4.801 z"
   id="path25"
   style="opacity:0.7;fill:#cd9966" />
			<path
   d="m 67.426,45.695 c 6.17,1.371 10.971,0.686 13.027,2.057 2.056,1.371 2.742,4.801 2.742,4.801 -4.113,-2.057 -13.713,-6.172 -15.769,-6.858 z"
   id="path27"
   style="opacity:0.7;fill:#cd9966" />
			<path
   d="m 21.555,15.592 c -2.057,-4.801 1.93,-6.033 3.986,-6.719 2.056,-0.686 28.799,0 28.799,0 0,0 19.883,-1.371 21.941,0 2.057,1.371 6.855,-0.686 8.912,0.686 -5.484,-2.742 -11.83,-5.086 -18,-4.398 -6.172,0.685 -43.023,0.22 -43.023,0.22 0,0 -9.729,5.834 -2.615,10.211 z"
   id="path29"
   style="opacity:0.95;fill:#ffffff" />
			<path
   d="m 5.072,70.764 c 2.234,-1.117 6.674,-4.912 7.789,-7.146 1.119,-2.232 2.236,-3.908 5.029,-5.584 2.791,-1.676 10.053,-7.26 11.17,-9.494 1.117,-2.236 5.023,-6.145 5.023,-6.145 l 3.303,-1.631 3.842,-8.705 -35.624,33.795 c 0,0 -1.645,3.234 -0.532,4.91 z"
   id="path31"
   style="opacity:0.95;fill:#ffffff" />
			<path
   d="m 13.814,80.826 c 2.234,-1.117 6.67,-4.912 7.789,-7.146 1.113,-2.234 2.234,-3.91 5.025,-5.584 2.793,-1.676 10.055,-7.26 11.17,-9.496 1.117,-2.234 5.027,-6.145 5.027,-6.145 L 47.886,51.519 43.943,47.427 14.34,75.914 c 0,0 -1.645,3.236 -0.526,4.912 z"
   id="path33"
   style="opacity:0.95;fill:#ffffff" />
			<path
   d="m 31.23,85.691 c 2.232,-1.117 6.668,-4.912 7.787,-7.146 1.115,-2.234 2.234,-3.908 5.025,-5.584 2.793,-1.676 10.055,-7.26 11.172,-9.496 1.117,-2.234 1.123,-2.727 1.123,-2.727 l 6.912,-4.352 -9.73,-2.562 2.945,2.854 -24.71,24.101 c 0,0 -1.645,3.237 -0.524,4.912 z"
   id="path35"
   style="opacity:0.95;fill:#ffffff" />
			<path
   d="m 50.176,90.301 c 2.234,-1.117 6.672,-4.912 7.793,-7.146 1.113,-2.234 2.232,-3.908 5.023,-5.584 2.795,-1.676 10.055,-7.26 11.172,-9.496 1.117,-2.234 1.123,-2.727 1.123,-2.727 l 6.912,-4.352 -9.73,-2.562 2.947,2.854 -24.709,24.101 c 0,0 -1.645,3.236 -0.531,4.912 z"
   id="path37"
   style="opacity:0.95;fill:#ffffff" />
			<path
   d="m 122.242,16.168 c 0,-1.426 -0.311,-2.961 -1.211,-4.541 C 118.191,6.641 110.275,2.838 96.826,0 91.162,-1.195 87.73,1.439 87.076,1.998 86.885,2.094 82.287,4.393 81.23,4.92 80.041,4.256 77.515,3.031 75.166,3.123 L 24.229,3.121 c -4.859,0 -8.244,5 -8.244,9.488 0,1.984 0.633,3.707 1.824,4.977 0.934,0.998 2.693,2.186 5.758,2.186 h 17.879 c 3.119,0.244 3.822,0.807 3.895,1.777 -0.201,0.535 -1.578,4.205 -1.76,4.688 C 43.141,26.662 2.744,65.758 2.744,65.758 0.758,67.746 0,69.732 0,71.514 c 0,1.939 0.898,3.637 2.094,4.83 1.617,1.619 4.025,2.611 6.418,2.666 -1.479,2.564 -1.27,5.322 0.738,7.477 3.498,3.762 11.031,4.398 17.285,-0.129 0.051,0.26 0.109,0.506 0.184,0.732 0.891,2.641 3.74,4.643 7.629,5.35 3.059,0.557 7.23,0.258 10.762,-1.822 0.018,0.43 0.08,0.805 0.16,1.104 0.574,2.117 2.438,3.711 5.115,4.375 3.631,0.898 9.629,0.068 14.576,-5.24 C 64.918,90.898 92.73,63.75 92.73,63.75 c 0.828,-0.826 20.041,-20.061 22.752,-24.803 1.467,-2.57 1.998,-4.312 1.998,-6.238 0,-1.547 -0.344,-3.213 -0.82,-5.523 l 4.109,-4.682 c 10e-4,0 1.473,-4.363 1.473,-6.336 z m -3.656,4.201 -5.137,4.799 0.523,2.572 c 0.467,2.258 0.77,3.719 0.77,4.977 0,1.557 -0.461,2.803 -1.645,4.869 C 111,41.26 96.293,56.311 90.803,61.799 L 63,88.938 c -4.184,4.482 -9.047,5.215 -11.953,4.496 -1.66,-0.412 -2.83,-1.32 -3.131,-2.43 -0.348,-1.281 0.396,-2.9 2.094,-4.557 l -0.088,-0.092 c 5.375,-5.234 25.049,-24.41 25.049,-24.41 l -5.062,-0.951 1.047,1.039 -24.41,23.793 c -3.203,3.914 -8.289,4.537 -11.707,3.916 -2.805,-0.512 -4.969,-1.895 -5.516,-3.525 -0.102,-0.297 -0.145,-0.594 -0.145,-0.891 0,-0.658 0.223,-1.307 0.547,-1.906 1.473,-1.545 3.252,-3.41 3.252,-3.41 l -0.12,-0.11 c 4.816,-4.678 17.279,-16.785 20.451,-19.867 0.477,-0.463 3.029,-1.6 3.029,-1.6 l -5.379,-2.305 0.418,1.957 -22.413,21.776 c -0.588,0.641 -1.027,1.252 -1.389,1.844 l -1.666,1.748 c -5.576,4.824 -12.225,3.771 -14.654,1.166 -0.664,-0.717 -0.996,-1.5 -0.996,-2.318 0,-1.07 0.568,-2.203 1.695,-3.332 0.002,0 31.756,-29.768 31.756,-29.768 l -2.738,-3.826 -0.768,3.84 -28.125,25.91 -0.08,-0.08 C 9.902,77.141 6.062,76.438 4.033,74.406 2.107,72.482 2.34,70.041 4.668,67.713 l 41.264,-39.934 2.184,-6.068 c 0,-4.172 -4.434,-4.514 -6.566,-4.678 L 23.568,17.029 c -1.674,0 -2.938,-0.445 -3.758,-1.32 -0.895,-0.951 -1.082,-2.211 -1.082,-3.1 0,-3.186 2.355,-6.746 5.502,-6.746 h 50.992 c 1.928,-0.074 4.412,1.252 5.215,1.768 l 0.656,0.426 7.494,-3.746 0.146,-0.135 c 0.113,-0.102 2.812,-2.486 7.525,-1.492 12.463,2.629 19.996,6.094 22.389,10.301 0.623,1.092 0.848,2.166 0.848,3.201 -0.001,1.517 -0.485,2.939 -0.909,4.183 z"
   id="path39" />
		</g>
		<path
   d="m 57.186,6.469 -26.768,26.249 0.034,18.843 23.737,12.173 1.013,-1.035 c 0,0 0.534,-0.546 1.07,-1.09 1.633,0.839 6.323,3.245 6.323,3.245 L 63.61,63.855 90.372,37.598 V 22.011 L 89.308,21.45 58.202,5.48 57.186,6.469 z"
   id="path41" />
		<path
   d="m 36.002,52.162 -1.754,2.02 c 0,0 7.098,2.212 8.795,3.175 1.697,0.963 4.742,3.927 4.742,3.927 l 2.146,1.126 c 0,0 2.282,0.278 3.92,1.137 1.568,0.822 2.494,2.228 2.494,2.228 l 3.199,-2.84 3.006,1.318 9.169,1.211 c 0,0 3.054,-3.213 7.468,-7.096 3.453,-3.036 4.426,-8.118 8.104,-11.461 5.459,-4.962 12.466,-9.843 12.466,-9.843 L 89.607,32.205 36.002,52.162 z"
   id="path43"
   style="opacity:0.25" />
		<g
   id="g45">
			<linearGradient
   x1="62.317402"
   y1="48.7183"
   x2="52.0065"
   y2="48.042"
   id="XMLID_1_"
   gradientUnits="userSpaceOnUse">
				<stop
   id="stop48"
   style="stop-color:#a1a1a1;stop-opacity:1"
   offset="0" />
				<stop
   id="stop50"
   style="stop-color:#888888;stop-opacity:1"
   offset="1" />
				<midPointStop
   id="midPointStop52"
   style="stop-color:#A1A1A1"
   offset="0" />
				<midPointStop
   id="midPointStop54"
   style="stop-color:#A1A1A1"
   offset="0.5306" />
				<midPointStop
   id="midPointStop56"
   style="stop-color:#888888"
   offset="1" />
			</linearGradient>
			<path
   d="M 62.195,61.906 32.955,46.89 V 33.598 l 29.24,15.02 v 13.288 z"
   id="path58"
   style="fill:url(#XMLID_1_)" />
		</g>
		<g
   id="g60">
			<path
   d="M 87.84,36.742 62.195,61.906 V 48.613 L 87.84,23.449 v 13.293 z"
   id="path62"
   style="fill:#262626" />
		</g>
		<g
   id="g64">
			<linearGradient
   x1="51.6875"
   y1="44.6973"
   x2="54.7267"
   y2="39.052898"
   id="XMLID_2_"
   gradientUnits="userSpaceOnUse">
				<stop
   id="stop67"
   style="stop-color:#f2f2f2;stop-opacity:1"
   offset="0" />
				<stop
   id="stop69"
   style="stop-color:#d4d4d4;stop-opacity:1"
   offset="0.62089998" />
				<stop
   id="stop71"
   style="stop-color:#bfbfbf;stop-opacity:1"
   offset="1" />
				<midPointStop
   id="midPointStop73"
   style="stop-color:#F2F2F2"
   offset="0" />
				<midPointStop
   id="midPointStop75"
   style="stop-color:#F2F2F2"
   offset="0.5306" />
				<midPointStop
   id="midPointStop77"
   style="stop-color:#BFBFBF"
   offset="1" />
			</linearGradient>
			<path
   d="m 62.195,48.613 -29.24,-15.008 6.688,-6.572 1.148,0.535 1.807,-3.504 L 58.604,8.426 87.84,23.438 62.195,48.613 z"
   id="path79"
   style="fill:url(#XMLID_2_)" />
		</g>
		<g
   id="g81">
			<g
   id="g83">
				<linearGradient
   x1="39.6665"
   y1="56.679699"
   x2="43.373501"
   y2="52.972301"
   id="XMLID_3_"
   gradientUnits="userSpaceOnUse">
					<stop
   id="stop86"
   style="stop-color:#b3b3b3;stop-opacity:1"
   offset="0" />
					<stop
   id="stop88"
   style="stop-color:#949494;stop-opacity:1"
   offset="0.80809999" />
					<stop
   id="stop90"
   style="stop-color:#8c8c8c;stop-opacity:1"
   offset="1" />
					<midPointStop
   id="midPointStop92"
   style="stop-color:#B3B3B3"
   offset="0" />
					<midPointStop
   id="midPointStop94"
   style="stop-color:#B3B3B3"
   offset="0.5306" />
					<midPointStop
   id="midPointStop96"
   style="stop-color:#8C8C8C"
   offset="1" />
				</linearGradient>
				<path
   d="M 53.635,60.598 32.979,49.992 V 45.48 l 20.656,10.61 v 4.508 z"
   id="path98"
   style="fill:url(#XMLID_3_)" />
			</g>
			<path
   d="m 35.893,41.533 v 5.293 L 59.112,58.748 V 51.357 L 35.893,39.434 v 2.099 z"
   id="path100" />
			<g
   id="g102">
				<path
   d="m 57.611,56.492 -3.977,4.055 v -4.51 l 3.977,-4.059 v 4.514 z"
   id="path104"
   style="fill:#262626" />
			</g>
			<g
   id="g106">
				<linearGradient
   x1="44.236801"
   y1="51.319302"
   x2="45.534"
   y2="48.168598"
   id="XMLID_4_"
   gradientUnits="userSpaceOnUse">
					<stop
   id="stop109"
   style="stop-color:#f2f2f2;stop-opacity:1"
   offset="0" />
					<stop
   id="stop111"
   style="stop-color:#d4d4d4;stop-opacity:1"
   offset="0.62089998" />
					<stop
   id="stop113"
   style="stop-color:#bfbfbf;stop-opacity:1"
   offset="1" />
					<midPointStop
   id="midPointStop115"
   style="stop-color:#F2F2F2"
   offset="0" />
					<midPointStop
   id="midPointStop117"
   style="stop-color:#F2F2F2"
   offset="0.5306" />
					<midPointStop
   id="midPointStop119"
   style="stop-color:#BFBFBF"
   offset="1" />
				</linearGradient>
				<path
   d="M 53.635,56.088 32.979,45.48 l 3.982,-4.061 20.65,10.6 -3.976,4.069 z"
   id="path121"
   style="fill:url(#XMLID_4_)" />
			</g>
		</g>
		<g
   id="g123">
			<linearGradient
   x1="76.976601"
   y1="41.2939"
   x2="79.080902"
   y2="43.632198"
   id="XMLID_5_"
   gradientUnits="userSpaceOnUse">
				<stop
   id="stop126"
   style="stop-color:#404040;stop-opacity:1"
   offset="0" />
				<stop
   id="stop128"
   style="stop-color:#242424;stop-opacity:1"
   offset="1" />
				<midPointStop
   id="midPointStop130"
   style="stop-color:#404040"
   offset="0" />
				<midPointStop
   id="midPointStop132"
   style="stop-color:#404040"
   offset="0.5" />
				<midPointStop
   id="midPointStop134"
   style="stop-color:#242424"
   offset="1" />
			</linearGradient>
			<path
   d="M 87.84,36.684 68.899,55.274 V 49 L 87.84,30.408 v 6.276 z"
   id="path136"
   style="fill:url(#XMLID_5_)" />
		</g>
		<g
   id="g138">
			<linearGradient
   x1="74.940399"
   y1="46.4604"
   x2="77.476097"
   y2="39.191601"
   id="XMLID_6_"
   gradientUnits="userSpaceOnUse">
				<stop
   id="stop141"
   style="stop-color:#424242;stop-opacity:1"
   offset="0" />
				<stop
   id="stop143"
   style="stop-color:#262626;stop-opacity:1"
   offset="1" />
				<midPointStop
   id="midPointStop145"
   style="stop-color:#424242"
   offset="0" />
				<midPointStop
   id="midPointStop147"
   style="stop-color:#424242"
   offset="0.5306" />
				<midPointStop
   id="midPointStop149"
   style="stop-color:#262626"
   offset="1" />
			</linearGradient>
			<path
   d="m 87.83,29.125 -17.217,16.9 -0.012,-3.041 -1.703,1.18 1.695,-3.779 17.271,-16.91 -0.034,5.65 z"
   id="path151"
   style="fill:url(#XMLID_6_)" />
		</g>
		<g
   id="g153">
			<linearGradient
   x1="40.3433"
   y1="31.5933"
   x2="68.316597"
   y2="25.214701"
   id="XMLID_7_"
   gradientUnits="userSpaceOnUse">
				<stop
   id="stop156"
   style="stop-color:#ffffff;stop-opacity:1"
   offset="0" />
				<stop
   id="stop158"
   style="stop-color:#e1e1e1;stop-opacity:1"
   offset="0.50620002" />
				<stop
   id="stop160"
   style="stop-color:#bfbfbf;stop-opacity:1"
   offset="1" />
				<midPointStop
   id="midPointStop162"
   style="stop-color:#FFFFFF"
   offset="0" />
				<midPointStop
   id="midPointStop164"
   style="stop-color:#FFFFFF"
   offset="0.5306" />
				<midPointStop
   id="midPointStop166"
   style="stop-color:#BFBFBF"
   offset="1" />
			</linearGradient>
			<path
   d="M 70.701,40.264 68.922,44.08 68.914,42.021 40.875,27.662 42.598,24.064 58.604,8.426 87.84,23.438 70.701,40.264 z"
   id="path168"
   style="fill:url(#XMLID_7_)" />
		</g>
		<g
   id="g170">
			<path
   d="M 68.898,35.742 48.234,25.392 59.451,14.374 80.127,24.72 68.898,35.742 z"
   id="path172"
   style="fill:#222221" />
		</g>
		<g
   id="g174">
			<linearGradient
   x1="68.919899"
   y1="21.0488"
   x2="67.461197"
   y2="24.0396"
   id="XMLID_8_"
   gradientUnits="userSpaceOnUse">
				<stop
   id="stop177"
   style="stop-color:#f2f2f2;stop-opacity:1"
   offset="0" />
				<stop
   id="stop179"
   style="stop-color:#d4d4d4;stop-opacity:1"
   offset="0.1619" />
				<stop
   id="stop181"
   style="stop-color:#bbbbbb;stop-opacity:1"
   offset="0.2793" />
				<stop
   id="stop183"
   style="stop-color:#b6b6b6;stop-opacity:1"
   offset="0.37900001" />
				<stop
   id="stop185"
   style="stop-color:#a7a7a7;stop-opacity:1"
   offset="0.50139999" />
				<stop
   id="stop187"
   style="stop-color:#8e8e8e;stop-opacity:1"
   offset="0.63559997" />
				<stop
   id="stop189"
   style="stop-color:#6b6b6b;stop-opacity:1"
   offset="0.77829999" />
				<stop
   id="stop191"
   style="stop-color:#3f3f3f;stop-opacity:1"
   offset="0.92619997" />
				<stop
   id="stop193"
   style="stop-color:#262626;stop-opacity:1"
   offset="1" />
				<midPointStop
   id="midPointStop195"
   style="stop-color:#F2F2F2"
   offset="0" />
				<midPointStop
   id="midPointStop197"
   style="stop-color:#F2F2F2"
   offset="0.5306" />
				<midPointStop
   id="midPointStop199"
   style="stop-color:#BBBBBB"
   offset="0.2793" />
				<midPointStop
   id="midPointStop201"
   style="stop-color:#BBBBBB"
   offset="0.6642" />
				<midPointStop
   id="midPointStop203"
   style="stop-color:#262626"
   offset="1" />
			</linearGradient>
			<path
   d="M 75.615,29.154 57.688,20.58 c 0,0 -0.365,-2.035 0,-3.15 0.363,-1.119 1.764,-3.055 1.764,-3.055 l 20.676,10.346 -4.513,4.433 z"
   id="path205"
   style="fill:url(#XMLID_8_)" />
		</g>
		<g
   id="g207">
			<linearGradient
   x1="66.609398"
   y1="25.1001"
   x2="62.988201"
   y2="32.8153"
   id="XMLID_9_"
   gradientUnits="userSpaceOnUse">
				<stop
   id="stop210"
   style="stop-color:#ffffff;stop-opacity:1"
   offset="0" />
				<stop
   id="stop212"
   style="stop-color:#fffffd;stop-opacity:1"
   offset="0.0082" />
				<stop
   id="stop214"
   style="stop-color:#ffffd9;stop-opacity:1"
   offset="0.1541" />
				<stop
   id="stop216"
   style="stop-color:#fefebe;stop-opacity:1"
   offset="0.2906" />
				<stop
   id="stop218"
   style="stop-color:#fefeaf;stop-opacity:1"
   offset="0.4127" />
				<stop
   id="stop220"
   style="stop-color:#fefea9;stop-opacity:1"
   offset="0.50840002" />
				<stop
   id="stop222"
   style="stop-color:#e9e99b;stop-opacity:1"
   offset="0.57130003" />
				<stop
   id="stop224"
   style="stop-color:#c6c684;stop-opacity:1"
   offset="0.69370002" />
				<stop
   id="stop226"
   style="stop-color:#adad74;stop-opacity:1"
   offset="0.80949998" />
				<stop
   id="stop228"
   style="stop-color:#9e9e69;stop-opacity:1"
   offset="0.91469997" />
				<stop
   id="stop230"
   style="stop-color:#999966;stop-opacity:1"
   offset="1" />
				<midPointStop
   id="midPointStop232"
   style="stop-color:#FFFFFF"
   offset="0" />
				<midPointStop
   id="midPointStop234"
   style="stop-color:#FFFFFF"
   offset="0.3444" />
				<midPointStop
   id="midPointStop236"
   style="stop-color:#FEFEA9"
   offset="0.5084" />
				<midPointStop
   id="midPointStop238"
   style="stop-color:#FEFEA9"
   offset="0.3371" />
				<midPointStop
   id="midPointStop240"
   style="stop-color:#999966"
   offset="1" />
			</linearGradient>
			<path
   d="M 68.898,35.742 54.076,28.283 c 0,0 0.539,-2.389 2.365,-3.938 2.043,-1.73 2.992,-4.406 2.992,-4.406 l 16.41,9.006 -6.945,6.797 z"
   id="path242"
   style="fill:url(#XMLID_9_)" />
		</g>
		<g
   id="g244">
			<linearGradient
   x1="58.900902"
   y1="34.861801"
   x2="63.16"
   y2="26.8759"
   id="XMLID_10_"
   gradientUnits="userSpaceOnUse">
				<stop
   id="stop247"
   style="stop-color:#f2f2f2;stop-opacity:1"
   offset="0" />
				<stop
   id="stop249"
   style="stop-color:#d4d4d4;stop-opacity:1"
   offset="0.62089998" />
				<stop
   id="stop251"
   style="stop-color:#bfbfbf;stop-opacity:1"
   offset="1" />
				<midPointStop
   id="midPointStop253"
   style="stop-color:#F2F2F2"
   offset="0" />
				<midPointStop
   id="midPointStop255"
   style="stop-color:#F2F2F2"
   offset="0.5306" />
				<midPointStop
   id="midPointStop257"
   style="stop-color:#BFBFBF"
   offset="1" />
			</linearGradient>
			<path
   d="M 80.143,24.844 79.104,24.323 68.999,34.218 49.173,24.294 48.064,25.372 68.937,35.819 80.143,24.844 z"
   id="path259"
   style="fill:url(#XMLID_10_)" />
		</g>
		<g
   id="g261">
			<path
   d="M 87.84,29.082 70.613,46.062 70.586,40.64 68.906,44.201 68.892,49.006 87.84,30.42 v -1.338 z"
   id="path263" />
		</g>
	</g>
</svg>