<?xml version="1.0" encoding="UTF-8" standalone="yes"?>
<svg width="123" height="127" color-interpolation="linearRGB">
 <g>
  <path style="fill:#000000; fill-opacity:0.2"
        d="M93.83 86.58l22.08 -18.45l-13.77 -7.89l-8.29 26.36l-0.01 -0.01z"
  />
  <path style="fill:#000000"
        d="M54.81 5.26c0 0 -0.25 1.16 -0.47 2.25c-3.81 -1.43 -14.51 -5.43 -14.51 -5.43c0 0 0.65 10.85 0.92 15.34c-4.23 -1.57 -15.63 -5.85 -15.63 -5.85l16.09 53.2l52.2 21.88l3.65 -2.81l13.43 -59.93l-1.44 -8.81l-20.25 -5.42c0 0 -3.23 1.93 -4.62 2.77c-2.65 -0.97 -28.65 -10.53 -28.65 -10.53l-0.72 3.34l0.01 -0z"
  />
  <path style="fill:#000000"
        d="M107.4 23.85l-1.06 -6.53l-17 -4.54l-4.77 2.86l-26.69 -9.81l-1.2 5.61l-13.45 -5.03l0.91 15.34l-14.31 -5.36l14.04 46.37l48.49 20.54l-0.81 -4.94l3.37 1.41l12.54 -55.93l-0.02 0.01z"
  />
  <linearGradient id="gradient0" gradientUnits="userSpaceOnUse" x1="46.34" y1="42.79" x2="107.4" y2="42.79">
   <stop offset="0" stop-color="#ffffff"/>
   <stop offset="1" stop-color="#f1c779"/>
  </linearGradient>
  <path style="fill:url(#gradient0)"
        d="M94.84 79.8l-48.48 -20.55l11.47 -53.43l26.7 9.81l4.76 -2.86l17 4.54l1.06 6.53l-12.54 55.94l0.01 0.01z"
  />
  <linearGradient id="gradient1" gradientUnits="userSpaceOnUse" x1="76.18" y1="44.38" x2="79.26" y2="30.15">
   <stop offset="0" stop-color="#a68b54"/>
   <stop offset="1" stop-color="#f1c779"/>
  </linearGradient>
  <path style="fill:url(#gradient1)"
        d="M105.55 32.06l-10.69 47.72l-48.49 -20.54l9.04 -42.09l50.14 14.91l-0 0z"
  />
  <linearGradient id="gradient2" gradientUnits="userSpaceOnUse" x1="72.4" y1="21.23" x2="68.38" y2="47.09">
   <stop offset="0" stop-color="#ffffff"/>
   <stop offset="0.648" stop-color="#eaeb49"/>
   <stop offset="0.8069" stop-color="#e8e847"/>
   <stop offset="0.9254" stop-color="#e0de42"/>
   <stop offset="1" stop-color="#d7d43d"/>
  </linearGradient>
  <path style="fill:url(#gradient2)"
        d="M94.84 79.8l-48.48 -20.55l-3.19 -52.84l54.88 20.54l-3.18 52.84h-0.02z"
  />
  <path style="fill:#808080"
        d="M56.61 11.42c0 0 39.06 14.86 40.37 15.35c-0.06 1.26 -2.85 49.64 -3 52.34c-0.83 -0.37 -1.68 -0.77 -1.68 -0.77l-0.92 1.68l3.47 1.08l4.26 -55.56l-42.06 -15.95l-0.4 1.82l-0.02 0.01z"
  />
  <linearGradient id="gradient3" gradientUnits="userSpaceOnUse" x1="32.31" y1="24.11" x2="70.73" y2="55.09">
   <stop offset="0" stop-color="#ffffff"/>
   <stop offset="1" stop-color="#f1c779"/>
  </linearGradient>
  <path style="fill:url(#gradient3)"
        d="M92.3 83.31l-48.49 -20.54l-14.04 -46.38l54.88 20.54l7.65 46.38z"
  />
  <path style="fill:#808080"
        d="M30.12 17.54c0 0 52.52 19.65 53.58 20.05c0.16 1.03 7.5 45.29 7.5 45.29l2.2 0.84l-7.86 -47.49l-56.18 -21.05l0.73 2.33l0.01 0.02z"
  />
  <path style="fill:#000000"
        d="M50.75 108.38l-11.15 -10.72c-1.58 -1.52 -4.31 -2.08 -6.6 -1.45c-1.86 -0.95 -4.35 -1.06 -6.28 -0.16l-14.14 6.58c-1.44 0.67 -2.4 1.82 -2.64 3.15c-0.22 1.26 0.23 2.55 1.25 3.53l11.15 10.72c1.58 1.52 4.31 2.08 6.6 1.45c1.86 0.95 4.35 1.06 6.28 0.16c0 -0 14.14 -6.58 14.14 -6.58c1.44 -0.67 2.4 -1.82 2.64 -3.15c0.22 -1.26 -0.23 -2.55 -1.26 -3.53z"
  />
  <path style="fill:#000000"
        d="M45.7 52.68l-45.7 15.87l9.26 10.71l47.05 -16.34l-9.26 -10.71l-1.34 0.46z"
  />
  <linearGradient id="gradient4" gradientUnits="userSpaceOnUse" x1="44.28" y1="67.85" x2="39.15" y2="113.01">
   <stop offset="0" stop-color="#fdfeed"/>
   <stop offset="1" stop-color="#fff24b"/>
  </linearGradient>
  <path style="fill:url(#gradient4)"
        d="M50.67 114.24l-45.21 -22.98l27.51 -26.5l45.21 22.98l-27.51 26.5z"
  />
  <path style="fill:#000000"
        d="M31.53 63.37l-29.45 28.37l48.97 24.89l30.52 -29.4l-48.97 -24.89l-1.06 1.02z"
  />
  <linearGradient id="gradient5" gradientUnits="userSpaceOnUse" x1="44.28" y1="67.85" x2="39.15" y2="113.01">
   <stop offset="0" stop-color="#fdfeed"/>
   <stop offset="1" stop-color="#ffff99"/>
  </linearGradient>
  <path style="fill:url(#gradient5)"
        d="M50.67 114.24l-45.21 -22.98l27.51 -26.5l45.21 22.98l-27.51 26.5z"
  />
  <linearGradient id="gradient6" gradientUnits="userSpaceOnUse" x1="49.58" y1="71.47" x2="22.53" y2="89.37">
   <stop offset="0" stop-color="#fdfeed"/>
   <stop offset="1" stop-color="#ff6666"/>
  </linearGradient>
  <path style="fill:url(#gradient6)"
        d="M39.87 89.92l-17.77 -9.03l10.81 -10.41l17.77 9.03l-10.81 10.41z"
  />
  <path style="fill:#999999"
        d="M23.81 82.83l-3.19 -1.62l1.94 -1.87l3.19 1.62l-1.94 1.87z"
  />
  <path style="fill:#999999"
        d="M24.51 89.92l-3.19 -1.62l1.94 -1.87l3.19 1.62l-1.94 1.87z"
  />
  <path style="fill:#999999"
        d="M38.26 88.9l-3.19 -1.62l1.94 -1.87l3.19 1.62l-1.94 1.87z"
  />
  <linearGradient id="gradient7" gradientUnits="userSpaceOnUse" x1="47.51" y1="84.46" x2="30.09" y2="99.9">
   <stop offset="0" stop-color="#d8daa1"/>
   <stop offset="1" stop-color="#5c5c3a"/>
  </linearGradient>
  <path style="fill:url(#gradient7)"
        d="M48.92 80.83l-15.4 15.38c-0.51 0.5 1.49 1.75 2 1.25c0 0 15.66 -16.02 15.19 -16.56c-0.47 -0.54 -1.28 -0.57 -1.79 -0.07z"
  />
  <linearGradient id="gradient8" gradientUnits="userSpaceOnUse" x1="56.36" y1="87.06" x2="40.79" y2="98.17">
   <stop offset="0" stop-color="#d8daa1"/>
   <stop offset="1" stop-color="#5c5c3a"/>
  </linearGradient>
  <path style="fill:url(#gradient8)"
        d="M39.72 98.55c-0.51 0.49 1.86 1.76 2.38 1.25l11.93 -11.83c0.51 -0.5 0.54 -1.34 0.06 -1.88c-0.47 -0.54 -14.38 12.45 -14.38 12.45z"
  />
  <linearGradient id="gradient9" gradientUnits="userSpaceOnUse" x1="62.24" y1="88.7" x2="53.7" y2="95.51">
   <stop offset="0" stop-color="#d8daa1"/>
   <stop offset="1" stop-color="#5c5c3a"/>
  </linearGradient>
  <path style="fill:url(#gradient9)"
        d="M60.76 86.91l-15.57 15.3c-0.51 0.5 1.66 1.83 2.17 1.33c0 0 15.66 -16.02 15.19 -16.56c-0.47 -0.54 -1.28 -0.57 -1.79 -0.07z"
  />
  <path style="fill:#000000; fill-opacity:0.298"
        d="M46.53 84.61h26.41l1.22 -1.13l-8.53 -3.66l-8.18 0.06l-10.92 4.73z"
  />
  <linearGradient id="gradient10" gradientUnits="userSpaceOnUse" x1="76.8" y1="49.02" x2="83.36" y2="49.55">
   <stop offset="0" stop-color="#ffffff"/>
   <stop offset="0.2071" stop-color="#ffefef"/>
   <stop offset="0.6076" stop-color="#ffc7c7"/>
   <stop offset="1" stop-color="#ff9999"/>
  </linearGradient>
  <path style="fill:url(#gradient10)"
        d="M78.11 51.51c-2.05 -1.96 -2.7 -4.54 -1.43 -5.75c1.26 -1.21 3.95 -0.6 6.01 1.35c2.05 1.96 2.7 4.54 1.43 5.75c-1.26 1.21 -3.95 0.6 -6.01 -1.35z"
  />
  <path style="fill:#000000"
        d="M1.28 68.84l8.3 9.59l45.45 -15.78l-8.3 -9.59l-45.45 15.78z"
  />
  <path style="fill:#000000; fill-opacity:0.2"
        d="M9.1 78.36l-9.1 -9.79l9.25 12.19l46.31 -15.69l-3.58 -1.83l-42.88 15.13z"
  />
  <linearGradient id="gradient11" gradientUnits="userSpaceOnUse" x1="3.71" y1="69.69" x2="53.01" y2="61.73">
   <stop offset="0" stop-color="#d9d9d9"/>
   <stop offset="0.0623" stop-color="#c7c7c7"/>
   <stop offset="0.1853" stop-color="#999999"/>
   <stop offset="0.3876" stop-color="#d9d9d9"/>
   <stop offset="0.4462" stop-color="#c7c7c7"/>
   <stop offset="0.5618" stop-color="#999999"/>
   <stop offset="0.736" stop-color="#d9d9d9"/>
   <stop offset="0.804" stop-color="#c7c7c7"/>
   <stop offset="0.9381" stop-color="#999999"/>
  </linearGradient>
  <path style="fill:url(#gradient11)"
        d="M52.9 62.04l-42.98 14.93l-6.5 -7.52l42.98 -14.93l6.5 7.52z"
  />
  <path style="fill:none; stroke:#333333; stroke-width:1"
        d="M9.53 37.72l6.43 7.77"
        transform="matrix(0.6796,0,0,0.6507,0,43.6507)"
  />
  <path style="fill:none; stroke:#333333; stroke-width:1"
        d="M13.37 36.33l4.45 5.38"
        transform="matrix(0.6796,0,0,0.6507,0,43.6507)"
  />
  <path style="fill:none; stroke:#333333; stroke-width:1"
        d="M16.01 34.93l4.45 5.38"
        transform="matrix(0.6796,0,0,0.6507,0,43.6507)"
  />
  <path style="fill:none; stroke:#333333; stroke-width:1"
        d="M19.86 33.54l6.43 7.77"
        transform="matrix(0.6796,0,0,0.6507,0,43.6507)"
  />
  <path style="fill:none; stroke:#333333; stroke-width:1"
        d="M23.71 32.14l4.45 5.38"
        transform="matrix(0.6796,0,0,0.6507,0,43.6507)"
  />
  <path style="fill:none; stroke:#333333; stroke-width:1"
        d="M27.55 30.75l4.45 5.37"
        transform="matrix(0.6796,0,0,0.6507,0,43.6507)"
  />
  <path style="fill:none; stroke:#333333; stroke-width:1"
        d="M31.4 29.35l6.43 7.77"
        transform="matrix(0.6796,0,0,0.6507,0,43.6507)"
  />
  <path style="fill:none; stroke:#333333; stroke-width:1"
        d="M35.25 27.95l4.45 5.38"
        transform="matrix(0.6796,0,0,0.6507,0,43.6507)"
  />
  <path style="fill:none; stroke:#333333; stroke-width:1"
        d="M39.1 26.56l4.45 5.38"
        transform="matrix(0.6796,0,0,0.6507,0,43.6507)"
  />
  <path style="fill:none; stroke:#333333; stroke-width:1"
        d="M42.95 25.16l6.43 7.77"
        transform="matrix(0.6796,0,0,0.6507,0,43.6507)"
  />
  <path style="fill:none; stroke:#333333; stroke-width:1"
        d="M46.79 23.77l4.45 5.37"
        transform="matrix(0.6796,0,0,0.6507,0,43.6507)"
  />
  <path style="fill:none; stroke:#333333; stroke-width:1"
        d="M50.64 22.37l4.45 5.38"
        transform="matrix(0.6796,0,0,0.6507,0,43.6507)"
  />
  <path style="fill:none; stroke:#333333; stroke-width:1"
        d="M54.49 20.97l6.43 7.77"
        transform="matrix(0.6796,0,0,0.6507,0,43.6507)"
  />
  <path style="fill:none; stroke:#333333; stroke-width:1"
        d="M58.33 19.58l4.45 5.37"
        transform="matrix(0.6796,0,0,0.6507,0,43.6507)"
  />
  <path style="fill:none; stroke:#333333; stroke-width:1"
        d="M62.18 18.18l4.45 5.38"
        transform="matrix(0.6796,0,0,0.6507,0,43.6507)"
  />
  <path style="fill:#000000; fill-opacity:0.2"
        d="M86.15 90.77l-7.11 -2.25l-27.23 26.19c0.16 -0.87 -0.13 -1.8 -0.96 -2.6l-11.15 -10.71c-1.61 -1.55 -4.65 -2.02 -6.97 -1.15c-1.7 -0.6 -3.78 -0.6 -5.42 0.15l-4.91 1.26c-10.69 -5.21 -20.31 -9.89 -20.31 -9.89l17.23 10.68l-3.03 0.77c-2.35 1.09 -6.81 4.44 -5.09 6.09l11.39 13.3c1.62 1.55 4.66 1.92 6.98 1.04c1.7 0.61 3.84 1.15 5.47 0.39l10.84 -5.15l4.9 3.04l35.37 -31.17z"
  />
  <path style="fill:#000000"
        d="M12.56 103.51c-2.35 1.09 -2.88 3.33 -1.16 4.98l11.15 10.71c1.71 1.65 5.03 2.1 7.39 1l14.14 -6.58c2.35 -1.09 2.88 -3.33 1.16 -4.98l-11.14 -10.71c-1.71 -1.65 -5.03 -2.1 -7.39 -1l-14.14 6.58z"
  />
  <path style="fill:#ffffff"
        d="M44.02 109.23c1.22 1.17 0.84 2.77 -0.83 3.56l-14.14 6.57c-1.68 0.78 -4.05 0.46 -5.28 -0.71l-11.15 -10.71c-1.22 -1.17 -0.84 -2.77 0.83 -3.56l14.14 -6.57c1.68 -0.78 4.05 -0.45 5.28 0.71l11.14 10.71z"
  />
  <path style="fill:#5dc1da"
        d="M40.06 109.7l-14.12 6.57l-10.28 -9.88l14.12 -6.57l10.28 9.88z"
  />
  <path style="fill:#000000"
        d="M17.84 104.05c-2.35 1.09 -2.88 3.33 -1.16 4.98l11.15 10.72c1.71 1.65 5.03 2.1 7.39 1l14.14 -6.58c2.36 -1.09 2.88 -3.33 1.16 -4.98l-11.15 -10.72c-1.71 -1.65 -5.03 -2.1 -7.39 -1l-14.14 6.58z"
  />
  <path style="fill:#ffffff"
        d="M49.31 109.76c1.22 1.17 0.84 2.77 -0.83 3.56l-14.14 6.58c-1.68 0.78 -4.05 0.45 -5.28 -0.71l-11.15 -10.71c-1.22 -1.17 -0.84 -2.77 0.83 -3.56l14.14 -6.58c1.68 -0.78 4.05 -0.45 5.28 0.71l11.14 10.71z"
  />
  <path style="fill:#5dc1da"
        d="M45.34 110.23l-14.12 6.57l-10.28 -9.88l14.12 -6.57l10.28 9.88z"
  />
  <path style="fill:#4ea1b5"
        d="M22.08 107.15l13.51 -6.28l-0.54 -0.52l-14.12 6.57l10.28 9.88l0.61 -0.28l-9.74 -9.36z"
  />
  <path style="fill:#000000"
        d="M83.94 45.86l-0.14 -0.13c-1.09 -1.07 -2.35 -1.66 -3.63 -1.94c-1.83 -0.5 -3.59 -0.13 -4.74 0.86c-0.07 0.04 -5.45 5.17 -5.45 5.17c-0 0 -20.43 19.97 -20.43 19.97l-0.19 0.18l-5.34 14.03l2.93 0.6l12.63 -5.23l20.52 -20.06c-0 0 0.26 -0.25 0.29 -0.28c0.14 -0.11 0.32 -0.26 0.32 -0.26c0 -0.05 5.08 -5.27 5.08 -5.27c1.42 -2.05 0.68 -5.23 -1.84 -7.63z"
  />
  <linearGradient id="gradient12" gradientUnits="userSpaceOnUse" x1="50.6" y1="75.66" x2="54.88" y2="80.64">
   <stop offset="0" stop-color="#fffffa"/>
   <stop offset="1" stop-color="#f49333"/>
  </linearGradient>
  <path style="fill:url(#gradient12)"
        d="M51.2 70.46l-4.74 10.98l0.84 1.23l11.7 -5.07l-2.23 -5.6l-5.57 -1.53z"
  />
  <path style="fill:#000000"
        d="M47.62 78.14l-1.63 3.29l1.19 1.91l2.89 -1.43l-1.83 -1.79l-0.62 -1.97z"
  />
  <path style="fill:#f49300"
        d="M78.51 58.54l-19.49 19.06l-3.8 -0.72l-3.42 -3.01l-0.57 -3.4l19.49 -19.06l0.56 3.4l3.43 3.01l3.8 0.72z"
  />
  <linearGradient id="gradient13" gradientUnits="userSpaceOnUse" x1="61" y1="62.5" x2="59.55" y2="61.01">
   <stop offset="0" stop-color="#eceb23"/>
   <stop offset="1" stop-color="#f49333"/>
  </linearGradient>
  <path style="fill:url(#gradient13)"
        d="M51.66 73.98l-0.45 -3.52l19.49 -19.06l0.56 3.4l-19.6 19.17z"
  />
  <linearGradient id="gradient14" gradientUnits="userSpaceOnUse" x1="63.81" y1="66.39" x2="62.15" y2="64.8">
   <stop offset="0" stop-color="#eceb23"/>
   <stop offset="1" stop-color="#fffcf7"/>
  </linearGradient>
  <path style="fill:url(#gradient14)"
        d="M55.21 76.88l-3.43 -3.01l19.49 -19.06l3.43 3.01l-19.49 19.06z"
  />
  <path style="fill:#000000"
        d="M70.88 54.44l-19.29 19l4.12 3.76l19.78 -19.41l-4.23 -3.71l-0.36 0.36z
           M71.29 55.53c0.52 0.46 2.06 1.81 2.62 2.3c-0.74 0.72 -18.03 17.63 -18.73 18.31c-0.52 -0.46 -2.06 -1.81 -2.62 -2.3c0.74 -0.72 18.03 -17.63 18.73 -18.31z"
  />
  <linearGradient id="gradient15" gradientUnits="userSpaceOnUse" x1="73.12" y1="46.78" x2="79.08" y2="53.32">
   <stop offset="0.0278" stop-color="#ff9999"/>
   <stop offset="0.1115" stop-color="#ff9f9f"/>
   <stop offset="0.2238" stop-color="#ffb0b0"/>
   <stop offset="0.3522" stop-color="#ffcccc"/>
   <stop offset="0.4918" stop-color="#fff3f3"/>
   <stop offset="0.5307" stop-color="#ffffff"/>
   <stop offset="0.6015" stop-color="#ffe6e6"/>
   <stop offset="0.7128" stop-color="#ffc5c5"/>
   <stop offset="0.8191" stop-color="#ffacac"/>
   <stop offset="0.9175" stop-color="#ff9e9e"/>
   <stop offset="1" stop-color="#ff9999"/>
  </linearGradient>
  <path style="fill:url(#gradient15)"
        d="M82.7 47.1c-0.05 -0.04 -0.1 -0.09 -0.15 -0.13c-0.96 -0.94 -1.91 -1.41 -2.78 -1.59c-1.3 -0.37 -2.53 -0.22 -3.3 0.51c-0 0 -0.01 0.01 -0.02 0.02c-0.09 0.05 -0.14 0.09 -0.14 0.09l-5.66 5.48l0.1 2.84l3.9 3.57l3.8 0.72l5.66 -5.48c0 0 0.06 -0.11 0.13 -0.31c1.07 -1.37 0.43 -3.85 -1.52 -5.72z"
  />
  <path style="fill:#000000"
        d="M50.8 69.63c-0.29 0.06 -0.47 0.34 -0.41 0.62l0.9 3.88l3.66 3.21l4.28 0.9c0.29 0.06 0.58 -0.11 0.65 -0.39c0 -0.03 0.01 -0.07 0.01 -0.11c0 -0.23 -0.17 -0.45 -0.42 -0.5c0 0 -3.73 -0.79 -3.99 -0.84c-0.19 -0.17 -2.96 -2.6 -3.19 -2.8c-0.06 -0.29 -0.82 -3.56 -0.82 -3.56c-0.06 -0.28 -0.35 -0.46 -0.65 -0.39z"
  />
  <path style="fill:#000000"
        d="M70.76 49.94c-1.69 1.63 -0.51 5.27 1.62 7.31c1.49 1.42 3.59 2.34 5.33 2.33c0.92 -0 1.68 -0.27 2.2 -0.77c0.21 -0.2 0.21 -0.53 -0 -0.73c-0.21 -0.2 -0.55 -0.2 -0.77 0c-0.39 0.38 -0.99 0.46 -1.43 0.46c-1.44 0 -3.27 -0.81 -4.56 -2.03c-1.91 -1.81 -2.78 -4.75 -1.67 -5.82c0.21 -0.2 0.26 -0.54 0.05 -0.74c-0.21 -0.2 -0.55 -0.2 -0.77 0z"
  />
  <path style="fill:#000000"
        d="M75.73 45.18c-0.52 0.5 -0.8 1.23 -0.8 2.1c0 1.59 0.96 3.53 2.44 4.94c1.5 1.43 3.58 2.35 5.29 2.35c0.9 -0 1.65 -0.26 2.17 -0.76c0.21 -0.2 0.21 -0.53 -0 -0.73c-0.21 -0.2 -0.55 -0.2 -0.77 0c-0.39 0.37 -0.97 0.45 -1.4 0.46c-1.41 0 -3.22 -0.81 -4.51 -2.04c-1.26 -1.2 -2.12 -2.89 -2.12 -4.2c-0 -0.4 0 -1.05 0.4 -1.44c0.21 -0.2 0.29 -0.45 0.07 -0.65c-0.21 -0.2 -0.55 -0.2 -0.77 0z"
  />
  <path style="fill:none; stroke:#999999; stroke-width:1"
        d="M16.83 47.34l13.98 -5.31"
        transform="matrix(0.6796,0,0,0.6507,0,43.6507)"
  />
  <path style="fill:#000000; fill-opacity:0.498"
        d="M49.47 60.99c0 0.56 -0.71 1.02 -1.6 1.02c-0.88 0 -1.6 -0.45 -1.6 -1.02c0 -0.56 0.72 -1.02 1.6 -1.02c0.88 0 1.6 0.45 1.6 1.02z"
  />
 </g>
</svg>
