<?xml version="1.0" encoding="UTF-8" standalone="no"?>
<!-- Created with Inkscape (http://www.inkscape.org/) -->
<svg
   xmlns:svg="http://www.w3.org/2000/svg"
   xmlns="http://www.w3.org/2000/svg"
   xmlns:xlink="http://www.w3.org/1999/xlink"
   version="1.0"
   width="64"
   height="64"
   id="svg2">
  <defs
     id="defs43"><linearGradient
   x1="-213.082"
   y1="425.8403"
   x2="-127.7487"
   y2="376.573"
   id="XMLID_1_"
   gradientUnits="userSpaceOnUse"
   gradientTransform="matrix(1,0,0,-1,233.2412,481.917)">
  <stop
     id="stop161"
     style="stop-color:#e6e6fa;stop-opacity:1"
     offset="0" />
  <stop
     id="stop162"
     style="stop-color:#ffffff;stop-opacity:1"
     offset="0.42460001" />
  <stop
     id="stop163"
     style="stop-color:#adadd2;stop-opacity:1"
     offset="0.49720001" />
  <stop
     id="stop164"
     style="stop-color:#ebebff;stop-opacity:1"
     offset="0.84920001" />
</linearGradient>
<linearGradient
   x1="-181.4702"
   y1="398.88821"
   x2="-152.25639"
   y2="411.40839"
   id="XMLID_2_"
   gradientUnits="userSpaceOnUse"
   gradientTransform="matrix(1,0,0,-1,233.2412,481.917)">
  <stop
     id="stop174"
     style="stop-color:#ffffff;stop-opacity:1"
     offset="0" />
  <stop
     id="stop175"
     style="stop-color:#ccccf5;stop-opacity:1"
     offset="1" />
</linearGradient>
<linearGradient
   x1="-142.2383"
   y1="405.41751"
   x2="-210.0571"
   y2="399.15729"
   id="XMLID_3_"
   gradientUnits="userSpaceOnUse"
   gradientTransform="matrix(1,0,0,-1,233.2412,481.917)">
  <stop
     id="stop182"
     style="stop-color:#ffffff;stop-opacity:1"
     offset="0" />
  <stop
     id="stop183"
     style="stop-color:#6a77b8;stop-opacity:1"
     offset="1" />
</linearGradient>
<linearGradient
   x1="-142.2383"
   y1="405.41751"
   x2="-210.0571"
   y2="399.15729"
   id="linearGradient4394"
   xlink:href="#XMLID_3_"
   gradientUnits="userSpaceOnUse"
   gradientTransform="matrix(0.7100045,0,0,-0.7100045,70.619164,318.2295)" />
<linearGradient
   x1="-181.4702"
   y1="398.88821"
   x2="-152.25639"
   y2="411.40839"
   id="linearGradient4398"
   xlink:href="#XMLID_2_"
   gradientUnits="userSpaceOnUse"
   gradientTransform="matrix(0.7100045,0,0,-0.7100045,70.619164,318.2295)" />
<linearGradient
   x1="-213.082"
   y1="425.8403"
   x2="-127.7487"
   y2="376.573"
   id="linearGradient4401"
   xlink:href="#XMLID_1_"
   gradientUnits="userSpaceOnUse"
   gradientTransform="matrix(0.7100045,0,0,-0.7100045,70.619164,318.2295)" />

    
  
      
      
      
      <linearGradient
   x1="-225.37891"
   y1="384.4722"
   x2="-192.099"
   y2="365.258"
   id="linearGradient2929"
   gradientUnits="userSpaceOnUse"
   gradientTransform="matrix(1,0,0,-1,233.2412,406.3408)">
        <stop
   id="stop2931"
   style="stop-color:#e6e6fa;stop-opacity:1"
   offset="0" />

        <stop
   id="stop2933"
   style="stop-color:#ffffff;stop-opacity:1"
   offset="0.42460001" />

        <stop
   id="stop2935"
   style="stop-color:#adadd2;stop-opacity:1"
   offset="0.49720001" />

        <stop
   id="stop2937"
   style="stop-color:#ebebff;stop-opacity:1"
   offset="0.84920001" />

      </linearGradient>

      
      <linearGradient
   x1="-213.0376"
   y1="373.9653"
   x2="-201.6875"
   y2="378.82971"
   id="linearGradient2940"
   gradientUnits="userSpaceOnUse"
   gradientTransform="matrix(1,0,0,-1,233.2412,406.3408)">
        <stop
   id="stop2942"
   style="stop-color:#ffffff;stop-opacity:1"
   offset="0" />

        <stop
   id="stop2944"
   style="stop-color:#ccccf5;stop-opacity:1"
   offset="1" />

      </linearGradient>

      
      
      <linearGradient
   x1="-197.75101"
   y1="376.50729"
   x2="-224.2003"
   y2="374.06589"
   id="linearGradient2948"
   gradientUnits="userSpaceOnUse"
   gradientTransform="matrix(1,0,0,-1,233.2412,406.3408)">
        <stop
   id="stop2950"
   style="stop-color:#ffffff;stop-opacity:1"
   offset="0" />

        <stop
   id="stop2952"
   style="stop-color:#6a77b8;stop-opacity:1"
   offset="1" />

      </linearGradient>

      
      
      
      
      
      
      
      
      
      
      
    <linearGradient
   x1="-213.082"
   y1="425.8403"
   x2="-127.7487"
   y2="376.573"
   id="linearGradient5949"
   xlink:href="#XMLID_1_"
   gradientUnits="userSpaceOnUse"
   gradientTransform="matrix(1,0,0,-1,233.2412,481.917)" />
<linearGradient
   x1="-181.4702"
   y1="398.88821"
   x2="-152.25639"
   y2="411.40839"
   id="linearGradient5951"
   xlink:href="#XMLID_2_"
   gradientUnits="userSpaceOnUse"
   gradientTransform="matrix(1,0,0,-1,233.2412,481.917)" />
<linearGradient
   x1="-142.2383"
   y1="405.41751"
   x2="-210.0571"
   y2="399.15729"
   id="linearGradient5953"
   xlink:href="#XMLID_3_"
   gradientUnits="userSpaceOnUse"
   gradientTransform="matrix(1,0,0,-1,233.2412,481.917)" />

    
  <linearGradient
   x1="-213.082"
   y1="425.8403"
   x2="-127.7487"
   y2="376.573"
   id="linearGradient6443"
   xlink:href="#XMLID_1_"
   gradientUnits="userSpaceOnUse"
   gradientTransform="matrix(1,0,0,-1,233.2412,481.917)" />
<linearGradient
   x1="-181.4702"
   y1="398.88821"
   x2="-152.25639"
   y2="411.40839"
   id="linearGradient6445"
   xlink:href="#XMLID_2_"
   gradientUnits="userSpaceOnUse"
   gradientTransform="matrix(1,0,0,-1,233.2412,481.917)" />
<linearGradient
   x1="-142.2383"
   y1="405.41751"
   x2="-210.0571"
   y2="399.15729"
   id="linearGradient6447"
   xlink:href="#XMLID_3_"
   gradientUnits="userSpaceOnUse"
   gradientTransform="matrix(1,0,0,-1,233.2412,481.917)" />

      
      
      
      <linearGradient
   x1="-225.37939"
   y1="384.5098"
   x2="-192.0994"
   y2="365.2955"
   id="linearGradient5449"
   gradientUnits="userSpaceOnUse"
   gradientTransform="matrix(1,0,0,-1,233.2412,406.3789)">
        <stop
   id="stop5451"
   style="stop-color:#e6e6fa;stop-opacity:1"
   offset="0" />

        <stop
   id="stop5453"
   style="stop-color:#ffffff;stop-opacity:1"
   offset="0.42460001" />

        <stop
   id="stop5455"
   style="stop-color:#adadd2;stop-opacity:1"
   offset="0.49720001" />

        <stop
   id="stop5457"
   style="stop-color:#ebebff;stop-opacity:1"
   offset="0.84920001" />

      </linearGradient>

      
      <linearGradient
   x1="-213.03661"
   y1="374.00391"
   x2="-201.6882"
   y2="378.86749"
   id="linearGradient5460"
   gradientUnits="userSpaceOnUse"
   gradientTransform="matrix(1,0,0,-1,233.2412,406.3789)">
        <stop
   id="stop5462"
   style="stop-color:#ffffff;stop-opacity:1"
   offset="0" />

        <stop
   id="stop5464"
   style="stop-color:#ccccf5;stop-opacity:1"
   offset="1" />

      </linearGradient>

      
      
      <linearGradient
   x1="-197.7505"
   y1="376.54391"
   x2="-224.1998"
   y2="374.10251"
   id="linearGradient5468"
   gradientUnits="userSpaceOnUse"
   gradientTransform="matrix(1,0,0,-1,233.2412,406.3789)">
        <stop
   id="stop5470"
   style="stop-color:#ffffff;stop-opacity:1"
   offset="0" />

        <stop
   id="stop5472"
   style="stop-color:#6a77b8;stop-opacity:1"
   offset="1" />

      </linearGradient>

      
      
      
      
      
      
      
      
      
      
      
    <linearGradient
   x1="-142.2383"
   y1="405.41751"
   x2="-210.0571"
   y2="399.15729"
   id="linearGradient6930"
   xlink:href="#XMLID_3_"
   gradientUnits="userSpaceOnUse"
   gradientTransform="matrix(1,0,0,-1,180.01848,481.54536)" />
<linearGradient
   x1="-181.4702"
   y1="398.88821"
   x2="-152.25639"
   y2="411.40839"
   id="linearGradient6934"
   xlink:href="#XMLID_2_"
   gradientUnits="userSpaceOnUse"
   gradientTransform="matrix(1,0,0,-1,180.01848,481.54536)" />
<linearGradient
   x1="-213.082"
   y1="425.8403"
   x2="-127.7487"
   y2="376.573"
   id="linearGradient6937"
   xlink:href="#XMLID_1_"
   gradientUnits="userSpaceOnUse"
   gradientTransform="matrix(1,0,0,-1,180.01848,481.54536)" />
</defs>
  <g
     id="g4">
    <path
       d="M 27,57 L 29,59 L 32.13,55.83 L 37,59 L 45.39,47.54 L 64,38 L 59,35 L 61,37 L 36,49 L 27,57 z M 58,34 L 62,31 L 58,29 L 55,32 L 58,34 z"
       id="path6"
       style="fill:#010101;fill-opacity:0.57250001" />
    <path
       d="M 6.25,30 C 6.25,30 11.87,36 16.87,42.5 C 21.87,49 26.25,55.75 26.25,55.75 L 59.12,36.87 L 32,15 L 6.25,30 z"
       id="path8"
       style="fill:none;stroke:#010101;stroke-width:4" />
    <radialGradient
       cx="0"
       cy="0"
       r="64"
       id="gradient0"
       gradientUnits="userSpaceOnUse"
       gradientTransform="matrix(0.5714,0,0,0.3333,26,35)">
      <stop
         id="stop11"
         style="stop-color:#d8e4fa;stop-opacity:1"
         offset="1" />
      <stop
         id="stop13"
         style="stop-color:#7794c9;stop-opacity:1"
         offset="0.48859999" />
    </radialGradient>
    <path
       d="M 6.25,30 C 6.25,30 11.87,36 16.87,42.5 C 21.87,49 26.25,55.75 26.25,55.75 L 59.12,36.87 L 32,15 L 6.25,30 z"
       id="path15"
       style="fill:url(#gradient0)" />
    <path
       d="M 2.62,30.87 C 2.62,30.87 10.95,36.26 19,41.87 C 27.44,47.75 35.75,52.75 35.75,52.75 L 58.12,26.37 C 58.12,26.37 45.44,20.7 35.37,15.37 C 30.18,12.62 26,9.37 26,9.37 L 2.62,30.87 z"
       id="path17"
       style="fill:none;stroke:#010101;stroke-width:4" />
    <linearGradient
       x1="107.04"
       y1="-17.09"
       x2="118.33"
       y2="27.99"
       id="gradient1"
       gradientUnits="userSpaceOnUse">
      <stop
         id="stop20"
         style="stop-color:#a5c5ff;stop-opacity:1"
         offset="0" />
      <stop
         id="stop22"
         style="stop-color:#eaf2ff;stop-opacity:1"
         offset="0.74239999" />
      <stop
         id="stop24"
         style="stop-color:#d5e3ff;stop-opacity:1"
         offset="1" />
    </linearGradient>
    <path
       d="M 2.62,30.87 C 2.62,30.87 10.95,36.26 19,41.87 C 27.44,47.75 35.75,52.75 35.75,52.75 L 58.12,26.37 C 58.12,26.37 45.44,20.7 35.37,15.37 C 30.18,12.62 26,9.37 26,9.37 L 2.62,30.87 z"
       id="path26"
       style="fill:url(#gradient1)" />
    <radialGradient
       cx="0"
       cy="0"
       r="64"
       id="gradient2"
       gradientUnits="userSpaceOnUse"
       gradientTransform="matrix(0.1558,-0.1915,0.4544,0.3697,27.8803,27.4956)">
      <stop
         id="stop29"
         style="stop-color:#485c85;stop-opacity:1"
         offset="0" />
      <stop
         id="stop31"
         style="stop-color:#bbcff7;stop-opacity:1"
         offset="1" />
    </radialGradient>
    <path
       d="M 33,49 L 53,27 M 28,45 L 47,24 M 22,41 L 42,21 M 17,37 L 36,18 M 11,33 L 31,13"
       id="path33"
       style="fill:none;stroke:url(#gradient2);stroke-width:1" />
    <linearGradient
       x1="-16.879999"
       y1="12.97"
       x2="2.3199999"
       y2="-12.12"
       id="gradient3"
       gradientUnits="userSpaceOnUse">
      <stop
         id="stop36"
         style="stop-color:#010101;stop-opacity:1"
         offset="0" />
      <stop
         id="stop38"
         style="stop-color:#272727;stop-opacity:1"
         offset="1" />
    </linearGradient>
    <path
       d="M 27,42 C 31.16,44.77 37,36 33,33 C 29,30 22,28 22,28 L 30.87,20.62 L 43,28 C 40,29 38,35 41,37 C 45.16,39.77 51,31 47,28 C 43,25 27,16 27,16 L 14,26 L 29,33 C 26,34 24,40 27,42 z"
       id="path40"
       style="fill:url(#gradient3)" />
  </g>
  <path
     d="M 61.570371,54.679184 L 38.516661,54.679184 L 38.516661,42.478885 L 61.571576,42.478885 L 61.571576,54.679184 L 61.570371,54.679184 z"
     id="path188"
     style="fill:#ffffff;stroke:#000000;stroke-width:2.40945959" />
  <g
     transform="matrix(1.2047298,0,0,1.2047298,5.8433495,-3.9897881)"
     id="g189"
     style="stroke:#000000">
        <path
   d="M 30.408,43.007 L 30.408,42.813 L 29.62,41.694 L 29.62,46.263 C 29.62,46.368 29.583,46.457 29.509,46.532 C 29.435,46.605 29.345,46.642 29.239,46.642 C 29.133,46.642 29.043,46.604 28.968,46.529 C 28.894,46.455 28.857,46.366 28.857,46.263 L 28.857,40.653 L 29.839,40.653 L 30.78,42.011 L 31.738,40.653 L 32.697,40.653 L 32.697,46.263 C 32.697,46.368 32.659,46.457 32.583,46.532 C 32.506,46.605 32.416,46.642 32.312,46.642 C 32.209,46.642 32.122,46.604 32.046,46.529 C 31.972,46.455 31.935,46.366 31.935,46.263 L 31.935,41.712 L 31.172,42.794 L 31.172,43.007 C 31.172,43.11 31.134,43.197 31.058,43.274 C 30.982,43.349 30.893,43.386 30.79,43.386 C 30.684,43.386 30.593,43.349 30.519,43.274 C 30.446,43.198 30.408,43.11 30.408,43.007 z"
   id="path190"
   style="stroke:none" />

        <path
   d="M 34.442,46.263 L 34.442,40.653 L 37.132,40.653 C 37.442,40.653 37.708,40.765 37.933,40.991 C 38.157,41.216 38.27,41.485 38.27,41.798 L 38.27,43.217 C 38.27,43.53 38.158,43.797 37.935,44.02 C 37.712,44.243 37.444,44.354 37.13,44.354 L 35.204,44.354 L 35.204,46.264 C 35.204,46.369 35.168,46.458 35.095,46.533 C 35.022,46.606 34.933,46.642 34.828,46.642 C 34.72,46.642 34.629,46.606 34.554,46.533 C 34.48,46.458 34.442,46.369 34.442,46.263 z M 35.205,43.59 L 37.128,43.59 C 37.231,43.59 37.319,43.553 37.395,43.48 C 37.471,43.407 37.508,43.317 37.508,43.211 L 37.508,41.793 C 37.508,41.688 37.47,41.599 37.395,41.525 C 37.32,41.451 37.231,41.414 37.128,41.414 L 35.205,41.414 L 35.205,43.59 z"
   id="path191"
   style="stroke:none" />

        <path
   d="M 43.83,41.412 L 43.83,42.837 C 43.83,43.168 43.726,43.437 43.515,43.642 C 43.726,43.876 43.83,44.131 43.83,44.408 L 43.83,45.886 C 43.83,46.094 43.756,46.272 43.605,46.42 C 43.454,46.568 43.275,46.643 43.065,46.643 L 40.393,46.643 C 40.288,46.643 40.199,46.607 40.125,46.533 C 40.051,46.459 40.015,46.368 40.015,46.262 C 40.015,46.156 40.052,46.067 40.125,45.992 C 40.198,45.917 40.287,45.88 40.393,45.88 L 43.054,45.88 L 43.054,44.409 C 43.054,44.305 43.018,44.215 42.944,44.138 C 42.871,44.062 42.782,44.024 42.676,44.024 L 41.155,44.024 C 41.05,44.024 40.961,43.988 40.887,43.916 C 40.813,43.843 40.777,43.752 40.777,43.643 C 40.777,43.538 40.814,43.448 40.886,43.373 C 40.959,43.299 41.049,43.262 41.153,43.262 L 42.677,43.262 C 42.779,43.262 42.866,43.225 42.941,43.151 C 43.016,43.079 43.053,42.989 43.053,42.883 L 43.053,41.417 L 40.365,41.417 C 40.261,41.417 40.172,41.381 40.098,41.307 C 40.024,41.233 39.989,41.143 39.989,41.036 C 39.989,40.931 40.026,40.84 40.099,40.765 C 40.172,40.692 40.262,40.655 40.368,40.655 L 43.072,40.655 C 43.282,40.655 43.461,40.729 43.608,40.879 C 43.756,41.027 43.83,41.204 43.83,41.412 z"
   id="path192"
   style="stroke:none" />

      </g>
  <path
     d="M 61.095654,54.458107 L 38.649773,54.458107 L 38.649773,42.579169 L 61.095654,42.579169 L 61.095654,54.458107 z"
     id="path652"
     style="fill:#ffffff;stroke:#000000;stroke-width:2.44775152" />
  <g
     transform="matrix(1.2238758,0,0,1.2238758,3.2920017,-4.648973)"
     id="g653"
     style="stroke:#000000">
        <path
   d="M 33.037,43.098 L 33.037,45.503 L 33.248,45.857 L 33.548,45.857 L 33.768,45.495 L 33.768,41.219 C 33.768,41.118 33.804,41.031 33.877,40.958 C 33.95,40.885 34.037,40.848 34.138,40.848 C 34.236,40.848 34.32,40.885 34.391,40.956 C 34.463,41.028 34.498,41.113 34.498,41.211 L 34.498,45.617 C 34.498,45.672 34.469,45.748 34.408,45.846 L 34.071,46.404 C 34.003,46.527 33.898,46.59 33.757,46.59 L 33.075,46.59 C 32.86,46.59 32.721,46.491 32.661,46.294 C 32.595,46.491 32.461,46.59 32.262,46.59 L 31.618,46.59 C 31.432,46.59 31.3,46.523 31.219,46.387 L 30.906,45.865 C 30.847,45.769 30.818,45.687 30.818,45.619 L 30.818,41.222 C 30.818,41.121 30.856,41.034 30.929,40.96 C 31.003,40.887 31.091,40.85 31.193,40.85 C 31.289,40.85 31.372,40.887 31.443,40.96 C 31.514,41.033 31.549,41.12 31.549,41.221 L 31.549,45.514 L 31.762,45.86 L 32.075,45.86 L 32.304,45.499 L 32.304,43.102 C 32.304,43.001 32.34,42.916 32.41,42.846 C 32.481,42.777 32.567,42.741 32.669,42.741 C 32.772,42.741 32.857,42.776 32.929,42.846 C 33.001,42.916 33.037,42.997 33.037,43.098 z"
   id="path654"
   style="stroke:none" />

        <path
   d="M 36.194,46.082 L 37.671,41.12 C 37.728,40.938 37.847,40.847 38.028,40.847 C 38.203,40.847 38.313,40.925 38.359,41.08 L 39.823,46.116 C 39.835,46.154 39.841,46.19 39.841,46.224 C 39.841,46.326 39.806,46.411 39.737,46.481 C 39.669,46.551 39.59,46.586 39.501,46.586 C 39.311,46.586 39.189,46.498 39.138,46.321 L 38.843,45.331 L 37.18,45.331 L 36.859,46.392 C 36.85,46.439 36.814,46.483 36.751,46.524 C 36.688,46.566 36.618,46.587 36.542,46.587 C 36.436,46.587 36.347,46.551 36.277,46.48 C 36.208,46.408 36.173,46.32 36.173,46.216 C 36.172,46.173 36.18,46.128 36.194,46.082 z M 38.024,42.528 L 37.402,44.6 L 38.625,44.6 L 38.024,42.528 z"
   id="path655"
   style="stroke:none" />

        <path
   d="M 45.193,41.219 L 45.193,42.553 L 43.713,46.316 C 43.639,46.498 43.521,46.587 43.359,46.587 C 43.189,46.587 43.069,46.497 42.997,46.316 L 41.526,42.553 L 41.526,41.219 C 41.526,41.115 41.562,41.028 41.632,40.955 C 41.703,40.884 41.79,40.847 41.892,40.847 C 41.995,40.847 42.08,40.884 42.152,40.955 C 42.223,41.027 42.258,41.115 42.258,41.219 L 42.258,42.402 L 43.36,45.218 L 44.465,42.411 L 44.465,41.219 C 44.465,41.115 44.499,41.028 44.57,40.955 C 44.64,40.884 44.726,40.847 44.829,40.847 C 44.931,40.847 45.017,40.884 45.087,40.955 C 45.158,41.027 45.193,41.115 45.193,41.219 z"
   id="path656"
   style="stroke:none" />

      </g>
</svg>
