<?xml version="1.0" encoding="UTF-8" standalone="no"?>
<!-- Created with Inkscape (http://www.inkscape.org/) -->
<svg
   xmlns:svg="http://www.w3.org/2000/svg"
   xmlns="http://www.w3.org/2000/svg"
   xmlns:xlink="http://www.w3.org/1999/xlink"
   version="1.0"
   width="64"
   height="64"
   id="svg2">
  <defs
     id="defs43">
    
  
      
      
      
      <linearGradient
   x1="-213.082"
   y1="425.8403"
   x2="-127.7487"
   y2="376.573"
   id="XMLID_1_"
   gradientUnits="userSpaceOnUse"
   gradientTransform="matrix(1,0,0,-1,233.2412,481.917)">
        <stop
   id="stop161"
   style="stop-color:#e6e6fa;stop-opacity:1"
   offset="0" />

        <stop
   id="stop162"
   style="stop-color:#ffffff;stop-opacity:1"
   offset="0.42460001" />

        <stop
   id="stop163"
   style="stop-color:#adadd2;stop-opacity:1"
   offset="0.49720001" />

        <stop
   id="stop164"
   style="stop-color:#ebebff;stop-opacity:1"
   offset="0.84920001" />

      </linearGradient>

      
      <linearGradient
   x1="-181.4702"
   y1="398.88821"
   x2="-152.25639"
   y2="411.40839"
   id="XMLID_2_"
   gradientUnits="userSpaceOnUse"
   gradientTransform="matrix(1,0,0,-1,233.2412,481.917)">
        <stop
   id="stop174"
   style="stop-color:#ffffff;stop-opacity:1"
   offset="0" />

        <stop
   id="stop175"
   style="stop-color:#ccccf5;stop-opacity:1"
   offset="1" />

      </linearGradient>

      
      
      <linearGradient
   x1="-142.2383"
   y1="405.41751"
   x2="-210.0571"
   y2="399.15729"
   id="XMLID_3_"
   gradientUnits="userSpaceOnUse"
   gradientTransform="matrix(1,0,0,-1,233.2412,481.917)">
        <stop
   id="stop182"
   style="stop-color:#ffffff;stop-opacity:1"
   offset="0" />

        <stop
   id="stop183"
   style="stop-color:#6a77b8;stop-opacity:1"
   offset="1" />

      </linearGradient>

      
      
      
      
      
      
      
      
      
      
      
      
    <linearGradient
   x1="-142.2383"
   y1="405.41751"
   x2="-210.0571"
   y2="399.15729"
   id="linearGradient4394"
   xlink:href="#XMLID_3_"
   gradientUnits="userSpaceOnUse"
   gradientTransform="matrix(0.7100045,0,0,-0.7100045,70.619164,318.2295)" />
<linearGradient
   x1="-181.4702"
   y1="398.88821"
   x2="-152.25639"
   y2="411.40839"
   id="linearGradient4398"
   xlink:href="#XMLID_2_"
   gradientUnits="userSpaceOnUse"
   gradientTransform="matrix(0.7100045,0,0,-0.7100045,70.619164,318.2295)" />
<linearGradient
   x1="-213.082"
   y1="425.8403"
   x2="-127.7487"
   y2="376.573"
   id="linearGradient4401"
   xlink:href="#XMLID_1_"
   gradientUnits="userSpaceOnUse"
   gradientTransform="matrix(0.7100045,0,0,-0.7100045,70.619164,318.2295)" />
</defs>
  <g
     id="g4">
    <path
       d="M 27,57 L 29,59 L 32.13,55.83 L 37,59 L 45.39,47.54 L 64,38 L 59,35 L 61,37 L 36,49 L 27,57 z M 58,34 L 62,31 L 58,29 L 55,32 L 58,34 z"
       id="path6"
       style="fill:#010101;fill-opacity:0.57250001" />
    <path
       d="M 6.25,30 C 6.25,30 11.87,36 16.87,42.5 C 21.87,49 26.25,55.75 26.25,55.75 L 59.12,36.87 L 32,15 L 6.25,30 z"
       id="path8"
       style="fill:none;stroke:#010101;stroke-width:4" />
    <radialGradient
       cx="0"
       cy="0"
       r="64"
       id="gradient0"
       gradientUnits="userSpaceOnUse"
       gradientTransform="matrix(0.5714,0,0,0.3333,26,35)">
      <stop
         id="stop11"
         style="stop-color:#d8e4fa;stop-opacity:1"
         offset="1" />
      <stop
         id="stop13"
         style="stop-color:#7794c9;stop-opacity:1"
         offset="0.48859999" />
    </radialGradient>
    <path
       d="M 6.25,30 C 6.25,30 11.87,36 16.87,42.5 C 21.87,49 26.25,55.75 26.25,55.75 L 59.12,36.87 L 32,15 L 6.25,30 z"
       id="path15"
       style="fill:url(#gradient0)" />
    <path
       d="M 2.62,30.87 C 2.62,30.87 10.95,36.26 19,41.87 C 27.44,47.75 35.75,52.75 35.75,52.75 L 58.12,26.37 C 58.12,26.37 45.44,20.7 35.37,15.37 C 30.18,12.62 26,9.37 26,9.37 L 2.62,30.87 z"
       id="path17"
       style="fill:none;stroke:#010101;stroke-width:4" />
    <linearGradient
       x1="107.04"
       y1="-17.09"
       x2="118.33"
       y2="27.99"
       id="gradient1"
       gradientUnits="userSpaceOnUse">
      <stop
         id="stop20"
         style="stop-color:#a5c5ff;stop-opacity:1"
         offset="0" />
      <stop
         id="stop22"
         style="stop-color:#eaf2ff;stop-opacity:1"
         offset="0.74239999" />
      <stop
         id="stop24"
         style="stop-color:#d5e3ff;stop-opacity:1"
         offset="1" />
    </linearGradient>
    <path
       d="M 2.62,30.87 C 2.62,30.87 10.95,36.26 19,41.87 C 27.44,47.75 35.75,52.75 35.75,52.75 L 58.12,26.37 C 58.12,26.37 45.44,20.7 35.37,15.37 C 30.18,12.62 26,9.37 26,9.37 L 2.62,30.87 z"
       id="path26"
       style="fill:url(#gradient1)" />
    <radialGradient
       cx="0"
       cy="0"
       r="64"
       id="gradient2"
       gradientUnits="userSpaceOnUse"
       gradientTransform="matrix(0.1558,-0.1915,0.4544,0.3697,27.8803,27.4956)">
      <stop
         id="stop29"
         style="stop-color:#485c85;stop-opacity:1"
         offset="0" />
      <stop
         id="stop31"
         style="stop-color:#bbcff7;stop-opacity:1"
         offset="1" />
    </radialGradient>
    <path
       d="M 33,49 L 53,27 M 28,45 L 47,24 M 22,41 L 42,21 M 17,37 L 36,18 M 11,33 L 31,13"
       id="path33"
       style="fill:none;stroke:url(#gradient2);stroke-width:1" />
    <linearGradient
       x1="-16.879999"
       y1="12.97"
       x2="2.3199999"
       y2="-12.12"
       id="gradient3"
       gradientUnits="userSpaceOnUse">
      <stop
         id="stop36"
         style="stop-color:#010101;stop-opacity:1"
         offset="0" />
      <stop
         id="stop38"
         style="stop-color:#272727;stop-opacity:1"
         offset="1" />
    </linearGradient>
    <path
       d="M 27,42 C 31.16,44.77 37,36 33,33 C 29,30 22,28 22,28 L 30.87,20.62 L 43,28 C 40,29 38,35 41,37 C 45.16,39.77 51,31 47,28 C 43,25 27,16 27,16 L 14,26 L 29,33 C 26,34 24,40 27,42 z"
       id="path40"
       style="fill:url(#gradient3)" />
  </g>
  <path
     d="M 62.319584,53.665099 L 37.186155,53.665099 L 37.186155,43.400134 L 62.319996,43.400134 L 62.319584,53.665099 z"
     id="path652"
     style="fill:#ffffff;stroke:none" />
  <path
     d="M 36.773692,42.987671 L 36.773692,54.077562 L 62.732459,54.077562 L 62.732459,42.987671 L 36.773692,42.987671 z M 61.907121,43.812597 C 61.907121,44.541006 61.907121,52.524227 61.907121,53.252636 C 61.122616,53.252636 38.383122,53.252636 37.598205,53.252636 C 37.598205,52.524227 37.598205,44.541006 37.598205,43.812597 C 38.383535,43.812597 61.122204,43.812597 61.907121,43.812597 z"
     id="path653"
     style="stroke:none" />
  <g
     transform="matrix(0.4124629,0,0,0.4124629,12.235446,2.5885757)"
     id="g654"
     style="stroke:#000000">
        <path
   d="M 65.628,118.159 L 69.417,105.436 C 69.562,104.969 69.866,104.736 70.331,104.736 C 70.779,104.736 71.062,104.935 71.181,105.333 L 74.935,118.247 C 74.964,118.345 74.98,118.436 74.98,118.524 C 74.98,118.784 74.89,119.003 74.712,119.183 C 74.536,119.364 74.333,119.454 74.105,119.454 C 73.618,119.454 73.306,119.228 73.173,118.776 L 72.417,116.235 L 68.154,116.235 L 67.333,118.956 C 67.31,119.075 67.218,119.187 67.054,119.294 C 66.892,119.4 66.712,119.454 66.519,119.454 C 66.247,119.454 66.019,119.361 65.839,119.179 C 65.661,118.993 65.573,118.769 65.573,118.503 C 65.574,118.392 65.591,118.277 65.628,118.159 z M 70.324,109.045 L 68.727,114.36 L 71.862,114.36 L 70.324,109.045 z"
   id="path655"
   style="stroke:none" />

        <path
   d="M 80.205,104.736 L 87.77,104.736 C 88.016,104.736 88.233,104.829 88.422,105.012 C 88.61,105.196 88.705,105.412 88.705,105.662 C 88.705,105.92 88.61,106.141 88.426,106.328 C 88.238,106.516 88.018,106.609 87.766,106.609 L 84.924,106.609 L 84.924,117.578 L 87.766,117.578 C 88.026,117.578 88.248,117.67 88.43,117.851 C 88.615,118.035 88.705,118.253 88.705,118.515 C 88.705,118.776 88.61,118.995 88.426,119.179 C 88.242,119.363 88.022,119.452 87.77,119.452 L 80.205,119.452 C 79.944,119.452 79.723,119.36 79.541,119.179 C 79.358,118.997 79.27,118.776 79.27,118.515 C 79.27,118.253 79.36,118.035 79.541,117.851 C 79.721,117.667 79.938,117.578 80.196,117.578 L 83.05,117.578 L 83.05,106.61 L 80.196,106.61 C 79.938,106.61 79.719,106.518 79.541,106.335 C 79.358,106.151 79.27,105.935 79.27,105.685 C 79.27,105.421 79.36,105.197 79.541,105.013 C 79.722,104.829 79.944,104.736 80.205,104.736 z"
   id="path656"
   style="stroke:none" />

        <path
   d="M 92.964,118.524 L 92.964,104.736 L 101.409,104.736 C 101.65,104.736 101.868,104.829 102.055,105.012 C 102.244,105.196 102.338,105.412 102.338,105.662 C 102.338,105.92 102.246,106.141 102.061,106.328 C 101.877,106.516 101.662,106.609 101.41,106.609 L 94.84,106.609 L 94.84,109.547 L 99.565,109.547 C 99.826,109.547 100.044,109.639 100.225,109.82 C 100.406,110.001 100.496,110.223 100.496,110.484 C 100.496,110.746 100.405,110.964 100.225,111.148 C 100.045,111.332 99.826,111.421 99.565,111.421 L 94.84,111.421 L 94.84,118.525 C 94.84,118.783 94.748,119.002 94.567,119.182 C 94.386,119.363 94.164,119.453 93.903,119.453 C 93.643,119.453 93.422,119.363 93.239,119.182 C 93.056,119.002 92.964,118.784 92.964,118.524 z"
   id="path657"
   style="stroke:none" />

        <path
   d="M 106.66,118.524 L 106.66,104.736 L 115.104,104.736 C 115.348,104.736 115.563,104.829 115.752,105.012 C 115.94,105.196 116.033,105.412 116.033,105.662 C 116.033,105.92 115.94,106.141 115.758,106.328 C 115.572,106.516 115.356,106.609 115.106,106.609 L 108.535,106.609 L 108.535,109.547 L 113.26,109.547 C 113.52,109.547 113.739,109.639 113.92,109.82 C 114.101,110.002 114.191,110.223 114.191,110.484 C 114.191,110.746 114.101,110.964 113.92,111.148 C 113.738,111.332 113.52,111.421 113.26,111.421 L 108.535,111.421 L 108.535,118.525 C 108.535,118.783 108.444,119.002 108.262,119.182 C 108.08,119.363 107.86,119.453 107.598,119.453 C 107.338,119.453 107.119,119.363 106.934,119.182 C 106.751,119.002 106.66,118.784 106.66,118.524 z"
   id="path658"
   style="stroke:none" />

      </g>
</svg>
