<?xml version="1.0" encoding="UTF-8" standalone="yes"?>
<svg width="123" height="127" color-interpolation="linearRGB">
 <g>
  <path style="fill:#000000; fill-opacity:0.2"
        d="M93.83 86.58l22.08 -18.45l-13.77 -7.89l-8.29 26.36l-0.01 -0.01z"
  />
  <path style="fill:#000000"
        d="M54.81 5.26c0 0 -0.25 1.16 -0.47 2.25c-3.81 -1.43 -14.51 -5.43 -14.51 -5.43c0 0 0.65 10.85 0.92 15.34c-4.23 -1.57 -15.63 -5.85 -15.63 -5.85l16.09 53.2l52.2 21.88l3.65 -2.81l13.43 -59.93l-1.44 -8.81l-20.25 -5.42c0 0 -3.23 1.93 -4.62 2.77c-2.65 -0.97 -28.65 -10.53 -28.65 -10.53l-0.72 3.34l0.01 -0z"
  />
  <path style="fill:#000000"
        d="M107.4 23.85l-1.06 -6.53l-17 -4.54l-4.77 2.86l-26.69 -9.81l-1.2 5.61l-13.45 -5.03l0.91 15.34l-14.31 -5.36l14.04 46.37l48.49 20.54l-0.81 -4.94l3.37 1.41l12.54 -55.93l-0.02 0.01z"
  />
  <linearGradient id="gradient0" gradientUnits="userSpaceOnUse" x1="46.34" y1="42.79" x2="107.4" y2="42.79">
   <stop offset="0" stop-color="#ffffff"/>
   <stop offset="1" stop-color="#f1c779"/>
  </linearGradient>
  <path style="fill:url(#gradient0)"
        d="M94.84 79.8l-48.48 -20.55l11.47 -53.43l26.7 9.81l4.76 -2.86l17 4.54l1.06 6.53l-12.54 55.94l0.01 0.01z"
  />
  <linearGradient id="gradient1" gradientUnits="userSpaceOnUse" x1="76.18" y1="44.38" x2="79.26" y2="30.15">
   <stop offset="0" stop-color="#a68b54"/>
   <stop offset="1" stop-color="#f1c779"/>
  </linearGradient>
  <path style="fill:url(#gradient1)"
        d="M105.55 32.06l-10.69 47.72l-48.49 -20.54l9.04 -42.09l50.14 14.91l-0 0z"
  />
  <linearGradient id="gradient2" gradientUnits="userSpaceOnUse" x1="72.4" y1="21.23" x2="68.38" y2="47.09">
   <stop offset="0" stop-color="#ffffff"/>
   <stop offset="0.648" stop-color="#eaeb49"/>
   <stop offset="0.8069" stop-color="#e8e847"/>
   <stop offset="0.9254" stop-color="#e0de42"/>
   <stop offset="1" stop-color="#d7d43d"/>
  </linearGradient>
  <path style="fill:url(#gradient2)"
        d="M94.84 79.8l-48.48 -20.55l-3.19 -52.84l54.88 20.54l-3.18 52.84h-0.02z"
  />
  <path style="fill:#808080"
        d="M56.61 11.42c0 0 39.06 14.86 40.37 15.35c-0.06 1.26 -2.85 49.64 -3 52.34c-0.83 -0.37 -1.68 -0.77 -1.68 -0.77l-0.92 1.68l3.47 1.08l4.26 -55.56l-42.06 -15.95l-0.4 1.82l-0.02 0.01z"
  />
  <linearGradient id="gradient3" gradientUnits="userSpaceOnUse" x1="32.31" y1="24.11" x2="70.73" y2="55.09">
   <stop offset="0" stop-color="#ffffff"/>
   <stop offset="1" stop-color="#f1c779"/>
  </linearGradient>
  <path style="fill:url(#gradient3)"
        d="M92.3 83.31l-48.49 -20.54l-14.04 -46.38l54.88 20.54l7.65 46.38z"
  />
  <path style="fill:#808080"
        d="M30.12 17.54c0 0 52.52 19.65 53.58 20.05c0.16 1.03 7.5 45.29 7.5 45.29l2.2 0.84l-7.86 -47.49l-56.18 -21.05l0.73 2.33l0.01 0.02z"
  />
  <path style="fill:#000000"
        d="M14.38 44.4c-4.33 0 -7.94 3.79 -7.94 8.59v58c0 4.8 3.42 8.59 7.76 8.59h55.77c4.33 0 7.76 -3.79 7.76 -8.59v-58c0 -4.79 -3.42 -8.59 -7.76 -8.59h-55.59z"
  />
  <linearGradient id="gradient4" gradientUnits="userSpaceOnUse" x1="25.73" y1="50.46" x2="59.29" y2="115.06">
   <stop offset="0" stop-color="#d2d2d2"/>
   <stop offset="1" stop-color="#ededed"/>
  </linearGradient>
  <path style="fill:url(#gradient4)"
        d="M73.76 109.59c0 3.2 -2.34 5.8 -5.23 5.8h-52.88c-2.88 0 -5.23 -2.59 -5.23 -5.8v-55.19c0 -3.2 2.34 -5.8 5.23 -5.8h52.88c2.88 0 5.23 2.6 5.23 5.8v55.19z"
  />
  <linearGradient id="gradient5" gradientUnits="userSpaceOnUse" x1="42.68" y1="103.68" x2="42.75" y2="88.15">
   <stop offset="0" stop-color="#163069"/>
   <stop offset="1" stop-color="#83a1cb"/>
  </linearGradient>
  <path style="fill:url(#gradient5)"
        d="M69.25 102.19h-52.88v-39.79h52.88v39.79z"
  />
  <path style="fill:#fcfcfc"
        d="M12.58 55.59l-1.08 57.59c-0.72 -1 -1.08 -2.79 -1.08 -2.79v-56.8c0 0 0 -1.39 1.08 -3.19c1.26 -1.8 3.24 -1.8 3.24 -1.8h46.02l-44.21 2.4c-1.8 0 -2.7 1 -3.06 1.4c-0.36 0.59 -0.9 1.79 -0.9 3.19z"
  />
  <path style="fill:#bebebe"
        d="M71.6 108.19l1.26 -57.19c0.72 0.79 1.08 2.79 1.08 2.79v56.6c0 0 0 1.4 -1.08 3.19c-1.26 1.8 -3.42 2 -3.42 2h-45.66l44.21 -2.79c1.8 0 2.7 -1 3.06 -1.4c0.36 -0.4 0.9 -1.8 0.9 -3l-0.36 -0.2z"
  />
  <path style="fill:#bebebe"
        d="M69.25 62.4l1.08 -1.4l-55.22 -0.2v42.79l1.26 -1.59v-39.59h52.88z"
  />
  <path style="fill:#ffffff"
        d="M15.1 103.59l55.22 -0.19v-42.4l-1.26 1.4v39.79h-52.7l-1.26 1.6v-0.2z"
  />
  <linearGradient id="gradient6" gradientUnits="userSpaceOnUse" x1="42.78" y1="92.25" x2="42.78" y2="57.21">
   <stop offset="0" stop-color="#d0d6e5"/>
   <stop offset="1" stop-color="#093a80"/>
  </linearGradient>
  <path style="fill:url(#gradient6)"
        d="M16.91 62.79h51.8v24.2h-51.8v-24.2z"
  />
  <path style="fill:#e8f52f; fill-opacity:0.047"
        d="M36.4 73.8c0 4.39 -3.24 8.19 -7.39 8.19c-3.97 0 -7.4 -3.59 -7.4 -8.19c0 -4.4 3.24 -8.2 7.4 -8.2c3.97 0 7.39 3.59 7.39 8.2z"
  />
  <path style="fill:#ecf751; fill-opacity:0.2078"
        d="M35.68 73.8c0 4 -2.88 7.39 -6.67 7.39c-3.6 0 -6.67 -3.19 -6.67 -7.39c0 -4 2.88 -7.4 6.67 -7.4c3.6 0 6.67 3.19 6.67 7.4z"
  />
  <path style="fill:#f0f972; fill-opacity:0.3647"
        d="M34.96 73.8c0 3.59 -2.7 6.59 -5.95 6.59c-3.24 0 -5.95 -3 -5.95 -6.59c0 -3.6 2.7 -6.6 5.95 -6.6c3.24 0 5.95 3 5.95 6.6z"
  />
  <path style="fill:#f4fa95; fill-opacity:0.5215"
        d="M34.23 73.8c0 3.19 -2.34 5.79 -5.23 5.79c-2.88 0 -5.23 -2.59 -5.23 -5.79c0 -3.2 2.34 -5.8 5.23 -5.8c2.88 0 5.23 2.59 5.23 5.8z"
  />
  <path style="fill:#f7fcb7; fill-opacity:0.6823"
        d="M33.51 73.8c0 2.79 -1.98 5 -4.51 5c-2.52 0 -4.51 -2.2 -4.51 -5c0 -2.8 1.98 -5 4.51 -5c2.52 0 4.51 2.19 4.51 5z"
  />
  <path style="fill:#fbfddb; fill-opacity:0.8392"
        d="M32.79 73.8c0 2.39 -1.8 4.19 -3.79 4.19c-1.98 0 -3.79 -2 -3.79 -4.19c0 -2.2 1.8 -4.2 3.79 -4.2c1.98 0 3.79 2 3.79 4.2z"
  />
  <path style="fill:#ffffff"
        d="M32.07 73.8c0 2 -1.44 3.59 -3.24 3.59c-1.8 0 -3.24 -1.59 -3.24 -3.59c0 -2 1.44 -3.6 3.24 -3.6c1.8 0 3.24 1.6 3.24 3.6z"
  />
  <path style="fill:#000000; fill-opacity:0.298"
        d="M46.51 90.4h13.17l2.52 0.79h-4.33c0 0 4.33 0.4 6.49 3.4c2.16 2.8 -2.52 6.2 -2.52 6.2c-0.18 -0.6 -1.26 -5.4 -3.42 -7.4c-1.62 -1.59 -3.42 -2 -3.42 -2h-8.48v-0.8v-0.19z"
  />
  <path style="fill:#000000; fill-opacity:0.298"
        d="M55.17 91.59h-7.58l14.07 8.8l-6.49 -8.8z"
  />
  <path style="fill:#515151"
        d="M46.51 90.59h13.17l1.98 -1.4h-4.33c0 0 3.97 -0.79 4.51 -5.79c0.54 -5 -6.13 -10.59 -6.13 -10.59c0 0 0 0 0 0.19c0.18 1.19 1.98 9.59 0.72 12.8c-0.54 2.79 -2.16 3.39 -2.16 3.39h-8.3l0.36 1.4h0.18z"
  />
  <path style="fill:#515151"
        d="M54.45 88.4h-7.58l9.02 -15.2l-1.44 15.2z"
  />
  <path style="fill:#000000"
        d="M16.37 62.4v39.79h52.88v-39.79h-52.88z
           M68.17 101h-50.53v-37.4h50.53v37.4z"
  />
 </g>
</svg>
