<?xml version="1.0" encoding="UTF-8" standalone="no"?>
<svg
   xmlns:dc="http://purl.org/dc/elements/1.1/"
   xmlns:cc="http://creativecommons.org/ns#"
   xmlns:rdf="http://www.w3.org/1999/02/22-rdf-syntax-ns#"
   xmlns:svg="http://www.w3.org/2000/svg"
   xmlns="http://www.w3.org/2000/svg"
   xmlns:sodipodi="http://sodipodi.sourceforge.net/DTD/sodipodi-0.dtd"
   xmlns:inkscape="http://www.inkscape.org/namespaces/inkscape"
   width="123"
   height="127"
   color-interpolation="linearRGB"
   id="svg2"
   version="1.1"
   inkscape:version="0.48.1 r9760"
   sodipodi:docname="folder_wilmacon.svg">
  <metadata
     id="metadata172">
    <rdf:RDF>
      <cc:Work
         rdf:about="">
        <dc:format>image/svg+xml</dc:format>
        <dc:type
           rdf:resource="http://purl.org/dc/dcmitype/StillImage" />
      </cc:Work>
    </rdf:RDF>
  </metadata>
  <defs
     id="defs170" />
  <sodipodi:namedview
     pagecolor="#ffffff"
     bordercolor="#666666"
     borderopacity="1"
     objecttolerance="10"
     gridtolerance="10"
     guidetolerance="10"
     inkscape:pageopacity="0"
     inkscape:pageshadow="2"
     inkscape:window-width="657"
     inkscape:window-height="480"
     id="namedview168"
     showgrid="false"
     inkscape:zoom="2"
     inkscape:cx="61.5"
     inkscape:cy="63.5"
     inkscape:window-x="0"
     inkscape:window-y="0"
     inkscape:window-maximized="0"
     inkscape:current-layer="g4" />
  <g
     id="g4">
    <path
       style="fill:#000000; fill-opacity:0.2"
       d="M93.83 86.58l22.08 -18.45l-13.77 -7.87l-8.29 26.34l-0.01 -0.01l-0 -0z"
       id="path6" />
    <path
       style="fill:#000000"
       d="M54.81 5.26c0 0 -0.25 1.14 -0.47 2.25c-3.81 -1.43 -14.5 -5.43 -14.5 -5.43c0 0 0.63 10.85 0.9 15.34c-4.22 -1.56 -15.62 -5.85 -15.62 -5.85l16.07 53.19l52.2 21.87l3.63 -2.8l13.43 -59.92l-1.43 -8.8l-20.25 -5.42c0 0 -3.23 1.92 -4.62 2.76c-2.65 -0.97 -28.65 -10.51 -28.65 -10.51l-0.7 3.34l-0 -0z"
       id="path8" />
    <path
       style="fill:#000000"
       d="M107.4 23.85l-1.06 -6.53l-17 -4.52l-4.75 2.85l-26.68 -9.8l-1.2 5.59l-13.45 -5.01l0.9 15.34l-14.3 -5.36l14.03 46.36l48.49 20.54l-0.8 -4.94l3.36 1.4l12.54 -55.92l-0.01 0.01h-0.04h-0.01z"
       id="path10" />
    <linearGradient
       id="gradient0"
       gradientUnits="userSpaceOnUse"
       x1="46.34"
       y1="42.79"
       x2="107.4"
       y2="42.79">
      <stop
         offset="0"
         stop-color="#ffffff"
         id="stop13" />
      <stop
         offset="1"
         stop-color="#f1c779"
         id="stop15" />
    </linearGradient>
    <path
       style="fill:url(#gradient0)"
       d="M94.83 79.8l-48.47 -20.55l11.47 -53.43l26.68 9.79l4.76 -2.84l17 4.52l1.05 6.53l-12.54 55.93l0.01 0l0 0.01l0.02 0.02z"
       id="path17" />
    <linearGradient
       id="gradient1"
       gradientUnits="userSpaceOnUse"
       x1="76.18"
       y1="44.38"
       x2="79.26"
       y2="30.13">
      <stop
         offset="0"
         stop-color="#a68b54"
         id="stop20" />
      <stop
         offset="1"
         stop-color="#f1c779"
         id="stop22" />
    </linearGradient>
    <path
       style="fill:url(#gradient1)"
       d="M105.55 32.06l-10.69 47.7l-48.49 -20.52l9.04 -42.09l50.14 14.91v0z"
       id="path24" />
    <linearGradient
       id="gradient2"
       gradientUnits="userSpaceOnUse"
       x1="72.4"
       y1="21.21"
       x2="68.37"
       y2="47.09">
      <stop
         offset="0"
         stop-color="#ffffff"
         id="stop27" />
      <stop
         offset="0.648"
         stop-color="#eaeb49"
         id="stop29" />
      <stop
         offset="0.8069"
         stop-color="#e8e847"
         id="stop31" />
      <stop
         offset="0.9254"
         stop-color="#e0de42"
         id="stop33" />
      <stop
         offset="1"
         stop-color="#d7d43d"
         id="stop35" />
    </linearGradient>
    <path
       style="fill:url(#gradient2)"
       d="M94.83 79.8l-48.47 -20.55l-3.19 -52.84l54.88 20.54l-3.18 52.84h-0.02l-0.01 0.01h-0z"
       id="path37" />
    <path
       style="fill:#808080"
       d="M56.61 11.42c0 0 39.05 14.86 40.37 15.35c-0.06 1.26 -2.85 49.64 -3 52.34c-0.83 -0.37 -1.68 -0.77 -1.68 -0.77l-0.92 1.68l3.47 1.08l4.26 -55.54l-42.06 -15.94l-0.38 1.8l-0.02 0.01h-0.02h-0z"
       id="path39" />
    <linearGradient
       id="gradient3"
       gradientUnits="userSpaceOnUse"
       x1="32.31"
       y1="24.11"
       x2="70.73"
       y2="55.09">
      <stop
         offset="0"
         stop-color="#ffffff"
         id="stop42" />
      <stop
         offset="1"
         stop-color="#f1c779"
         id="stop44" />
    </linearGradient>
    <path
       style="fill:url(#gradient3)"
       d="M92.3 83.3l-48.49 -20.53l-14.04 -46.38l54.88 20.54l7.65 46.37z"
       id="path46" />
    <path
       style="fill:#808080"
       d="M30.12 17.54c0 0 52.5 19.63 53.56 20.04c0.15 1.01 7.5 45.27 7.5 45.27l2.19 0.83l-7.86 -47.48l-56.18 -21.03l0.71 2.31l0.01 0.02l0.02 0.01l0.02 0.02z"
       id="path48" />
    <path
       style="fill:#000000"
       d="M47.82 90.91v27.01l18.11 7.95l18.71 -17.12v-27.01l-18.11 -7.94l-18.71 17.12v-0.01z"
       id="path50" />
    <path
       style="fill:#000000"
       d="M13.39 56.52v27.01l18.11 7.94l18.71 -17.11v-27.01l-18.11 -7.94l-18.71 17.12v-0.01z"
       id="path52" />
    <path
       style="fill:#000000"
       d="M90.35 78.29c-0.77 -2.99 -3.48 -5.08 -5.76 -6.03c0.01 0 -7.5 -3.29 -15.62 -6.86l14.01 -12.88l-3.44 -1.77l-14.26 13.04c-8.29 -3.64 -16.11 -7.08 -16.11 -7.08l-0.21 3.85l34.25 15.13c1.84 0.76 3.3 2.19 3.65 3.55c0.04 0.21 0.08 0.43 0.08 0.64c0 0.63 -0.24 1.27 -0.75 1.94c-0.22 0.22 -2.58 2.89 -2.58 2.89v5.1l5.36 -5.57l0.05 -0.08c1.77 -2.31 1.7 -4.48 1.33 -5.9l-0.01 0.01z"
       id="path54" />
    <linearGradient
       id="gradient4"
       gradientUnits="userSpaceOnUse"
       x1="84.86"
       y1="49.21"
       x2="79.2"
       y2="53.81">
      <stop
         offset="0"
         stop-color="#ffffff"
         id="stop57" />
      <stop
         offset="1"
         stop-color="#000000"
         id="stop59" />
    </linearGradient>
    <path
       style="fill:url(#gradient4)"
       d="M68.93 65.38l16.68 -15.26l-3.55 -1.82l-16.81 15.48l3.68 1.62v-0.01z"
       id="path61" />
    <path
       style="fill:#000000; fill-opacity:0.2"
       d="M49.51 74.01l-17.99 17.56l7.28 0.02l18.99 -17.58v-4.02l-8.35 -3.64l0.07 7.68v-0.01z"
       id="path63" />
    <linearGradient
       id="gradient5"
       gradientUnits="userSpaceOnUse"
       x1="32.7"
       y1="62.22"
       x2="31.47"
       y2="49.55">
      <stop
         offset="0"
         stop-color="#f2f2f2"
         id="stop66" />
      <stop
         offset="0.312"
         stop-color="#eeeeee"
         id="stop68" />
      <stop
         offset="0.6646"
         stop-color="#e0e0e0"
         id="stop70" />
      <stop
         offset="1"
         stop-color="#cccccc"
         id="stop72" />
    </linearGradient>
    <path
       style="fill:url(#gradient5)"
       d="M31.13 64.36l-15.75 -6.92l3.38 -3.1l0.48 0.25l-0.01 -0.68l13.25 -12.12l15.75 6.91l-17.11 15.66l0.01 0.01z"
       id="path74" />
    <linearGradient
       id="gradient6"
       gradientUnits="userSpaceOnUse"
       x1="31.69"
       y1="88.81"
       x2="23.27"
       y2="73.31">
      <stop
         offset="0"
         stop-color="#e6e6e6"
         id="stop77" />
      <stop
         offset="0.6208"
         stop-color="#c7c7c7"
         id="stop79" />
      <stop
         offset="1"
         stop-color="#b3b3b3"
         id="stop81" />
    </linearGradient>
    <path
       style="fill:url(#gradient6)"
       d="M31.13 89.13l-9.24 -4.05l-0.01 -0.48l-0.76 0.15l-5.72 -2.53v-24.77l5.7 2.53l0.83 0.01l-0.04 0.32l9.24 4.02v24.77v0.01z"
       id="path83" />
    <path
       style="fill:#000000; fill-opacity:0.298"
       d="M21.86 84.59l-0.78 0.04v-24.65h0.84l-0.05 0.34v24.24v0.01z"
       id="path85" />
    <path
       style="fill:#ffffff; fill-opacity:0.8"
       d="M21.84 60.5h0.85v24.75h-0.85v-24.75z"
       id="path87" />
    <linearGradient
       id="gradient7"
       gradientUnits="userSpaceOnUse"
       x1="43.63"
       y1="72.06"
       x2="34.02"
       y2="64.36">
      <stop
         offset="0"
         stop-color="#999999"
         id="stop90" />
      <stop
         offset="0.6837"
         stop-color="#7b7b7b"
         id="stop92" />
      <stop
         offset="1"
         stop-color="#6b6b6b"
         id="stop94" />
    </linearGradient>
    <path
       style="fill:url(#gradient7)"
       d="M48.24 73.47l-13.33 12.2l-0.59 -0.31l0.01 0.85l-3.19 2.92v-24.77l17.11 -15.66v24.77z"
       id="path96" />
    <path
       style="fill:#ffffff; fill-opacity:0.8"
       d="M19.27 53.85l15.62 7.04l0.82 -0.72l-15.88 -6.81l-0.56 0.49z"
       id="path98" />
    <path
       style="fill:#242424; fill-opacity:0.596"
       d="M34.91 60.91v24.77l0.82 -0.75v-24.75l-0.82 0.72v0.01z"
       id="path100" />
    <path
       style="fill:#ffffff; fill-opacity:0.8392"
       d="M15.36 57.43v0.72l5.7 2.52l-0.01 -0.68h0.84l-0.05 1.03l9.26 4.02l0.02 -0.64l0.54 -0.54l-15.88 -6.81l-0.45 0.38h0.02z"
       id="path102" />
    <path
       style="fill:#000000; fill-opacity:0.298"
       d="M19.25 54.58l15.04 6.81v23.93l0.59 0.31v-24.75l-15.67 -7l0.01 0.68l0.01 0.01z"
       id="path104" />
    <path
       style="fill:#000000; fill-opacity:0.2"
       d="M83.96 108.52l-18 17.35l7.2 -0.06l19.07 -17.28v-4.02l-8.35 -3.65l0.07 7.68l0.01 -0.01z"
       id="path106" />
    <linearGradient
       id="gradient8"
       gradientUnits="userSpaceOnUse"
       x1="67.13"
       y1="96.73"
       x2="65.9"
       y2="84.06">
      <stop
         offset="0"
         stop-color="#f2f2f2"
         id="stop109" />
      <stop
         offset="0.312"
         stop-color="#eeeeee"
         id="stop111" />
      <stop
         offset="0.6646"
         stop-color="#e0e0e0"
         id="stop113" />
      <stop
         offset="1"
         stop-color="#cccccc"
         id="stop115" />
    </linearGradient>
    <path
       style="fill:url(#gradient8)"
       d="M65.56 98.87l-15.75 -6.91l3.38 -3.1l0.48 0.25l-0.01 -0.68l13.25 -12.12l15.75 6.91l-17.11 15.66h0.01z"
       id="path117" />
    <linearGradient
       id="gradient9"
       gradientUnits="userSpaceOnUse"
       x1="66.14"
       y1="123.32"
       x2="57.7"
       y2="107.82">
      <stop
         offset="0"
         stop-color="#e6e6e6"
         id="stop120" />
      <stop
         offset="0.6208"
         stop-color="#c7c7c7"
         id="stop122" />
      <stop
         offset="1"
         stop-color="#b3b3b3"
         id="stop124" />
    </linearGradient>
    <path
       style="fill:url(#gradient9)"
       d="M65.56 123.64l-9.24 -4.05l-0.01 -0.48l-0.76 0.15l-5.72 -2.53v-24.77l5.7 2.53l0.83 0.01l-0.04 0.32l9.24 4.02v24.77v0.01z"
       id="path126" />
    <path
       style="fill:#000000; fill-opacity:0.298"
       d="M56.3 119.1l-0.78 0.04v-24.65h0.84l-0.05 0.34v24.24v0.01z"
       id="path128" />
    <path
       style="fill:#ffffff; fill-opacity:0.8"
       d="M56.28 95h0.85v24.75h-0.85v-24.75z"
       id="path130" />
    <linearGradient
       id="gradient10"
       gradientUnits="userSpaceOnUse"
       x1="78.06"
       y1="106.57"
       x2="68.45"
       y2="98.87">
      <stop
         offset="0"
         stop-color="#999999"
         id="stop133" />
      <stop
         offset="0.6837"
         stop-color="#7b7b7b"
         id="stop135" />
      <stop
         offset="1"
         stop-color="#6b6b6b"
         id="stop137" />
    </linearGradient>
    <path
       style="fill:url(#gradient10)"
       d="M82.69 107.97l-13.33 12.2l-0.59 -0.31l0.01 0.85l-3.19 2.92v-24.77l17.11 -15.66v24.77z"
       id="path139" />
    <path
       style="fill:#ffffff; fill-opacity:0.8"
       d="M53.72 88.36l15.62 7.04l0.82 -0.72l-15.87 -6.81l-0.56 0.49h-0.01z"
       id="path141" />
    <path
       style="fill:#242424; fill-opacity:0.596"
       d="M69.34 95.42v24.77l0.82 -0.74v-24.75l-0.82 0.72z"
       id="path143" />
    <path
       style="fill:#ffffff; fill-opacity:0.8392"
       d="M49.81 91.94v0.72l5.7 2.52v-0.68h0.84l-0.05 1.03l9.26 4.02l0.03 -0.64l0.52 -0.54l-15.87 -6.81l-0.45 0.38z"
       id="path145" />
    <path
       style="fill:#000000; fill-opacity:0.298"
       d="M53.68 89.09l15.04 6.81v23.93l0.59 0.31v-24.75l-15.67 -7l0.01 0.68l0.01 0.01z"
       id="path147" />
    <path
       style="fill:#ffffd6"
       d="M64.19 104.54l-4.37 -1.81v-3.95l4.37 1.81v3.95z"
       id="path149" />
    <linearGradient
       id="gradient11"
       gradientUnits="userSpaceOnUse"
       x1="60.37"
       y1="97.93"
       x2="63.63"
       y2="105.14">
      <stop
         offset="0"
         stop-color="#969696"
         id="stop152" />
      <stop
         offset="1"
         stop-color="#2b2b2b"
         id="stop154" />
    </linearGradient>
    <path
       style="fill:url(#gradient11)"
       d="M61.73 100.39c0.24 -0.01 0.44 0 0.59 0.1c0.08 0.06 0.11 0.15 0.09 0.19c-0.07 0.22 -0.57 -0.12 -0.57 -0.12c0 0 -0.43 0.01 -0.46 0.64c-0.01 0.21 0.1 0.46 0.25 0.64c0.08 0.09 0.24 0.2 0.34 0.27c0.22 0.16 0.57 0.49 0.57 0.9c0 0.28 -0.19 0.36 -0.54 0.09c-0.21 -0.16 -0.27 -0.32 -0.27 -0.38c0 -0.06 0.04 -0.08 0.17 0c0.16 0.13 0.25 0.28 0.34 0.31c0.09 0.02 0.15 0.02 0.15 -0.08c0 -0.13 -0.11 -0.28 -0.22 -0.37c-0.14 -0.1 -0.15 -0.08 -0.32 -0.22c-0.12 -0.09 -0.64 -0.55 -0.64 -1.21c0 -0.64 0.42 -0.79 0.45 -0.76c0.01 0.01 -0.31 -0.25 -0.31 -0.48c0 -0.15 0.18 -0.09 0.3 -0.02c0.08 0.04 0.11 0.14 0 0.07c-0.04 -0.02 -0.11 0 -0.11 0.07c0 0.13 0.17 0.32 0.17 0.32l0.01 0.02z"
       id="path156" />
  </g>
</svg>
