<?xml version="1.0" encoding="UTF-8" standalone="no"?>
<!-- Created with Inkscape (http://www.inkscape.org/) -->

<svg
   xmlns:dc="http://purl.org/dc/elements/1.1/"
   xmlns:cc="http://creativecommons.org/ns#"
   xmlns:rdf="http://www.w3.org/1999/02/22-rdf-syntax-ns#"
   xmlns:svg="http://www.w3.org/2000/svg"
   xmlns="http://www.w3.org/2000/svg"
   xmlns:xlink="http://www.w3.org/1999/xlink"
   version="1.1"
   width="123"
   height="127"
   id="svg2">
  <metadata
     id="metadata335">
    <rdf:RDF>
      <cc:Work
         rdf:about="">
        <dc:format>image/svg+xml</dc:format>
        <dc:type
           rdf:resource="http://purl.org/dc/dcmitype/StillImage" />
        <dc:title></dc:title>
      </cc:Work>
    </rdf:RDF>
  </metadata>
  <defs
     id="defs333">
    <linearGradient
       x1="-360.32031"
       y1="123.2476"
       x2="-330.8967"
       y2="74.980797"
       id="linearGradient3460"
       xlink:href="#XMLID_1_"
       gradientUnits="userSpaceOnUse"
       gradientTransform="matrix(0.4828,0.721,0.7677,-0.514,139.425,346.3546)" />
    <linearGradient
       x1="-360.32031"
       y1="123.2476"
       x2="-330.8967"
       y2="74.980797"
       id="linearGradient3462"
       xlink:href="#XMLID_2_"
       gradientUnits="userSpaceOnUse"
       gradientTransform="matrix(0.4828,0.721,0.7677,-0.514,139.425,346.3546)" />
    <linearGradient
       x1="-302.32321"
       y1="247.7876"
       x2="-270.34631"
       y2="195.33231"
       id="linearGradient3464"
       xlink:href="#XMLID_3_"
       gradientUnits="userSpaceOnUse"
       gradientTransform="matrix(0.702,0.51,0.543,-0.7475,128.6427,347.1387)" />
    <linearGradient
       x1="-183.2178"
       y1="450.42429"
       x2="-185.6178"
       y2="395.22198"
       id="linearGradient3466"
       xlink:href="#XMLID_4_"
       gradientUnits="userSpaceOnUse"
       gradientTransform="matrix(1,0,0,-1,232.9102,447.4053)" />
    <linearGradient
       x1="-174.6353"
       y1="399.82861"
       x2="-198.9588"
       y2="402.19"
       id="linearGradient3512"
       xlink:href="#XMLID_5_"
       gradientUnits="userSpaceOnUse"
       gradientTransform="matrix(0.9985,-0.054,-0.054,-0.9985,270.7189,425.8398)" />
    <linearGradient
       x1="-161.20799"
       y1="384.25049"
       x2="-179.8627"
       y2="384.25049"
       id="linearGradient3514"
       xlink:href="#XMLID_6_"
       gradientUnits="userSpaceOnUse"
       gradientTransform="matrix(0.9985,-0.054,-0.054,-0.9985,270.7189,425.8398)" />
  </defs>
  <g
     id="g4">
    <path
       d="M 93.83,86.58 115.91,68.13 102.14,60.24 93.85,86.6 93.84,86.59 z"
       id="path6"
       style="fill:#000000;fill-opacity:0.2" />
    <path
       d="m 54.81,5.26 c 0,0 -0.25,1.16 -0.47,2.25 C 50.53,6.08 39.83,2.08 39.83,2.08 c 0,0 0.65,10.85 0.92,15.34 -4.23,-1.57 -15.63,-5.85 -15.63,-5.85 l 16.09,53.2 52.2,21.88 3.65,-2.81 L 110.49,23.91 109.05,15.1 88.8,9.68 c 0,0 -3.23,1.93 -4.62,2.77 C 81.53,11.48 55.53,1.92 55.53,1.92 l -0.72,3.34 0.01,0 z"
       id="path8"
       style="fill:#000000" />
    <path
       d="m 107.4,23.85 -1.06,-6.53 -17,-4.54 -4.77,2.86 -26.69,-9.81 -1.2,5.61 -13.45,-5.03 0.91,15.34 -14.31,-5.36 14.04,46.37 48.49,20.54 -0.81,-4.94 3.37,1.41 12.54,-55.93 -0.02,0.01 z"
       id="path10"
       style="fill:#000000" />
    <linearGradient
       x1="46.34"
       y1="42.790001"
       x2="107.4"
       y2="42.790001"
       id="gradient0"
       gradientUnits="userSpaceOnUse">
      <stop
         id="stop13"
         style="stop-color:#ffffff;stop-opacity:1"
         offset="0" />
      <stop
         id="stop15"
         style="stop-color:#f1c779;stop-opacity:1"
         offset="1" />
    </linearGradient>
    <path
       d="M 94.84,79.8 46.36,59.25 57.83,5.82 l 26.7,9.81 4.76,-2.86 17,4.54 1.06,6.53 -12.54,55.94 0.01,0.01 z"
       id="path17"
       style="fill:url(#gradient0)" />
    <linearGradient
       x1="76.18"
       y1="44.380001"
       x2="79.260002"
       y2="30.15"
       id="gradient1"
       gradientUnits="userSpaceOnUse">
      <stop
         id="stop20"
         style="stop-color:#a68b54;stop-opacity:1"
         offset="0" />
      <stop
         id="stop22"
         style="stop-color:#f1c779;stop-opacity:1"
         offset="1" />
    </linearGradient>
    <path
       d="M 105.55,32.06 94.86,79.78 46.37,59.24 l 9.04,-42.09 50.14,14.91 0,0 z"
       id="path24"
       style="fill:url(#gradient1)" />
    <linearGradient
       x1="72.400002"
       y1="21.23"
       x2="68.379997"
       y2="47.09"
       id="gradient2"
       gradientUnits="userSpaceOnUse">
      <stop
         id="stop27"
         style="stop-color:#ffffff;stop-opacity:1"
         offset="0" />
      <stop
         id="stop29"
         style="stop-color:#eaeb49;stop-opacity:1"
         offset="0.648" />
      <stop
         id="stop31"
         style="stop-color:#e8e847;stop-opacity:1"
         offset="0.80690002" />
      <stop
         id="stop33"
         style="stop-color:#e0de42;stop-opacity:1"
         offset="0.92540002" />
      <stop
         id="stop35"
         style="stop-color:#d7d43d;stop-opacity:1"
         offset="1" />
    </linearGradient>
    <path
       d="M 94.84,79.8 46.36,59.25 43.17,6.41 98.05,26.95 94.87,79.79 h -0.02 z"
       id="path37"
       style="fill:url(#gradient2)" />
    <path
       d="m 56.61,11.42 c 0,0 39.06,14.86 40.37,15.35 -0.06,1.26 -2.85,49.64 -3,52.34 -0.83,-0.37 -1.68,-0.77 -1.68,-0.77 l -0.92,1.68 3.47,1.08 4.26,-55.56 -42.06,-15.95 -0.4,1.82 -0.02,0.01 z"
       id="path39"
       style="fill:#808080" />
    <linearGradient
       x1="32.310001"
       y1="24.110001"
       x2="70.730003"
       y2="55.09"
       id="gradient3"
       gradientUnits="userSpaceOnUse">
      <stop
         id="stop42"
         style="stop-color:#ffffff;stop-opacity:1"
         offset="0" />
      <stop
         id="stop44"
         style="stop-color:#f1c779;stop-opacity:1"
         offset="1" />
    </linearGradient>
    <path
       d="M 92.3,83.31 43.81,62.77 29.77,16.39 84.65,36.93 92.3,83.31 z"
       id="path46"
       style="fill:url(#gradient3)" />
    <path
       d="m 30.12,17.54 c 0,0 52.52,19.65 53.58,20.05 0.16,1.03 7.5,45.29 7.5,45.29 l 2.2,0.84 -7.86,-47.49 -56.18,-21.05 0.73,2.33 0.01,0.02 z"
       id="path48"
       style="fill:#808080" />
    <linearGradient
       x1="48.18"
       y1="110.56"
       x2="21.889999"
       y2="64.449997"
       id="gradient4"
       gradientUnits="userSpaceOnUse">
      <stop
         id="stop55"
         style="stop-color:#ffffff;stop-opacity:1"
         offset="0" />
      <stop
         id="stop57"
         style="stop-color:#e1e1e1;stop-opacity:1"
         offset="0.43040001" />
      <stop
         id="stop59"
         style="stop-color:#b3b3b3;stop-opacity:1"
         offset="1" />
    </linearGradient>
    <linearGradient
       x1="49.810001"
       y1="93.220001"
       x2="44.990002"
       y2="46.189999"
       id="gradient5"
       gradientUnits="userSpaceOnUse">
      <stop
         id="stop64"
         style="stop-color:#ffffff;stop-opacity:1"
         offset="0" />
      <stop
         id="stop66"
         style="stop-color:#fafafa;stop-opacity:1"
         offset="0.26620001" />
      <stop
         id="stop68"
         style="stop-color:#ededed;stop-opacity:1"
         offset="0.56730002" />
      <stop
         id="stop70"
         style="stop-color:#d6d6d6;stop-opacity:1"
         offset="0.88450003" />
      <stop
         id="stop72"
         style="stop-color:#cccccc;stop-opacity:1"
         offset="1" />
    </linearGradient>
    <linearGradient
       x1="76.019997"
       y1="90.949997"
       x2="65.93"
       y2="83.239998"
       id="gradient6"
       gradientUnits="userSpaceOnUse">
      <stop
         id="stop77"
         style="stop-color:#999999;stop-opacity:1"
         offset="0" />
      <stop
         id="stop79"
         style="stop-color:#7b7b7b;stop-opacity:1"
         offset="0.68379998" />
      <stop
         id="stop81"
         style="stop-color:#6b6b6b;stop-opacity:1"
         offset="1" />
    </linearGradient>
    <linearGradient
       x1="34.619999"
       y1="96.589996"
       x2="32.799999"
       y2="78.769997"
       id="gradient7"
       gradientUnits="userSpaceOnUse">
      <stop
         id="stop94"
         style="stop-color:#bfbfbf;stop-opacity:1"
         offset="0" />
      <stop
         id="stop96"
         style="stop-color:#888888;stop-opacity:1"
         offset="0.41010001" />
      <stop
         id="stop98"
         style="stop-color:#494949;stop-opacity:1"
         offset="1" />
    </linearGradient>
    <linearGradient
       x1="23.889999"
       y1="117.92"
       x2="11.1"
       y2="95.489998"
       id="gradient8"
       gradientUnits="userSpaceOnUse">
      <stop
         id="stop109"
         style="stop-color:#ffffff;stop-opacity:1"
         offset="0" />
      <stop
         id="stop111"
         style="stop-color:#e1e1e1;stop-opacity:1"
         offset="0.43040001" />
      <stop
         id="stop113"
         style="stop-color:#b3b3b3;stop-opacity:1"
         offset="1" />
    </linearGradient>
    <linearGradient
       x1="38.669998"
       y1="107.98"
       x2="34.709999"
       y2="104.94"
       id="gradient9"
       gradientUnits="userSpaceOnUse">
      <stop
         id="stop118"
         style="stop-color:#999999;stop-opacity:1"
         offset="0" />
      <stop
         id="stop120"
         style="stop-color:#7b7b7b;stop-opacity:1"
         offset="0.68379998" />
      <stop
         id="stop122"
         style="stop-color:#6b6b6b;stop-opacity:1"
         offset="1" />
    </linearGradient>
    <linearGradient
       x1="6.25"
       y1="100.98"
       x2="7.5599999"
       y2="104.41"
       id="gradient10"
       gradientUnits="userSpaceOnUse">
      <stop
         id="stop129"
         style="stop-color:#000000;stop-opacity:1"
         offset="0" />
      <stop
         id="stop131"
         style="stop-color:#ffffff;stop-opacity:1"
         offset="1" />
    </linearGradient>
    <radialGradient
       cx="0"
       cy="0"
       r="200"
       id="gradient11"
       gradientUnits="userSpaceOnUse"
       gradientTransform="matrix(0.0629,0,0,0.0614,18.5068,97.6729)">
      <stop
         id="stop138"
         style="stop-color:#ffffff;stop-opacity:1"
         offset="0" />
      <stop
         id="stop140"
         style="stop-color:#000000;stop-opacity:1"
         offset="0.63480002" />
      <stop
         id="stop142"
         style="stop-color:#ffffff;stop-opacity:1"
         offset="1" />
    </radialGradient>
    <radialGradient
       cx="0"
       cy="0"
       r="200"
       id="gradient12"
       gradientUnits="userSpaceOnUse"
       gradientTransform="matrix(0.053,0,0,0.0517,27.5599,102.2296)">
      <stop
         id="stop153"
         style="stop-color:#ffffff;stop-opacity:1"
         offset="0" />
      <stop
         id="stop155"
         style="stop-color:#000000;stop-opacity:1"
         offset="0.63480002" />
      <stop
         id="stop157"
         style="stop-color:#ffffff;stop-opacity:1"
         offset="1" />
    </radialGradient>
    <linearGradient
       x1="50.52"
       y1="101.35"
       x2="-1.9400001"
       y2="95.900002"
       id="gradient13"
       gradientUnits="userSpaceOnUse">
      <stop
         id="stop176"
         style="stop-color:#ffffff;stop-opacity:1"
         offset="0" />
      <stop
         id="stop178"
         style="stop-color:#fafafa;stop-opacity:1"
         offset="0.26620001" />
      <stop
         id="stop180"
         style="stop-color:#ededed;stop-opacity:1"
         offset="0.56730002" />
      <stop
         id="stop182"
         style="stop-color:#d6d6d6;stop-opacity:1"
         offset="0.88450003" />
      <stop
         id="stop184"
         style="stop-color:#cccccc;stop-opacity:1"
         offset="1" />
    </linearGradient>
    <linearGradient
       x1="33.639999"
       y1="98.269997"
       x2="21.610001"
       y2="80.43"
       id="gradient14"
       gradientUnits="userSpaceOnUse">
      <stop
         id="stop197"
         style="stop-color:#e1e1e1;stop-opacity:1"
         offset="0" />
      <stop
         id="stop199"
         style="stop-color:#e1e1e1;stop-opacity:1"
         offset="0.43040001" />
      <stop
         id="stop201"
         style="stop-color:#b3b3b3;stop-opacity:1"
         offset="1" />
    </linearGradient>
    <linearGradient
       x1="42.599998"
       y1="99.57"
       x2="43.040001"
       y2="101.79"
       id="gradient15"
       gradientUnits="userSpaceOnUse">
      <stop
         id="stop206"
         style="stop-color:#e1e1e1;stop-opacity:1"
         offset="0" />
      <stop
         id="stop208"
         style="stop-color:#b3b3b3;stop-opacity:1"
         offset="1" />
    </linearGradient>
    <linearGradient
       x1="13.12"
       y1="77.339996"
       x2="15.75"
       y2="79.220001"
       id="gradient16"
       gradientUnits="userSpaceOnUse">
      <stop
         id="stop213"
         style="stop-color:#000000;stop-opacity:1"
         offset="0" />
      <stop
         id="stop215"
         style="stop-color:#ffffff;stop-opacity:1"
         offset="1" />
    </linearGradient>
    <linearGradient
       x1="14.76"
       y1="78.580002"
       x2="13.14"
       y2="77.099998"
       id="gradient17"
       gradientUnits="userSpaceOnUse">
      <stop
         id="stop220"
         style="stop-color:#000000;stop-opacity:1"
         offset="0" />
      <stop
         id="stop222"
         style="stop-color:#ffffff;stop-opacity:1"
         offset="1" />
    </linearGradient>
    <linearGradient
       x1="13.73"
       y1="80.470001"
       x2="15.35"
       y2="74.93"
       id="gradient18"
       gradientUnits="userSpaceOnUse">
      <stop
         id="stop227"
         style="stop-color:#000000;stop-opacity:1"
         offset="0" />
      <stop
         id="stop229"
         style="stop-color:#ffffff;stop-opacity:1"
         offset="1" />
    </linearGradient>
    <linearGradient
       x1="13.74"
       y1="80.300003"
       x2="15.28"
       y2="75.059998"
       id="gradient19"
       gradientUnits="userSpaceOnUse">
      <stop
         id="stop234"
         style="stop-color:#021403;stop-opacity:1"
         offset="0" />
      <stop
         id="stop236"
         style="stop-color:#eeffef;stop-opacity:1"
         offset="1" />
    </linearGradient>
    <linearGradient
       x1="13.76"
       y1="80.120003"
       x2="15.2"
       y2="75.199997"
       id="gradient20"
       gradientUnits="userSpaceOnUse">
      <stop
         id="stop241"
         style="stop-color:#052706;stop-opacity:1"
         offset="0" />
      <stop
         id="stop243"
         style="stop-color:#ddffde;stop-opacity:1"
         offset="1" />
    </linearGradient>
    <linearGradient
       x1="13.77"
       y1="79.949997"
       x2="15.12"
       y2="75.339996"
       id="gradient21"
       gradientUnits="userSpaceOnUse">
      <stop
         id="stop248"
         style="stop-color:#073b0a;stop-opacity:1"
         offset="0" />
      <stop
         id="stop250"
         style="stop-color:#cbffce;stop-opacity:1"
         offset="1" />
    </linearGradient>
    <linearGradient
       x1="13.78"
       y1="79.779999"
       x2="15.04"
       y2="75.470001"
       id="gradient22"
       gradientUnits="userSpaceOnUse">
      <stop
         id="stop255"
         style="stop-color:#0a4e0d;stop-opacity:1"
         offset="0" />
      <stop
         id="stop257"
         style="stop-color:#baffbd;stop-opacity:1"
         offset="1" />
    </linearGradient>
    <linearGradient
       x1="13.8"
       y1="79.610001"
       x2="14.97"
       y2="75.599998"
       id="gradient23"
       gradientUnits="userSpaceOnUse">
      <stop
         id="stop262"
         style="stop-color:#0c6210;stop-opacity:1"
         offset="0" />
      <stop
         id="stop264"
         style="stop-color:#a9ffad;stop-opacity:1"
         offset="1" />
    </linearGradient>
    <linearGradient
       x1="13.81"
       y1="79.43"
       x2="14.89"
       y2="75.739998"
       id="gradient24"
       gradientUnits="userSpaceOnUse">
      <stop
         id="stop269"
         style="stop-color:#0e7613;stop-opacity:1"
         offset="0" />
      <stop
         id="stop271"
         style="stop-color:#98ff9d;stop-opacity:1"
         offset="1" />
    </linearGradient>
    <linearGradient
       x1="13.82"
       y1="79.260002"
       x2="14.81"
       y2="75.879997"
       id="gradient25"
       gradientUnits="userSpaceOnUse">
      <stop
         id="stop276"
         style="stop-color:#118917;stop-opacity:1"
         offset="0" />
      <stop
         id="stop278"
         style="stop-color:#86ff8c;stop-opacity:1"
         offset="1" />
    </linearGradient>
    <linearGradient
       x1="13.84"
       y1="79.089996"
       x2="14.74"
       y2="76.010002"
       id="gradient26"
       gradientUnits="userSpaceOnUse">
      <stop
         id="stop283"
         style="stop-color:#139d1a;stop-opacity:1"
         offset="0" />
      <stop
         id="stop285"
         style="stop-color:#75ff7c;stop-opacity:1"
         offset="1" />
    </linearGradient>
    <linearGradient
       x1="13.85"
       y1="78.919998"
       x2="14.66"
       y2="76.139999"
       id="gradient27"
       gradientUnits="userSpaceOnUse">
      <stop
         id="stop290"
         style="stop-color:#15b11d;stop-opacity:1"
         offset="0" />
      <stop
         id="stop292"
         style="stop-color:#64ff6c;stop-opacity:1"
         offset="1" />
    </linearGradient>
    <linearGradient
       x1="13.86"
       y1="78.75"
       x2="14.58"
       y2="76.279999"
       id="gradient28"
       gradientUnits="userSpaceOnUse">
      <stop
         id="stop297"
         style="stop-color:#18c420;stop-opacity:1"
         offset="0" />
      <stop
         id="stop299"
         style="stop-color:#53ff5b;stop-opacity:1"
         offset="1" />
    </linearGradient>
    <linearGradient
       x1="13.87"
       y1="78.580002"
       x2="14.51"
       y2="76.410004"
       id="gradient29"
       gradientUnits="userSpaceOnUse">
      <stop
         id="stop304"
         style="stop-color:#1ad824;stop-opacity:1"
         offset="0" />
      <stop
         id="stop306"
         style="stop-color:#41ff4b;stop-opacity:1"
         offset="1" />
    </linearGradient>
    <linearGradient
       x1="13.88"
       y1="78.410004"
       x2="14.43"
       y2="76.540001"
       id="gradient30"
       gradientUnits="userSpaceOnUse">
      <stop
         id="stop311"
         style="stop-color:#1deb27;stop-opacity:1"
         offset="0" />
      <stop
         id="stop313"
         style="stop-color:#30ff3a;stop-opacity:1"
         offset="1" />
    </linearGradient>
  </g>
  <g
     transform="matrix(0.71257273,0,0,0.71257273,158.75,16.986238)"
     id="g156">
    <path
       d="m -118.71261,92.226133 -14.99202,15.475627 -16.09741,6.82512 26.21875,-28.144111 4.87068,5.843364 z"
       id="path200"
       style="opacity:0.4;stroke:none" />
    <path
       d="m -160.39062,45.126564 -53.01202,30.225829 66.38593,60.366197 53.012008,-30.22218 -66.385918,-60.369846 z"
       id="path201"
       style="fill:#ffffff;stroke:none" />
    <g
       transform="matrix(1.818095,0,0,1.818095,-276.92324,11.328179)"
       id="g202"
       style="stroke:#000000">
      <path
         d="M 63.991,17.888 34.013,34.981 71.554,69.12 101.534,52.027 63.991,17.888 z m 4.216,6.549 1.627,1.478 -2.284,1.3 -1.624,-1.476 2.281,-1.302 z m -4.751,-4.321 1.625,1.476 -2.283,1.3 -1.625,-1.475 2.283,-1.301 z m -24.62,16.437 -1.623,-1.475 2.282,-1.302 1.624,1.477 -2.283,1.3 z m 4.752,4.322 -1.625,-1.475 2.282,-1.302 1.626,1.477 -2.283,1.3 z m 4.754,4.324 -1.625,-1.477 2.283,-1.301 1.626,1.477 -2.284,1.301 z m 4.753,4.321 -1.624,-1.476 2.282,-1.303 1.626,1.478 -2.284,1.301 z m 4.752,4.323 -1.621,-1.478 2.279,-1.302 1.626,1.478 -2.284,1.302 z m 4.754,4.324 -1.623,-1.479 2.283,-1.3 1.623,1.477 -2.283,1.302 z m 4.751,4.321 -1.621,-1.479 2.28,-1.298 1.625,1.476 -2.284,1.301 z m 4.754,4.322 -1.623,-1.479 2.282,-1.299 1.624,1.475 -2.283,1.303 z m 0.199,-35.273 -1.624,-1.477 2.281,-1.301 1.626,1.477 -2.283,1.301 z m 4.752,4.321 -1.623,-1.476 2.28,-1.302 1.625,1.478 -2.282,1.3 z m 4.754,4.324 -1.624,-1.478 2.281,-1.302 1.626,1.478 -2.283,1.302 z m 4.752,4.322 -1.624,-1.478 2.282,-1.301 1.625,1.477 -2.283,1.302 z m 4.752,4.321 -1.621,-1.477 2.28,-1.302 1.626,1.477 -2.285,1.302 z m 3.132,2.845 2.282,-1.3 1.625,1.477 -2.284,1.302 -1.623,-1.479 z"
         id="path203-7"
         style="fill:#000001;stroke:none" />
      <linearGradient
         x1="-174.6353"
         y1="399.82861"
         x2="-198.9588"
         y2="402.19"
         id="XMLID_5_"
         gradientUnits="userSpaceOnUse"
         gradientTransform="matrix(0.9985,-0.054,-0.054,-0.9985,270.7189,425.8398)">
        <stop
           id="stop205"
           style="stop-color:#d9d8ff;stop-opacity:1"
           offset="0.0056" />
        <stop
           id="stop206-8"
           style="stop-color:#fdfeed;stop-opacity:1"
           offset="0.514" />
        <stop
           id="stop207"
           style="stop-color:#6566cb;stop-opacity:1"
           offset="1" />
      </linearGradient>
      <path
         d="M 59.571,22.996 75.59,37.564 57.788,47.712 41.771,33.145 59.571,22.996 z"
         id="path213"
         style="fill:url(#linearGradient3512);stroke:none" />
      <g
         id="g214">
        <linearGradient
           x1="-161.20799"
           y1="384.25049"
           x2="-179.8627"
           y2="384.25049"
           id="XMLID_6_"
           gradientUnits="userSpaceOnUse"
           gradientTransform="matrix(0.9985,-0.054,-0.054,-0.9985,270.7189,425.8398)">
          <stop
             id="stop216"
             style="stop-color:#d9d8ff;stop-opacity:1"
             offset="0.0056" />
          <stop
             id="stop217"
             style="stop-color:#fdfeed;stop-opacity:1"
             offset="0.514" />
          <stop
             id="stop218"
             style="stop-color:#6566cb;stop-opacity:1"
             offset="1" />
        </linearGradient>
        <path
           d="M 77.381,39.191 93.4,53.76 75.6,63.907 59.58,49.339 77.381,39.191 z"
           id="path224-4"
           style="fill:url(#linearGradient3514);stroke:none" />
      </g>
    </g>
  </g>
</svg>
