<?xml version="1.0" encoding="UTF-8" standalone="no"?>
<!-- Created with Inkscape (http://www.inkscape.org/) -->

<svg
   xmlns:svg="http://www.w3.org/2000/svg"
   xmlns="http://www.w3.org/2000/svg"
   xmlns:xlink="http://www.w3.org/1999/xlink"
   version="1.1"
   width="48pt"
   height="48pt"
   viewBox="0 0 47.734 48.432"
   id="svg153"
   xml:space="preserve"
   style="overflow:visible">
  <defs
   id="defs205">
		
		
		
		<linearGradient
   x1="65.067902"
   y1="36.088902"
   x2="77.288597"
   y2="26.4258"
   id="XMLID_1_-7"
   gradientUnits="userSpaceOnUse">
			<stop
   id="stop12"
   style="stop-color:#ffffff;stop-opacity:1"
   offset="0" />
			<stop
   id="stop14"
   style="stop-color:#cccccc;stop-opacity:1"
   offset="1" />
			<midPointStop
   id="midPointStop16"
   style="stop-color:#FFFFFF"
   offset="0" />
			<midPointStop
   id="midPointStop18"
   style="stop-color:#FFFFFF"
   offset="0.5" />
			<midPointStop
   id="midPointStop20"
   style="stop-color:#CCCCCC"
   offset="1" />
		</linearGradient>
		
		
		
		
		
		
		<linearGradient
   x1="71.2183"
   y1="38.578098"
   x2="67.318802"
   y2="45.819099"
   id="XMLID_10_"
   gradientUnits="userSpaceOnUse">
			<stop
   id="stop219"
   style="stop-color:#ff0000;stop-opacity:1"
   offset="0" />
			<stop
   id="stop221"
   style="stop-color:#9d0000;stop-opacity:1"
   offset="1" />
			<midPointStop
   id="midPointStop223"
   style="stop-color:#FF0000"
   offset="0" />
			<midPointStop
   id="midPointStop225"
   style="stop-color:#FF0000"
   offset="0.5" />
			<midPointStop
   id="midPointStop227"
   style="stop-color:#9D0000"
   offset="1" />
		</linearGradient>
		
	<linearGradient
   x1="71.2183"
   y1="38.578098"
   x2="67.318802"
   y2="45.819099"
   id="linearGradient3109"
   xlink:href="#XMLID_10_"
   gradientUnits="userSpaceOnUse"
   gradientTransform="matrix(0.36235822,0,0,0.36235822,3.1416701,23.695203)" /><linearGradient
   x1="65.067902"
   y1="36.088902"
   x2="77.288597"
   y2="26.4258"
   id="linearGradient3213"
   xlink:href="#XMLID_1_-7"
   gradientUnits="userSpaceOnUse"
   gradientTransform="matrix(0.8072,0,0,0.8072,-105.67419,-21.567891)" /></defs>
  
  
  <path
   d="m 15.198651,30.877869 -0.854803,3.098524 0.265609,0.723993 14.278001,6.102837 c 0.04529,0.01666 2.464035,0.887052 3.252165,2.015436 0.260173,0.372142 0.427582,0.733775 0.604413,1.116425 0.304743,0.658406 0.619633,1.339276 1.409936,2.037179 1.38131,1.218973 5.452402,2.502808 5.624886,2.557162 l 0.349676,-0.61601 c 0,0 -1.468278,-1.309562 -2.209298,-1.970504 1.04033,-0.1261 3.359059,-0.406565 3.359059,-0.406565 l 0.03767,-0.713122 c -0.03371,-0.0076 -3.359422,-0.779432 -4.613545,-1.886799 -0.819654,-0.722904 -1.446896,-1.715041 -2.000579,-2.590498 L 34.081846,39.39691 C 33.161116,38.077926 30.607577,37.15971 30.499232,37.121301 30.49887,37.120201 15.694,30.643061 15.694,30.643061 l -0.383375,-0.167772 -0.111969,0.40258 z"
   id="path216" /><g
   transform="scale(0.90111728,0.90111728)"
   id="Layer_1"
   style="stroke:#000000">
    <g
   id="Layer_1_2_">
      <path
   d="M 36.128,48.378 47.734,37.827 40.486,33.308 36.128,48.378 z"
   id="path157"
   style="opacity:0.2;stroke:none" />
      <path
   d="m 15.616,1.914 c 0,0 -0.132,0.67 -0.255,1.291 C 13.353,2.388 7.732,0.099 7.732,0.099 c 0,0 0.345,6.202 0.487,8.768 C 5.993,7.96 0,5.522 0,5.522 L 8.467,35.923 35.914,48.431 37.837,46.819 44.9,12.579 44.136,7.537 33.491,4.436 c 0,0 -1.7,1.113 -2.43,1.59 C 29.666,5.468 15.995,0 15.995,0 l -0.379,1.914 z"
   id="path158"
   style="stroke:none" />
      <g
   id="g159">
        <path
   d="M 43.255,12.535 42.69,8.803 33.753,6.201 31.242,7.844 17.205,2.229 16.569,5.445 9.49,2.564 9.978,11.332 2.446,8.266 l 7.38,26.5 25.494,11.741 -0.429,-2.829 1.771,0.817 6.593,-31.96 z"
   id="path160"
   style="stroke:none" />
      </g>
      <g
   id="g161">
        <linearGradient
   x1="-224.13429"
   y1="382.47751"
   x2="-192.0479"
   y2="382.47751"
   id="XMLID_1_"
   gradientUnits="userSpaceOnUse"
   gradientTransform="matrix(1,0,0,-1,235.3027,405.8398)">
          <stop
   id="stop163"
   style="stop-color:#ffffff;stop-opacity:1"
   offset="0" />
          <stop
   id="stop164"
   style="stop-color:#f1c779;stop-opacity:1"
   offset="1" />
        </linearGradient>
        <path
   d="M 36.662,44.496 11.168,32.755 17.205,2.229 31.242,7.844 33.753,6.2 l 8.937,2.602 0.565,3.732 -6.593,31.962 z"
   id="path168"
   style="fill:url(#XMLID_1_);stroke:none" />
      </g>
      <g
   id="g169">
        <linearGradient
   x1="-208.457"
   y1="381.5762"
   x2="-206.8315"
   y2="389.70349"
   id="XMLID_2_"
   gradientUnits="userSpaceOnUse"
   gradientTransform="matrix(1,0,0,-1,235.3027,405.8398)">
          <stop
   id="stop171"
   style="stop-color:#a68b54;stop-opacity:1"
   offset="0" />
          <stop
   id="stop172"
   style="stop-color:#f1c779;stop-opacity:1"
   offset="1" />
        </linearGradient>
        <path
   d="M 42.286,17.229 36.662,44.496 11.168,32.755 15.924,8.707 42.286,17.229 z"
   id="path176"
   style="fill:url(#XMLID_2_);stroke:none" />
      </g>
      <g
   id="g177">
        <linearGradient
   x1="-210.4424"
   y1="394.7988"
   x2="-212.55299"
   y2="380.02481"
   id="XMLID_3_"
   gradientUnits="userSpaceOnUse"
   gradientTransform="matrix(1,0,0,-1,235.3027,405.8398)">
          <stop
   id="stop179"
   style="stop-color:#ffffff;stop-opacity:1"
   offset="0" />
          <stop
   id="stop180"
   style="stop-color:#eaeb49;stop-opacity:1"
   offset="0.648" />
          <stop
   id="stop181"
   style="stop-color:#e8e847;stop-opacity:1"
   offset="0.80699998" />
          <stop
   id="stop182"
   style="stop-color:#e0de42;stop-opacity:1"
   offset="0.92549998" />
          <stop
   id="stop183"
   style="stop-color:#d7d43d;stop-opacity:1"
   offset="1" />
        </linearGradient>
        <path
   d="M 36.662,44.496 11.168,32.755 9.49,2.564 38.339,14.305 36.662,44.496 z"
   id="path193"
   style="fill:url(#XMLID_3_);stroke:none" />
      </g>
      <path
   d="m 16.56,5.435 c 0,0 20.538,8.491 21.22,8.774 -0.04,0.723 -1.499,28.36 -1.58,29.906 -0.438,-0.222 -0.885,-0.446 -0.885,-0.446 l -0.487,0.964 1.825,0.624 L 38.897,13.506 16.779,4.388 16.56,5.435 z"
   id="path194"
   style="fill:#808080;stroke:none" />
      <g
   id="g195">
        <linearGradient
   x1="-231.5103"
   y1="393.1572"
   x2="-211.32091"
   y2="375.45291"
   id="XMLID_4_"
   gradientUnits="userSpaceOnUse"
   gradientTransform="matrix(1,0,0,-1,235.3027,405.8398)">
          <stop
   id="stop197"
   style="stop-color:#ffffff;stop-opacity:1"
   offset="0" />
          <stop
   id="stop198"
   style="stop-color:#f1c779;stop-opacity:1"
   offset="1" />
        </linearGradient>
        <path
   d="M 35.319,46.508 9.826,34.767 l -7.38,-26.5 28.849,11.741 4.024,26.5 z"
   id="path202"
   style="fill:url(#XMLID_4_);stroke:none" />
      </g>
      <path
   d="m 2.639,8.928 c 0,0 27.61,11.237 28.168,11.464 0.09,0.593 3.943,25.878 3.943,25.878 L 35.914,46.759 31.783,19.622 2.25,7.595 2.639,8.928 z"
   id="path203"
   style="fill:#808080;stroke:none" />
    </g>
  </g><path
   d="m 32.088912,41.71856 c 0,0 -0.312247,-0.346072 0.552702,0.89283 0.741748,1.06171 0.783056,2.053122 1.956734,3.089104 1.339277,1.182374 5.493352,2.48324 5.493352,2.48324 l -2.80719,-2.504257 4.154801,-0.503316 c 0,0 -3.433344,-0.785955 -4.77262,-1.968329 -1.17368,-1.035982 -2.511601,-2.379477 -3.658956,-2.979661 -0.151764,-0.07939 -0.998671,-0.714443 -0.998671,-0.714443 l -0.111879,1.539379 0.246317,0.935109 -0.09582,0.200224 0.04123,-0.46988 z"
   id="path229"
   style="fill:url(#linearGradient3109)" />
</svg>