<?xml version="1.0" encoding="UTF-8" standalone="no"?>
<!-- Created with Inkscape (http://www.inkscape.org/) -->

<svg
   xmlns:svg="http://www.w3.org/2000/svg"
   xmlns="http://www.w3.org/2000/svg"
   xmlns:xlink="http://www.w3.org/1999/xlink"
   version="1.1"
   width="123"
   height="127"
   id="svg2">
  <defs
     id="defs282">
    <linearGradient
       x1="46.34"
       y1="42.790001"
       x2="107.4"
       y2="42.790001"
       id="gradient0"
       gradientUnits="userSpaceOnUse">
      <stop
         id="stop13"
         style="stop-color:#ffffff;stop-opacity:1"
         offset="0" />
      <stop
         id="stop15"
         style="stop-color:#f1c779;stop-opacity:1"
         offset="1" />
    </linearGradient>
    <linearGradient
       x1="76.18"
       y1="44.380001"
       x2="79.260002"
       y2="30.129999"
       id="gradient1"
       gradientUnits="userSpaceOnUse">
      <stop
         id="stop20"
         style="stop-color:#a68b54;stop-opacity:1"
         offset="0" />
      <stop
         id="stop22"
         style="stop-color:#f1c779;stop-opacity:1"
         offset="1" />
    </linearGradient>
    <linearGradient
       x1="72.400002"
       y1="21.209999"
       x2="68.370003"
       y2="47.09"
       id="gradient2"
       gradientUnits="userSpaceOnUse">
      <stop
         id="stop27"
         style="stop-color:#ffffff;stop-opacity:1"
         offset="0" />
      <stop
         id="stop29"
         style="stop-color:#eaeb49;stop-opacity:1"
         offset="0.648" />
      <stop
         id="stop31"
         style="stop-color:#e8e847;stop-opacity:1"
         offset="0.80690002" />
      <stop
         id="stop33"
         style="stop-color:#e0de42;stop-opacity:1"
         offset="0.92540002" />
      <stop
         id="stop35"
         style="stop-color:#d7d43d;stop-opacity:1"
         offset="1" />
    </linearGradient>
    <linearGradient
       x1="32.310001"
       y1="24.110001"
       x2="70.730003"
       y2="55.09"
       id="gradient3"
       gradientUnits="userSpaceOnUse">
      <stop
         id="stop42"
         style="stop-color:#ffffff;stop-opacity:1"
         offset="0" />
      <stop
         id="stop44"
         style="stop-color:#f1c779;stop-opacity:1"
         offset="1" />
    </linearGradient>
    <linearGradient
       x1="34.34"
       y1="51.77"
       x2="34.34"
       y2="52.130001"
       id="gradient4"
       gradientUnits="userSpaceOnUse">
      <stop
         id="stop51"
         style="stop-color:#ffffff;stop-opacity:1"
         offset="0" />
      <stop
         id="stop53"
         style="stop-color:#003399;stop-opacity:1"
         offset="0.99440002" />
    </linearGradient>
    <radialGradient
       cx="0"
       cy="0"
       r="200"
       id="gradient5"
       gradientUnits="userSpaceOnUse"
       gradientTransform="matrix(0.2016,0,0,-0.186,28.6379,78.2969)">
      <stop
         id="stop60"
         style="stop-color:#ffffff;stop-opacity:1"
         offset="0" />
      <stop
         id="stop62"
         style="stop-color:#33cdcd;stop-opacity:1"
         offset="1" />
    </radialGradient>
    <radialGradient
       cx="0"
       cy="0"
       r="200"
       id="gradient6"
       gradientUnits="userSpaceOnUse"
       gradientTransform="matrix(0.3115,0,0,-0.2874,24.2968,75.0979)">
      <stop
         id="stop67"
         style="stop-color:#33cc33;stop-opacity:1"
         offset="0" />
      <stop
         id="stop69"
         style="stop-color:#009900;stop-opacity:1"
         offset="0.57529998" />
      <stop
         id="stop71"
         style="stop-color:#005e07;stop-opacity:1"
         offset="1" />
    </radialGradient>
    <radialGradient
       cx="0"
       cy="0"
       r="200"
       id="gradient7"
       gradientUnits="userSpaceOnUse"
       gradientTransform="matrix(0.3047,0,0,-0.2811,25.1109,74.8853)">
      <stop
         id="stop76"
         style="stop-color:#33cc33;stop-opacity:1"
         offset="0" />
      <stop
         id="stop78"
         style="stop-color:#009900;stop-opacity:1"
         offset="0.57529998" />
      <stop
         id="stop80"
         style="stop-color:#005e07;stop-opacity:1"
         offset="1" />
    </radialGradient>
    <radialGradient
       cx="0"
       cy="0"
       r="200"
       id="gradient8"
       gradientUnits="userSpaceOnUse"
       gradientTransform="matrix(0.3061,0,0,-0.2824,24.3003,75.6799)">
      <stop
         id="stop85"
         style="stop-color:#33cc33;stop-opacity:1"
         offset="0" />
      <stop
         id="stop87"
         style="stop-color:#009900;stop-opacity:1"
         offset="0.57529998" />
      <stop
         id="stop89"
         style="stop-color:#005e07;stop-opacity:1"
         offset="1" />
    </radialGradient>
    <radialGradient
       cx="0"
       cy="0"
       r="200"
       id="gradient9"
       gradientUnits="userSpaceOnUse"
       gradientTransform="matrix(0.3116,0,0,-0.2875,24.2934,74.8233)">
      <stop
         id="stop94"
         style="stop-color:#33cc33;stop-opacity:1"
         offset="0" />
      <stop
         id="stop96"
         style="stop-color:#009900;stop-opacity:1"
         offset="0.57529998" />
      <stop
         id="stop98"
         style="stop-color:#005e07;stop-opacity:1"
         offset="1" />
    </radialGradient>
    <radialGradient
       cx="0"
       cy="0"
       r="200"
       id="gradient10"
       gradientUnits="userSpaceOnUse"
       gradientTransform="matrix(0.3071,0,0,-0.2834,24.4576,74.3967)">
      <stop
         id="stop103"
         style="stop-color:#33cc33;stop-opacity:1"
         offset="0" />
      <stop
         id="stop105"
         style="stop-color:#009900;stop-opacity:1"
         offset="0.57529998" />
      <stop
         id="stop107"
         style="stop-color:#005e07;stop-opacity:1"
         offset="1" />
    </radialGradient>
    <radialGradient
       cx="0"
       cy="0"
       r="200"
       id="gradient11"
       gradientUnits="userSpaceOnUse"
       gradientTransform="matrix(0.3122,0,0,-0.288,24.2987,74.906)">
      <stop
         id="stop116"
         style="stop-color:#33cc33;stop-opacity:1"
         offset="0" />
      <stop
         id="stop118"
         style="stop-color:#009900;stop-opacity:1"
         offset="0.57529998" />
      <stop
         id="stop120"
         style="stop-color:#005e07;stop-opacity:1"
         offset="1" />
    </radialGradient>
    <radialGradient
       cx="0"
       cy="0"
       r="200"
       id="gradient12"
       gradientUnits="userSpaceOnUse"
       gradientTransform="matrix(0.3012,0,0,-0.2779,25.322,74.906)">
      <stop
         id="stop127"
         style="stop-color:#33cc33;stop-opacity:1"
         offset="0" />
      <stop
         id="stop129"
         style="stop-color:#009900;stop-opacity:1"
         offset="0.57529998" />
      <stop
         id="stop131"
         style="stop-color:#005e07;stop-opacity:1"
         offset="1" />
    </radialGradient>
    <radialGradient
       cx="0"
       cy="0"
       r="200"
       id="gradient13"
       gradientUnits="userSpaceOnUse"
       gradientTransform="matrix(0.3121,0,0,-0.288,24.301,74.906)">
      <stop
         id="stop136"
         style="stop-color:#33cc33;stop-opacity:1"
         offset="0" />
      <stop
         id="stop138"
         style="stop-color:#009900;stop-opacity:1"
         offset="0.57529998" />
      <stop
         id="stop140"
         style="stop-color:#005e07;stop-opacity:1"
         offset="1" />
    </radialGradient>
    <linearGradient
       x1="32.130001"
       y1="110.05"
       x2="21.57"
       y2="109.52"
       id="gradient14"
       gradientUnits="userSpaceOnUse">
      <stop
         id="stop163"
         style="stop-color:#f2f2f2;stop-opacity:1"
         offset="0" />
      <stop
         id="stop165"
         style="stop-color:#d4d4d4;stop-opacity:1"
         offset="0.50620002" />
      <stop
         id="stop167"
         style="stop-color:#b3b3b3;stop-opacity:1"
         offset="1" />
    </linearGradient>
    <linearGradient
       x1="19.879999"
       y1="120.37"
       x2="21.6"
       y2="114.33"
       id="gradient15"
       gradientUnits="userSpaceOnUse">
      <stop
         id="stop172"
         style="stop-color:#f2f2f2;stop-opacity:1"
         offset="0" />
      <stop
         id="stop174"
         style="stop-color:#d4d4d4;stop-opacity:1"
         offset="0.43040001" />
      <stop
         id="stop176"
         style="stop-color:#a6a6a6;stop-opacity:1"
         offset="1" />
    </linearGradient>
    <linearGradient
       x1="29.84"
       y1="103.63"
       x2="26.860001"
       y2="92.919998"
       id="gradient16"
       gradientUnits="userSpaceOnUse">
      <stop
         id="stop185"
         style="stop-color:#ffffff;stop-opacity:1"
         offset="0" />
      <stop
         id="stop187"
         style="stop-color:#fafafa;stop-opacity:1"
         offset="0.26620001" />
      <stop
         id="stop189"
         style="stop-color:#ededed;stop-opacity:1"
         offset="0.56730002" />
      <stop
         id="stop191"
         style="stop-color:#d6d6d6;stop-opacity:1"
         offset="0.88450003" />
      <stop
         id="stop193"
         style="stop-color:#cccccc;stop-opacity:1"
         offset="1" />
    </linearGradient>
    <linearGradient
       x1="41.400002"
       y1="109.31"
       x2="29.799999"
       y2="108.25"
       id="gradient17"
       gradientUnits="userSpaceOnUse">
      <stop
         id="stop198"
         style="stop-color:#999999;stop-opacity:1"
         offset="0" />
      <stop
         id="stop200"
         style="stop-color:#7b7b7b;stop-opacity:1"
         offset="0.68370003" />
      <stop
         id="stop202"
         style="stop-color:#6b6b6b;stop-opacity:1"
         offset="1" />
    </linearGradient>
    <linearGradient
       x1="16.59"
       y1="97.82"
       x2="16.85"
       y2="98.279999"
       id="gradient18"
       gradientUnits="userSpaceOnUse">
      <stop
         id="stop207"
         style="stop-color:#adadad;stop-opacity:1"
         offset="0" />
      <stop
         id="stop209"
         style="stop-color:#212121;stop-opacity:1"
         offset="1" />
    </linearGradient>
    <linearGradient
       x1="28.780001"
       y1="103.21"
       x2="29.049999"
       y2="103.68"
       id="gradient19"
       gradientUnits="userSpaceOnUse">
      <stop
         id="stop214"
         style="stop-color:#adadad;stop-opacity:1"
         offset="0" />
      <stop
         id="stop216"
         style="stop-color:#212121;stop-opacity:1"
         offset="1" />
    </linearGradient>
    <linearGradient
       x1="16.59"
       y1="115.03"
       x2="16.85"
       y2="115.5"
       id="gradient20"
       gradientUnits="userSpaceOnUse">
      <stop
         id="stop221"
         style="stop-color:#adadad;stop-opacity:1"
         offset="0" />
      <stop
         id="stop223"
         style="stop-color:#212121;stop-opacity:1"
         offset="1" />
    </linearGradient>
    <linearGradient
       x1="28.780001"
       y1="120.43"
       x2="29.049999"
       y2="120.9"
       id="gradient21"
       gradientUnits="userSpaceOnUse">
      <stop
         id="stop228"
         style="stop-color:#adadad;stop-opacity:1"
         offset="0" />
      <stop
         id="stop230"
         style="stop-color:#212121;stop-opacity:1"
         offset="1" />
    </linearGradient>
    <linearGradient
       x1="26.809999"
       y1="112.1"
       x2="21.190001"
       y2="106.37"
       id="gradient22"
       gradientUnits="userSpaceOnUse">
      <stop
         id="stop253"
         style="stop-color:#808080;stop-opacity:1"
         offset="0" />
      <stop
         id="stop255"
         style="stop-color:#000000;stop-opacity:1"
         offset="1" />
    </linearGradient>
    <linearGradient
       x1="26.08"
       y1="107.91"
       x2="13.63"
       y2="107.91"
       id="gradient23"
       gradientUnits="userSpaceOnUse">
      <stop
         id="stop260"
         style="stop-color:#808080;stop-opacity:1"
         offset="0" />
      <stop
         id="stop262"
         style="stop-color:#363636;stop-opacity:1"
         offset="1" />
    </linearGradient>
    <linearGradient
       x1="24.610001"
       y1="110.32"
       x2="22.08"
       y2="107.35"
       id="gradient24"
       gradientUnits="userSpaceOnUse">
      <stop
         id="stop267"
         style="stop-color:#808080;stop-opacity:1"
         offset="0" />
      <stop
         id="stop269"
         style="stop-color:#242424;stop-opacity:1"
         offset="1" />
    </linearGradient>
    <linearGradient
       x1="21.809999"
       y1="106.51"
       x2="22.709999"
       y2="108.08"
       id="gradient25"
       gradientUnits="userSpaceOnUse">
      <stop
         id="stop274"
         style="stop-color:#adadad;stop-opacity:1"
         offset="0" />
      <stop
         id="stop276"
         style="stop-color:#212121;stop-opacity:1"
         offset="1" />
    </linearGradient>
    <linearGradient
       x1="21.809999"
       y1="106.51"
       x2="22.709999"
       y2="108.08"
       id="linearGradient3188"
       xlink:href="#gradient25"
       gradientUnits="userSpaceOnUse" />
    <linearGradient
       x1="24.610001"
       y1="110.32"
       x2="22.08"
       y2="107.35"
       id="linearGradient3191"
       xlink:href="#gradient24"
       gradientUnits="userSpaceOnUse" />
    <linearGradient
       x1="26.08"
       y1="107.91"
       x2="13.63"
       y2="107.91"
       id="linearGradient3194"
       xlink:href="#gradient23"
       gradientUnits="userSpaceOnUse" />
    <linearGradient
       x1="26.809999"
       y1="112.1"
       x2="21.190001"
       y2="106.37"
       id="linearGradient3197"
       xlink:href="#gradient22"
       gradientUnits="userSpaceOnUse" />
    <linearGradient
       x1="28.780001"
       y1="120.43"
       x2="29.049999"
       y2="120.9"
       id="linearGradient3209"
       xlink:href="#gradient21"
       gradientUnits="userSpaceOnUse" />
    <linearGradient
       x1="16.59"
       y1="115.03"
       x2="16.85"
       y2="115.5"
       id="linearGradient3212"
       xlink:href="#gradient20"
       gradientUnits="userSpaceOnUse" />
    <linearGradient
       x1="28.780001"
       y1="103.21"
       x2="29.049999"
       y2="103.68"
       id="linearGradient3215"
       xlink:href="#gradient19"
       gradientUnits="userSpaceOnUse" />
    <linearGradient
       x1="16.59"
       y1="97.82"
       x2="16.85"
       y2="98.279999"
       id="linearGradient3218"
       xlink:href="#gradient18"
       gradientUnits="userSpaceOnUse" />
    <linearGradient
       x1="41.400002"
       y1="109.31"
       x2="29.799999"
       y2="108.25"
       id="linearGradient3221"
       xlink:href="#gradient17"
       gradientUnits="userSpaceOnUse" />
    <linearGradient
       x1="29.84"
       y1="103.63"
       x2="26.860001"
       y2="92.919998"
       id="linearGradient3224"
       xlink:href="#gradient16"
       gradientUnits="userSpaceOnUse" />
    <linearGradient
       x1="19.879999"
       y1="120.37"
       x2="21.6"
       y2="114.33"
       id="linearGradient3229"
       xlink:href="#gradient15"
       gradientUnits="userSpaceOnUse" />
    <linearGradient
       x1="32.130001"
       y1="110.05"
       x2="21.57"
       y2="109.52"
       id="linearGradient3232"
       xlink:href="#gradient14"
       gradientUnits="userSpaceOnUse" />
    <radialGradient
       cx="0"
       cy="0"
       r="200"
       id="radialGradient3244"
       xlink:href="#gradient13"
       gradientUnits="userSpaceOnUse"
       gradientTransform="matrix(0.3121,0,0,-0.288,43.135746,24.85939)" />
    <radialGradient
       cx="0"
       cy="0"
       r="200"
       id="radialGradient3247"
       xlink:href="#gradient12"
       gradientUnits="userSpaceOnUse"
       gradientTransform="matrix(0.3012,0,0,-0.2779,44.156746,24.85939)" />
    <radialGradient
       cx="0"
       cy="0"
       r="200"
       id="radialGradient3251"
       xlink:href="#gradient11"
       gradientUnits="userSpaceOnUse"
       gradientTransform="matrix(0.3122,0,0,-0.288,43.133446,24.85939)" />
    <radialGradient
       cx="0"
       cy="0"
       r="200"
       id="radialGradient3256"
       xlink:href="#gradient10"
       gradientUnits="userSpaceOnUse"
       gradientTransform="matrix(0.3071,0,0,-0.2834,43.292346,24.35009)" />
    <radialGradient
       cx="0"
       cy="0"
       r="200"
       id="radialGradient3259"
       xlink:href="#gradient9"
       gradientUnits="userSpaceOnUse"
       gradientTransform="matrix(0.3116,0,0,-0.2875,43.128146,24.77669)" />
    <radialGradient
       cx="0"
       cy="0"
       r="200"
       id="radialGradient3262"
       xlink:href="#gradient8"
       gradientUnits="userSpaceOnUse"
       gradientTransform="matrix(0.3061,0,0,-0.2824,24.3003,75.6799)" />
    <radialGradient
       cx="0"
       cy="0"
       r="200"
       id="radialGradient3265"
       xlink:href="#gradient7"
       gradientUnits="userSpaceOnUse"
       gradientTransform="matrix(0.3047,0,0,-0.2811,25.1109,74.8853)" />
    <radialGradient
       cx="0"
       cy="0"
       r="200"
       id="radialGradient3268"
       xlink:href="#gradient6"
       gradientUnits="userSpaceOnUse"
       gradientTransform="matrix(0.3115,0,0,-0.2874,43.131546,25.05129)" />
    <radialGradient
       cx="0"
       cy="0"
       r="200"
       id="radialGradient3271"
       xlink:href="#gradient5"
       gradientUnits="userSpaceOnUse"
       gradientTransform="matrix(0.2016,0,0,-0.186,47.472646,28.25029)" />
    <linearGradient
       x1="34.34"
       y1="51.77"
       x2="34.34"
       y2="52.130001"
       id="linearGradient3275"
       xlink:href="#gradient4"
       gradientUnits="userSpaceOnUse"
       gradientTransform="translate(18.834743,-50.04661)" />
    <linearGradient
       x1="32.310001"
       y1="24.110001"
       x2="70.730003"
       y2="55.09"
       id="linearGradient3279"
       xlink:href="#gradient3"
       gradientUnits="userSpaceOnUse" />
    <linearGradient
       x1="72.400002"
       y1="21.209999"
       x2="68.370003"
       y2="47.09"
       id="linearGradient3283"
       xlink:href="#gradient2"
       gradientUnits="userSpaceOnUse" />
    <linearGradient
       x1="76.18"
       y1="44.380001"
       x2="79.260002"
       y2="30.129999"
       id="linearGradient3286"
       xlink:href="#gradient1"
       gradientUnits="userSpaceOnUse" />
    <linearGradient
       x1="46.34"
       y1="42.790001"
       x2="107.4"
       y2="42.790001"
       id="linearGradient3289"
       xlink:href="#gradient0"
       gradientUnits="userSpaceOnUse" />
  </defs>
  <path
     d="m 53.464746,1.7233897 c -0.18,0 -0.38,0.06 -0.59,0.16 0.47,-0.11 0.7,-0.16 0.59,-0.16 z"
     id="path55"
     style="fill:url(#linearGradient3275)" />
  <path
     d="m 21.084746,37.17339 c 0,-20.42 17.94,-36.97000031 40.07,-36.97000031 22.13,0 40.080004,16.55000031 40.080004,36.97000031 0,20.42 -17.940004,36.970002 -40.080004,36.970002 -22.13,0 -40.07,-16.550002 -40.07,-36.970002 z"
     id="path57"
     style="fill:#000000" />
  <path
     d="m 24.764746,37.17339 c 0,-18.54 16.29,-33.5800003 36.39,-33.5800003 20.1,0 36.39,15.0300003 36.39,33.5800003 0,18.54 -16.29,33.580002 -36.39,33.580002 -20.1,0 -36.39,-15.030002 -36.39,-33.580002 z"
     id="path64"
     style="fill:url(#radialGradient3271)" />
  <path
     d="m 72.624746,68.703392 c 0.44,-1.74 1.44,-5.44 -0.33,-5.74 -1.78,-0.3 -5.12,-0.51 -6.12,-1.54 -1,-1.020002 -2,-1.020002 -2.67,-1.430002 -0.66,-0.41 -1.66,-1.74 -0.66,-2.97 1,-1.23 0.77,-2.46 -0.55,-3.18 -1.33,-0.71 -2.11,0.2 -3.22,0.3 -1.11,0.1 -3.78,-1.53 -5.78,-1.53 -2,0 -3.89,0 -4.22,-1.02 -1.22,0.71 -8.57,-0.51 -8.23,-2.56 -0.77,-0.71 -3.67,-3.69 -4.45,-4.72 0.11,0.82 0.77,2.56 1.44,3.08 -1.89,-1.23 -3.44,-3.38 -3.56,-5.03 -0.89,-0.72 -3.11,-4.51 -2.78,-5.64 0.33,-1.13 0.66,-5.13 1.33,-5.23 0.66,-0.1 0.11,-0.61 -0.22,-1.23 -0.33,-0.61 -0.55,-1.64 -0.55,-2.15 0,-0.51 0.55,-1.84 0,-1.95 -0.55,-0.1 -1.78,-0.82 -1,-0.82 0.77,0 1.44,0.41 1.44,-0.3 0,-0.71 -0.44,-2.67 -0.77,-2.97 -0.33,-0.3 -0.22,-0.2 -0.89,0.2 -0.66,0.41 -1.33,0.51 -1.44,0.2 -0.11,-0.3 0.11,-0.2 0.66,-0.92 0.55,-0.72 1.89,-2.77 2.33,-3.49 0.44,-0.71 0.33,0.2 1.78,-1.33 1.44,-1.54 2.22,-2.97 2.22,-1.54 0,1.43 0.33,2.05 1.22,2.05 0.89,0 1,-0.3 1.11,0.3 0.11,0.61 0.22,1.33 1.11,1.02 0.88,-0.3 1.66,0.1 2.11,-0.3 0.44,-0.41 -0.33,-0.82 0.22,-0.92 0.55,-0.1 0.78,0.82 1,0.1 0.22,-0.71 -0.11,-1.84 0.66,-1.12 0.77,0.71 1,0.82 1.55,0.51 0.55,-0.3 2.33,-0.41 0.78,0.51 -1.56,0.92 -1.67,0.82 -1.89,1.74 -0.22,0.92 -0.33,0.61 -0.89,1.64 -0.55,1.02 -1.66,2.05 -0.22,2.77 1.44,0.71 3.33,0.92 3.33,0.92 0,0 1.55,-1.12 1.33,0.1 -0.22,1.23 -0.33,1.95 0.44,1.74 0.77,-0.2 2.11,-0.1 1.22,-1.02 -0.88,-0.92 -0.77,-0.3 -0.44,-1.64 0.33,-1.33 0.11,-1.23 -0.33,-1.84 -0.44,-0.61 -1.55,-2.56 -0.44,-2.67 1.11,-0.1 2,-0.41 2.33,0.1 0.33,0.51 1.44,1.43 1.89,0.92 0.44,-0.51 -0.11,-1.95 1.55,-0.92 1.67,1.02 -0.11,1.54 1.67,1.54 1.78,0 3.45,-0.1 3.45,0.3 0,0.41 -1.22,2.36 -2.11,2.67 -0.89,0.3 -1.22,-0.41 -1.55,0.51 -0.33,0.92 -1.44,2.87 -0.77,2.15 0.66,-0.71 1.77,-2.26 1.89,-1.33 0.11,0.92 0,1.64 1.11,1.54 1.11,-0.1 2.78,-1.02 1.33,0.3 -1.44,1.33 -1.55,2.25 -1.44,1.33 0.11,-0.92 0.11,-1.43 -0.77,-0.2 -0.88,1.23 -1.11,2.15 -0.66,2.15 0.44,0 0.44,0.3 -0.11,0.61 -0.55,0.3 -0.89,1.74 -1.22,2.56 -0.33,0.82 -1,1.74 -0.33,1.84 0.66,0.1 0.44,1.64 0.44,1.64 0,0 -3,3.08 -1.89,4 1.11,0.92 2.44,2.36 1.89,2.66 -0.55,0.3 -1.89,-1.64 -2.22,-1.95 -0.33,-0.3 -3.67,-0.71 -3.89,-0.2 -0.22,0.51 0.55,0.92 0,1.02 -0.55,0.1 -2.56,0.51 -3.33,0.92 -0.77,0.4 -1,1.74 -0.89,2.25 0.11,0.51 0.66,4.93 3.22,4.41 2.56,-0.51 2.78,-0.71 2.33,-1.74 l 2,-0.71 c 0,0 -0.44,2.97 0.55,3.07 1,0.1 2.44,-0.2 2.78,-0.2 0.33,0 1.11,2.66 1.78,2.87 0.66,0.2 2.55,0 3.67,-0.71 1.11,-0.71 1.66,0.92 1.78,0.1 0.11,-0.82 1.33,-2.56 2.44,-2.97 0,0.71 0,1.43 0.66,1.23 0.66,-0.2 0.22,-1.53 0.22,-1.53 0,0 4.45,0.2 4.45,-1.02 0,0 2.44,-0.61 3,0.1 0.33,-0.71 0.89,-0.1 1.78,0.1 0.88,0.2 1.44,-0.51 2.67,-1.02 1.22,-0.51 3.89,-0.1 4.22,0.71 0.33,0.82 1,1.64 1.44,0.2 l 2.55,-0.61 c 0,0 1.44,-1.33 2.44,-1.43 1,-0.1 2,-0.71 2.11,-0.1 0.11,0.61 -0.33,3.08 -1,3.59 -0.66,0.51 -0.33,0.92 -0.11,1.43 0.22,0.51 -0.33,3.28 -0.77,3.79 -0.44,0.51 0,0.61 -0.88,1.33 -0.89,0.71 -1.33,1.74 -1.66,2.36 -0.33,0.61 -0.88,2.360002 -1.78,3.080002 -0.88,0.71 -1.44,1.53 -1.44,1.53 -1.22,0.92 -4.45,4.51 -10.46,5.33 z"
     id="path73"
     style="fill:url(#radialGradient3268)" />
  <path
     d="m 59.714746,22.49339 c 0,0 0.33,0.92 0.11,1.33 -0.22,0.41 1,-0.2 1.89,-0.2 0.88,0 0.33,-0.3 0.11,-0.92 -0.22,-0.61 -1.44,-0.2 -2.11,-0.2 z"
     id="path100"
     style="fill:url(#radialGradient3259)" />
  <path
     d="m 48.024746,11.50339 c 0.66,-0.2 0.77,-0.71 2.22,0 1.44,0.71 1.55,0 2.78,1.13 1.22,1.12 3.33,3.08 6.01,2.15 -0.55,-1.23 -1.44,-1.53 -1.33,-2.66 0.11,-1.12 0.33,-2.7700003 0.33,-2.7700003 l -1.11,0.41 -0.11,-0.82 c 0,0 -3.89,-0.71 -4.67,-0.61 -0.77,0.1 -0.77,-0.41 -1.33,-0.41 -0.55,0 -0.66,0.82 -1.11,0.82 -0.44,0 -1.89,-0.61 -1.66,0.2 0.22,0.82 0.55,1.02 0.11,1.5400003 -0.44,0.51 -0.11,1.02 -0.11,1.02 z"
     id="path109"
     style="fill:url(#radialGradient3256)" />
  <path
     d="m 45.574746,14.58339 c 0.44,-0.61 0.89,-1.02 1,-0.61 0.11,0.41 0.22,0.82 1.44,0.51 1.22,-0.3 1.55,-0.1 2,0.2 0.44,0.3 1.56,0.41 1.56,0.92 0,0.51 -0.44,0.82 -0.89,0.41 -0.44,-0.41 -1.11,-1.02 -1.11,-0.51 0,0.51 0.33,1.54 1.44,1.43 1.11,-0.1 1.44,0.51 0.55,0.51 -0.89,0 -0.66,0.3 -1.22,0.41 -0.55,0.1 -1.11,-0.61 -1.67,-0.41 0,0 0.22,-1.43 -0.44,-1.54 -0.66,-0.1 -0.89,0.2 -0.89,0.2 0,0 0.11,-0.51 -0.44,-0.71 -0.55,-0.2 -0.77,0.3 -1.44,0.3 -0.66,0 -1.22,-1.74 0.11,-1.12 z"
     id="path111"
     style="fill:#159034" />
  <path
     d="m 39.014746,10.37339 c 0,0 0.11,0.61 0.44,0.51 0.33,-0.1 1.66,-1.0200003 2.55,-1.6400003 0.89,-0.61 1.67,-1.23 1.55,-1.54 -0.11,-0.3 -3.56,1.74 -4.56,2.6700003 z"
     id="path113"
     style="fill:#159034" />
  <path
     d="m 37.674746,11.40339 c 0.53,-0.16 -0.33,0.82 -1,1.53 -0.66,0.71 -1.11,0.71 -1.78,1.43 -0.66,0.71 -1.78,1.54 -2.22,1.95 -0.44,0.41 -1.33,1.02 -1.33,1.02 0,0 5.34,-5.64 6.34,-5.95 z"
     id="path122"
     style="fill:url(#radialGradient3251)" />
  <path
     d="m 59.264746,4.0033897 c -0.11,0.61 -0.66,0.92 0.22,0.92 0.88,0 4.45,0.1 5.34,0.92 0.88,0.82 4,0.41 4.78,-0.2 0.77,-0.61 -0.33,-0.82 -1.44,-0.71 -1.11,0.1 -2.11,0.1 -2.78,-0.2 -0.66,-0.3 -1.44,-0.51 -1.44,-0.92 -1.44,-0.1 -4,-0.1 -4.67,0.2 z"
     id="path124"
     style="fill:#159034" />
  <path
     d="m 70.624746,4.6233897 c 0,0 1.78,1.23 1.33,1.33 -0.44,0.1 -1.56,0.1 -1.56,0.1 0,0 1.11,0.1 1.66,0.51 0.55,0.41 0.33,1.12 1.55,1.43 1.22,0.3 1.55,1.74 2.11,2.1500003 0.55,0.4 0.11,-0.5100003 1,-0.3000003 0.89,0.2000003 3.22,1.5300003 2.55,1.7400003 -0.66,0.2 -0.88,1.02 0.33,1.64 1.22,0.61 2.55,1.12 2.89,1.84 0.55,-0.82 0.78,-2.15 -0.22,-2.66 -0.99,-0.51 -2.33,-1.02 -2.55,-1.85 -0.22,-0.8200003 -0.33,-1.5300003 -0.22,-2.1500003 -2.22,-1.74 -8.12,-3.69 -8.9,-3.79 z"
     id="path133"
     style="fill:url(#radialGradient3247)" />
  <path
     d="m 83.754746,10.88339 c 0.22,0.82 0.89,3.69 0.22,4.1 -0.66,0.41 0,0.61 0.44,1.02 0.44,0.41 0.55,0.2 1.22,1.12 0.66,0.92 1.22,1.64 1.22,2.87 0,1.23 0.89,2.36 1.33,3.08 0.44,0.71 3.22,2.66 3.22,3.69 0,1.02 -0.11,2.05 1.11,2.25 1.22,0.2 1.77,0.3 2.11,0.82 0.33,0.51 1.33,0.51 1.89,0.61 -0.66,-4.41 -3.56,-12.83 -12.79,-19.61 z"
     id="path142"
     style="fill:url(#radialGradient3244)" />
  <path
     d="m 61.384746,9.2433897 v 0.41 l 1.44,0.2 v -1.02 l -1.89,-0.3 0.44,0.71 z"
     id="path144"
     style="fill:#159034" />
  <path
     d="m 68.844746,7.9133897 c -0.55,0 -0.11,0.51 0.55,0.61 0.66,0.1 1.22,0 2.11,0.1 0.88,0.1 1.55,0.2 1.77,0.61 0.22,0.41 0.77,0.41 0.77,0 0,-0.41 0.11,-0.92 -0.88,-1.02 -1,-0.1 -2.11,-0.2 -2.67,-0.3 -0.55,-0.1 -1.66,0 -1.66,0 z"
     id="path146"
     style="fill:#159034" />
  <path
     d="m 70.954746,9.5533897 h 1.33 V 10.57339 l -1.33,-1.0200003 z"
     id="path148"
     style="fill:#159034" />
  <path
     d="m 41.684746,16.43339 c 0,0 -0.33,0.82 -0.77,0.82 -0.44,0 -1.22,-0.92 -0.44,-1.23 0.77,-0.3 1.22,0.4 1.22,0.4 z"
     id="path150"
     style="fill:#159034" />
  <path
     d="m 40.014746,15.30339 c -0.55,0.41 -0.88,0.82 -1.22,0.71 -0.33,-0.1 0.44,-0.92 0.89,-1.12 0.44,-0.2 0.33,0.41 0.33,0.41 z"
     id="path152"
     style="fill:#159034" />
  <path
     d="m 40.794746,14.07339 0.66,-0.2 0.89,0.92 h 0.77 l -0.22,1.12 h -0.44 l -1.66,-1.84 z"
     id="path154"
     style="fill:#159034" />
  <path
     d="m 44.464746,12.01339 c 0.55,-0.1 1.22,-0.1 1.55,-1.43 0.33,-1.3300003 0.88,-0.8200003 0.66,0.1 -0.22,0.92 -1.11,1.02 -0.66,1.54 0.44,0.51 0.22,0.3 -0.44,0.2 -0.66,-0.1 -1.11,0.1 -1.11,-0.41 z"
     id="path156"
     style="fill:#159034" />
  <g
     transform="matrix(1.2540757,0,0,1.2540757,32.446381,66.864408)"
     id="Layer_1"
     style="stroke:#000000">
    <path
   d="M 0,15.305 V 39.404 L 19.453,47.843 36.566,32.537 V 8.437 L 17.114,0 0,15.305 z"
   id="path156-4"
   style="stroke:none" />

    <path
   d="M 36.566,32.538 19.453,47.844 h 7.809 L 44.375,32.538 v -3.721 l -7.882,-3.368 0.073,7.089 z"
   id="path157"
   style="opacity:0.2;stroke:none" />

    <linearGradient
   x1="-218.9131"
   y1="382.72949"
   x2="-220.1799"
   y2="395.397"
   id="XMLID_1_"
   gradientUnits="userSpaceOnUse"
   gradientTransform="matrix(1,0,0,-1,238.1123,404.3906)">
      <stop
   id="stop159"
   style="stop-color:#f2f2f2;stop-opacity:1"
   offset="0" />

      <stop
   id="stop160"
   style="stop-color:#eeeeee;stop-opacity:1"
   offset="0.31209999" />

      <stop
   id="stop161"
   style="stop-color:#e0e0e0;stop-opacity:1"
   offset="0.66460001" />

      <stop
   id="stop162"
   style="stop-color:#cccccc;stop-opacity:1"
   offset="1" />

    </linearGradient>

    <path
   d="M 19.222,23.633 1.193,15.812 4.389,12.953 4.854,13.191 4.834,12.556 17.344,1.369 35.372,9.188 19.222,23.633 z"
   id="path170"
   style="fill:url(#XMLID_1_);stroke:none" />

    <linearGradient
   x1="-219.2583"
   y1="357.70999"
   x2="-227.888"
   y2="373.21561"
   id="XMLID_2_"
   gradientUnits="userSpaceOnUse"
   gradientTransform="matrix(1,0,0,-1,238.1123,404.3906)">
      <stop
   id="stop172-7"
   style="stop-color:#e6e6e6;stop-opacity:1"
   offset="0" />

      <stop
   id="stop173"
   style="stop-color:#c7c7c7;stop-opacity:1"
   offset="0.62099999" />

      <stop
   id="stop174-8"
   style="stop-color:#b3b3b3;stop-opacity:1"
   offset="1" />

    </linearGradient>

    <path
   d="M 19.222,46.477 7.332,41.3 7.319,40.854 6.596,41 1.193,38.655 V 15.812 l 5.397,2.342 0.79,0.018 -0.046,0.305 11.887,5.157 v 22.843 z"
   id="path180"
   style="fill:url(#XMLID_2_);stroke:none" />

    <path
   d="M 7.319,40.854 6.574,40.909 V 18.175 L 7.38,18.171 7.319,18.5 v 22.354 z"
   id="path181"
   style="opacity:0.3;stroke:none" />

    <path
   d="M 8.077,41.623 7.332,41.3 V 18.474 l 0.745,0.324 v 22.825 z"
   id="path182"
   style="opacity:0.6;fill:#ffffff;stroke:none" />

    <linearGradient
   x1="-207.103"
   y1="373.65039"
   x2="-216.1694"
   y2="380.75229"
   id="XMLID_3_"
   gradientUnits="userSpaceOnUse"
   gradientTransform="matrix(1,0,0,-1,238.1123,404.3906)">
      <stop
   id="stop184"
   style="stop-color:#999999;stop-opacity:1"
   offset="0" />

      <stop
   id="stop185-4"
   style="stop-color:#7b7b7b;stop-opacity:1"
   offset="0.6839" />

      <stop
   id="stop186"
   style="stop-color:#6b6b6b;stop-opacity:1"
   offset="1" />

    </linearGradient>

    <path
   d="m 35.373,32.032 -12.581,11.25 -0.573,-0.296 0.017,0.792 -3.015,2.698 V 23.633 L 35.372,9.187 35.373,32.032 z"
   id="path192"
   style="fill:url(#XMLID_3_);stroke:none" />

    <path
   d="m 4.883,12.514 17.904,7.943 v 22.848 l 0.78,-0.697 V 19.789 L 5.424,12.058 4.883,12.514 z"
   id="path193"
   style="opacity:0.6;fill:#ffffff;stroke:none" />

    <path
   d="m 1.193,15.812 0.003,0.665 5.389,2.333 -0.01,-0.634 0.806,-0.004 -0.061,0.956 11.913,5.156 0.033,-0.603 0.51,-0.503 -18.144,-7.73 -0.439,0.364 z"
   id="path194"
   style="opacity:0.6;fill:#ffffff;stroke:none" />

    <path
   d="m 4.854,13.19 17.365,7.728 v 22.068 l 0.567,0.289 V 20.457 L 4.833,12.554 4.854,13.19 z"
   id="path195"
   style="opacity:0.3;stroke:none" />

    <path
   d="m 17.073,27.898 -4.021,-1.921 v -3.011 l 4.021,1.922 v 3.01 z"
   id="path196"
   style="fill:#ffffff;stroke:none" />

  </g>
  <g
     transform="matrix(0.41546064,0,0,0.41546064,65.091636,41.718671)"
     id="Layer_1_2_">
			<path
   d="M 24.6,16.542 V 44.126 L 19.606,43.093 0,60.671 52.688,124.283 104.048,83.554 124.893,64.89 c 0,0 -23.527,-4.871 -27.404,-5.673 0,-4.4 0,-47.951 0,-47.951 L 43.071,0 24.6,16.542 z"
   id="path3029" />

			
				<linearGradient
   x1="-234.7285"
   y1="292.88281"
   x2="-252.73579"
   y2="283.1994"
   id="XMLID_260_"
   gradientUnits="userSpaceOnUse"
   gradientTransform="matrix(1,0,0,-1,338.0537,361.6406)">
				<stop
   id="stop3032"
   style="stop-color:#33a433;stop-opacity:1"
   offset="0" />

				<stop
   id="stop3034"
   style="stop-color:#005d00;stop-opacity:1"
   offset="1" />

				<midPointStop
   offset="0"
   style="stop-color:#33A433"
   id="midPointStop3036" />

				<midPointStop
   offset="0.5"
   style="stop-color:#33A433"
   id="midPointStop3038" />

				<midPointStop
   offset="1"
   style="stop-color:#005D00"
   id="midPointStop3040" />

			</linearGradient>

			<polygon
   points="118.461,66.622 94.488,61.659 78.143,76.297 102.114,81.261 "
   id="polygon3042"
   style="fill:url(#XMLID_260_)" />

			
				<linearGradient
   x1="-238.8916"
   y1="312.01859"
   x2="-254.0097"
   y2="317.45471"
   id="XMLID_261_"
   gradientUnits="userSpaceOnUse"
   gradientTransform="matrix(1,0,0,-1,338.0537,361.6406)">
				<stop
   id="stop3045"
   style="stop-color:#33a433;stop-opacity:1"
   offset="0" />

				<stop
   id="stop3047"
   style="stop-color:#005d00;stop-opacity:1"
   offset="1" />

				<midPointStop
   offset="0"
   style="stop-color:#33A433"
   id="midPointStop3049" />

				<midPointStop
   offset="0.5"
   style="stop-color:#33A433"
   id="midPointStop3051" />

				<midPointStop
   offset="1"
   style="stop-color:#005D00"
   id="midPointStop3053" />

			</linearGradient>

			<polygon
   points="94.488,13.709 78.143,28.347 78.143,76.297 94.488,61.659 "
   id="polygon3055"
   style="fill:url(#XMLID_261_)" />

			
				<linearGradient
   x1="-314.5166"
   y1="311.9473"
   x2="-313.56299"
   y2="299.9791"
   id="XMLID_262_"
   gradientUnits="userSpaceOnUse"
   gradientTransform="matrix(1,0,0,-1,338.0537,361.6406)">
				<stop
   id="stop3058"
   style="stop-color:#33a433;stop-opacity:1"
   offset="0" />

				<stop
   id="stop3060"
   style="stop-color:#005d00;stop-opacity:1"
   offset="1" />

				<midPointStop
   offset="0"
   style="stop-color:#33A433"
   id="midPointStop3062" />

				<midPointStop
   offset="0.5"
   style="stop-color:#33A433"
   id="midPointStop3064" />

				<midPointStop
   offset="1"
   style="stop-color:#005D00"
   id="midPointStop3066" />

			</linearGradient>

			<polygon
   points="20.48,46.337 43.945,51.196 27.612,65.841 4.147,60.982 "
   id="polygon3068"
   style="fill:url(#XMLID_262_)" />

			
				<linearGradient
   x1="-265.34229"
   y1="360.55569"
   x2="-284.87799"
   y2="335.9234"
   id="XMLID_263_"
   gradientUnits="userSpaceOnUse"
   gradientTransform="matrix(1,0,0,-1,338.0537,361.6406)">
				<stop
   id="stop3071"
   style="stop-color:#33a433;stop-opacity:1"
   offset="0" />

				<stop
   id="stop3073"
   style="stop-color:#005d00;stop-opacity:1"
   offset="1" />

				<midPointStop
   offset="0"
   style="stop-color:#33A433"
   id="midPointStop3075" />

				<midPointStop
   offset="0.5"
   style="stop-color:#33A433"
   id="midPointStop3077" />

				<midPointStop
   offset="1"
   style="stop-color:#005D00"
   id="midPointStop3079" />

			</linearGradient>

			<polygon
   points="94.488,13.709 43.945,3.245 27.6,17.883 78.143,28.347 "
   id="polygon3081"
   style="fill:url(#XMLID_263_)" />

			
				<linearGradient
   x1="-304.12109"
   y1="328.30859"
   x2="-274.84259"
   y2="282.2662"
   id="XMLID_264_"
   gradientUnits="userSpaceOnUse"
   gradientTransform="matrix(1,0,0,-1,338.0537,361.6406)">
				<stop
   id="stop3084"
   style="stop-color:#33cc33;stop-opacity:1"
   offset="0" />

				<stop
   id="stop3086"
   style="stop-color:#009900;stop-opacity:1"
   offset="1" />

				<midPointStop
   offset="0"
   style="stop-color:#33CC33"
   id="midPointStop3088" />

				<midPointStop
   offset="0.5"
   style="stop-color:#33CC33"
   id="midPointStop3090" />

				<midPointStop
   offset="1"
   style="stop-color:#009900"
   id="midPointStop3092" />

			</linearGradient>

			<polygon
   points="78.143,28.347 27.6,17.883 27.6,65.833 4.134,60.976 53.124,120.108 102.114,81.261 78.143,76.297 "
   id="polygon3094"
   style="fill:url(#XMLID_264_)" />

			<path
   d="m 77.377,76.92 c 0,0 0,-46.738 0,-47.95 -1.167,-0.242 -47.264,-9.785 -49.014,-10.148 0,1.805 0,47.012 0,47.012 v 0.938 c 0,0 -18.724,-3.877 -22.25,-4.605 0.742,0.896 4.83,5.83 10.311,12.445 7.662,-2.758 16.126,-2.521 23.705,0.395 15.539,6.121 32.238,14.27 48.848,15.697 6.053,-4.799 10.646,-8.443 11.382,-9.025 C 97.568,81.101 77.377,76.92 77.377,76.92 z"
   id="path3096"
   style="opacity:0.4;fill:#ffffff" />

		</g>
</svg>
