<?xml version="1.0" encoding="UTF-8" standalone="no"?>
<!-- Created with Inkscape (http://www.inkscape.org/) -->

<svg
   xmlns:dc="http://purl.org/dc/elements/1.1/"
   xmlns:cc="http://creativecommons.org/ns#"
   xmlns:rdf="http://www.w3.org/1999/02/22-rdf-syntax-ns#"
   xmlns:svg="http://www.w3.org/2000/svg"
   xmlns="http://www.w3.org/2000/svg"
   version="1.0"
   width="128"
   height="128"
   viewBox="0.024 -0.209 128 128"
   id="svg2"
   xml:space="preserve"
   style="overflow:visible"><metadata
   id="metadata125"><rdf:RDF><cc:Work
       rdf:about=""><dc:format>image/svg+xml</dc:format><dc:type
         rdf:resource="http://purl.org/dc/dcmitype/StillImage" /><dc:title></dc:title></cc:Work></rdf:RDF></metadata><defs
   id="defs232" />
	
<g
   transform="matrix(0.99907118,0,0,0.93468602,-0.40110504,3.5130986)"
   id="g2502"><path
     d="m 49.5,9.84 c 0,1.28 0,108 0,109.3 0,1.29 1.04,2.34 2.34,2.34 1.29,0 24.5,0 25.79,0 1.29,0 2.34,-1.05 2.34,-2.34 0,-1.29 0,-108.01 0,-109.3 0,-1.28 -1.05,-2.34 -2.34,-2.34 -1.29,0 -24.5,0 -25.79,0 -1.29,0 -2.34,1.05 -2.34,2.34 l 0,0 z m 69.62,39.57 c -1.29,0 -108,0.15 -109.29,0.15 -1.28,0 -2.34,1.04 -2.34,2.34 0,1.29 0.03,24.5 0.03,25.79 0,1.29 1.04,2.34 2.33,2.34 1.28,0 108.01,-0.15 109.3,-0.15 1.28,0 2.33,-1.05 2.33,-2.34 0,-1.29 -0.02,-24.5 -0.02,-25.79 0,-1.28 -1.05,-2.34 -2.34,-2.34 l 0,0 z"
     id="path2504"
     style="fill:none;stroke:#17450c;stroke-width:14.12899971;stroke-linecap:round" /><path
     d="m 49.5,9.84 c 0,1.28 0,108 0,109.3 0,1.29 1.04,2.34 2.34,2.34 1.29,0 24.5,0 25.79,0 1.29,0 2.34,-1.05 2.34,-2.34 0,-1.29 0,-108.01 0,-109.3 0,-1.28 -1.05,-2.34 -2.34,-2.34 -1.29,0 -24.5,0 -25.79,0 -1.29,0 -2.34,1.05 -2.34,2.34 l 0,0 z m 69.72,39.91 c -1.29,0 -108.01,-0.49 -109.3,-0.5 -1.28,0 -2.35,1.02 -2.35,2.33 0,1.28 -0.1,24.5 -0.1,25.79 0,1.29 1.02,2.35 2.32,2.35 1.28,0 108.01,0.48 109.29,0.5 1.29,0 2.35,-1.03 2.35,-2.33 0,-1.29 0.11,-24.51 0.11,-25.8 0,-1.28 -1.03,-2.34 -2.33,-2.34 l 0.01,0 z"
     id="path2506"
     style="fill:none;stroke:#7cb66e;stroke-width:4.83370018" /><radialGradient
     cx="0"
     cy="0"
     r="200"
     id="gradient0"
     gradientUnits="userSpaceOnUse"
     gradientTransform="matrix(-0.0063,-0.2447,0.2447,-0.0063,64.3273,65.9999)"><stop
       id="stop2509"
       style="stop-color:#55df36;stop-opacity:1"
       offset="0.60720003" /><stop
       id="stop2511"
       style="stop-color:#73fc54;stop-opacity:1"
       offset="0.98379999" /></radialGradient><path
     d="m 49.5,9.84 c 0,0.52 0,18.78 0,40.22 0,30.85 0,68.3 0,69.08 0,1.29 1.04,2.34 2.34,2.34 1.29,0 24.5,0 25.79,0 1.29,0 2.34,-1.05 2.34,-2.34 0,-1.29 0,-108.01 0,-109.3 0,-1.28 -1.05,-2.34 -2.34,-2.34 -1.29,0 -24.5,0 -25.79,0 -1.29,0 -2.34,1.05 -2.34,2.34 l 0,0 z m 69.72,39.91 c -1.29,0 -108.01,-0.49 -109.3,-0.5 -1.28,0 -2.35,1.02 -2.35,2.33 0,1.28 -0.1,24.5 -0.1,25.79 0,1.29 1.02,2.35 2.32,2.35 1.28,0 108.01,0.48 109.29,0.5 1.29,0 2.35,-1.03 2.35,-2.33 0,-1.29 0.11,-24.51 0.11,-25.8 0,-1.28 -1.03,-2.34 -2.33,-2.34 l 0.01,0 z"
     id="path2513"
     style="fill:url(#gradient0);fill-rule:evenodd" /><path
     d="m 36.66,67.08 c 1.28,1.29 24.29,24.5 25.57,25.79 1.27,1.29 3.36,1.3 4.67,0.02 1.28,-1.27 24.58,-24.38 25.88,-25.66 1.28,-1.27 1.29,-3.36 0.01,-4.66 C 91.52,61.28 68.5,38.07 67.23,36.78 65.96,35.5 63.86,35.49 62.57,36.76 61.28,38.04 37.98,61.14 36.68,62.41 c -1.28,1.28 -1.29,3.37 -0.02,4.66 l 0,0.01 z"
     id="path2515"
     style="fill:#56e136" /></g></svg>