<?xml version="1.0" encoding="UTF-8" standalone="no"?>
<!-- Created with Inkscape (http://www.inkscape.org/) -->

<svg
   xmlns:svg="http://www.w3.org/2000/svg"
   xmlns="http://www.w3.org/2000/svg"
   xmlns:xlink="http://www.w3.org/1999/xlink"
   version="1.1"
   width="126"
   height="129"
   id="svg2">
  <defs
     id="defs74">
    <radialGradient
       cx="0"
       cy="0"
       r="200"
       id="gradient0"
       gradientUnits="userSpaceOnUse"
       gradientTransform="matrix(0.437,0,0,-0.437,75.1007,28.9076)">
      <stop
         id="stop9"
         style="stop-color:#ffffff;stop-opacity:1"
         offset="0" />
      <stop
         id="stop11"
         style="stop-color:#f7e015;stop-opacity:1"
         offset="0.70200002" />
      <stop
         id="stop13"
         style="stop-color:#ecc516;stop-opacity:1"
         offset="0.8876" />
      <stop
         id="stop15"
         style="stop-color:#fbae10;stop-opacity:1"
         offset="1" />
    </radialGradient>
    <linearGradient
       x1="24.200001"
       y1="68.260002"
       x2="100.44"
       y2="68.260002"
       id="gradient1"
       gradientUnits="userSpaceOnUse">
      <stop
         id="stop22"
         style="stop-color:#781515;stop-opacity:1"
         offset="0.004" />
      <stop
         id="stop24"
         style="stop-color:#fb0707;stop-opacity:1"
         offset="0.15360001" />
      <stop
         id="stop26"
         style="stop-color:#ff7c7c;stop-opacity:1"
         offset="0.4939" />
      <stop
         id="stop28"
         style="stop-color:#ff0707;stop-opacity:1"
         offset="0.86220002" />
      <stop
         id="stop30"
         style="stop-color:#940404;stop-opacity:1"
         offset="1" />
    </linearGradient>
    <linearGradient
       x1="57.150002"
       y1="110.91"
       x2="57.610001"
       y2="83.900002"
       id="gradient2"
       gradientUnits="userSpaceOnUse">
      <stop
         id="stop35"
         style="stop-color:#ff5c5c;stop-opacity:1"
         offset="0" />
      <stop
         id="stop37"
         style="stop-color:#ffa9a9;stop-opacity:1"
         offset="1" />
    </linearGradient>
    <linearGradient
       x1="-10.06"
       y1="93.870003"
       x2="35.16"
       y2="46.139999"
       id="gradient3"
       gradientUnits="userSpaceOnUse">
      <stop
         id="stop60"
         style="stop-color:#99d28c;stop-opacity:1"
         offset="0.0241" />
      <stop
         id="stop62"
         style="stop-color:#5dcc44;stop-opacity:1"
         offset="0.3319" />
      <stop
         id="stop64"
         style="stop-color:#64c54d;stop-opacity:1"
         offset="0.77310002" />
      <stop
         id="stop66"
         style="stop-color:#92db7e;stop-opacity:1"
         offset="0.97970003" />
    </linearGradient>
    <linearGradient
       x1="24.200001"
       y1="68.260002"
       x2="100.44"
       y2="68.260002"
       id="linearGradient3188"
       xlink:href="#gradient1"
       gradientUnits="userSpaceOnUse"
       gradientTransform="matrix(0.46513923,0,0,0.46513923,2.7330508,65.04661)" />
    <radialGradient
       cx="0"
       cy="0"
       r="200"
       id="radialGradient3192"
       xlink:href="#gradient0"
       gradientUnits="userSpaceOnUse"
       gradientTransform="matrix(0.20326585,0,0,-0.20326585,37.665333,78.492669)" />
  </defs>
  <g
     transform="matrix(0.85476909,0,0,0.85476909,15.137545,1.5553649)"
     id="Layer_1">
			<polygon
   points="28.041,154.313 65.741,151.077 91.498,142.755 74.328,132.589 62.01,133.547 51.932,129.394 26.922,133.868 35.167,140.143 1.166,144.388 "
   id="polygon2887"
   style="opacity:0.17000002" />

			<g
   id="g2889">
				<polygon
   points="93.921,55.936 76.227,41.736 54.476,48.835 53.462,72.164 69.916,86.026 92.229,78.926 "
   id="polygon2891" />

				<g
   id="g2893">
					<polygon
   points="89.096,76.501 70.544,82.081 71.968,62.63 90.519,57.051 "
   id="polygon2895"
   style="fill:#9591c4" />

				</g>

				<g
   id="g2897">
					
						<linearGradient
   x1="-529.97803"
   y1="-87.3647"
   x2="-521.00232"
   y2="-82.612701"
   id="XMLID_7_"
   gradientUnits="userSpaceOnUse"
   gradientTransform="matrix(-0.6294,0.7771,-0.7771,-0.6294,-329.1998,419.6504)">
						<stop
   id="stop2900"
   style="stop-color:#303162;stop-opacity:1"
   offset="0" />

						<stop
   id="stop2902"
   style="stop-color:#383a74;stop-opacity:1"
   offset="0.64920002" />

						<stop
   id="stop2904"
   style="stop-color:#3e4080;stop-opacity:1"
   offset="1" />

						<midPointStop
   offset="0"
   style="stop-color:#303162"
   id="midPointStop2906" />

						<midPointStop
   offset="0.5"
   style="stop-color:#303162"
   id="midPointStop2908" />

						<midPointStop
   offset="0.6492"
   style="stop-color:#383A74"
   id="midPointStop2910" />

						<midPointStop
   offset="0.5"
   style="stop-color:#383A74"
   id="midPointStop2912" />

						<midPointStop
   offset="1"
   style="stop-color:#3E4080"
   id="midPointStop2914" />

					</linearGradient>

					<polygon
   points="70.543,82.079 71.968,62.63 57.184,50.656 55.759,70.106 "
   id="polygon2916"
   style="fill:url(#XMLID_7_)" />

				</g>

				<g
   id="g2918">
					<polygon
   points="90.538,57.065 71.968,62.63 57.184,50.656 75.754,45.093 "
   id="polygon2920"
   style="fill:#c3ced8" />

				</g>

			</g>

			<g
   id="g2922">
				<polygon
   points="114.03,115.633 104.369,79.928 101.881,79.678 67.407,76.181 66.164,77.589 44.099,103.33 53.728,139.068 90.729,142.817 "
   id="polygon2924" />

				<g
   id="g2926">
					
						<linearGradient
   x1="-522.10352"
   y1="-5.6602001"
   x2="-517.56207"
   y2="-12.018"
   id="XMLID_8_"
   gradientUnits="userSpaceOnUse"
   gradientTransform="matrix(0.7592,0.6508,-0.6508,0.7592,468.337,444.8691)">
						<stop
   id="stop2929"
   style="stop-color:#f5e6e5;stop-opacity:1"
   offset="0" />

						<stop
   id="stop2931"
   style="stop-color:#f5d4d3;stop-opacity:1"
   offset="0.2712" />

						<stop
   id="stop2933"
   style="stop-color:#f7a5a5;stop-opacity:1"
   offset="0.81389999" />

						<stop
   id="stop2935"
   style="stop-color:#f79394;stop-opacity:1"
   offset="1" />

						<midPointStop
   offset="0"
   style="stop-color:#F5E6E5"
   id="midPointStop2937" />

						<midPointStop
   offset="0.5"
   style="stop-color:#F5E6E5"
   id="midPointStop2939" />

						<midPointStop
   offset="0.2712"
   style="stop-color:#F5D4D3"
   id="midPointStop2941" />

						<midPointStop
   offset="0.5"
   style="stop-color:#F5D4D3"
   id="midPointStop2943" />

						<midPointStop
   offset="0.8139"
   style="stop-color:#F7A5A5"
   id="midPointStop2945" />

						<midPointStop
   offset="0.5"
   style="stop-color:#F7A5A5"
   id="midPointStop2947" />

						<midPointStop
   offset="1"
   style="stop-color:#F79394"
   id="midPointStop2949" />

					</linearGradient>

					<polygon
   points="101.515,83.292 110.022,114.728 77.4,111.421 68.896,79.982 "
   id="polygon2951"
   style="fill:url(#XMLID_8_)" />

				</g>

				<g
   id="g2953">
					
						<linearGradient
   x1="-499.31641"
   y1="9.0551996"
   x2="-509.08051"
   y2="-1.5971"
   id="XMLID_9_"
   gradientUnits="userSpaceOnUse"
   gradientTransform="matrix(0.7592,0.6508,-0.6508,0.7592,468.337,444.8691)">
						<stop
   id="stop2956"
   style="stop-color:#ae0b0b;stop-opacity:1"
   offset="0" />

						<stop
   id="stop2958"
   style="stop-color:#9c0e08;stop-opacity:1"
   offset="0.78680003" />

						<stop
   id="stop2960"
   style="stop-color:#960f07;stop-opacity:1"
   offset="1" />

						<midPointStop
   offset="0"
   style="stop-color:#AE0B0B"
   id="midPointStop2962" />

						<midPointStop
   offset="0.5"
   style="stop-color:#AE0B0B"
   id="midPointStop2964" />

						<midPointStop
   offset="0.7868"
   style="stop-color:#9C0E08"
   id="midPointStop2966" />

						<midPointStop
   offset="0.5"
   style="stop-color:#9C0E08"
   id="midPointStop2968" />

						<midPointStop
   offset="1"
   style="stop-color:#960F07"
   id="midPointStop2970" />

					</linearGradient>

					<polygon
   points="110.021,114.728 77.4,111.421 56.583,135.704 89.204,139.01 "
   id="polygon2972"
   style="fill:url(#XMLID_9_)" />

				</g>

				<g
   id="g2974">
					<polygon
   points="68.922,79.955 77.4,111.421 56.583,135.704 48.104,104.237 "
   id="polygon2976"
   style="fill:#c66364" />

				</g>

			</g>

			<g
   id="g2978">
				<polygon
   points="58.083,68.445 41.349,42.878 39.348,43.28 11.639,48.848 11.008,50.245 0,75.615 16.102,101.155 45.841,95.175 "
   id="polygon2980" />

				<g
   id="g2982">
					<polygon
   points="39.933,46.186 54.124,68.641 27.904,73.911 13.714,51.453 "
   id="polygon2984"
   style="fill:#9591c4" />

				</g>

				<g
   id="g2986">
					
						<linearGradient
   x1="-575.59668"
   y1="-47.6646"
   x2="-563.2887"
   y2="-41.148399"
   id="XMLID_10_"
   gradientUnits="userSpaceOnUse"
   gradientTransform="matrix(0.9174,0.398,-0.398,0.9174,537.0835,346.3054)">
						<stop
   id="stop2989"
   style="stop-color:#303162;stop-opacity:1"
   offset="0" />

						<stop
   id="stop2991"
   style="stop-color:#383a74;stop-opacity:1"
   offset="0.64920002" />

						<stop
   id="stop2993"
   style="stop-color:#3e4080;stop-opacity:1"
   offset="1" />

						<midPointStop
   offset="0"
   style="stop-color:#303162"
   id="midPointStop2995" />

						<midPointStop
   offset="0.5"
   style="stop-color:#303162"
   id="midPointStop2997" />

						<midPointStop
   offset="0.6492"
   style="stop-color:#383A74"
   id="midPointStop2999" />

						<midPointStop
   offset="0.5"
   style="stop-color:#383A74"
   id="midPointStop3001" />

						<midPointStop
   offset="1"
   style="stop-color:#3E4080"
   id="midPointStop3003" />

					</linearGradient>

					<polygon
   points="54.124,68.642 27.904,73.911 17.52,97.844 43.74,92.576 "
   id="polygon3005"
   style="fill:url(#XMLID_10_)" />

				</g>

				<g
   id="g3007">
					<polygon
   points="13.726,51.424 27.904,73.911 17.52,97.844 3.343,75.356 "
   id="polygon3009"
   style="fill:#c3ced8" />

				</g>

			</g>

			<g
   id="g3011">
				<polygon
   points="19.25,37.391 40.705,56.607 70.241,49.61 73.958,19.484 52.205,0 22.917,7.245 "
   id="polygon3013" />

				<polygon
   points="51.397,3.252 25.608,9.631 22.369,35.899 22.347,36.19 41.528,53.367 67.552,47.2 70.828,20.657 "
   id="polygon3015" />

				<g
   id="g3017">
					
						<linearGradient
   x1="-560.00201"
   y1="-98.814903"
   x2="-551.85199"
   y2="-105.483"
   id="XMLID_11_"
   gradientUnits="userSpaceOnUse"
   gradientTransform="matrix(0.6672,-0.7449,0.7449,0.6672,483.5227,-318.5203)">
						<stop
   id="stop3020"
   style="stop-color:#f8faed;stop-opacity:1"
   offset="0" />

						<stop
   id="stop3022"
   style="stop-color:#f6ea96;stop-opacity:1"
   offset="1" />

						<midPointStop
   offset="0"
   style="stop-color:#F8FAED"
   id="midPointStop3024" />

						<midPointStop
   offset="0.5"
   style="stop-color:#F8FAED"
   id="midPointStop3026" />

						<midPointStop
   offset="1"
   style="stop-color:#F6EA96"
   id="midPointStop3028" />

					</linearGradient>

					<polygon
   points="25.608,9.631 51.397,3.252 48.121,29.796 22.334,36.176 "
   id="polygon3030"
   style="fill:url(#XMLID_11_)" />

				</g>

				<g
   id="g3032">
					<linearGradient
   x1="22.346701"
   y1="41.582001"
   x2="67.551804"
   y2="41.582001"
   id="XMLID_12_"
   gradientUnits="userSpaceOnUse">
						<stop
   id="stop3035"
   style="stop-color:#ee8b13;stop-opacity:1"
   offset="0" />

						<stop
   id="stop3037"
   style="stop-color:#f89410;stop-opacity:1"
   offset="1" />

						<midPointStop
   offset="0"
   style="stop-color:#EE8B13"
   id="midPointStop3039" />

						<midPointStop
   offset="0.5"
   style="stop-color:#EE8B13"
   id="midPointStop3041" />

						<midPointStop
   offset="1"
   style="stop-color:#F89410"
   id="midPointStop3043" />

					</linearGradient>

					<polygon
   points="22.347,36.19 48.121,29.797 67.552,47.2 41.528,53.367 "
   id="polygon3045"
   style="fill:url(#XMLID_12_)" />

				</g>

				<g
   id="g3047">
					<polygon
   points="51.397,3.252 48.121,29.796 67.552,47.2 70.828,20.657 "
   id="polygon3049"
   style="fill:#fdcd12" />

				</g>

			</g>

			<polygon
   points="18.232,48.947 40.923,58.514 48.757,56.462 46.332,53.701 68.447,47.783 71.832,19.985 51.659,2.179 48.278,29.902 20.479,36.88 31.38,46.537 "
   id="polygon3051"
   style="opacity:0.15" />

			<polygon
   points="77.792,54.947 78.415,45.291 76.546,43.422 69.693,45.914 68.447,49.029 57.545,51.209 65.333,56.816 "
   id="polygon3053"
   style="opacity:0.17000002" />

		</g>
  <path
     d="m 31.72983,65.04661 c 16.228709,0 28.99678,12.758769 28.99678,28.996778 0,16.228712 -12.758769,28.996782 -28.99678,28.996782 -16.233359,0 -28.9967792,-12.75877 -28.9967792,-28.996782 0,-16.233358 12.7587692,-28.996778 28.9967792,-28.996778 z"
     id="path6"
     style="fill:#d28c06" />
  <path
     d="m 32.036823,66.907167 c 14.689096,0 26.978075,12.735512 26.978075,27.443211 0,14.689102 -12.735513,26.978082 -27.443215,26.978082 -14.693748,0 -26.9780753,-12.74482 -26.9780753,-27.443222 0,-14.684441 12.7308613,-26.978071 27.4432153,-26.978071 z"
     id="path17"
     style="fill:url(#radialGradient3192)" />
  <path
     d="m 30.641404,92.954969 c 11.219159,0 15.800781,0 18.60557,0 0.56747,0 0.930278,22.326681 -17.675291,22.326681 -18.14043,0 -18.117173,-22.326681 -17.210151,-22.326681 0,0 4.870008,0 16.279872,0 z"
     id="path19"
     style="fill:#000000" />
  <path
     d="m 17.59425,98.290108 h 28.201391 l 1.814043,5.549112 c 0,0 -3.479241,11.43313 -16.038001,11.43313 -12.716907,0 -16.279873,-11.62849 -16.279873,-11.62849 l 2.30244,-5.353752 v 0 z"
     id="path32"
     style="fill:url(#linearGradient3188)" />
  <path
     d="m 31.548426,97.280758 c 6.823593,0.004 11.061011,0 17.889255,0 v -4.539753 c 0,0 -8.307387,0 -17.74041,0 -9.088821,0 -15.451926,0 -17.731107,0 v 4.539753 c 0,0 8.912067,-0.0279 17.582262,0 v 0 z"
     id="path41"
     style="fill:#ffffff" />
  <path
     d="m 6.9193039,98.071498 h 3.7211141 c 0,0 -1.395418,-10.698205 3.255975,-18.605572 2.330347,-3.962985 6.046809,-7.442227 6.046809,-7.442227 0,0 -4.628135,1.948933 -7.907367,6.511949 -6.9770881,9.767923 -5.1165311,19.53585 -5.1165311,19.53585 z"
     id="path43"
     style="fill:#fdff73;fill-opacity:0.72939998" />
  <path
     d="m 22.952653,80.912509 c 0.40002,0 0.865159,0.05116 1.330299,0.176753 1.721015,0.46514 2.600128,1.725667 2.600128,3.753674 0,1.097728 -0.274433,1.976842 -0.897719,2.600128 -0.725617,0.762828 -1.753574,1.162849 -3.083873,1.162849 -1.232618,0 -2.218714,-0.348855 -2.948982,-1.055867 -0.69771,-0.683754 -1.046564,-1.595427 -1.046564,-2.73967 0,-1.088426 0.316295,-1.976842 0.972142,-2.674551 0.73957,-0.813993 1.762876,-1.214013 3.083873,-1.214013 h -0.0046 v -0.0046 l 0,0 z m 0.03257,1.130289 c -0.474443,0 -0.916325,0.09302 -1.339601,0.283735 -0.823297,0.409322 -1.23262,1.255876 -1.23262,2.511751 0,1.758227 0.823297,2.641991 2.469889,2.641991 1.669851,0 2.525707,-0.934929 2.525707,-2.809441 0,-1.762878 -0.80004,-2.651293 -2.409422,-2.651293 l -0.0093,0 v 0 0.0093 l 0,0.0046 z m 0.09302,-0.348854 1.860557,0.367459 c 0,0 0.525607,0.334901 0.739571,0.674452 0.237221,0.404672 0.153496,0.855856 0.153496,0.855856 v 2.325696 l -0.465139,1.162848 -1.395418,0.758178 h -1.860557 c 0,0 0.06047,0.06977 -0.50235,-0.08373 -0.218616,-0.04651 -1.320995,-0.6698 -1.320995,-0.6698 l -0.46514,-1.925676 v -1.53496 l 0.930279,-1.539611 2.325696,-0.376763 v -0.0093 0 z"
     id="path45"
     style="fill:#0c0c8e" />
  <path
     d="m 39.348812,81.01484 c 0.418625,0 0.865158,0.03721 1.348903,0.172101 1.711713,0.46514 2.576872,1.716364 2.576872,3.73972 0,1.107031 -0.283736,1.976842 -0.89772,2.609432 -0.725617,0.767478 -1.762877,1.162847 -3.083873,1.162847 -1.232618,0 -2.214063,-0.348855 -2.944331,-1.060517 -0.697709,-0.674452 -1.046563,-1.595428 -1.046563,-2.730367 0,-1.088426 0.316295,-1.986145 0.958186,-2.683854 0.734921,-0.813994 1.762878,-1.209362 3.074571,-1.209362 h 0 0.0046 0.0046 z m 0.03721,1.125637 c -0.474442,0 -0.920975,0.09302 -1.339601,0.302341 -0.813993,0.395368 -1.232618,1.246573 -1.232618,2.497797 0,1.753575 0.813993,2.641991 2.460587,2.641991 1.683803,0 2.525705,-0.939581 2.525705,-2.814093 0,-1.762877 -0.800039,-2.651293 -2.409421,-2.651293 v 0.0093 0.0093 l 0,0 z m 0.08373,-0.348855 c 0,0 1.065168,0.218616 1.074472,0.186056 0,-0.02791 0.748874,0.172102 0.748874,0.172102 0,0 0.162798,0.176753 0.627937,0.958186 0.288387,0.483745 0.283736,0.581425 0.283736,0.581425 v 2.325695 l -0.46514,1.162849 -1.395417,0.758177 h -1.860561 c 0,0 -0.330248,-0.08373 -0.748874,-0.176754 -0.116285,-0.0093 -1.093077,-0.581423 -1.093077,-0.581423 L 36.176563,85.25691 v -1.53496 l 0.930278,-1.539611 2.325696,-0.386065 h 0 0.0046 0.0046 0.0046 l 0.0093,0 z"
     id="path47"
     style="fill:#0c0c85" />
  <path
     d="M 39.651152,69.009596 C 50.16795,71.944625 57.442727,83.428912 57.642737,89.96877 57.810187,95.420208 42.641997,88.29892 35.930038,85.996482 29.245987,83.694042 7.193736,83.261463 10.659023,78.396106 13.812668,73.949375 24.473658,64.037258 39.632546,69.023551 v -0.0046 -0.0046 h 0.0046 0.0046 l 0.0046,0 z"
     id="path49"
     style="fill:#ffffff;fill-opacity:0.247" />
  <path
     d="m 30.683267,92.066551 c 11.219158,0 16.265919,0 19.070709,0 0.56747,0 1.395417,23.722099 -18.605569,23.722099 -19.089314,0 -18.577662,-23.722099 -17.675291,-23.722099 0,0 5.795635,0 17.210151,0 z"
     id="path51"
     style="fill:none;stroke:#d38d06;stroke-width:1.63519704" />
</svg>
