<?xml version="1.0" encoding="UTF-8" standalone="no"?>
<!-- Created with Inkscape (http://www.inkscape.org/) -->

<svg
   xmlns:svg="http://www.w3.org/2000/svg"
   xmlns="http://www.w3.org/2000/svg"
   xmlns:xlink="http://www.w3.org/1999/xlink"
   version="1.1"
   width="162.79156"
   height="74.8274"
   viewBox="0 0 162.79157 74.827402"
   id="svg2"
   xml:space="preserve"
   style="overflow:visible"><defs
   id="defs153"><linearGradient
   x1="58.167"
   y1="76.804703"
   x2="58.167"
   y2="2.8750999"
   id="linearGradient4276"
   gradientUnits="userSpaceOnUse">
						<stop
   id="stop4278"
   style="stop-color:#999999;stop-opacity:1"
   offset="0.05" />
						
						<stop
   id="stop4280"
   style="stop-color:#666666;stop-opacity:0"
   offset="0.66284686" />
						<midPointStop
   id="midPointStop4282"
   style="stop-color:#999999"
   offset="0.05" />
						<midPointStop
   id="midPointStop4284"
   style="stop-color:#999999"
   offset="0.5063" />
						<midPointStop
   id="midPointStop4286"
   style="stop-color:#7F7F7F"
   offset="0.5778" />
						<midPointStop
   id="midPointStop4288"
   style="stop-color:#7F7F7F"
   offset="0.5" />
						<midPointStop
   id="midPointStop4290"
   style="stop-color:#666666"
   offset="0.8944" />
					</linearGradient><linearGradient
   id="linearGradient4268"><stop
     id="stop4270"
     style="stop-color:#e6e6e6;stop-opacity:1"
     offset="0" /><stop
     id="stop4272"
     style="stop-color:#e6e6e6;stop-opacity:0"
     offset="1" /></linearGradient><linearGradient
   id="linearGradient4252"><stop
     id="stop4254"
     style="stop-color:#cccccc;stop-opacity:1"
     offset="0" /><stop
     id="stop4256"
     style="stop-color:#cccccc;stop-opacity:0"
     offset="1" /></linearGradient>
			
		<linearGradient
   x1="58.065399"
   y1="123.8135"
   x2="58.065399"
   y2="-0.44999999"
   id="linearGradient3039"
   xlink:href="#XMLID_19_"
   gradientUnits="userSpaceOnUse" /><linearGradient
   x1="57.348598"
   y1="121.5049"
   x2="58.271099"
   y2="35.722401"
   id="linearGradient3041"
   xlink:href="#XMLID_20_"
   gradientUnits="userSpaceOnUse" /><linearGradient
   x1="58.167"
   y1="76.804703"
   x2="58.167"
   y2="2.8750999"
   id="linearGradient3043"
   xlink:href="#XMLID_21_"
   gradientUnits="userSpaceOnUse" /><linearGradient
   x1="58.2607"
   y1="5.0254002"
   x2="58.2607"
   y2="38.509701"
   id="linearGradient3045"
   xlink:href="#XMLID_22_"
   gradientUnits="userSpaceOnUse" /><linearGradient
   x1="57.276402"
   y1="81.820297"
   x2="63.403801"
   y2="25.316799"
   id="linearGradient3047"
   xlink:href="#XMLID_23_"
   gradientUnits="userSpaceOnUse" /><linearGradient
   x1="44.637699"
   y1="74.465797"
   x2="46.225899"
   y2="114.6298"
   id="linearGradient3049"
   xlink:href="#XMLID_24_"
   gradientUnits="userSpaceOnUse" />
				
				
			<linearGradient
   x1="-284.46542"
   y1="159.68958"
   x2="129.03865"
   y2="159.68958"
   id="linearGradient4250"
   xlink:href="#linearGradient4276"
   gradientUnits="userSpaceOnUse" /><linearGradient
   x1="-283.99802"
   y1="159.36166"
   x2="53.808922"
   y2="159.36166"
   id="linearGradient4258"
   xlink:href="#linearGradient4252"
   gradientUnits="userSpaceOnUse" /><linearGradient
   x1="-283.99802"
   y1="159.36166"
   x2="53.808922"
   y2="159.36166"
   id="linearGradient4274"
   xlink:href="#linearGradient4268"
   gradientUnits="userSpaceOnUse" /></defs>
			
	<g
   transform="matrix(0.59088412,0,0,0.59088412,168.97243,-56.944329)"
   id="g4246"><rect
     width="271.50507"
     height="122.63634"
     x="-283.96542"
     y="98.371399"
     id="rect3462"
     style="fill:none;stroke:url(#linearGradient4250);stroke-width:4;stroke-miterlimit:4;stroke-opacity:1;stroke-dasharray:none" /><rect
     width="264.94696"
     height="115.42244"
     x="-281.99802"
     y="101.65044"
     id="rect4244"
     style="fill:url(#linearGradient4258);fill-opacity:1;stroke:url(#linearGradient4274);stroke-width:4;stroke-miterlimit:4;stroke-opacity:1;stroke-dasharray:none" /></g><g
   transform="matrix(0.4196984,0,0,0.4196984,33.732378,11.644468)"
   id="g3126"><g
     id="g9">
					<linearGradient
   x1="58.065399"
   y1="123.8135"
   x2="58.065399"
   y2="-0.44999999"
   id="XMLID_19_"
   gradientUnits="userSpaceOnUse">
						<stop
   id="stop12"
   style="stop-color:#b3b3b3;stop-opacity:1"
   offset="0.0278" />
						<stop
   id="stop14"
   style="stop-color:#949494;stop-opacity:1"
   offset="0.58469999" />
						<stop
   id="stop16"
   style="stop-color:#7f7f7f;stop-opacity:1"
   offset="0.9278" />
						<stop
   id="stop18"
   style="stop-color:#666666;stop-opacity:1"
   offset="1" />
						<midPointStop
   offset="0.0278"
   style="stop-color:#B3B3B3"
   id="midPointStop20" />
						<midPointStop
   offset="0.5301"
   style="stop-color:#B3B3B3"
   id="midPointStop22" />
						<midPointStop
   offset="0.9278"
   style="stop-color:#7F7F7F"
   id="midPointStop24" />
						<midPointStop
   offset="0.5"
   style="stop-color:#7F7F7F"
   id="midPointStop26" />
						<midPointStop
   offset="1"
   style="stop-color:#666666"
   id="midPointStop28" />
					</linearGradient>
					<path
   d="m 8.671,9.158 c 0,0 0.535,-0.742 0.982,-0.861 3.889,-1.039 23.78,-6.09 48.512,-6.09 24.278,0 44.914,4.896 49.365,6.027 0.582,0.149 1.002,0.969 1.002,0.969 0,0 5.416,27.633 5.416,50.896 0,20.686 -5.066,50.547 -5.066,50.547 0,0 -0.578,1.204 -1.357,1.393 -5.148,1.247 -26.305,5.975 -49.359,5.719 -22.625,-0.251 -43.6,-4.725 -48.539,-5.847 -0.725,-0.163 -1.147,-0.942 -1.147,-0.942 0,0 -6.297,-17.356 -6.297,-50.87 0,-23.905 6.488,-50.941 6.488,-50.941 z"
   id="path30"
   style="fill:url(#linearGradient3039);fill-rule:evenodd" />
					<linearGradient
   x1="57.348598"
   y1="121.5049"
   x2="58.271099"
   y2="35.722401"
   id="XMLID_20_"
   gradientUnits="userSpaceOnUse">
						<stop
   id="stop33"
   style="stop-color:#999999;stop-opacity:1"
   offset="0.0222" />
						<stop
   id="stop35"
   style="stop-color:#999999;stop-opacity:1"
   offset="0.41670001" />
						<stop
   id="stop37"
   style="stop-color:#666666;stop-opacity:1"
   offset="0.94440001" />
						<midPointStop
   offset="0.0222"
   style="stop-color:#999999"
   id="midPointStop39" />
						<midPointStop
   offset="0.5063"
   style="stop-color:#999999"
   id="midPointStop41" />
						<midPointStop
   offset="0.4167"
   style="stop-color:#999999"
   id="midPointStop43" />
						<midPointStop
   offset="0.5"
   style="stop-color:#999999"
   id="midPointStop45" />
						<midPointStop
   offset="0.9444"
   style="stop-color:#666666"
   id="midPointStop47" />
					</linearGradient>
					<path
   d="m 12.614,13.535 c 0,0 0.492,-0.682 0.904,-0.792 3.574,-0.955 21.854,-5.597 44.578,-5.597 22.313,0 41.277,4.499 45.367,5.54 0.537,0.136 0.922,0.89 0.922,0.89 0,0 4.977,25.395 4.977,46.771 0,19.011 -4.654,46.453 -4.654,46.453 0,0 -0.533,1.104 -1.25,1.279 -4.732,1.146 -24.173,5.49 -45.361,5.256 -20.791,-0.231 -40.065,-4.343 -44.604,-5.374 -0.666,-0.151 -1.055,-0.866 -1.055,-0.866 0,0 -5.787,-15.947 -5.787,-46.748 0,-21.968 5.963,-46.812 5.963,-46.812 z"
   id="path49"
   style="fill:url(#linearGradient3041);fill-rule:evenodd" />
					<path
   d="M 8.65,6.218 C 7.819,6.44 7.165,7.209 6.848,7.647 L 6.68,7.881 6.614,8.16 C 6.547,8.436 0,35.993 0,60.1 c 0,33.815 6.201,51.298 6.465,52.025 l 0.038,0.103 0.053,0.097 c 0.125,0.228 0.81,1.383 2.12,1.681 5.88,1.333 26.822,5.705 49.472,5.958 23.325,0.258 44.444,-4.4 50.359,-5.835 1.355,-0.327 2.141,-1.763 2.349,-2.194 l 0.089,-0.186 0.034,-0.202 c 0.051,-0.305 5.153,-30.611 5.153,-51.447 0,-23.433 -5.46,-51.552 -5.514,-51.835 l -0.042,-0.2 -0.091,-0.182 C 110.315,7.55 109.672,6.442 108.531,6.152 104.495,5.124 83.096,0 58.167,0 33.826,0 14.113,4.759 8.65,6.218 z M 58.165,3.646 c 24.216,0 44.988,4.962 48.978,5.977 -0.014,0 -0.018,0.007 -0.018,0.018 0,0.016 0.021,0.037 0.037,0.064 0.43,2.248 5.346,28.43 5.346,50.394 0,19.483 -4.578,47.494 -5.002,50.049 -0.135,0.226 -0.311,0.463 -0.41,0.524 -4.012,0.961 -25.642,5.904 -48.916,5.646 -22.078,-0.246 -42.502,-4.51 -48.236,-5.811 -0.027,-0.018 -0.108,-0.114 -0.17,-0.198 C 9.215,108.664 3.622,91.433 3.622,60.099 3.622,38.067 9.256,13.015 9.991,9.839 10.076,9.746 10.136,9.682 10.164,9.652 15.617,8.203 34.644,3.646 58.165,3.646 z"
   id="path51"
   style="fill:#020202;fill-rule:evenodd" />
					<linearGradient
   x1="58.167"
   y1="76.804703"
   x2="58.167"
   y2="2.8750999"
   id="XMLID_21_"
   gradientUnits="userSpaceOnUse">
						<stop
   id="stop54"
   style="stop-color:#999999;stop-opacity:1"
   offset="0.05" />
						
						<stop
   id="stop58"
   style="stop-color:#666666;stop-opacity:0"
   offset="0.8944" />
						<midPointStop
   offset="0.05"
   style="stop-color:#999999"
   id="midPointStop60" />
						<midPointStop
   offset="0.5063"
   style="stop-color:#999999"
   id="midPointStop62" />
						<midPointStop
   offset="0.5778"
   style="stop-color:#7F7F7F"
   id="midPointStop64" />
						<midPointStop
   offset="0.5"
   style="stop-color:#7F7F7F"
   id="midPointStop66" />
						<midPointStop
   offset="0.8944"
   style="stop-color:#666666"
   id="midPointStop68" />
					</linearGradient>
					<path
   d="M 103.799,12.268 C 99.692,11.219 80.656,6.685 58.257,6.685 c -22.814,0 -41.164,4.679 -44.752,5.64 -0.414,0.112 -0.906,0.8 -0.906,0.8 0,0 -5.988,25.04 -5.988,47.183 0,1.306 0.014,2.574 0.033,3.826 5.593,6.438 15.979,12.357 34.68,7.464 35.607,-9.323 57.995,-8.66 67.862,1.587 0.326,-4.442 0.535,-8.848 0.535,-12.877 0,-21.546 -4.998,-47.143 -4.998,-47.143 0,0 -0.387,-0.759 -0.924,-0.897 z"
   id="path70"
   style="fill:url(#linearGradient3043);fill-rule:evenodd" />
					<linearGradient
   x1="58.2607"
   y1="5.0254002"
   x2="58.2607"
   y2="38.509701"
   id="XMLID_22_"
   gradientUnits="userSpaceOnUse">
						<stop
   id="stop73"
   style="stop-color:#ffffff;stop-opacity:1"
   offset="0.0778" />
						<stop
   id="stop75"
   style="stop-color:#ebebeb;stop-opacity:1"
   offset="0.25409999" />
						<stop
   id="stop77"
   style="stop-color:#b9b9b9;stop-opacity:1"
   offset="0.61159998" />
						<stop
   id="stop79"
   style="stop-color:#8c8c8c;stop-opacity:1"
   offset="0.89999998" />
						<midPointStop
   offset="0.0778"
   style="stop-color:#FFFFFF"
   id="midPointStop81" />
						<midPointStop
   offset="0.5472"
   style="stop-color:#FFFFFF"
   id="midPointStop83" />
						<midPointStop
   offset="0.9"
   style="stop-color:#8C8C8C"
   id="midPointStop85" />
					</linearGradient>
					<path
   d="m 13.511,14.213 c 0,0 0.483,-0.664 0.889,-0.771 3.523,-0.93 21.547,-5.45 43.95,-5.45 21.999,0 40.698,4.381 44.729,5.395 0.529,0.133 0.91,0.867 0.91,0.867 0,0 1.99,15.318 2.555,26.156 -1.174,-1.572 -7.799,-4.904 -48.326,-4.904 -34.712,0 -45.223,0.562 -48.239,2.612 1.582,-9.913 3.532,-23.905 3.532,-23.905 z"
   id="path87"
   style="opacity:0.62000002;fill:url(#linearGradient3045);fill-rule:evenodd" />
					<path
   d="m 38.067,107.37 c 0,0 -0.396,0.571 -0.266,0.924 0.133,0.354 0.838,1.455 1.189,1.586 0.354,0.132 0.969,-0.045 1.322,-0.177 0.353,-0.132 24.51,-11.572 23.618,-23.837 -0.704,-9.689 -19.765,-8.033 -20.448,-16.109 -0.74,-8.776 5.985,-23.591 33.461,-40.845 12.308,1.062 22.546,-3.697 19.63,-9.391 -1.928,-3.764 -18.879,4.496 -20.128,4.912 -1.25,0.417 -3.599,0.557 -5.04,-1.371 -2.211,-2.959 2.099,-5.645 3.043,-6.727 -3.835,0.267 -9.87,2.123 -11.301,5.253 -0.675,1.476 -1.326,5.603 6.259,6.261 -26.575,13.789 -36.152,29.727 -39.194,40.129 -2.623,8.974 0.73,12.487 8.839,16.657 7.153,3.68 10.896,5.823 8.245,10.619 -2.65,4.794 -9.229,12.116 -9.229,12.116 z"
   id="path89"
   style="opacity:0.46000001;fill:#666666;fill-rule:evenodd" />
					<path
   d="m 38.263,108.667 c 0.005,-0.003 0.035,-0.016 0.055,-0.025 l -1.357,0.204 c 0.352,0.122 0.953,-0.049 1.302,-0.179 z"
   id="path91"
   style="fill:none" />
					<path
   d="m 94.524,18.483 c -1.926,-3.763 -18.879,4.497 -20.127,4.913 -1.251,0.417 -3.599,0.557 -5.039,-1.372 -2.212,-2.959 2.099,-5.645 3.042,-6.727 -3.836,0.269 -9.87,2.124 -11.302,5.255 -0.675,1.473 -1.327,5.603 6.26,6.261 -26.579,13.789 -36.155,29.727 -39.197,40.128 -0.734,2.511 -0.984,4.584 -0.808,6.375 1.423,1.547 3.389,3.001 5.829,3.088 5.162,0.186 8.044,-2.363 15.441,-1.354 -3.758,-1.457 -6.92,-3.128 -7.191,-6.33 -0.74,-8.776 5.984,-23.591 33.46,-40.845 12.31,1.062 22.548,-3.697 19.632,-9.392 z"
   id="path93"
   style="fill:none" />
					<linearGradient
   x1="57.276402"
   y1="81.820297"
   x2="63.403801"
   y2="25.316799"
   id="XMLID_23_"
   gradientUnits="userSpaceOnUse">
						<stop
   id="stop96"
   style="stop-color:#ffffff;stop-opacity:1"
   offset="0.0222" />
						<stop
   id="stop98"
   style="stop-color:#fffacd;stop-opacity:1"
   offset="0.0887" />
						<stop
   id="stop100"
   style="stop-color:#fff490;stop-opacity:1"
   offset="0.1796" />
						<stop
   id="stop102"
   style="stop-color:#ffef5c;stop-opacity:1"
   offset="0.2669" />
						<stop
   id="stop104"
   style="stop-color:#ffeb34;stop-opacity:1"
   offset="0.34819999" />
						<stop
   id="stop106"
   style="stop-color:#ffe818;stop-opacity:1"
   offset="0.42210001" />
						<stop
   id="stop108"
   style="stop-color:#ffe706;stop-opacity:1"
   offset="0.48629999" />
						<stop
   id="stop110"
   style="stop-color:#ffe600;stop-opacity:1"
   offset="0.53329998" />
						<stop
   id="stop112"
   style="stop-color:#ffed00;stop-opacity:1"
   offset="0.97780001" />
						<midPointStop
   offset="0.0222"
   style="stop-color:#FFFFFF"
   id="midPointStop114" />
						<midPointStop
   offset="0.3587"
   style="stop-color:#FFFFFF"
   id="midPointStop116" />
						<midPointStop
   offset="0.5333"
   style="stop-color:#FFE600"
   id="midPointStop118" />
						<midPointStop
   offset="0.5"
   style="stop-color:#FFE600"
   id="midPointStop120" />
						<midPointStop
   offset="0.9778"
   style="stop-color:#FFED00"
   id="midPointStop122" />
					</linearGradient>
					<path
   d="m 36.015,106.332 c 0,0 -0.396,0.572 -0.264,0.926 0.132,0.353 0.838,1.453 1.189,1.586 0.354,0.132 0.969,-0.045 1.322,-0.177 0.352,-0.132 24.51,-11.573 23.619,-23.838 C 61.176,75.14 42.115,76.795 41.432,68.72 c -0.74,-8.776 5.984,-23.591 33.46,-40.845 12.309,1.062 22.547,-3.697 19.631,-9.392 -1.926,-3.763 -18.879,4.497 -20.127,4.913 -1.251,0.417 -3.599,0.557 -5.039,-1.372 -2.212,-2.959 2.099,-5.645 3.042,-6.727 -3.836,0.269 -9.87,2.124 -11.302,5.255 -0.675,1.473 -1.327,5.603 6.26,6.261 -26.578,13.789 -36.154,29.727 -39.196,40.128 -2.623,8.973 0.729,12.485 8.84,16.657 7.154,3.678 10.895,5.823 8.244,10.617 -2.651,4.794 -9.23,12.117 -9.23,12.117 z"
   id="path124"
   style="fill:url(#linearGradient3047);fill-rule:evenodd" />
					<linearGradient
   x1="44.637699"
   y1="74.465797"
   x2="46.225899"
   y2="114.6298"
   id="XMLID_24_"
   gradientUnits="userSpaceOnUse">
						<stop
   id="stop127"
   style="stop-color:#ffed00;stop-opacity:1"
   offset="0.0333" />
						<stop
   id="stop129"
   style="stop-color:#feec00;stop-opacity:1"
   offset="0.0497" />
						<stop
   id="stop131"
   style="stop-color:#f2cb00;stop-opacity:1"
   offset="0.50950003" />
						<stop
   id="stop133"
   style="stop-color:#edbe00;stop-opacity:1"
   offset="0.76109999" />
						<midPointStop
   offset="0.0333"
   style="stop-color:#FFED00"
   id="midPointStop135" />
						<midPointStop
   offset="0.4275"
   style="stop-color:#FFED00"
   id="midPointStop137" />
						<midPointStop
   offset="0.7611"
   style="stop-color:#EDBE00"
   id="midPointStop139" />
					</linearGradient>
					<path
   d="m 33.394,76.715 c -2.438,-0.087 -4.405,-1.541 -5.828,-3.089 0.449,4.605 3.807,7.279 9.647,10.282 7.153,3.679 10.894,5.823 8.245,10.618 -2.651,4.794 -9.231,12.116 -9.231,12.116 0,0 -0.396,0.572 -0.264,0.925 0.132,0.353 0.837,1.453 1.189,1.586 0.005,10e-4 0.013,10e-4 0.019,0.002 l 1.357,-0.203 C 39.645,108.453 62.969,97.198 62.091,85.139 61.666,79.292 54.557,77.577 48.836,75.361 41.438,74.352 38.558,76.899 33.394,76.715 z"
   id="path141"
   style="fill:url(#linearGradient3049)" />
					<path
   d="m 90.833,17.77 c 0,0 4.115,0.332 2.363,2.93 -1.961,2.906 -10.31,5.535 -18.586,5.969 -5.616,2.363 -29.356,15.494 -35.372,34.357 -2.605,8.169 1.352,12.617 8.537,14.345 C 38.029,69.948 42.33,61.852 42.33,61.852 l 4.682,-9.612 11.206,-12.245 8.441,-6.94 8.1,-5.347 5.783,0.312 6.536,-1.031 5.473,-2.283 2.5,-2.938 -0.062,-3.284 -1.562,-1 -2.594,0.286 z"
   id="path143"
   style="fill:#edbe00;fill-rule:evenodd" />
					<path
   d="m 45.658,89.864 c -2.105,-3.591 -10.79,-5.728 -14.757,-10.025 -4.757,-5.154 -4.185,-9.725 -3.976,-8.732 1.078,5.108 5.536,7.357 9.46,8.34 4.756,1.19 13.444,2.725 14.397,8.783 1.214,7.713 -15.038,19.321 -15.038,19.321 0,0 11.829,-14.42 9.914,-17.687 z"
   id="path145"
   style="fill:#edbe00;fill-rule:evenodd" />
					<path
   d="m 73.377,24.332 c 0,0 -3.258,0.334 -5.16,-0.561 -1.908,-0.897 -3.142,-3.029 -1.981,-4.713 1.833,-2.658 4.822,-2.878 5.01,-2.654 0.187,0.225 -1.981,2.281 -1.981,2.281 l -0.149,2.356 1.346,1.907 1.833,0.748 1.082,0.636 z"
   id="path147"
   style="fill:#edbe00;fill-rule:evenodd" />
					<path
   d="m 72.348,14.537 c -4.006,0.279 -10.358,2.232 -11.943,5.697 -0.144,0.316 -0.453,1.106 -0.453,2.083 0,0.662 0.142,1.409 0.573,2.151 0.78,1.338 2.293,2.258 4.493,2.756 C 38.229,41.709 29.949,58.11 27.43,66.727 c -0.606,2.074 -0.899,3.88 -0.899,5.479 0,5.661 3.67,8.753 10.122,12.07 4.901,2.521 7.923,4.201 8.56,6.292 0.084,0.271 0.124,0.555 0.124,0.849 0,0.717 -0.249,1.509 -0.757,2.431 -2.578,4.662 -9.065,11.902 -9.131,11.975 l -0.031,0.035 -0.027,0.039 c -0.117,0.169 -0.428,0.668 -0.428,1.202 0,0.142 0.021,0.285 0.075,0.427 0.104,0.28 0.896,1.753 1.635,2.031 0.574,0.215 1.327,0.023 1.858,-0.177 0.248,-0.092 24.137,-11.371 24.137,-23.899 0,-0.234 -0.009,-0.471 -0.025,-0.707 -0.406,-5.562 -6.299,-7.675 -11.463,-9.554 -4.496,-1.636 -8.84,-3.171 -9.125,-6.533 -0.03,-0.358 -0.789,-5.858 4.68,-14.831 4.238,-7.005 12.144,-14.987 28.371,-25.209 8.875,0.703 17.177,-1.59 19.81,-5.507 1.059,-1.573 1.158,-3.304 0.287,-5.004 -1.383,-2.701 -7.262,-1.522 -19.662,3.944 l -1.385,0.594 c -0.276,0.092 -2.733,0.84 -4.188,-1.105 -1.276,-1.707 0.28,-3.312 2.132,-4.943 l 2.427,-2.287 -2.179,0.198 z M 45.913,94.585 c 0.633,-1.145 0.947,-2.196 0.947,-3.178 0,-0.439 -0.064,-0.867 -0.191,-1.283 -0.811,-2.666 -4.062,-4.499 -9.319,-7.204 -6.074,-3.124 -9.296,-5.767 -9.296,-10.731 0,-1.455 0.277,-3.109 0.84,-5.033 2.514,-8.598 10.9,-25.185 38.815,-39.665 l 2.332,-1.209 -2.617,-0.228 C 64.523,25.803 62.593,24.989 61.843,23.701 61.57,23.232 61.48,22.747 61.48,22.312 c 0,-0.708 0.238,-1.285 0.312,-1.443 1.008,-2.203 4.905,-3.79 8.302,-4.468 -1.023,1.007 -2.128,2.373 -2.128,3.913 0,0.693 0.224,1.422 0.78,2.166 1.591,2.129 4.168,2.214 5.893,1.641 l 1.519,-0.646 c 14.776,-6.516 17.292,-5.418 17.69,-4.645 0.609,1.194 0.543,2.357 -0.197,3.459 -2.332,3.47 -10.368,5.544 -18.691,4.826 l -0.255,-0.021 -0.216,0.135 c -31.99,20.089 -34.303,35.754 -33.813,41.555 0.366,4.337 5.276,6.123 10.024,7.85 4.96,1.807 10.09,3.674 10.423,8.252 0.847,11.657 -22.905,22.974 -23.146,23.076 -0.38,0.142 -0.69,0.183 -0.783,0.163 -0.12,-0.11 -0.637,-0.896 -0.728,-1.134 0.021,0.105 0.15,-0.164 0.17,-0.207 0.468,-0.524 6.661,-7.467 9.277,-12.199 z"
   id="path149"
   style="fill:#666666;fill-rule:evenodd" />
				</g></g></svg>